M48
;Layer_Color=9474304
;FILE_FORMAT=4:4
METRIC,LZ
;TYPE=PLATED
T01F00S00C0.3810
T02F00S00C0.6096
T03F00S00C0.7112
T04F00S00C0.8000
T05F00S00C1.0500
T06F00S00C1.1430
T07F00S00C1.2000
T08F00S00C1.3000
T09F00S00C1.3500
T10F00S00C1.5000
T11F00S00C1.6000
T12F00S00C2.0000
T13F00S00C2.6051
T14F00S00C3.0000
T15F00S00C4.5500
%
T01
X0080625Y005585
X008275Y0055825
X008455
X008635
X0088425Y005575
X009325Y005685
X009975Y0055925
X0101516Y0055952
X0103391
X0105025Y005595
X0106677Y0055927
X0108702
X0110452
X0112277Y0055952
X0114027Y0056002
X0115802
X0112475Y00698
X011255Y007195
X0109975Y007185
X011Y0069875
X01069Y007005
X0105275
X010615Y00686
X0108825Y0073925
X0108775Y0074875
X0108725Y00759
X011085Y007585
X01109Y0074875
X011095Y007395
X01022Y007775
X0100875Y00775
X0100925Y0078625
X0098425Y0078525
X0097325
X009735Y007755
X00961Y0078525
X0093925Y00785
X009395Y007745
X00925Y007765
X0085975Y0076
X0086025Y0075
Y0074025
X0084175Y007405
X0084125Y0075
X008415Y0075975
X00832Y00717
Y006995
X00853Y0069925
X008525Y0071625
X008835Y006995
X0090075Y0069975
X008925Y00686
X0099725Y0053625
X0078625Y0055825
X007625Y005585
X007425
X00691275Y00532567
X0067602Y0053477
X00660188Y00529394
X00653Y0051625
X0070025Y0051975
X00698263Y00500905
T02
X0049775Y0051475
X0057575
T03
X002455Y0050675
T04
X0013Y00466
Y00486
X00321Y00436
Y00416
T05
X00051088Y00251831
Y00277231
X00247539Y00276456
Y00251056
X0043674Y00250571
Y00275972
X00632292Y00272566
Y00247166
X00816457Y00248831
Y00274231
T06
X00196Y00458
Y004835
Y00509
T07
X00638029Y00482229
X00713027Y00482229
T08
X00077Y00383125
Y00520875
T09
X00313Y00526088
Y00551488
Y00576888
T10
X00374314Y00553297
T11
X00138065Y00223374
X00172065
Y00322574
X00138065
X00331961Y00319276
X00365961
Y00220076
X00331961
X00515709Y00220856
X00549709
Y00320056
X00515709
X00701254Y00316056
X00735254
Y00216856
X00701254
X00889325Y002163
X00923325
Y003155
X00889325
X0050995Y0040475
Y0043875
X0041075
Y0040475
X001862Y00567
Y00601
X00087
Y00567
T12
X00397749Y0067725
X0049275
X00587749
X0068275
X0030275
X0020775
X0011275
T13
X000965Y0008603
X001515
X00124Y00133661
X003155Y00133631
X00343Y00086
X00288
X00473805Y0008678
X00528805
X00501305Y00134411
X0068825Y00130411
X0071575Y0008278
X0066075
X00850708Y00082224
X00905708
X00878208Y00129855
T14
X00032742Y00031653
X01174Y000335
X011725Y007715
X0003225Y0077825
T15
X0106825Y0032425
X0114025
X0114Y00447663
X01068
M30
