%TF.GenerationSoftware,Altium Limited,Altium Designer,26.4.1 (12)*%
G04 Layer_Color=16711935*
%FSLAX26Y26*%
%MOIN*%
%TF.SameCoordinates,73598C5C-0CA9-4AAD-A791-1ED4FCC68FF1*%
%TF.FilePolarity,Negative*%
%TF.FileFunction,Soldermask,Bot*%
%TF.Part,Single*%
G01*
G75*
%TA.AperFunction,SMDPad,CuDef*%
%ADD65R,0.052150X0.041339*%
%ADD66R,0.053150X0.053150*%
%ADD70R,0.053150X0.053150*%
%TA.AperFunction,ComponentPad*%
%ADD82C,0.084646*%
%ADD83C,0.068898*%
%ADD84C,0.143701*%
%ADD85C,0.065276*%
G04:AMPARAMS|DCode=86|XSize=68.898mil|YSize=68.898mil|CornerRadius=18.701mil|HoleSize=0mil|Usage=FLASHONLY|Rotation=180.000|XOffset=0mil|YOffset=0mil|HoleType=Round|Shape=RoundedRectangle|*
%AMROUNDEDRECTD86*
21,1,0.068898,0.031496,0,0,180.0*
21,1,0.031496,0.068898,0,0,180.0*
1,1,0.037402,-0.015748,0.015748*
1,1,0.037402,0.015748,0.015748*
1,1,0.037402,0.015748,-0.015748*
1,1,0.037402,-0.015748,-0.015748*
%
%ADD86ROUNDEDRECTD86*%
%ADD87R,0.065276X0.065276*%
%ADD88R,0.067913X0.067913*%
%ADD89C,0.067913*%
%TA.AperFunction,ViaPad*%
%ADD90C,0.029528*%
%TA.AperFunction,SMDPad,CuDef*%
%ADD91R,0.064961X0.031496*%
D65*
X896000Y1173000D02*
D03*
Y1253677D02*
D03*
Y1023322D02*
D03*
Y1104000D02*
D03*
D66*
X1277389Y1103004D02*
D03*
Y1167996D02*
D03*
D70*
X1123504Y1293000D02*
D03*
X1188496D02*
D03*
D82*
X1613000Y1760000D02*
D03*
X1913000D02*
D03*
X1713000D02*
D03*
X1813000D02*
D03*
D83*
X1189000Y171000D02*
D03*
X581000D02*
D03*
X681000D02*
D03*
X1089000D02*
D03*
D84*
X227475Y1426268D02*
D03*
X415000Y1318000D02*
D03*
Y1534535D02*
D03*
D85*
X1463000Y177000D02*
D03*
X1563000D02*
D03*
X1663000D02*
D03*
X1363000D02*
D03*
X962862Y1895591D02*
D03*
X1061287D02*
D03*
X1159713D02*
D03*
X1363000Y477000D02*
D03*
X1463000D02*
D03*
X1563000D02*
D03*
D86*
X781000Y171000D02*
D03*
X989000D02*
D03*
D87*
X1258138Y1895591D02*
D03*
X1663000Y477000D02*
D03*
D88*
X2056343Y1459425D02*
D03*
X2015005Y948792D02*
D03*
D89*
X2056343Y1361000D02*
D03*
X2015005Y1047217D02*
D03*
D90*
X1042000Y1293000D02*
D03*
D91*
X1188976Y1066732D02*
D03*
X976378D02*
D03*
Y1166732D02*
D03*
Y1216732D02*
D03*
Y1116732D02*
D03*
X1188976D02*
D03*
Y1166732D02*
D03*
Y1216732D02*
D03*
%TF.MD5,1e144b0a69df608b78bb06f4b0fd777b*%
M02*
