G04*
G04 #@! TF.GenerationSoftware,Altium Limited,Altium Designer,26.4.1 (12)*
G04*
G04 Layer_Color=8388736*
%FSLAX44Y44*%
%MOMM*%
G71*
G04*
G04 #@! TF.SameCoordinates,96A31BFF-9141-40C9-AD20-0A9797D9CB50*
G04*
G04*
G04 #@! TF.FilePolarity,Negative*
G04*
G01*
G75*
%ADD40R,0.8128X0.8128*%
G04:AMPARAMS|DCode=41|XSize=1.434mm|YSize=0.804mm|CornerRadius=0.177mm|HoleSize=0mm|Usage=FLASHONLY|Rotation=180.000|XOffset=0mm|YOffset=0mm|HoleType=Round|Shape=RoundedRectangle|*
%AMROUNDEDRECTD41*
21,1,1.4340,0.4500,0,0,180.0*
21,1,1.0800,0.8040,0,0,180.0*
1,1,0.3540,-0.5400,0.2250*
1,1,0.3540,0.5400,0.2250*
1,1,0.3540,0.5400,-0.2250*
1,1,0.3540,-0.5400,-0.2250*
%
%ADD41ROUNDEDRECTD41*%
%ADD42R,2.3000X3.4000*%
%ADD43R,2.3000X1.1000*%
%ADD44R,2.4500X4.7000*%
%ADD45C,0.7500*%
%ADD46R,1.3246X1.0500*%
%ADD47R,1.1500X1.6500*%
%ADD48R,1.3500X1.3500*%
G04:AMPARAMS|DCode=49|XSize=0.96mm|YSize=0.42mm|CornerRadius=0.1088mm|HoleSize=0mm|Usage=FLASHONLY|Rotation=0.000|XOffset=0mm|YOffset=0mm|HoleType=Round|Shape=RoundedRectangle|*
%AMROUNDEDRECTD49*
21,1,0.9600,0.2025,0,0,0.0*
21,1,0.7425,0.4200,0,0,0.0*
1,1,0.2175,0.3713,-0.1013*
1,1,0.2175,-0.3713,-0.1013*
1,1,0.2175,-0.3713,0.1013*
1,1,0.2175,0.3713,0.1013*
%
%ADD49ROUNDEDRECTD49*%
G04:AMPARAMS|DCode=50|XSize=0.42mm|YSize=0.96mm|CornerRadius=0.1088mm|HoleSize=0mm|Usage=FLASHONLY|Rotation=0.000|XOffset=0mm|YOffset=0mm|HoleType=Round|Shape=RoundedRectangle|*
%AMROUNDEDRECTD50*
21,1,0.4200,0.7425,0,0,0.0*
21,1,0.2025,0.9600,0,0,0.0*
1,1,0.2175,0.1013,-0.3713*
1,1,0.2175,-0.1013,-0.3713*
1,1,0.2175,-0.1013,0.3713*
1,1,0.2175,0.1013,0.3713*
%
%ADD50ROUNDEDRECTD50*%
%ADD51R,1.3500X1.3500*%
%ADD52O,2.0150X0.7800*%
G04:AMPARAMS|DCode=53|XSize=1.64mm|YSize=0.43mm|CornerRadius=0.11mm|HoleSize=0mm|Usage=FLASHONLY|Rotation=0.000|XOffset=0mm|YOffset=0mm|HoleType=Round|Shape=RoundedRectangle|*
%AMROUNDEDRECTD53*
21,1,1.6400,0.2100,0,0,0.0*
21,1,1.4200,0.4300,0,0,0.0*
1,1,0.2200,0.7100,-0.1050*
1,1,0.2200,-0.7100,-0.1050*
1,1,0.2200,-0.7100,0.1050*
1,1,0.2200,0.7100,0.1050*
%
%ADD53ROUNDEDRECTD53*%
%ADD54R,1.5000X1.3000*%
%ADD55R,2.1820X2.1820*%
%ADD56R,1.3000X1.5000*%
%ADD57R,4.7000X2.4500*%
%ADD58R,1.0500X1.3246*%
%ADD59R,1.0500X1.3246*%
G04:AMPARAMS|DCode=60|XSize=1.64mm|YSize=0.43mm|CornerRadius=0.11mm|HoleSize=0mm|Usage=FLASHONLY|Rotation=90.000|XOffset=0mm|YOffset=0mm|HoleType=Round|Shape=RoundedRectangle|*
%AMROUNDEDRECTD60*
21,1,1.6400,0.2100,0,0,90.0*
21,1,1.4200,0.4300,0,0,90.0*
1,1,0.2200,0.1050,0.7100*
1,1,0.2200,0.1050,-0.7100*
1,1,0.2200,-0.1050,-0.7100*
1,1,0.2200,-0.1050,0.7100*
%
%ADD60ROUNDEDRECTD60*%
%ADD61R,1.4500X0.8500*%
%ADD62R,1.6500X1.7500*%
%ADD63C,1.7500*%
%ADD64C,3.6500*%
%ADD65C,2.1500*%
%ADD66C,1.6580*%
G04:AMPARAMS|DCode=67|XSize=1.75mm|YSize=1.75mm|CornerRadius=0.475mm|HoleSize=0mm|Usage=FLASHONLY|Rotation=180.000|XOffset=0mm|YOffset=0mm|HoleType=Round|Shape=RoundedRectangle|*
%AMROUNDEDRECTD67*
21,1,1.7500,0.8000,0,0,180.0*
21,1,0.8000,1.7500,0,0,180.0*
1,1,0.9500,-0.4000,0.4000*
1,1,0.9500,0.4000,0.4000*
1,1,0.9500,0.4000,-0.4000*
1,1,0.9500,-0.4000,-0.4000*
%
%ADD67ROUNDEDRECTD67*%
%ADD68R,1.6580X1.6580*%
%ADD69R,1.7250X1.7250*%
%ADD70C,1.7250*%
D40*
X393446Y504698D02*
D03*
X383286D02*
D03*
X403606D02*
D03*
D41*
X448886Y356108D02*
D03*
X470086Y346608D02*
D03*
Y365608D02*
D03*
D42*
X139998Y137922D02*
D03*
D43*
X81998D02*
D03*
Y114922D02*
D03*
Y160922D02*
D03*
D44*
X159766Y534316D02*
D03*
Y458316D02*
D03*
D45*
X383286Y504698D02*
D03*
X403606D02*
D03*
X393446D02*
D03*
D46*
X363300Y380198D02*
D03*
X386922Y400350D02*
D03*
Y379858D02*
D03*
X363300Y400690D02*
D03*
D47*
X342644Y441071D02*
D03*
X221490D02*
D03*
X253490D02*
D03*
X310644D02*
D03*
D48*
X339852Y385444D02*
D03*
X232664Y400558D02*
D03*
X210820Y400304D02*
D03*
X198120Y279740D02*
D03*
X166624Y125348D02*
D03*
X172974Y279740D02*
D03*
X198120Y225512D02*
D03*
Y172554D02*
D03*
X172974Y225512D02*
D03*
X147828D02*
D03*
X339852Y368936D02*
D03*
X198120Y263232D02*
D03*
X172974Y263232D02*
D03*
X198120Y242020D02*
D03*
X172974Y242020D02*
D03*
X166624Y108840D02*
D03*
X147828Y242020D02*
D03*
X198120Y189062D02*
D03*
X232664Y328296D02*
D03*
Y344804D02*
D03*
X210820Y416812D02*
D03*
X232664Y417066D02*
D03*
X233506Y130152D02*
D03*
Y108644D02*
D03*
D49*
X257567Y392222D02*
D03*
X306567Y387222D02*
D03*
Y372222D02*
D03*
Y402222D02*
D03*
Y397222D02*
D03*
Y392222D02*
D03*
Y382222D02*
D03*
Y377222D02*
D03*
X257567Y372222D02*
D03*
Y377222D02*
D03*
Y382222D02*
D03*
Y387222D02*
D03*
Y397222D02*
D03*
Y402222D02*
D03*
D50*
X292067Y362722D02*
D03*
X297067D02*
D03*
X267067Y411722D02*
D03*
X277067D02*
D03*
X282067D02*
D03*
X287067D02*
D03*
X292067D02*
D03*
X297067D02*
D03*
X287067Y362722D02*
D03*
X282067D02*
D03*
X277067D02*
D03*
X272067D02*
D03*
X267067D02*
D03*
X272067Y411722D02*
D03*
D51*
X390444Y332518D02*
D03*
X175600Y168910D02*
D03*
X154092D02*
D03*
X390444Y352518D02*
D03*
D52*
X398255Y275051D02*
D03*
X344605Y262351D02*
D03*
X398255Y236952D02*
D03*
X344605Y249652D02*
D03*
Y275051D02*
D03*
Y236952D02*
D03*
X398255Y249652D02*
D03*
Y262351D02*
D03*
D53*
X227838Y241640D02*
D03*
Y246640D02*
D03*
Y251640D02*
D03*
Y271640D02*
D03*
Y266640D02*
D03*
Y261640D02*
D03*
Y256640D02*
D03*
Y236640D02*
D03*
Y231640D02*
D03*
Y226640D02*
D03*
Y221640D02*
D03*
Y216640D02*
D03*
X311238D02*
D03*
Y221640D02*
D03*
Y226640D02*
D03*
Y231640D02*
D03*
Y236640D02*
D03*
Y241640D02*
D03*
Y246640D02*
D03*
Y251640D02*
D03*
Y256640D02*
D03*
Y261640D02*
D03*
Y266640D02*
D03*
Y271640D02*
D03*
D54*
X211662Y124828D02*
D03*
X113792Y45352D02*
D03*
Y62852D02*
D03*
X430530Y264274D02*
D03*
Y246774D02*
D03*
X211662Y107328D02*
D03*
D55*
X282067Y387222D02*
D03*
D56*
X158128Y188976D02*
D03*
X175628D02*
D03*
X39738Y295656D02*
D03*
X82550Y446532D02*
D03*
X22238Y295656D02*
D03*
X65050Y446532D02*
D03*
D57*
X31342Y235712D02*
D03*
X107342D02*
D03*
D58*
X246974Y180848D02*
D03*
D59*
X226482D02*
D03*
X197952Y77724D02*
D03*
X177460D02*
D03*
D60*
X247038Y202440D02*
D03*
X242038D02*
D03*
X252038D02*
D03*
X257038D02*
D03*
X262038D02*
D03*
X267038D02*
D03*
X272038D02*
D03*
X277038D02*
D03*
X282038D02*
D03*
X287038D02*
D03*
X292038D02*
D03*
X297038D02*
D03*
Y285840D02*
D03*
X292038D02*
D03*
X287038D02*
D03*
X282038D02*
D03*
X277038D02*
D03*
X272038D02*
D03*
X267038D02*
D03*
X262038D02*
D03*
X257038D02*
D03*
X252038D02*
D03*
X247038D02*
D03*
X242038D02*
D03*
D61*
X232664Y363498D02*
D03*
Y382498D02*
D03*
D62*
X357944Y342518D02*
D03*
D63*
X147574Y43434D02*
D03*
X302006D02*
D03*
X172974D02*
D03*
X276606D02*
D03*
D64*
X57779Y362272D02*
D03*
X105410Y334772D02*
D03*
Y389772D02*
D03*
D65*
X409702Y447040D02*
D03*
X435102D02*
D03*
X460502D02*
D03*
X485902D02*
D03*
D66*
X397002Y44958D02*
D03*
X371602D02*
D03*
X346202D02*
D03*
X422402D02*
D03*
X244567Y481480D02*
D03*
X269567D02*
D03*
X294567D02*
D03*
X346202Y121158D02*
D03*
X371602D02*
D03*
X397002D02*
D03*
D67*
X198374Y43434D02*
D03*
X251206D02*
D03*
D68*
X319567Y481480D02*
D03*
X422402Y121158D02*
D03*
D69*
X522311Y370694D02*
D03*
X511811Y240993D02*
D03*
D70*
X522311Y345694D02*
D03*
X511811Y265993D02*
D03*
M02*
