M48
;Layer_Color=9474304
;FILE_FORMAT=2:5
INCH,LZ
;TYPE=PLATED
T01F00S00C0.01181
T02F00S00C0.03937
T03F00S00C0.04134
T04F00S00C0.04331
T05F00S00C0.04331
T06F00S00C0.10256
%
T01
X0018Y0048
X0024Y006
X0012
X0018Y0072
X003
X0024Y0084
X0036
X003Y0096
X0024Y0108
X0012
Y0132
X0042Y012
X0054
X0066
X0068Y01145
X0078Y01146
Y012
X00827Y01246
X00825Y01359
X0078Y0144
X0083552Y0153552
X0072Y0156
X0054Y0144
X006Y0132
X00932Y0119
X0095Y00998
X00995Y01031
X01034
X010406Y010734
X009979Y00959
X00946Y00872
X01054Y00854
X01111
X01168
X0132Y0084
X0144
X0156
X01432Y00982
X01466Y01032
X015Y012
X01497Y01309
X01431Y01461
X0128158Y0147915
X01284Y01539
X0124006Y0151025
X01242Y0142958
X01274Y01415
X011982Y0142607
X0113581Y0139228
X01159Y01366
X0104571Y01388
X0102Y0144
X01091Y01509
X0109081Y0154418
X01131Y01544
Y01508
X01339Y01561
X012545Y0131581
X01042Y01293
X0138Y012
X012Y006
X01171Y00629
X011121
X010546
X0096Y006
X0084
X00781Y00634
X0078Y0048
X00657Y00533
X00491Y00543
X0036Y0036
X0084
X009Y0024
X0102
X0126
X0138
X015
X0156Y0036
X0144
X0132
X012
X0126Y0048
X0114
X0102
X0078Y0024
X00781Y00844
X0068Y00845
X00581Y00844
X00623Y00788
X00844Y00942
X0012Y0084
X0144Y0012
X0156
X0168
X0174Y0024
X0162
X0168Y0036
X018
X0186Y0048
X0198
X0192Y006
X018
X0168
X0174Y0072
X0186
X0198
X021
X0204Y0084
X0192
X018
X0168
X0162Y0072
X0174Y0048
X0204Y006
X021Y0096
X0192Y0108
X018
X0186Y012
X0198
X0192Y0132
X018
X0174Y0144
X018Y0156
X0192
X0204
X0174Y012
X01619Y01106
X0186Y0168
X0198
X021
X0186Y0192
X0174
X018Y0204
X0168
X0174Y0216
X0162
X015
X0138
X0126
X0114
X0102
X009
X0078
X00697Y02106
X0072Y0204
X0084
X009Y0192
X0078
X0084Y018
X00828Y01734
X0077Y01723
X0096652Y0160852
X0101207Y0161219
X010366Y0164679
X01185Y01646
X0120893Y0161219
X0129039Y0162903
X0129321Y0156925
X0138Y0168
X01391Y01785
X0144Y018
X0132
X012
X0138Y0192
X0151Y01941
X0156Y0204
X015Y0168
X0048Y0204
X0054Y0216
X0042
T02
X01363Y00177
X01463
Y00477
X01363
X01563
X01663
Y00177
X01563
X0125814Y0189559
X0115971
X0106129
X0096286
T03
X0201501Y0094879
Y0104722
X0205634Y01361
Y0145942
T04
X01613Y0176
X01713
X01813
X01913
T05
X00581Y00171
X00681
X00781
X00989
X01089
X01189
T06
X0022748Y0142627
X00415Y01318
Y0153454
M30
