%TF.GenerationSoftware,Altium Limited,Altium Designer,26.4.1 (12)*%
G04 Layer_Physical_Order=1*
G04 Layer_Color=255*
%FSLAX26Y26*%
%MOIN*%
%TF.SameCoordinates,73598C5C-0CA9-4AAD-A791-1ED4FCC68FF1*%
%TF.FilePolarity,Positive*%
%TF.FileFunction,Copper,L1,Top,Signal*%
%TF.Part,Single*%
G01*
G75*
%TA.AperFunction,Conductor*%
%ADD10C,0.011000*%
%TA.AperFunction,SMDPad,CuDef*%
%ADD11R,0.084646X0.037402*%
%ADD12R,0.084646X0.127953*%
%ADD13C,0.023622*%
G04:AMPARAMS|DCode=14|XSize=48.425mil|YSize=23.622mil|CornerRadius=2.953mil|HoleSize=0mil|Usage=FLASHONLY|Rotation=180.000|XOffset=0mil|YOffset=0mil|HoleType=Round|Shape=RoundedRectangle|*
%AMROUNDEDRECTD14*
21,1,0.048425,0.017716,0,0,180.0*
21,1,0.042520,0.023622,0,0,180.0*
1,1,0.005906,-0.021260,0.008858*
1,1,0.005906,0.021260,0.008858*
1,1,0.005906,0.021260,-0.008858*
1,1,0.005906,-0.021260,-0.008858*
%
%ADD14ROUNDEDRECTD14*%
%ADD15R,0.039370X0.059055*%
%ADD16R,0.046244X0.035433*%
%ADD17R,0.047244X0.047244*%
G04:AMPARAMS|DCode=18|XSize=31.89mil|YSize=10.63mil|CornerRadius=1.329mil|HoleSize=0mil|Usage=FLASHONLY|Rotation=0.000|XOffset=0mil|YOffset=0mil|HoleType=Round|Shape=RoundedRectangle|*
%AMROUNDEDRECTD18*
21,1,0.031890,0.007973,0,0,0.0*
21,1,0.029232,0.010630,0,0,0.0*
1,1,0.002657,0.014616,-0.003986*
1,1,0.002657,-0.014616,-0.003986*
1,1,0.002657,-0.014616,0.003986*
1,1,0.002657,0.014616,0.003986*
%
%ADD18ROUNDEDRECTD18*%
G04:AMPARAMS|DCode=19|XSize=10.63mil|YSize=31.89mil|CornerRadius=1.329mil|HoleSize=0mil|Usage=FLASHONLY|Rotation=0.000|XOffset=0mil|YOffset=0mil|HoleType=Round|Shape=RoundedRectangle|*
%AMROUNDEDRECTD19*
21,1,0.010630,0.029232,0,0,0.0*
21,1,0.007973,0.031890,0,0,0.0*
1,1,0.002657,0.003986,-0.014616*
1,1,0.002657,-0.003986,-0.014616*
1,1,0.002657,-0.003986,0.014616*
1,1,0.002657,0.003986,0.014616*
%
%ADD19ROUNDEDRECTD19*%
%ADD20O,0.073425X0.024803*%
%ADD21R,0.047244X0.047244*%
%ADD22R,0.080000X0.080000*%
%ADD23R,0.090551X0.179134*%
G04:AMPARAMS|DCode=24|XSize=58.661mil|YSize=11.024mil|CornerRadius=1.378mil|HoleSize=0mil|Usage=FLASHONLY|Rotation=0.000|XOffset=0mil|YOffset=0mil|HoleType=Round|Shape=RoundedRectangle|*
%AMROUNDEDRECTD24*
21,1,0.058661,0.008268,0,0,0.0*
21,1,0.055905,0.011024,0,0,0.0*
1,1,0.002756,0.027953,-0.004134*
1,1,0.002756,-0.027953,-0.004134*
1,1,0.002756,-0.027953,0.004134*
1,1,0.002756,0.027953,0.004134*
%
%ADD24ROUNDEDRECTD24*%
%ADD25R,0.053150X0.045276*%
%ADD26R,0.179134X0.090551*%
%ADD27R,0.045276X0.053150*%
G04:AMPARAMS|DCode=28|XSize=58.661mil|YSize=11.024mil|CornerRadius=1.378mil|HoleSize=0mil|Usage=FLASHONLY|Rotation=90.000|XOffset=0mil|YOffset=0mil|HoleType=Round|Shape=RoundedRectangle|*
%AMROUNDEDRECTD28*
21,1,0.058661,0.008268,0,0,90.0*
21,1,0.055905,0.011024,0,0,90.0*
1,1,0.002756,0.004134,0.027953*
1,1,0.002756,0.004134,-0.027953*
1,1,0.002756,-0.004134,-0.027953*
1,1,0.002756,-0.004134,0.027953*
%
%ADD28ROUNDEDRECTD28*%
%ADD29R,0.035433X0.046244*%
%ADD30R,0.035433X0.046244*%
%ADD31R,0.051181X0.027559*%
%ADD32R,0.059055X0.062992*%
%TA.AperFunction,Conductor*%
%ADD33C,0.060000*%
%ADD34C,0.040000*%
%ADD35C,0.020000*%
%ADD36C,0.030000*%
%ADD37C,0.008000*%
%ADD38C,0.010000*%
%ADD39R,0.031496X0.031496*%
%ADD40R,0.032000X0.032000*%
%TA.AperFunction,ComponentPad*%
%ADD41C,0.078740*%
%ADD42C,0.062992*%
%ADD43C,0.137795*%
%ADD44C,0.059370*%
G04:AMPARAMS|DCode=45|XSize=62.992mil|YSize=62.992mil|CornerRadius=15.748mil|HoleSize=0mil|Usage=FLASHONLY|Rotation=180.000|XOffset=0mil|YOffset=0mil|HoleType=Round|Shape=RoundedRectangle|*
%AMROUNDEDRECTD45*
21,1,0.062992,0.031496,0,0,180.0*
21,1,0.031496,0.062992,0,0,180.0*
1,1,0.031496,-0.015748,0.015748*
1,1,0.031496,0.015748,0.015748*
1,1,0.031496,0.015748,-0.015748*
1,1,0.031496,-0.015748,-0.015748*
%
%ADD45ROUNDEDRECTD45*%
%ADD46R,0.059370X0.059370*%
%ADD47R,0.062008X0.062008*%
%ADD48C,0.062008*%
%TA.AperFunction,ViaPad*%
%ADD49C,0.023622*%
G36*
X256793Y1861578D02*
X263526Y1858789D01*
X269586Y1854740D01*
X274740Y1849586D01*
X278789Y1843526D01*
X281578Y1836793D01*
X283000Y1829644D01*
Y1726000D01*
X283500Y1720928D01*
X287382Y1711555D01*
X294555Y1704382D01*
X303928Y1700499D01*
X309000Y1700000D01*
X460470D01*
X477085Y1696695D01*
X492736Y1690212D01*
X506822Y1680801D01*
X518801Y1668822D01*
X528212Y1654736D01*
X534695Y1639085D01*
X538000Y1622470D01*
Y1614000D01*
Y1529000D01*
Y1519249D01*
X534195Y1500123D01*
X526733Y1482106D01*
X515898Y1465891D01*
X502109Y1452102D01*
X485894Y1441267D01*
X467877Y1433804D01*
X448751Y1430000D01*
X304373D01*
Y1433841D01*
X301417Y1448698D01*
X295621Y1462692D01*
X287205Y1475287D01*
X276494Y1485998D01*
X263900Y1494413D01*
X249905Y1500210D01*
X235049Y1503165D01*
X219901D01*
X205045Y1500210D01*
X191050Y1494413D01*
X178456Y1485998D01*
X167745Y1475287D01*
X159329Y1462692D01*
X153533Y1448698D01*
X150577Y1433841D01*
Y1430000D01*
X43060D01*
X35332Y1431537D01*
X28053Y1434552D01*
X21501Y1438930D01*
X15930Y1444501D01*
X11552Y1451053D01*
X8537Y1458332D01*
X8278Y1459636D01*
Y1741058D01*
X16278Y1742650D01*
X19444Y1735007D01*
X19890Y1734339D01*
X20197Y1733597D01*
X27091Y1723280D01*
X27659Y1722712D01*
X28105Y1722044D01*
X36879Y1713270D01*
X37548Y1712823D01*
X38115Y1712255D01*
X48433Y1705362D01*
X49175Y1705054D01*
X49843Y1704608D01*
X61306Y1699859D01*
X62095Y1699703D01*
X62837Y1699395D01*
X75007Y1696975D01*
X75810D01*
X76598Y1696818D01*
X89006D01*
X89794Y1696975D01*
X90598D01*
X102768Y1699395D01*
X103510Y1699703D01*
X104298Y1699859D01*
X115762Y1704608D01*
X116429Y1705054D01*
X117172Y1705362D01*
X127489Y1712255D01*
X128057Y1712823D01*
X128725Y1713270D01*
X137499Y1722044D01*
X137946Y1722712D01*
X138513Y1723280D01*
X145407Y1733597D01*
X145715Y1734339D01*
X146161Y1735007D01*
X150909Y1746471D01*
X151066Y1747259D01*
X151374Y1748001D01*
X153794Y1760171D01*
Y1760975D01*
X153951Y1761762D01*
Y1774171D01*
X153794Y1774958D01*
Y1775762D01*
X151374Y1787932D01*
X151066Y1788674D01*
X150909Y1789462D01*
X146161Y1800926D01*
X145715Y1801594D01*
X145407Y1802336D01*
X138513Y1812653D01*
X137946Y1813221D01*
X137499Y1813889D01*
X128725Y1822663D01*
X128057Y1823110D01*
X127489Y1823678D01*
X117172Y1830572D01*
X116429Y1830879D01*
X115761Y1831325D01*
X104298Y1836074D01*
X103510Y1836230D01*
X102768Y1836538D01*
X90598Y1838959D01*
X89794D01*
X89006Y1839115D01*
X76598D01*
X75810Y1838959D01*
X75007D01*
X62837Y1836538D01*
X62094Y1836230D01*
X61306Y1836074D01*
X49843Y1831325D01*
X49175Y1830879D01*
X48433Y1830572D01*
X42376Y1826525D01*
X34214Y1830693D01*
X34180Y1831601D01*
X43254Y1840675D01*
X59632Y1851619D01*
X77831Y1859157D01*
X93637Y1862301D01*
X118360D01*
X118458Y1862321D01*
X118557Y1862303D01*
X130148Y1862588D01*
X130440Y1862653D01*
X130738Y1862624D01*
X134553Y1863000D01*
X249644D01*
X256793Y1861578D01*
D02*
G37*
G36*
X1732534Y2275687D02*
X1739498D01*
X1753159Y2272969D01*
X1766028Y2267639D01*
X1777610Y2259901D01*
X1787459Y2250051D01*
X1795198Y2238469D01*
X1800528Y2225600D01*
X1803246Y2211939D01*
X1803246Y2204974D01*
X1803246Y2106549D01*
X1803265Y2106451D01*
X1803248Y2106352D01*
X1803533Y2094761D01*
X1803598Y2094469D01*
X1803569Y2094171D01*
X1805841Y2071102D01*
X1805957Y2070721D01*
Y2070322D01*
X1810479Y2047586D01*
X1810632Y2047218D01*
X1810671Y2046822D01*
X1817400Y2024639D01*
X1817588Y2024287D01*
X1817665Y2023897D01*
X1826536Y2002480D01*
X1826758Y2002149D01*
X1826873Y2001768D01*
X1837801Y1981323D01*
X1838054Y1981015D01*
X1838206Y1980648D01*
X1851085Y1961373D01*
X1851367Y1961091D01*
X1851554Y1960740D01*
X1866261Y1942820D01*
X1866568Y1942568D01*
X1866790Y1942237D01*
X1883181Y1925845D01*
X1883513Y1925623D01*
X1883765Y1925316D01*
X1901685Y1910610D01*
X1902036Y1910422D01*
X1902318Y1910140D01*
X1921592Y1897261D01*
X1921960Y1897109D01*
X1922268Y1896856D01*
X1942712Y1885928D01*
X1943093Y1885813D01*
X1943425Y1885592D01*
X1964842Y1876720D01*
X1965232Y1876643D01*
X1965583Y1876455D01*
X1987767Y1869726D01*
X1988163Y1869687D01*
X1988531Y1869534D01*
X2011267Y1865012D01*
X2011666D01*
X2012046Y1864896D01*
X2035116Y1862624D01*
X2035414Y1862653D01*
X2035706Y1862588D01*
X2047297Y1862303D01*
X2047396Y1862320D01*
X2047494Y1862301D01*
X2093829D01*
X2107490Y1859583D01*
X2120359Y1854253D01*
X2131940Y1846515D01*
X2141790Y1836665D01*
X2149528Y1825083D01*
X2154859Y1812214D01*
X2157577Y1798553D01*
X2157577Y1794271D01*
X2149577Y1792680D01*
X2146161Y1800926D01*
X2145715Y1801594D01*
X2145407Y1802336D01*
X2138513Y1812653D01*
X2137945Y1813221D01*
X2137499Y1813889D01*
X2128725Y1822663D01*
X2128057Y1823110D01*
X2127489Y1823678D01*
X2117172Y1830572D01*
X2116429Y1830879D01*
X2115762Y1831325D01*
X2104298Y1836074D01*
X2103510Y1836230D01*
X2102768Y1836538D01*
X2090598Y1838959D01*
X2089794D01*
X2089006Y1839115D01*
X2076598D01*
X2075810Y1838959D01*
X2075007D01*
X2062837Y1836538D01*
X2062095Y1836230D01*
X2061307Y1836074D01*
X2049843Y1831325D01*
X2049175Y1830879D01*
X2048433Y1830572D01*
X2038115Y1823678D01*
X2037547Y1823110D01*
X2036879Y1822663D01*
X2028105Y1813889D01*
X2027659Y1813221D01*
X2027091Y1812653D01*
X2020197Y1802336D01*
X2019890Y1801594D01*
X2019444Y1800926D01*
X2014695Y1789462D01*
X2014538Y1788674D01*
X2014231Y1787932D01*
X2011810Y1775762D01*
Y1774959D01*
X2011653Y1774171D01*
Y1761762D01*
X2011810Y1760975D01*
Y1760171D01*
X2014231Y1748001D01*
X2014538Y1747259D01*
X2014695Y1746471D01*
X2019444Y1735007D01*
X2019890Y1734339D01*
X2020197Y1733597D01*
X2027091Y1723280D01*
X2027659Y1722712D01*
X2028105Y1722044D01*
X2036879Y1713270D01*
X2037548Y1712823D01*
X2038115Y1712255D01*
X2048433Y1705362D01*
X2049175Y1705054D01*
X2049843Y1704608D01*
X2061307Y1699859D01*
X2062095Y1699703D01*
X2062837Y1699395D01*
X2075007Y1696975D01*
X2075810D01*
X2076598Y1696818D01*
X2089006D01*
X2089794Y1696975D01*
X2090598D01*
X2102768Y1699395D01*
X2103510Y1699703D01*
X2104298Y1699859D01*
X2115762Y1704608D01*
X2116429Y1705054D01*
X2117172Y1705362D01*
X2127489Y1712255D01*
X2128057Y1712823D01*
X2128725Y1713270D01*
X2137499Y1722044D01*
X2137946Y1722712D01*
X2138513Y1723280D01*
X2145407Y1733597D01*
X2145715Y1734339D01*
X2146161Y1735007D01*
X2149577Y1743253D01*
X2157577Y1741662D01*
X2157576Y542303D01*
X2149576Y540712D01*
X2146161Y548957D01*
X2145715Y549625D01*
X2145407Y550367D01*
X2138513Y560685D01*
X2137945Y561253D01*
X2137499Y561921D01*
X2128725Y570695D01*
X2128057Y571141D01*
X2127489Y571709D01*
X2117172Y578603D01*
X2116429Y578910D01*
X2115762Y579357D01*
X2104298Y584105D01*
X2103510Y584262D01*
X2102768Y584569D01*
X2090598Y586990D01*
X2089794D01*
X2089006Y587147D01*
X2076598D01*
X2075810Y586990D01*
X2075007D01*
X2062837Y584569D01*
X2062095Y584262D01*
X2061307Y584105D01*
X2049843Y579357D01*
X2049175Y578910D01*
X2048433Y578603D01*
X2038115Y571709D01*
X2037547Y571141D01*
X2036879Y570695D01*
X2028105Y561921D01*
X2027659Y561252D01*
X2027091Y560685D01*
X2020197Y550367D01*
X2019890Y549625D01*
X2019444Y548957D01*
X2014695Y537494D01*
X2014538Y536706D01*
X2014231Y535963D01*
X2011810Y523793D01*
Y522990D01*
X2011653Y522202D01*
Y509794D01*
X2011810Y509006D01*
Y508202D01*
X2014231Y496033D01*
X2014538Y495290D01*
X2014695Y494502D01*
X2019444Y483038D01*
X2019890Y482371D01*
X2020197Y481628D01*
X2027091Y471311D01*
X2027659Y470743D01*
X2028105Y470075D01*
X2036879Y461301D01*
X2037548Y460854D01*
X2038115Y460287D01*
X2048433Y453393D01*
X2049175Y453086D01*
X2049843Y452639D01*
X2061307Y447891D01*
X2062095Y447734D01*
X2062837Y447427D01*
X2075007Y445006D01*
X2075810D01*
X2076598Y444849D01*
X2089006D01*
X2089794Y445006D01*
X2090598D01*
X2102768Y447427D01*
X2103510Y447734D01*
X2104298Y447891D01*
X2115762Y452639D01*
X2116429Y453086D01*
X2117172Y453393D01*
X2127489Y460287D01*
X2128057Y460855D01*
X2128725Y461301D01*
X2137499Y470075D01*
X2137946Y470743D01*
X2138513Y471311D01*
X2145407Y481628D01*
X2145715Y482371D01*
X2146161Y483039D01*
X2146659Y484240D01*
X2155495Y484667D01*
X2156902Y482023D01*
X2154859Y471750D01*
X2149528Y458881D01*
X2141790Y447300D01*
X2131941Y437450D01*
X2120359Y429712D01*
X2107490Y424381D01*
X2093829Y421664D01*
X2047494Y421663D01*
X2047396Y421644D01*
X2047297Y421661D01*
X2035706Y421377D01*
X2035414Y421311D01*
X2035116Y421340D01*
X2012046Y419068D01*
X2011666Y418952D01*
X2011267D01*
X1988531Y414430D01*
X1988163Y414278D01*
X1987767Y414238D01*
X1965583Y407509D01*
X1965232Y407322D01*
X1964842Y407244D01*
X1943425Y398373D01*
X1943093Y398151D01*
X1942713Y398036D01*
X1922268Y387108D01*
X1921960Y386856D01*
X1921592Y386703D01*
X1902318Y373824D01*
X1902036Y373543D01*
X1901685Y373355D01*
X1883765Y358649D01*
X1883513Y358341D01*
X1883181Y358120D01*
X1866790Y341728D01*
X1866568Y341397D01*
X1866261Y341144D01*
X1851554Y323224D01*
X1851367Y322873D01*
X1851085Y322592D01*
X1838206Y303317D01*
X1838054Y302949D01*
X1837801Y302641D01*
X1826873Y282197D01*
X1826758Y281816D01*
X1826537Y281485D01*
X1817665Y260068D01*
X1817588Y259677D01*
X1817400Y259326D01*
X1810671Y237143D01*
X1810632Y236746D01*
X1810479Y236378D01*
X1805957Y213642D01*
Y213244D01*
X1805841Y212863D01*
X1803569Y189793D01*
X1803598Y189495D01*
X1803533Y189203D01*
X1803248Y177612D01*
X1803265Y177514D01*
X1803246Y177415D01*
X1803246Y78990D01*
X1803246Y72025D01*
X1800528Y58364D01*
X1795198Y45495D01*
X1787459Y33914D01*
X1777610Y24064D01*
X1766028Y16326D01*
X1753159Y10995D01*
X1739498Y8278D01*
X426356D01*
X412695Y10995D01*
X399826Y16326D01*
X388245Y24064D01*
X378395Y33913D01*
X370656Y45495D01*
X365326Y58364D01*
X362609Y72025D01*
X362608Y78990D01*
X362608Y177415D01*
X362589Y177513D01*
X362606Y177612D01*
X362321Y189203D01*
X362256Y189495D01*
X362285Y189793D01*
X360013Y212863D01*
X359897Y213244D01*
Y213642D01*
X355375Y236378D01*
X355223Y236746D01*
X355183Y237143D01*
X348454Y259326D01*
X348267Y259677D01*
X348189Y260068D01*
X339318Y281485D01*
X339096Y281816D01*
X338981Y282197D01*
X328053Y302641D01*
X327801Y302949D01*
X327648Y303317D01*
X314769Y322592D01*
X314488Y322873D01*
X314300Y323224D01*
X299594Y341144D01*
X299286Y341397D01*
X299065Y341728D01*
X282673Y358120D01*
X282341Y358341D01*
X282089Y358649D01*
X264169Y373355D01*
X263818Y373543D01*
X263536Y373824D01*
X244262Y386703D01*
X243894Y386856D01*
X243586Y387108D01*
X223142Y398036D01*
X222761Y398151D01*
X222429Y398373D01*
X201013Y407244D01*
X200622Y407322D01*
X200271Y407509D01*
X178088Y414239D01*
X177691Y414278D01*
X177323Y414430D01*
X154587Y418952D01*
X154189D01*
X153808Y419068D01*
X130738Y421340D01*
X130440Y421311D01*
X130148Y421377D01*
X118557Y421661D01*
X118459Y421644D01*
X118360Y421664D01*
X72025D01*
X58364Y424381D01*
X45495Y429712D01*
X33914Y437450D01*
X24064Y447299D01*
X16326Y458881D01*
X10995Y471750D01*
X9077Y481395D01*
X10442Y483865D01*
X19308Y483367D01*
X19444Y483038D01*
X19890Y482371D01*
X20197Y481628D01*
X27091Y471311D01*
X27659Y470743D01*
X28105Y470075D01*
X36879Y461301D01*
X37548Y460854D01*
X38115Y460287D01*
X48433Y453393D01*
X49175Y453086D01*
X49843Y452639D01*
X61306Y447891D01*
X62095Y447734D01*
X62837Y447427D01*
X75007Y445006D01*
X75810D01*
X76598Y444849D01*
X89006D01*
X89794Y445006D01*
X90598D01*
X102768Y447427D01*
X103510Y447734D01*
X104298Y447891D01*
X115762Y452639D01*
X116429Y453086D01*
X117172Y453393D01*
X127489Y460287D01*
X128057Y460855D01*
X128725Y461301D01*
X137499Y470075D01*
X137946Y470743D01*
X138513Y471311D01*
X145407Y481628D01*
X145715Y482371D01*
X146161Y483039D01*
X150909Y494502D01*
X151066Y495290D01*
X151374Y496033D01*
X153794Y508202D01*
Y509006D01*
X153951Y509794D01*
Y522202D01*
X153794Y522990D01*
Y523793D01*
X151374Y535963D01*
X151066Y536706D01*
X150909Y537494D01*
X146161Y548957D01*
X145715Y549625D01*
X145407Y550367D01*
X138513Y560685D01*
X137946Y561253D01*
X137499Y561921D01*
X128725Y570695D01*
X128057Y571141D01*
X127489Y571709D01*
X117172Y578603D01*
X116429Y578910D01*
X115761Y579357D01*
X104298Y584105D01*
X103510Y584262D01*
X102768Y584569D01*
X90598Y586990D01*
X89794D01*
X89006Y587147D01*
X76598D01*
X75810Y586990D01*
X75007D01*
X62837Y584569D01*
X62094Y584262D01*
X61306Y584105D01*
X49843Y579357D01*
X49175Y578910D01*
X48433Y578603D01*
X38115Y571709D01*
X37547Y571141D01*
X36879Y570695D01*
X28105Y561921D01*
X27659Y561252D01*
X27091Y560685D01*
X20197Y550367D01*
X19890Y549625D01*
X19444Y548957D01*
X16278Y541315D01*
X8278Y542906D01*
Y1429304D01*
X14089Y1432311D01*
X16278Y1432799D01*
X16402Y1432716D01*
X16970Y1432148D01*
X23521Y1427770D01*
X24264Y1427463D01*
X24931Y1427017D01*
X32211Y1424001D01*
X32999Y1423845D01*
X33741Y1423537D01*
X41469Y1422000D01*
X42272D01*
X43060Y1421843D01*
X150577D01*
Y1418694D01*
X153533Y1403838D01*
X159329Y1389843D01*
X167745Y1377248D01*
X178456Y1366537D01*
X188412Y1359885D01*
X188339Y1351903D01*
X187876Y1350843D01*
X180394Y1345102D01*
X60449Y1225157D01*
X54358Y1217219D01*
X50529Y1207975D01*
X49223Y1198055D01*
Y1164000D01*
X50529Y1154080D01*
X54358Y1144836D01*
X56913Y1141506D01*
Y1129425D01*
X71723D01*
X77631Y1126978D01*
X87551Y1125672D01*
X97471Y1126978D01*
X103379Y1129425D01*
X118189D01*
Y1129425D01*
X125811D01*
Y1129425D01*
X140621D01*
X146529Y1126978D01*
X156449Y1125672D01*
X273124D01*
X384278Y1014518D01*
Y981276D01*
X325039D01*
Y874724D01*
X384278D01*
Y748183D01*
X300125Y664029D01*
X295725Y660653D01*
X295417Y660252D01*
X272504D01*
Y606850D01*
X295417D01*
X295725Y606449D01*
X303663Y600358D01*
X312907Y596529D01*
X322827Y595223D01*
X323851D01*
X333771Y596529D01*
X343014Y600358D01*
X350952Y606449D01*
X351353Y606850D01*
X373150D01*
Y628646D01*
X403181Y658678D01*
X410580Y655637D01*
X411620Y471048D01*
X404238Y467966D01*
X392653Y479551D01*
X384715Y485642D01*
X375471Y489471D01*
X365551Y490777D01*
X322827D01*
X312907Y489471D01*
X303663Y485642D01*
X295725Y479551D01*
X295417Y479150D01*
X272504D01*
Y425748D01*
X295417D01*
X295725Y425347D01*
X303663Y419256D01*
X312907Y415427D01*
X322827Y414121D01*
X349675D01*
X409672Y354124D01*
Y247449D01*
X410978Y237529D01*
X413425Y231621D01*
Y216811D01*
X413425D01*
X413091Y209948D01*
X413269Y178523D01*
Y96972D01*
X413425Y96184D01*
Y95381D01*
X414831Y88315D01*
X415138Y87573D01*
X415295Y86785D01*
X418052Y80129D01*
X418498Y79461D01*
X418806Y78719D01*
X422808Y72728D01*
X423376Y72160D01*
X423823Y71492D01*
X428917Y66397D01*
X429585Y65951D01*
X430153Y65383D01*
X436144Y61380D01*
X436886Y61073D01*
X437554Y60627D01*
X444210Y57870D01*
X444998Y57713D01*
X445740Y57406D01*
X452806Y56000D01*
X453610D01*
X454398Y55843D01*
X542046D01*
X548551Y54549D01*
X688000D01*
X694505Y55843D01*
X697973D01*
X701094Y56464D01*
X710283Y60270D01*
X712929Y62038D01*
X719962Y69071D01*
X721730Y71717D01*
X725536Y80906D01*
X725900Y82736D01*
X774203Y131039D01*
X795007D01*
X849023Y77023D01*
X854977Y73044D01*
X862000Y71647D01*
X1276000D01*
X1283023Y73044D01*
X1288977Y77023D01*
X1352700Y140745D01*
X1358039Y139315D01*
X1367961D01*
X1377546Y141883D01*
X1386139Y146845D01*
X1393156Y153861D01*
X1395919Y158647D01*
X1430081D01*
X1432844Y153861D01*
X1439861Y146845D01*
X1448454Y141883D01*
X1458039Y139315D01*
X1467961D01*
X1477546Y141883D01*
X1486139Y146845D01*
X1493156Y153861D01*
X1495919Y158647D01*
X1530081D01*
X1532844Y153861D01*
X1539861Y146845D01*
X1548454Y141883D01*
X1558039Y139315D01*
X1567961D01*
X1577546Y141883D01*
X1586139Y146845D01*
X1593156Y153861D01*
X1595919Y158647D01*
X1630081D01*
X1632844Y153861D01*
X1639861Y146845D01*
X1648454Y141883D01*
X1658039Y139315D01*
X1667961D01*
X1677546Y141883D01*
X1686139Y146845D01*
X1693156Y153861D01*
X1698117Y162454D01*
X1700685Y172039D01*
Y181961D01*
X1698117Y191546D01*
X1693156Y200139D01*
X1686139Y207155D01*
X1677546Y212117D01*
X1667961Y214685D01*
X1658039D01*
X1648454Y212117D01*
X1639861Y207155D01*
X1632844Y200139D01*
X1630081Y195353D01*
X1595919D01*
X1593156Y200139D01*
X1586139Y207155D01*
X1577546Y212117D01*
X1567961Y214685D01*
X1558039D01*
X1548454Y212117D01*
X1539861Y207155D01*
X1532844Y200139D01*
X1530081Y195353D01*
X1495919D01*
X1493156Y200139D01*
X1486139Y207155D01*
X1477546Y212117D01*
X1467961Y214685D01*
X1458039D01*
X1448454Y212117D01*
X1439861Y207155D01*
X1432844Y200139D01*
X1430081Y195353D01*
X1395919D01*
X1393156Y200139D01*
X1386139Y207155D01*
X1377546Y212117D01*
X1367961Y214685D01*
X1358039D01*
X1348454Y212117D01*
X1339861Y207155D01*
X1332844Y200139D01*
X1327883Y191546D01*
X1325315Y181961D01*
Y172039D01*
X1326745Y166700D01*
X1268398Y108353D01*
X869602D01*
X820961Y156993D01*
Y186748D01*
X819118Y196014D01*
X813869Y203869D01*
X806014Y209118D01*
X796748Y210961D01*
X765252D01*
X755986Y209118D01*
X748131Y203869D01*
X742882Y196014D01*
X741039Y186748D01*
Y164203D01*
X727727Y150891D01*
X724090Y151805D01*
X719129Y160699D01*
X720496Y165800D01*
Y176200D01*
X717804Y186245D01*
X712605Y195251D01*
X711558Y196298D01*
X712426Y200661D01*
Y274878D01*
X724378D01*
Y332267D01*
X725536Y334001D01*
X726157Y337122D01*
Y633378D01*
X725536Y636499D01*
X723768Y639146D01*
X722961Y639685D01*
Y696622D01*
X705103D01*
Y709425D01*
X722087D01*
Y771684D01*
X723768Y772807D01*
X725536Y775453D01*
X726157Y778575D01*
Y850449D01*
X725874Y851870D01*
X725641Y853302D01*
X725564Y853426D01*
X725536Y853570D01*
X724730Y854776D01*
X723968Y856009D01*
X718590Y861781D01*
X718471Y861867D01*
X718390Y861989D01*
X717183Y862795D01*
X716008Y863642D01*
X715865Y863675D01*
X715744Y863757D01*
X714323Y864039D01*
X712910Y864373D01*
X712622Y872035D01*
Y883843D01*
X681000D01*
Y891843D01*
X712622D01*
Y892022D01*
X717966Y896408D01*
X720622Y896896D01*
X721410Y897053D01*
X722213D01*
X722956Y897360D01*
X723743Y897517D01*
X724411Y897963D01*
X725154Y898271D01*
X725722Y898839D01*
X726389Y899285D01*
X726836Y899953D01*
X727404Y900521D01*
X727711Y901263D01*
X728158Y901931D01*
X728365Y902432D01*
X730366Y905427D01*
X732913Y907973D01*
X735907Y909974D01*
X739234Y911352D01*
X740378Y911579D01*
X746479Y907951D01*
X748378Y905714D01*
Y891843D01*
X780000D01*
Y887843D01*
X784000D01*
Y856221D01*
X811621D01*
X816069Y850063D01*
Y798875D01*
X793156Y775961D01*
X748378D01*
Y718969D01*
X748378Y712717D01*
X748378Y704717D01*
Y683347D01*
X811622D01*
Y704717D01*
X811622Y710969D01*
X811622Y718969D01*
Y755495D01*
X839567Y783440D01*
X842551Y787906D01*
X843598Y793173D01*
Y853858D01*
X852615Y862875D01*
X853472Y863092D01*
X859829Y858775D01*
X859486Y857048D01*
Y848780D01*
X860213Y845121D01*
X862286Y842019D01*
X865388Y839946D01*
X869047Y839218D01*
X924953D01*
X928612Y839946D01*
X931714Y842019D01*
X933787Y845121D01*
X934124Y846817D01*
X939396Y850986D01*
X942059Y852189D01*
X949941D01*
X950826Y852556D01*
X958826Y847210D01*
Y835989D01*
X957039Y834523D01*
X948772D01*
X945113Y833795D01*
X942011Y831722D01*
X939938Y828620D01*
X939210Y824961D01*
Y797355D01*
X939141Y797008D01*
Y783873D01*
X937701Y782911D01*
X897912Y743122D01*
X865945D01*
Y680878D01*
X917378D01*
Y723656D01*
X939879Y746157D01*
X946622Y741586D01*
Y680878D01*
X998055D01*
X998196Y672936D01*
Y610757D01*
X931471Y544032D01*
X887693D01*
Y480788D01*
X950937D01*
Y524566D01*
X1021693Y595322D01*
X1021694Y595322D01*
X1024677Y599788D01*
X1025725Y605056D01*
X1025725Y605056D01*
Y758028D01*
X1027512Y759494D01*
X1035779D01*
X1037578Y758018D01*
Y756370D01*
X1038626Y751102D01*
X1041610Y746636D01*
X1134979Y653267D01*
X1139445Y650283D01*
X1144712Y649236D01*
X1151905D01*
X1155219Y641236D01*
X1154205Y640222D01*
X1151189Y632941D01*
Y625059D01*
X1154205Y617778D01*
X1157236Y614748D01*
Y258702D01*
X1105572Y207038D01*
X1104245Y207804D01*
X1094200Y210496D01*
X1083800D01*
X1073755Y207804D01*
X1064749Y202605D01*
X1057395Y195251D01*
X1052196Y186245D01*
X1049504Y176200D01*
Y165800D01*
X1052196Y155755D01*
X1057395Y146749D01*
X1064749Y139395D01*
X1073755Y134196D01*
X1083800Y131504D01*
X1094200D01*
X1104245Y134196D01*
X1113251Y139395D01*
X1120605Y146749D01*
X1125804Y155755D01*
X1128496Y165800D01*
Y176200D01*
X1125804Y186245D01*
X1125038Y187572D01*
X1180733Y243267D01*
X1183717Y247732D01*
X1184764Y253000D01*
Y614748D01*
X1187795Y617778D01*
X1190811Y625059D01*
Y632941D01*
X1187795Y640222D01*
X1186781Y641236D01*
X1190095Y649236D01*
X1273299D01*
X1349236Y573299D01*
Y512326D01*
X1348454Y512117D01*
X1339861Y507156D01*
X1332844Y500139D01*
X1327883Y491546D01*
X1325315Y481961D01*
Y472039D01*
X1327883Y462454D01*
X1332844Y453861D01*
X1339861Y446844D01*
X1348454Y441883D01*
X1358039Y439315D01*
X1367961D01*
X1377546Y441883D01*
X1386139Y446844D01*
X1393156Y453861D01*
X1398117Y462454D01*
X1400685Y472039D01*
Y481961D01*
X1398117Y491546D01*
X1393156Y500139D01*
X1386139Y507156D01*
X1377546Y512117D01*
X1376764Y512326D01*
Y579000D01*
X1375717Y584268D01*
X1372733Y588733D01*
X1294564Y666902D01*
X1297878Y674902D01*
X1347632D01*
X1449236Y573299D01*
Y512326D01*
X1448454Y512117D01*
X1439861Y507156D01*
X1432844Y500139D01*
X1427883Y491546D01*
X1425315Y481961D01*
Y472039D01*
X1427883Y462454D01*
X1432844Y453861D01*
X1439861Y446844D01*
X1448454Y441883D01*
X1458039Y439315D01*
X1467961D01*
X1477546Y441883D01*
X1486139Y446844D01*
X1493156Y453861D01*
X1498117Y462454D01*
X1500685Y472039D01*
Y481961D01*
X1498117Y491546D01*
X1493156Y500139D01*
X1486139Y507156D01*
X1477546Y512117D01*
X1476764Y512326D01*
Y579000D01*
X1476765Y579000D01*
X1475717Y584268D01*
X1472733Y588733D01*
X1472733Y588733D01*
X1368897Y692569D01*
X1372211Y700569D01*
X1421965D01*
X1549236Y573299D01*
Y512326D01*
X1548454Y512117D01*
X1539861Y507156D01*
X1532844Y500139D01*
X1527883Y491546D01*
X1525315Y481961D01*
Y472039D01*
X1527883Y462454D01*
X1532844Y453861D01*
X1539861Y446844D01*
X1548454Y441883D01*
X1558039Y439315D01*
X1567961D01*
X1577546Y441883D01*
X1586139Y446844D01*
X1593156Y453861D01*
X1598117Y462454D01*
X1600685Y472039D01*
Y481961D01*
X1598117Y491546D01*
X1593156Y500139D01*
X1586139Y507156D01*
X1577546Y512117D01*
X1576764Y512326D01*
Y579000D01*
X1575717Y584268D01*
X1572733Y588733D01*
X1443231Y718235D01*
X1446545Y726235D01*
X1496299D01*
X1649236Y573299D01*
Y514685D01*
X1625315D01*
Y439315D01*
X1700685D01*
Y514685D01*
X1676764D01*
Y579000D01*
X1676765Y579000D01*
X1675717Y584268D01*
X1672733Y588733D01*
X1672733Y588733D01*
X1511733Y749733D01*
X1507268Y752716D01*
X1502000Y753764D01*
X1181969D01*
X1179542Y761764D01*
X1180336Y762294D01*
X1182409Y765396D01*
X1183136Y769056D01*
Y824961D01*
X1182409Y828620D01*
X1181757Y829596D01*
X1180628Y832983D01*
X1182282Y839088D01*
X1189403Y841555D01*
X1192596Y840707D01*
X1193735Y839946D01*
X1197394Y839218D01*
X1253299D01*
X1256958Y839946D01*
X1260060Y842019D01*
X1262133Y845121D01*
X1262861Y848780D01*
Y857048D01*
X1262133Y860707D01*
X1260763Y862756D01*
X1262133Y864806D01*
X1262861Y868465D01*
Y876733D01*
X1262133Y880392D01*
X1260763Y882441D01*
X1262133Y884491D01*
X1262861Y888150D01*
Y896418D01*
X1262133Y900077D01*
X1260763Y902126D01*
X1262133Y904176D01*
X1262861Y907835D01*
Y916103D01*
X1262133Y919762D01*
X1260763Y921811D01*
X1262133Y923861D01*
X1262861Y927520D01*
Y935788D01*
X1262133Y939447D01*
X1260763Y941496D01*
X1262133Y943546D01*
X1262861Y947205D01*
Y955473D01*
X1262133Y959132D01*
X1260763Y961182D01*
X1262133Y963231D01*
X1262861Y966890D01*
Y975158D01*
X1262133Y978817D01*
X1260763Y980867D01*
X1262133Y982916D01*
X1262861Y986575D01*
Y994843D01*
X1264318Y996618D01*
X1280916D01*
X1288236Y989299D01*
Y967000D01*
X1289283Y961733D01*
X1292267Y957267D01*
X1312439Y937095D01*
X1311600Y932880D01*
X1313184Y924920D01*
X1317693Y918171D01*
X1324441Y913662D01*
X1332401Y912079D01*
X1381024D01*
X1388984Y913662D01*
X1395732Y918171D01*
X1400241Y924920D01*
X1401825Y932880D01*
X1400241Y940840D01*
X1395732Y947589D01*
X1388984Y952098D01*
X1381024Y953681D01*
X1342736D01*
X1342477Y954079D01*
X1346814Y962079D01*
X1381024D01*
X1388984Y963662D01*
X1389620Y964087D01*
X1423476D01*
X1424299Y963747D01*
X1468143Y919903D01*
X1474097Y915924D01*
X1481120Y914527D01*
X1534366D01*
X1535661Y913662D01*
X1543621Y912079D01*
X1592244D01*
X1600204Y913662D01*
X1606952Y918171D01*
X1611461Y924920D01*
X1613045Y932880D01*
X1611461Y940840D01*
X1606952Y947589D01*
X1600204Y952098D01*
X1592244Y953681D01*
X1543621D01*
X1535661Y952098D01*
X1534366Y951233D01*
X1488722D01*
X1450253Y989701D01*
X1448795Y993222D01*
X1443222Y998795D01*
X1435941Y1001811D01*
X1428059D01*
X1425601Y1000793D01*
X1390937D01*
X1388984Y1002098D01*
X1381024Y1003681D01*
X1332401D01*
X1324441Y1002098D01*
X1322736Y1000958D01*
X1321339Y1000838D01*
X1312655Y1003353D01*
X1311733Y1004733D01*
X1311733Y1004733D01*
X1296351Y1020115D01*
X1295701Y1026713D01*
X1303835Y1034847D01*
X1307778Y1033848D01*
X1311863Y1031561D01*
X1313184Y1024920D01*
X1317693Y1018171D01*
X1324441Y1013662D01*
X1332401Y1012079D01*
X1352713D01*
Y1032880D01*
Y1053681D01*
X1342520D01*
X1337782Y1061026D01*
X1337915Y1061681D01*
X1338527Y1062079D01*
X1381024D01*
X1388984Y1063662D01*
X1395732Y1068171D01*
X1400241Y1074920D01*
X1401825Y1082880D01*
X1400241Y1090840D01*
X1395732Y1097589D01*
X1388984Y1102098D01*
X1381024Y1103681D01*
X1333461D01*
X1331543Y1106185D01*
X1329783Y1111317D01*
X1343701Y1125236D01*
X1579000D01*
X1584267Y1126283D01*
X1588733Y1129267D01*
X1693733Y1234267D01*
X1696717Y1238733D01*
X1697764Y1244000D01*
Y1625299D01*
X1790664Y1718198D01*
X1794716Y1715858D01*
X1806764Y1712630D01*
X1819236D01*
X1831284Y1715858D01*
X1842086Y1722094D01*
X1850906Y1730914D01*
X1857142Y1741716D01*
X1858859Y1748124D01*
X1867141D01*
X1868858Y1741716D01*
X1875094Y1730914D01*
X1883914Y1722094D01*
X1894716Y1715858D01*
X1906764Y1712630D01*
X1919236D01*
X1931284Y1715858D01*
X1942086Y1722094D01*
X1950906Y1730914D01*
X1957142Y1741716D01*
X1960370Y1753764D01*
Y1766236D01*
X1957142Y1778284D01*
X1950906Y1789086D01*
X1942086Y1797906D01*
X1931284Y1804142D01*
X1920294Y1807087D01*
X1918904Y1814075D01*
X1914925Y1820029D01*
X1875977Y1858977D01*
X1870023Y1862956D01*
X1863000Y1864353D01*
X1611353D01*
Y1966737D01*
X1612284Y1968131D01*
X1612905Y1971252D01*
Y2002748D01*
X1612284Y2005869D01*
X1610516Y2008516D01*
X1607869Y2010284D01*
X1604748Y2010905D01*
X1573252D01*
X1572865Y2010828D01*
X1565263Y2011668D01*
X1561284Y2017622D01*
X1527929Y2050977D01*
X1521975Y2054956D01*
X1514952Y2056353D01*
X944000D01*
X936977Y2054956D01*
X931023Y2050977D01*
X757023Y1876977D01*
X753044Y1871023D01*
X751647Y1864000D01*
Y1730461D01*
X750189Y1726941D01*
Y1719059D01*
X752022Y1714634D01*
X748006Y1707574D01*
X747212Y1706932D01*
X744420Y1707115D01*
X743464Y1708071D01*
X741417Y1711136D01*
X740006Y1714541D01*
X739247Y1718355D01*
X739157Y1720201D01*
Y1861000D01*
Y1866023D01*
X739000Y1866811D01*
Y1867614D01*
X737040Y1877467D01*
X736732Y1878210D01*
X736576Y1878997D01*
X732731Y1888279D01*
X732285Y1888947D01*
X731978Y1889689D01*
X726396Y1898042D01*
X725828Y1898610D01*
X725382Y1899278D01*
X718278Y1906382D01*
X717610Y1906829D01*
X717042Y1907396D01*
X708689Y1912978D01*
X707947Y1913285D01*
X707279Y1913731D01*
X697997Y1917576D01*
X697210Y1917733D01*
X696467Y1918040D01*
X686614Y1920000D01*
X685811D01*
X685023Y1920157D01*
X325848D01*
X325060Y1920000D01*
X324257D01*
X318075Y1918770D01*
X317332Y1918463D01*
X316545Y1918306D01*
X310721Y1915894D01*
X310053Y1915448D01*
X309311Y1915140D01*
X304070Y1911638D01*
X303501Y1911070D01*
X302833Y1910624D01*
X298376Y1906167D01*
X297930Y1905498D01*
X297362Y1904930D01*
X293860Y1899689D01*
X293552Y1898947D01*
X293106Y1898279D01*
X290694Y1892455D01*
X290537Y1891668D01*
X290230Y1890925D01*
X289000Y1884743D01*
Y1883940D01*
X288843Y1883152D01*
Y1880000D01*
X288850Y1879966D01*
X288844Y1879933D01*
X289031Y1857279D01*
X283034Y1854754D01*
X281053Y1854587D01*
X280954Y1854686D01*
X280507Y1855354D01*
X275354Y1860507D01*
X274686Y1860954D01*
X274118Y1861522D01*
X268058Y1865571D01*
X267315Y1865879D01*
X266647Y1866325D01*
X259914Y1869114D01*
X259126Y1869271D01*
X258384Y1869578D01*
X251235Y1871000D01*
X250432D01*
X249644Y1871157D01*
X208486D01*
X206894Y1879157D01*
X222429Y1885592D01*
X222761Y1885813D01*
X223142Y1885929D01*
X243586Y1896856D01*
X243894Y1897109D01*
X244262Y1897261D01*
X263536Y1910140D01*
X263818Y1910422D01*
X264169Y1910610D01*
X282089Y1925316D01*
X282341Y1925623D01*
X282673Y1925845D01*
X299065Y1942237D01*
X299286Y1942568D01*
X299594Y1942820D01*
X314300Y1960740D01*
X314488Y1961091D01*
X314769Y1961373D01*
X327648Y1980648D01*
X327801Y1981016D01*
X328053Y1981323D01*
X338981Y2001768D01*
X339096Y2002149D01*
X339318Y2002480D01*
X348189Y2023897D01*
X348267Y2024287D01*
X348454Y2024639D01*
X355183Y2046822D01*
X355223Y2047218D01*
X355375Y2047586D01*
X359897Y2070322D01*
Y2070721D01*
X360013Y2071102D01*
X362285Y2094171D01*
X362256Y2094469D01*
X362322Y2094761D01*
X362606Y2106352D01*
X362589Y2106451D01*
X362609Y2106549D01*
Y2204974D01*
Y2211939D01*
X365326Y2225600D01*
X370656Y2238469D01*
X378395Y2250050D01*
X388244Y2259900D01*
X399826Y2267639D01*
X412695Y2272969D01*
X426356Y2275687D01*
X433321Y2275687D01*
X1732534Y2275687D01*
D02*
G37*
G36*
X1883595Y1799450D02*
Y1797587D01*
X1875094Y1789086D01*
X1868858Y1778284D01*
X1867141Y1771876D01*
X1858859D01*
X1857142Y1778284D01*
X1850906Y1789086D01*
X1842086Y1797906D01*
X1831284Y1804142D01*
X1819236Y1807370D01*
X1806764D01*
X1794716Y1804142D01*
X1783914Y1797906D01*
X1775094Y1789086D01*
X1768858Y1778284D01*
X1767141Y1771876D01*
X1758859D01*
X1757142Y1778284D01*
X1750906Y1789086D01*
X1742086Y1797906D01*
X1731284Y1804142D01*
X1719236Y1807370D01*
X1706764D01*
X1694716Y1804142D01*
X1683914Y1797906D01*
X1675094Y1789086D01*
X1668858Y1778284D01*
X1667141Y1771876D01*
X1658859D01*
X1657142Y1778284D01*
X1650906Y1789086D01*
X1642086Y1797906D01*
X1631284Y1804142D01*
X1619236Y1807370D01*
X1617000D01*
Y1760000D01*
Y1712630D01*
X1619236D01*
X1631284Y1715858D01*
X1642086Y1722094D01*
X1650906Y1730914D01*
X1657142Y1741716D01*
X1658859Y1748124D01*
X1667141D01*
X1668858Y1741716D01*
X1671198Y1737664D01*
X1592267Y1658733D01*
X1589283Y1654267D01*
X1588236Y1649000D01*
Y1288701D01*
X1576637Y1277103D01*
X1568803Y1280583D01*
X1568803Y1284228D01*
Y1305126D01*
X1541181D01*
Y1277504D01*
X1561532D01*
X1565724Y1277504D01*
X1569204Y1269670D01*
X1559935Y1260401D01*
X1307637D01*
X1307637Y1260401D01*
X1302369Y1259353D01*
X1297904Y1256370D01*
X1297903Y1256369D01*
X1215613Y1174079D01*
X1212630Y1169614D01*
X1211582Y1164346D01*
Y1083202D01*
X1188917D01*
X1183649Y1082154D01*
X1179184Y1079170D01*
X1044267Y944254D01*
X1041283Y939788D01*
X1040236Y934520D01*
Y868252D01*
X1037205Y865222D01*
X1034189Y857941D01*
Y850059D01*
X1037205Y842778D01*
X1037682Y842301D01*
X1036739Y838444D01*
X1034147Y834523D01*
X1027512D01*
X1023853Y833795D01*
X1021803Y832425D01*
X1019754Y833795D01*
X1016094Y834523D01*
X1007827D01*
X1004168Y833795D01*
X1002118Y832425D01*
X1000068Y833795D01*
X996409Y834523D01*
X988142D01*
X986355Y835989D01*
Y963889D01*
X1033655Y1011189D01*
X1037941D01*
X1045222Y1014205D01*
X1050795Y1019778D01*
X1053811Y1027059D01*
Y1034941D01*
X1050795Y1042222D01*
X1046822Y1046195D01*
X1047389Y1052943D01*
X1048319Y1055151D01*
X1051824Y1056603D01*
X1057397Y1062176D01*
X1060413Y1069457D01*
Y1077338D01*
X1059139Y1080414D01*
X1059135Y1082808D01*
X1065018Y1088211D01*
X1066882Y1087840D01*
X1075149D01*
X1078809Y1088568D01*
X1080858Y1089938D01*
X1082908Y1088568D01*
X1086567Y1087840D01*
X1094835D01*
X1098494Y1088568D01*
X1100543Y1089938D01*
X1102593Y1088568D01*
X1106252Y1087840D01*
X1114520D01*
X1118179Y1088568D01*
X1120228Y1089938D01*
X1122278Y1088568D01*
X1125937Y1087840D01*
X1134205D01*
X1137864Y1088568D01*
X1139913Y1089938D01*
X1141963Y1088568D01*
X1145622Y1087840D01*
X1153890D01*
X1157549Y1088568D01*
X1159598Y1089938D01*
X1161648Y1088568D01*
X1165307Y1087840D01*
X1173575D01*
X1177234Y1088568D01*
X1180336Y1090641D01*
X1182409Y1093743D01*
X1183136Y1097402D01*
Y1125008D01*
X1183205Y1125355D01*
Y1283739D01*
X1231972Y1332506D01*
X1237705Y1327033D01*
X1234689Y1319752D01*
Y1311870D01*
X1237705Y1304589D01*
X1243278Y1299016D01*
X1250559Y1296000D01*
X1254845D01*
X1269578Y1281267D01*
X1269578Y1281267D01*
X1274044Y1278283D01*
X1279311Y1277235D01*
X1279312Y1277236D01*
X1436000D01*
X1441267Y1278283D01*
X1445733Y1281267D01*
X1486733Y1322267D01*
X1486733Y1322267D01*
X1489717Y1326733D01*
X1490765Y1332000D01*
X1490764Y1332001D01*
Y1462378D01*
X1491911Y1468324D01*
X1499849Y1469243D01*
X1504962Y1464130D01*
Y1427241D01*
X1504962Y1425732D01*
X1505559Y1419488D01*
X1505559Y1419488D01*
Y1356244D01*
X1568803D01*
Y1419488D01*
X1553737D01*
X1550158Y1424843D01*
X1541668Y1433334D01*
Y1469786D01*
X1554437D01*
Y1521219D01*
X1499133D01*
X1495819Y1529219D01*
X1515426Y1548826D01*
X1516521Y1550465D01*
X1554437D01*
Y1601898D01*
X1492193D01*
Y1565294D01*
X1492002Y1564334D01*
X1467267Y1539599D01*
X1464283Y1535134D01*
X1463236Y1529866D01*
Y1529814D01*
X1461437Y1522559D01*
X1455235Y1522559D01*
X1434315D01*
Y1496843D01*
X1426315D01*
Y1522559D01*
X1403936D01*
X1399193Y1522559D01*
X1395936Y1529210D01*
Y1545152D01*
X1398604Y1550600D01*
X1403729Y1551803D01*
X1461437D01*
Y1603236D01*
X1418230D01*
X1409422Y1612044D01*
X1404957Y1615028D01*
X1400235Y1615967D01*
X1398269Y1619006D01*
X1396421Y1623467D01*
X1600602Y1827647D01*
X1855398D01*
X1883595Y1799450D01*
D02*
G37*
G36*
X1768858Y1741716D02*
X1771198Y1737664D01*
X1674267Y1640733D01*
X1671283Y1636267D01*
X1670236Y1631000D01*
Y1249701D01*
X1573299Y1152764D01*
X1338000D01*
X1332733Y1151717D01*
X1328267Y1148733D01*
X1289267Y1109733D01*
X1286283Y1105267D01*
X1285236Y1100000D01*
Y1087701D01*
X1270218Y1072684D01*
X1262353Y1076133D01*
X1262133Y1077242D01*
X1260060Y1080344D01*
X1256958Y1082417D01*
X1253299Y1083145D01*
X1248572D01*
X1248165Y1083226D01*
X1248106Y1083214D01*
X1239111D01*
Y1158645D01*
X1313338Y1232872D01*
X1565637D01*
X1570904Y1233920D01*
X1575370Y1236904D01*
X1611733Y1273267D01*
X1614717Y1277733D01*
X1615765Y1283000D01*
X1615764Y1283001D01*
Y1643299D01*
X1690664Y1718198D01*
X1694716Y1715858D01*
X1706764Y1712630D01*
X1719236D01*
X1731284Y1715858D01*
X1742086Y1722094D01*
X1750906Y1730914D01*
X1757142Y1741716D01*
X1758859Y1748124D01*
X1767141D01*
X1768858Y1741716D01*
D02*
G37*
G36*
X1511280Y2013814D02*
X1508270Y2006811D01*
X1505059D01*
X1497778Y2003795D01*
X1492205Y1998222D01*
X1489214Y1991000D01*
X1509000D01*
Y1987000D01*
X1513000D01*
Y1967214D01*
X1517102Y1968913D01*
X1523249Y1968152D01*
X1526964Y1965633D01*
X1527232Y1965232D01*
X1529879Y1963464D01*
X1533000Y1962843D01*
X1565000D01*
X1566681Y1963178D01*
X1574647Y1958936D01*
Y1853602D01*
X1368428Y1647382D01*
X1297848D01*
X1294327Y1648841D01*
X1286446D01*
X1279165Y1645825D01*
X1273592Y1640252D01*
X1270576Y1632970D01*
Y1625089D01*
X1273592Y1617808D01*
X1274398Y1617001D01*
X1273910Y1612044D01*
X1240186Y1578320D01*
X1231891Y1578582D01*
X1231084Y1579565D01*
Y1587537D01*
X1230360Y1591177D01*
X1228299Y1594263D01*
X1226072Y1600056D01*
X1226987Y1604029D01*
X1228736Y1608252D01*
Y1616133D01*
X1225720Y1623415D01*
X1220147Y1628988D01*
X1212866Y1632004D01*
X1209305D01*
X1203747Y1639491D01*
X1204811Y1642059D01*
Y1649941D01*
X1201795Y1657222D01*
X1196222Y1662795D01*
X1191769Y1664639D01*
X1189018Y1673202D01*
X1214789Y1698973D01*
X1250693D01*
Y1774027D01*
X1195323D01*
Y1718438D01*
X1160049Y1683165D01*
X1152658Y1686226D01*
Y1738494D01*
X1176294Y1762130D01*
X1176295Y1762130D01*
X1181378Y1769738D01*
X1183163Y1778713D01*
Y1865747D01*
X1189868Y1872451D01*
X1194829Y1881045D01*
X1197398Y1890629D01*
Y1900552D01*
X1194829Y1910137D01*
X1189868Y1918730D01*
X1182852Y1925746D01*
X1174258Y1930707D01*
X1164674Y1933276D01*
X1154751D01*
X1145167Y1930707D01*
X1136573Y1925746D01*
X1129557Y1918730D01*
X1124596Y1910137D01*
X1122028Y1900552D01*
Y1890629D01*
X1124596Y1881045D01*
X1129557Y1872451D01*
X1136262Y1865747D01*
Y1788426D01*
X1117653Y1769817D01*
X1107397Y1770767D01*
X1084738Y1793426D01*
Y1865747D01*
X1091443Y1872451D01*
X1096404Y1881045D01*
X1098972Y1890629D01*
Y1900552D01*
X1096404Y1910137D01*
X1091443Y1918730D01*
X1084427Y1925746D01*
X1075833Y1930707D01*
X1066249Y1933276D01*
X1056326D01*
X1046742Y1930707D01*
X1038148Y1925746D01*
X1031132Y1918730D01*
X1026171Y1910137D01*
X1023602Y1900552D01*
Y1890629D01*
X1026171Y1881045D01*
X1031132Y1872451D01*
X1037837Y1865747D01*
Y1783713D01*
X1039622Y1774738D01*
X1044705Y1767130D01*
X1067364Y1744471D01*
Y1685365D01*
X1059973Y1682304D01*
X1025942Y1716335D01*
Y1722314D01*
X1025942Y1722315D01*
X1025677Y1723645D01*
Y1774027D01*
X970307D01*
Y1701157D01*
X899693D01*
Y1732500D01*
X844323D01*
Y1701157D01*
X787487D01*
X784174Y1709157D01*
X786795Y1711778D01*
X789811Y1719059D01*
Y1726941D01*
X788353Y1730461D01*
Y1856398D01*
X951602Y2019647D01*
X1506570D01*
X1511280Y2013814D01*
D02*
G37*
G36*
X694876Y1910040D02*
X704158Y1906196D01*
X712511Y1900614D01*
X719614Y1893511D01*
X725196Y1885158D01*
X729040Y1875876D01*
X731000Y1866023D01*
Y1861000D01*
Y1720000D01*
X731130Y1717353D01*
X732163Y1712162D01*
X734188Y1707272D01*
X737129Y1702871D01*
X740871Y1699129D01*
X745272Y1696188D01*
X750162Y1694163D01*
X755354Y1693130D01*
X758000Y1693000D01*
X1010345D01*
X1057365Y1645980D01*
Y1620953D01*
X1057632Y1619611D01*
Y1608264D01*
X1056995Y1608000D01*
X1032054D01*
X1031886Y1608252D01*
Y1616133D01*
X1028870Y1623415D01*
X1023297Y1628988D01*
X1016015Y1632004D01*
X1008134D01*
X1000853Y1628988D01*
X995280Y1623415D01*
X992865Y1617586D01*
X987614Y1616529D01*
X984536Y1616790D01*
X983314Y1619741D01*
X977741Y1625314D01*
X970459Y1628330D01*
X962578D01*
X955297Y1625314D01*
X947622Y1628953D01*
Y1637992D01*
X916000D01*
X884378D01*
Y1610370D01*
X877360Y1608000D01*
X869055D01*
X861622Y1609370D01*
X861622Y1616000D01*
Y1636992D01*
X830000D01*
Y1640992D01*
D01*
Y1636992D01*
X798378D01*
Y1616000D01*
X798378Y1609370D01*
X790945Y1608000D01*
X582060D01*
X574332Y1609537D01*
X567053Y1612552D01*
X560501Y1616930D01*
X554930Y1622501D01*
X550552Y1629053D01*
X547537Y1636332D01*
X546000Y1644060D01*
Y1648000D01*
X545701Y1654077D01*
X543330Y1665998D01*
X538679Y1677226D01*
X531927Y1687332D01*
X523332Y1695927D01*
X513226Y1702679D01*
X501998Y1707330D01*
X490077Y1709701D01*
X484000Y1710000D01*
X315624D01*
X307538Y1713349D01*
X301349Y1719538D01*
X298000Y1727624D01*
Y1759000D01*
X297000Y1880000D01*
Y1883152D01*
X298230Y1889334D01*
X300642Y1895158D01*
X304144Y1900399D01*
X308601Y1904856D01*
X313842Y1908358D01*
X319666Y1910770D01*
X325848Y1912000D01*
X685023D01*
X694876Y1910040D01*
D02*
G37*
G36*
X1142244Y1597549D02*
X1145884Y1596825D01*
X1153856D01*
X1157496Y1597549D01*
X1159713Y1599030D01*
X1161929Y1597549D01*
X1165569Y1596825D01*
X1173541D01*
X1177181Y1597549D01*
X1178157Y1598201D01*
X1185103Y1597039D01*
X1185613Y1594312D01*
X1185615Y1594263D01*
X1183553Y1591177D01*
X1182829Y1587537D01*
Y1579565D01*
X1183553Y1575925D01*
X1185034Y1573709D01*
X1183553Y1571492D01*
X1182829Y1567852D01*
Y1559880D01*
X1183553Y1556240D01*
X1185034Y1554024D01*
X1183553Y1551807D01*
X1182829Y1548167D01*
Y1540195D01*
X1183553Y1536555D01*
X1185034Y1534339D01*
X1183553Y1532122D01*
X1182832Y1528496D01*
X1206957D01*
Y1520496D01*
X1182832D01*
X1183553Y1516870D01*
X1185034Y1514653D01*
X1183553Y1512437D01*
X1182829Y1508797D01*
Y1500825D01*
X1183553Y1497185D01*
X1185034Y1494968D01*
X1183553Y1492752D01*
X1182829Y1489112D01*
Y1481140D01*
X1183553Y1477500D01*
X1185034Y1475283D01*
X1183553Y1473067D01*
X1182829Y1469427D01*
Y1461455D01*
X1183553Y1457815D01*
X1183111Y1457103D01*
X1177181Y1451443D01*
X1173541Y1452167D01*
X1165569D01*
X1161929Y1451443D01*
X1159713Y1449962D01*
X1157496Y1451443D01*
X1153870Y1452164D01*
Y1428039D01*
X1145870D01*
Y1452164D01*
X1142244Y1451443D01*
X1140028Y1449962D01*
X1137811Y1451443D01*
X1134171Y1452167D01*
X1126199D01*
X1122559Y1451443D01*
X1120342Y1449962D01*
X1118126Y1451443D01*
X1114486Y1452167D01*
X1106514D01*
X1102874Y1451443D01*
X1100658Y1449962D01*
X1098441Y1451443D01*
X1094801Y1452167D01*
X1086829D01*
X1083189Y1451443D01*
X1080972Y1449962D01*
X1078756Y1451443D01*
X1075116Y1452167D01*
X1067144D01*
X1063504Y1451443D01*
X1061287Y1449962D01*
X1059071Y1451443D01*
X1055431Y1452167D01*
X1047459D01*
X1043819Y1451443D01*
X1040733Y1449381D01*
X1038671Y1446295D01*
X1037947Y1442656D01*
Y1430126D01*
X1037495Y1427854D01*
Y1406043D01*
X1034484Y1404795D01*
X1028911Y1399222D01*
X1025895Y1391941D01*
Y1384059D01*
X1028911Y1376778D01*
X1034484Y1371205D01*
X1041765Y1368189D01*
X1049646D01*
X1057252Y1362680D01*
Y1182794D01*
X1049861Y1179733D01*
X996860Y1232733D01*
X992395Y1235717D01*
X987127Y1236764D01*
X855702D01*
X846811Y1245655D01*
Y1249941D01*
X844192Y1256262D01*
X845797Y1260520D01*
X848068Y1264262D01*
X884378D01*
Y1260882D01*
X947622D01*
Y1324126D01*
X947622D01*
Y1325874D01*
X947622D01*
Y1370148D01*
X994331Y1416857D01*
X997315Y1421323D01*
X998363Y1426590D01*
X998363Y1426591D01*
Y1451070D01*
X999427Y1451943D01*
X1028659D01*
X1032299Y1452667D01*
X1035385Y1454729D01*
X1037447Y1457815D01*
X1038171Y1461455D01*
Y1469427D01*
X1037447Y1473067D01*
X1035966Y1475283D01*
X1037447Y1477500D01*
X1038171Y1481140D01*
Y1489112D01*
X1037447Y1492752D01*
X1035966Y1494968D01*
X1037447Y1497185D01*
X1038171Y1500825D01*
Y1508797D01*
X1037447Y1512437D01*
X1035966Y1514653D01*
X1037447Y1516870D01*
X1038171Y1520510D01*
Y1528482D01*
X1037447Y1532122D01*
X1035966Y1534339D01*
X1037447Y1536555D01*
X1038168Y1540181D01*
X1014043D01*
Y1548181D01*
X1038168D01*
X1037447Y1551807D01*
X1035966Y1554024D01*
X1037447Y1556240D01*
X1038171Y1559880D01*
Y1567852D01*
X1037447Y1571492D01*
X1035966Y1573709D01*
X1037447Y1575925D01*
X1038171Y1579565D01*
Y1587537D01*
X1037447Y1591177D01*
X1037002Y1591843D01*
X1037210Y1592343D01*
X1043819Y1597549D01*
X1047459Y1596825D01*
X1055431D01*
X1059071Y1597549D01*
X1061287Y1599030D01*
X1063504Y1597549D01*
X1067144Y1596825D01*
X1075116D01*
X1078756Y1597549D01*
X1080972Y1599030D01*
X1083189Y1597549D01*
X1086829Y1596825D01*
X1094801D01*
X1098441Y1597549D01*
X1100658Y1599030D01*
X1102874Y1597549D01*
X1106514Y1596825D01*
X1114486D01*
X1118126Y1597549D01*
X1120342Y1599030D01*
X1122559Y1597549D01*
X1126199Y1596825D01*
X1134171D01*
X1137811Y1597549D01*
X1140028Y1599030D01*
X1142244Y1597549D01*
D02*
G37*
G36*
X795707Y1597245D02*
X798378Y1595022D01*
Y1580000D01*
X830000D01*
Y1576000D01*
X834000D01*
Y1544378D01*
X850598D01*
X853912Y1536378D01*
X815267Y1497733D01*
X812283Y1493267D01*
X811236Y1488000D01*
Y1373252D01*
X808205Y1370222D01*
X805189Y1362941D01*
Y1355059D01*
X808205Y1347778D01*
X813778Y1342205D01*
X821059Y1339189D01*
X828941D01*
X836222Y1342205D01*
X841795Y1347778D01*
X844811Y1355059D01*
Y1362941D01*
X841795Y1370222D01*
X838764Y1373252D01*
Y1482299D01*
X874409Y1517944D01*
X882409Y1514630D01*
Y1484118D01*
X936359D01*
X939420Y1476727D01*
X926358Y1463665D01*
X923374Y1459199D01*
X922326Y1453932D01*
Y1452874D01*
X882409D01*
Y1409315D01*
X937404D01*
X940466Y1401924D01*
X927660Y1389118D01*
X884378D01*
Y1325874D01*
X878502Y1320746D01*
X766194D01*
X657242Y1429698D01*
Y1599843D01*
X790945D01*
X795707Y1597245D01*
D02*
G37*
G36*
X1306378Y1420882D02*
X1369622D01*
X1371466Y1413646D01*
Y1398024D01*
X1371870Y1395992D01*
X1371701Y1387992D01*
X1371701Y1387992D01*
X1371701Y1387992D01*
Y1309000D01*
X1365455Y1304764D01*
X1285012D01*
X1274311Y1315466D01*
Y1319752D01*
X1271295Y1327033D01*
X1265722Y1332606D01*
X1258441Y1335622D01*
X1250559D01*
X1243278Y1332606D01*
X1237805Y1338339D01*
X1283733Y1384267D01*
X1286717Y1388733D01*
X1287764Y1394000D01*
Y1400748D01*
X1290795Y1403778D01*
X1293811Y1411059D01*
Y1418941D01*
X1290795Y1426222D01*
X1285222Y1431795D01*
X1284555Y1432071D01*
X1286146Y1440071D01*
X1306378D01*
Y1420882D01*
D02*
G37*
G36*
X554734Y1611162D02*
X555402Y1610716D01*
X555970Y1610148D01*
X562521Y1605770D01*
X563264Y1605463D01*
X563931Y1605017D01*
X571211Y1602001D01*
X571999Y1601845D01*
X572741Y1601537D01*
X580469Y1600000D01*
X581272D01*
X582060Y1599843D01*
X600758D01*
Y1418000D01*
X601721Y1410690D01*
X604542Y1403879D01*
X609030Y1398030D01*
X734526Y1272534D01*
X740375Y1268046D01*
X747187Y1265225D01*
X754496Y1264262D01*
X805932D01*
X808203Y1260520D01*
X809808Y1256262D01*
X807189Y1249941D01*
Y1242059D01*
X810205Y1234778D01*
X815778Y1229205D01*
X823059Y1226189D01*
X827345D01*
X840267Y1213267D01*
X844732Y1210283D01*
X850000Y1209236D01*
X911905D01*
X915219Y1201236D01*
X915205Y1201222D01*
X912189Y1193941D01*
Y1186059D01*
X915205Y1178778D01*
X920778Y1173205D01*
X928059Y1170189D01*
X935941D01*
X943222Y1173205D01*
X946346Y1176329D01*
X974962D01*
X981145Y1170147D01*
X977204Y1162774D01*
X976724Y1162869D01*
X968457D01*
X964798Y1162141D01*
X962748Y1160772D01*
X960698Y1162141D01*
X957039Y1162869D01*
X948772D01*
X945113Y1162141D01*
X942011Y1160069D01*
X939938Y1156966D01*
X939210Y1153307D01*
Y1097402D01*
X939938Y1093743D01*
X942011Y1090641D01*
X945113Y1088568D01*
X948772Y1087840D01*
X957039D01*
X960698Y1088568D01*
X962748Y1089938D01*
X964798Y1088568D01*
X968457Y1087840D01*
X976724D01*
X979231Y1088339D01*
X979571Y1086634D01*
X982554Y1082168D01*
X1001058Y1063665D01*
X1005524Y1060681D01*
X1010791Y1059633D01*
X1020202D01*
X1023043Y1056564D01*
X1022778Y1047795D01*
X1017205Y1042222D01*
X1014189Y1034941D01*
Y1030655D01*
X987548Y1004014D01*
X980157Y1007075D01*
Y1034579D01*
X980000Y1035367D01*
Y1036171D01*
X978393Y1044248D01*
X978086Y1044991D01*
X977929Y1045779D01*
X974777Y1053388D01*
X974331Y1054056D01*
X974023Y1054798D01*
X969448Y1061646D01*
X968880Y1062214D01*
X968433Y1062882D01*
X962610Y1068706D01*
X961941Y1069152D01*
X961374Y1069720D01*
X954525Y1074296D01*
X953784Y1074603D01*
X953115Y1075050D01*
X945506Y1078201D01*
X944718Y1078358D01*
X943976Y1078666D01*
X942290Y1079001D01*
X941885D01*
X941498Y1079119D01*
X940305Y1079001D01*
X939107D01*
X938599Y1078833D01*
X938331Y1078806D01*
X935864Y1077957D01*
X931714Y1080344D01*
X928612Y1082417D01*
X924953Y1083145D01*
X869047D01*
X865388Y1082417D01*
X862286Y1080344D01*
X862008Y1079927D01*
X859486Y1080429D01*
X811622D01*
Y1097339D01*
X780000D01*
X748378D01*
Y1080429D01*
X712622D01*
Y1097339D01*
X681000D01*
X649378D01*
Y1080429D01*
X507151D01*
X506363Y1080272D01*
X505560D01*
X486240Y1076429D01*
X485498Y1076122D01*
X484709Y1075965D01*
X466511Y1068427D01*
X465843Y1067981D01*
X465101Y1067673D01*
X451656Y1058690D01*
X451422Y1058546D01*
X444539Y1062678D01*
X444428Y1062776D01*
X316102Y1191102D01*
X308164Y1197193D01*
X298920Y1201022D01*
X289000Y1202328D01*
X157342D01*
X155749Y1204320D01*
X153740Y1210040D01*
X223372Y1279672D01*
X348126D01*
X355270Y1268981D01*
X365981Y1258270D01*
X378575Y1249854D01*
X392570Y1244058D01*
X407426Y1241102D01*
X422574D01*
X437430Y1244058D01*
X451425Y1249854D01*
X464019Y1258270D01*
X474730Y1268981D01*
X483146Y1281575D01*
X488942Y1295570D01*
X491897Y1310426D01*
Y1325574D01*
X488942Y1340430D01*
X483146Y1354425D01*
X474730Y1367019D01*
X464019Y1377730D01*
X451425Y1386146D01*
X437430Y1391942D01*
X422574Y1394898D01*
X407426D01*
X392570Y1391942D01*
X378575Y1386146D01*
X365981Y1377730D01*
X355270Y1367019D01*
X348126Y1356328D01*
X275614D01*
X273187Y1364328D01*
X276494Y1366537D01*
X287205Y1377248D01*
X295621Y1389843D01*
X301417Y1403838D01*
X304373Y1418694D01*
Y1421843D01*
X448751D01*
X449538Y1422000D01*
X450342D01*
X469469Y1425804D01*
X470211Y1426112D01*
X470999Y1426269D01*
X489015Y1433732D01*
X489684Y1434178D01*
X490426Y1434485D01*
X506640Y1445320D01*
X507208Y1445888D01*
X507877Y1446334D01*
X521666Y1460123D01*
X522112Y1460792D01*
X522680Y1461360D01*
X533515Y1477574D01*
X533822Y1478317D01*
X534268Y1478985D01*
X541731Y1497001D01*
X541888Y1497789D01*
X542195Y1498531D01*
X546000Y1517658D01*
Y1518461D01*
X546157Y1519249D01*
Y1529000D01*
Y1608425D01*
X554157Y1611739D01*
X554734Y1611162D01*
D02*
G37*
G36*
X859486Y1065315D02*
X860213Y1061656D01*
X861583Y1059607D01*
X860213Y1057557D01*
X859486Y1053898D01*
Y1045630D01*
X860213Y1041971D01*
X861583Y1039922D01*
X860213Y1037872D01*
X859486Y1034213D01*
Y1025945D01*
X860213Y1022286D01*
X861583Y1020237D01*
X860213Y1018187D01*
X859486Y1014528D01*
Y1006260D01*
X860213Y1002601D01*
X862286Y999499D01*
X865388Y997426D01*
X869047Y996699D01*
X924953D01*
X928612Y997426D01*
X931714Y999499D01*
X933787Y1002601D01*
X934514Y1006260D01*
Y1014528D01*
X933787Y1018187D01*
X932417Y1020237D01*
X933787Y1022286D01*
X934514Y1025945D01*
Y1034213D01*
X933787Y1037872D01*
X932417Y1039922D01*
X933787Y1041971D01*
X934514Y1045630D01*
Y1053898D01*
X933787Y1057557D01*
X932417Y1059607D01*
X933787Y1061656D01*
X934277Y1064122D01*
X936248Y1067349D01*
X940698Y1071001D01*
X942385Y1070666D01*
X949994Y1067514D01*
X956842Y1062938D01*
X962666Y1057114D01*
X967241Y1050266D01*
X970393Y1042657D01*
X972000Y1034579D01*
Y988466D01*
X962857Y979323D01*
X959874Y974858D01*
X958826Y969591D01*
Y927205D01*
X954283Y924170D01*
X948158Y921633D01*
X941654Y920339D01*
X940622D01*
X940109Y920604D01*
X934514Y927520D01*
Y935788D01*
X933787Y939447D01*
X932417Y941496D01*
X933787Y943546D01*
X934514Y947205D01*
Y955473D01*
X933787Y959132D01*
X931714Y962234D01*
X928612Y964307D01*
X924953Y965034D01*
X896347D01*
X896000Y965104D01*
X856274D01*
X851007Y964056D01*
X847647Y961811D01*
X840059D01*
X832778Y958795D01*
X827205Y953222D01*
X824189Y945941D01*
Y938059D01*
X827205Y930778D01*
X829644Y928339D01*
X826330Y920339D01*
X744567D01*
X741962Y920211D01*
X736855Y919195D01*
X732043Y917202D01*
X727713Y914309D01*
X724030Y910626D01*
X721137Y906296D01*
X720622Y905053D01*
X712622Y906644D01*
Y919465D01*
X649378D01*
Y856221D01*
X656005D01*
X660449Y849569D01*
X660189Y848941D01*
Y841059D01*
X663205Y833778D01*
X668778Y828205D01*
X676059Y825189D01*
X683941D01*
X691222Y828205D01*
X696795Y833778D01*
X699811Y841059D01*
Y848941D01*
X699551Y849569D01*
X703995Y856221D01*
X712622Y856221D01*
X718000Y850449D01*
Y778575D01*
X661189D01*
X660811Y778575D01*
X653189D01*
X652811Y778575D01*
X646476D01*
X642811Y784059D01*
Y791941D01*
X639795Y799222D01*
X634222Y804795D01*
X626941Y807811D01*
X619059D01*
X611778Y804795D01*
X606205Y799222D01*
X603189Y791941D01*
Y784059D01*
X599524Y778575D01*
X591913D01*
Y709425D01*
X652811D01*
X653189Y709425D01*
X660811D01*
X661189Y709425D01*
X677574D01*
Y696622D01*
X659717D01*
Y633378D01*
X718000D01*
Y337122D01*
X672944D01*
Y274878D01*
X684896D01*
Y210496D01*
X675800D01*
X665755Y207804D01*
X656749Y202605D01*
X649395Y195251D01*
X644196Y186245D01*
X641504Y176200D01*
Y165800D01*
X644196Y155755D01*
X649395Y146749D01*
X656749Y139395D01*
X665755Y134196D01*
X675800Y131504D01*
X686200D01*
X696245Y134196D01*
X705251Y139395D01*
X710000Y144144D01*
X718000Y140830D01*
Y84027D01*
X714194Y74839D01*
X707161Y67806D01*
X697973Y64000D01*
X454398D01*
X447332Y65406D01*
X440675Y68163D01*
X434685Y72165D01*
X429590Y77260D01*
X425588Y83250D01*
X422831Y89906D01*
X421425Y96972D01*
Y178551D01*
X421248Y209994D01*
X428836Y214256D01*
X438080Y210427D01*
X448000Y209121D01*
X457920Y210427D01*
X467164Y214256D01*
X470494Y216811D01*
X482575D01*
Y231621D01*
X485022Y237529D01*
X486328Y247449D01*
Y370000D01*
X485022Y379920D01*
X481193Y389164D01*
X475102Y397102D01*
X419883Y452321D01*
X418633Y674130D01*
X449708Y705205D01*
X455799Y713143D01*
X459628Y722387D01*
X460934Y732307D01*
Y874724D01*
X520173D01*
Y981276D01*
X460934D01*
Y1030394D01*
X459628Y1040314D01*
X455799Y1049558D01*
X456187Y1051908D01*
X469632Y1060891D01*
X487831Y1068429D01*
X507151Y1072272D01*
X649378D01*
Y1069717D01*
X712622D01*
Y1072272D01*
X748378D01*
Y1069717D01*
X811622D01*
Y1072272D01*
X859486D01*
Y1065315D01*
D02*
G37*
%LPC*%
G36*
X682276Y2201173D02*
X633000D01*
Y2107606D01*
X682276D01*
Y2201173D01*
D02*
G37*
G36*
X625000D02*
X575724D01*
Y2107606D01*
X625000D01*
Y2201173D01*
D02*
G37*
G36*
X682276Y2099606D02*
X633000D01*
Y2006039D01*
X682276D01*
Y2099606D01*
D02*
G37*
G36*
X625000D02*
X575724D01*
Y2006039D01*
X625000D01*
Y2099606D01*
D02*
G37*
G36*
X2095347Y1498429D02*
X2017340D01*
Y1453166D01*
X1881887D01*
X1879889Y1456156D01*
X1876266Y1458577D01*
X1871992Y1459427D01*
X1829473D01*
X1825199Y1458577D01*
X1821576Y1456156D01*
X1819155Y1452533D01*
X1818305Y1448260D01*
Y1430543D01*
X1819155Y1426270D01*
X1821576Y1422647D01*
X1825199Y1420226D01*
X1829473Y1419376D01*
X1871992D01*
X1876266Y1420226D01*
X1879889Y1422647D01*
X1881887Y1425637D01*
X2017340D01*
Y1420421D01*
X2081881D01*
X2113235Y1389067D01*
Y1340026D01*
X2105844Y1336965D01*
X2093572Y1349238D01*
X2095347Y1355865D01*
Y1366135D01*
X2092689Y1376055D01*
X2087554Y1384949D01*
X2080292Y1392211D01*
X2071398Y1397346D01*
X2061478Y1400004D01*
X2051208D01*
X2041288Y1397346D01*
X2032394Y1392211D01*
X2025132Y1384949D01*
X2021330Y1378363D01*
X1881887D01*
X1879889Y1381353D01*
X1876266Y1383774D01*
X1871992Y1384624D01*
X1829473D01*
X1825199Y1383774D01*
X1821576Y1381353D01*
X1819155Y1377730D01*
X1818305Y1373457D01*
Y1355740D01*
X1819155Y1351467D01*
X1821576Y1347844D01*
X1825199Y1345423D01*
X1829473Y1344573D01*
X1871992D01*
X1876266Y1345423D01*
X1879889Y1347844D01*
X1881887Y1350834D01*
X2018688D01*
X2019997Y1345945D01*
X2025132Y1337051D01*
X2032394Y1329789D01*
X2041288Y1324654D01*
X2051208Y1321996D01*
X2061478D01*
X2071398Y1324654D01*
X2076359Y1327518D01*
X2091235Y1312642D01*
Y1136914D01*
X2035021Y1080699D01*
X2030060Y1083563D01*
X2020140Y1086221D01*
X2009870D01*
X1999950Y1083563D01*
X1991056Y1078428D01*
X1983794Y1071166D01*
X1978659Y1062272D01*
X1976001Y1052352D01*
Y1042082D01*
X1974990Y1040764D01*
X1729575D01*
Y1071087D01*
X1660425D01*
Y1046645D01*
X1607583D01*
X1606952Y1047589D01*
X1600204Y1052098D01*
X1592244Y1053681D01*
X1543621D01*
X1535661Y1052098D01*
X1528913Y1047589D01*
X1524404Y1040840D01*
X1522820Y1032880D01*
X1524404Y1024920D01*
X1528913Y1018171D01*
X1535661Y1013662D01*
X1543621Y1012079D01*
X1592244D01*
X1600204Y1013662D01*
X1606952Y1018171D01*
X1607583Y1019115D01*
X1660425D01*
Y1009811D01*
X1660425D01*
Y1004644D01*
X1654722Y996644D01*
X1607583D01*
X1606952Y997589D01*
X1600204Y1002098D01*
X1592244Y1003681D01*
X1543621D01*
X1535661Y1002098D01*
X1528913Y997589D01*
X1524404Y990840D01*
X1522820Y982880D01*
X1524404Y974920D01*
X1528913Y968171D01*
X1535661Y963662D01*
X1543621Y962079D01*
X1592244D01*
X1600204Y963662D01*
X1606952Y968171D01*
X1607583Y969115D01*
X1660425D01*
Y940913D01*
X1729575D01*
Y967236D01*
X1976001D01*
Y909788D01*
X2054009D01*
Y962330D01*
X2136733Y1045054D01*
X2136733Y1045054D01*
X2139717Y1049520D01*
X2140765Y1054787D01*
Y1394769D01*
X2139717Y1400036D01*
X2136733Y1404502D01*
X2136733Y1404502D01*
X2095347Y1445887D01*
Y1498429D01*
D02*
G37*
G36*
X1788527Y1422026D02*
X1771267D01*
Y1406000D01*
X1799695D01*
Y1410858D01*
X1798845Y1415132D01*
X1796424Y1418755D01*
X1792801Y1421176D01*
X1788527Y1422026D01*
D02*
G37*
G36*
X1763267D02*
X1746008D01*
X1741734Y1421176D01*
X1738111Y1418755D01*
X1735691Y1415132D01*
X1734841Y1410858D01*
Y1406000D01*
X1763267D01*
Y1422026D01*
D02*
G37*
G36*
X1799695Y1398000D02*
X1771267D01*
Y1381974D01*
X1788527D01*
X1792801Y1382824D01*
X1796424Y1385245D01*
X1798845Y1388868D01*
X1799695Y1393142D01*
Y1398000D01*
D02*
G37*
G36*
X1763267D02*
X1734841D01*
Y1393142D01*
X1735691Y1388868D01*
X1738111Y1385245D01*
X1741734Y1382824D01*
X1746008Y1381974D01*
X1763267D01*
Y1398000D01*
D02*
G37*
G36*
X1592244Y1103681D02*
X1571932D01*
Y1086880D01*
X1612249D01*
X1611461Y1090840D01*
X1606952Y1097589D01*
X1600204Y1102098D01*
X1592244Y1103681D01*
D02*
G37*
G36*
X1563932D02*
X1543621D01*
X1535661Y1102098D01*
X1528913Y1097589D01*
X1524404Y1090840D01*
X1523616Y1086880D01*
X1563932D01*
Y1103681D01*
D02*
G37*
G36*
X1612249Y1078880D02*
X1571932D01*
Y1062079D01*
X1592244D01*
X1600204Y1063662D01*
X1606952Y1068171D01*
X1611461Y1074920D01*
X1612249Y1078880D01*
D02*
G37*
G36*
X1563932D02*
X1523616D01*
X1524404Y1074920D01*
X1528913Y1068171D01*
X1535661Y1063662D01*
X1543621Y1062079D01*
X1563932D01*
Y1078880D01*
D02*
G37*
G36*
X1381024Y1053681D02*
X1360713D01*
Y1036880D01*
X1401029D01*
X1400241Y1040840D01*
X1395732Y1047589D01*
X1388984Y1052098D01*
X1381024Y1053681D01*
D02*
G37*
G36*
X1401029Y1028880D02*
X1360713D01*
Y1012079D01*
X1381024D01*
X1388984Y1013662D01*
X1395732Y1018171D01*
X1400241Y1024920D01*
X1401029Y1028880D01*
D02*
G37*
G36*
X220961Y981276D02*
X127394D01*
Y932000D01*
X220961D01*
Y981276D01*
D02*
G37*
G36*
X119394D02*
X25827D01*
Y932000D01*
X119394D01*
Y981276D01*
D02*
G37*
G36*
X220961Y924000D02*
X127394D01*
Y874724D01*
X220961D01*
Y924000D01*
D02*
G37*
G36*
X119394D02*
X25827D01*
Y874724D01*
X119394D01*
Y924000D01*
D02*
G37*
G36*
X776000Y883843D02*
X748378D01*
Y856221D01*
X776000D01*
Y883843D01*
D02*
G37*
G36*
X811622Y675347D02*
X784000D01*
Y647725D01*
X811622D01*
Y675347D01*
D02*
G37*
G36*
X776000D02*
X748378D01*
Y647725D01*
X776000D01*
Y675347D01*
D02*
G37*
G36*
X373150Y569701D02*
X326827D01*
Y547000D01*
X373150D01*
Y569701D01*
D02*
G37*
G36*
X318827D02*
X272504D01*
Y547000D01*
X318827D01*
Y569701D01*
D02*
G37*
G36*
X373150Y539000D02*
X326827D01*
Y516299D01*
X373150D01*
Y539000D01*
D02*
G37*
G36*
X318827D02*
X272504D01*
Y516299D01*
X318827D01*
Y539000D01*
D02*
G37*
G36*
X867890Y522087D02*
X837315D01*
Y495449D01*
X867890D01*
Y522087D01*
D02*
G37*
G36*
X829315D02*
X798740D01*
Y495449D01*
X829315D01*
Y522087D01*
D02*
G37*
G36*
X1058540Y648811D02*
X1050658D01*
X1043377Y645795D01*
X1037804Y640222D01*
X1034788Y632941D01*
Y625059D01*
X1037804Y617778D01*
X1040834Y614748D01*
Y475300D01*
X957023Y391489D01*
X950937Y396717D01*
X950937Y403858D01*
Y459354D01*
X887693D01*
Y436316D01*
X867890D01*
Y452811D01*
X867890Y453189D01*
Y460811D01*
X867890Y461189D01*
Y487449D01*
X798740D01*
Y461189D01*
X798740Y460811D01*
Y453189D01*
X798740Y452811D01*
Y391913D01*
X867890D01*
Y408787D01*
X887693D01*
Y396110D01*
X942961D01*
X950330Y396110D01*
X955558Y390024D01*
X885298Y319764D01*
X805056D01*
Y337122D01*
X753622D01*
Y274878D01*
X805056D01*
Y292236D01*
X891000D01*
X896268Y293283D01*
X900733Y296267D01*
X1064332Y459866D01*
X1067316Y464332D01*
X1068363Y469599D01*
Y614748D01*
X1071394Y617778D01*
X1074410Y625059D01*
Y632941D01*
X1071394Y640222D01*
X1065821Y645795D01*
X1058540Y648811D01*
D02*
G37*
G36*
X1194200Y210496D02*
X1193000D01*
Y175000D01*
X1228496D01*
Y176200D01*
X1225804Y186245D01*
X1220605Y195251D01*
X1213251Y202605D01*
X1204245Y207804D01*
X1194200Y210496D01*
D02*
G37*
G36*
X1185000D02*
X1183800D01*
X1173755Y207804D01*
X1164749Y202605D01*
X1157395Y195251D01*
X1152196Y186245D01*
X1149504Y176200D01*
Y175000D01*
X1185000D01*
Y210496D01*
D02*
G37*
G36*
X1228496Y167000D02*
X1193000D01*
Y131504D01*
X1194200D01*
X1204245Y134196D01*
X1213251Y139395D01*
X1220605Y146749D01*
X1225804Y155755D01*
X1228496Y165800D01*
Y167000D01*
D02*
G37*
G36*
X1185000D02*
X1149504D01*
Y165800D01*
X1152196Y155755D01*
X1157395Y146749D01*
X1164749Y139395D01*
X1173755Y134196D01*
X1183800Y131504D01*
X1185000D01*
Y167000D01*
D02*
G37*
G36*
X1116039Y648811D02*
X1108158D01*
X1100877Y645795D01*
X1095304Y640222D01*
X1092288Y632941D01*
Y625059D01*
X1095304Y617778D01*
X1098334Y614748D01*
Y384800D01*
X979267Y265733D01*
X976283Y261267D01*
X975236Y256000D01*
Y210961D01*
X973252D01*
X963986Y209118D01*
X956131Y203869D01*
X950882Y196014D01*
X949039Y186748D01*
Y155252D01*
X950882Y145986D01*
X956131Y138131D01*
X963986Y132882D01*
X973252Y131039D01*
X1004748D01*
X1014014Y132882D01*
X1021869Y138131D01*
X1027118Y145986D01*
X1028961Y155252D01*
Y186748D01*
X1027118Y196014D01*
X1021869Y203869D01*
X1014014Y209118D01*
X1004748Y210961D01*
X1002764D01*
Y250298D01*
X1121832Y369366D01*
X1124815Y373831D01*
X1125863Y379099D01*
Y614748D01*
X1128893Y617778D01*
X1131910Y625059D01*
Y632941D01*
X1128893Y640222D01*
X1123321Y645795D01*
X1116039Y648811D01*
D02*
G37*
G36*
X1609000Y1807370D02*
X1606764D01*
X1594716Y1804142D01*
X1583914Y1797906D01*
X1575094Y1789086D01*
X1568858Y1778284D01*
X1565630Y1766236D01*
Y1764000D01*
X1609000D01*
Y1807370D01*
D02*
G37*
G36*
Y1756000D02*
X1565630D01*
Y1753764D01*
X1568858Y1741716D01*
X1575094Y1730914D01*
X1583914Y1722094D01*
X1594716Y1715858D01*
X1606764Y1712630D01*
X1609000D01*
Y1756000D01*
D02*
G37*
G36*
X1568803Y1340748D02*
X1541181D01*
Y1313126D01*
X1568803D01*
Y1340748D01*
D02*
G37*
G36*
X1533181D02*
X1505559D01*
Y1313126D01*
X1533181D01*
Y1340748D01*
D02*
G37*
G36*
Y1305126D02*
X1505559D01*
Y1277504D01*
X1533181D01*
Y1305126D01*
D02*
G37*
G36*
X1505000Y1983000D02*
X1489214D01*
X1492205Y1975778D01*
X1497778Y1970205D01*
X1505000Y1967214D01*
Y1983000D01*
D02*
G37*
G36*
X1295823Y1933276D02*
X1220453D01*
Y1857906D01*
X1295823D01*
Y1933276D01*
D02*
G37*
G36*
X967823D02*
X957901D01*
X948316Y1930707D01*
X939723Y1925746D01*
X932707Y1918730D01*
X927745Y1910137D01*
X925177Y1900552D01*
Y1890629D01*
X927745Y1881045D01*
X932707Y1872451D01*
X939723Y1865435D01*
X948316Y1860474D01*
X957901Y1857906D01*
X967823D01*
X977408Y1860474D01*
X986001Y1865435D01*
X993018Y1872451D01*
X997979Y1881045D01*
X1000547Y1890629D01*
Y1900552D01*
X997979Y1910137D01*
X993018Y1918730D01*
X986001Y1925746D01*
X977408Y1930707D01*
X967823Y1933276D01*
D02*
G37*
G36*
X1376677Y1774027D02*
X1352992D01*
Y1740500D01*
X1376677D01*
Y1774027D01*
D02*
G37*
G36*
X899693D02*
X876008D01*
Y1740500D01*
X899693D01*
Y1774027D01*
D02*
G37*
G36*
X868008D02*
X844323D01*
Y1740500D01*
X868008D01*
Y1774027D01*
D02*
G37*
G36*
X1344992D02*
X1321307D01*
Y1740500D01*
X1344992D01*
Y1774027D01*
D02*
G37*
G36*
X1376677Y1732500D02*
X1352992D01*
Y1698973D01*
X1376677D01*
Y1732500D01*
D02*
G37*
G36*
X1344992D02*
X1321307D01*
Y1698973D01*
X1344992D01*
Y1732500D01*
D02*
G37*
G36*
X947622Y1673614D02*
X920000D01*
Y1645992D01*
X947622D01*
Y1673614D01*
D02*
G37*
G36*
X912000D02*
X884378D01*
Y1645992D01*
X912000D01*
Y1673614D01*
D02*
G37*
G36*
X861622Y1672614D02*
X834000D01*
Y1644992D01*
X861622D01*
Y1672614D01*
D02*
G37*
G36*
X826000D02*
X798378D01*
Y1644992D01*
X826000D01*
Y1672614D01*
D02*
G37*
G36*
Y1572000D02*
X798378D01*
Y1544378D01*
X826000D01*
Y1572000D01*
D02*
G37*
G36*
X811622Y1132961D02*
X784000D01*
Y1105339D01*
X811622D01*
Y1132961D01*
D02*
G37*
G36*
X776000D02*
X748378D01*
Y1105339D01*
X776000D01*
Y1132961D01*
D02*
G37*
G36*
X712622Y1132961D02*
X685000D01*
Y1105339D01*
X712622D01*
Y1132961D01*
D02*
G37*
G36*
X677000D02*
X649378D01*
Y1105339D01*
X677000D01*
Y1132961D01*
D02*
G37*
G36*
X613622Y919465D02*
X550378D01*
Y856221D01*
X555960D01*
X561305Y848221D01*
X561189Y847941D01*
Y840059D01*
X564205Y832778D01*
X569778Y827205D01*
X577059Y824189D01*
X584941D01*
X592222Y827205D01*
X597795Y832778D01*
X600811Y840059D01*
Y847941D01*
X600695Y848221D01*
X606040Y856221D01*
X613622D01*
Y919465D01*
D02*
G37*
G36*
X638284Y696622D02*
X610662D01*
Y669000D01*
X638284D01*
Y696622D01*
D02*
G37*
G36*
X602662D02*
X575040D01*
Y669000D01*
X602662D01*
Y696622D01*
D02*
G37*
G36*
X638284Y661000D02*
X610662D01*
Y633378D01*
X638284D01*
Y661000D01*
D02*
G37*
G36*
X602662D02*
X575040D01*
Y633378D01*
X602662D01*
Y661000D01*
D02*
G37*
G36*
X601496Y614976D02*
X500850D01*
Y566760D01*
X494940Y562811D01*
X487059D01*
X479778Y559795D01*
X474205Y554222D01*
X471189Y546941D01*
Y539059D01*
X474205Y531778D01*
X479778Y526205D01*
X487059Y523189D01*
X494940D01*
X500850Y519240D01*
Y471024D01*
X601496D01*
Y614976D01*
D02*
G37*
G36*
X660941Y552811D02*
X653059D01*
X645778Y549795D01*
X640205Y544222D01*
X637189Y536941D01*
Y529059D01*
X634555Y525118D01*
X624378D01*
Y468126D01*
X624378Y461874D01*
X624378Y453874D01*
Y432504D01*
X687622D01*
Y453874D01*
X687622Y460126D01*
X687622Y468126D01*
Y525118D01*
X679445D01*
X676811Y529059D01*
Y536941D01*
X673795Y544222D01*
X668222Y549795D01*
X660941Y552811D01*
D02*
G37*
G36*
X687622Y424504D02*
X660000D01*
Y396882D01*
X687622D01*
Y424504D01*
D02*
G37*
G36*
X652000D02*
X624378D01*
Y396882D01*
X652000D01*
Y424504D01*
D02*
G37*
G36*
X586200Y210496D02*
X575800D01*
X565755Y207804D01*
X556749Y202605D01*
X549395Y195251D01*
X544196Y186245D01*
X541504Y176200D01*
Y165800D01*
X544196Y155755D01*
X549395Y146749D01*
X556749Y139395D01*
X565755Y134196D01*
X575800Y131504D01*
X586200D01*
X596245Y134196D01*
X605251Y139395D01*
X612605Y146749D01*
X617804Y155755D01*
X620496Y165800D01*
Y176200D01*
X617804Y186245D01*
X612605Y195251D01*
X605251Y202605D01*
X596245Y207804D01*
X586200Y210496D01*
D02*
G37*
%LPD*%
D10*
X780000Y1146000D02*
G03*
X779000Y1145000I0J-1000D01*
G01*
X781000Y885842D02*
G03*
X779000Y887843I-2000J0D01*
G01*
X914134Y422551D02*
G03*
X919315Y427732I0J5181D01*
G01*
X1509000Y1987000D02*
X1509500Y1986500D01*
Y1941500D02*
Y1986500D01*
Y1941500D02*
X1510000Y1941000D01*
X1506419Y1315004D02*
X1519059D01*
X1537181Y1333126D01*
X1500416Y1309000D02*
X1506419Y1315004D01*
X1497000Y1309000D02*
X1500416D01*
X1387650Y1785000D02*
X1391000D01*
X1348992Y1746342D02*
X1387650Y1785000D01*
X1348992Y1736500D02*
Y1746342D01*
X1339000Y1518496D02*
Y1561000D01*
X1430315Y1496843D02*
X1431000Y1496158D01*
X1338000Y1517496D02*
X1339000Y1518496D01*
X1431000Y1461000D02*
Y1496158D01*
X1149685Y1427854D02*
X1149870Y1428039D01*
X1149685Y1407966D02*
Y1427854D01*
X1135811Y1394092D02*
X1149685Y1407966D01*
X1135811Y1392283D02*
Y1394092D01*
X1616682Y1106000D02*
X1619000D01*
X1566932Y1082880D02*
X1593562D01*
X1616682Y1106000D01*
X1355713Y1032880D02*
X1356152Y1032440D01*
X1463560D02*
X1464000Y1032000D01*
X1356152Y1032440D02*
X1463560D01*
X963103Y1608519D02*
X966519D01*
X949707Y1595122D02*
X963103Y1608519D01*
X934122Y1595122D02*
X949707D01*
X916000Y1577000D02*
X934122Y1595122D01*
X869508Y1734000D02*
X872008Y1736500D01*
X828000Y1734000D02*
X869508D01*
X835524Y1535524D02*
Y1570476D01*
X1110500Y1524496D02*
X1206957D01*
X1090815Y1544181D02*
X1110500Y1524496D01*
X1014043Y1544181D02*
X1090815D01*
X830000Y1576000D02*
X835524Y1570476D01*
X779000Y1101339D02*
Y1145000D01*
X680000Y1101339D02*
Y1145000D01*
X680000Y1101339D02*
X680000Y1101339D01*
X856274Y951339D02*
X896000D01*
X846935Y942000D02*
X856274Y951339D01*
X844000Y942000D02*
X846935D01*
X781000Y844000D02*
Y885842D01*
X680000Y845000D02*
Y887843D01*
X781000Y681043D02*
X781000Y681043D01*
Y634000D02*
Y681043D01*
X623000Y744449D02*
Y788000D01*
X581000Y844000D02*
Y887843D01*
X622551Y744000D02*
X623000Y744449D01*
X491000Y543000D02*
X551173D01*
X657000Y494496D02*
Y533000D01*
X656000Y493496D02*
X657000Y494496D01*
X932094Y1190094D02*
X980663D01*
X932000Y1190000D02*
X932094Y1190094D01*
X980663D02*
X1011949Y1158809D01*
X1010791Y1073398D02*
X1040602D01*
X992287Y1091901D02*
X1010791Y1073398D01*
X1090701Y1125355D02*
Y1427153D01*
X1071016Y1125355D02*
Y1427151D01*
X1071131Y1428039D01*
X1051319Y1125367D02*
X1051331Y1125355D01*
X850000Y1223000D02*
X987127D01*
X1051319Y1158809D01*
Y1125367D02*
Y1158809D01*
X1130071Y1125355D02*
Y1301276D01*
X1110500Y1151726D02*
Y1428039D01*
X1130071Y1301276D02*
X1241171Y1412376D01*
Y1428755D02*
X1242000Y1429584D01*
X1241171Y1412376D02*
Y1428755D01*
X992287Y1091901D02*
Y1125343D01*
X992276Y1125355D02*
X992287Y1125343D01*
X972591Y969591D02*
X1034000Y1031000D01*
X827000Y1246000D02*
X850000Y1223000D01*
X1011949Y1125367D02*
Y1158809D01*
Y1125367D02*
X1011961Y1125355D01*
X1206957Y1465441D02*
X1259075D01*
X1200797D02*
X1206957D01*
X1259075D02*
X1266827Y1457689D01*
X1336668Y1453836D02*
X1338000Y1452504D01*
X1271099Y1453836D02*
X1336668D01*
X1266827Y1457689D02*
X1267246D01*
X1271099Y1453836D01*
X1200612Y1465256D02*
X1200797Y1465441D01*
X1200612Y1428486D02*
Y1465256D01*
X1198197Y1426071D02*
X1200612Y1428486D01*
X972591Y773189D02*
Y969591D01*
X1051260Y1396970D02*
Y1427854D01*
X1045706Y1388000D02*
Y1391416D01*
X1051260Y1427854D02*
X1051445Y1428039D01*
X1045706Y1391416D02*
X1051260Y1396970D01*
X1090701Y1427153D02*
X1090815Y1428039D01*
X1254500Y1315811D02*
X1279311Y1291000D01*
X897000Y872599D02*
X919819D01*
X896000D02*
X897000D01*
X825000Y1359000D02*
Y1488000D01*
X1225346Y1069449D02*
X1248153D01*
X1248165Y1069461D01*
X1054000Y854000D02*
Y934520D01*
X1266445Y1484941D02*
X1269824Y1481562D01*
X1207142Y1484941D02*
X1266445D01*
X1269824Y1481562D02*
X1279168D01*
X1281583Y1479147D01*
X1275403Y1544181D02*
X1280584Y1539000D01*
X1284000D01*
X1279311Y1291000D02*
X1436000D01*
X1206957Y1544181D02*
X1275403D01*
X833315Y422551D02*
X914134D01*
X691339Y744000D02*
X691449D01*
X691339Y665000D02*
Y744000D01*
X919315Y512410D02*
X1011961Y605056D01*
Y797008D01*
X2042320Y1439402D02*
X2062343Y1459425D01*
X1850732Y1439402D02*
X2042320D01*
X1850732Y1364598D02*
X2058745D01*
X2105000Y1318343D01*
X2021005Y1047217D02*
X2105000Y1131213D01*
Y1318343D01*
X2062343Y1459425D02*
X2127000Y1394769D01*
Y1054787D02*
Y1394769D01*
X2021005Y948792D02*
X2127000Y1054787D01*
X1708449Y1027000D02*
X1989057D01*
X1687431Y1032880D02*
X1695000Y1040449D01*
X1708449Y1027000D01*
X1989057D02*
X2009274Y1047217D01*
X2021005D01*
X1567932Y1032880D02*
X1687431D01*
X1988797Y981000D02*
X2021005Y948792D01*
X1695000Y971551D02*
X1704449Y981000D01*
X1988797D01*
X1567932Y982880D02*
X1683671D01*
X1695000Y971551D01*
X1663000Y477000D02*
Y579000D01*
X1563000Y477000D02*
Y579000D01*
X1463000Y477000D02*
Y579000D01*
X1363000Y477000D02*
Y579000D01*
X1112099Y379099D02*
Y629000D01*
X989000Y256000D02*
X1112099Y379099D01*
X989000Y171000D02*
Y256000D01*
X891000Y306000D02*
X1054599Y469599D01*
Y629000D01*
X779339Y306000D02*
X891000D01*
X1299000Y1082000D02*
Y1100000D01*
X1266776Y1049776D02*
X1299000Y1082000D01*
X1224358Y1049776D02*
X1266776D01*
X1279612Y1030091D02*
X1332401Y1082880D01*
X1224358Y1030091D02*
X1279612D01*
X1299000Y1100000D02*
X1338000Y1139000D01*
X1332401Y1082880D02*
X1355713D01*
X1338000Y1139000D02*
X1579000D01*
X952905Y773189D02*
Y797008D01*
X952894Y773178D02*
X952905Y773189D01*
X947434Y773178D02*
X952894D01*
X891662Y717405D02*
X947434Y773178D01*
X891662Y712000D02*
Y717405D01*
X972339Y772938D02*
X972591Y773189D01*
X972339Y712000D02*
Y772938D01*
X1225346Y1164346D02*
X1307637Y1246637D01*
X1225346Y1069449D02*
Y1164346D01*
X1307637Y1246637D02*
X1565637D01*
X1224346Y1069449D02*
X1225346D01*
X1274000Y1394000D02*
Y1415000D01*
X1169441Y1125355D02*
Y1289441D01*
X1274000Y1394000D01*
X1159000Y1366000D02*
Y1369416D01*
X1169555Y1379971D01*
Y1428039D01*
X1051331Y797008D02*
X1051342Y796996D01*
Y756370D02*
Y796996D01*
Y756370D02*
X1144712Y663000D01*
X1279000D01*
X1071027Y763554D02*
X1145915Y688667D01*
X1353333D01*
X1071027Y763554D02*
Y796996D01*
X1071016Y797008D02*
X1071027Y796996D01*
X1110398Y756370D02*
X1152434Y714333D01*
X1427667D01*
X1110398Y756370D02*
Y796996D01*
X1110386Y797008D02*
X1110398Y796996D01*
X1153637Y740000D02*
X1502000D01*
X1130083Y763554D02*
X1153637Y740000D01*
X1130071Y797008D02*
X1130083Y796996D01*
Y763554D02*
Y796996D01*
X1110398Y1151623D02*
X1110500Y1151726D01*
X1110398Y1125469D02*
Y1151623D01*
X781000Y744339D02*
X829834Y793173D01*
X1089000Y171000D02*
X1171000Y253000D01*
Y629000D01*
X1436000Y1291000D02*
X1477000Y1332000D01*
Y1529866D01*
X1412264Y1589736D02*
X1412693D01*
X1399689Y1602311D02*
X1412264Y1589736D01*
X1424910Y1577520D02*
X1430315D01*
X1245198Y1563866D02*
X1283643Y1602311D01*
X1412693Y1589736D02*
X1424910Y1577520D01*
X1283643Y1602311D02*
X1399689D01*
X976866Y1563866D02*
X1014043D01*
X1208925Y1583736D02*
Y1612193D01*
X1208740Y1583551D02*
X1208925Y1583736D01*
X1206957Y1583551D02*
X1208740D01*
X984598Y1475569D02*
X993970Y1484941D01*
X1013858D01*
X986785Y1504626D02*
X1013858D01*
X1014043Y1504811D01*
X979236Y1524496D02*
X1014043D01*
X1013858Y1484941D02*
X1014043Y1485126D01*
X984598Y1426590D02*
Y1475569D01*
X1206957Y1485126D02*
X1207142Y1484941D01*
X1505693Y1563964D02*
X1517910Y1576181D01*
X1523315D01*
X1206957Y1563866D02*
X1245198D01*
X1223008Y1726658D02*
Y1736500D01*
X1184342Y1646000D02*
X1185000D01*
X1169555Y1631213D02*
X1184342Y1646000D01*
X1169555Y1620953D02*
Y1631213D01*
X825000Y1488000D02*
X874000Y1537000D01*
X927811Y1431094D02*
X936091Y1439374D01*
X916000Y1431094D02*
X927811D01*
X1149870Y1620953D02*
X1150055Y1621138D01*
X1129208Y1674208D02*
X1130185Y1673230D01*
Y1620953D02*
Y1673230D01*
X1150055Y1621138D02*
Y1653705D01*
X1223008Y1726658D01*
X874000Y1537000D02*
X950000D01*
X976866Y1563866D01*
X936091Y1439374D02*
Y1453932D01*
X986785Y1504626D01*
X960638Y1505898D02*
X979236Y1524496D01*
X916000Y1505898D02*
X960638D01*
X917000Y1358992D02*
X984598Y1426590D01*
X1012177Y1710634D02*
Y1722315D01*
X997992Y1736500D02*
X1012177Y1722315D01*
Y1710634D02*
X1071130Y1651681D01*
X1051445Y1620953D02*
Y1631945D01*
X1071130Y1620953D02*
Y1651681D01*
X1090815Y1620953D02*
Y1673185D01*
X1477000Y1529866D02*
X1505693Y1558559D01*
Y1563964D01*
X1684000Y1244000D02*
Y1631000D01*
X1813000Y1760000D01*
X1602000Y1283000D02*
Y1649000D01*
X1713000Y1760000D01*
X1188917Y1069437D02*
X1224335D01*
X1054000Y934520D02*
X1188917Y1069437D01*
X1111000Y854000D02*
Y933000D01*
X1168697Y990697D01*
X1224335D01*
X698661Y200661D02*
Y306000D01*
X1427667Y714333D02*
X1563000Y579000D01*
X1279000Y663000D02*
X1363000Y579000D01*
X1353333Y688667D02*
X1463000Y579000D01*
X1502000Y740000D02*
X1663000Y579000D01*
X919819Y872599D02*
X920418Y872000D01*
X946000D01*
X829834Y793173D02*
Y859560D01*
X862546Y892272D01*
X895988D01*
X896000Y892284D01*
X1224335Y990697D02*
X1224346Y990709D01*
X1224335Y931642D02*
X1224346Y931654D01*
X1190892Y931642D02*
X1224335D01*
X1168000Y908750D02*
X1190892Y931642D01*
X1168000Y854000D02*
Y908750D01*
X1579000Y1139000D02*
X1684000Y1244000D01*
X1565637Y1246637D02*
X1602000Y1283000D01*
X1224346Y1049764D02*
X1224358Y1049776D01*
X1224335Y1069437D02*
X1224346Y1069449D01*
X1302000Y967000D02*
X1324500Y944500D01*
Y943517D02*
X1335137Y932880D01*
X1324500Y943517D02*
Y944500D01*
X1335137Y932880D02*
X1355713D01*
X1302000Y967000D02*
Y995000D01*
X1286618Y1010382D02*
X1302000Y995000D01*
X1224358Y1010382D02*
X1286618D01*
X1224346Y1010394D02*
X1224358Y1010382D01*
X681000Y183000D02*
X698661Y200661D01*
D11*
X322827Y633551D02*
D03*
Y452449D02*
D03*
Y543000D02*
D03*
D12*
X551173D02*
D03*
D13*
X1509000Y1987000D02*
D03*
X1589000D02*
D03*
X1549000D02*
D03*
D14*
X1767268Y1402000D02*
D03*
X1850732Y1364598D02*
D03*
Y1439402D02*
D03*
D15*
X1348992Y1736500D02*
D03*
X872008D02*
D03*
X997992D02*
D03*
X1223008D02*
D03*
D16*
X1430315Y1496843D02*
D03*
X1523315Y1576181D02*
D03*
Y1495503D02*
D03*
X1430315Y1577520D02*
D03*
D17*
X1338000Y1517496D02*
D03*
X916000Y1577000D02*
D03*
X830000Y1576000D02*
D03*
X780000Y1101339D02*
D03*
X681000Y1101339D02*
D03*
X780000Y887843D02*
D03*
X681000Y887843D02*
D03*
X780000Y679347D02*
D03*
X656000Y493496D02*
D03*
X582000Y887843D02*
D03*
X1338000Y1452504D02*
D03*
X780000Y1036347D02*
D03*
X681000Y1036347D02*
D03*
X780000Y952835D02*
D03*
X681000Y952835D02*
D03*
X656000Y428504D02*
D03*
X582000Y952835D02*
D03*
X780000Y744339D02*
D03*
X916000Y1292504D02*
D03*
Y1357496D02*
D03*
X830000Y1640992D02*
D03*
X916000Y1641992D02*
D03*
X919315Y512410D02*
D03*
Y427732D02*
D03*
D18*
X1206957Y1524496D02*
D03*
X1014043Y1544181D02*
D03*
X1206957Y1465441D02*
D03*
Y1583551D02*
D03*
Y1563866D02*
D03*
Y1544181D02*
D03*
Y1504811D02*
D03*
Y1485126D02*
D03*
X1014043Y1465441D02*
D03*
Y1485126D02*
D03*
Y1504811D02*
D03*
Y1524496D02*
D03*
Y1563866D02*
D03*
Y1583551D02*
D03*
D19*
X1149870Y1428039D02*
D03*
X1169555D02*
D03*
X1051445Y1620953D02*
D03*
X1090815D02*
D03*
X1110500D02*
D03*
X1130185D02*
D03*
X1149870D02*
D03*
X1169555D02*
D03*
X1130185Y1428039D02*
D03*
X1110500D02*
D03*
X1090815D02*
D03*
X1071130D02*
D03*
X1051445D02*
D03*
X1071130Y1620953D02*
D03*
D20*
X1567932Y1082880D02*
D03*
X1356713Y1032880D02*
D03*
X1567932Y932880D02*
D03*
X1356713Y982880D02*
D03*
Y1082880D02*
D03*
Y932880D02*
D03*
X1567932Y982880D02*
D03*
Y1032880D02*
D03*
D21*
X1537181Y1309126D02*
D03*
X606662Y665000D02*
D03*
X691339D02*
D03*
X1537181Y1387866D02*
D03*
D22*
X1110500Y1524496D02*
D03*
D23*
X629000Y2103606D02*
D03*
Y1804394D02*
D03*
D24*
X897000Y951339D02*
D03*
Y990709D02*
D03*
Y971024D02*
D03*
Y1069449D02*
D03*
Y1049764D02*
D03*
Y1030079D02*
D03*
Y1010394D02*
D03*
Y931654D02*
D03*
Y911969D02*
D03*
Y892284D02*
D03*
Y872599D02*
D03*
Y852914D02*
D03*
X1225346D02*
D03*
Y872599D02*
D03*
Y892284D02*
D03*
Y911969D02*
D03*
Y931654D02*
D03*
Y951339D02*
D03*
Y971024D02*
D03*
Y990709D02*
D03*
Y1010394D02*
D03*
Y1030079D02*
D03*
Y1049764D02*
D03*
Y1069449D02*
D03*
D25*
X833315Y491449D02*
D03*
X448000Y178551D02*
D03*
Y247449D02*
D03*
X1695000Y1040449D02*
D03*
Y971551D02*
D03*
X833315Y422551D02*
D03*
D26*
X123394Y928000D02*
D03*
X422606D02*
D03*
D27*
X622551Y744000D02*
D03*
X691449D02*
D03*
X156449Y1164000D02*
D03*
X325000Y1758000D02*
D03*
X87551Y1164000D02*
D03*
X256102Y1758000D02*
D03*
D28*
X1011961Y1125355D02*
D03*
X972591Y797008D02*
D03*
X952905D02*
D03*
X992276D02*
D03*
X1011961D02*
D03*
X1031646D02*
D03*
X1051331D02*
D03*
X1071016D02*
D03*
X1090701D02*
D03*
X1110386D02*
D03*
X1130071D02*
D03*
X1149756D02*
D03*
X1169441D02*
D03*
Y1125355D02*
D03*
X1149756D02*
D03*
X1130071D02*
D03*
X1110386D02*
D03*
X1090701D02*
D03*
X1071016D02*
D03*
X1051331D02*
D03*
X1031646D02*
D03*
X992276D02*
D03*
X972591D02*
D03*
X952905D02*
D03*
D29*
X972339Y712000D02*
D03*
D30*
X891662D02*
D03*
X779339Y306000D02*
D03*
X698661D02*
D03*
D31*
X916000Y1431094D02*
D03*
Y1505898D02*
D03*
D32*
X1409228Y1348496D02*
D03*
D33*
X631394Y2106000D02*
X697000D01*
X629000Y2103606D02*
X631394Y2106000D01*
X365551Y452449D02*
X448000Y370000D01*
Y247449D02*
Y370000D01*
X322827Y452449D02*
X365551D01*
X289000Y1164000D02*
X422606Y1030394D01*
Y732307D02*
Y1030394D01*
X156449Y1164000D02*
X289000D01*
X322827Y633551D02*
X323851D01*
X422606Y732307D01*
X207496Y1318000D02*
X415000D01*
X87551Y1198055D02*
X207496Y1318000D01*
X87551Y1164000D02*
Y1198055D01*
D34*
X754496Y1292504D02*
X916000D01*
X629000Y1418000D02*
X754496Y1292504D01*
X629000Y1418000D02*
Y1804394D01*
D35*
X1589000Y1986020D02*
X1593000Y1982020D01*
X1589000Y1986020D02*
Y1987000D01*
X1593000Y1846000D02*
Y1982020D01*
X1376030Y1629030D02*
X1593000Y1846000D01*
X1901948Y1771052D02*
X1913000Y1760000D01*
X1901948Y1771052D02*
Y1807052D01*
X1593000Y1846000D02*
X1863000D01*
X1901948Y1807052D01*
X1290387Y1629030D02*
X1376030D01*
X1577587Y932880D02*
X1579806Y930661D01*
X1567932Y932880D02*
X1577587D01*
X1481120D02*
X1567932D01*
X1432000Y982000D02*
X1481120Y932880D01*
X1563000Y177000D02*
X1663000D01*
X1363000D02*
X1463000D01*
X1563000D01*
X1356152Y982440D02*
X1431560D01*
X1355713Y982880D02*
X1356152Y982440D01*
X1276000Y90000D02*
X1363000Y177000D01*
X781000Y171000D02*
X862000Y90000D01*
X1276000D01*
X770000Y1723000D02*
Y1864000D01*
X944000Y2038000D01*
X1523315Y1425732D02*
Y1495503D01*
Y1425732D02*
X1537181Y1411866D01*
X1548307Y1987693D02*
X1549000Y1987000D01*
X1548307Y1987693D02*
Y2004645D01*
X1514952Y2038000D02*
X1548307Y2004645D01*
X944000Y2038000D02*
X1514952D01*
D36*
X688000Y78000D02*
X781000Y171000D01*
X459575Y166976D02*
X548551Y78000D01*
X459575Y166976D02*
Y170913D01*
X548551Y78000D02*
X688000D01*
X448000Y178551D02*
X451937D01*
X459575Y170913D01*
X1159713Y1778713D02*
Y1895591D01*
X1129208Y1748208D02*
X1159713Y1778713D01*
X1129208Y1674208D02*
Y1748208D01*
X1061287Y1783713D02*
X1090815Y1754185D01*
Y1673185D02*
Y1754185D01*
X1061287Y1783713D02*
Y1895591D01*
D37*
X1235830Y1510252D02*
X1240057D01*
X1208272Y1506126D02*
X1231704D01*
X1235830Y1510252D01*
X1308766Y1584811D02*
X1348863D01*
X1293207Y1569252D02*
X1308766Y1584811D01*
X1206957Y1504811D02*
X1208272Y1506126D01*
X1348863Y1584811D02*
X1383701Y1549973D01*
Y1398024D02*
Y1549973D01*
Y1398024D02*
X1409228Y1372496D01*
D38*
X1013374Y1583551D02*
X1014043D01*
X1012075Y1612193D02*
X1013059Y1611209D01*
Y1583866D02*
Y1611209D01*
Y1583866D02*
X1013374Y1583551D01*
D39*
X1509000Y1987000D02*
D03*
X1589000D02*
D03*
D40*
X1549000D02*
D03*
D41*
X1613000Y1760000D02*
D03*
X1913000D02*
D03*
X1713000D02*
D03*
X1813000D02*
D03*
D42*
X1189000Y171000D02*
D03*
X581000D02*
D03*
X681000D02*
D03*
X1089000D02*
D03*
D43*
X227475Y1426268D02*
D03*
X415000Y1318000D02*
D03*
Y1534535D02*
D03*
D44*
X1463000Y177000D02*
D03*
X1563000D02*
D03*
X1663000D02*
D03*
X1363000D02*
D03*
X962862Y1895591D02*
D03*
X1061287D02*
D03*
X1159713D02*
D03*
X1363000Y477000D02*
D03*
X1463000D02*
D03*
X1563000D02*
D03*
D45*
X781000Y171000D02*
D03*
X989000D02*
D03*
D46*
X1258138Y1895591D02*
D03*
X1663000Y477000D02*
D03*
D47*
X2056343Y1459425D02*
D03*
X2015005Y948792D02*
D03*
D48*
X2056343Y1361000D02*
D03*
X2015005Y1047217D02*
D03*
D49*
X1800000Y2040000D02*
D03*
X1740000Y2160000D02*
D03*
Y1920000D02*
D03*
X1620000Y2160000D02*
D03*
X1680000Y2040000D02*
D03*
X1860000Y1920000D02*
D03*
X1560000Y2040000D02*
D03*
X1500000Y2160000D02*
D03*
X1510000Y1941000D02*
D03*
X2100000Y1680000D02*
D03*
X1980000D02*
D03*
X1920000Y1560000D02*
D03*
X1860000Y1680000D02*
D03*
X1800000Y1560000D02*
D03*
X2040000D02*
D03*
X1920000Y1320000D02*
D03*
X1800000D02*
D03*
X1740000Y1440000D02*
D03*
X1500000Y1680000D02*
D03*
X1497000Y1309000D02*
D03*
X1440000Y1800000D02*
D03*
X1391000Y1785000D02*
D03*
X1380000Y2160000D02*
D03*
Y1920000D02*
D03*
Y1680000D02*
D03*
X1260000Y2160000D02*
D03*
X1320000Y1800000D02*
D03*
X1140000Y2160000D02*
D03*
X1200000Y1800000D02*
D03*
X1339000Y1561000D02*
D03*
X1131000Y1544000D02*
D03*
X1431000Y1461000D02*
D03*
X1131000Y1508000D02*
D03*
X1135811Y1392283D02*
D03*
X1980000Y1200000D02*
D03*
X1920000Y1080000D02*
D03*
X2100000Y960000D02*
D03*
X1860000Y1200000D02*
D03*
X1800000Y1080000D02*
D03*
X2040000Y840000D02*
D03*
X1800000D02*
D03*
X1920000D02*
D03*
X1740000Y1200000D02*
D03*
X1619000Y1106000D02*
D03*
X1680000Y840000D02*
D03*
X2100000Y720000D02*
D03*
X1980000D02*
D03*
X1920000Y600000D02*
D03*
X1860000Y720000D02*
D03*
X1800000Y600000D02*
D03*
X2040000D02*
D03*
X1980000Y480000D02*
D03*
X1860000D02*
D03*
X1800000Y360000D02*
D03*
X1740000Y720000D02*
D03*
Y480000D02*
D03*
X1620000Y720000D02*
D03*
X1680000Y600000D02*
D03*
X1740000Y240000D02*
D03*
X1680000Y120000D02*
D03*
Y360000D02*
D03*
X1620000Y240000D02*
D03*
X1500000Y1200000D02*
D03*
X1380000D02*
D03*
X1466000Y1032000D02*
D03*
X1320000Y840000D02*
D03*
X1560000D02*
D03*
Y360000D02*
D03*
X1440000Y840000D02*
D03*
Y360000D02*
D03*
X1500000Y240000D02*
D03*
X1560000Y120000D02*
D03*
X1380000Y240000D02*
D03*
X1440000Y120000D02*
D03*
X1260000Y480000D02*
D03*
X1200000Y360000D02*
D03*
Y600000D02*
D03*
X1140000Y480000D02*
D03*
X1320000Y360000D02*
D03*
X1260000Y240000D02*
D03*
X1020000Y2160000D02*
D03*
X966519Y1608519D02*
D03*
X900000Y2160000D02*
D03*
Y1920000D02*
D03*
X840000Y2040000D02*
D03*
Y1800000D02*
D03*
X1090815Y1544181D02*
D03*
X1091000Y1509000D02*
D03*
X835524Y1535524D02*
D03*
X1042000Y1293000D02*
D03*
X1020000Y1440000D02*
D03*
X780000Y2160000D02*
D03*
X720000Y2040000D02*
D03*
X780000Y1920000D02*
D03*
X697000Y2106000D02*
D03*
X828000Y1734000D02*
D03*
X720000Y1560000D02*
D03*
X780000Y1440000D02*
D03*
X540000Y2160000D02*
D03*
X420000D02*
D03*
X480000Y2040000D02*
D03*
X540000Y1440000D02*
D03*
X780000Y1200000D02*
D03*
Y1146000D02*
D03*
X680000Y1145000D02*
D03*
X600000Y1320000D02*
D03*
X420000Y1200000D02*
D03*
X120000Y1320000D02*
D03*
X540000Y1200000D02*
D03*
X660000D02*
D03*
X997902Y959000D02*
D03*
X995000Y1031000D02*
D03*
X844000Y942000D02*
D03*
X960000Y600000D02*
D03*
X840000D02*
D03*
X1020000Y480000D02*
D03*
X900000Y240000D02*
D03*
X1020000D02*
D03*
X840000Y360000D02*
D03*
X781000Y844000D02*
D03*
X680000Y845000D02*
D03*
X781000Y634000D02*
D03*
X780000Y240000D02*
D03*
Y480000D02*
D03*
X623000Y788000D02*
D03*
X581000Y844000D02*
D03*
X300000Y960000D02*
D03*
X120000Y1080000D02*
D03*
X240000D02*
D03*
Y840000D02*
D03*
X360000D02*
D03*
X120000D02*
D03*
X657000Y533000D02*
D03*
X300000Y720000D02*
D03*
X240000Y600000D02*
D03*
X180000Y720000D02*
D03*
X120000Y600000D02*
D03*
X491000Y543000D02*
D03*
X360000Y360000D02*
D03*
X180000Y480000D02*
D03*
X932000Y1190000D02*
D03*
X1034000Y1031000D02*
D03*
X1040602Y1073398D02*
D03*
X827000Y1246000D02*
D03*
X1290387Y1629030D02*
D03*
X1432000Y982000D02*
D03*
X1198197Y1426071D02*
D03*
X950000Y998000D02*
D03*
X1045706Y1388000D02*
D03*
X1254500Y1315811D02*
D03*
X825000Y1359000D02*
D03*
X1054000Y854000D02*
D03*
X1242000Y1429584D02*
D03*
X1240057Y1510252D02*
D03*
X1293207Y1569252D02*
D03*
X1284000Y1539000D02*
D03*
X1281583Y1479147D02*
D03*
X770000Y1723000D02*
D03*
X1159000Y1366000D02*
D03*
X1054599Y629000D02*
D03*
X1171000D02*
D03*
X1112099D02*
D03*
X1185000Y1646000D02*
D03*
X1208925Y1612193D02*
D03*
X1274000Y1415000D02*
D03*
X1036601Y1646790D02*
D03*
X1012075Y1612193D02*
D03*
X946000Y872000D02*
D03*
X1111000Y854000D02*
D03*
X1168000D02*
D03*
%TF.MD5,de0ef956e3b48b728e0568b8e5c47e36*%
M02*
