G04*
G04 #@! TF.GenerationSoftware,Altium Limited,Altium Designer,26.4.1 (12)*
G04*
G04 Layer_Color=16711935*
%FSLAX44Y44*%
%MOMM*%
G71*
G04*
G04 #@! TF.SameCoordinates,96A31BFF-9141-40C9-AD20-0A9797D9CB50*
G04*
G04*
G04 #@! TF.FilePolarity,Negative*
G04*
G01*
G75*
%ADD46R,1.3246X1.0500*%
%ADD48R,1.3500X1.3500*%
%ADD51R,1.3500X1.3500*%
%ADD63C,1.7500*%
%ADD64C,3.6500*%
%ADD65C,2.1500*%
%ADD66C,1.6580*%
G04:AMPARAMS|DCode=67|XSize=1.75mm|YSize=1.75mm|CornerRadius=0.475mm|HoleSize=0mm|Usage=FLASHONLY|Rotation=180.000|XOffset=0mm|YOffset=0mm|HoleType=Round|Shape=RoundedRectangle|*
%AMROUNDEDRECTD67*
21,1,1.7500,0.8000,0,0,180.0*
21,1,0.8000,1.7500,0,0,180.0*
1,1,0.9500,-0.4000,0.4000*
1,1,0.9500,0.4000,0.4000*
1,1,0.9500,0.4000,-0.4000*
1,1,0.9500,-0.4000,-0.4000*
%
%ADD67ROUNDEDRECTD67*%
%ADD68R,1.6580X1.6580*%
%ADD69R,1.7250X1.7250*%
%ADD70C,1.7250*%
%ADD87R,1.6500X0.8000*%
D46*
X227584Y318434D02*
D03*
Y259924D02*
D03*
Y280416D02*
D03*
Y297942D02*
D03*
D48*
X324457Y280163D02*
D03*
Y296671D02*
D03*
D51*
X301878Y328422D02*
D03*
X285370D02*
D03*
D63*
X147574Y43434D02*
D03*
X302006D02*
D03*
X172974D02*
D03*
X276606D02*
D03*
D64*
X57779Y362272D02*
D03*
X105410Y334772D02*
D03*
Y389772D02*
D03*
D65*
X409702Y447040D02*
D03*
X435102D02*
D03*
X460502D02*
D03*
X485902D02*
D03*
D66*
X397002Y44958D02*
D03*
X371602D02*
D03*
X346202D02*
D03*
X422402D02*
D03*
X244567Y481480D02*
D03*
X269567D02*
D03*
X294567D02*
D03*
X346202Y121158D02*
D03*
X371602D02*
D03*
X397002D02*
D03*
D67*
X198374Y43434D02*
D03*
X251206D02*
D03*
D68*
X319567Y481480D02*
D03*
X422402Y121158D02*
D03*
D69*
X522311Y370694D02*
D03*
X511811Y240993D02*
D03*
D70*
X522311Y345694D02*
D03*
X511811Y265993D02*
D03*
D87*
X302000Y270950D02*
D03*
X248000D02*
D03*
Y296350D02*
D03*
Y309050D02*
D03*
Y283650D02*
D03*
X302000D02*
D03*
Y296350D02*
D03*
Y309050D02*
D03*
M02*
