%TF.GenerationSoftware,Altium Limited,Altium Designer,26.4.1 (12)*%
G04 Layer_Color=32896*
%FSLAX26Y26*%
%MOIN*%
%TF.SameCoordinates,73598C5C-0CA9-4AAD-A791-1ED4FCC68FF1*%
%TF.FilePolarity,Positive*%
%TF.FileFunction,Legend,Bot*%
%TF.Part,Single*%
G01*
G75*
%TA.AperFunction,NonConductor*%
%ADD51C,0.007874*%
%ADD54C,0.010000*%
%ADD55C,0.005000*%
%ADD56C,0.005906*%
D51*
X1019685Y1238189D02*
X1145669D01*
X1019685Y1045276D02*
Y1238189D01*
Y1045276D02*
X1145669D01*
Y1238189D01*
X1159449Y1243307D02*
X1218504D01*
D54*
X1138660Y1010227D02*
X1128663D01*
X1133662D01*
Y980237D01*
X1138660D01*
X1128663D01*
X1093675Y1005229D02*
X1098673Y1010227D01*
X1108670D01*
X1113668Y1005229D01*
Y985236D01*
X1108670Y980237D01*
X1098673D01*
X1093675Y985236D01*
X1083678Y1005229D02*
X1078680Y1010227D01*
X1068683D01*
X1063685Y1005229D01*
Y1000231D01*
X1068683Y995232D01*
X1073681D01*
X1068683D01*
X1063685Y990234D01*
Y985236D01*
X1068683Y980237D01*
X1078680D01*
X1083678Y985236D01*
X1053688Y1005229D02*
X1048689Y1010227D01*
X1038693D01*
X1033694Y1005229D01*
Y1000231D01*
X1038693Y995232D01*
X1043691D01*
X1038693D01*
X1033694Y990234D01*
Y985236D01*
X1038693Y980237D01*
X1048689D01*
X1053688Y985236D01*
X820987Y1194682D02*
Y1224672D01*
X805992D01*
X800994Y1219674D01*
Y1209677D01*
X805992Y1204679D01*
X820987D01*
X810990D02*
X800994Y1194682D01*
X790997Y1219674D02*
X785998Y1224672D01*
X776001D01*
X771003Y1219674D01*
Y1214675D01*
X776001Y1209677D01*
X771003Y1204679D01*
Y1199680D01*
X776001Y1194682D01*
X785998D01*
X790997Y1199680D01*
Y1204679D01*
X785998Y1209677D01*
X790997Y1214675D01*
Y1219674D01*
X785998Y1209677D02*
X776001D01*
X761006Y1219674D02*
X756008Y1224672D01*
X746011D01*
X741013Y1219674D01*
Y1214675D01*
X746011Y1209677D01*
X751010D01*
X746011D01*
X741013Y1204679D01*
Y1199680D01*
X746011Y1194682D01*
X756008D01*
X761006Y1199680D01*
X1172994Y1391997D02*
X1177992Y1396995D01*
X1187989D01*
X1192987Y1391997D01*
Y1372003D01*
X1187989Y1367005D01*
X1177992D01*
X1172994Y1372003D01*
X1162997D02*
X1157998Y1367005D01*
X1148002D01*
X1143003Y1372003D01*
Y1391997D01*
X1148002Y1396995D01*
X1157998D01*
X1162997Y1391997D01*
Y1386998D01*
X1157998Y1382000D01*
X1143003D01*
X1133006Y1391997D02*
X1128008Y1396995D01*
X1118011D01*
X1113013Y1391997D01*
Y1386998D01*
X1118011Y1382000D01*
X1123010D01*
X1118011D01*
X1113013Y1377002D01*
Y1372003D01*
X1118011Y1367005D01*
X1128008D01*
X1133006Y1372003D01*
X821987Y1062666D02*
Y1092656D01*
X806992D01*
X801994Y1087658D01*
Y1077661D01*
X806992Y1072663D01*
X821987D01*
X811990D02*
X801994Y1062666D01*
X791997Y1067664D02*
X786998Y1062666D01*
X777001D01*
X772003Y1067664D01*
Y1087658D01*
X777001Y1092656D01*
X786998D01*
X791997Y1087658D01*
Y1082659D01*
X786998Y1077661D01*
X772003D01*
X762006Y1087658D02*
X757008Y1092656D01*
X747011D01*
X742013Y1087658D01*
Y1082659D01*
X747011Y1077661D01*
X752010D01*
X747011D01*
X742013Y1072663D01*
Y1067664D01*
X747011Y1062666D01*
X757008D01*
X762006Y1067664D01*
X1413383Y1161497D02*
X1418381Y1166495D01*
X1428378D01*
X1433376Y1161497D01*
Y1141503D01*
X1428378Y1136505D01*
X1418381D01*
X1413383Y1141503D01*
X1403386Y1161497D02*
X1398388Y1166495D01*
X1388391D01*
X1383393Y1161497D01*
Y1156498D01*
X1388391Y1151500D01*
X1383393Y1146502D01*
Y1141503D01*
X1388391Y1136505D01*
X1398388D01*
X1403386Y1141503D01*
Y1146502D01*
X1398388Y1151500D01*
X1403386Y1156498D01*
Y1161497D01*
X1398388Y1151500D02*
X1388391D01*
X1373396Y1161497D02*
X1368397Y1166495D01*
X1358401D01*
X1353402Y1161497D01*
Y1156498D01*
X1358401Y1151500D01*
X1363399D01*
X1358401D01*
X1353402Y1146502D01*
Y1141503D01*
X1358401Y1136505D01*
X1368397D01*
X1373396Y1141503D01*
D55*
X519996Y1552938D02*
Y1566267D01*
X506667Y1552938D01*
X503335D01*
X500003Y1556271D01*
Y1562935D01*
X503335Y1566267D01*
X519996Y1536277D02*
X500003D01*
X509999Y1546274D01*
Y1532945D01*
X500003Y1526280D02*
X513332D01*
X519996Y1519616D01*
X513332Y1512951D01*
X500003D01*
X495000Y1317941D02*
Y1331270D01*
X504997D01*
X501665Y1324606D01*
Y1321273D01*
X504997Y1317941D01*
X511662D01*
X514994Y1321273D01*
Y1327938D01*
X511662Y1331270D01*
X495000Y1311277D02*
X508329D01*
X514994Y1304612D01*
X508329Y1297948D01*
X495000D01*
X123336Y1437939D02*
X120004Y1441271D01*
Y1447936D01*
X123336Y1451268D01*
X136665D01*
X139997Y1447936D01*
Y1441271D01*
X136665Y1437939D01*
X130000D01*
Y1444603D01*
X139997Y1431274D02*
X120004D01*
X139997Y1417946D01*
X120004D01*
Y1411281D02*
X139997D01*
Y1401284D01*
X136665Y1397952D01*
X123336D01*
X120004Y1401284D01*
Y1411281D01*
D56*
X864504Y1213338D02*
X927496D01*
X919622Y1146409D02*
X927496D01*
Y1280267D01*
X919622D02*
X927496D01*
X864504Y1146409D02*
X872378D01*
X864504D02*
Y1280267D01*
X872378D01*
X1222929Y1312685D02*
Y1328433D01*
X1089071D02*
X1222929D01*
X1089071Y1312685D02*
Y1328433D01*
Y1257567D02*
Y1273315D01*
Y1257567D02*
X1222929D01*
Y1273315D01*
X1156000Y1257567D02*
Y1328433D01*
X1241956Y1135500D02*
X1312822D01*
X1241956Y1068571D02*
X1257704D01*
X1241956D02*
Y1202429D01*
X1257704D01*
X1297074D02*
X1312822D01*
Y1068571D02*
Y1202429D01*
X1297074Y1068571D02*
X1312822D01*
X919622Y996732D02*
X927496D01*
Y1130590D01*
X919622D02*
X927496D01*
X864504Y996732D02*
X872378D01*
X864504D02*
Y1130590D01*
X872378D01*
X864504Y1063661D02*
X927496D01*
%TF.MD5,41ff5e24dd62060b8a528a972a610bd6*%
M02*
