%TF.GenerationSoftware,Altium Limited,Altium Designer,26.4.1 (12)*%
G04 Layer_Color=8388736*
%FSLAX26Y26*%
%MOIN*%
%TF.SameCoordinates,73598C5C-0CA9-4AAD-A791-1ED4FCC68FF1*%
%TF.FilePolarity,Negative*%
%TF.FileFunction,Soldermask,Top*%
%TF.Part,Single*%
G01*
G75*
%TA.AperFunction,NonConductor*%
%ADD59R,0.032000X0.032000*%
%TA.AperFunction,SMDPad,CuDef*%
%ADD60R,0.090551X0.043307*%
%ADD61R,0.090551X0.133858*%
%ADD62C,0.029528*%
G04:AMPARAMS|DCode=63|XSize=56.457mil|YSize=31.653mil|CornerRadius=6.968mil|HoleSize=0mil|Usage=FLASHONLY|Rotation=180.000|XOffset=0mil|YOffset=0mil|HoleType=Round|Shape=RoundedRectangle|*
%AMROUNDEDRECTD63*
21,1,0.056457,0.017716,0,0,180.0*
21,1,0.042520,0.031653,0,0,180.0*
1,1,0.013937,-0.021260,0.008858*
1,1,0.013937,0.021260,0.008858*
1,1,0.013937,0.021260,-0.008858*
1,1,0.013937,-0.021260,-0.008858*
%
%ADD63ROUNDEDRECTD63*%
%ADD64R,0.045276X0.064961*%
%ADD65R,0.052150X0.041339*%
%ADD66R,0.053150X0.053150*%
G04:AMPARAMS|DCode=67|XSize=37.795mil|YSize=16.535mil|CornerRadius=4.282mil|HoleSize=0mil|Usage=FLASHONLY|Rotation=0.000|XOffset=0mil|YOffset=0mil|HoleType=Round|Shape=RoundedRectangle|*
%AMROUNDEDRECTD67*
21,1,0.037795,0.007973,0,0,0.0*
21,1,0.029232,0.016535,0,0,0.0*
1,1,0.008563,0.014616,-0.003986*
1,1,0.008563,-0.014616,-0.003986*
1,1,0.008563,-0.014616,0.003986*
1,1,0.008563,0.014616,0.003986*
%
%ADD67ROUNDEDRECTD67*%
G04:AMPARAMS|DCode=68|XSize=16.535mil|YSize=37.795mil|CornerRadius=4.282mil|HoleSize=0mil|Usage=FLASHONLY|Rotation=0.000|XOffset=0mil|YOffset=0mil|HoleType=Round|Shape=RoundedRectangle|*
%AMROUNDEDRECTD68*
21,1,0.016535,0.029232,0,0,0.0*
21,1,0.007973,0.037795,0,0,0.0*
1,1,0.008563,0.003986,-0.014616*
1,1,0.008563,-0.003986,-0.014616*
1,1,0.008563,-0.003986,0.014616*
1,1,0.008563,0.003986,0.014616*
%
%ADD68ROUNDEDRECTD68*%
%ADD69O,0.079331X0.030709*%
%ADD70R,0.053150X0.053150*%
%ADD71R,0.085906X0.085906*%
%ADD72R,0.096457X0.185040*%
G04:AMPARAMS|DCode=73|XSize=64.567mil|YSize=16.929mil|CornerRadius=4.331mil|HoleSize=0mil|Usage=FLASHONLY|Rotation=0.000|XOffset=0mil|YOffset=0mil|HoleType=Round|Shape=RoundedRectangle|*
%AMROUNDEDRECTD73*
21,1,0.064567,0.008268,0,0,0.0*
21,1,0.055905,0.016929,0,0,0.0*
1,1,0.008662,0.027953,-0.004134*
1,1,0.008662,-0.027953,-0.004134*
1,1,0.008662,-0.027953,0.004134*
1,1,0.008662,0.027953,0.004134*
%
%ADD73ROUNDEDRECTD73*%
%ADD74R,0.059055X0.051181*%
%ADD75R,0.185040X0.096457*%
%ADD76R,0.051181X0.059055*%
G04:AMPARAMS|DCode=77|XSize=64.567mil|YSize=16.929mil|CornerRadius=4.331mil|HoleSize=0mil|Usage=FLASHONLY|Rotation=90.000|XOffset=0mil|YOffset=0mil|HoleType=Round|Shape=RoundedRectangle|*
%AMROUNDEDRECTD77*
21,1,0.064567,0.008268,0,0,90.0*
21,1,0.055905,0.016929,0,0,90.0*
1,1,0.008662,0.004134,0.027953*
1,1,0.008662,0.004134,-0.027953*
1,1,0.008662,-0.004134,-0.027953*
1,1,0.008662,-0.004134,0.027953*
%
%ADD77ROUNDEDRECTD77*%
%ADD78R,0.041339X0.052150*%
%ADD79R,0.041339X0.052150*%
%ADD80R,0.057087X0.033465*%
%ADD81R,0.064961X0.068898*%
%TA.AperFunction,ComponentPad*%
%ADD82C,0.084646*%
%ADD83C,0.068898*%
%ADD84C,0.143701*%
%ADD85C,0.065276*%
G04:AMPARAMS|DCode=86|XSize=68.898mil|YSize=68.898mil|CornerRadius=18.701mil|HoleSize=0mil|Usage=FLASHONLY|Rotation=180.000|XOffset=0mil|YOffset=0mil|HoleType=Round|Shape=RoundedRectangle|*
%AMROUNDEDRECTD86*
21,1,0.068898,0.031496,0,0,180.0*
21,1,0.031496,0.068898,0,0,180.0*
1,1,0.037402,-0.015748,0.015748*
1,1,0.037402,0.015748,0.015748*
1,1,0.037402,0.015748,-0.015748*
1,1,0.037402,-0.015748,-0.015748*
%
%ADD86ROUNDEDRECTD86*%
%ADD87R,0.065276X0.065276*%
%ADD88R,0.067913X0.067913*%
%ADD89C,0.067913*%
%TA.AperFunction,ViaPad*%
%ADD90C,0.029528*%
D59*
X1549000Y1987000D02*
D03*
X1509000D02*
D03*
X1589000D02*
D03*
D60*
X322827Y633551D02*
D03*
Y452449D02*
D03*
Y543000D02*
D03*
D61*
X551173D02*
D03*
D62*
X1509000Y1987000D02*
D03*
X1589000D02*
D03*
X1549000D02*
D03*
D63*
X1767268Y1402000D02*
D03*
X1850732Y1364598D02*
D03*
Y1439402D02*
D03*
D64*
X1348992Y1736500D02*
D03*
X872008D02*
D03*
X997992D02*
D03*
X1223008D02*
D03*
D65*
X1430315Y1496843D02*
D03*
X1523315Y1576181D02*
D03*
Y1495503D02*
D03*
X1430315Y1577520D02*
D03*
D66*
X1338000Y1517496D02*
D03*
X916000Y1577000D02*
D03*
X830000Y1576000D02*
D03*
X780000Y1101339D02*
D03*
X681000Y1101339D02*
D03*
X780000Y887843D02*
D03*
X681000Y887843D02*
D03*
X780000Y679347D02*
D03*
X656000Y493496D02*
D03*
X582000Y887843D02*
D03*
X1338000Y1452504D02*
D03*
X780000Y1036347D02*
D03*
X681000Y1036347D02*
D03*
X780000Y952835D02*
D03*
X681000Y952835D02*
D03*
X656000Y428504D02*
D03*
X582000Y952835D02*
D03*
X780000Y744339D02*
D03*
X916000Y1292504D02*
D03*
Y1357496D02*
D03*
X830000Y1640992D02*
D03*
X916000Y1641992D02*
D03*
X919315Y512410D02*
D03*
Y427732D02*
D03*
D67*
X1206957Y1524496D02*
D03*
X1014043Y1544181D02*
D03*
X1206957Y1465441D02*
D03*
Y1583551D02*
D03*
Y1563866D02*
D03*
Y1544181D02*
D03*
Y1504811D02*
D03*
Y1485126D02*
D03*
X1014043Y1465441D02*
D03*
Y1485126D02*
D03*
Y1504811D02*
D03*
Y1524496D02*
D03*
Y1563866D02*
D03*
Y1583551D02*
D03*
D68*
X1149870Y1428039D02*
D03*
X1169555D02*
D03*
X1051445Y1620953D02*
D03*
X1090815D02*
D03*
X1110500D02*
D03*
X1130185D02*
D03*
X1149870D02*
D03*
X1169555D02*
D03*
X1130185Y1428039D02*
D03*
X1110500D02*
D03*
X1090815D02*
D03*
X1071130D02*
D03*
X1051445D02*
D03*
X1071130Y1620953D02*
D03*
D69*
X1567932Y1082880D02*
D03*
X1356713Y1032880D02*
D03*
X1567932Y932880D02*
D03*
X1356713Y982880D02*
D03*
Y1082880D02*
D03*
Y932880D02*
D03*
X1567932Y982880D02*
D03*
Y1032880D02*
D03*
D70*
X1537181Y1309126D02*
D03*
X606662Y665000D02*
D03*
X691339D02*
D03*
X1537181Y1387866D02*
D03*
D71*
X1110500Y1524496D02*
D03*
D72*
X629000Y2103606D02*
D03*
Y1804394D02*
D03*
D73*
X897000Y951339D02*
D03*
Y990709D02*
D03*
Y971024D02*
D03*
Y1069449D02*
D03*
Y1049764D02*
D03*
Y1030079D02*
D03*
Y1010394D02*
D03*
Y931654D02*
D03*
Y911969D02*
D03*
Y892284D02*
D03*
Y872599D02*
D03*
Y852914D02*
D03*
X1225346D02*
D03*
Y872599D02*
D03*
Y892284D02*
D03*
Y911969D02*
D03*
Y931654D02*
D03*
Y951339D02*
D03*
Y971024D02*
D03*
Y990709D02*
D03*
Y1010394D02*
D03*
Y1030079D02*
D03*
Y1049764D02*
D03*
Y1069449D02*
D03*
D74*
X833315Y491449D02*
D03*
X448000Y178551D02*
D03*
Y247449D02*
D03*
X1695000Y1040449D02*
D03*
Y971551D02*
D03*
X833315Y422551D02*
D03*
D75*
X123394Y928000D02*
D03*
X422606D02*
D03*
D76*
X622551Y744000D02*
D03*
X691449D02*
D03*
X156449Y1164000D02*
D03*
X325000Y1758000D02*
D03*
X87551Y1164000D02*
D03*
X256102Y1758000D02*
D03*
D77*
X1011961Y1125355D02*
D03*
X972591Y797008D02*
D03*
X952905D02*
D03*
X992276D02*
D03*
X1011961D02*
D03*
X1031646D02*
D03*
X1051331D02*
D03*
X1071016D02*
D03*
X1090701D02*
D03*
X1110386D02*
D03*
X1130071D02*
D03*
X1149756D02*
D03*
X1169441D02*
D03*
Y1125355D02*
D03*
X1149756D02*
D03*
X1130071D02*
D03*
X1110386D02*
D03*
X1090701D02*
D03*
X1071016D02*
D03*
X1051331D02*
D03*
X1031646D02*
D03*
X992276D02*
D03*
X972591D02*
D03*
X952905D02*
D03*
D78*
X972339Y712000D02*
D03*
D79*
X891662D02*
D03*
X779339Y306000D02*
D03*
X698661D02*
D03*
D80*
X916000Y1431094D02*
D03*
Y1505898D02*
D03*
D81*
X1409228Y1348496D02*
D03*
D82*
X1613000Y1760000D02*
D03*
X1913000D02*
D03*
X1713000D02*
D03*
X1813000D02*
D03*
D83*
X1189000Y171000D02*
D03*
X581000D02*
D03*
X681000D02*
D03*
X1089000D02*
D03*
D84*
X227475Y1426268D02*
D03*
X415000Y1318000D02*
D03*
Y1534535D02*
D03*
D85*
X1463000Y177000D02*
D03*
X1563000D02*
D03*
X1663000D02*
D03*
X1363000D02*
D03*
X962862Y1895591D02*
D03*
X1061287D02*
D03*
X1159713D02*
D03*
X1363000Y477000D02*
D03*
X1463000D02*
D03*
X1563000D02*
D03*
D86*
X781000Y171000D02*
D03*
X989000D02*
D03*
D87*
X1258138Y1895591D02*
D03*
X1663000Y477000D02*
D03*
D88*
X2056343Y1459425D02*
D03*
X2015005Y948792D02*
D03*
D89*
X2056343Y1361000D02*
D03*
X2015005Y1047217D02*
D03*
D90*
X1042000Y1293000D02*
D03*
%TF.MD5,66b6077db6223b5bdbbd835aa6e4ca8a*%
M02*
