G04*
G04 #@! TF.GenerationSoftware,Altium Limited,Altium Designer,26.4.1 (12)*
G04*
G04 Layer_Color=32896*
%FSLAX44Y44*%
%MOMM*%
G71*
G04*
G04 #@! TF.SameCoordinates,96A31BFF-9141-40C9-AD20-0A9797D9CB50*
G04*
G04*
G04 #@! TF.FilePolarity,Positive*
G04*
G01*
G75*
%ADD10C,0.2000*%
%ADD13C,0.2540*%
%ADD14C,0.1500*%
%ADD15C,0.1270*%
D10*
X259000Y314500D02*
X291000D01*
X259000Y265500D02*
Y314500D01*
Y265500D02*
X291000D01*
Y314500D01*
X294500Y315800D02*
X309500D01*
D13*
X297940Y353567D02*
X299210Y354837D01*
X301749D01*
X303019Y353567D01*
Y348489D01*
X301749Y347219D01*
X299210D01*
X297940Y348489D01*
X295401D02*
X294132Y347219D01*
X291592D01*
X290323Y348489D01*
Y353567D01*
X291592Y354837D01*
X294132D01*
X295401Y353567D01*
Y352298D01*
X294132Y351028D01*
X290323D01*
X287784Y353567D02*
X286514Y354837D01*
X283975D01*
X282705Y353567D01*
Y352298D01*
X283975Y351028D01*
X285244D01*
X283975D01*
X282705Y349758D01*
Y348489D01*
X283975Y347219D01*
X286514D01*
X287784Y348489D01*
X289220Y256598D02*
X286681D01*
X287950D01*
Y248980D01*
X289220D01*
X286681D01*
X277793Y255328D02*
X279063Y256598D01*
X281602D01*
X282872Y255328D01*
Y250250D01*
X281602Y248980D01*
X279063D01*
X277793Y250250D01*
X275254Y255328D02*
X273985Y256598D01*
X271445D01*
X270176Y255328D01*
Y254059D01*
X271445Y252789D01*
X272715D01*
X271445D01*
X270176Y251519D01*
Y250250D01*
X271445Y248980D01*
X273985D01*
X275254Y250250D01*
X267637Y255328D02*
X266367Y256598D01*
X263828D01*
X262558Y255328D01*
Y254059D01*
X263828Y252789D01*
X265098D01*
X263828D01*
X262558Y251519D01*
Y250250D01*
X263828Y248980D01*
X266367D01*
X267637Y250250D01*
X208785Y269917D02*
Y277535D01*
X204976D01*
X203706Y276265D01*
Y273726D01*
X204976Y272456D01*
X208785D01*
X206245D02*
X203706Y269917D01*
X201167Y271187D02*
X199898Y269917D01*
X197358D01*
X196089Y271187D01*
Y276265D01*
X197358Y277535D01*
X199898D01*
X201167Y276265D01*
Y274995D01*
X199898Y273726D01*
X196089D01*
X193550Y276265D02*
X192280Y277535D01*
X189741D01*
X188471Y276265D01*
Y274995D01*
X189741Y273726D01*
X191010D01*
X189741D01*
X188471Y272456D01*
Y271187D01*
X189741Y269917D01*
X192280D01*
X193550Y271187D01*
X208531Y303449D02*
Y311067D01*
X204722D01*
X203452Y309797D01*
Y307258D01*
X204722Y305988D01*
X208531D01*
X205991D02*
X203452Y303449D01*
X200913Y309797D02*
X199644Y311067D01*
X197104D01*
X195835Y309797D01*
Y308528D01*
X197104Y307258D01*
X195835Y305988D01*
Y304719D01*
X197104Y303449D01*
X199644D01*
X200913Y304719D01*
Y305988D01*
X199644Y307258D01*
X200913Y308528D01*
Y309797D01*
X199644Y307258D02*
X197104D01*
X193296Y309797D02*
X192026Y311067D01*
X189487D01*
X188217Y309797D01*
Y308528D01*
X189487Y307258D01*
X190756D01*
X189487D01*
X188217Y305988D01*
Y304719D01*
X189487Y303449D01*
X192026D01*
X193296Y304719D01*
X358999Y295020D02*
X360269Y296290D01*
X362808D01*
X364078Y295020D01*
Y289942D01*
X362808Y288672D01*
X360269D01*
X358999Y289942D01*
X356460Y295020D02*
X355191Y296290D01*
X352651D01*
X351382Y295020D01*
Y293751D01*
X352651Y292481D01*
X351382Y291211D01*
Y289942D01*
X352651Y288672D01*
X355191D01*
X356460Y289942D01*
Y291211D01*
X355191Y292481D01*
X356460Y293751D01*
Y295020D01*
X355191Y292481D02*
X352651D01*
X348843Y295020D02*
X347573Y296290D01*
X345034D01*
X343764Y295020D01*
Y293751D01*
X345034Y292481D01*
X346303D01*
X345034D01*
X343764Y291211D01*
Y289942D01*
X345034Y288672D01*
X347573D01*
X348843Y289942D01*
D14*
X310624Y333422D02*
Y337422D01*
X276624D02*
X310624D01*
X276624Y333422D02*
Y337422D01*
Y319422D02*
Y323422D01*
Y319422D02*
X310624D01*
Y323422D01*
X293624Y319422D02*
Y337422D01*
X315457Y288417D02*
X333457D01*
X315457Y271417D02*
X319457D01*
X315457D02*
Y305417D01*
X319457D01*
X329457D02*
X333457D01*
Y271417D02*
Y305417D01*
X329457Y271417D02*
X333457D01*
X219584Y325188D02*
X221584D01*
X219584Y291188D02*
Y325188D01*
Y291188D02*
X221584D01*
X233584Y325188D02*
X235584D01*
Y291188D02*
Y325188D01*
X233584Y291188D02*
X235584D01*
X219584Y308188D02*
X235584D01*
X233584Y253170D02*
X235584D01*
Y287170D01*
X233584D02*
X235584D01*
X219584Y253170D02*
X221584D01*
X219584D02*
Y287170D01*
X221584D01*
X219584Y270170D02*
X235584D01*
D15*
X132079Y394446D02*
Y397832D01*
X128694Y394446D01*
X127847D01*
X127001Y395293D01*
Y396986D01*
X127847Y397832D01*
X132079Y390214D02*
X127001D01*
X129540Y392754D01*
Y389368D01*
X127001Y387675D02*
X130386D01*
X132079Y385982D01*
X130386Y384290D01*
X127001D01*
X125730Y334757D02*
Y338143D01*
X128269D01*
X127423Y336450D01*
Y335603D01*
X128269Y334757D01*
X129962D01*
X130808Y335603D01*
Y337296D01*
X129962Y338143D01*
X125730Y333064D02*
X129116D01*
X130808Y331371D01*
X129116Y329679D01*
X125730D01*
X31327Y365237D02*
X30481Y366083D01*
Y367776D01*
X31327Y368622D01*
X34713D01*
X35559Y367776D01*
Y366083D01*
X34713Y365237D01*
X33020D01*
Y366929D01*
X35559Y363544D02*
X30481D01*
X35559Y360158D01*
X30481D01*
Y358465D02*
X35559D01*
Y355926D01*
X34713Y355080D01*
X31327D01*
X30481Y355926D01*
Y358465D01*
M02*
