G04*
G04 #@! TF.GenerationSoftware,Altium Limited,Altium Designer,26.4.1 (12)*
G04*
G04 Layer_Physical_Order=1*
G04 Layer_Color=255*
%FSLAX44Y44*%
%MOMM*%
G71*
G04*
G04 #@! TF.SameCoordinates,96A31BFF-9141-40C9-AD20-0A9797D9CB50*
G04*
G04*
G04 #@! TF.FilePolarity,Positive*
G04*
G01*
G75*
%ADD13C,0.2540*%
G04:AMPARAMS|DCode=18|XSize=1.23mm|YSize=0.6mm|CornerRadius=0.075mm|HoleSize=0mm|Usage=FLASHONLY|Rotation=180.000|XOffset=0mm|YOffset=0mm|HoleType=Round|Shape=RoundedRectangle|*
%AMROUNDEDRECTD18*
21,1,1.2300,0.4500,0,0,180.0*
21,1,1.0800,0.6000,0,0,180.0*
1,1,0.1500,-0.5400,0.2250*
1,1,0.1500,0.5400,0.2250*
1,1,0.1500,0.5400,-0.2250*
1,1,0.1500,-0.5400,-0.2250*
%
%ADD18ROUNDEDRECTD18*%
%ADD19R,2.1500X3.2500*%
%ADD20R,2.1500X0.9500*%
%ADD21R,2.3000X4.5500*%
%ADD22C,0.6000*%
%ADD23R,1.1746X0.9000*%
%ADD24R,1.0000X1.5000*%
%ADD25R,1.2000X1.2000*%
G04:AMPARAMS|DCode=26|XSize=0.81mm|YSize=0.27mm|CornerRadius=0.0338mm|HoleSize=0mm|Usage=FLASHONLY|Rotation=0.000|XOffset=0mm|YOffset=0mm|HoleType=Round|Shape=RoundedRectangle|*
%AMROUNDEDRECTD26*
21,1,0.8100,0.2025,0,0,0.0*
21,1,0.7425,0.2700,0,0,0.0*
1,1,0.0675,0.3713,-0.1013*
1,1,0.0675,-0.3713,-0.1013*
1,1,0.0675,-0.3713,0.1013*
1,1,0.0675,0.3713,0.1013*
%
%ADD26ROUNDEDRECTD26*%
G04:AMPARAMS|DCode=27|XSize=0.27mm|YSize=0.81mm|CornerRadius=0.0338mm|HoleSize=0mm|Usage=FLASHONLY|Rotation=0.000|XOffset=0mm|YOffset=0mm|HoleType=Round|Shape=RoundedRectangle|*
%AMROUNDEDRECTD27*
21,1,0.2700,0.7425,0,0,0.0*
21,1,0.2025,0.8100,0,0,0.0*
1,1,0.0675,0.1013,-0.3713*
1,1,0.0675,-0.1013,-0.3713*
1,1,0.0675,-0.1013,0.3713*
1,1,0.0675,0.1013,0.3713*
%
%ADD27ROUNDEDRECTD27*%
%ADD28R,1.2000X1.2000*%
%ADD29O,1.8650X0.6300*%
G04:AMPARAMS|DCode=30|XSize=1.49mm|YSize=0.28mm|CornerRadius=0.035mm|HoleSize=0mm|Usage=FLASHONLY|Rotation=0.000|XOffset=0mm|YOffset=0mm|HoleType=Round|Shape=RoundedRectangle|*
%AMROUNDEDRECTD30*
21,1,1.4900,0.2100,0,0,0.0*
21,1,1.4200,0.2800,0,0,0.0*
1,1,0.0700,0.7100,-0.1050*
1,1,0.0700,-0.7100,-0.1050*
1,1,0.0700,-0.7100,0.1050*
1,1,0.0700,0.7100,0.1050*
%
%ADD30ROUNDEDRECTD30*%
%ADD31R,1.3500X1.1500*%
%ADD32R,2.0320X2.0320*%
%ADD33R,1.1500X1.3500*%
%ADD34R,4.5500X2.3000*%
%ADD35R,0.9000X1.1746*%
%ADD36R,0.9000X1.1746*%
G04:AMPARAMS|DCode=37|XSize=1.49mm|YSize=0.28mm|CornerRadius=0.035mm|HoleSize=0mm|Usage=FLASHONLY|Rotation=90.000|XOffset=0mm|YOffset=0mm|HoleType=Round|Shape=RoundedRectangle|*
%AMROUNDEDRECTD37*
21,1,1.4900,0.2100,0,0,90.0*
21,1,1.4200,0.2800,0,0,90.0*
1,1,0.0700,0.1050,0.7100*
1,1,0.0700,0.1050,-0.7100*
1,1,0.0700,-0.1050,-0.7100*
1,1,0.0700,-0.1050,0.7100*
%
%ADD37ROUNDEDRECTD37*%
%ADD38R,1.3000X0.7000*%
%ADD39R,1.5000X1.6000*%
%ADD40R,0.8128X0.8128*%
%ADD71C,0.2794*%
%ADD72C,0.5080*%
%ADD73C,0.2032*%
%ADD74C,1.5240*%
%ADD75C,1.0160*%
%ADD76C,0.7620*%
%ADD77R,0.8000X0.8000*%
%ADD78C,1.6000*%
%ADD79C,3.5000*%
%ADD80C,2.0000*%
%ADD81C,1.5080*%
G04:AMPARAMS|DCode=82|XSize=1.6mm|YSize=1.6mm|CornerRadius=0.4mm|HoleSize=0mm|Usage=FLASHONLY|Rotation=180.000|XOffset=0mm|YOffset=0mm|HoleType=Round|Shape=RoundedRectangle|*
%AMROUNDEDRECTD82*
21,1,1.6000,0.8000,0,0,180.0*
21,1,0.8000,1.6000,0,0,180.0*
1,1,0.8000,-0.4000,0.4000*
1,1,0.8000,0.4000,0.4000*
1,1,0.8000,0.4000,-0.4000*
1,1,0.8000,-0.4000,-0.4000*
%
%ADD82ROUNDEDRECTD82*%
%ADD83R,1.5080X1.5080*%
%ADD84R,1.5750X1.5750*%
%ADD85C,1.5750*%
G36*
X65225Y472841D02*
X66936Y472132D01*
X68475Y471104D01*
X69784Y469795D01*
X70812Y468256D01*
X71521Y466545D01*
X71882Y464730D01*
Y438404D01*
X72009Y437116D01*
X72995Y434735D01*
X74817Y432913D01*
X77198Y431927D01*
X78486Y431800D01*
X116959D01*
X121180Y430961D01*
X125155Y429314D01*
X128733Y426923D01*
X131775Y423881D01*
X134166Y420303D01*
X135813Y416328D01*
X136652Y412107D01*
Y409956D01*
Y388366D01*
Y385889D01*
X135686Y381031D01*
X133790Y376455D01*
X131038Y372336D01*
X127536Y368834D01*
X123417Y366082D01*
X118841Y364186D01*
X113983Y363220D01*
X77311D01*
Y364196D01*
X76560Y367969D01*
X75088Y371524D01*
X72950Y374723D01*
X70230Y377444D01*
X67031Y379581D01*
X63476Y381053D01*
X59702Y381804D01*
X55855D01*
X52081Y381053D01*
X48527Y379581D01*
X45328Y377444D01*
X42607Y374723D01*
X40470Y371524D01*
X38997Y367969D01*
X38247Y364196D01*
Y363220D01*
X10937D01*
X8974Y363610D01*
X7125Y364376D01*
X5461Y365488D01*
X4046Y366903D01*
X2934Y368567D01*
X2168Y370416D01*
X2103Y370748D01*
Y442229D01*
X4135Y442633D01*
X4939Y440692D01*
X5052Y440522D01*
X5130Y440334D01*
X6881Y437713D01*
X7025Y437569D01*
X7139Y437399D01*
X9367Y435171D01*
X9537Y435057D01*
X9681Y434913D01*
X12302Y433162D01*
X12490Y433084D01*
X12660Y432970D01*
X15572Y431764D01*
X15772Y431725D01*
X15961Y431646D01*
X19052Y431031D01*
X19256D01*
X19456Y430992D01*
X22608D01*
X22808Y431031D01*
X23012D01*
X26103Y431646D01*
X26291Y431725D01*
X26492Y431764D01*
X29403Y432970D01*
X29573Y433084D01*
X29762Y433162D01*
X32382Y434913D01*
X32526Y435057D01*
X32696Y435171D01*
X34925Y437399D01*
X35038Y437569D01*
X35182Y437713D01*
X36933Y440334D01*
X37011Y440522D01*
X37125Y440692D01*
X38331Y443604D01*
X38371Y443804D01*
X38449Y443992D01*
X39064Y447084D01*
Y447287D01*
X39104Y447488D01*
Y450639D01*
X39064Y450840D01*
Y451044D01*
X38449Y454135D01*
X38371Y454323D01*
X38331Y454523D01*
X37125Y457435D01*
X37011Y457605D01*
X36933Y457793D01*
X35182Y460414D01*
X35038Y460558D01*
X34925Y460728D01*
X32696Y462957D01*
X32526Y463070D01*
X32382Y463214D01*
X29762Y464965D01*
X29573Y465043D01*
X29403Y465157D01*
X26492Y466363D01*
X26291Y466403D01*
X26103Y466481D01*
X23012Y467095D01*
X22808D01*
X22608Y467135D01*
X19456D01*
X19256Y467095D01*
X19052D01*
X15961Y466481D01*
X15772Y466403D01*
X15572Y466363D01*
X12660Y465157D01*
X12490Y465043D01*
X12302Y464965D01*
X10764Y463937D01*
X8690Y464996D01*
X8682Y465227D01*
X10986Y467531D01*
X15147Y470311D01*
X19769Y472226D01*
X23784Y473024D01*
X30064D01*
X30088Y473029D01*
X30113Y473025D01*
X33058Y473097D01*
X33132Y473114D01*
X33207Y473106D01*
X34177Y473202D01*
X63410D01*
X65225Y472841D01*
D02*
G37*
G36*
X440064Y578024D02*
X441833D01*
X445302Y577334D01*
X448571Y575980D01*
X451513Y574015D01*
X454015Y571513D01*
X455980Y568571D01*
X457334Y565302D01*
X458024Y561833D01*
X458024Y560064D01*
X458024Y535064D01*
X458029Y535039D01*
X458025Y535014D01*
X458097Y532069D01*
X458114Y531995D01*
X458106Y531920D01*
X458684Y526060D01*
X458713Y525963D01*
Y525862D01*
X459862Y520087D01*
X459900Y519994D01*
X459910Y519893D01*
X461620Y514258D01*
X461667Y514169D01*
X461687Y514070D01*
X463940Y508630D01*
X463997Y508546D01*
X464026Y508449D01*
X466801Y503256D01*
X466866Y503178D01*
X466904Y503084D01*
X470176Y498189D01*
X470247Y498117D01*
X470295Y498028D01*
X474030Y493476D01*
X474108Y493412D01*
X474165Y493328D01*
X478328Y489165D01*
X478412Y489108D01*
X478476Y489030D01*
X483028Y485295D01*
X483117Y485247D01*
X483189Y485176D01*
X488084Y481904D01*
X488178Y481866D01*
X488256Y481801D01*
X493449Y479026D01*
X493546Y478997D01*
X493630Y478940D01*
X499070Y476687D01*
X499169Y476667D01*
X499258Y476620D01*
X504893Y474910D01*
X504994Y474900D01*
X505087Y474862D01*
X510862Y473713D01*
X510963D01*
X511060Y473684D01*
X516920Y473106D01*
X516995Y473114D01*
X517069Y473097D01*
X520014Y473025D01*
X520039Y473029D01*
X520064Y473024D01*
X531833D01*
X535302Y472334D01*
X538571Y470980D01*
X541513Y469015D01*
X544015Y466513D01*
X545980Y463571D01*
X547334Y460302D01*
X548024Y456833D01*
X548024Y455745D01*
X545993Y455341D01*
X545125Y457435D01*
X545011Y457605D01*
X544933Y457793D01*
X543182Y460414D01*
X543038Y460558D01*
X542925Y460728D01*
X540696Y462957D01*
X540526Y463070D01*
X540382Y463214D01*
X537762Y464965D01*
X537573Y465043D01*
X537403Y465157D01*
X534492Y466363D01*
X534291Y466403D01*
X534103Y466481D01*
X531012Y467095D01*
X530808D01*
X530608Y467135D01*
X527456D01*
X527256Y467095D01*
X527052D01*
X523960Y466481D01*
X523772Y466403D01*
X523572Y466363D01*
X520660Y465157D01*
X520490Y465043D01*
X520302Y464965D01*
X517681Y463214D01*
X517537Y463070D01*
X517367Y462957D01*
X515139Y460728D01*
X515025Y460558D01*
X514881Y460414D01*
X513130Y457793D01*
X513052Y457605D01*
X512939Y457435D01*
X511732Y454523D01*
X511693Y454323D01*
X511615Y454135D01*
X511000Y451044D01*
Y450840D01*
X510960Y450639D01*
Y447488D01*
X511000Y447287D01*
Y447084D01*
X511615Y443992D01*
X511693Y443804D01*
X511732Y443604D01*
X512939Y440692D01*
X513052Y440522D01*
X513130Y440334D01*
X514881Y437713D01*
X515025Y437569D01*
X515139Y437399D01*
X517367Y435171D01*
X517537Y435057D01*
X517681Y434913D01*
X520302Y433162D01*
X520490Y433084D01*
X520660Y432970D01*
X523572Y431764D01*
X523772Y431725D01*
X523960Y431646D01*
X527052Y431031D01*
X527256D01*
X527456Y430992D01*
X530608D01*
X530808Y431031D01*
X531012D01*
X534103Y431646D01*
X534291Y431725D01*
X534492Y431764D01*
X537403Y432970D01*
X537573Y433084D01*
X537762Y433162D01*
X540382Y434913D01*
X540526Y435057D01*
X540696Y435171D01*
X542925Y437399D01*
X543038Y437569D01*
X543182Y437713D01*
X544933Y440334D01*
X545011Y440522D01*
X545125Y440692D01*
X545993Y442786D01*
X548024Y442382D01*
X548024Y137745D01*
X545992Y137341D01*
X545125Y139435D01*
X545011Y139605D01*
X544933Y139793D01*
X543182Y142414D01*
X543038Y142558D01*
X542925Y142728D01*
X540696Y144957D01*
X540526Y145070D01*
X540382Y145214D01*
X537762Y146965D01*
X537573Y147043D01*
X537403Y147157D01*
X534492Y148363D01*
X534291Y148403D01*
X534103Y148481D01*
X531012Y149095D01*
X530808D01*
X530608Y149135D01*
X527456D01*
X527256Y149095D01*
X527052D01*
X523960Y148481D01*
X523772Y148403D01*
X523572Y148363D01*
X520660Y147157D01*
X520490Y147043D01*
X520302Y146965D01*
X517681Y145214D01*
X517537Y145070D01*
X517367Y144957D01*
X515139Y142728D01*
X515025Y142558D01*
X514881Y142414D01*
X513130Y139793D01*
X513052Y139605D01*
X512939Y139435D01*
X511732Y136523D01*
X511693Y136323D01*
X511615Y136135D01*
X511000Y133043D01*
Y132839D01*
X510960Y132639D01*
Y129488D01*
X511000Y129288D01*
Y129083D01*
X511615Y125992D01*
X511693Y125804D01*
X511732Y125604D01*
X512939Y122692D01*
X513052Y122522D01*
X513130Y122334D01*
X514881Y119713D01*
X515025Y119569D01*
X515139Y119399D01*
X517367Y117170D01*
X517537Y117057D01*
X517681Y116913D01*
X520302Y115162D01*
X520490Y115084D01*
X520660Y114970D01*
X523572Y113764D01*
X523772Y113724D01*
X523960Y113646D01*
X527052Y113032D01*
X527256D01*
X527456Y112992D01*
X530608D01*
X530808Y113032D01*
X531012D01*
X534103Y113646D01*
X534291Y113724D01*
X534492Y113764D01*
X537403Y114970D01*
X537573Y115084D01*
X537762Y115162D01*
X540382Y116913D01*
X540526Y117057D01*
X540696Y117170D01*
X542925Y119399D01*
X543038Y119569D01*
X543182Y119713D01*
X544933Y122334D01*
X545011Y122522D01*
X545125Y122692D01*
X545251Y122997D01*
X547496Y123105D01*
X547853Y122434D01*
X547334Y119825D01*
X545980Y116556D01*
X544015Y113614D01*
X541513Y111112D01*
X538571Y109147D01*
X535302Y107793D01*
X531833Y107103D01*
X520064Y107102D01*
X520038Y107098D01*
X520013Y107102D01*
X517069Y107030D01*
X516995Y107013D01*
X516920Y107020D01*
X511060Y106443D01*
X510963Y106414D01*
X510862D01*
X505087Y105265D01*
X504994Y105226D01*
X504893Y105217D01*
X499258Y103507D01*
X499169Y103460D01*
X499070Y103440D01*
X493630Y101187D01*
X493546Y101131D01*
X493449Y101101D01*
X488256Y98326D01*
X488178Y98261D01*
X488084Y98223D01*
X483189Y94951D01*
X483117Y94880D01*
X483028Y94832D01*
X478476Y91097D01*
X478412Y91019D01*
X478328Y90962D01*
X474165Y86799D01*
X474108Y86715D01*
X474030Y86651D01*
X470295Y82099D01*
X470247Y82010D01*
X470176Y81938D01*
X466904Y77042D01*
X466866Y76949D01*
X466801Y76871D01*
X464026Y71678D01*
X463997Y71581D01*
X463940Y71497D01*
X461687Y66057D01*
X461667Y65958D01*
X461620Y65869D01*
X459910Y60234D01*
X459900Y60134D01*
X459862Y60040D01*
X458713Y54265D01*
Y54164D01*
X458684Y54067D01*
X458106Y48207D01*
X458114Y48132D01*
X458097Y48058D01*
X458025Y45114D01*
X458029Y45089D01*
X458024Y45064D01*
X458024Y20064D01*
X458024Y18295D01*
X457334Y14825D01*
X455980Y11556D01*
X454015Y8614D01*
X451513Y6112D01*
X448571Y4147D01*
X445302Y2793D01*
X441833Y2103D01*
X108294D01*
X104825Y2793D01*
X101556Y4147D01*
X98614Y6112D01*
X96112Y8614D01*
X94147Y11556D01*
X92793Y14825D01*
X92103Y18294D01*
X92103Y20064D01*
X92102Y45064D01*
X92098Y45088D01*
X92102Y45114D01*
X92030Y48058D01*
X92013Y48132D01*
X92020Y48207D01*
X91443Y54067D01*
X91414Y54164D01*
Y54265D01*
X90265Y60040D01*
X90226Y60134D01*
X90217Y60234D01*
X88507Y65869D01*
X88460Y65958D01*
X88440Y66057D01*
X86187Y71497D01*
X86131Y71581D01*
X86101Y71678D01*
X83326Y76871D01*
X83261Y76949D01*
X83223Y77042D01*
X79951Y81938D01*
X79880Y82010D01*
X79832Y82099D01*
X76097Y86651D01*
X76019Y86715D01*
X75962Y86799D01*
X71799Y90962D01*
X71715Y91019D01*
X71651Y91097D01*
X67099Y94832D01*
X67010Y94880D01*
X66938Y94951D01*
X62042Y98223D01*
X61949Y98261D01*
X61871Y98326D01*
X56678Y101101D01*
X56581Y101131D01*
X56497Y101187D01*
X51057Y103440D01*
X50958Y103460D01*
X50869Y103507D01*
X45234Y105217D01*
X45134Y105226D01*
X45040Y105265D01*
X39265Y106414D01*
X39164D01*
X39067Y106443D01*
X33207Y107020D01*
X33132Y107013D01*
X33058Y107030D01*
X30114Y107102D01*
X30089Y107098D01*
X30064Y107103D01*
X18294D01*
X14825Y107793D01*
X11556Y109147D01*
X8614Y111112D01*
X6112Y113614D01*
X4147Y116556D01*
X2793Y119825D01*
X2306Y122274D01*
X2652Y122902D01*
X4904Y122775D01*
X4939Y122692D01*
X5052Y122522D01*
X5130Y122334D01*
X6881Y119713D01*
X7025Y119569D01*
X7139Y119399D01*
X9367Y117170D01*
X9537Y117057D01*
X9681Y116913D01*
X12302Y115162D01*
X12490Y115084D01*
X12660Y114970D01*
X15572Y113764D01*
X15772Y113724D01*
X15961Y113646D01*
X19052Y113032D01*
X19256D01*
X19456Y112992D01*
X22608D01*
X22808Y113032D01*
X23012D01*
X26103Y113646D01*
X26291Y113724D01*
X26492Y113764D01*
X29403Y114970D01*
X29573Y115084D01*
X29762Y115162D01*
X32382Y116913D01*
X32526Y117057D01*
X32696Y117170D01*
X34925Y119399D01*
X35038Y119569D01*
X35182Y119713D01*
X36933Y122334D01*
X37011Y122522D01*
X37125Y122692D01*
X38331Y125604D01*
X38371Y125804D01*
X38449Y125992D01*
X39064Y129083D01*
Y129288D01*
X39104Y129488D01*
Y132639D01*
X39064Y132839D01*
Y133043D01*
X38449Y136135D01*
X38371Y136323D01*
X38331Y136523D01*
X37125Y139435D01*
X37011Y139605D01*
X36933Y139793D01*
X35182Y142414D01*
X35038Y142558D01*
X34925Y142728D01*
X32696Y144957D01*
X32526Y145070D01*
X32382Y145214D01*
X29762Y146965D01*
X29573Y147043D01*
X29403Y147157D01*
X26492Y148363D01*
X26291Y148403D01*
X26103Y148481D01*
X23012Y149095D01*
X22808D01*
X22608Y149135D01*
X19456D01*
X19256Y149095D01*
X19052D01*
X15961Y148481D01*
X15772Y148403D01*
X15572Y148363D01*
X12660Y147157D01*
X12490Y147043D01*
X12302Y146965D01*
X9681Y145214D01*
X9537Y145070D01*
X9367Y144957D01*
X7139Y142728D01*
X7025Y142558D01*
X6881Y142414D01*
X5130Y139793D01*
X5052Y139605D01*
X4939Y139435D01*
X4135Y137494D01*
X2103Y137898D01*
Y363043D01*
X3579Y363807D01*
X4135Y363931D01*
X4166Y363910D01*
X4310Y363765D01*
X5974Y362654D01*
X6163Y362576D01*
X6333Y362462D01*
X8182Y361696D01*
X8382Y361656D01*
X8570Y361578D01*
X10533Y361188D01*
X10737D01*
X10937Y361148D01*
X38247D01*
Y360348D01*
X38997Y356575D01*
X40470Y353020D01*
X42607Y349821D01*
X45328Y347100D01*
X47857Y345411D01*
X47838Y343383D01*
X47721Y343114D01*
X45820Y341656D01*
X15354Y311190D01*
X13807Y309174D01*
X12834Y306826D01*
X12503Y304306D01*
Y295656D01*
X12834Y293136D01*
X13807Y290788D01*
X14456Y289943D01*
Y286874D01*
X18218D01*
X19718Y286252D01*
X22238Y285921D01*
X24758Y286252D01*
X26258Y286874D01*
X30020D01*
Y286874D01*
X31956D01*
Y286874D01*
X35718D01*
X37218Y286252D01*
X39738Y285921D01*
X69373D01*
X97607Y257687D01*
Y249244D01*
X82560D01*
Y222180D01*
X97607D01*
Y190039D01*
X76232Y168663D01*
X75114Y167806D01*
X75036Y167704D01*
X69216D01*
Y154140D01*
X75036D01*
X75114Y154038D01*
X77130Y152491D01*
X79478Y151518D01*
X81998Y151187D01*
X82258D01*
X84778Y151518D01*
X87126Y152491D01*
X89142Y154038D01*
X89244Y154140D01*
X94780D01*
Y159676D01*
X102408Y167304D01*
X104287Y166532D01*
X104552Y119646D01*
X102676Y118863D01*
X99734Y121806D01*
X97718Y123353D01*
X95370Y124326D01*
X92850Y124657D01*
X81998D01*
X79478Y124326D01*
X77130Y123353D01*
X75114Y121806D01*
X75036Y121704D01*
X69216D01*
Y108140D01*
X75036D01*
X75114Y108038D01*
X77130Y106491D01*
X79478Y105518D01*
X81998Y105187D01*
X88818D01*
X104057Y89948D01*
Y62852D01*
X104388Y60332D01*
X105010Y58832D01*
Y55070D01*
X105010D01*
X104925Y53327D01*
X104970Y45345D01*
Y24631D01*
X105010Y24431D01*
Y24227D01*
X105367Y22432D01*
X105445Y22243D01*
X105485Y22043D01*
X106185Y20353D01*
X106299Y20183D01*
X106377Y19994D01*
X107393Y18473D01*
X107538Y18329D01*
X107651Y18159D01*
X108945Y16865D01*
X109115Y16752D01*
X109259Y16607D01*
X110780Y15591D01*
X110969Y15512D01*
X111139Y15399D01*
X112829Y14699D01*
X113029Y14659D01*
X113218Y14581D01*
X115013Y14224D01*
X115217D01*
X115417Y14184D01*
X137680D01*
X139332Y13856D01*
X174752D01*
X176404Y14184D01*
X177285D01*
X178078Y14342D01*
X180412Y15309D01*
X181084Y15758D01*
X182870Y17544D01*
X183319Y18216D01*
X184286Y20550D01*
X184379Y21015D01*
X196647Y33284D01*
X201932D01*
X215652Y19564D01*
X217164Y18553D01*
X218948Y18198D01*
X324104D01*
X325888Y18553D01*
X327400Y19564D01*
X343586Y35749D01*
X344942Y35386D01*
X347462D01*
X349897Y36038D01*
X352079Y37299D01*
X353862Y39081D01*
X354563Y40296D01*
X363241D01*
X363942Y39081D01*
X365725Y37299D01*
X367907Y36038D01*
X370342Y35386D01*
X372862D01*
X375297Y36038D01*
X377479Y37299D01*
X379262Y39081D01*
X379963Y40296D01*
X388641D01*
X389342Y39081D01*
X391125Y37299D01*
X393307Y36038D01*
X395742Y35386D01*
X398262D01*
X400697Y36038D01*
X402879Y37299D01*
X404661Y39081D01*
X405363Y40296D01*
X414041D01*
X414743Y39081D01*
X416525Y37299D01*
X418707Y36038D01*
X421142Y35386D01*
X423662D01*
X426097Y36038D01*
X428279Y37299D01*
X430061Y39081D01*
X431322Y41263D01*
X431974Y43698D01*
Y46218D01*
X431322Y48653D01*
X430061Y50835D01*
X428279Y52618D01*
X426097Y53878D01*
X423662Y54530D01*
X421142D01*
X418707Y53878D01*
X416525Y52618D01*
X414743Y50835D01*
X414041Y49620D01*
X405363D01*
X404661Y50835D01*
X402879Y52618D01*
X400697Y53878D01*
X398262Y54530D01*
X395742D01*
X393307Y53878D01*
X391125Y52618D01*
X389342Y50835D01*
X388641Y49620D01*
X379963D01*
X379262Y50835D01*
X377479Y52618D01*
X375297Y53878D01*
X372862Y54530D01*
X370342D01*
X367907Y53878D01*
X365725Y52618D01*
X363942Y50835D01*
X363241Y49620D01*
X354563D01*
X353862Y50835D01*
X352079Y52618D01*
X349897Y53878D01*
X347462Y54530D01*
X344942D01*
X342507Y53878D01*
X340325Y52618D01*
X338543Y50835D01*
X337282Y48653D01*
X336630Y46218D01*
Y43698D01*
X336993Y42342D01*
X322173Y27522D01*
X220879D01*
X208524Y39876D01*
Y47434D01*
X208056Y49788D01*
X206723Y51783D01*
X204728Y53116D01*
X202374Y53584D01*
X194374D01*
X192020Y53116D01*
X190025Y51783D01*
X188692Y49788D01*
X188224Y47434D01*
Y41708D01*
X184843Y38326D01*
X183919Y38558D01*
X182659Y40818D01*
X183006Y42113D01*
Y44755D01*
X182322Y47306D01*
X181002Y49594D01*
X180736Y49860D01*
X180956Y50968D01*
Y69819D01*
X183992D01*
Y84396D01*
X184286Y84836D01*
X184444Y85629D01*
Y160878D01*
X184286Y161671D01*
X183837Y162343D01*
X183632Y162480D01*
Y176942D01*
X179096D01*
Y180194D01*
X183410D01*
Y196008D01*
X183837Y196293D01*
X184286Y196965D01*
X184444Y197758D01*
Y216014D01*
X184372Y216375D01*
X184313Y216739D01*
X184293Y216770D01*
X184286Y216807D01*
X184081Y217113D01*
X183888Y217426D01*
X182522Y218892D01*
X182492Y218914D01*
X182471Y218945D01*
X182165Y219150D01*
X181866Y219365D01*
X181830Y219373D01*
X181799Y219394D01*
X181438Y219466D01*
X181079Y219551D01*
X181006Y221497D01*
Y224496D01*
X172974D01*
Y226528D01*
X181006D01*
Y226574D01*
X182363Y227688D01*
X183038Y227812D01*
X183238Y227851D01*
X183442D01*
X183631Y227929D01*
X183831Y227969D01*
X184000Y228083D01*
X184189Y228161D01*
X184333Y228305D01*
X184503Y228418D01*
X184616Y228588D01*
X184761Y228732D01*
X184839Y228921D01*
X184952Y229090D01*
X185005Y229218D01*
X185513Y229978D01*
X186160Y230625D01*
X186920Y231133D01*
X187765Y231483D01*
X188056Y231541D01*
X189606Y230620D01*
X190088Y230051D01*
Y226528D01*
X198120D01*
Y225512D01*
X199136D01*
Y217480D01*
X206152D01*
X207282Y215916D01*
Y202914D01*
X201462Y197094D01*
X190088D01*
Y182618D01*
X190088Y181030D01*
X190088Y178998D01*
Y173570D01*
X206152D01*
Y178998D01*
X206152Y180586D01*
X206152Y182618D01*
Y191896D01*
X213250Y198994D01*
X214008Y200128D01*
X214274Y201466D01*
Y216880D01*
X216564Y219170D01*
X216782Y219226D01*
X218397Y218129D01*
X218309Y217690D01*
Y215590D01*
X218494Y214661D01*
X219021Y213873D01*
X219809Y213346D01*
X220738Y213161D01*
X234938D01*
X235867Y213346D01*
X236655Y213873D01*
X237182Y214661D01*
X237267Y215091D01*
X238607Y216150D01*
X239283Y216456D01*
X241285D01*
X241510Y216549D01*
X243542Y215191D01*
Y212341D01*
X243088Y211969D01*
X240988D01*
X240059Y211784D01*
X239271Y211257D01*
X238744Y210469D01*
X238559Y209540D01*
Y202528D01*
X238542Y202440D01*
Y199104D01*
X238176Y198859D01*
X228070Y188753D01*
X219950D01*
Y172943D01*
X233014D01*
Y183809D01*
X238729Y189524D01*
X240442Y188363D01*
Y172943D01*
X253506D01*
X253542Y170926D01*
Y155132D01*
X236594Y138184D01*
X225474D01*
Y122120D01*
X241538D01*
Y133240D01*
X259510Y151212D01*
X259510Y151212D01*
X260268Y152346D01*
X260534Y153684D01*
X260534Y153684D01*
Y192539D01*
X260988Y192911D01*
X263088D01*
X263545Y192537D01*
Y192118D01*
X263811Y190780D01*
X264569Y189646D01*
X288285Y165930D01*
X289419Y165172D01*
X290757Y164906D01*
X292584D01*
X293426Y162874D01*
X293168Y162616D01*
X292402Y160767D01*
Y158765D01*
X293168Y156916D01*
X293938Y156146D01*
Y65710D01*
X280815Y52588D01*
X280478Y52782D01*
X277927Y53466D01*
X275285D01*
X272734Y52782D01*
X270446Y51462D01*
X268578Y49594D01*
X267258Y47306D01*
X266574Y44755D01*
Y42113D01*
X267258Y39562D01*
X268578Y37274D01*
X270446Y35406D01*
X272734Y34086D01*
X275285Y33402D01*
X277927D01*
X280478Y34086D01*
X282766Y35406D01*
X284634Y37274D01*
X285954Y39562D01*
X286638Y42113D01*
Y44755D01*
X285954Y47306D01*
X285760Y47643D01*
X299906Y61790D01*
X300664Y62924D01*
X300930Y64262D01*
Y156146D01*
X301700Y156916D01*
X302466Y158765D01*
Y160767D01*
X301700Y162616D01*
X301443Y162874D01*
X302284Y164906D01*
X323418D01*
X342706Y145618D01*
Y130131D01*
X342507Y130078D01*
X340325Y128818D01*
X338543Y127035D01*
X337282Y124853D01*
X336630Y122418D01*
Y119898D01*
X337282Y117463D01*
X338543Y115281D01*
X340325Y113498D01*
X342507Y112238D01*
X344942Y111586D01*
X347462D01*
X349897Y112238D01*
X352079Y113498D01*
X353862Y115281D01*
X355122Y117463D01*
X355774Y119898D01*
Y122418D01*
X355122Y124853D01*
X353862Y127035D01*
X352079Y128818D01*
X349897Y130078D01*
X349698Y130131D01*
Y147066D01*
X349432Y148404D01*
X348674Y149538D01*
X328819Y169393D01*
X329661Y171425D01*
X342299D01*
X368106Y145618D01*
Y130131D01*
X367907Y130078D01*
X365725Y128818D01*
X363942Y127035D01*
X362682Y124853D01*
X362030Y122418D01*
Y119898D01*
X362682Y117463D01*
X363942Y115281D01*
X365725Y113498D01*
X367907Y112238D01*
X370342Y111586D01*
X372862D01*
X375297Y112238D01*
X377479Y113498D01*
X379262Y115281D01*
X380522Y117463D01*
X381174Y119898D01*
Y122418D01*
X380522Y124853D01*
X379262Y127035D01*
X377479Y128818D01*
X375297Y130078D01*
X375098Y130131D01*
Y147066D01*
X375098Y147066D01*
X374832Y148404D01*
X374074Y149538D01*
X374074Y149538D01*
X347700Y175912D01*
X348542Y177944D01*
X361179D01*
X393506Y145618D01*
Y130131D01*
X393307Y130078D01*
X391125Y128818D01*
X389342Y127035D01*
X388082Y124853D01*
X387430Y122418D01*
Y119898D01*
X388082Y117463D01*
X389342Y115281D01*
X391125Y113498D01*
X393307Y112238D01*
X395742Y111586D01*
X398262D01*
X400697Y112238D01*
X402879Y113498D01*
X404661Y115281D01*
X405922Y117463D01*
X406574Y119898D01*
Y122418D01*
X405922Y124853D01*
X404661Y127035D01*
X402879Y128818D01*
X400697Y130078D01*
X400498Y130131D01*
Y147066D01*
X400232Y148404D01*
X399474Y149538D01*
X366581Y182432D01*
X367422Y184464D01*
X380060D01*
X418906Y145618D01*
Y130730D01*
X412830D01*
Y111586D01*
X431974D01*
Y130730D01*
X425898D01*
Y147066D01*
X425898Y147066D01*
X425632Y148404D01*
X424874Y149538D01*
X424874Y149538D01*
X383980Y190432D01*
X382846Y191190D01*
X381508Y191456D01*
X300220D01*
X299604Y193488D01*
X299805Y193623D01*
X300332Y194411D01*
X300517Y195340D01*
Y209540D01*
X300332Y210469D01*
X300166Y210717D01*
X299880Y211578D01*
X300300Y213128D01*
X302108Y213755D01*
X302919Y213540D01*
X303209Y213346D01*
X304138Y213161D01*
X318338D01*
X319267Y213346D01*
X320055Y213873D01*
X320582Y214661D01*
X320767Y215590D01*
Y217690D01*
X320582Y218619D01*
X320234Y219140D01*
X320582Y219661D01*
X320767Y220590D01*
Y222690D01*
X320582Y223619D01*
X320234Y224140D01*
X320582Y224661D01*
X320767Y225590D01*
Y227690D01*
X320582Y228619D01*
X320234Y229140D01*
X320582Y229661D01*
X320767Y230590D01*
Y232690D01*
X320582Y233619D01*
X320234Y234140D01*
X320582Y234661D01*
X320767Y235590D01*
Y237690D01*
X320582Y238619D01*
X320234Y239140D01*
X320582Y239661D01*
X320767Y240590D01*
Y242690D01*
X320582Y243619D01*
X320234Y244140D01*
X320582Y244661D01*
X320767Y245590D01*
Y247690D01*
X320582Y248619D01*
X320234Y249140D01*
X320582Y249661D01*
X320767Y250590D01*
Y252690D01*
X321137Y253141D01*
X325353D01*
X327212Y251282D01*
Y245618D01*
X327478Y244280D01*
X328236Y243146D01*
X333359Y238022D01*
X333147Y236952D01*
X333549Y234930D01*
X334694Y233216D01*
X336408Y232070D01*
X338430Y231668D01*
X350780D01*
X352802Y232070D01*
X354516Y233216D01*
X355661Y234930D01*
X356063Y236952D01*
X355661Y238973D01*
X354516Y240688D01*
X352802Y241833D01*
X350780Y242235D01*
X341055D01*
X340989Y242336D01*
X342091Y244368D01*
X350780D01*
X352802Y244770D01*
X352963Y244878D01*
X361563D01*
X361772Y244792D01*
X372908Y233655D01*
X374421Y232645D01*
X376204Y232290D01*
X389729D01*
X390058Y232070D01*
X392080Y231668D01*
X404430D01*
X406452Y232070D01*
X408166Y233216D01*
X409311Y234930D01*
X409713Y236952D01*
X409311Y238973D01*
X408166Y240688D01*
X406452Y241833D01*
X404430Y242235D01*
X392080D01*
X390058Y241833D01*
X389729Y241613D01*
X378135D01*
X368364Y251384D01*
X367994Y252278D01*
X366578Y253694D01*
X364729Y254460D01*
X362727D01*
X362103Y254201D01*
X353298D01*
X352802Y254533D01*
X350780Y254935D01*
X338430D01*
X336408Y254533D01*
X335975Y254244D01*
X335620Y254213D01*
X333414Y254852D01*
X333180Y255202D01*
X333180Y255202D01*
X329273Y259109D01*
X329108Y260785D01*
X331174Y262851D01*
X332176Y262597D01*
X333213Y262017D01*
X333549Y260330D01*
X334694Y258615D01*
X336408Y257470D01*
X338430Y257068D01*
X343589D01*
Y262351D01*
Y267635D01*
X341000D01*
X339797Y269501D01*
X339830Y269667D01*
X339986Y269768D01*
X350780D01*
X352802Y270170D01*
X354516Y271315D01*
X355661Y273030D01*
X356063Y275051D01*
X355661Y277073D01*
X354516Y278787D01*
X352802Y279933D01*
X350780Y280335D01*
X338699D01*
X338212Y280971D01*
X337765Y282274D01*
X341300Y285810D01*
X401066D01*
X402404Y286076D01*
X403538Y286834D01*
X430208Y313504D01*
X430966Y314638D01*
X431232Y315976D01*
Y412826D01*
X454829Y436422D01*
X455858Y435828D01*
X458918Y435008D01*
X462086D01*
X465146Y435828D01*
X467890Y437412D01*
X470130Y439652D01*
X471714Y442396D01*
X472150Y444023D01*
X474254D01*
X474690Y442396D01*
X476274Y439652D01*
X478514Y437412D01*
X481258Y435828D01*
X484318Y435008D01*
X487486D01*
X490546Y435828D01*
X493290Y437412D01*
X495530Y439652D01*
X497114Y442396D01*
X497934Y445456D01*
Y448624D01*
X497114Y451684D01*
X495530Y454428D01*
X493290Y456668D01*
X490546Y458252D01*
X487755Y459000D01*
X487402Y460775D01*
X486391Y462287D01*
X476498Y472180D01*
X474986Y473191D01*
X473202Y473546D01*
X409284D01*
Y499551D01*
X409520Y499905D01*
X409678Y500698D01*
Y508698D01*
X409520Y509491D01*
X409071Y510163D01*
X408399Y510612D01*
X407606Y510770D01*
X399606D01*
X399508Y510750D01*
X397577Y510964D01*
X396566Y512476D01*
X388094Y520948D01*
X386582Y521959D01*
X384798Y522314D01*
X239776D01*
X237992Y521959D01*
X236480Y520948D01*
X192284Y476752D01*
X191273Y475240D01*
X190918Y473456D01*
Y439537D01*
X190548Y438643D01*
Y436641D01*
X191014Y435517D01*
X189994Y433724D01*
X189792Y433561D01*
X189083Y433607D01*
X188840Y433850D01*
X188320Y434628D01*
X187962Y435494D01*
X187769Y436462D01*
X187746Y436931D01*
Y472694D01*
Y473970D01*
X187706Y474170D01*
Y474374D01*
X187208Y476877D01*
X187130Y477065D01*
X187090Y477265D01*
X186114Y479623D01*
X186000Y479793D01*
X185922Y479981D01*
X184505Y482103D01*
X184360Y482247D01*
X184247Y482417D01*
X182443Y484221D01*
X182273Y484334D01*
X182129Y484479D01*
X180007Y485896D01*
X179819Y485974D01*
X179649Y486088D01*
X177291Y487064D01*
X177091Y487104D01*
X176903Y487182D01*
X174400Y487680D01*
X174196D01*
X173996Y487720D01*
X82765D01*
X82565Y487680D01*
X82361D01*
X80791Y487368D01*
X80602Y487290D01*
X80402Y487250D01*
X78923Y486637D01*
X78753Y486524D01*
X78565Y486446D01*
X77234Y485556D01*
X77089Y485412D01*
X76920Y485298D01*
X75788Y484166D01*
X75674Y483997D01*
X75530Y483852D01*
X74640Y482521D01*
X74562Y482332D01*
X74449Y482163D01*
X73836Y480684D01*
X73796Y480484D01*
X73718Y480295D01*
X73406Y478725D01*
Y478521D01*
X73366Y478321D01*
Y477520D01*
X73368Y477511D01*
X73366Y477503D01*
X73414Y471749D01*
X71891Y471108D01*
X71387Y471065D01*
X71362Y471090D01*
X71249Y471260D01*
X69940Y472569D01*
X69770Y472682D01*
X69626Y472826D01*
X68087Y473855D01*
X67898Y473933D01*
X67729Y474047D01*
X66018Y474755D01*
X65818Y474795D01*
X65630Y474873D01*
X63814Y475234D01*
X63610D01*
X63410Y475274D01*
X52955D01*
X52551Y477306D01*
X56497Y478940D01*
X56581Y478997D01*
X56678Y479026D01*
X61871Y481801D01*
X61949Y481866D01*
X62042Y481904D01*
X66938Y485176D01*
X67010Y485247D01*
X67099Y485295D01*
X71651Y489030D01*
X71715Y489108D01*
X71799Y489165D01*
X75962Y493328D01*
X76019Y493412D01*
X76097Y493476D01*
X79832Y498028D01*
X79880Y498117D01*
X79951Y498189D01*
X83223Y503084D01*
X83261Y503178D01*
X83326Y503256D01*
X86101Y508449D01*
X86131Y508546D01*
X86187Y508630D01*
X88440Y514070D01*
X88460Y514169D01*
X88507Y514258D01*
X90217Y519893D01*
X90226Y519993D01*
X90265Y520087D01*
X91414Y525862D01*
Y525963D01*
X91443Y526060D01*
X92020Y531920D01*
X92013Y531995D01*
X92030Y532069D01*
X92102Y535013D01*
X92098Y535038D01*
X92103Y535064D01*
Y560064D01*
Y561833D01*
X92793Y565302D01*
X94147Y568571D01*
X96112Y571513D01*
X98614Y574015D01*
X101556Y575980D01*
X104825Y577334D01*
X108294Y578024D01*
X110063Y578024D01*
X440064Y578024D01*
D02*
G37*
G36*
X478433Y457060D02*
Y456587D01*
X476274Y454428D01*
X474690Y451684D01*
X474254Y450057D01*
X472150D01*
X471714Y451684D01*
X470130Y454428D01*
X467890Y456668D01*
X465146Y458252D01*
X462086Y459072D01*
X458918D01*
X455858Y458252D01*
X453114Y456668D01*
X450874Y454428D01*
X449290Y451684D01*
X448854Y450057D01*
X446750D01*
X446314Y451684D01*
X444730Y454428D01*
X442490Y456668D01*
X439746Y458252D01*
X436686Y459072D01*
X433518D01*
X430458Y458252D01*
X427714Y456668D01*
X425474Y454428D01*
X423890Y451684D01*
X423454Y450057D01*
X421350D01*
X420914Y451684D01*
X419330Y454428D01*
X417090Y456668D01*
X414346Y458252D01*
X411286Y459072D01*
X410718D01*
Y447040D01*
Y435008D01*
X411286D01*
X414346Y435828D01*
X417090Y437412D01*
X419330Y439652D01*
X420914Y442396D01*
X421350Y444023D01*
X423454D01*
X423890Y442396D01*
X424484Y441367D01*
X404436Y421318D01*
X403678Y420184D01*
X403412Y418846D01*
Y327330D01*
X400466Y324384D01*
X398476Y325268D01*
X398476Y326194D01*
Y331502D01*
X391460D01*
Y324486D01*
X396629D01*
X397694Y324486D01*
X398578Y322496D01*
X396223Y320142D01*
X332140D01*
X332140Y320142D01*
X330802Y319876D01*
X329668Y319118D01*
X329668Y319118D01*
X308766Y298216D01*
X308008Y297082D01*
X307742Y295744D01*
Y275133D01*
X301985D01*
X300647Y274867D01*
X299513Y274109D01*
X265244Y239840D01*
X264486Y238706D01*
X264220Y237368D01*
Y220536D01*
X263450Y219766D01*
X262684Y217917D01*
Y215915D01*
X263450Y214066D01*
X263571Y213944D01*
X263332Y212965D01*
X262673Y211969D01*
X260988D01*
X260059Y211784D01*
X259538Y211436D01*
X259017Y211784D01*
X258088Y211969D01*
X255988D01*
X255059Y211784D01*
X254538Y211436D01*
X254017Y211784D01*
X253088Y211969D01*
X250988D01*
X250534Y212341D01*
Y244828D01*
X262548Y256842D01*
X263637D01*
X265486Y257608D01*
X266902Y259024D01*
X267668Y260873D01*
Y262875D01*
X266902Y264724D01*
X265893Y265734D01*
X266037Y267447D01*
X266273Y268008D01*
X267163Y268377D01*
X268579Y269793D01*
X269345Y271642D01*
Y273644D01*
X269021Y274425D01*
X269020Y275033D01*
X270515Y276406D01*
X270988Y276311D01*
X273088D01*
X274017Y276496D01*
X274538Y276844D01*
X275059Y276496D01*
X275988Y276311D01*
X278088D01*
X279017Y276496D01*
X279538Y276844D01*
X280059Y276496D01*
X280988Y276311D01*
X283088D01*
X284017Y276496D01*
X284538Y276844D01*
X285059Y276496D01*
X285988Y276311D01*
X288088D01*
X289017Y276496D01*
X289538Y276844D01*
X290059Y276496D01*
X290988Y276311D01*
X293088D01*
X294017Y276496D01*
X294538Y276844D01*
X295059Y276496D01*
X295988Y276311D01*
X298088D01*
X299017Y276496D01*
X299805Y277023D01*
X300332Y277811D01*
X300517Y278740D01*
Y285752D01*
X300534Y285840D01*
Y326070D01*
X312921Y338456D01*
X314377Y337066D01*
X313611Y335217D01*
Y333215D01*
X314377Y331366D01*
X315793Y329950D01*
X317642Y329184D01*
X318731D01*
X322473Y325442D01*
X322473Y325442D01*
X323607Y324684D01*
X324945Y324418D01*
X324945Y324418D01*
X364744D01*
X366082Y324684D01*
X367216Y325442D01*
X377630Y335856D01*
X377630Y335856D01*
X378388Y336990D01*
X378654Y338328D01*
X378654Y338328D01*
Y371444D01*
X378945Y372954D01*
X380962Y373188D01*
X382260Y371889D01*
Y362519D01*
X382260Y362136D01*
X382412Y360550D01*
X382412Y360550D01*
Y344486D01*
X398476D01*
Y360550D01*
X394649D01*
X393740Y361910D01*
X391584Y364067D01*
Y373326D01*
X394827D01*
Y386390D01*
X380780D01*
X379938Y388422D01*
X384918Y393402D01*
X385196Y393818D01*
X394827D01*
Y406882D01*
X379017D01*
Y397585D01*
X378969Y397341D01*
X372686Y391058D01*
X371928Y389924D01*
X371662Y388586D01*
Y388573D01*
X371205Y386730D01*
X369630Y386730D01*
X364316D01*
Y380198D01*
X362284D01*
Y386730D01*
X356600D01*
X355395Y386730D01*
X354568Y388419D01*
Y392469D01*
X355245Y393852D01*
X356547Y394158D01*
X371205D01*
Y407222D01*
X360230D01*
X357993Y409459D01*
X356859Y410217D01*
X355660Y410456D01*
X355160Y411227D01*
X354691Y412360D01*
X406553Y464222D01*
X471271D01*
X478433Y457060D01*
D02*
G37*
G36*
X449290Y442396D02*
X449884Y441367D01*
X425264Y416746D01*
X424506Y415612D01*
X424240Y414274D01*
Y317424D01*
X399618Y292802D01*
X339852D01*
X338514Y292536D01*
X337380Y291778D01*
X327474Y281872D01*
X326716Y280738D01*
X326450Y279400D01*
Y276276D01*
X322635Y272462D01*
X320638Y273338D01*
X320582Y273619D01*
X320055Y274407D01*
X319267Y274934D01*
X318338Y275119D01*
X317137D01*
X317034Y275139D01*
X317019Y275136D01*
X314734D01*
Y294296D01*
X333588Y313150D01*
X397672D01*
X399010Y313416D01*
X400144Y314174D01*
X409380Y323410D01*
X410138Y324544D01*
X410404Y325882D01*
X410404Y325882D01*
Y417398D01*
X429429Y436422D01*
X430458Y435828D01*
X433518Y435008D01*
X436686D01*
X439746Y435828D01*
X442490Y437412D01*
X444730Y439652D01*
X446314Y442396D01*
X446750Y444023D01*
X448854D01*
X449290Y442396D01*
D02*
G37*
G36*
X383865Y511509D02*
X383101Y509730D01*
X382285D01*
X380436Y508964D01*
X379020Y507548D01*
X378260Y505714D01*
X383286D01*
Y504698D01*
X384302D01*
Y499672D01*
X385344Y500104D01*
X386905Y499911D01*
X387849Y499271D01*
X387917Y499169D01*
X388589Y498720D01*
X389382Y498562D01*
X397510D01*
X397937Y498647D01*
X399960Y497570D01*
Y470815D01*
X347581Y418435D01*
X329653D01*
X328759Y418806D01*
X326757D01*
X324908Y418040D01*
X323492Y416624D01*
X322726Y414775D01*
Y412773D01*
X323492Y410923D01*
X323573Y409459D01*
X315007Y400893D01*
X312900Y400960D01*
X312695Y401209D01*
Y403234D01*
X312512Y404159D01*
X311988Y404943D01*
X311422Y406414D01*
X311655Y407423D01*
X312099Y408496D01*
Y410498D01*
X311333Y412347D01*
X309917Y413763D01*
X308068Y414529D01*
X307164D01*
X305752Y416431D01*
X306022Y417083D01*
Y419085D01*
X305256Y420934D01*
X303840Y422350D01*
X302709Y422818D01*
X302011Y424993D01*
X308556Y431539D01*
X317676D01*
Y450603D01*
X303612D01*
Y436483D01*
X294653Y427524D01*
X292775Y428302D01*
Y441577D01*
X298779Y447581D01*
X298779Y447581D01*
X300070Y449514D01*
X300523Y451793D01*
Y473900D01*
X302227Y475603D01*
X303487Y477785D01*
X304139Y480220D01*
Y482740D01*
X303487Y485175D01*
X302227Y487357D01*
X300444Y489140D01*
X298262Y490400D01*
X295827Y491052D01*
X293307D01*
X290872Y490400D01*
X288690Y489140D01*
X286908Y487357D01*
X285647Y485175D01*
X284995Y482740D01*
Y480220D01*
X285647Y477785D01*
X286908Y475603D01*
X288610Y473900D01*
Y454260D01*
X283884Y449534D01*
X281279Y449775D01*
X275523Y455530D01*
Y473900D01*
X277227Y475603D01*
X278487Y477785D01*
X279139Y480220D01*
Y482740D01*
X278487Y485175D01*
X277227Y487357D01*
X275444Y489140D01*
X273262Y490400D01*
X270827Y491052D01*
X268307D01*
X265872Y490400D01*
X263690Y489140D01*
X261908Y487357D01*
X260647Y485175D01*
X259995Y482740D01*
Y480220D01*
X260647Y477785D01*
X261908Y475603D01*
X263610Y473900D01*
Y453063D01*
X264064Y450784D01*
X265355Y448851D01*
X271111Y443096D01*
Y428083D01*
X269233Y427305D01*
X260589Y435949D01*
Y437468D01*
X260589Y437468D01*
X260522Y437806D01*
Y450603D01*
X246458D01*
Y432094D01*
X228522D01*
Y440055D01*
X214458D01*
Y432094D01*
X200022D01*
X199180Y434126D01*
X199846Y434792D01*
X200612Y436641D01*
Y438643D01*
X200242Y439537D01*
Y471525D01*
X241707Y512990D01*
X382669D01*
X383865Y511509D01*
D02*
G37*
G36*
X176499Y485150D02*
X178856Y484174D01*
X180978Y482756D01*
X182782Y480952D01*
X184200Y478830D01*
X185176Y476473D01*
X185674Y473970D01*
Y472694D01*
Y436880D01*
X185707Y436208D01*
X185969Y434889D01*
X186484Y433647D01*
X187231Y432529D01*
X188181Y431579D01*
X189299Y430832D01*
X190541Y430317D01*
X191860Y430055D01*
X192532Y430022D01*
X256628D01*
X268571Y418079D01*
Y411722D01*
X268639Y411381D01*
Y408499D01*
X268477Y408432D01*
X262142D01*
X262099Y408496D01*
Y410498D01*
X261333Y412347D01*
X259917Y413763D01*
X258068Y414529D01*
X256066D01*
X254217Y413763D01*
X252801Y412347D01*
X252188Y410867D01*
X250854Y410598D01*
X250072Y410665D01*
X249762Y411414D01*
X248346Y412830D01*
X246497Y413596D01*
X244495D01*
X242645Y412830D01*
X240696Y413754D01*
Y416050D01*
X232664D01*
X224632D01*
Y409034D01*
X222849Y408432D01*
X220740D01*
X218852Y408780D01*
X218852Y410464D01*
Y415796D01*
X210820D01*
Y416812D01*
D01*
Y415796D01*
X202788D01*
Y410464D01*
X202788Y408780D01*
X200900Y408432D01*
X147843D01*
X145880Y408822D01*
X144031Y409588D01*
X142367Y410700D01*
X140952Y412115D01*
X139840Y413779D01*
X139074Y415628D01*
X138684Y417591D01*
Y418592D01*
X138608Y420136D01*
X138006Y423163D01*
X136825Y426016D01*
X135109Y428582D01*
X132926Y430765D01*
X130359Y432481D01*
X127507Y433662D01*
X124480Y434264D01*
X122936Y434340D01*
X80169D01*
X78115Y435191D01*
X76543Y436763D01*
X75692Y438816D01*
Y446786D01*
X75438Y477520D01*
Y478321D01*
X75750Y479891D01*
X76363Y481370D01*
X77253Y482701D01*
X78385Y483833D01*
X79716Y484723D01*
X81195Y485336D01*
X82765Y485648D01*
X173996D01*
X176499Y485150D01*
D02*
G37*
G36*
X140902Y409235D02*
X141072Y409122D01*
X141216Y408978D01*
X142880Y407866D01*
X143069Y407788D01*
X143239Y407674D01*
X145088Y406908D01*
X145288Y406869D01*
X145476Y406790D01*
X147439Y406400D01*
X147643D01*
X147843Y406360D01*
X152593D01*
Y360172D01*
X152837Y358315D01*
X153554Y356585D01*
X154694Y355100D01*
X186570Y323224D01*
X188055Y322084D01*
X189785Y321367D01*
X191642Y321123D01*
X224632D01*
Y320264D01*
X240696D01*
Y336328D01*
X240696D01*
Y336772D01*
X240696D01*
Y348018D01*
X252560Y359882D01*
X253318Y361016D01*
X253584Y362354D01*
X253584Y362354D01*
Y368572D01*
X253855Y368794D01*
X261280D01*
X262204Y368978D01*
X262988Y369501D01*
X263512Y370285D01*
X263695Y371209D01*
Y373234D01*
X263512Y374159D01*
X263135Y374722D01*
X263512Y375285D01*
X263695Y376209D01*
Y378234D01*
X263512Y379159D01*
X263135Y379722D01*
X263512Y380285D01*
X263695Y381209D01*
Y383234D01*
X263512Y384159D01*
X263135Y384722D01*
X263512Y385285D01*
X263695Y386209D01*
Y388234D01*
X263512Y389159D01*
X263135Y389722D01*
X263512Y390285D01*
X263695Y391206D01*
X257567D01*
Y393238D01*
X263695D01*
X263512Y394159D01*
X263135Y394722D01*
X263512Y395285D01*
X263695Y396209D01*
Y398234D01*
X263512Y399159D01*
X263135Y399722D01*
X263512Y400285D01*
X263695Y401209D01*
Y403234D01*
X263512Y404159D01*
X263398Y404328D01*
X263451Y404455D01*
X265130Y405777D01*
X266054Y405593D01*
X268079D01*
X269004Y405777D01*
X269567Y406154D01*
X270130Y405777D01*
X271054Y405593D01*
X273079D01*
X274004Y405777D01*
X274567Y406154D01*
X275130Y405777D01*
X276054Y405593D01*
X278079D01*
X279004Y405777D01*
X279567Y406154D01*
X280130Y405777D01*
X281054Y405593D01*
X283079D01*
X284004Y405777D01*
X284567Y406154D01*
X285130Y405777D01*
X286054Y405593D01*
X288079D01*
X289004Y405777D01*
X289567Y406154D01*
X290130Y405777D01*
X291054Y405593D01*
X293079D01*
X294004Y405777D01*
X294567Y406154D01*
X295130Y405777D01*
X296054Y405593D01*
X298079D01*
X299004Y405777D01*
X299252Y405943D01*
X301016Y405648D01*
X301146Y404955D01*
X301146Y404943D01*
X300623Y404159D01*
X300439Y403234D01*
Y401209D01*
X300623Y400285D01*
X300999Y399722D01*
X300623Y399159D01*
X300439Y398234D01*
Y396209D01*
X300623Y395285D01*
X300999Y394722D01*
X300623Y394159D01*
X300439Y393234D01*
Y391209D01*
X300623Y390285D01*
X300999Y389722D01*
X300623Y389159D01*
X300439Y388238D01*
X306567D01*
Y386206D01*
X300439D01*
X300623Y385285D01*
X300999Y384722D01*
X300623Y384159D01*
X300439Y383234D01*
Y381209D01*
X300623Y380285D01*
X300999Y379722D01*
X300623Y379159D01*
X300439Y378234D01*
Y376209D01*
X300623Y375285D01*
X300999Y374722D01*
X300623Y374159D01*
X300439Y373234D01*
Y371209D01*
X300623Y370285D01*
X300510Y370104D01*
X299004Y368666D01*
X298079Y368850D01*
X296054D01*
X295130Y368666D01*
X294567Y368290D01*
X294004Y368666D01*
X293083Y368850D01*
Y362722D01*
X291051D01*
Y368850D01*
X290130Y368666D01*
X289567Y368290D01*
X289004Y368666D01*
X288079Y368850D01*
X286054D01*
X285130Y368666D01*
X284567Y368290D01*
X284004Y368666D01*
X283079Y368850D01*
X281054D01*
X280130Y368666D01*
X279567Y368290D01*
X279004Y368666D01*
X278079Y368850D01*
X276054D01*
X275130Y368666D01*
X274567Y368290D01*
X274004Y368666D01*
X273079Y368850D01*
X271054D01*
X270130Y368666D01*
X269567Y368290D01*
X269004Y368666D01*
X268079Y368850D01*
X266054D01*
X265130Y368666D01*
X264346Y368143D01*
X263822Y367359D01*
X263639Y366435D01*
Y363252D01*
X263524Y362675D01*
Y357135D01*
X262759Y356818D01*
X261343Y355402D01*
X260577Y353553D01*
Y351551D01*
X261343Y349702D01*
X262759Y348286D01*
X264608Y347520D01*
X266610D01*
X268542Y346121D01*
Y300430D01*
X266665Y299652D01*
X253202Y313114D01*
X252068Y313872D01*
X250730Y314138D01*
X233744D01*
X232974Y314908D01*
X231125Y315674D01*
X229123D01*
X227274Y314908D01*
X225858Y313492D01*
X225092Y311643D01*
Y309641D01*
X225858Y307792D01*
X227274Y306376D01*
X229123Y305610D01*
X231125D01*
X231723Y305858D01*
X232266Y305410D01*
X233076Y304219D01*
X232471Y302759D01*
Y300757D01*
X233237Y298907D01*
X234653Y297492D01*
X236502Y296726D01*
X238504D01*
X240353Y297492D01*
X241123Y298262D01*
X247524D01*
X248197Y297355D01*
X247142Y295369D01*
X245988D01*
X245059Y295184D01*
X244538Y294836D01*
X244017Y295184D01*
X243088Y295369D01*
X240988D01*
X240059Y295184D01*
X239271Y294657D01*
X238744Y293869D01*
X238559Y292940D01*
Y278740D01*
X238744Y277811D01*
X239271Y277023D01*
X240059Y276496D01*
X240988Y276311D01*
X243088D01*
X244017Y276496D01*
X244538Y276844D01*
X245059Y276496D01*
X245988Y276311D01*
X248088D01*
X248725Y276438D01*
X248811Y276005D01*
X249569Y274871D01*
X254269Y270171D01*
X255403Y269413D01*
X256741Y269147D01*
X259131D01*
X259853Y268367D01*
X259786Y266140D01*
X258370Y264724D01*
X257604Y262875D01*
Y261786D01*
X250837Y255019D01*
X248960Y255797D01*
Y262783D01*
X248920Y262983D01*
Y263187D01*
X248512Y265239D01*
X248434Y265428D01*
X248394Y265628D01*
X247593Y267561D01*
X247480Y267730D01*
X247402Y267919D01*
X246240Y269658D01*
X246096Y269802D01*
X245982Y269972D01*
X244503Y271451D01*
X244333Y271565D01*
X244189Y271709D01*
X242449Y272871D01*
X242261Y272949D01*
X242091Y273063D01*
X240159Y273863D01*
X239958Y273903D01*
X239770Y273981D01*
X239342Y274066D01*
X239239D01*
X239140Y274096D01*
X238838Y274066D01*
X238533D01*
X238404Y274024D01*
X238336Y274017D01*
X237710Y273801D01*
X236655Y274407D01*
X235867Y274934D01*
X234938Y275119D01*
X220738D01*
X219809Y274934D01*
X219021Y274407D01*
X218950Y274302D01*
X218309Y274429D01*
X206152D01*
Y278724D01*
X198120D01*
X190088D01*
Y274429D01*
X181006D01*
Y278724D01*
X172974D01*
X164942D01*
Y274429D01*
X128816D01*
X128616Y274389D01*
X128412D01*
X123505Y273413D01*
X123316Y273335D01*
X123116Y273295D01*
X118494Y271381D01*
X118324Y271267D01*
X118136Y271189D01*
X114720Y268907D01*
X114661Y268871D01*
X112913Y269920D01*
X112885Y269945D01*
X80290Y302540D01*
X78274Y304087D01*
X75926Y305060D01*
X73406Y305391D01*
X39965D01*
X39560Y305897D01*
X39050Y307350D01*
X56736Y325037D01*
X88424D01*
X90239Y322321D01*
X92959Y319601D01*
X96158Y317463D01*
X99713Y315991D01*
X103486Y315240D01*
X107334D01*
X111107Y315991D01*
X114662Y317463D01*
X117861Y319601D01*
X120582Y322321D01*
X122719Y325520D01*
X124191Y329075D01*
X124942Y332848D01*
Y336696D01*
X124191Y340469D01*
X122719Y344024D01*
X120582Y347223D01*
X117861Y349944D01*
X114662Y352081D01*
X111107Y353553D01*
X107334Y354304D01*
X103486D01*
X99713Y353553D01*
X96158Y352081D01*
X92959Y349944D01*
X90239Y347223D01*
X88424Y344507D01*
X70006D01*
X69390Y346539D01*
X70230Y347100D01*
X72950Y349821D01*
X75088Y353020D01*
X76560Y356575D01*
X77311Y360348D01*
Y361148D01*
X113983D01*
X114183Y361188D01*
X114387D01*
X119245Y362154D01*
X119433Y362232D01*
X119634Y362272D01*
X124210Y364168D01*
X124380Y364281D01*
X124568Y364359D01*
X128687Y367111D01*
X128831Y367255D01*
X129001Y367369D01*
X132503Y370871D01*
X132617Y371041D01*
X132761Y371185D01*
X135513Y375304D01*
X135591Y375492D01*
X135704Y375662D01*
X137600Y380238D01*
X137640Y380438D01*
X137718Y380627D01*
X138684Y385485D01*
Y385689D01*
X138724Y385889D01*
Y388366D01*
Y408540D01*
X140756Y409382D01*
X140902Y409235D01*
D02*
G37*
G36*
X202110Y405700D02*
X202788Y405135D01*
Y401320D01*
X210820D01*
Y400304D01*
X211836D01*
Y392272D01*
X216052D01*
X216894Y390240D01*
X207078Y380424D01*
X206320Y379290D01*
X206054Y377952D01*
Y348806D01*
X205284Y348036D01*
X204518Y346187D01*
Y344185D01*
X205284Y342336D01*
X206700Y340920D01*
X208549Y340154D01*
X210551D01*
X212400Y340920D01*
X213816Y342336D01*
X214582Y344185D01*
Y346187D01*
X213816Y348036D01*
X213046Y348806D01*
Y376504D01*
X222100Y385558D01*
X224132Y384716D01*
Y376966D01*
X237835D01*
X238613Y375089D01*
X235295Y371771D01*
X234537Y370637D01*
X234271Y369299D01*
Y369030D01*
X224132D01*
Y357966D01*
X238101D01*
X238878Y356089D01*
X235626Y352836D01*
X224632D01*
Y336772D01*
X223140Y335469D01*
X194613D01*
X166939Y363143D01*
Y406360D01*
X200900D01*
X202110Y405700D01*
D02*
G37*
G36*
X331820Y360904D02*
X347884D01*
X348352Y359066D01*
Y355098D01*
X348455Y354582D01*
X348412Y352550D01*
X348412Y352550D01*
X348412Y352550D01*
Y332486D01*
X346826Y331410D01*
X326393D01*
X323675Y334128D01*
Y335217D01*
X322909Y337066D01*
X321493Y338482D01*
X319644Y339248D01*
X317642D01*
X315793Y338482D01*
X314402Y339938D01*
X326068Y351604D01*
X326826Y352738D01*
X327092Y354076D01*
Y355790D01*
X327862Y356560D01*
X328628Y358409D01*
Y360411D01*
X327862Y362260D01*
X326446Y363676D01*
X326277Y363746D01*
X326681Y365778D01*
X331820D01*
Y360904D01*
D02*
G37*
G36*
X218309Y270590D02*
X218494Y269661D01*
X218842Y269140D01*
X218494Y268619D01*
X218309Y267690D01*
Y265590D01*
X218494Y264661D01*
X218842Y264140D01*
X218494Y263619D01*
X218309Y262690D01*
Y260590D01*
X218494Y259661D01*
X218842Y259140D01*
X218494Y258619D01*
X218309Y257690D01*
Y255590D01*
X218494Y254661D01*
X219021Y253873D01*
X219809Y253346D01*
X220738Y253161D01*
X234938D01*
X235867Y253346D01*
X236655Y253873D01*
X237182Y254661D01*
X237367Y255590D01*
Y257690D01*
X237182Y258619D01*
X236834Y259140D01*
X237182Y259661D01*
X237367Y260590D01*
Y262690D01*
X237182Y263619D01*
X236834Y264140D01*
X237182Y264661D01*
X237367Y265590D01*
Y267690D01*
X237182Y268619D01*
X236834Y269140D01*
X237182Y269661D01*
X237306Y270287D01*
X237807Y271107D01*
X238937Y272034D01*
X239366Y271949D01*
X241299Y271148D01*
X243038Y269986D01*
X244517Y268507D01*
X245679Y266768D01*
X246480Y264835D01*
X246888Y262783D01*
Y251070D01*
X244566Y248748D01*
X243808Y247614D01*
X243542Y246276D01*
Y235510D01*
X242388Y234739D01*
X240832Y234095D01*
X239180Y233766D01*
X238918D01*
X238788Y233833D01*
X237367Y235590D01*
Y237690D01*
X237182Y238619D01*
X236834Y239140D01*
X237182Y239661D01*
X237367Y240590D01*
Y242690D01*
X237182Y243619D01*
X236655Y244407D01*
X235867Y244934D01*
X234938Y245119D01*
X227672D01*
X227584Y245136D01*
X217494D01*
X216156Y244870D01*
X215302Y244300D01*
X213375D01*
X211526Y243534D01*
X210110Y242118D01*
X209344Y240269D01*
Y238267D01*
X210110Y236418D01*
X210730Y235798D01*
X209888Y233766D01*
X189120D01*
X188458Y233734D01*
X187161Y233475D01*
X185939Y232969D01*
X184839Y232234D01*
X183904Y231299D01*
X183169Y230199D01*
X183038Y229883D01*
X181006Y230288D01*
Y233544D01*
X164942D01*
Y217480D01*
X166625D01*
X167754Y215791D01*
X167688Y215631D01*
Y213629D01*
X168454Y211780D01*
X169870Y210364D01*
X171719Y209598D01*
X173721D01*
X175570Y210364D01*
X176986Y211780D01*
X177752Y213629D01*
Y215631D01*
X177686Y215791D01*
X178815Y217480D01*
X181006Y217480D01*
X182372Y216014D01*
Y197758D01*
X167942D01*
X167846Y197758D01*
X165910D01*
X165814Y197758D01*
X164205D01*
X163274Y199151D01*
Y201153D01*
X162508Y203002D01*
X161092Y204418D01*
X159243Y205184D01*
X157241D01*
X155392Y204418D01*
X153976Y203002D01*
X153210Y201153D01*
Y199151D01*
X152279Y197758D01*
X150346D01*
Y180194D01*
X165814D01*
X165910Y180194D01*
X167846D01*
X167942Y180194D01*
X172104D01*
Y176942D01*
X167568D01*
Y160878D01*
X182372D01*
Y85629D01*
X170928D01*
Y69819D01*
X173964D01*
Y53466D01*
X171653D01*
X169102Y52782D01*
X166814Y51462D01*
X164946Y49594D01*
X163626Y47306D01*
X162942Y44755D01*
Y42113D01*
X163626Y39562D01*
X164946Y37274D01*
X166814Y35406D01*
X169102Y34086D01*
X171653Y33402D01*
X174295D01*
X176846Y34086D01*
X179134Y35406D01*
X180340Y36613D01*
X182372Y35771D01*
Y21343D01*
X181405Y19009D01*
X179619Y17223D01*
X177285Y16256D01*
X115417D01*
X113622Y16613D01*
X111931Y17313D01*
X110410Y18330D01*
X109116Y19624D01*
X108099Y21146D01*
X107399Y22836D01*
X107042Y24631D01*
Y45352D01*
X106997Y53339D01*
X108924Y54421D01*
X111272Y53448D01*
X113792Y53117D01*
X116312Y53448D01*
X118660Y54421D01*
X119506Y55070D01*
X122574D01*
Y58832D01*
X123196Y60332D01*
X123527Y62852D01*
Y93980D01*
X123196Y96500D01*
X122223Y98848D01*
X120676Y100864D01*
X106650Y114890D01*
X106333Y171229D01*
X114226Y179122D01*
X115773Y181138D01*
X116746Y183486D01*
X117077Y186006D01*
Y222180D01*
X132124D01*
Y249244D01*
X117077D01*
Y261720D01*
X116746Y264240D01*
X115773Y266588D01*
X115871Y267185D01*
X119287Y269466D01*
X123909Y271381D01*
X128816Y272357D01*
X164942D01*
Y271708D01*
X181006D01*
Y272357D01*
X190088D01*
Y271708D01*
X206152D01*
Y272357D01*
X218309D01*
Y270590D01*
D02*
G37*
%LPC*%
G36*
X173298Y559098D02*
X160782D01*
Y535332D01*
X173298D01*
Y559098D01*
D02*
G37*
G36*
X158750D02*
X146234D01*
Y535332D01*
X158750D01*
Y559098D01*
D02*
G37*
G36*
X173298Y533300D02*
X160782D01*
Y509534D01*
X173298D01*
Y533300D01*
D02*
G37*
G36*
X158750D02*
X146234D01*
Y509534D01*
X158750D01*
Y533300D01*
D02*
G37*
G36*
X532218Y380601D02*
X512404D01*
Y369104D01*
X477999D01*
X477492Y369864D01*
X476572Y370479D01*
X475486Y370695D01*
X464686D01*
X463601Y370479D01*
X462680Y369864D01*
X462065Y368943D01*
X461850Y367858D01*
Y363358D01*
X462065Y362272D01*
X462680Y361352D01*
X463601Y360737D01*
X464686Y360522D01*
X475486D01*
X476572Y360737D01*
X477492Y361352D01*
X477999Y362112D01*
X512404D01*
Y360787D01*
X528798D01*
X536762Y352823D01*
Y340367D01*
X534884Y339589D01*
X531767Y342706D01*
X532218Y344390D01*
Y346998D01*
X531543Y349518D01*
X530239Y351777D01*
X528394Y353622D01*
X526135Y354926D01*
X523615Y355601D01*
X521007D01*
X518487Y354926D01*
X516228Y353622D01*
X514384Y351777D01*
X513418Y350104D01*
X477999D01*
X477492Y350864D01*
X476572Y351479D01*
X475486Y351694D01*
X464686D01*
X463601Y351479D01*
X462680Y350864D01*
X462065Y349944D01*
X461850Y348858D01*
Y344358D01*
X462065Y343273D01*
X462680Y342352D01*
X463601Y341737D01*
X464686Y341521D01*
X475486D01*
X476572Y341737D01*
X477492Y342352D01*
X477999Y343112D01*
X512747D01*
X513079Y341870D01*
X514384Y339611D01*
X516228Y337766D01*
X518487Y336462D01*
X521007Y335787D01*
X523615D01*
X526135Y336462D01*
X527395Y337190D01*
X531174Y333411D01*
Y288776D01*
X516895Y274498D01*
X515635Y275225D01*
X513116Y275900D01*
X510507D01*
X507987Y275225D01*
X505728Y273921D01*
X503884Y272076D01*
X502579Y269817D01*
X501904Y267297D01*
Y264689D01*
X501647Y264354D01*
X439312D01*
Y272056D01*
X421748D01*
Y265848D01*
X408326D01*
X408166Y266087D01*
X406452Y267233D01*
X404430Y267635D01*
X392080D01*
X390058Y267233D01*
X388344Y266087D01*
X387198Y264373D01*
X386796Y262351D01*
X387198Y260330D01*
X388344Y258615D01*
X390058Y257470D01*
X392080Y257068D01*
X404430D01*
X406452Y257470D01*
X408166Y258615D01*
X408326Y258855D01*
X421748D01*
Y256492D01*
X421748D01*
Y255180D01*
X420299Y253148D01*
X408326D01*
X408166Y253388D01*
X406452Y254533D01*
X404430Y254935D01*
X392080D01*
X390058Y254533D01*
X388344Y253388D01*
X387198Y251673D01*
X386796Y249652D01*
X387198Y247630D01*
X388344Y245916D01*
X390058Y244770D01*
X392080Y244368D01*
X404430D01*
X406452Y244770D01*
X408166Y245916D01*
X408326Y246155D01*
X421748D01*
Y238992D01*
X439312D01*
Y245678D01*
X501904D01*
Y231086D01*
X521718D01*
Y244432D01*
X542730Y265444D01*
X542730Y265444D01*
X543488Y266578D01*
X543754Y267916D01*
Y354271D01*
X543488Y355609D01*
X542730Y356743D01*
X542730Y356744D01*
X532218Y367255D01*
Y380601D01*
D02*
G37*
G36*
X454286Y361194D02*
X449902D01*
Y357124D01*
X457122D01*
Y358358D01*
X456907Y359444D01*
X456292Y360364D01*
X455372Y360979D01*
X454286Y361194D01*
D02*
G37*
G36*
X447870D02*
X443486D01*
X442401Y360979D01*
X441480Y360364D01*
X440865Y359444D01*
X440649Y358358D01*
Y357124D01*
X447870D01*
Y361194D01*
D02*
G37*
G36*
X457122Y355092D02*
X449902D01*
Y351021D01*
X454286D01*
X455372Y351237D01*
X456292Y351852D01*
X456907Y352772D01*
X457122Y353858D01*
Y355092D01*
D02*
G37*
G36*
X447870D02*
X440649D01*
Y353858D01*
X440865Y352772D01*
X441480Y351852D01*
X442401Y351237D01*
X443486Y351021D01*
X447870D01*
Y355092D01*
D02*
G37*
G36*
X404430Y280335D02*
X399271D01*
Y276068D01*
X409511D01*
X409311Y277073D01*
X408166Y278787D01*
X406452Y279933D01*
X404430Y280335D01*
D02*
G37*
G36*
X397239D02*
X392080D01*
X390058Y279933D01*
X388344Y278787D01*
X387198Y277073D01*
X386998Y276068D01*
X397239D01*
Y280335D01*
D02*
G37*
G36*
X409511Y274035D02*
X399271D01*
Y269768D01*
X404430D01*
X406452Y270170D01*
X408166Y271315D01*
X409311Y273030D01*
X409511Y274035D01*
D02*
G37*
G36*
X397239D02*
X386998D01*
X387198Y273030D01*
X388344Y271315D01*
X390058Y270170D01*
X392080Y269768D01*
X397239D01*
Y274035D01*
D02*
G37*
G36*
X350780Y267635D02*
X345621D01*
Y263368D01*
X355861D01*
X355661Y264373D01*
X354516Y266087D01*
X352802Y267233D01*
X350780Y267635D01*
D02*
G37*
G36*
X355861Y261336D02*
X345621D01*
Y257068D01*
X350780D01*
X352802Y257470D01*
X354516Y258615D01*
X355661Y260330D01*
X355861Y261336D01*
D02*
G37*
G36*
X56124Y249244D02*
X32358D01*
Y236728D01*
X56124D01*
Y249244D01*
D02*
G37*
G36*
X30326D02*
X6560D01*
Y236728D01*
X30326D01*
Y249244D01*
D02*
G37*
G36*
X56124Y234696D02*
X32358D01*
Y222180D01*
X56124D01*
Y234696D01*
D02*
G37*
G36*
X30326D02*
X6560D01*
Y222180D01*
X30326D01*
Y234696D01*
D02*
G37*
G36*
X197104Y224496D02*
X190088D01*
Y217480D01*
X197104D01*
Y224496D01*
D02*
G37*
G36*
X206152Y171538D02*
X199136D01*
Y164522D01*
X206152D01*
Y171538D01*
D02*
G37*
G36*
X197104D02*
X190088D01*
Y164522D01*
X197104D01*
Y171538D01*
D02*
G37*
G36*
X94780Y144704D02*
X83014D01*
Y138938D01*
X94780D01*
Y144704D01*
D02*
G37*
G36*
X80982D02*
X69216D01*
Y138938D01*
X80982D01*
Y144704D01*
D02*
G37*
G36*
X94780Y136906D02*
X83014D01*
Y131140D01*
X94780D01*
Y136906D01*
D02*
G37*
G36*
X80982D02*
X69216D01*
Y131140D01*
X80982D01*
Y136906D01*
D02*
G37*
G36*
X220444Y132610D02*
X212678D01*
Y125844D01*
X220444D01*
Y132610D01*
D02*
G37*
G36*
X210646D02*
X202880D01*
Y125844D01*
X210646D01*
Y132610D01*
D02*
G37*
G36*
X268869Y164798D02*
X266867D01*
X265018Y164032D01*
X263602Y162616D01*
X262836Y160767D01*
Y158765D01*
X263602Y156916D01*
X264372Y156146D01*
Y120726D01*
X243084Y99438D01*
X241538Y100766D01*
X241538Y102580D01*
Y116676D01*
X225474D01*
Y110824D01*
X220444D01*
Y115014D01*
X220444Y115110D01*
Y117046D01*
X220444Y117142D01*
Y123812D01*
X202880D01*
Y117142D01*
X202880Y117046D01*
Y115110D01*
X202880Y115014D01*
Y99546D01*
X220444D01*
Y103832D01*
X225474D01*
Y100612D01*
X239512D01*
X241384Y100612D01*
X242712Y99066D01*
X224866Y81220D01*
X204484D01*
Y85629D01*
X191420D01*
Y69819D01*
X204484D01*
Y74228D01*
X226314D01*
X227652Y74494D01*
X228786Y75252D01*
X270340Y116806D01*
X271098Y117940D01*
X271364Y119278D01*
Y156146D01*
X272134Y156916D01*
X272900Y158765D01*
Y160767D01*
X272134Y162616D01*
X270718Y164032D01*
X268869Y164798D01*
D02*
G37*
G36*
X303327Y53466D02*
X303022D01*
Y44450D01*
X312038D01*
Y44755D01*
X311354Y47306D01*
X310034Y49594D01*
X308166Y51462D01*
X305878Y52782D01*
X303327Y53466D01*
D02*
G37*
G36*
X300990D02*
X300685D01*
X298134Y52782D01*
X295846Y51462D01*
X293978Y49594D01*
X292658Y47306D01*
X291974Y44755D01*
Y44450D01*
X300990D01*
Y53466D01*
D02*
G37*
G36*
X312038Y42418D02*
X303022D01*
Y33402D01*
X303327D01*
X305878Y34086D01*
X308166Y35406D01*
X310034Y37274D01*
X311354Y39562D01*
X312038Y42113D01*
Y42418D01*
D02*
G37*
G36*
X300990D02*
X291974D01*
Y42113D01*
X292658Y39562D01*
X293978Y37274D01*
X295846Y35406D01*
X298134Y34086D01*
X300685Y33402D01*
X300990D01*
Y42418D01*
D02*
G37*
G36*
X283474Y164798D02*
X281472D01*
X279623Y164032D01*
X278207Y162616D01*
X277441Y160767D01*
Y158765D01*
X278207Y156916D01*
X278977Y156146D01*
Y97739D01*
X248734Y67496D01*
X247976Y66362D01*
X247710Y65024D01*
Y53584D01*
X247206D01*
X244852Y53116D01*
X242857Y51783D01*
X241524Y49788D01*
X241056Y47434D01*
Y39434D01*
X241524Y37080D01*
X242857Y35085D01*
X244852Y33752D01*
X247206Y33284D01*
X255206D01*
X257560Y33752D01*
X259555Y35085D01*
X260888Y37080D01*
X261356Y39434D01*
Y47434D01*
X260888Y49788D01*
X259555Y51783D01*
X257560Y53116D01*
X255206Y53584D01*
X254702D01*
Y63576D01*
X284945Y93819D01*
X285703Y94953D01*
X285969Y96291D01*
Y156146D01*
X286739Y156916D01*
X287505Y158765D01*
Y160767D01*
X286739Y162616D01*
X285323Y164032D01*
X283474Y164798D01*
D02*
G37*
G36*
X408686Y459072D02*
X408118D01*
X405058Y458252D01*
X402314Y456668D01*
X400074Y454428D01*
X398490Y451684D01*
X397670Y448624D01*
Y448056D01*
X408686D01*
Y459072D01*
D02*
G37*
G36*
Y446024D02*
X397670D01*
Y445456D01*
X398490Y442396D01*
X400074Y439652D01*
X402314Y437412D01*
X405058Y435828D01*
X408118Y435008D01*
X408686D01*
Y446024D01*
D02*
G37*
G36*
X398476Y340550D02*
X391460D01*
Y333534D01*
X398476D01*
Y340550D01*
D02*
G37*
G36*
X389428D02*
X382412D01*
Y333534D01*
X389428D01*
Y340550D01*
D02*
G37*
G36*
Y331502D02*
X382412D01*
Y324486D01*
X389428D01*
Y331502D01*
D02*
G37*
G36*
X382270Y503682D02*
X378260D01*
X379020Y501848D01*
X380436Y500432D01*
X382270Y499672D01*
Y503682D01*
D02*
G37*
G36*
X329139Y491052D02*
X309995D01*
Y471908D01*
X329139D01*
Y491052D01*
D02*
G37*
G36*
X245827D02*
X243307D01*
X240872Y490400D01*
X238690Y489140D01*
X236908Y487357D01*
X235647Y485175D01*
X234995Y482740D01*
Y480220D01*
X235647Y477785D01*
X236908Y475603D01*
X238690Y473820D01*
X240872Y472560D01*
X243307Y471908D01*
X245827D01*
X248262Y472560D01*
X250444Y473820D01*
X252227Y475603D01*
X253487Y477785D01*
X254139Y480220D01*
Y482740D01*
X253487Y485175D01*
X252227Y487357D01*
X250444Y489140D01*
X248262Y490400D01*
X245827Y491052D01*
D02*
G37*
G36*
X349676Y450603D02*
X343660D01*
Y442087D01*
X349676D01*
Y450603D01*
D02*
G37*
G36*
X228522D02*
X222506D01*
Y442087D01*
X228522D01*
Y450603D01*
D02*
G37*
G36*
X220474D02*
X214458D01*
Y442087D01*
X220474D01*
Y450603D01*
D02*
G37*
G36*
X341628D02*
X335612D01*
Y442087D01*
X341628D01*
Y450603D01*
D02*
G37*
G36*
X349676Y440055D02*
X343660D01*
Y431539D01*
X349676D01*
Y440055D01*
D02*
G37*
G36*
X341628D02*
X335612D01*
Y431539D01*
X341628D01*
Y440055D01*
D02*
G37*
G36*
X240696Y425098D02*
X233680D01*
Y418082D01*
X240696D01*
Y425098D01*
D02*
G37*
G36*
X231648D02*
X224632D01*
Y418082D01*
X231648D01*
Y425098D01*
D02*
G37*
G36*
X218852Y424844D02*
X211836D01*
Y417828D01*
X218852D01*
Y424844D01*
D02*
G37*
G36*
X209804D02*
X202788D01*
Y417828D01*
X209804D01*
Y424844D01*
D02*
G37*
G36*
X206152Y287772D02*
X199136D01*
Y280756D01*
X206152D01*
Y287772D01*
D02*
G37*
G36*
X197104D02*
X190088D01*
Y280756D01*
X197104D01*
Y287772D01*
D02*
G37*
G36*
X181006Y287772D02*
X173990D01*
Y280756D01*
X181006D01*
Y287772D01*
D02*
G37*
G36*
X171958D02*
X164942D01*
Y280756D01*
X171958D01*
Y287772D01*
D02*
G37*
G36*
X209804Y399288D02*
X202788D01*
Y392272D01*
X209804D01*
Y399288D01*
D02*
G37*
G36*
X155860Y233544D02*
X139796D01*
Y217480D01*
X141214D01*
X142571Y215448D01*
X142542Y215377D01*
Y213375D01*
X143308Y211526D01*
X144724Y210110D01*
X146573Y209344D01*
X148575D01*
X150424Y210110D01*
X151840Y211526D01*
X152606Y213375D01*
Y215377D01*
X152577Y215448D01*
X153934Y217480D01*
X155860D01*
Y233544D01*
D02*
G37*
G36*
X162124Y176942D02*
X155108D01*
Y169926D01*
X162124D01*
Y176942D01*
D02*
G37*
G36*
X153076D02*
X146060D01*
Y169926D01*
X153076D01*
Y176942D01*
D02*
G37*
G36*
X162124Y167894D02*
X155108D01*
Y160878D01*
X162124D01*
Y167894D01*
D02*
G37*
G36*
X153076D02*
X146060D01*
Y160878D01*
X153076D01*
Y167894D01*
D02*
G37*
G36*
X152780Y156204D02*
X127216D01*
Y143957D01*
X125715Y142954D01*
X123713D01*
X121864Y142188D01*
X120448Y140772D01*
X119682Y138923D01*
Y136921D01*
X120448Y135072D01*
X121864Y133656D01*
X123713Y132890D01*
X125715D01*
X127216Y131887D01*
Y119640D01*
X152780D01*
Y156204D01*
D02*
G37*
G36*
X167879Y140414D02*
X165877D01*
X164028Y139648D01*
X162612Y138232D01*
X161846Y136383D01*
Y134381D01*
X161177Y133380D01*
X158592D01*
Y118904D01*
X158592Y117316D01*
X158592Y115284D01*
Y109856D01*
X174656D01*
Y115284D01*
X174656Y116872D01*
X174656Y118904D01*
Y133380D01*
X172579D01*
X171910Y134381D01*
Y136383D01*
X171144Y138232D01*
X169728Y139648D01*
X167879Y140414D01*
D02*
G37*
G36*
X174656Y107824D02*
X167640D01*
Y100808D01*
X174656D01*
Y107824D01*
D02*
G37*
G36*
X165608D02*
X158592D01*
Y100808D01*
X165608D01*
Y107824D01*
D02*
G37*
G36*
X148895Y53466D02*
X146253D01*
X143702Y52782D01*
X141414Y51462D01*
X139546Y49594D01*
X138226Y47306D01*
X137542Y44755D01*
Y42113D01*
X138226Y39562D01*
X139546Y37274D01*
X141414Y35406D01*
X143702Y34086D01*
X146253Y33402D01*
X148895D01*
X151446Y34086D01*
X153734Y35406D01*
X155602Y37274D01*
X156922Y39562D01*
X157606Y42113D01*
Y44755D01*
X156922Y47306D01*
X155602Y49594D01*
X153734Y51462D01*
X151446Y52782D01*
X148895Y53466D01*
D02*
G37*
%LPD*%
D13*
X257397Y402222D02*
X257567D01*
X257067Y409497D02*
X257317Y409247D01*
Y402302D02*
Y409247D01*
Y402302D02*
X257397Y402222D01*
D18*
X448886Y356108D02*
D03*
X470086Y346608D02*
D03*
Y365608D02*
D03*
D19*
X139998Y137922D02*
D03*
D20*
X81998D02*
D03*
Y114922D02*
D03*
Y160922D02*
D03*
D21*
X159766Y534316D02*
D03*
Y458316D02*
D03*
D22*
X383286Y504698D02*
D03*
X403606D02*
D03*
X393446D02*
D03*
X152400Y335280D02*
D03*
X237503Y301758D02*
D03*
X255088Y264619D02*
D03*
X262636Y261874D02*
D03*
X264313Y272643D02*
D03*
X253467Y243586D02*
D03*
X265609Y352552D02*
D03*
X318643Y334216D02*
D03*
X212223Y390023D02*
D03*
X198120Y365760D02*
D03*
X209550Y345186D02*
D03*
X372364Y262128D02*
D03*
X267716Y216916D02*
D03*
X315468Y363115D02*
D03*
X230124Y310642D02*
D03*
X314974Y383604D02*
D03*
X328475Y398590D02*
D03*
X326136Y390906D02*
D03*
X325522Y375703D02*
D03*
X383540Y493014D02*
D03*
X353314Y453390D02*
D03*
X172720Y214630D02*
D03*
X177038Y534924D02*
D03*
X198374Y214376D02*
D03*
X214376Y239268D02*
D03*
X210312Y440436D02*
D03*
X198120Y291084D02*
D03*
X411226Y280924D02*
D03*
X172720Y290830D02*
D03*
X287274Y392176D02*
D03*
Y383032D02*
D03*
X147574Y214376D02*
D03*
X277067Y392222D02*
D03*
X277114Y383286D02*
D03*
X363474Y371094D02*
D03*
X340106Y396494D02*
D03*
X380238Y332486D02*
D03*
X198374Y161036D02*
D03*
X288496Y353640D02*
D03*
X158242Y200152D02*
D03*
X245496Y408564D02*
D03*
X124714Y137922D02*
D03*
X166878Y135382D02*
D03*
X45720Y121920D02*
D03*
X30480Y152400D02*
D03*
X45720Y182880D02*
D03*
X30480Y213360D02*
D03*
Y274320D02*
D03*
Y335280D02*
D03*
X60960Y152400D02*
D03*
X76200Y182880D02*
D03*
X60960Y213360D02*
D03*
X76200Y243840D02*
D03*
X60960Y274320D02*
D03*
X91440Y91440D02*
D03*
Y213360D02*
D03*
X106680Y304800D02*
D03*
Y548640D02*
D03*
X137160Y304800D02*
D03*
Y365760D02*
D03*
X121920Y518160D02*
D03*
X137160Y548640D02*
D03*
X167640Y304800D02*
D03*
X198120Y60960D02*
D03*
Y121920D02*
D03*
Y304800D02*
D03*
X182880Y396240D02*
D03*
X198120Y487680D02*
D03*
X182880Y518160D02*
D03*
X198120Y548640D02*
D03*
X228600Y60960D02*
D03*
X213360Y91440D02*
D03*
Y152400D02*
D03*
Y457200D02*
D03*
X228600Y487680D02*
D03*
X213360Y518160D02*
D03*
X228600Y548640D02*
D03*
X259080Y60960D02*
D03*
Y121920D02*
D03*
X243840Y152400D02*
D03*
X259080Y365760D02*
D03*
Y548640D02*
D03*
X289560Y121920D02*
D03*
Y548640D02*
D03*
X320040Y60960D02*
D03*
X304800Y91440D02*
D03*
X320040Y121920D02*
D03*
X304800Y152400D02*
D03*
Y457200D02*
D03*
X320040Y548640D02*
D03*
X350520Y60960D02*
D03*
X335280Y91440D02*
D03*
Y213360D02*
D03*
X350520Y304800D02*
D03*
Y426720D02*
D03*
X335280Y457200D02*
D03*
X350520Y487680D02*
D03*
Y548640D02*
D03*
X365760Y30480D02*
D03*
X381000Y60960D02*
D03*
X365760Y91440D02*
D03*
Y213360D02*
D03*
X381000Y304800D02*
D03*
Y426720D02*
D03*
X365760Y457200D02*
D03*
X381000Y548640D02*
D03*
X396240Y30480D02*
D03*
X411480Y60960D02*
D03*
X396240Y91440D02*
D03*
X411480Y182880D02*
D03*
X396240Y213360D02*
D03*
Y518160D02*
D03*
X411480Y548640D02*
D03*
X426720Y30480D02*
D03*
X441960Y60960D02*
D03*
X426720Y91440D02*
D03*
X441960Y121920D02*
D03*
X426720Y152400D02*
D03*
X441960Y182880D02*
D03*
X426720Y213360D02*
D03*
X441960Y304800D02*
D03*
Y365760D02*
D03*
Y487680D02*
D03*
X426720Y518160D02*
D03*
X441960Y548640D02*
D03*
X457200Y91440D02*
D03*
X472440Y121920D02*
D03*
X457200Y152400D02*
D03*
X472440Y182880D02*
D03*
X457200Y213360D02*
D03*
Y274320D02*
D03*
X472440Y304800D02*
D03*
X457200Y335280D02*
D03*
Y396240D02*
D03*
X472440Y426720D02*
D03*
Y487680D02*
D03*
X457200Y518160D02*
D03*
X502920Y121920D02*
D03*
X487680Y152400D02*
D03*
X502920Y182880D02*
D03*
X487680Y213360D02*
D03*
Y274320D02*
D03*
X502920Y304800D02*
D03*
X487680Y335280D02*
D03*
Y396240D02*
D03*
X502920Y426720D02*
D03*
X518160Y152400D02*
D03*
X533400Y182880D02*
D03*
X518160Y213360D02*
D03*
X533400Y243840D02*
D03*
X518160Y396240D02*
D03*
X533400Y426720D02*
D03*
X195580Y437642D02*
D03*
X294386Y346964D02*
D03*
X304342Y362222D02*
D03*
X327758Y413774D02*
D03*
X363728Y249428D02*
D03*
X241300Y253492D02*
D03*
X267868Y159766D02*
D03*
X297434D02*
D03*
X282473D02*
D03*
X300990Y418084D02*
D03*
X307067Y409497D02*
D03*
X323596Y359410D02*
D03*
X263297Y418284D02*
D03*
X257067Y409497D02*
D03*
X240284Y221488D02*
D03*
X282194Y216916D02*
D03*
X296672D02*
D03*
D23*
X363300Y380198D02*
D03*
X386922Y400350D02*
D03*
Y379858D02*
D03*
X363300Y400690D02*
D03*
D24*
X342644Y441071D02*
D03*
X221490D02*
D03*
X253490D02*
D03*
X310644D02*
D03*
D25*
X339852Y385444D02*
D03*
X232664Y400558D02*
D03*
X210820Y400304D02*
D03*
X198120Y279740D02*
D03*
X166624Y125348D02*
D03*
X172974Y279740D02*
D03*
X198120Y225512D02*
D03*
Y172554D02*
D03*
X172974Y225512D02*
D03*
X147828D02*
D03*
X339852Y368936D02*
D03*
X198120Y263232D02*
D03*
X172974Y263232D02*
D03*
X198120Y242020D02*
D03*
X172974Y242020D02*
D03*
X166624Y108840D02*
D03*
X147828Y242020D02*
D03*
X198120Y189062D02*
D03*
X232664Y328296D02*
D03*
Y344804D02*
D03*
X210820Y416812D02*
D03*
X232664Y417066D02*
D03*
X233506Y130152D02*
D03*
Y108644D02*
D03*
D26*
X257567Y392222D02*
D03*
X306567Y387222D02*
D03*
Y372222D02*
D03*
Y402222D02*
D03*
Y397222D02*
D03*
Y392222D02*
D03*
Y382222D02*
D03*
Y377222D02*
D03*
X257567Y372222D02*
D03*
Y377222D02*
D03*
Y382222D02*
D03*
Y387222D02*
D03*
Y397222D02*
D03*
Y402222D02*
D03*
D27*
X292067Y362722D02*
D03*
X297067D02*
D03*
X267067Y411722D02*
D03*
X277067D02*
D03*
X282067D02*
D03*
X287067D02*
D03*
X292067D02*
D03*
X297067D02*
D03*
X287067Y362722D02*
D03*
X282067D02*
D03*
X277067D02*
D03*
X272067D02*
D03*
X267067D02*
D03*
X272067Y411722D02*
D03*
D28*
X390444Y332518D02*
D03*
X175600Y168910D02*
D03*
X154092D02*
D03*
X390444Y352518D02*
D03*
D29*
X398255Y275051D02*
D03*
X344605Y262351D02*
D03*
X398255Y236952D02*
D03*
X344605Y249652D02*
D03*
Y275051D02*
D03*
Y236952D02*
D03*
X398255Y249652D02*
D03*
Y262351D02*
D03*
D30*
X227838Y241640D02*
D03*
Y246640D02*
D03*
Y251640D02*
D03*
Y271640D02*
D03*
Y266640D02*
D03*
Y261640D02*
D03*
Y256640D02*
D03*
Y236640D02*
D03*
Y231640D02*
D03*
Y226640D02*
D03*
Y221640D02*
D03*
Y216640D02*
D03*
X311238D02*
D03*
Y221640D02*
D03*
Y226640D02*
D03*
Y231640D02*
D03*
Y236640D02*
D03*
Y241640D02*
D03*
Y246640D02*
D03*
Y251640D02*
D03*
Y256640D02*
D03*
Y261640D02*
D03*
Y266640D02*
D03*
Y271640D02*
D03*
D31*
X211662Y124828D02*
D03*
X113792Y45352D02*
D03*
Y62852D02*
D03*
X430530Y264274D02*
D03*
Y246774D02*
D03*
X211662Y107328D02*
D03*
D32*
X282067Y387222D02*
D03*
D33*
X158128Y188976D02*
D03*
X175628D02*
D03*
X39738Y295656D02*
D03*
X82550Y446532D02*
D03*
X22238Y295656D02*
D03*
X65050Y446532D02*
D03*
D34*
X31342Y235712D02*
D03*
X107342D02*
D03*
D35*
X246974Y180848D02*
D03*
D36*
X226482D02*
D03*
X197952Y77724D02*
D03*
X177460D02*
D03*
D37*
X247038Y202440D02*
D03*
X242038D02*
D03*
X252038D02*
D03*
X257038D02*
D03*
X262038D02*
D03*
X267038D02*
D03*
X272038D02*
D03*
X277038D02*
D03*
X282038D02*
D03*
X287038D02*
D03*
X292038D02*
D03*
X297038D02*
D03*
Y285840D02*
D03*
X292038D02*
D03*
X287038D02*
D03*
X282038D02*
D03*
X277038D02*
D03*
X272038D02*
D03*
X267038D02*
D03*
X262038D02*
D03*
X257038D02*
D03*
X252038D02*
D03*
X247038D02*
D03*
X242038D02*
D03*
D38*
X232664Y363498D02*
D03*
Y382498D02*
D03*
D39*
X357944Y342518D02*
D03*
D40*
X393446Y504698D02*
D03*
D71*
X198120Y291084D02*
G03*
X197866Y290830I0J-254D01*
G01*
X198374Y225004D02*
G03*
X197866Y225512I-508J0D01*
G01*
X232190Y107328D02*
G03*
X233506Y108644I0J1316D01*
G01*
X249615Y301758D02*
X257035Y294337D01*
X237503Y301758D02*
X249615D01*
X247038Y246276D02*
X262636Y261874D01*
X247038Y196390D02*
Y246276D01*
X256741Y272643D02*
X264313D01*
X252041Y277343D02*
X256741Y272643D01*
X267020Y354830D02*
Y362675D01*
X265609Y352552D02*
Y353419D01*
X267020Y362675D02*
X267067Y362722D01*
X265609Y353419D02*
X267020Y354830D01*
X277038Y285840D02*
Y362497D01*
X272038Y285840D02*
Y362496D01*
X272067Y362722D01*
X277038Y362497D02*
X277067Y362722D01*
X318643Y334216D02*
X324945Y327914D01*
X227838Y221640D02*
X233634D01*
X227584D02*
X227838D01*
X212223Y390023D02*
Y398901D01*
X210820Y400304D02*
X212223Y398901D01*
X209550Y345186D02*
Y377952D01*
X257035Y285843D02*
Y294337D01*
X267035Y285843D02*
Y294337D01*
X250730Y310642D02*
X267035Y294337D01*
X230124Y310642D02*
X250730D01*
X267035Y285843D02*
X267038Y285840D01*
X257035Y285843D02*
X257038Y285840D01*
X252038D02*
X252041Y285837D01*
Y277343D02*
Y285837D01*
X287038Y330524D02*
X315257Y358744D01*
Y362904D01*
X315468Y363115D01*
X311238Y271640D02*
X317031D01*
X371744Y262240D02*
X371856Y262128D01*
X317031Y271640D02*
X317034Y271643D01*
X344351Y262351D02*
X344463Y262240D01*
X267716Y216916D02*
Y237368D01*
X344463Y262240D02*
X371744D01*
X305002Y372222D02*
X306567D01*
X319805D01*
X321774Y370253D01*
X321677Y377175D02*
X322535Y376317D01*
X306614Y377175D02*
X321677D01*
X322535Y376317D02*
X324909D01*
X325522Y375703D01*
X323952Y392222D02*
X325269Y390906D01*
X321880Y370253D02*
X322859Y369274D01*
X339514D01*
X321774Y370253D02*
X321880D01*
X325269Y390906D02*
X326136D01*
X324945Y327914D02*
X364744D01*
X306567Y392222D02*
X323952D01*
X410637Y280924D02*
X411226D01*
X398001Y275051D02*
X404765D01*
X410637Y280924D01*
X352463Y453390D02*
X353314D01*
X342644Y443571D02*
X352463Y453390D01*
X383413Y493141D02*
X383540Y493014D01*
X383413Y493141D02*
Y504571D01*
X383286Y504698D02*
X383413Y504571D01*
X363300Y380198D02*
X363474Y380024D01*
Y371094D02*
Y380024D01*
X342644Y441071D02*
Y443571D01*
X277067Y392222D02*
X282067Y387222D01*
X257567Y392222D02*
X277067D01*
X292020Y362675D02*
X292067Y362722D01*
X282067Y387222D02*
X306567D01*
X385841Y334011D02*
X390444Y338614D01*
X288496Y353640D02*
Y354099D01*
X220855Y440436D02*
X221490Y441071D01*
X210312Y440436D02*
X220855D01*
X232664Y400558D02*
X237267Y405161D01*
X197866Y279740D02*
Y290830D01*
X172720Y279740D02*
Y290830D01*
X172720Y279740D02*
X172720Y279740D01*
X217494Y241640D02*
X227584D01*
X215122Y239268D02*
X217494Y241640D01*
X214376Y239268D02*
X215122D01*
X198374Y214376D02*
Y225004D01*
X172720Y214630D02*
Y225512D01*
X147574Y214376D02*
Y225512D01*
X339852Y385444D02*
X340106Y385698D01*
Y396494D01*
X382631Y334011D02*
X385841D01*
X381105Y332486D02*
X382631Y334011D01*
X380238Y332486D02*
X381105D01*
X198374Y161036D02*
Y172985D01*
X198374Y172985D02*
X198374Y172985D01*
X288496Y354099D02*
X292020Y357623D01*
Y362675D01*
X158128Y188976D02*
X158242Y189090D01*
Y200152D01*
X241225Y405161D02*
X244628Y408564D01*
X237267Y405161D02*
X241225D01*
X244628Y408564D02*
X245496D01*
X124714Y137922D02*
X139998D01*
X166624Y125348D02*
X166878Y125602D01*
Y135382D01*
X211662Y107328D02*
X232190D01*
X175600Y188976D02*
X175628D01*
X175600Y168910D02*
Y188976D01*
X233506Y130152D02*
X257038Y153684D01*
Y202440D01*
X518749Y365608D02*
X523835Y370694D01*
X470086Y365608D02*
X518749D01*
X470086Y346608D02*
X522921D01*
X534670Y334859D01*
X513335Y265993D02*
X534670Y287328D01*
Y334859D01*
X523835Y370694D02*
X540258Y354271D01*
Y267916D02*
Y354271D01*
X513335Y240993D02*
X540258Y267916D01*
X433946Y260858D02*
X505220D01*
X428607Y262351D02*
X430530Y264274D01*
X433946Y260858D01*
X505220D02*
X510356Y265993D01*
X513335D01*
X398255Y262351D02*
X428607D01*
X505154Y249174D02*
X513335Y240993D01*
X430530Y246774D02*
X432930Y249174D01*
X505154D01*
X398255Y249652D02*
X427653D01*
X430530Y246774D01*
X422402Y121158D02*
Y147066D01*
X397002Y121158D02*
Y147066D01*
X371602Y121158D02*
Y147066D01*
X346202Y121158D02*
Y147066D01*
X282473Y96291D02*
Y159766D01*
X251206Y65024D02*
X282473Y96291D01*
X251206Y43434D02*
Y65024D01*
X226314Y77724D02*
X267868Y119278D01*
Y159766D01*
X197952Y77724D02*
X226314D01*
X329946Y274828D02*
Y279400D01*
X321761Y266643D02*
X329946Y274828D01*
X310987Y266643D02*
X321761D01*
X325022Y261643D02*
X338430Y275051D01*
X310987Y261643D02*
X325022D01*
X329946Y279400D02*
X339852Y289306D01*
X338430Y275051D02*
X344351D01*
X339852Y289306D02*
X401066D01*
X242038Y196390D02*
Y202440D01*
X242035Y196387D02*
X242038Y196390D01*
X240648Y196387D02*
X242035D01*
X226482Y182221D02*
X240648Y196387D01*
X226482Y180848D02*
Y182221D01*
X246974Y196326D02*
X247038Y196390D01*
X246974Y180848D02*
Y196326D01*
X311238Y295744D02*
X332140Y316646D01*
X311238Y271640D02*
Y295744D01*
X332140Y316646D02*
X397672D01*
X310984Y271640D02*
X311238D01*
X323596Y354076D02*
Y359410D01*
X297038Y285840D02*
Y327518D01*
X323596Y354076D01*
X287038Y285840D02*
Y330524D01*
X294386Y346964D02*
Y347831D01*
X297067Y350513D01*
Y362722D01*
X304342Y362222D02*
X304955Y362835D01*
Y372175D02*
X305002Y372222D01*
X304955Y362835D02*
Y372175D01*
X267038Y202440D02*
X267041Y202437D01*
Y192118D02*
Y202437D01*
Y192118D02*
X290757Y168402D01*
X324866D01*
X272041Y193943D02*
X291063Y174921D01*
X343747D01*
X272041Y193943D02*
Y202437D01*
X272038Y202440D02*
X272041Y202437D01*
X282041Y192118D02*
X292718Y181441D01*
X362627D01*
X282041Y192118D02*
Y202437D01*
X282038Y202440D02*
X282041Y202437D01*
X293024Y187960D02*
X381508D01*
X287041Y193943D02*
X293024Y187960D01*
X287038Y202440D02*
X287041Y202437D01*
Y193943D02*
Y202437D01*
X282041Y292512D02*
X282067Y292538D01*
Y362722D01*
X282041Y285869D02*
Y292512D01*
X339514Y369274D02*
X339852Y368936D01*
X198374Y189062D02*
X210778Y201466D01*
X276606Y43434D02*
X297434Y64262D01*
Y159766D01*
X364744Y327914D02*
X375158Y338328D01*
Y388586D01*
X358715Y403793D02*
X358824D01*
X355521Y406987D02*
X358715Y403793D01*
X361927Y400690D02*
X363300D01*
X316280Y397222D02*
X326045Y406987D01*
X358824Y403793D02*
X361927Y400690D01*
X326045Y406987D02*
X355521D01*
X248124Y397222D02*
X257567D01*
X307067Y402269D02*
Y409497D01*
X307020Y402222D02*
X307067Y402269D01*
X306567Y402222D02*
X307020D01*
X250088Y374795D02*
X252468Y377175D01*
X257520D01*
X250643Y382175D02*
X257520D01*
X257567Y382222D01*
X248726Y387222D02*
X257567D01*
X257520Y377175D02*
X257567Y377222D01*
X250088Y362354D02*
Y374795D01*
X306567Y377222D02*
X306614Y377175D01*
X382446Y397247D02*
X385549Y400350D01*
X386922D01*
X306567Y397222D02*
X316280D01*
X310644Y438571D02*
Y441071D01*
X300823Y418084D02*
X300990D01*
X297067Y414328D02*
X300823Y418084D01*
X297067Y411722D02*
Y414328D01*
X209550Y377952D02*
X221996Y390398D01*
X235664Y363498D02*
X237767Y365601D01*
X232664Y363498D02*
X235664D01*
X292067Y411722D02*
X292114Y411769D01*
X286819Y425249D02*
X287067Y425000D01*
Y411722D02*
Y425000D01*
X292114Y411769D02*
Y420041D01*
X310644Y438571D01*
X221996Y390398D02*
X241300D01*
X248124Y397222D01*
X237767Y365601D02*
Y369299D01*
X250643Y382175D01*
X244002Y382498D02*
X248726Y387222D01*
X232664Y382498D02*
X244002D01*
X232918Y345184D02*
X250088Y362354D01*
X257093Y434501D02*
Y437468D01*
X253490Y441071D02*
X257093Y437468D01*
Y434501D02*
X272067Y419527D01*
X267067Y411722D02*
Y414514D01*
X272067Y411722D02*
Y419527D01*
X277067Y411722D02*
Y424989D01*
X375158Y388586D02*
X382446Y395874D01*
Y397247D01*
X427736Y315976D02*
Y414274D01*
X460502Y447040D01*
X406908Y325882D02*
Y418846D01*
X435102Y447040D01*
X301985Y271637D02*
X310981D01*
X267716Y237368D02*
X301985Y271637D01*
X282194Y216916D02*
Y236982D01*
X296849Y251637D01*
X310981D01*
X177460Y50968D02*
Y77724D01*
X362627Y181441D02*
X397002Y147066D01*
X324866Y168402D02*
X346202Y147066D01*
X343747Y174921D02*
X371602Y147066D01*
X381508Y187960D02*
X422402Y147066D01*
X233634Y221640D02*
X233786Y221488D01*
X240284D01*
X210778Y201466D02*
Y218328D01*
X219087Y226637D01*
X227581D01*
X227584Y226640D01*
X310981Y251637D02*
X310984Y251640D01*
X310981Y236637D02*
X310984Y236640D01*
X302487Y236637D02*
X310981D01*
X296672Y230822D02*
X302487Y236637D01*
X296672Y216916D02*
Y230822D01*
X401066Y289306D02*
X427736Y315976D01*
X397672Y316646D02*
X406908Y325882D01*
X310984Y266640D02*
X310987Y266643D01*
X310981Y271637D02*
X310984Y271640D01*
X330708Y245618D02*
X336423Y239903D01*
Y239653D02*
X339125Y236952D01*
X336423Y239653D02*
Y239903D01*
X339125Y236952D02*
X344351D01*
X330708Y245618D02*
Y252730D01*
X326801Y256637D02*
X330708Y252730D01*
X310987Y256637D02*
X326801D01*
X310984Y256640D02*
X310987Y256637D01*
X172974Y46482D02*
X177460Y50968D01*
D72*
X344463Y249540D02*
X363616D01*
X195580Y437642D02*
Y473456D01*
X239776Y517652D01*
X346202Y44958D02*
X371602D01*
X324104Y22860D02*
X346202Y44958D01*
X371602D02*
X397002D01*
X218948Y22860D02*
X324104D01*
X397002Y44958D02*
X422402D01*
X398255Y236952D02*
X400707D01*
X376204D02*
X398255D01*
X349512Y413774D02*
X404622Y468884D01*
X327758Y413774D02*
X349512D01*
X404622Y468884D02*
X473202D01*
X404622D02*
Y503433D01*
X403606Y504449D02*
X404622Y503433D01*
X403606Y504449D02*
Y504698D01*
X483095Y449847D02*
X485902Y447040D01*
X483095Y449847D02*
Y458991D01*
X473202Y468884D02*
X483095Y458991D01*
X400707Y236952D02*
X401271Y236388D01*
X363728Y249428D02*
X376204Y236952D01*
X344351Y249652D02*
X344463Y249540D01*
X198374Y43434D02*
X218948Y22860D01*
X386922Y362136D02*
Y379858D01*
Y362136D02*
X390444Y358614D01*
X393270Y504874D02*
X393446Y504698D01*
X393270Y504874D02*
Y509180D01*
X384798Y517652D02*
X393270Y509180D01*
X239776Y517652D02*
X384798D01*
D73*
X313901Y383604D02*
X314974D01*
X306901Y382556D02*
X312853D01*
X313901Y383604D01*
X332427Y402542D02*
X342611D01*
X328475Y398590D02*
X332427Y402542D01*
X306567Y382222D02*
X306901Y382556D01*
X342611Y402542D02*
X351460Y393693D01*
Y355098D02*
Y393693D01*
Y355098D02*
X357944Y348614D01*
D74*
X160374Y534924D02*
X177038D01*
X159766Y534316D02*
X160374Y534924D01*
X92850Y114922D02*
X113792Y93980D01*
Y62852D02*
Y93980D01*
X81998Y114922D02*
X92850D01*
X73406Y295656D02*
X107342Y261720D01*
Y186006D02*
Y261720D01*
X39738Y295656D02*
X73406D01*
X81998Y160922D02*
X82258D01*
X107342Y186006D01*
X52704Y334772D02*
X105410D01*
X22238Y304306D02*
X52704Y334772D01*
X22238Y295656D02*
Y304306D01*
D75*
X159766Y360172D02*
X191642Y328296D01*
X159766Y360172D02*
Y458316D01*
X191642Y328296D02*
X232664D01*
D76*
X116732Y42412D02*
X139332Y19812D01*
X116732Y42412D02*
Y43412D01*
X113792Y45352D02*
X114792D01*
X116732Y43412D01*
X139332Y19812D02*
X174752D01*
X198374Y43434D01*
X294567Y451793D02*
Y481480D01*
X286819Y444045D02*
X294567Y451793D01*
X286819Y425249D02*
Y444045D01*
X269567Y453063D02*
X277067Y445563D01*
Y424989D02*
Y445563D01*
X269567Y453063D02*
Y481480D01*
D77*
X383286Y504698D02*
D03*
X403606D02*
D03*
D78*
X147574Y43434D02*
D03*
X302006D02*
D03*
X172974D02*
D03*
X276606D02*
D03*
D79*
X57779Y362272D02*
D03*
X105410Y334772D02*
D03*
Y389772D02*
D03*
D80*
X409702Y447040D02*
D03*
X435102D02*
D03*
X460502D02*
D03*
X485902D02*
D03*
D81*
X397002Y44958D02*
D03*
X371602D02*
D03*
X346202D02*
D03*
X422402D02*
D03*
X244567Y481480D02*
D03*
X269567D02*
D03*
X294567D02*
D03*
X346202Y121158D02*
D03*
X371602D02*
D03*
X397002D02*
D03*
D82*
X198374Y43434D02*
D03*
X251206D02*
D03*
D83*
X319567Y481480D02*
D03*
X422402Y121158D02*
D03*
D84*
X522311Y370694D02*
D03*
X511811Y240993D02*
D03*
D85*
X522311Y345694D02*
D03*
X511811Y265993D02*
D03*
M02*
