G04*
G04 #@! TF.GenerationSoftware,Altium Limited,Altium Designer,26.4.1 (12)*
G04*
G04 Layer_Color=8421504*
%FSLAX44Y44*%
%MOMM*%
G71*
G04*
G04 #@! TF.SameCoordinates,498FC022-B34E-4152-97B3-50CD48BD2042*
G04*
G04*
G04 #@! TF.FilePolarity,Positive*
G04*
G01*
G75*
%ADD18R,1.1500X0.3000*%
%ADD19R,1.1500X0.6000*%
%ADD20R,1.3621X1.0081*%
%ADD21R,1.2000X0.6000*%
%ADD22R,1.1300X1.2100*%
G04:AMPARAMS|DCode=23|XSize=0.9mm|YSize=1.45mm|CornerRadius=0.0495mm|HoleSize=0mm|Usage=FLASHONLY|Rotation=270.000|XOffset=0mm|YOffset=0mm|HoleType=Round|Shape=RoundedRectangle|*
%AMROUNDEDRECTD23*
21,1,0.9000,1.3510,0,0,270.0*
21,1,0.8010,1.4500,0,0,270.0*
1,1,0.0990,-0.6755,-0.4005*
1,1,0.0990,-0.6755,0.4005*
1,1,0.0990,0.6755,0.4005*
1,1,0.0990,0.6755,-0.4005*
%
%ADD23ROUNDEDRECTD23*%
G04:AMPARAMS|DCode=24|XSize=3.15mm|YSize=1.45mm|CornerRadius=0.0508mm|HoleSize=0mm|Usage=FLASHONLY|Rotation=270.000|XOffset=0mm|YOffset=0mm|HoleType=Round|Shape=RoundedRectangle|*
%AMROUNDEDRECTD24*
21,1,3.1500,1.3485,0,0,270.0*
21,1,3.0485,1.4500,0,0,270.0*
1,1,0.1015,-0.6743,-1.5243*
1,1,0.1015,-0.6743,1.5243*
1,1,0.1015,0.6743,1.5243*
1,1,0.1015,0.6743,-1.5243*
%
%ADD24ROUNDEDRECTD24*%
%ADD25R,1.5000X1.5500*%
%ADD26R,1.5500X1.5000*%
%ADD27R,0.8500X1.0000*%
%ADD28R,1.7780X0.2794*%
%ADD29R,1.5000X1.2500*%
G04:AMPARAMS|DCode=30|XSize=1mm|YSize=0.85mm|CornerRadius=0mm|HoleSize=0mm|Usage=FLASHONLY|Rotation=145.000|XOffset=0mm|YOffset=0mm|HoleType=Round|Shape=Rectangle|*
%AMROTATEDRECTD30*
4,1,4,0.6534,0.0614,0.1658,-0.6349,-0.6534,-0.0614,-0.1658,0.6349,0.6534,0.0614,0.0*
%
%ADD30ROTATEDRECTD30*%

%ADD31R,0.2794X1.7780*%
%ADD32O,0.6300X1.8650*%
%ADD33R,0.8000X0.9000*%
G04:AMPARAMS|DCode=34|XSize=1mm|YSize=0.85mm|CornerRadius=0mm|HoleSize=0mm|Usage=FLASHONLY|Rotation=55.000|XOffset=0mm|YOffset=0mm|HoleType=Round|Shape=Rectangle|*
%AMROTATEDRECTD34*
4,1,4,0.0614,-0.6534,-0.6349,-0.1658,-0.0614,0.6534,0.6349,0.1658,0.0614,-0.6534,0.0*
%
%ADD34ROTATEDRECTD34*%

%ADD35R,1.4500X1.5500*%
%ADD36R,1.2000X1.2000*%
%ADD37R,1.1000X1.2500*%
%ADD38R,0.6500X1.6500*%
%ADD39R,1.5500X1.4500*%
%ADD40R,1.5000X0.9000*%
%ADD41R,0.9000X0.9000*%
%ADD42R,1.4200X1.0000*%
%ADD43R,1.2500X1.5000*%
%ADD44R,1.0065X1.4082*%
%ADD45R,1.2850X1.4700*%
%ADD46R,0.9000X1.5000*%
G04:AMPARAMS|DCode=47|XSize=1.4mm|YSize=1.15mm|CornerRadius=0mm|HoleSize=0mm|Usage=FLASHONLY|Rotation=325.000|XOffset=0mm|YOffset=0mm|HoleType=Round|Shape=Rectangle|*
%AMROTATEDRECTD47*
4,1,4,-0.9032,-0.0695,-0.2436,0.8725,0.9032,0.0695,0.2436,-0.8725,-0.9032,-0.0695,0.0*
%
%ADD47ROTATEDRECTD47*%

%ADD48R,1.0081X1.3621*%
%ADD49R,1.3541X1.4550*%
%ADD50R,1.0000X1.8000*%
%ADD51R,1.1546X1.3621*%
D18*
X70156Y681920D02*
D03*
Y686920D02*
D03*
Y656920D02*
D03*
Y651920D02*
D03*
Y666920D02*
D03*
Y676920D02*
D03*
Y661920D02*
D03*
Y671920D02*
D03*
Y563600D02*
D03*
Y558600D02*
D03*
Y528600D02*
D03*
Y533600D02*
D03*
Y548600D02*
D03*
Y538600D02*
D03*
Y543600D02*
D03*
Y553600D02*
D03*
D19*
Y693420D02*
D03*
Y645420D02*
D03*
Y637420D02*
D03*
Y701420D02*
D03*
Y570100D02*
D03*
Y522100D02*
D03*
Y514100D02*
D03*
Y578100D02*
D03*
D20*
X112776Y675900D02*
D03*
Y657860D02*
D03*
X105664Y557270D02*
D03*
Y575310D02*
D03*
X112776Y624840D02*
D03*
Y642880D02*
D03*
X105410Y503552D02*
D03*
Y521592D02*
D03*
D21*
X284280Y668274D02*
D03*
X259280Y658774D02*
D03*
Y677774D02*
D03*
X284280D02*
D03*
Y658774D02*
D03*
X259280Y668274D02*
D03*
X256540Y547320D02*
D03*
Y528320D02*
D03*
Y537820D02*
D03*
X281540Y528320D02*
D03*
Y547320D02*
D03*
Y537820D02*
D03*
D22*
X157226Y548130D02*
D03*
Y579630D02*
D03*
X159512Y618234D02*
D03*
Y649734D02*
D03*
D23*
X270526Y427850D02*
D03*
Y473850D02*
D03*
Y450850D02*
D03*
D24*
X209026D02*
D03*
D25*
X285386Y389890D02*
D03*
X303386D02*
D03*
X149966Y704850D02*
D03*
X131466D02*
D03*
X156866Y516890D02*
D03*
X175366D02*
D03*
X577194Y367030D02*
D03*
X746104Y80010D02*
D03*
X582786Y600456D02*
D03*
X583036Y627126D02*
D03*
X618384Y367030D02*
D03*
X674984Y368300D02*
D03*
X584306Y693166D02*
D03*
X711564Y365760D02*
D03*
X840338Y287782D02*
D03*
X636884Y367030D02*
D03*
X656484Y368300D02*
D03*
X821838Y287782D02*
D03*
X564786Y600456D02*
D03*
X564536Y627126D02*
D03*
X558694Y367030D02*
D03*
X565806Y693166D02*
D03*
X727604Y80010D02*
D03*
X693564Y365760D02*
D03*
D26*
X355346Y409990D02*
D03*
Y427990D02*
D03*
X388366Y408720D02*
D03*
Y426720D02*
D03*
X190246Y680720D02*
D03*
Y698720D02*
D03*
X402336Y90530D02*
D03*
X474218Y180446D02*
D03*
X480568Y223372D02*
D03*
X478282Y290470D02*
D03*
X489204Y396600D02*
D03*
X509524Y365980D02*
D03*
X567944Y451760D02*
D03*
X749554Y168000D02*
D03*
X750824Y203560D02*
D03*
X743204Y272690D02*
D03*
X586486Y716576D02*
D03*
X740664Y325480D02*
D03*
X480568Y204872D02*
D03*
X474218Y161946D02*
D03*
X743204Y291190D02*
D03*
X750824Y185060D02*
D03*
X749554Y149500D02*
D03*
X478282Y308970D02*
D03*
X509524Y347980D02*
D03*
X567944Y470260D02*
D03*
X489204Y378100D02*
D03*
X740664Y306980D02*
D03*
X402336Y72030D02*
D03*
X586486Y735076D02*
D03*
D27*
X510394Y101854D02*
D03*
X547770Y101600D02*
D03*
X534270D02*
D03*
X523894Y101854D02*
D03*
D28*
X503428Y178720D02*
D03*
Y208720D02*
D03*
Y283720D02*
D03*
X718820Y173720D02*
D03*
Y193720D02*
D03*
Y213720D02*
D03*
Y243720D02*
D03*
Y273720D02*
D03*
Y313720D02*
D03*
X503428Y173720D02*
D03*
Y203720D02*
D03*
Y253720D02*
D03*
Y288720D02*
D03*
Y293720D02*
D03*
X718820Y248720D02*
D03*
Y278720D02*
D03*
Y308720D02*
D03*
Y168720D02*
D03*
Y188720D02*
D03*
Y218720D02*
D03*
X503428Y248720D02*
D03*
Y278720D02*
D03*
Y273720D02*
D03*
Y318720D02*
D03*
Y323720D02*
D03*
Y313720D02*
D03*
Y213720D02*
D03*
Y148720D02*
D03*
Y153720D02*
D03*
Y158720D02*
D03*
Y163720D02*
D03*
Y168720D02*
D03*
Y183720D02*
D03*
Y188720D02*
D03*
Y193720D02*
D03*
Y198720D02*
D03*
Y218720D02*
D03*
Y308720D02*
D03*
Y228720D02*
D03*
Y233720D02*
D03*
Y238720D02*
D03*
Y243720D02*
D03*
Y258720D02*
D03*
Y263720D02*
D03*
Y268720D02*
D03*
Y298720D02*
D03*
Y303720D02*
D03*
Y223720D02*
D03*
X718820Y148720D02*
D03*
Y153720D02*
D03*
Y258720D02*
D03*
Y263720D02*
D03*
Y268720D02*
D03*
Y283720D02*
D03*
Y323720D02*
D03*
Y318720D02*
D03*
Y303720D02*
D03*
Y293720D02*
D03*
Y158720D02*
D03*
Y253720D02*
D03*
Y298720D02*
D03*
Y163720D02*
D03*
Y238720D02*
D03*
Y178720D02*
D03*
Y183720D02*
D03*
Y288720D02*
D03*
Y198720D02*
D03*
Y208720D02*
D03*
Y223720D02*
D03*
Y203720D02*
D03*
Y233720D02*
D03*
Y228720D02*
D03*
D29*
X345610Y232580D02*
D03*
X586486Y782406D02*
D03*
Y761406D02*
D03*
X345610Y211580D02*
D03*
D30*
X571184Y94293D02*
D03*
X578928Y105351D02*
D03*
D31*
X558624Y128524D02*
D03*
X528624Y343916D02*
D03*
X568624D02*
D03*
X598624Y128524D02*
D03*
X628624D02*
D03*
X633624D02*
D03*
X668624D02*
D03*
X618624Y343916D02*
D03*
X663624D02*
D03*
X563624D02*
D03*
X523624D02*
D03*
X623624D02*
D03*
X658624D02*
D03*
X673624Y128524D02*
D03*
X603624D02*
D03*
X533624D02*
D03*
X553624D02*
D03*
X588624D02*
D03*
X558624Y343916D02*
D03*
X583624D02*
D03*
X578624D02*
D03*
X573624D02*
D03*
X543624D02*
D03*
X553624D02*
D03*
X548624D02*
D03*
X538624D02*
D03*
X533624D02*
D03*
X588624D02*
D03*
X593624D02*
D03*
X638624D02*
D03*
X668624D02*
D03*
X653624D02*
D03*
X648624D02*
D03*
X643624D02*
D03*
X633624D02*
D03*
X598624D02*
D03*
X628624D02*
D03*
X613624D02*
D03*
X608624D02*
D03*
X603624D02*
D03*
X678624D02*
D03*
X683624D02*
D03*
X653624Y128524D02*
D03*
X618624D02*
D03*
X623624D02*
D03*
X638624D02*
D03*
X643624D02*
D03*
X648624D02*
D03*
X658624D02*
D03*
X608624D02*
D03*
X663624D02*
D03*
X678624D02*
D03*
X683624D02*
D03*
X688624D02*
D03*
X693624D02*
D03*
X613624D02*
D03*
X523624D02*
D03*
X528624D02*
D03*
X538624D02*
D03*
X543624D02*
D03*
X548624D02*
D03*
X563624D02*
D03*
X688624Y343916D02*
D03*
X568624Y128524D02*
D03*
X573624D02*
D03*
X578624D02*
D03*
X583624D02*
D03*
X593624D02*
D03*
X698624D02*
D03*
X673624Y343916D02*
D03*
X693624D02*
D03*
X698624D02*
D03*
D32*
X521239Y399215D02*
D03*
X508539Y452865D02*
D03*
X546638D02*
D03*
X533938Y399215D02*
D03*
X521239Y452865D02*
D03*
X533938D02*
D03*
X546638Y399215D02*
D03*
X508539D02*
D03*
D33*
X527304Y545940D02*
D03*
X517804Y525940D02*
D03*
X536804D02*
D03*
D34*
X618431Y98490D02*
D03*
X607373Y106234D02*
D03*
D35*
X730864Y48260D02*
D03*
X712364D02*
D03*
D36*
X794004Y116332D02*
D03*
Y95332D02*
D03*
D37*
X863346Y118430D02*
D03*
Y94930D02*
D03*
D38*
X857758Y193870D02*
D03*
X819658Y265870D02*
D03*
Y193870D02*
D03*
X845058Y265870D02*
D03*
X857758D02*
D03*
X832358D02*
D03*
X845058Y193870D02*
D03*
X832358D02*
D03*
D39*
X740664Y235860D02*
D03*
Y254360D02*
D03*
D40*
X632974Y797052D02*
D03*
X807974D02*
D03*
X632974Y784352D02*
D03*
X807974D02*
D03*
Y771652D02*
D03*
Y758952D02*
D03*
Y746252D02*
D03*
Y733552D02*
D03*
Y720852D02*
D03*
Y708152D02*
D03*
Y695452D02*
D03*
Y682752D02*
D03*
Y670052D02*
D03*
Y657352D02*
D03*
Y644652D02*
D03*
Y631952D02*
D03*
X632974D02*
D03*
Y644652D02*
D03*
Y657352D02*
D03*
Y670052D02*
D03*
Y682752D02*
D03*
Y695452D02*
D03*
Y708152D02*
D03*
Y720852D02*
D03*
Y733552D02*
D03*
Y746252D02*
D03*
Y758952D02*
D03*
Y771652D02*
D03*
D41*
X691474Y719852D02*
D03*
Y705852D02*
D03*
Y733852D02*
D03*
X705474Y705852D02*
D03*
X719474Y719852D02*
D03*
Y705852D02*
D03*
X705474Y733852D02*
D03*
Y719852D02*
D03*
X719474Y733852D02*
D03*
D42*
X834390Y45164D02*
D03*
Y26464D02*
D03*
X837438Y78788D02*
D03*
Y97488D02*
D03*
D43*
X459064Y93980D02*
D03*
X537886Y662686D02*
D03*
X438064Y93980D02*
D03*
X558886Y662686D02*
D03*
D44*
X816499Y163322D02*
D03*
X835517D02*
D03*
D45*
X735344Y107950D02*
D03*
X715884D02*
D03*
D46*
X790324Y619452D02*
D03*
X777624D02*
D03*
X764924D02*
D03*
X752224D02*
D03*
X739524D02*
D03*
X726824D02*
D03*
X714124D02*
D03*
X701424D02*
D03*
X688724D02*
D03*
X676024D02*
D03*
X663324D02*
D03*
X650624D02*
D03*
D47*
X611751Y85851D02*
D03*
X584553Y85363D02*
D03*
X593730Y98470D02*
D03*
X602574Y72744D02*
D03*
D48*
X668906Y409956D02*
D03*
X686946D02*
D03*
X627758Y416814D02*
D03*
X645798D02*
D03*
D49*
X681358Y96520D02*
D03*
X665350D02*
D03*
D50*
X517090Y85598D02*
D03*
X542090D02*
D03*
D51*
X518546Y495300D02*
D03*
X536062D02*
D03*
M02*
