G04*
G04 #@! TF.GenerationSoftware,Altium Limited,Altium Designer,26.4.1 (12)*
G04*
G04 Layer_Physical_Order=2*
G04 Layer_Color=36540*
%FSLAX44Y44*%
%MOMM*%
G71*
G04*
G04 #@! TF.SameCoordinates,498FC022-B34E-4152-97B3-50CD48BD2042*
G04*
G04*
G04 #@! TF.FilePolarity,Positive*
G04*
G01*
G75*
%ADD16C,0.2540*%
G04:AMPARAMS|DCode=76|XSize=1mm|YSize=2.2mm|CornerRadius=0.5mm|HoleSize=0mm|Usage=FLASHONLY|Rotation=270.000|XOffset=0mm|YOffset=0mm|HoleType=Round|Shape=RoundedRectangle|*
%AMROUNDEDRECTD76*
21,1,1.0000,1.2000,0,0,270.0*
21,1,0.0000,2.2000,0,0,270.0*
1,1,1.0000,-0.6000,0.0000*
1,1,1.0000,-0.6000,0.0000*
1,1,1.0000,0.6000,0.0000*
1,1,1.0000,0.6000,0.0000*
%
%ADD76ROUNDEDRECTD76*%
G04:AMPARAMS|DCode=77|XSize=1mm|YSize=1.8mm|CornerRadius=0.5mm|HoleSize=0mm|Usage=FLASHONLY|Rotation=270.000|XOffset=0mm|YOffset=0mm|HoleType=Round|Shape=RoundedRectangle|*
%AMROUNDEDRECTD77*
21,1,1.0000,0.8000,0,0,270.0*
21,1,0.0000,1.8000,0,0,270.0*
1,1,1.0000,-0.4000,0.0000*
1,1,1.0000,-0.4000,0.0000*
1,1,1.0000,0.4000,0.0000*
1,1,1.0000,0.4000,0.0000*
%
%ADD77ROUNDEDRECTD77*%
%ADD82R,1.5500X1.5500*%
%ADD83C,1.5500*%
%ADD84R,1.5700X1.5700*%
%ADD85C,1.5700*%
%ADD89R,1.5500X1.5500*%
%ADD96C,6.0000*%
%ADD97C,1.6000*%
G04:AMPARAMS|DCode=98|XSize=1.6mm|YSize=1.6mm|CornerRadius=0.4mm|HoleSize=0mm|Usage=FLASHONLY|Rotation=90.000|XOffset=0mm|YOffset=0mm|HoleType=Round|Shape=RoundedRectangle|*
%AMROUNDEDRECTD98*
21,1,1.6000,0.8000,0,0,90.0*
21,1,0.8000,1.6000,0,0,90.0*
1,1,0.8000,0.4000,0.4000*
1,1,0.8000,0.4000,-0.4000*
1,1,0.8000,-0.4000,-0.4000*
1,1,0.8000,-0.4000,0.4000*
%
%ADD98ROUNDEDRECTD98*%
%ADD99C,1.6500*%
%ADD100C,1.6000*%
%ADD101C,5.5000*%
%ADD102R,1.6500X1.6500*%
G04:AMPARAMS|DCode=103|XSize=1.6mm|YSize=1.6mm|CornerRadius=0.4mm|HoleSize=0mm|Usage=FLASHONLY|Rotation=180.000|XOffset=0mm|YOffset=0mm|HoleType=Round|Shape=RoundedRectangle|*
%AMROUNDEDRECTD103*
21,1,1.6000,0.8000,0,0,180.0*
21,1,0.8000,1.6000,0,0,180.0*
1,1,0.8000,-0.4000,0.4000*
1,1,0.8000,0.4000,0.4000*
1,1,0.8000,0.4000,-0.4000*
1,1,0.8000,-0.4000,-0.4000*
%
%ADD103ROUNDEDRECTD103*%
%ADD104C,0.6096*%
%ADD105C,0.6000*%
G36*
X941492Y809332D02*
X946090Y807427D01*
X950399Y804939D01*
X954347Y801910D01*
X957866Y798391D01*
X960895Y794443D01*
X963383Y790134D01*
X965200Y785748D01*
Y27560D01*
X963383Y23174D01*
X960895Y18865D01*
X957866Y14917D01*
X954347Y11398D01*
X950399Y8369D01*
X946090Y5881D01*
X943548Y4828D01*
X738630D01*
X738378Y5080D01*
X485394D01*
Y4824D01*
X26716Y4414D01*
X23174Y5881D01*
X18865Y8369D01*
X14917Y11398D01*
X11398Y14917D01*
X8369Y18865D01*
X5881Y23174D01*
X3976Y27772D01*
X2689Y32578D01*
X2039Y37512D01*
Y40000D01*
Y773308D01*
Y775796D01*
X2689Y780730D01*
X3976Y785536D01*
X5881Y790134D01*
X8369Y794443D01*
X11398Y798391D01*
X14917Y801910D01*
X18865Y804939D01*
X23174Y807427D01*
X27772Y809332D01*
X28393Y809498D01*
X940871D01*
X941492Y809332D01*
D02*
G37*
%LPC*%
G36*
X869124Y798038D02*
X861124D01*
X859167Y797649D01*
X857508Y796540D01*
X856399Y794881D01*
X856010Y792924D01*
Y784924D01*
X856399Y782967D01*
X857508Y781308D01*
X859167Y780199D01*
X861124Y779810D01*
X869124D01*
X871081Y780199D01*
X872740Y781308D01*
X873849Y782967D01*
X874238Y784924D01*
Y792924D01*
X873849Y794881D01*
X872740Y796540D01*
X871081Y797649D01*
X869124Y798038D01*
D02*
G37*
G36*
X572105Y788416D02*
X570387D01*
X568800Y787759D01*
X567585Y786544D01*
X566928Y784957D01*
Y783239D01*
X567585Y781652D01*
X568800Y780437D01*
X570387Y779780D01*
X572105D01*
X573692Y780437D01*
X574907Y781652D01*
X575564Y783239D01*
Y784957D01*
X574907Y786544D01*
X573692Y787759D01*
X572105Y788416D01*
D02*
G37*
G36*
X371773Y778636D02*
X369399D01*
X367106Y778022D01*
X365050Y776835D01*
X363371Y775156D01*
X362184Y773100D01*
X361570Y770807D01*
Y768433D01*
X362184Y766140D01*
X363371Y764084D01*
X365050Y762405D01*
X367106Y761218D01*
X369399Y760604D01*
X371773D01*
X374066Y761218D01*
X376122Y762405D01*
X377801Y764084D01*
X378988Y766140D01*
X379602Y768433D01*
Y770807D01*
X378988Y773100D01*
X377801Y775156D01*
X376122Y776835D01*
X374066Y778022D01*
X371773Y778636D01*
D02*
G37*
G36*
X346373D02*
X343999D01*
X341706Y778022D01*
X339650Y776835D01*
X337971Y775156D01*
X336784Y773100D01*
X336170Y770807D01*
Y768433D01*
X336784Y766140D01*
X337971Y764084D01*
X339650Y762405D01*
X341706Y761218D01*
X343999Y760604D01*
X346373D01*
X348666Y761218D01*
X350722Y762405D01*
X352401Y764084D01*
X353588Y766140D01*
X354202Y768433D01*
Y770807D01*
X353588Y773100D01*
X352401Y775156D01*
X350722Y776835D01*
X348666Y778022D01*
X346373Y778636D01*
D02*
G37*
G36*
X320973D02*
X318599D01*
X316306Y778022D01*
X314250Y776835D01*
X312571Y775156D01*
X311384Y773100D01*
X310770Y770807D01*
Y768433D01*
X311384Y766140D01*
X312571Y764084D01*
X314250Y762405D01*
X316306Y761218D01*
X318599Y760604D01*
X320973D01*
X323266Y761218D01*
X325322Y762405D01*
X327001Y764084D01*
X328188Y766140D01*
X328802Y768433D01*
Y770807D01*
X328188Y773100D01*
X327001Y775156D01*
X325322Y776835D01*
X323266Y778022D01*
X320973Y778636D01*
D02*
G37*
G36*
X295573D02*
X293199D01*
X290906Y778022D01*
X288850Y776835D01*
X287171Y775156D01*
X285984Y773100D01*
X285370Y770807D01*
Y768433D01*
X285984Y766140D01*
X287171Y764084D01*
X288850Y762405D01*
X290906Y761218D01*
X293199Y760604D01*
X295573D01*
X297866Y761218D01*
X299922Y762405D01*
X301601Y764084D01*
X302788Y766140D01*
X303402Y768433D01*
Y770807D01*
X302788Y773100D01*
X301601Y775156D01*
X299922Y776835D01*
X297866Y778022D01*
X295573Y778636D01*
D02*
G37*
G36*
X399986Y778734D02*
X391986D01*
X390029Y778345D01*
X388370Y777236D01*
X387261Y775577D01*
X386872Y773620D01*
Y765620D01*
X387261Y763663D01*
X388370Y762004D01*
X390029Y760895D01*
X391986Y760506D01*
X399986D01*
X401943Y760895D01*
X403602Y762004D01*
X404711Y763663D01*
X405100Y765620D01*
Y773620D01*
X404711Y775577D01*
X403602Y777236D01*
X401943Y778345D01*
X399986Y778734D01*
D02*
G37*
G36*
X781655Y768350D02*
X779937D01*
X778350Y767693D01*
X777135Y766478D01*
X776478Y764891D01*
Y763173D01*
X777135Y761586D01*
X778350Y760371D01*
X779937Y759714D01*
X781655D01*
X783242Y760371D01*
X784457Y761586D01*
X785114Y763173D01*
Y764891D01*
X784457Y766478D01*
X783242Y767693D01*
X781655Y768350D01*
D02*
G37*
G36*
X866311Y772540D02*
X863937D01*
X861644Y771926D01*
X859588Y770739D01*
X857909Y769060D01*
X856722Y767004D01*
X856108Y764711D01*
Y762337D01*
X856722Y760044D01*
X857909Y757988D01*
X859588Y756309D01*
X861644Y755122D01*
X863937Y754508D01*
X866311D01*
X868604Y755122D01*
X870660Y756309D01*
X872339Y757988D01*
X873526Y760044D01*
X874140Y762337D01*
Y764711D01*
X873526Y767004D01*
X872339Y769060D01*
X870660Y770739D01*
X868604Y771926D01*
X866311Y772540D01*
D02*
G37*
G36*
X928328Y801946D02*
X923840D01*
X919407Y801244D01*
X915138Y799857D01*
X911138Y797819D01*
X907507Y795181D01*
X904333Y792007D01*
X901695Y788376D01*
X899657Y784376D01*
X898270Y780107D01*
X897568Y775674D01*
Y771186D01*
X898270Y766752D01*
X899657Y762484D01*
X901695Y758484D01*
X904333Y754853D01*
X907507Y751679D01*
X911138Y749041D01*
X915138Y747003D01*
X919407Y745616D01*
X923840Y744914D01*
X928328D01*
X932762Y745616D01*
X937030Y747003D01*
X941030Y749041D01*
X944661Y751679D01*
X947835Y754853D01*
X950473Y758484D01*
X952511Y762484D01*
X953898Y766752D01*
X954600Y771186D01*
Y775674D01*
X953898Y780107D01*
X952511Y784376D01*
X950473Y788376D01*
X947835Y792007D01*
X944661Y795181D01*
X941030Y797819D01*
X937030Y799857D01*
X932762Y801244D01*
X928328Y801946D01*
D02*
G37*
G36*
X52488D02*
X48000D01*
X43566Y801244D01*
X39298Y799857D01*
X35298Y797819D01*
X31667Y795181D01*
X28493Y792007D01*
X25855Y788376D01*
X23817Y784376D01*
X22430Y780107D01*
X21728Y775674D01*
Y771186D01*
X22430Y766752D01*
X23817Y762484D01*
X25855Y758484D01*
X28493Y754853D01*
X31667Y751679D01*
X35298Y749041D01*
X39298Y747003D01*
X43566Y745616D01*
X48000Y744914D01*
X52488D01*
X56922Y745616D01*
X61190Y747003D01*
X65190Y749041D01*
X68821Y751679D01*
X71995Y754853D01*
X74633Y758484D01*
X76671Y762484D01*
X78058Y766752D01*
X78760Y771186D01*
Y775674D01*
X78058Y780107D01*
X76671Y784376D01*
X74633Y788376D01*
X71995Y792007D01*
X68821Y795181D01*
X65190Y797819D01*
X61190Y799857D01*
X56922Y801244D01*
X52488Y801946D01*
D02*
G37*
G36*
X866311Y747140D02*
X863937D01*
X861644Y746526D01*
X859588Y745339D01*
X857909Y743660D01*
X856722Y741604D01*
X856108Y739311D01*
Y736937D01*
X856722Y734644D01*
X857909Y732588D01*
X859588Y730909D01*
X861644Y729722D01*
X863937Y729108D01*
X866311D01*
X868604Y729722D01*
X870660Y730909D01*
X872339Y732588D01*
X873526Y734644D01*
X874140Y736937D01*
Y739311D01*
X873526Y741604D01*
X872339Y743660D01*
X870660Y745339D01*
X868604Y746526D01*
X866311Y747140D01*
D02*
G37*
G36*
X68406Y718754D02*
X64914D01*
Y713128D01*
X74439D01*
X74073Y714967D01*
X72743Y716957D01*
X70753Y718287D01*
X68406Y718754D01*
D02*
G37*
G36*
X30406D02*
X24914D01*
Y713128D01*
X36439D01*
X36073Y714967D01*
X34743Y716957D01*
X32753Y718287D01*
X30406Y718754D01*
D02*
G37*
G36*
X63898D02*
X60406D01*
X58059Y718287D01*
X56069Y716957D01*
X54739Y714967D01*
X54373Y713128D01*
X63898D01*
Y718754D01*
D02*
G37*
G36*
X23898D02*
X18406D01*
X16059Y718287D01*
X14069Y716957D01*
X12739Y714967D01*
X12373Y713128D01*
X23898D01*
Y718754D01*
D02*
G37*
G36*
X74439Y712112D02*
X64914D01*
Y706486D01*
X68406D01*
X70753Y706953D01*
X72743Y708283D01*
X74073Y710273D01*
X74439Y712112D01*
D02*
G37*
G36*
X63898D02*
X54373D01*
X54739Y710273D01*
X56069Y708283D01*
X58059Y706953D01*
X60406Y706486D01*
X63898D01*
Y712112D01*
D02*
G37*
G36*
X36439D02*
X24914D01*
Y706486D01*
X30406D01*
X32753Y706953D01*
X34743Y708283D01*
X36073Y710273D01*
X36439Y712112D01*
D02*
G37*
G36*
X23898D02*
X12373D01*
X12739Y710273D01*
X14069Y708283D01*
X16059Y706953D01*
X18406Y706486D01*
X23898D01*
Y712112D01*
D02*
G37*
G36*
X866311Y721740D02*
X863937D01*
X861644Y721126D01*
X859588Y719939D01*
X857909Y718260D01*
X856722Y716204D01*
X856108Y713911D01*
Y711537D01*
X856722Y709244D01*
X857909Y707188D01*
X859588Y705509D01*
X861644Y704322D01*
X863937Y703708D01*
X866311D01*
X868604Y704322D01*
X870660Y705509D01*
X872339Y707188D01*
X873526Y709244D01*
X874140Y711537D01*
Y713911D01*
X873526Y716204D01*
X872339Y718260D01*
X870660Y719939D01*
X868604Y721126D01*
X866311Y721740D01*
D02*
G37*
G36*
Y696340D02*
X865632D01*
Y687832D01*
X874140D01*
Y688511D01*
X873526Y690804D01*
X872339Y692860D01*
X870660Y694539D01*
X868604Y695726D01*
X866311Y696340D01*
D02*
G37*
G36*
X864616D02*
X863937D01*
X861644Y695726D01*
X859588Y694539D01*
X857909Y692860D01*
X856722Y690804D01*
X856108Y688511D01*
Y687832D01*
X864616D01*
Y696340D01*
D02*
G37*
G36*
X874140Y686816D02*
X865632D01*
Y678308D01*
X866311D01*
X868604Y678922D01*
X870660Y680109D01*
X872339Y681788D01*
X873526Y683844D01*
X874140Y686137D01*
Y686816D01*
D02*
G37*
G36*
X864616D02*
X856108D01*
Y686137D01*
X856722Y683844D01*
X857909Y681788D01*
X859588Y680109D01*
X861644Y678922D01*
X863937Y678308D01*
X864616D01*
Y686816D01*
D02*
G37*
G36*
X173325Y686054D02*
X171607D01*
X170020Y685397D01*
X168805Y684182D01*
X168148Y682595D01*
Y680877D01*
X168805Y679290D01*
X170020Y678075D01*
X171607Y677418D01*
X173325D01*
X174912Y678075D01*
X176127Y679290D01*
X176784Y680877D01*
Y682595D01*
X176127Y684182D01*
X174912Y685397D01*
X173325Y686054D01*
D02*
G37*
G36*
X527147Y669544D02*
X525429D01*
X523842Y668887D01*
X522627Y667672D01*
X521970Y666085D01*
Y664367D01*
X522627Y662780D01*
X523842Y661565D01*
X525429Y660908D01*
X527147D01*
X528734Y661565D01*
X529949Y662780D01*
X530606Y664367D01*
Y666085D01*
X529949Y667672D01*
X528734Y668887D01*
X527147Y669544D01*
D02*
G37*
G36*
X572867Y666496D02*
X571149D01*
X569562Y665839D01*
X568347Y664624D01*
X567690Y663037D01*
Y661319D01*
X568347Y659732D01*
X569562Y658517D01*
X571149Y657860D01*
X572867D01*
X574454Y658517D01*
X575669Y659732D01*
X576326Y661319D01*
Y663037D01*
X575669Y664624D01*
X574454Y665839D01*
X572867Y666496D01*
D02*
G37*
G36*
X68406Y632354D02*
X64914D01*
Y626728D01*
X74439D01*
X74073Y628567D01*
X72743Y630557D01*
X70753Y631887D01*
X68406Y632354D01*
D02*
G37*
G36*
X30406D02*
X24914D01*
Y626728D01*
X36439D01*
X36073Y628567D01*
X34743Y630557D01*
X32753Y631887D01*
X30406Y632354D01*
D02*
G37*
G36*
X63898D02*
X60406D01*
X58059Y631887D01*
X56069Y630557D01*
X54739Y628567D01*
X54373Y626728D01*
X63898D01*
Y632354D01*
D02*
G37*
G36*
X23898D02*
X18406D01*
X16059Y631887D01*
X14069Y630557D01*
X12739Y628567D01*
X12373Y626728D01*
X23898D01*
Y632354D01*
D02*
G37*
G36*
X553055Y632460D02*
X551337D01*
X549750Y631803D01*
X548535Y630588D01*
X547878Y629001D01*
Y627283D01*
X548535Y625696D01*
X549750Y624481D01*
X551337Y623824D01*
X553055D01*
X554642Y624481D01*
X555857Y625696D01*
X556514Y627283D01*
Y629001D01*
X555857Y630588D01*
X554642Y631803D01*
X553055Y632460D01*
D02*
G37*
G36*
X74439Y625712D02*
X64914D01*
Y620086D01*
X68406D01*
X70753Y620553D01*
X72743Y621883D01*
X74073Y623873D01*
X74439Y625712D01*
D02*
G37*
G36*
X63898D02*
X54373D01*
X54739Y623873D01*
X56069Y621883D01*
X58059Y620553D01*
X60406Y620086D01*
X63898D01*
Y625712D01*
D02*
G37*
G36*
X36439D02*
X24914D01*
Y620086D01*
X30406D01*
X32753Y620553D01*
X34743Y621883D01*
X36073Y623873D01*
X36439Y625712D01*
D02*
G37*
G36*
X23898D02*
X12373D01*
X12739Y623873D01*
X14069Y621883D01*
X16059Y620553D01*
X18406Y620086D01*
X23898D01*
Y625712D01*
D02*
G37*
G36*
X146655Y622554D02*
X144937D01*
X143350Y621897D01*
X142135Y620682D01*
X141478Y619095D01*
Y617377D01*
X142135Y615790D01*
X143350Y614575D01*
X144937Y613918D01*
X146655D01*
X148242Y614575D01*
X149457Y615790D01*
X150114Y617377D01*
Y619095D01*
X149457Y620682D01*
X148242Y621897D01*
X146655Y622554D01*
D02*
G37*
G36*
X553309Y604520D02*
X551591D01*
X550004Y603863D01*
X548789Y602648D01*
X548132Y601061D01*
Y599343D01*
X548789Y597756D01*
X550004Y596541D01*
X551591Y595884D01*
X553309D01*
X554896Y596541D01*
X556111Y597756D01*
X556768Y599343D01*
Y601061D01*
X556111Y602648D01*
X554896Y603863D01*
X553309Y604520D01*
D02*
G37*
G36*
X68406Y595434D02*
X64914D01*
Y589808D01*
X74439D01*
X74073Y591647D01*
X72743Y593637D01*
X70753Y594967D01*
X68406Y595434D01*
D02*
G37*
G36*
X30406D02*
X24914D01*
Y589808D01*
X36439D01*
X36073Y591647D01*
X34743Y593637D01*
X32753Y594967D01*
X30406Y595434D01*
D02*
G37*
G36*
X63898D02*
X60406D01*
X58059Y594967D01*
X56069Y593637D01*
X54739Y591647D01*
X54373Y589808D01*
X63898D01*
Y595434D01*
D02*
G37*
G36*
X23898D02*
X18406D01*
X16059Y594967D01*
X14069Y593637D01*
X12739Y591647D01*
X12373Y589808D01*
X23898D01*
Y595434D01*
D02*
G37*
G36*
X74439Y588792D02*
X64914D01*
Y583166D01*
X68406D01*
X70753Y583633D01*
X72743Y584963D01*
X74073Y586953D01*
X74439Y588792D01*
D02*
G37*
G36*
X63898D02*
X54373D01*
X54739Y586953D01*
X56069Y584963D01*
X58059Y583633D01*
X60406Y583166D01*
X63898D01*
Y588792D01*
D02*
G37*
G36*
X36439D02*
X24914D01*
Y583166D01*
X30406D01*
X32753Y583633D01*
X34743Y584963D01*
X36073Y586953D01*
X36439Y588792D01*
D02*
G37*
G36*
X23898D02*
X12373D01*
X12739Y586953D01*
X14069Y584963D01*
X16059Y583633D01*
X18406Y583166D01*
X23898D01*
Y588792D01*
D02*
G37*
G36*
X454120Y580828D02*
X451812D01*
X449582Y580231D01*
X447584Y579076D01*
X445951Y577444D01*
X444797Y575446D01*
X444200Y573216D01*
Y570908D01*
X444797Y568678D01*
X445951Y566680D01*
X447584Y565047D01*
X449582Y563893D01*
X451812Y563296D01*
X454120D01*
X456350Y563893D01*
X458348Y565047D01*
X459981Y566680D01*
X461135Y568678D01*
X461732Y570908D01*
Y573216D01*
X461135Y575446D01*
X459981Y577444D01*
X458348Y579076D01*
X456350Y580231D01*
X454120Y580828D01*
D02*
G37*
G36*
X227173Y570230D02*
X225455D01*
X223868Y569573D01*
X222653Y568358D01*
X221996Y566771D01*
Y565053D01*
X222653Y563466D01*
X223868Y562251D01*
X225455Y561594D01*
X227173D01*
X228760Y562251D01*
X229975Y563466D01*
X230632Y565053D01*
Y566771D01*
X229975Y568358D01*
X228760Y569573D01*
X227173Y570230D01*
D02*
G37*
G36*
X607198Y567058D02*
X604890D01*
X602660Y566461D01*
X600662Y565307D01*
X599030Y563674D01*
X597875Y561676D01*
X597278Y559446D01*
Y557138D01*
X597875Y554908D01*
X599030Y552910D01*
X600662Y551278D01*
X602660Y550123D01*
X604890Y549526D01*
X607198D01*
X609428Y550123D01*
X611426Y551278D01*
X613059Y552910D01*
X614213Y554908D01*
X614810Y557138D01*
Y559446D01*
X614213Y561676D01*
X613059Y563674D01*
X611426Y565307D01*
X609428Y566461D01*
X607198Y567058D01*
D02*
G37*
G36*
X589810D02*
X572278D01*
Y549526D01*
X589810D01*
Y567058D01*
D02*
G37*
G36*
X132177Y549402D02*
X130459D01*
X128872Y548745D01*
X127657Y547530D01*
X127000Y545943D01*
Y544225D01*
X127657Y542638D01*
X128872Y541423D01*
X130459Y540766D01*
X132177D01*
X133764Y541423D01*
X134979Y542638D01*
X135636Y544225D01*
Y545943D01*
X134979Y547530D01*
X133764Y548745D01*
X132177Y549402D01*
D02*
G37*
G36*
X192629Y548894D02*
X190911D01*
X189324Y548237D01*
X188109Y547022D01*
X187452Y545435D01*
Y543717D01*
X188109Y542130D01*
X189324Y540915D01*
X190911Y540258D01*
X192629D01*
X194216Y540915D01*
X195431Y542130D01*
X196088Y543717D01*
Y545435D01*
X195431Y547022D01*
X194216Y548237D01*
X192629Y548894D01*
D02*
G37*
G36*
X461732Y555828D02*
X444200D01*
Y538296D01*
X461732D01*
Y555828D01*
D02*
G37*
G36*
X54707Y526288D02*
X52989D01*
X51402Y525631D01*
X50187Y524416D01*
X49530Y522829D01*
Y521111D01*
X50187Y519524D01*
X51402Y518309D01*
X52989Y517652D01*
X54707D01*
X56294Y518309D01*
X57509Y519524D01*
X58166Y521111D01*
Y522829D01*
X57509Y524416D01*
X56294Y525631D01*
X54707Y526288D01*
D02*
G37*
G36*
X518003Y515112D02*
X516285D01*
X514698Y514455D01*
X513483Y513240D01*
X512826Y511653D01*
Y509935D01*
X513483Y508348D01*
X514698Y507133D01*
X516285Y506476D01*
X518003D01*
X519590Y507133D01*
X520805Y508348D01*
X521462Y509935D01*
Y511653D01*
X520805Y513240D01*
X519590Y514455D01*
X518003Y515112D01*
D02*
G37*
G36*
X537561Y514858D02*
X535843D01*
X534256Y514201D01*
X533041Y512986D01*
X532384Y511399D01*
Y509681D01*
X533041Y508094D01*
X534256Y506879D01*
X535843Y506222D01*
X537561D01*
X539148Y506879D01*
X540363Y508094D01*
X541020Y509681D01*
Y511399D01*
X540363Y512986D01*
X539148Y514201D01*
X537561Y514858D01*
D02*
G37*
G36*
X582519Y514350D02*
X580801D01*
X579214Y513693D01*
X577999Y512478D01*
X577342Y510891D01*
Y509173D01*
X577999Y507586D01*
X579214Y506371D01*
X580801Y505714D01*
X582519D01*
X584106Y506371D01*
X585321Y507586D01*
X585978Y509173D01*
Y510891D01*
X585321Y512478D01*
X584106Y513693D01*
X582519Y514350D01*
D02*
G37*
G36*
X68406Y509034D02*
X64914D01*
Y503408D01*
X74439D01*
X74073Y505247D01*
X72743Y507237D01*
X70753Y508567D01*
X68406Y509034D01*
D02*
G37*
G36*
X30406D02*
X24914D01*
Y503408D01*
X36439D01*
X36073Y505247D01*
X34743Y507237D01*
X32753Y508567D01*
X30406Y509034D01*
D02*
G37*
G36*
X63898D02*
X60406D01*
X58059Y508567D01*
X56069Y507237D01*
X54739Y505247D01*
X54373Y503408D01*
X63898D01*
Y509034D01*
D02*
G37*
G36*
X23898D02*
X18406D01*
X16059Y508567D01*
X14069Y507237D01*
X12739Y505247D01*
X12373Y503408D01*
X23898D01*
Y509034D01*
D02*
G37*
G36*
X157069Y508000D02*
X155351D01*
X153764Y507343D01*
X152549Y506128D01*
X151892Y504541D01*
Y502823D01*
X152549Y501236D01*
X153764Y500021D01*
X155351Y499364D01*
X157069D01*
X158656Y500021D01*
X159871Y501236D01*
X160528Y502823D01*
Y504541D01*
X159871Y506128D01*
X158656Y507343D01*
X157069Y508000D01*
D02*
G37*
G36*
X590139Y505714D02*
X588421D01*
X586834Y505057D01*
X585619Y503842D01*
X584962Y502255D01*
Y500537D01*
X585619Y498950D01*
X586834Y497735D01*
X588421Y497078D01*
X590139D01*
X591726Y497735D01*
X592941Y498950D01*
X593598Y500537D01*
Y502255D01*
X592941Y503842D01*
X591726Y505057D01*
X590139Y505714D01*
D02*
G37*
G36*
X74439Y502392D02*
X64914D01*
Y496766D01*
X68406D01*
X70753Y497233D01*
X72743Y498563D01*
X74073Y500553D01*
X74439Y502392D01*
D02*
G37*
G36*
X63898D02*
X54373D01*
X54739Y500553D01*
X56069Y498563D01*
X58059Y497233D01*
X60406Y496766D01*
X63898D01*
Y502392D01*
D02*
G37*
G36*
X36439D02*
X24914D01*
Y496766D01*
X30406D01*
X32753Y497233D01*
X34743Y498563D01*
X36073Y500553D01*
X36439Y502392D01*
D02*
G37*
G36*
X23898D02*
X12373D01*
X12739Y500553D01*
X14069Y498563D01*
X16059Y497233D01*
X18406Y496766D01*
X23898D01*
Y502392D01*
D02*
G37*
G36*
X807162Y497962D02*
X806450D01*
Y489204D01*
X815208D01*
Y489916D01*
X814576Y492272D01*
X813357Y494385D01*
X811631Y496111D01*
X809519Y497331D01*
X807162Y497962D01*
D02*
G37*
G36*
X805434D02*
X804722D01*
X802365Y497331D01*
X800253Y496111D01*
X798527Y494385D01*
X797308Y492272D01*
X796676Y489916D01*
Y489204D01*
X805434D01*
Y497962D01*
D02*
G37*
G36*
X857962D02*
X855522D01*
X853166Y497331D01*
X851053Y496111D01*
X849327Y494385D01*
X848108Y492272D01*
X847476Y489916D01*
Y487476D01*
X848108Y485120D01*
X849327Y483007D01*
X851053Y481281D01*
X853166Y480061D01*
X855522Y479430D01*
X857962D01*
X860319Y480061D01*
X862431Y481281D01*
X864157Y483007D01*
X865377Y485120D01*
X866008Y487476D01*
Y489916D01*
X865377Y492272D01*
X864157Y494385D01*
X862431Y496111D01*
X860319Y497331D01*
X857962Y497962D01*
D02*
G37*
G36*
X832562D02*
X830122D01*
X827766Y497331D01*
X825653Y496111D01*
X823927Y494385D01*
X822708Y492272D01*
X822076Y489916D01*
Y487476D01*
X822708Y485120D01*
X823927Y483007D01*
X825653Y481281D01*
X827766Y480061D01*
X830122Y479430D01*
X832562D01*
X834919Y480061D01*
X837031Y481281D01*
X838757Y483007D01*
X839977Y485120D01*
X840608Y487476D01*
Y489916D01*
X839977Y492272D01*
X838757Y494385D01*
X837031Y496111D01*
X834919Y497331D01*
X832562Y497962D01*
D02*
G37*
G36*
X815208Y488188D02*
X806450D01*
Y479430D01*
X807162D01*
X809519Y480061D01*
X811631Y481281D01*
X813357Y483007D01*
X814576Y485120D01*
X815208Y487476D01*
Y488188D01*
D02*
G37*
G36*
X805434D02*
X796676D01*
Y487476D01*
X797308Y485120D01*
X798527Y483007D01*
X800253Y481281D01*
X802365Y480061D01*
X804722Y479430D01*
X805434D01*
Y488188D01*
D02*
G37*
G36*
X781762Y497962D02*
X779322D01*
X776965Y497331D01*
X774853Y496111D01*
X773127Y494385D01*
X771908Y492272D01*
X771276Y489916D01*
Y487476D01*
X771908Y485120D01*
X773127Y483007D01*
X774853Y481281D01*
X776965Y480061D01*
X779322Y479430D01*
X781762D01*
X784118Y480061D01*
X786231Y481281D01*
X787957Y483007D01*
X789176Y485120D01*
X789808Y487476D01*
Y489916D01*
X789176Y492272D01*
X787957Y494385D01*
X786231Y496111D01*
X784118Y497331D01*
X781762Y497962D01*
D02*
G37*
G36*
X756362D02*
X753922D01*
X751565Y497331D01*
X749453Y496111D01*
X747727Y494385D01*
X746507Y492272D01*
X745876Y489916D01*
Y487476D01*
X746507Y485120D01*
X747727Y483007D01*
X749453Y481281D01*
X751565Y480061D01*
X753922Y479430D01*
X756362D01*
X758718Y480061D01*
X760831Y481281D01*
X762557Y483007D01*
X763776Y485120D01*
X764408Y487476D01*
Y489916D01*
X763776Y492272D01*
X762557Y494385D01*
X760831Y496111D01*
X758718Y497331D01*
X756362Y497962D01*
D02*
G37*
G36*
X584043Y478028D02*
X582325D01*
X580738Y477371D01*
X579523Y476156D01*
X578866Y474569D01*
Y472851D01*
X579523Y471264D01*
X580738Y470049D01*
X582325Y469392D01*
X584043D01*
X585630Y470049D01*
X586845Y471264D01*
X587502Y472851D01*
Y474569D01*
X586845Y476156D01*
X585630Y477371D01*
X584043Y478028D01*
D02*
G37*
G36*
X807162Y472562D02*
X806450D01*
Y463804D01*
X815208D01*
Y464516D01*
X814576Y466872D01*
X813357Y468985D01*
X811631Y470711D01*
X809519Y471931D01*
X807162Y472562D01*
D02*
G37*
G36*
X805434D02*
X804722D01*
X802365Y471931D01*
X800253Y470711D01*
X798527Y468985D01*
X797308Y466872D01*
X796676Y464516D01*
Y463804D01*
X805434D01*
Y472562D01*
D02*
G37*
G36*
X327382Y478766D02*
X309650D01*
Y461034D01*
X327382D01*
Y478766D01*
D02*
G37*
G36*
X857962Y472562D02*
X855522D01*
X853166Y471931D01*
X851053Y470711D01*
X849327Y468985D01*
X848108Y466872D01*
X847476Y464516D01*
Y462076D01*
X848108Y459720D01*
X849327Y457607D01*
X851053Y455881D01*
X853166Y454661D01*
X855522Y454030D01*
X857962D01*
X860319Y454661D01*
X862431Y455881D01*
X864157Y457607D01*
X865377Y459720D01*
X866008Y462076D01*
Y464516D01*
X865377Y466872D01*
X864157Y468985D01*
X862431Y470711D01*
X860319Y471931D01*
X857962Y472562D01*
D02*
G37*
G36*
X832562D02*
X830122D01*
X827766Y471931D01*
X825653Y470711D01*
X823927Y468985D01*
X822708Y466872D01*
X822076Y464516D01*
Y462076D01*
X822708Y459720D01*
X823927Y457607D01*
X825653Y455881D01*
X827766Y454661D01*
X830122Y454030D01*
X832562D01*
X834919Y454661D01*
X837031Y455881D01*
X838757Y457607D01*
X839977Y459720D01*
X840608Y462076D01*
Y464516D01*
X839977Y466872D01*
X838757Y468985D01*
X837031Y470711D01*
X834919Y471931D01*
X832562Y472562D01*
D02*
G37*
G36*
X815208Y462788D02*
X806450D01*
Y454030D01*
X807162D01*
X809519Y454661D01*
X811631Y455881D01*
X813357Y457607D01*
X814576Y459720D01*
X815208Y462076D01*
Y462788D01*
D02*
G37*
G36*
X805434D02*
X796676D01*
Y462076D01*
X797308Y459720D01*
X798527Y457607D01*
X800253Y455881D01*
X802365Y454661D01*
X804722Y454030D01*
X805434D01*
Y462788D01*
D02*
G37*
G36*
X781762Y472562D02*
X779322D01*
X776965Y471931D01*
X774853Y470711D01*
X773127Y468985D01*
X771908Y466872D01*
X771276Y464516D01*
Y462076D01*
X771908Y459720D01*
X773127Y457607D01*
X774853Y455881D01*
X776965Y454661D01*
X779322Y454030D01*
X781762D01*
X784118Y454661D01*
X786231Y455881D01*
X787957Y457607D01*
X789176Y459720D01*
X789808Y462076D01*
Y464516D01*
X789176Y466872D01*
X787957Y468985D01*
X786231Y470711D01*
X784118Y471931D01*
X781762Y472562D01*
D02*
G37*
G36*
X764408D02*
X745876D01*
Y454030D01*
X764408D01*
Y472562D01*
D02*
G37*
G36*
X150793Y462406D02*
X148419D01*
X146126Y461792D01*
X144070Y460605D01*
X142391Y458926D01*
X141204Y456870D01*
X140590Y454577D01*
Y452203D01*
X141204Y449910D01*
X142391Y447854D01*
X144070Y446175D01*
X146126Y444988D01*
X148419Y444374D01*
X150793D01*
X153086Y444988D01*
X155142Y446175D01*
X156821Y447854D01*
X158008Y449910D01*
X158622Y452203D01*
Y454577D01*
X158008Y456870D01*
X156821Y458926D01*
X155142Y460605D01*
X153086Y461792D01*
X150793Y462406D01*
D02*
G37*
G36*
X356459Y449072D02*
X354741D01*
X353154Y448415D01*
X351939Y447200D01*
X351282Y445613D01*
Y443895D01*
X351939Y442308D01*
X353154Y441093D01*
X354741Y440436D01*
X356459D01*
X358046Y441093D01*
X359261Y442308D01*
X359918Y443895D01*
Y445613D01*
X359261Y447200D01*
X358046Y448415D01*
X356459Y449072D01*
D02*
G37*
G36*
X389225Y448056D02*
X387507D01*
X385920Y447399D01*
X384705Y446184D01*
X384048Y444597D01*
Y442879D01*
X384705Y441292D01*
X385920Y440077D01*
X387507Y439420D01*
X389225D01*
X390812Y440077D01*
X392027Y441292D01*
X392684Y442879D01*
Y444597D01*
X392027Y446184D01*
X390812Y447399D01*
X389225Y448056D01*
D02*
G37*
G36*
X319683Y453366D02*
X317349D01*
X315094Y452762D01*
X313072Y451595D01*
X311421Y449944D01*
X310254Y447922D01*
X309650Y445667D01*
Y443333D01*
X310254Y441078D01*
X311421Y439056D01*
X313072Y437405D01*
X315094Y436238D01*
X317349Y435634D01*
X319683D01*
X321938Y436238D01*
X323960Y437405D01*
X325611Y439056D01*
X326778Y441078D01*
X327382Y443333D01*
Y445667D01*
X326778Y447922D01*
X325611Y449944D01*
X323960Y451595D01*
X321938Y452762D01*
X319683Y453366D01*
D02*
G37*
G36*
X626207Y435864D02*
X624489D01*
X622902Y435207D01*
X621687Y433992D01*
X621030Y432405D01*
Y430687D01*
X621687Y429100D01*
X622902Y427885D01*
X624489Y427228D01*
X626207D01*
X627794Y427885D01*
X629009Y429100D01*
X629666Y430687D01*
Y432405D01*
X629009Y433992D01*
X627794Y435207D01*
X626207Y435864D01*
D02*
G37*
G36*
X666847Y429260D02*
X665129D01*
X663542Y428603D01*
X662327Y427388D01*
X661670Y425801D01*
Y424083D01*
X662327Y422496D01*
X663542Y421281D01*
X665129Y420624D01*
X666847D01*
X668434Y421281D01*
X669649Y422496D01*
X670306Y424083D01*
Y425801D01*
X669649Y427388D01*
X668434Y428603D01*
X666847Y429260D01*
D02*
G37*
G36*
X150793Y437006D02*
X148419D01*
X146126Y436392D01*
X144070Y435205D01*
X142391Y433526D01*
X141204Y431470D01*
X140590Y429177D01*
Y426803D01*
X141204Y424510D01*
X142391Y422454D01*
X144070Y420775D01*
X146126Y419588D01*
X148419Y418974D01*
X150793D01*
X153086Y419588D01*
X155142Y420775D01*
X156821Y422454D01*
X158008Y424510D01*
X158622Y426803D01*
Y429177D01*
X158008Y431470D01*
X156821Y433526D01*
X155142Y435205D01*
X153086Y436392D01*
X150793Y437006D01*
D02*
G37*
G36*
X153606Y411704D02*
X145606D01*
X143649Y411315D01*
X141990Y410206D01*
X140881Y408547D01*
X140492Y406590D01*
Y398590D01*
X140881Y396633D01*
X141990Y394974D01*
X143649Y393865D01*
X145606Y393476D01*
X153606D01*
X155563Y393865D01*
X157222Y394974D01*
X158331Y396633D01*
X158720Y398590D01*
Y406590D01*
X158331Y408547D01*
X157222Y410206D01*
X155563Y411315D01*
X153606Y411704D01*
D02*
G37*
G36*
X534513Y386588D02*
X532795D01*
X531208Y385931D01*
X529993Y384716D01*
X529336Y383129D01*
Y381411D01*
X529993Y379824D01*
X531208Y378609D01*
X532795Y377952D01*
X534513D01*
X536100Y378609D01*
X537315Y379824D01*
X537972Y381411D01*
Y383129D01*
X537315Y384716D01*
X536100Y385931D01*
X534513Y386588D01*
D02*
G37*
G36*
X63147Y407376D02*
X61214D01*
Y376868D01*
X91722D01*
Y378801D01*
X90958Y383623D01*
X89450Y388266D01*
X87233Y392616D01*
X84364Y396566D01*
X80912Y400018D01*
X76962Y402887D01*
X72612Y405104D01*
X67969Y406612D01*
X63147Y407376D01*
D02*
G37*
G36*
X60198D02*
X58265D01*
X53443Y406612D01*
X48800Y405104D01*
X44450Y402887D01*
X40500Y400018D01*
X37048Y396566D01*
X34179Y392616D01*
X31962Y388266D01*
X30454Y383623D01*
X29690Y378801D01*
Y376868D01*
X60198D01*
Y407376D01*
D02*
G37*
G36*
X656433Y385318D02*
X654715D01*
X653128Y384661D01*
X651913Y383446D01*
X651256Y381859D01*
Y380141D01*
X651913Y378554D01*
X653128Y377339D01*
X654715Y376682D01*
X656433D01*
X658020Y377339D01*
X659235Y378554D01*
X659892Y380141D01*
Y381859D01*
X659235Y383446D01*
X658020Y384661D01*
X656433Y385318D01*
D02*
G37*
G36*
X637383Y384048D02*
X635665D01*
X634078Y383391D01*
X632863Y382176D01*
X632206Y380589D01*
Y378871D01*
X632863Y377284D01*
X634078Y376069D01*
X635665Y375412D01*
X637383D01*
X638970Y376069D01*
X640185Y377284D01*
X640842Y378871D01*
Y380589D01*
X640185Y382176D01*
X638970Y383391D01*
X637383Y384048D01*
D02*
G37*
G36*
X559913D02*
X558195D01*
X556608Y383391D01*
X555393Y382176D01*
X554736Y380589D01*
Y378871D01*
X555393Y377284D01*
X556608Y376069D01*
X558195Y375412D01*
X559913D01*
X561500Y376069D01*
X562715Y377284D01*
X563372Y378871D01*
Y380589D01*
X562715Y382176D01*
X561500Y383391D01*
X559913Y384048D01*
D02*
G37*
G36*
X694533Y382778D02*
X692815D01*
X691228Y382121D01*
X690013Y380906D01*
X689356Y379319D01*
Y377601D01*
X690013Y376014D01*
X691228Y374799D01*
X692815Y374142D01*
X694533D01*
X696120Y374799D01*
X697335Y376014D01*
X697992Y377601D01*
Y379319D01*
X697335Y380906D01*
X696120Y382121D01*
X694533Y382778D01*
D02*
G37*
G36*
X473553Y376428D02*
X471835D01*
X470248Y375771D01*
X469033Y374556D01*
X468376Y372969D01*
Y371251D01*
X469033Y369664D01*
X470248Y368449D01*
X471835Y367792D01*
X473553D01*
X475140Y368449D01*
X476355Y369664D01*
X477012Y371251D01*
Y372969D01*
X476355Y374556D01*
X475140Y375771D01*
X473553Y376428D01*
D02*
G37*
G36*
X591409Y371094D02*
X589691D01*
X588104Y370437D01*
X586889Y369222D01*
X586232Y367635D01*
Y365917D01*
X586889Y364330D01*
X588104Y363115D01*
X589691Y362458D01*
X591389D01*
X591452Y362392D01*
X591935Y361655D01*
X591964Y361588D01*
X591312Y360015D01*
Y358297D01*
X591969Y356710D01*
X593184Y355495D01*
X594771Y354838D01*
X596489D01*
X598076Y355495D01*
X599291Y356710D01*
X599948Y358297D01*
Y360015D01*
X599291Y361602D01*
X598076Y362817D01*
X596489Y363474D01*
X594791D01*
X594728Y363540D01*
X594245Y364277D01*
X594216Y364344D01*
X594868Y365917D01*
Y367635D01*
X594211Y369222D01*
X592996Y370437D01*
X591409Y371094D01*
D02*
G37*
G36*
X91722Y375852D02*
X61214D01*
Y345344D01*
X63147D01*
X67969Y346108D01*
X72612Y347616D01*
X76962Y349833D01*
X80912Y352702D01*
X84364Y356154D01*
X87233Y360104D01*
X89450Y364454D01*
X90958Y369097D01*
X91722Y373919D01*
Y375852D01*
D02*
G37*
G36*
X60198D02*
X29690D01*
Y373919D01*
X30454Y369097D01*
X31962Y364454D01*
X34179Y360104D01*
X37048Y356154D01*
X40500Y352702D01*
X44450Y349833D01*
X48800Y347616D01*
X53443Y346108D01*
X58265Y345344D01*
X60198D01*
Y375852D01*
D02*
G37*
G36*
X496159Y351790D02*
X494441D01*
X492854Y351133D01*
X491639Y349918D01*
X490982Y348331D01*
Y346613D01*
X491639Y345026D01*
X492854Y343811D01*
X494441Y343154D01*
X496159D01*
X497746Y343811D01*
X498961Y345026D01*
X499618Y346613D01*
Y348331D01*
X498961Y349918D01*
X497746Y351133D01*
X496159Y351790D01*
D02*
G37*
G36*
X786301Y350646D02*
X785622D01*
Y342138D01*
X794130D01*
Y342817D01*
X793516Y345110D01*
X792329Y347166D01*
X790650Y348845D01*
X788594Y350032D01*
X786301Y350646D01*
D02*
G37*
G36*
X784606D02*
X783927D01*
X781634Y350032D01*
X779578Y348845D01*
X777899Y347166D01*
X776712Y345110D01*
X776098Y342817D01*
Y342138D01*
X784606D01*
Y350646D01*
D02*
G37*
G36*
X794130Y341122D02*
X785622D01*
Y332614D01*
X786301D01*
X788594Y333228D01*
X790650Y334415D01*
X792329Y336094D01*
X793516Y338150D01*
X794130Y340443D01*
Y341122D01*
D02*
G37*
G36*
X784606D02*
X776098D01*
Y340443D01*
X776712Y338150D01*
X777899Y336094D01*
X779578Y334415D01*
X781634Y333228D01*
X783927Y332614D01*
X784606D01*
Y341122D01*
D02*
G37*
G36*
X575153Y333248D02*
X573435D01*
X571848Y332591D01*
X570633Y331376D01*
X569976Y329789D01*
Y328071D01*
X570633Y326484D01*
X571848Y325269D01*
X573435Y324612D01*
X575153D01*
X576740Y325269D01*
X577955Y326484D01*
X578612Y328071D01*
Y329789D01*
X577955Y331376D01*
X576740Y332591D01*
X575153Y333248D01*
D02*
G37*
G36*
X476601Y326898D02*
X474883D01*
X473296Y326241D01*
X472081Y325026D01*
X471424Y323439D01*
Y321721D01*
X472081Y320134D01*
X473296Y318919D01*
X474883Y318262D01*
X476601D01*
X478188Y318919D01*
X479403Y320134D01*
X480060Y321721D01*
Y323439D01*
X479403Y325026D01*
X478188Y326241D01*
X476601Y326898D01*
D02*
G37*
G36*
X379914Y333442D02*
X377540D01*
X375247Y332828D01*
X373191Y331641D01*
X371512Y329962D01*
X370325Y327906D01*
X369711Y325613D01*
Y323239D01*
X370325Y320946D01*
X371512Y318890D01*
X373191Y317211D01*
X375247Y316024D01*
X377540Y315410D01*
X379914D01*
X382207Y316024D01*
X384263Y317211D01*
X385941Y318890D01*
X387128Y320946D01*
X387743Y323239D01*
Y325613D01*
X387128Y327906D01*
X385941Y329962D01*
X384263Y331641D01*
X382207Y332828D01*
X379914Y333442D01*
D02*
G37*
G36*
X349914D02*
X347540D01*
X345247Y332828D01*
X343191Y331641D01*
X341512Y329962D01*
X340325Y327906D01*
X339711Y325613D01*
Y323239D01*
X340325Y320946D01*
X341512Y318890D01*
X343191Y317211D01*
X345247Y316024D01*
X347540Y315410D01*
X349914D01*
X352207Y316024D01*
X354263Y317211D01*
X355941Y318890D01*
X357128Y320946D01*
X357743Y323239D01*
Y325613D01*
X357128Y327906D01*
X355941Y329962D01*
X354263Y331641D01*
X352207Y332828D01*
X349914Y333442D01*
D02*
G37*
G36*
X786301Y325246D02*
X783927D01*
X781634Y324632D01*
X779578Y323445D01*
X777899Y321766D01*
X776712Y319710D01*
X776098Y317417D01*
Y315043D01*
X776712Y312750D01*
X777899Y310694D01*
X779578Y309015D01*
X781634Y307828D01*
X783927Y307214D01*
X786301D01*
X788594Y307828D01*
X790650Y309015D01*
X792329Y310694D01*
X793516Y312750D01*
X794130Y315043D01*
Y317417D01*
X793516Y319710D01*
X792329Y321766D01*
X790650Y323445D01*
X788594Y324632D01*
X786301Y325246D01*
D02*
G37*
G36*
X754223Y311658D02*
X752505D01*
X750918Y311001D01*
X749703Y309786D01*
X749046Y308199D01*
Y306481D01*
X749703Y304894D01*
X750918Y303679D01*
X752505Y303022D01*
X754223D01*
X755810Y303679D01*
X757025Y304894D01*
X757682Y306481D01*
Y308199D01*
X757025Y309786D01*
X755810Y311001D01*
X754223Y311658D01*
D02*
G37*
G36*
X821533Y305054D02*
X819815D01*
X818228Y304397D01*
X817013Y303182D01*
X816356Y301595D01*
Y299877D01*
X817013Y298290D01*
X818228Y297075D01*
X819815Y296418D01*
X821533D01*
X823120Y297075D01*
X824335Y298290D01*
X824992Y299877D01*
Y301595D01*
X824335Y303182D01*
X823120Y304397D01*
X821533Y305054D01*
D02*
G37*
G36*
X756763Y298958D02*
X755045D01*
X753458Y298301D01*
X752243Y297086D01*
X751586Y295499D01*
Y293781D01*
X752243Y292194D01*
X753458Y290979D01*
X755045Y290322D01*
X756763D01*
X758350Y290979D01*
X759565Y292194D01*
X760222Y293781D01*
Y295499D01*
X759565Y297086D01*
X758350Y298301D01*
X756763Y298958D01*
D02*
G37*
G36*
X789114Y299944D02*
X781114D01*
X779157Y299555D01*
X777498Y298446D01*
X776389Y296787D01*
X776000Y294830D01*
Y286830D01*
X776389Y284873D01*
X777498Y283214D01*
X779157Y282105D01*
X781114Y281716D01*
X789114D01*
X791071Y282105D01*
X792730Y283214D01*
X793839Y284873D01*
X794228Y286830D01*
Y294830D01*
X793839Y296787D01*
X792730Y298446D01*
X791071Y299555D01*
X789114Y299944D01*
D02*
G37*
G36*
X703423Y300228D02*
X701705D01*
X700118Y299571D01*
X698903Y298356D01*
X698246Y296769D01*
Y295051D01*
X698903Y293464D01*
X700118Y292249D01*
X700684Y292015D01*
Y290915D01*
X700118Y290681D01*
X698903Y289466D01*
X698246Y287879D01*
Y286161D01*
X698903Y284574D01*
X700118Y283359D01*
X700049Y282288D01*
X698848Y281791D01*
X697633Y280576D01*
X696976Y278989D01*
Y277271D01*
X697633Y275684D01*
X698848Y274469D01*
X700435Y273812D01*
X702153D01*
X703740Y274469D01*
X704955Y275684D01*
X705612Y277271D01*
Y278989D01*
X704955Y280576D01*
X703740Y281791D01*
X703809Y282862D01*
X705010Y283359D01*
X706225Y284574D01*
X706882Y286161D01*
Y287879D01*
X706225Y289466D01*
X705010Y290681D01*
X704444Y290915D01*
Y292015D01*
X705010Y292249D01*
X706225Y293464D01*
X706882Y295051D01*
Y296769D01*
X706225Y298356D01*
X705010Y299571D01*
X703423Y300228D01*
D02*
G37*
G36*
X63147Y335376D02*
X58265D01*
X53443Y334612D01*
X48800Y333104D01*
X44450Y330887D01*
X40500Y328018D01*
X37048Y324566D01*
X34179Y320616D01*
X31962Y316266D01*
X30454Y311623D01*
X29690Y306801D01*
Y301919D01*
X30454Y297097D01*
X31962Y292454D01*
X34179Y288104D01*
X37048Y284154D01*
X40500Y280702D01*
X44450Y277833D01*
X48800Y275616D01*
X53443Y274108D01*
X58265Y273344D01*
X63147D01*
X67969Y274108D01*
X72612Y275616D01*
X76962Y277833D01*
X80912Y280702D01*
X84364Y284154D01*
X87233Y288104D01*
X89450Y292454D01*
X90958Y297097D01*
X91722Y301919D01*
Y306801D01*
X90958Y311623D01*
X89450Y316266D01*
X87233Y320616D01*
X84364Y324566D01*
X80912Y328018D01*
X76962Y330887D01*
X72612Y333104D01*
X67969Y334612D01*
X63147Y335376D01*
D02*
G37*
G36*
X698343Y272288D02*
X696625D01*
X695038Y271631D01*
X693823Y270416D01*
X693166Y268829D01*
Y267111D01*
X693823Y265524D01*
X695038Y264309D01*
X696625Y263652D01*
X698343D01*
X699930Y264309D01*
X701145Y265524D01*
X701802Y267111D01*
Y268829D01*
X701145Y270416D01*
X699930Y271631D01*
X698343Y272288D01*
D02*
G37*
G36*
X379914Y278442D02*
X377540D01*
X375247Y277827D01*
X373191Y276640D01*
X371512Y274962D01*
X370325Y272906D01*
X369711Y270613D01*
Y268239D01*
X370325Y265946D01*
X371512Y263890D01*
X373191Y262211D01*
X375247Y261024D01*
X377540Y260410D01*
X379914D01*
X382207Y261024D01*
X384263Y262211D01*
X385941Y263890D01*
X387128Y265946D01*
X387743Y268239D01*
Y270613D01*
X387128Y272906D01*
X385941Y274962D01*
X384263Y276640D01*
X382207Y277827D01*
X379914Y278442D01*
D02*
G37*
G36*
X349914D02*
X347540D01*
X345247Y277827D01*
X343191Y276640D01*
X341512Y274962D01*
X340325Y272906D01*
X339711Y270613D01*
Y268239D01*
X340325Y265946D01*
X341512Y263890D01*
X343191Y262211D01*
X345247Y261024D01*
X347540Y260410D01*
X349914D01*
X352207Y261024D01*
X354263Y262211D01*
X355941Y263890D01*
X357128Y265946D01*
X357743Y268239D01*
Y270613D01*
X357128Y272906D01*
X355941Y274962D01*
X354263Y276640D01*
X352207Y277827D01*
X349914Y278442D01*
D02*
G37*
G36*
X867507Y268986D02*
X865789D01*
X864202Y268329D01*
X862987Y267114D01*
X862330Y265527D01*
Y263809D01*
X862987Y262222D01*
X864202Y261007D01*
X865789Y260350D01*
X867507D01*
X869094Y261007D01*
X870309Y262222D01*
X870966Y263809D01*
Y265527D01*
X870309Y267114D01*
X869094Y268329D01*
X867507Y268986D01*
D02*
G37*
G36*
X519273Y265176D02*
X517555D01*
X515968Y264519D01*
X514753Y263304D01*
X514096Y261717D01*
Y259999D01*
X514753Y258412D01*
X515968Y257197D01*
X517555Y256540D01*
X519273D01*
X520860Y257197D01*
X522075Y258412D01*
X522732Y259999D01*
Y261717D01*
X522075Y263304D01*
X520860Y264519D01*
X519273Y265176D01*
D02*
G37*
G36*
X704693Y263398D02*
X702975D01*
X701388Y262741D01*
X700173Y261526D01*
X699516Y259939D01*
Y258221D01*
X700173Y256634D01*
X701388Y255419D01*
X702975Y254762D01*
X704693D01*
X706280Y255419D01*
X707495Y256634D01*
X708152Y258221D01*
Y259939D01*
X707495Y261526D01*
X706280Y262741D01*
X704693Y263398D01*
D02*
G37*
G36*
X553563Y259334D02*
X551845D01*
X550258Y258677D01*
X549043Y257462D01*
X548386Y255875D01*
Y254157D01*
X549043Y252570D01*
X550258Y251355D01*
X551845Y250698D01*
X553563D01*
X555150Y251355D01*
X556365Y252570D01*
X557022Y254157D01*
Y255875D01*
X556365Y257462D01*
X555150Y258677D01*
X553563Y259334D01*
D02*
G37*
G36*
X755493Y258318D02*
X753775D01*
X752188Y257661D01*
X750973Y256446D01*
X750316Y254859D01*
Y253141D01*
X750973Y251554D01*
X752188Y250339D01*
X753775Y249682D01*
X755493D01*
X757080Y250339D01*
X758295Y251554D01*
X758952Y253141D01*
Y254859D01*
X758295Y256446D01*
X757080Y257661D01*
X755493Y258318D01*
D02*
G37*
G36*
X834487Y257556D02*
X832769D01*
X831182Y256899D01*
X829967Y255684D01*
X829310Y254097D01*
Y252379D01*
X829967Y250792D01*
X831182Y249577D01*
X832769Y248920D01*
X834487D01*
X836074Y249577D01*
X837289Y250792D01*
X837946Y252379D01*
Y254097D01*
X837289Y255684D01*
X836074Y256899D01*
X834487Y257556D01*
D02*
G37*
G36*
X834741Y233680D02*
X833023D01*
X831436Y233023D01*
X830221Y231808D01*
X829564Y230221D01*
Y228503D01*
X830221Y226916D01*
X831436Y225701D01*
X833023Y225044D01*
X834741D01*
X836328Y225701D01*
X837543Y226916D01*
X838200Y228503D01*
Y230221D01*
X837543Y231808D01*
X836328Y233023D01*
X834741Y233680D01*
D02*
G37*
G36*
X704693Y226568D02*
X702975D01*
X701388Y225911D01*
X700173Y224696D01*
X699516Y223109D01*
Y221391D01*
X700173Y219804D01*
X701388Y218589D01*
X702975Y217932D01*
X704693D01*
X706280Y218589D01*
X707495Y219804D01*
X708152Y221391D01*
Y223109D01*
X707495Y224696D01*
X706280Y225911D01*
X704693Y226568D01*
D02*
G37*
G36*
X467203Y213868D02*
X465485D01*
X463898Y213211D01*
X462683Y211996D01*
X462026Y210409D01*
Y208691D01*
X462683Y207104D01*
X463898Y205889D01*
X465485Y205232D01*
X467203D01*
X468790Y205889D01*
X470005Y207104D01*
X470662Y208691D01*
Y210409D01*
X470005Y211996D01*
X468790Y213211D01*
X467203Y213868D01*
D02*
G37*
G36*
X812389Y198120D02*
X810671D01*
X809084Y197463D01*
X807869Y196248D01*
X807212Y194661D01*
Y192943D01*
X807869Y191356D01*
X809084Y190141D01*
X810671Y189484D01*
X812389D01*
X813976Y190141D01*
X815191Y191356D01*
X815848Y192943D01*
Y194661D01*
X815191Y196248D01*
X813976Y197463D01*
X812389Y198120D01*
D02*
G37*
G36*
X443327Y196596D02*
X441609D01*
X440022Y195939D01*
X438807Y194724D01*
X438150Y193137D01*
Y191419D01*
X438807Y189832D01*
X440022Y188617D01*
X441609Y187960D01*
X443327D01*
X444914Y188617D01*
X446129Y189832D01*
X446786Y191419D01*
Y193137D01*
X446129Y194724D01*
X444914Y195939D01*
X443327Y196596D01*
D02*
G37*
G36*
X67102Y204146D02*
X49570D01*
Y186614D01*
X67102D01*
Y204146D01*
D02*
G37*
G36*
X765653Y191008D02*
X763935D01*
X762348Y190351D01*
X761133Y189136D01*
X760476Y187549D01*
Y185831D01*
X761133Y184244D01*
X762348Y183029D01*
X763935Y182372D01*
X765653D01*
X767240Y183029D01*
X768455Y184244D01*
X769112Y185831D01*
Y187549D01*
X768455Y189136D01*
X767240Y190351D01*
X765653Y191008D01*
D02*
G37*
G36*
X518003Y188468D02*
X516285D01*
X514698Y187811D01*
X513483Y186596D01*
X512826Y185009D01*
Y183291D01*
X513483Y181704D01*
X514698Y180489D01*
X516285Y179832D01*
X518003D01*
X519590Y180489D01*
X520805Y181704D01*
X521462Y183291D01*
Y185009D01*
X520805Y186596D01*
X519590Y187811D01*
X518003Y188468D01*
D02*
G37*
G36*
X838297Y185674D02*
X836579D01*
X834992Y185017D01*
X833777Y183802D01*
X833120Y182215D01*
Y180497D01*
X833777Y178910D01*
X834992Y177695D01*
X836579Y177038D01*
X838297D01*
X839884Y177695D01*
X841099Y178910D01*
X841756Y180497D01*
Y182215D01*
X841099Y183802D01*
X839884Y185017D01*
X838297Y185674D01*
D02*
G37*
G36*
X704693Y183388D02*
X702975D01*
X701388Y182731D01*
X700173Y181516D01*
X699516Y179929D01*
Y178211D01*
X700173Y176624D01*
X701388Y175409D01*
X702975Y174752D01*
X704693D01*
X706280Y175409D01*
X707495Y176624D01*
X708152Y178211D01*
Y179929D01*
X707495Y181516D01*
X706280Y182731D01*
X704693Y183388D01*
D02*
G37*
G36*
X424927Y181497D02*
X424248D01*
Y172989D01*
X432756D01*
Y173668D01*
X432142Y175961D01*
X430955Y178017D01*
X429276Y179696D01*
X427220Y180883D01*
X424927Y181497D01*
D02*
G37*
G36*
X423232D02*
X422553D01*
X420260Y180883D01*
X418204Y179696D01*
X416525Y178017D01*
X415339Y175961D01*
X414724Y173668D01*
Y172989D01*
X423232D01*
Y181497D01*
D02*
G37*
G36*
X59490Y179146D02*
X58844D01*
Y170888D01*
X67102D01*
Y171534D01*
X66505Y173764D01*
X65350Y175762D01*
X63718Y177395D01*
X61720Y178549D01*
X59490Y179146D01*
D02*
G37*
G36*
X57828D02*
X57182D01*
X54952Y178549D01*
X52954Y177395D01*
X51322Y175762D01*
X50167Y173764D01*
X49570Y171534D01*
Y170888D01*
X57828D01*
Y179146D01*
D02*
G37*
G36*
X432756Y171973D02*
X424248D01*
Y163465D01*
X424927D01*
X427220Y164080D01*
X429276Y165267D01*
X430955Y166945D01*
X432142Y169001D01*
X432756Y171294D01*
Y171973D01*
D02*
G37*
G36*
X423232D02*
X414724D01*
Y171294D01*
X415339Y169001D01*
X416525Y166945D01*
X418204Y165267D01*
X420260Y164080D01*
X422553Y163465D01*
X423232D01*
Y171973D01*
D02*
G37*
G36*
X369927Y181497D02*
X367553D01*
X365260Y180883D01*
X363204Y179696D01*
X361525Y178017D01*
X360338Y175961D01*
X359724Y173668D01*
Y171294D01*
X360338Y169001D01*
X361525Y166945D01*
X363204Y165267D01*
X365260Y164080D01*
X367553Y163465D01*
X369927D01*
X372220Y164080D01*
X374276Y165267D01*
X375955Y166945D01*
X377141Y169001D01*
X377756Y171294D01*
Y173668D01*
X377141Y175961D01*
X375955Y178017D01*
X374276Y179696D01*
X372220Y180883D01*
X369927Y181497D01*
D02*
G37*
G36*
X67102Y169872D02*
X58844D01*
Y161614D01*
X59490D01*
X61720Y162211D01*
X63718Y163365D01*
X65350Y164998D01*
X66505Y166996D01*
X67102Y169226D01*
Y169872D01*
D02*
G37*
G36*
X57828D02*
X49570D01*
Y169226D01*
X50167Y166996D01*
X51322Y164998D01*
X52954Y163365D01*
X54952Y162211D01*
X57182Y161614D01*
X57828D01*
Y169872D01*
D02*
G37*
G36*
X462377Y165354D02*
X460659D01*
X459072Y164697D01*
X457857Y163482D01*
X457200Y161895D01*
Y160177D01*
X457857Y158590D01*
X459072Y157375D01*
X460659Y156718D01*
X462377D01*
X463964Y157375D01*
X465179Y158590D01*
X465836Y160177D01*
Y161895D01*
X465179Y163482D01*
X463964Y164697D01*
X462377Y165354D01*
D02*
G37*
G36*
X613761Y151638D02*
X612043D01*
X610456Y150981D01*
X609241Y149766D01*
X608584Y148179D01*
Y146461D01*
X609241Y144874D01*
X610456Y143659D01*
X612043Y143002D01*
X613761D01*
X615348Y143659D01*
X616563Y144874D01*
X617220Y146461D01*
Y148179D01*
X616563Y149766D01*
X615348Y150981D01*
X613761Y151638D01*
D02*
G37*
G36*
X519273D02*
X517555D01*
X515968Y150981D01*
X514753Y149766D01*
X514096Y148179D01*
Y146461D01*
X514753Y144874D01*
X515968Y143659D01*
X517555Y143002D01*
X519273D01*
X520860Y143659D01*
X522075Y144874D01*
X522732Y146461D01*
Y148179D01*
X522075Y149766D01*
X520860Y150981D01*
X519273Y151638D01*
D02*
G37*
G36*
X816707Y151130D02*
X814989D01*
X813402Y150473D01*
X812187Y149258D01*
X811530Y147671D01*
Y145953D01*
X812187Y144366D01*
X813402Y143151D01*
X814989Y142494D01*
X816707D01*
X818294Y143151D01*
X819509Y144366D01*
X820166Y145953D01*
Y147671D01*
X819509Y149258D01*
X818294Y150473D01*
X816707Y151130D01*
D02*
G37*
G36*
X763113Y149098D02*
X761395D01*
X759808Y148441D01*
X758593Y147226D01*
X757936Y145639D01*
Y143921D01*
X758593Y142334D01*
X759808Y141119D01*
X761395Y140462D01*
X763113D01*
X764700Y141119D01*
X765915Y142334D01*
X766572Y143921D01*
Y145639D01*
X765915Y147226D01*
X764700Y148441D01*
X763113Y149098D01*
D02*
G37*
G36*
X639923D02*
X638205D01*
X636618Y148441D01*
X635403Y147226D01*
X634746Y145639D01*
Y143921D01*
X635403Y142334D01*
X636618Y141119D01*
X638205Y140462D01*
X639923D01*
X641510Y141119D01*
X642725Y142334D01*
X643382Y143921D01*
Y145639D01*
X642725Y147226D01*
X641510Y148441D01*
X639923Y149098D01*
D02*
G37*
G36*
X593949Y148336D02*
X592231D01*
X590644Y147679D01*
X589429Y146464D01*
X588772Y144877D01*
Y143159D01*
X589429Y141572D01*
X590644Y140357D01*
X592231Y139700D01*
X593949D01*
X595536Y140357D01*
X596751Y141572D01*
X597408Y143159D01*
Y144877D01*
X596751Y146464D01*
X595536Y147679D01*
X593949Y148336D01*
D02*
G37*
G36*
X679293Y147828D02*
X677575D01*
X675988Y147171D01*
X674773Y145956D01*
X674116Y144369D01*
Y142651D01*
X674773Y141064D01*
X675988Y139849D01*
X677575Y139192D01*
X679293D01*
X680880Y139849D01*
X682095Y141064D01*
X682752Y142651D01*
Y144369D01*
X682095Y145956D01*
X680880Y147171D01*
X679293Y147828D01*
D02*
G37*
G36*
X553563D02*
X551845D01*
X550258Y147171D01*
X549043Y145956D01*
X548386Y144369D01*
Y142651D01*
X549043Y141064D01*
X550258Y139849D01*
X551845Y139192D01*
X553563D01*
X555150Y139849D01*
X556365Y141064D01*
X557022Y142651D01*
Y144369D01*
X556365Y145956D01*
X555150Y147171D01*
X553563Y147828D01*
D02*
G37*
G36*
X424927Y151497D02*
X422553D01*
X420260Y150883D01*
X418204Y149696D01*
X416525Y148017D01*
X415339Y145961D01*
X414724Y143668D01*
Y141294D01*
X415339Y139001D01*
X416525Y136945D01*
X418204Y135267D01*
X420260Y134080D01*
X422553Y133465D01*
X424927D01*
X427220Y134080D01*
X429276Y135267D01*
X430955Y136945D01*
X432142Y139001D01*
X432756Y141294D01*
Y143668D01*
X432142Y145961D01*
X430955Y148017D01*
X429276Y149696D01*
X427220Y150883D01*
X424927Y151497D01*
D02*
G37*
G36*
X369927D02*
X367553D01*
X365260Y150883D01*
X363204Y149696D01*
X361525Y148017D01*
X360338Y145961D01*
X359724Y143668D01*
Y141294D01*
X360338Y139001D01*
X361525Y136945D01*
X363204Y135267D01*
X365260Y134080D01*
X367553Y133465D01*
X369927D01*
X372220Y134080D01*
X374276Y135267D01*
X375955Y136945D01*
X377141Y139001D01*
X377756Y141294D01*
Y143668D01*
X377141Y145961D01*
X375955Y148017D01*
X374276Y149696D01*
X372220Y150883D01*
X369927Y151497D01*
D02*
G37*
G36*
X465679Y110236D02*
X463961D01*
X462374Y109579D01*
X461159Y108364D01*
X460502Y106777D01*
Y105059D01*
X461159Y103472D01*
X462374Y102257D01*
X463961Y101600D01*
X465679D01*
X467266Y102257D01*
X468481Y103472D01*
X469138Y105059D01*
Y106777D01*
X468481Y108364D01*
X467266Y109579D01*
X465679Y110236D01*
D02*
G37*
G36*
X746857Y100584D02*
X745139D01*
X743552Y99927D01*
X742337Y98712D01*
X741680Y97125D01*
Y95407D01*
X742337Y93820D01*
X743552Y92605D01*
X745139Y91948D01*
X746857D01*
X748444Y92605D01*
X749659Y93820D01*
X750316Y95407D01*
Y97125D01*
X749659Y98712D01*
X748444Y99927D01*
X746857Y100584D01*
D02*
G37*
G36*
X823057Y81280D02*
X821339D01*
X819752Y80623D01*
X818537Y79408D01*
X817880Y77821D01*
Y76103D01*
X818537Y74516D01*
X819752Y73301D01*
X821339Y72644D01*
X823057D01*
X824644Y73301D01*
X825859Y74516D01*
X826516Y76103D01*
Y77821D01*
X825859Y79408D01*
X824644Y80623D01*
X823057Y81280D01*
D02*
G37*
G36*
X621283Y122175D02*
X618744Y119636D01*
X485394D01*
Y50038D01*
X624873D01*
X690592Y52866D01*
X621283Y122175D01*
D02*
G37*
G36*
X928328Y79824D02*
X923840D01*
X919407Y79122D01*
X915138Y77735D01*
X911138Y75697D01*
X907507Y73059D01*
X904333Y69885D01*
X901695Y66254D01*
X899657Y62254D01*
X898270Y57986D01*
X897568Y53552D01*
Y49064D01*
X898270Y44630D01*
X899657Y40362D01*
X901695Y36362D01*
X904333Y32731D01*
X907507Y29557D01*
X911138Y26919D01*
X915138Y24881D01*
X919407Y23494D01*
X923840Y22792D01*
X928328D01*
X932762Y23494D01*
X937030Y24881D01*
X941030Y26919D01*
X944661Y29557D01*
X947835Y32731D01*
X950473Y36362D01*
X952511Y40362D01*
X953898Y44630D01*
X954600Y49064D01*
Y53552D01*
X953898Y57986D01*
X952511Y62254D01*
X950473Y66254D01*
X947835Y69885D01*
X944661Y73059D01*
X941030Y75697D01*
X937030Y77735D01*
X932762Y79122D01*
X928328Y79824D01*
D02*
G37*
G36*
X52488D02*
X48000D01*
X43566Y79122D01*
X39298Y77735D01*
X35298Y75697D01*
X31667Y73059D01*
X28493Y69885D01*
X25855Y66254D01*
X23817Y62254D01*
X22430Y57986D01*
X21728Y53552D01*
Y49064D01*
X22430Y44630D01*
X23817Y40362D01*
X25855Y36362D01*
X28493Y32731D01*
X31667Y29557D01*
X35298Y26919D01*
X39298Y24881D01*
X43566Y23494D01*
X48000Y22792D01*
X52488D01*
X56922Y23494D01*
X61190Y24881D01*
X65190Y26919D01*
X68821Y29557D01*
X71995Y32731D01*
X74633Y36362D01*
X76671Y40362D01*
X78058Y44630D01*
X78760Y49064D01*
Y53552D01*
X78058Y57986D01*
X76671Y62254D01*
X74633Y66254D01*
X71995Y69885D01*
X68821Y73059D01*
X65190Y75697D01*
X61190Y77735D01*
X56922Y79122D01*
X52488Y79824D01*
D02*
G37*
%LPD*%
G36*
X564727Y116304D02*
X563372Y109982D01*
Y103790D01*
X558021Y95097D01*
X557022Y55372D01*
X488246D01*
X487857Y56311D01*
X488442Y56896D01*
Y117094D01*
X564088D01*
X564727Y116304D01*
D02*
G37*
G36*
X676890Y62250D02*
X671576Y54102D01*
X563372Y52832D01*
X559816Y56388D01*
X559816Y91186D01*
X571500Y102870D01*
X568706Y105664D01*
Y118110D01*
X621030D01*
X676890Y62250D01*
D02*
G37*
%LPC*%
G36*
X593187Y115570D02*
X591469D01*
X589882Y114913D01*
X588667Y113698D01*
X588010Y112111D01*
Y110393D01*
X588667Y108806D01*
X589882Y107591D01*
X591469Y106934D01*
X593187D01*
X594774Y107591D01*
X595989Y108806D01*
X596646Y110393D01*
Y112111D01*
X595989Y113698D01*
X594774Y114913D01*
X593187Y115570D01*
D02*
G37*
G36*
X603601Y64770D02*
X601883D01*
X600296Y64113D01*
X599081Y62898D01*
X598424Y61311D01*
Y59593D01*
X599081Y58006D01*
X600296Y56791D01*
X601883Y56134D01*
X603601D01*
X605188Y56791D01*
X606403Y58006D01*
X607060Y59593D01*
Y61311D01*
X606403Y62898D01*
X605188Y64113D01*
X603601Y64770D01*
D02*
G37*
%LPD*%
D16*
X558546Y112303D02*
Y120521D01*
X598218Y114554D02*
X598551Y121838D01*
D76*
X24406Y626220D02*
D03*
Y712620D02*
D03*
Y502900D02*
D03*
Y589300D02*
D03*
D77*
X64406Y626220D02*
D03*
Y712620D02*
D03*
Y502900D02*
D03*
Y589300D02*
D03*
D82*
X58336Y195380D02*
D03*
X452966Y547062D02*
D03*
D83*
X58336Y170380D02*
D03*
X606044Y558292D02*
D03*
X452966Y572062D02*
D03*
D84*
X318516Y469900D02*
D03*
D85*
Y444500D02*
D03*
D89*
X581044Y558292D02*
D03*
D96*
X60706Y304360D02*
D03*
Y376360D02*
D03*
D97*
X149606Y453390D02*
D03*
Y427990D02*
D03*
X785114Y341630D02*
D03*
X865124Y687324D02*
D03*
Y763524D02*
D03*
Y738124D02*
D03*
Y712724D02*
D03*
X785114Y316230D02*
D03*
X294386Y769620D02*
D03*
X319786D02*
D03*
X370586D02*
D03*
X345186D02*
D03*
D98*
X149606Y402590D02*
D03*
X865124Y788924D02*
D03*
X785114Y290830D02*
D03*
D99*
X805942Y463296D02*
D03*
Y488696D02*
D03*
X831342D02*
D03*
Y463296D02*
D03*
X856742Y488696D02*
D03*
Y463296D02*
D03*
X780542Y488696D02*
D03*
Y463296D02*
D03*
X755142Y488696D02*
D03*
D100*
X423740Y172481D02*
D03*
X368740D02*
D03*
Y142481D02*
D03*
X423740D02*
D03*
X348727Y269426D02*
D03*
X378727D02*
D03*
X348727Y324426D02*
D03*
X378727D02*
D03*
D101*
X50244Y773430D02*
D03*
Y51308D02*
D03*
X926084D02*
D03*
Y773430D02*
D03*
D102*
X755142Y463296D02*
D03*
D103*
X395986Y769620D02*
D03*
D104*
X442468Y192278D02*
D03*
X355600Y393446D02*
D03*
Y444754D02*
D03*
X388366Y443738D02*
D03*
X241920Y537576D02*
D03*
X187198Y513588D02*
D03*
X226314Y565912D02*
D03*
X131318Y545084D02*
D03*
X191770Y544576D02*
D03*
X156210Y503682D02*
D03*
X250444Y465836D02*
D03*
X226314Y470408D02*
D03*
X192532Y461264D02*
D03*
X195326Y473710D02*
D03*
X229108Y479298D02*
D03*
X209804Y479552D02*
D03*
X212852Y486410D02*
D03*
X198882Y482600D02*
D03*
X241046Y475996D02*
D03*
X187452Y467106D02*
D03*
X133096Y689610D02*
D03*
X202946Y696722D02*
D03*
X172466Y681736D02*
D03*
X246380Y668274D02*
D03*
X127508Y651510D02*
D03*
X145796Y618236D02*
D03*
X127254Y640588D02*
D03*
X185928Y453390D02*
D03*
X282448Y450596D02*
D03*
X225298Y441960D02*
D03*
X234188Y440182D02*
D03*
X194564D02*
D03*
X224282Y452882D02*
D03*
X247650Y445770D02*
D03*
X316992Y388620D02*
D03*
X53848Y521970D02*
D03*
X234442Y459994D02*
D03*
X189992Y446278D02*
D03*
X105156Y586994D02*
D03*
X82042Y630682D02*
D03*
X119888Y522856D02*
D03*
X81656Y578050D02*
D03*
X81534Y510794D02*
D03*
X80518Y703072D02*
D03*
X389636Y91440D02*
D03*
X493776Y84836D02*
D03*
X494538Y71882D02*
D03*
X493268Y95250D02*
D03*
X459232Y174752D02*
D03*
X494520Y112540D02*
D03*
X507347Y71120D02*
D03*
X501396Y101600D02*
D03*
X509125Y113284D02*
D03*
X464820Y221234D02*
D03*
X328846Y232748D02*
D03*
X465582Y293370D02*
D03*
X531622Y71120D02*
D03*
X519430D02*
D03*
X543814D02*
D03*
X522986Y113284D02*
D03*
X554520Y94100D02*
D03*
X552958Y107696D02*
D03*
X560578Y112776D02*
D03*
X564110Y76684D02*
D03*
X569214Y85455D02*
D03*
X573024Y113538D02*
D03*
X517906Y228600D02*
D03*
X518414Y175260D02*
D03*
X518922Y281940D02*
D03*
X561594Y143510D02*
D03*
X565404Y328930D02*
D03*
X495554Y363220D02*
D03*
X476504Y403860D02*
D03*
X499364Y459740D02*
D03*
X527304Y556260D02*
D03*
X575437Y74422D02*
D03*
X617982Y69342D02*
D03*
X623824Y74930D02*
D03*
X626872Y85852D02*
D03*
X626618Y94488D02*
D03*
X622046Y109728D02*
D03*
X634746Y97028D02*
D03*
X628396Y103378D02*
D03*
X613410Y115062D02*
D03*
X622808Y144272D02*
D03*
X605790Y154178D02*
D03*
X622554Y190500D02*
D03*
X630174Y144780D02*
D03*
X743204Y46990D02*
D03*
X690118Y75438D02*
D03*
X668274Y143510D02*
D03*
X746506Y67056D02*
D03*
X762254Y167640D02*
D03*
X796544Y127422D02*
D03*
X858266Y180594D02*
D03*
X860806Y131461D02*
D03*
X703834Y193040D02*
D03*
X702564Y212090D02*
D03*
X764794Y204470D02*
D03*
X753364Y237490D02*
D03*
X754634Y270510D02*
D03*
X576834Y379730D02*
D03*
X586994Y452120D02*
D03*
X594868Y600202D02*
D03*
X594106Y624586D02*
D03*
X618744Y379730D02*
D03*
X675894Y381000D02*
D03*
X586486Y678434D02*
D03*
X573786Y713486D02*
D03*
X618744Y796036D02*
D03*
X677672Y704596D02*
D03*
X691896Y697230D02*
D03*
X682752Y719836D02*
D03*
X683260Y734314D02*
D03*
X705358Y695706D02*
D03*
X724154Y364490D02*
D03*
X852678Y286766D02*
D03*
X743204Y340360D02*
D03*
X720344Y697230D02*
D03*
X705358Y742696D02*
D03*
X729234Y706374D02*
D03*
X728472Y719328D02*
D03*
X729488Y733806D02*
D03*
X818134Y798576D02*
D03*
X613918Y63246D02*
D03*
X602234Y50800D02*
D03*
X822198Y76962D02*
D03*
X612902Y147320D02*
D03*
X518414Y260858D02*
D03*
X464820Y105918D02*
D03*
X461518Y161036D02*
D03*
X466344Y209550D02*
D03*
X475742Y322580D02*
D03*
X518414Y147320D02*
D03*
X552704Y143510D02*
D03*
X472694Y372110D02*
D03*
X495300Y347472D02*
D03*
X533654Y382270D02*
D03*
X526288Y665226D02*
D03*
X552450Y600202D02*
D03*
X552196Y628142D02*
D03*
X571246Y784098D02*
D03*
X678434Y143510D02*
D03*
X703834Y222250D02*
D03*
X745998Y96266D02*
D03*
X762254Y144780D02*
D03*
X815848Y146812D02*
D03*
X764794Y186690D02*
D03*
X754634Y254000D02*
D03*
X583184Y473710D02*
D03*
X636524Y379730D02*
D03*
X655574Y381000D02*
D03*
X755904Y294640D02*
D03*
X753364Y307340D02*
D03*
X820674Y300736D02*
D03*
X559054Y379730D02*
D03*
X602742Y60452D02*
D03*
X593090Y144018D02*
D03*
X590550Y366776D02*
D03*
X592328Y111252D02*
D03*
X589280Y501396D02*
D03*
X581660Y510032D02*
D03*
X536702Y510540D02*
D03*
X517144Y510794D02*
D03*
X552704Y255016D02*
D03*
X572008Y662178D02*
D03*
X780796Y764032D02*
D03*
X625348Y431546D02*
D03*
X665988Y424942D02*
D03*
X595630Y359156D02*
D03*
X833882Y229362D02*
D03*
X837438Y181356D02*
D03*
X833628Y253238D02*
D03*
X811530Y193802D02*
D03*
X866648Y264668D02*
D03*
X697484Y267970D02*
D03*
X701294Y278130D02*
D03*
X703834Y259080D02*
D03*
Y179070D02*
D03*
X693674Y378460D02*
D03*
X702564Y295910D02*
D03*
Y287020D02*
D03*
X574294Y328930D02*
D03*
X517144Y184150D02*
D03*
X639064Y144780D02*
D03*
D105*
X389382Y393954D02*
D03*
X594106Y57912D02*
D03*
X584530Y66152D02*
D03*
M02*
