G04*
G04 #@! TF.GenerationSoftware,Altium Limited,Altium Designer,26.4.1 (12)*
G04*
G04 Layer_Physical_Order=1*
G04 Layer_Color=255*
%FSLAX44Y44*%
%MOMM*%
G71*
G04*
G04 #@! TF.SameCoordinates,498FC022-B34E-4152-97B3-50CD48BD2042*
G04*
G04*
G04 #@! TF.FilePolarity,Positive*
G04*
G01*
G75*
%ADD16C,0.2540*%
%ADD18R,1.1500X0.3000*%
%ADD19R,1.1500X0.6000*%
%ADD20R,1.3621X1.0081*%
%ADD21R,1.2000X0.6000*%
%ADD22R,1.1300X1.2100*%
G04:AMPARAMS|DCode=23|XSize=0.9mm|YSize=1.45mm|CornerRadius=0.0495mm|HoleSize=0mm|Usage=FLASHONLY|Rotation=270.000|XOffset=0mm|YOffset=0mm|HoleType=Round|Shape=RoundedRectangle|*
%AMROUNDEDRECTD23*
21,1,0.9000,1.3510,0,0,270.0*
21,1,0.8010,1.4500,0,0,270.0*
1,1,0.0990,-0.6755,-0.4005*
1,1,0.0990,-0.6755,0.4005*
1,1,0.0990,0.6755,0.4005*
1,1,0.0990,0.6755,-0.4005*
%
%ADD23ROUNDEDRECTD23*%
G04:AMPARAMS|DCode=24|XSize=3.15mm|YSize=1.45mm|CornerRadius=0.0508mm|HoleSize=0mm|Usage=FLASHONLY|Rotation=270.000|XOffset=0mm|YOffset=0mm|HoleType=Round|Shape=RoundedRectangle|*
%AMROUNDEDRECTD24*
21,1,3.1500,1.3485,0,0,270.0*
21,1,3.0485,1.4500,0,0,270.0*
1,1,0.1015,-0.6743,-1.5243*
1,1,0.1015,-0.6743,1.5243*
1,1,0.1015,0.6743,1.5243*
1,1,0.1015,0.6743,-1.5243*
%
%ADD24ROUNDEDRECTD24*%
%ADD25R,1.5000X1.5500*%
%ADD26R,1.5500X1.5000*%
%ADD27R,0.8500X1.0000*%
%ADD28R,1.7780X0.2794*%
%ADD29R,1.5000X1.2500*%
G04:AMPARAMS|DCode=30|XSize=1mm|YSize=0.85mm|CornerRadius=0mm|HoleSize=0mm|Usage=FLASHONLY|Rotation=145.000|XOffset=0mm|YOffset=0mm|HoleType=Round|Shape=Rectangle|*
%AMROTATEDRECTD30*
4,1,4,0.6534,0.0614,0.1658,-0.6349,-0.6534,-0.0614,-0.1658,0.6349,0.6534,0.0614,0.0*
%
%ADD30ROTATEDRECTD30*%

%ADD31R,0.2794X1.7780*%
%ADD32O,0.6300X1.8650*%
%ADD33R,0.8000X0.9000*%
G04:AMPARAMS|DCode=34|XSize=1mm|YSize=0.85mm|CornerRadius=0mm|HoleSize=0mm|Usage=FLASHONLY|Rotation=55.000|XOffset=0mm|YOffset=0mm|HoleType=Round|Shape=Rectangle|*
%AMROTATEDRECTD34*
4,1,4,0.0614,-0.6534,-0.6349,-0.1658,-0.0614,0.6534,0.6349,0.1658,0.0614,-0.6534,0.0*
%
%ADD34ROTATEDRECTD34*%

%ADD35R,1.4500X1.5500*%
%ADD36R,1.2000X1.2000*%
%ADD37R,1.1000X1.2500*%
%ADD38R,0.6500X1.6500*%
%ADD39R,1.5500X1.4500*%
%ADD40R,1.5000X0.9000*%
%ADD41R,0.9000X0.9000*%
%ADD42R,1.4200X1.0000*%
%ADD43R,1.2500X1.5000*%
%ADD44R,1.0065X1.4082*%
%ADD45R,1.2850X1.4700*%
%ADD46R,0.9000X1.5000*%
G04:AMPARAMS|DCode=47|XSize=1.4mm|YSize=1.15mm|CornerRadius=0mm|HoleSize=0mm|Usage=FLASHONLY|Rotation=325.000|XOffset=0mm|YOffset=0mm|HoleType=Round|Shape=Rectangle|*
%AMROTATEDRECTD47*
4,1,4,-0.9032,-0.0695,-0.2436,0.8725,0.9032,0.0695,0.2436,-0.8725,-0.9032,-0.0695,0.0*
%
%ADD47ROTATEDRECTD47*%

%ADD48R,1.0081X1.3621*%
%ADD49R,1.3541X1.4550*%
%ADD50R,1.0000X1.8000*%
%ADD51R,1.1546X1.3621*%
G04:AMPARAMS|DCode=76|XSize=1mm|YSize=2.2mm|CornerRadius=0.5mm|HoleSize=0mm|Usage=FLASHONLY|Rotation=270.000|XOffset=0mm|YOffset=0mm|HoleType=Round|Shape=RoundedRectangle|*
%AMROUNDEDRECTD76*
21,1,1.0000,1.2000,0,0,270.0*
21,1,0.0000,2.2000,0,0,270.0*
1,1,1.0000,-0.6000,0.0000*
1,1,1.0000,-0.6000,0.0000*
1,1,1.0000,0.6000,0.0000*
1,1,1.0000,0.6000,0.0000*
%
%ADD76ROUNDEDRECTD76*%
G04:AMPARAMS|DCode=77|XSize=1mm|YSize=1.8mm|CornerRadius=0.5mm|HoleSize=0mm|Usage=FLASHONLY|Rotation=270.000|XOffset=0mm|YOffset=0mm|HoleType=Round|Shape=RoundedRectangle|*
%AMROUNDEDRECTD77*
21,1,1.0000,0.8000,0,0,270.0*
21,1,0.0000,1.8000,0,0,270.0*
1,1,1.0000,-0.4000,0.0000*
1,1,1.0000,-0.4000,0.0000*
1,1,1.0000,0.4000,0.0000*
1,1,1.0000,0.4000,0.0000*
%
%ADD77ROUNDEDRECTD77*%
%ADD82R,1.5500X1.5500*%
%ADD83C,1.5500*%
%ADD84R,1.5700X1.5700*%
%ADD85C,1.5700*%
%ADD89R,1.5500X1.5500*%
%ADD92C,0.1600*%
%ADD93C,0.3810*%
%ADD94C,0.5080*%
%ADD95R,6.0000X6.0000*%
%ADD96C,6.0000*%
%ADD97C,1.6000*%
G04:AMPARAMS|DCode=98|XSize=1.6mm|YSize=1.6mm|CornerRadius=0.4mm|HoleSize=0mm|Usage=FLASHONLY|Rotation=90.000|XOffset=0mm|YOffset=0mm|HoleType=Round|Shape=RoundedRectangle|*
%AMROUNDEDRECTD98*
21,1,1.6000,0.8000,0,0,90.0*
21,1,0.8000,1.6000,0,0,90.0*
1,1,0.8000,0.4000,0.4000*
1,1,0.8000,0.4000,-0.4000*
1,1,0.8000,-0.4000,-0.4000*
1,1,0.8000,-0.4000,0.4000*
%
%ADD98ROUNDEDRECTD98*%
%ADD99C,1.6500*%
%ADD100C,1.6000*%
%ADD101C,5.5000*%
%ADD102R,1.6500X1.6500*%
G04:AMPARAMS|DCode=103|XSize=1.6mm|YSize=1.6mm|CornerRadius=0.4mm|HoleSize=0mm|Usage=FLASHONLY|Rotation=180.000|XOffset=0mm|YOffset=0mm|HoleType=Round|Shape=RoundedRectangle|*
%AMROUNDEDRECTD103*
21,1,1.6000,0.8000,0,0,180.0*
21,1,0.8000,1.6000,0,0,180.0*
1,1,0.8000,-0.4000,0.4000*
1,1,0.8000,0.4000,0.4000*
1,1,0.8000,0.4000,-0.4000*
1,1,0.8000,-0.4000,-0.4000*
%
%ADD103ROUNDEDRECTD103*%
%ADD104C,0.6096*%
%ADD105C,0.6000*%
G36*
X745490Y687578D02*
X748869Y684199D01*
X748481Y683260D01*
X668269D01*
X667588Y684014D01*
X674149Y749314D01*
X674643Y749808D01*
X745490D01*
Y687578D01*
D02*
G37*
G36*
X288544Y706509D02*
X224917Y676783D01*
X208026Y693674D01*
Y708152D01*
X178173D01*
X176530Y706509D01*
Y692404D01*
X154178D01*
X153416Y691642D01*
X149913Y695145D01*
X150302Y696084D01*
X158482D01*
Y704342D01*
X149966D01*
Y704850D01*
X149458D01*
Y713616D01*
X141450D01*
Y713616D01*
X140462Y713684D01*
Y718104D01*
X118962D01*
X88944Y688086D01*
X87711D01*
X86868Y688594D01*
X86868Y688594D01*
X86868Y688594D01*
X86868Y743712D01*
X96266Y753110D01*
X276606D01*
X288544Y706509D01*
D02*
G37*
G36*
X197612Y621030D02*
Y542036D01*
X177546D01*
X144272Y575310D01*
Y623719D01*
X150512Y629959D01*
X188683D01*
X197612Y621030D01*
D02*
G37*
G36*
X255778Y484886D02*
Y475234D01*
X259080Y471932D01*
Y432816D01*
X181864D01*
X180340Y434340D01*
Y476250D01*
X183134D01*
X199898Y493014D01*
X247650D01*
X255778Y484886D01*
D02*
G37*
G36*
X237490Y404622D02*
Y263906D01*
X242316Y259080D01*
X220726Y237490D01*
X24892D01*
X23368Y239014D01*
Y342392D01*
X89408D01*
X94488Y347472D01*
X141990Y394974D01*
X143649Y393865D01*
X145606Y393476D01*
X149098D01*
Y402590D01*
X149606D01*
Y403098D01*
X158720D01*
Y406590D01*
X158331Y408547D01*
X157559Y409702D01*
X158102Y410718D01*
X229870D01*
X230632Y411480D01*
X237490Y404622D01*
D02*
G37*
%LPC*%
G36*
X724990Y739368D02*
X719982D01*
Y734360D01*
X724990D01*
Y739368D01*
D02*
G37*
G36*
X718966D02*
X713958D01*
Y734360D01*
X718966D01*
Y739368D01*
D02*
G37*
G36*
X710990D02*
X705982D01*
Y734360D01*
X710990D01*
Y739368D01*
D02*
G37*
G36*
X704966D02*
X699958D01*
Y734360D01*
X704966D01*
Y739368D01*
D02*
G37*
G36*
X696990D02*
X691982D01*
Y734360D01*
X696990D01*
Y739368D01*
D02*
G37*
G36*
X690966D02*
X685958D01*
Y734360D01*
X690966D01*
Y739368D01*
D02*
G37*
G36*
X724990Y733344D02*
X719982D01*
Y728336D01*
X724990D01*
Y733344D01*
D02*
G37*
G36*
X718966D02*
X713958D01*
Y728336D01*
X718966D01*
Y733344D01*
D02*
G37*
G36*
X710990D02*
X705982D01*
Y728336D01*
X710990D01*
Y733344D01*
D02*
G37*
G36*
X704966D02*
X699958D01*
Y728336D01*
X704966D01*
Y733344D01*
D02*
G37*
G36*
X696990D02*
X691982D01*
Y728336D01*
X696990D01*
Y733344D01*
D02*
G37*
G36*
X690966D02*
X685958D01*
Y728336D01*
X690966D01*
Y733344D01*
D02*
G37*
G36*
X724990Y725368D02*
X719982D01*
Y720360D01*
X724990D01*
Y725368D01*
D02*
G37*
G36*
X718966D02*
X713958D01*
Y720360D01*
X718966D01*
Y725368D01*
D02*
G37*
G36*
X710990D02*
X705982D01*
Y720360D01*
X710990D01*
Y725368D01*
D02*
G37*
G36*
X704966D02*
X699958D01*
Y720360D01*
X704966D01*
Y725368D01*
D02*
G37*
G36*
X696990D02*
X691982D01*
Y720360D01*
X696990D01*
Y725368D01*
D02*
G37*
G36*
X690966D02*
X685958D01*
Y720360D01*
X690966D01*
Y725368D01*
D02*
G37*
G36*
X724990Y719344D02*
X719982D01*
Y714336D01*
X724990D01*
Y719344D01*
D02*
G37*
G36*
X718966D02*
X713958D01*
Y714336D01*
X718966D01*
Y719344D01*
D02*
G37*
G36*
X710990D02*
X705982D01*
Y714336D01*
X710990D01*
Y719344D01*
D02*
G37*
G36*
X704966D02*
X699958D01*
Y714336D01*
X704966D01*
Y719344D01*
D02*
G37*
G36*
X696990D02*
X691982D01*
Y714336D01*
X696990D01*
Y719344D01*
D02*
G37*
G36*
X690966D02*
X685958D01*
Y714336D01*
X690966D01*
Y719344D01*
D02*
G37*
G36*
X724990Y711368D02*
X719982D01*
Y706360D01*
X724990D01*
Y711368D01*
D02*
G37*
G36*
X718966D02*
X713958D01*
Y706360D01*
X718966D01*
Y711368D01*
D02*
G37*
G36*
X710990D02*
X705982D01*
Y706360D01*
X710990D01*
Y711368D01*
D02*
G37*
G36*
X704966D02*
X699958D01*
Y706360D01*
X704966D01*
Y711368D01*
D02*
G37*
G36*
X696990D02*
X691982D01*
Y706360D01*
X696990D01*
Y711368D01*
D02*
G37*
G36*
X690966D02*
X685958D01*
Y706360D01*
X690966D01*
Y711368D01*
D02*
G37*
G36*
X724990Y705344D02*
X719982D01*
Y700336D01*
X724990D01*
Y705344D01*
D02*
G37*
G36*
X718966D02*
X713958D01*
Y700336D01*
X718966D01*
Y705344D01*
D02*
G37*
G36*
X710990D02*
X705982D01*
Y700336D01*
X710990D01*
Y705344D01*
D02*
G37*
G36*
X704966D02*
X699958D01*
Y700336D01*
X704966D01*
Y705344D01*
D02*
G37*
G36*
X696990D02*
X691982D01*
Y700336D01*
X696990D01*
Y705344D01*
D02*
G37*
G36*
X690966D02*
X685958D01*
Y700336D01*
X690966D01*
Y705344D01*
D02*
G37*
G36*
X158482Y713616D02*
X150474D01*
Y705358D01*
X158482D01*
Y713616D01*
D02*
G37*
G36*
X166178Y625300D02*
X160020D01*
Y618742D01*
X166178D01*
Y625300D01*
D02*
G37*
G36*
X159004D02*
X152846D01*
Y618742D01*
X159004D01*
Y625300D01*
D02*
G37*
G36*
X166178Y617726D02*
X160020D01*
Y611168D01*
X166178D01*
Y617726D01*
D02*
G37*
G36*
X159004D02*
X152846D01*
Y611168D01*
X159004D01*
Y617726D01*
D02*
G37*
G36*
X163892Y586696D02*
X157734D01*
Y580138D01*
X163892D01*
Y586696D01*
D02*
G37*
G36*
X156718D02*
X150560D01*
Y580138D01*
X156718D01*
Y586696D01*
D02*
G37*
G36*
X163892Y579122D02*
X157734D01*
Y572564D01*
X163892D01*
Y579122D01*
D02*
G37*
G36*
X156718D02*
X150560D01*
Y572564D01*
X156718D01*
Y579122D01*
D02*
G37*
G36*
X215769Y467742D02*
X209534D01*
Y451358D01*
X217418D01*
Y466092D01*
X216935Y467258D01*
X215769Y467742D01*
D02*
G37*
G36*
X208518D02*
X202283D01*
X201117Y467258D01*
X200634Y466092D01*
Y451358D01*
X208518D01*
Y467742D01*
D02*
G37*
G36*
X217418Y450342D02*
X209534D01*
Y433959D01*
X215769D01*
X216935Y434441D01*
X217418Y435607D01*
Y450342D01*
D02*
G37*
G36*
X208518D02*
X200634D01*
Y435607D01*
X201117Y434441D01*
X202283Y433959D01*
X208518D01*
Y450342D01*
D02*
G37*
G36*
X158720Y402082D02*
X150114D01*
Y393476D01*
X153606D01*
X155563Y393865D01*
X157222Y394974D01*
X158331Y396633D01*
X158720Y398590D01*
Y402082D01*
D02*
G37*
G36*
X91722Y335376D02*
X61214D01*
Y304868D01*
X91722D01*
Y335376D01*
D02*
G37*
G36*
X60198D02*
X29690D01*
Y304868D01*
X60198D01*
Y335376D01*
D02*
G37*
G36*
X91722Y303852D02*
X61214D01*
Y273344D01*
X91722D01*
Y303852D01*
D02*
G37*
G36*
X60198D02*
X29690D01*
Y273344D01*
X60198D01*
Y303852D01*
D02*
G37*
%LPD*%
D16*
X442468Y192278D02*
X487170D01*
X490728Y188720D01*
X70156Y558600D02*
X104334D01*
X99869Y507323D02*
Y509093D01*
X80592Y528370D02*
X99869Y509093D01*
X70386Y528370D02*
X80592D01*
X70156Y528600D02*
X70386Y528370D01*
X104334Y558600D02*
X105664Y557270D01*
X99869Y507323D02*
X103640Y503552D01*
X105410D01*
X70156Y651920D02*
X83926D01*
X70156Y681920D02*
X104986D01*
X111006Y675900D02*
X112776D01*
X104986Y681920D02*
X111006Y675900D01*
X83926Y651920D02*
X111006Y624840D01*
X112776D01*
X493522Y84128D02*
Y94996D01*
X493268Y95250D02*
X493522Y94996D01*
X493268Y95250D02*
X493894Y95876D01*
X478505Y178847D02*
X503301D01*
X472385Y184967D02*
X478505Y178847D01*
X494157Y72263D02*
Y83493D01*
Y72263D02*
X494919Y71501D01*
X493522Y84128D02*
X494157Y83493D01*
X493894Y95876D02*
Y111914D01*
X494919Y71501D02*
X506966D01*
X507347Y71120D01*
X495264Y113284D02*
X509125D01*
X493894Y111914D02*
X495264Y113284D01*
X503428Y178720D02*
X503555Y178593D01*
X503301Y178847D02*
X503428Y178720D01*
X515420Y177292D02*
X517452Y175260D01*
X514303Y177292D02*
X515420D01*
X513002Y178593D02*
X514303Y177292D01*
X503555Y178593D02*
X513002D01*
X480208Y288544D02*
X489366D01*
X478282Y290470D02*
X480208Y288544D01*
X503301Y208847D02*
X503428Y208720D01*
X503555Y208847D02*
X511048D01*
X491642Y211268D02*
Y217063D01*
X494063Y208847D02*
X503301D01*
X491642Y211268D02*
X494063Y208847D01*
X511048D02*
X511730Y209529D01*
X513475D01*
X515112Y211166D01*
Y211872D01*
X517906Y214666D01*
X488770Y219484D02*
X489221D01*
X491642Y217063D01*
X480314Y227690D02*
X480564D01*
X488770Y219484D01*
X517906Y214666D02*
Y228600D01*
X495935Y283720D02*
X516180D01*
X489366Y288544D02*
X493381Y284529D01*
X495126D02*
X495935Y283720D01*
X493381Y284529D02*
X495126D01*
X519430Y71120D02*
X531622D01*
X543814D01*
X507347D02*
X519430D01*
X552740D02*
X556260Y74640D01*
X543814Y71120D02*
X552740D01*
X554520Y84759D02*
Y94100D01*
X556260Y74640D02*
Y83019D01*
X554520Y84759D02*
X556260Y83019D01*
X509125Y113284D02*
X522986D01*
X554520Y94100D02*
Y95062D01*
X558800Y99342D01*
X561848Y78946D02*
X564110Y76684D01*
X566372Y74422D01*
X561848Y78946D02*
Y96266D01*
X565482Y99900D01*
X566372Y74422D02*
X576652D01*
X558800Y99342D02*
Y104902D01*
X560324Y106426D02*
Y112522D01*
X558624Y128524D02*
X558751Y128651D01*
X558800Y104902D02*
X560324Y106426D01*
X565482Y99900D02*
Y109585D01*
X560324Y112522D02*
X560578Y112776D01*
X565482Y109585D02*
X568755Y112858D01*
X572344D01*
X517452Y175260D02*
X518414D01*
X517960Y281940D02*
X518922D01*
X516180Y283720D02*
X517960Y281940D01*
X558751Y139705D02*
X561594Y142548D01*
X558751Y128651D02*
Y139705D01*
X561594Y142548D02*
Y143510D01*
X565404Y328930D02*
Y329892D01*
X528497Y344043D02*
Y353281D01*
Y344043D02*
X528624Y343916D01*
X565404Y329892D02*
X568497Y332985D01*
Y343789D01*
X568624Y343916D01*
Y356616D01*
X509524Y365980D02*
X515754Y359750D01*
X522028D01*
X528497Y353281D01*
X568624Y356616D02*
X570964Y358956D01*
Y360800D01*
X572344Y112858D02*
X573024Y113538D01*
X623824Y74930D02*
Y81842D01*
X626872Y84890D01*
Y85852D01*
X634066Y93046D01*
X616712Y115062D02*
X622046Y109728D01*
X634066Y93046D02*
Y96348D01*
X634746Y97028D01*
X622046Y109728D02*
X628396Y103378D01*
X634746Y97028D01*
X598624Y128524D02*
X598751Y128651D01*
Y139980D01*
X605790Y147019D02*
Y154178D01*
X613410Y115062D02*
X616712D01*
X622808Y144272D02*
X628497Y138583D01*
X598751Y139980D02*
X605790Y147019D01*
X628497Y128651D02*
X628624Y128524D01*
X633624D01*
X628497Y128651D02*
Y138583D01*
X630174Y143971D02*
X633624Y140521D01*
X668497Y128651D02*
X668624Y128524D01*
X633624D02*
Y140521D01*
X668497Y128651D02*
Y143287D01*
X630174Y143971D02*
Y144780D01*
X668274Y143510D02*
X668497Y143287D01*
X703834Y193040D02*
X710647D01*
X718820Y173720D02*
X743816D01*
X749545Y167991D01*
X710647Y193040D02*
X711327Y193720D01*
X718820D02*
X733587D01*
X711327D02*
X718820D01*
X703834Y213360D02*
X704067Y213593D01*
X718693D01*
X718820Y213720D01*
X732304Y243720D02*
X740164Y235860D01*
X718820Y243720D02*
X732304D01*
X733587Y193720D02*
X740752Y200885D01*
X748149D01*
X750824Y203560D01*
X740164Y235860D02*
X740664D01*
X743204Y272690D02*
X745384Y270510D01*
X754634D01*
X570964Y360800D02*
X577194Y367030D01*
X576834Y367390D02*
X577194Y367030D01*
X663624Y343916D02*
Y356268D01*
X618624Y343916D02*
Y366000D01*
X663624Y356268D02*
X665112Y357756D01*
X665141D01*
X666778Y359393D01*
Y359844D01*
X674984Y368050D01*
Y368300D01*
X675894Y369210D01*
X691896Y697230D02*
X692150Y696976D01*
X718947Y313847D02*
X728121D01*
X718820Y313720D02*
X718947Y313847D01*
X728121D02*
X728803Y314529D01*
X718820Y273720D02*
X742174D01*
X728803Y314529D02*
X728867D01*
X733588Y319250D01*
X734434D02*
X740664Y325480D01*
X733588Y319250D02*
X734434D01*
X742174Y273720D02*
X743204Y272690D01*
X617302Y68408D02*
X623824Y74930D01*
X617302Y67592D02*
Y68408D01*
X576652Y74170D02*
Y74422D01*
X613918Y62284D02*
Y64208D01*
X617302Y67592D01*
X610221Y58586D02*
X613918Y62284D01*
X603196Y50800D02*
X610221Y57824D01*
Y58586D01*
X576599Y73260D02*
Y74116D01*
X591285Y58574D02*
X593444D01*
X576599Y73260D02*
X591285Y58574D01*
X594106Y57912D02*
X594614D01*
X601726Y50800D01*
X576599Y74116D02*
X576652Y74170D01*
X593444Y58574D02*
X594106Y57912D01*
X601726Y50800D02*
X603196D01*
X859116Y51190D02*
Y90700D01*
X834390Y26464D02*
X859116Y51190D01*
X765302Y70800D02*
X790938Y45164D01*
X834390D01*
X603751Y128651D02*
Y138169D01*
X612902Y147320D01*
X512793Y253847D02*
X517734Y258787D01*
X503428Y253720D02*
X503555Y253847D01*
X512793D01*
X517734Y258787D02*
Y260178D01*
X518414Y260858D01*
X603624Y128524D02*
X603751Y128651D01*
X471380Y161946D02*
X490256D01*
X473308Y161036D02*
X478118Y165846D01*
X490256Y161946D02*
X491744Y163434D01*
Y171274D02*
X493381Y172911D01*
X491744Y163434D02*
Y171274D01*
X493381Y172911D02*
X494320D01*
X494320Y172911D01*
X495126D01*
X485784Y203720D02*
X503428D01*
X495126Y172911D02*
X495935Y173720D01*
X479954Y209550D02*
X485784Y203720D01*
X494063Y293847D02*
X503301D01*
X490285Y297625D02*
Y297668D01*
Y297625D02*
X494063Y293847D01*
X478282Y308970D02*
X478532D01*
X487189Y300764D02*
X490285Y297668D01*
X478532Y308970D02*
X486738Y300764D01*
X487189D01*
X524747Y146640D02*
X533497Y137889D01*
Y128651D02*
X533624Y128524D01*
X533497Y128651D02*
Y137889D01*
X519094Y146640D02*
X524747D01*
X518414Y147320D02*
X519094Y146640D01*
X552704Y142548D02*
X553624Y141628D01*
X552704Y142548D02*
Y143510D01*
X553624Y128524D02*
Y141628D01*
X495935Y173720D02*
X503428D01*
X503301Y293847D02*
X503428Y293720D01*
X509524Y347980D02*
X513461Y344043D01*
X523497D02*
X523624Y343916D01*
X513461Y344043D02*
X523497D01*
X558694Y367030D02*
X563624Y362100D01*
X673624Y128524D02*
X673751Y128651D01*
Y138494D02*
X678434Y143177D01*
X673751Y128651D02*
Y138494D01*
X678434Y143177D02*
Y143510D01*
X718820Y168720D02*
X718947Y168593D01*
X732091Y166262D02*
Y168593D01*
X718947D02*
X732091D01*
X718693Y218847D02*
X718820Y218720D01*
X707237Y218847D02*
X718693D01*
X718820Y188720D02*
X736039D01*
X703834Y222250D02*
X707237Y218847D01*
X718820Y248720D02*
X735024D01*
X749304Y149500D02*
X749554D01*
X741257Y157547D02*
X749304Y149500D01*
X732091Y166262D02*
X740806Y157547D01*
X736039Y188720D02*
X739698Y185060D01*
X740806Y157547D02*
X741257D01*
X739698Y185060D02*
X755904D01*
X735024Y248720D02*
X740664Y254360D01*
X623624Y343916D02*
X623751Y344043D01*
Y353281D01*
X627124Y356655D01*
X627210D01*
X631924Y361369D02*
Y362070D01*
X627210Y356655D02*
X631924Y361369D01*
Y362070D02*
X636884Y367030D01*
X718820Y278720D02*
X718947Y278847D01*
X718820Y308720D02*
X718947Y308593D01*
Y278847D02*
X727411D01*
X655574Y369210D02*
X658624Y366160D01*
Y343916D02*
Y366160D01*
X728093Y279529D02*
X728867D01*
X727411Y278847D02*
X728093Y279529D01*
X728867D02*
X734298Y284960D01*
X736974D01*
X729798Y306980D02*
X740664D01*
X736974Y284960D02*
X743204Y291190D01*
X740664Y306980D02*
X741024Y307340D01*
X728185Y308593D02*
X729798Y306980D01*
X718947Y308593D02*
X728185D01*
X563624Y343916D02*
Y362100D01*
X378727Y248399D02*
X392270Y234855D01*
X378727Y248399D02*
Y269426D01*
X423740Y93980D02*
Y142481D01*
X423164Y93980D02*
X438064D01*
X825459Y220939D02*
X833882Y229362D01*
X743254Y220939D02*
X825459D01*
X395921Y238506D02*
X488699D01*
X490858Y236347D01*
X392270Y234855D02*
X395921Y238506D01*
X490858Y232052D02*
Y236347D01*
X339636Y215776D02*
X373191D01*
X392270Y234855D01*
X345610Y211580D02*
X350590Y206600D01*
X593497Y128651D02*
X593624Y128524D01*
X593497Y128651D02*
Y136753D01*
X593090Y137160D02*
X593497Y136753D01*
X593090Y137160D02*
Y144018D01*
Y211510D02*
X755142Y373562D01*
X593090Y144018D02*
Y211510D01*
X755142Y373562D02*
Y463296D01*
X418084Y72750D02*
X423164Y77830D01*
Y93980D01*
X458012Y561340D02*
X477114D01*
X452966Y547062D02*
X462164Y556260D01*
X475010D02*
X497704Y533566D01*
X462164Y556260D02*
X475010D01*
X455446Y563906D02*
X458012Y561340D01*
X477114D02*
X499808Y538646D01*
X455446Y563906D02*
Y569582D01*
X611751Y85851D02*
Y90810D01*
X605790Y96771D02*
X611751Y90810D01*
X606425Y105286D02*
X607373Y106234D01*
X606425Y98229D02*
Y105286D01*
X605790Y97594D02*
X606425Y98229D01*
X605790Y96771D02*
Y97594D01*
X607373Y106234D02*
Y109775D01*
X600308Y116840D02*
X607373Y109775D01*
X588751Y119159D02*
Y120904D01*
Y119159D02*
X591070Y116840D01*
X600308D01*
X583497Y116391D02*
Y128397D01*
X579199Y112093D02*
X583497Y116391D01*
X579199Y105080D02*
Y112093D01*
X538000Y105330D02*
X548497Y115827D01*
X534828Y110490D02*
X543497Y119159D01*
X526874Y107405D02*
X529959Y110490D01*
X534270Y101600D02*
Y102350D01*
X537250Y105330D02*
X538000D01*
X548497Y115827D02*
Y128397D01*
X534270Y102350D02*
X537250Y105330D01*
X529959Y110490D02*
X534828D01*
X534270Y100850D02*
Y102350D01*
X543497Y119159D02*
Y128397D01*
X526874Y104834D02*
Y107405D01*
X538360Y89328D02*
X542090Y85598D01*
X538360Y89328D02*
Y96760D01*
X534270Y100850D02*
X538360Y96760D01*
X524720Y102680D02*
X526874Y104834D01*
X520914Y93422D02*
Y98874D01*
X517090Y89598D02*
X520914Y93422D01*
X517090Y85598D02*
Y89598D01*
X520914Y98874D02*
X524720Y102680D01*
X529844Y462692D02*
X533938Y458598D01*
X581660Y510032D02*
X581701Y510073D01*
X596084Y512736D02*
Y554008D01*
X589280Y501396D02*
X589321Y501437D01*
X591004Y514840D02*
Y550324D01*
X589321Y505973D02*
X596084Y512736D01*
X586237Y510073D02*
X591004Y514840D01*
X589321Y501437D02*
Y505973D01*
X581701Y510073D02*
X586237D01*
X596084Y554008D02*
X597888Y555812D01*
X589516Y551812D02*
X591004Y550324D01*
X587524Y551812D02*
X589516D01*
X597888Y555812D02*
X603564D01*
X581044Y558292D02*
X581044D01*
X587524Y551812D01*
X536575Y510667D02*
X536702Y510540D01*
X531332Y510667D02*
X536575D01*
X529844Y509179D02*
X531332Y510667D01*
X529844Y502329D02*
Y509179D01*
Y502329D02*
X531332Y500841D01*
X531559D01*
X536062Y496338D01*
Y495300D02*
Y496338D01*
X529844Y509179D02*
Y521860D01*
X524764Y502329D02*
Y508798D01*
X523276Y500841D02*
X524764Y502329D01*
X517271Y510667D02*
X522895D01*
X524764Y508798D01*
X518546Y495300D02*
Y496338D01*
X523049Y500841D02*
X523276D01*
X518546Y496338D02*
X523049Y500841D01*
X517144Y510794D02*
X517271Y510667D01*
X524764Y508798D02*
Y521860D01*
X523276Y523348D02*
X524764Y521860D01*
X531332Y523348D02*
X534212D01*
X536804Y525940D01*
X529844Y521860D02*
X531332Y523348D01*
X520396Y523348D02*
X523276D01*
X536804Y525940D02*
Y526440D01*
X536062Y494263D02*
Y495300D01*
X603564Y555812D02*
X606044Y558292D01*
X452966Y572062D02*
X455446Y569582D01*
X528994Y529170D02*
X534074D01*
X536804Y526440D01*
X519518Y538646D02*
X528994Y529170D01*
X499808Y538646D02*
X519518D01*
X497704Y533566D02*
X514390D01*
X515878Y527866D02*
X517804Y525940D01*
X515878Y527866D02*
Y532078D01*
X514390Y533566D02*
X515878Y532078D01*
X508539Y392023D02*
X510219Y390342D01*
X508539Y392023D02*
Y399215D01*
X510219Y389957D02*
Y390342D01*
Y389957D02*
X538624Y361552D01*
Y343916D02*
Y361552D01*
X607314Y606552D02*
Y668020D01*
X616640Y677346D02*
X624568D01*
X607314Y668020D02*
X616640Y677346D01*
X616204Y614934D02*
X687578Y543560D01*
X617692Y670052D02*
X632974D01*
X616204Y614934D02*
Y668564D01*
X617692Y670052D01*
X607314Y606552D02*
X673608Y540258D01*
Y517144D02*
Y540258D01*
X687578Y509524D02*
Y543560D01*
X608624Y376471D02*
Y430570D01*
X687578Y509524D01*
X602488Y446024D02*
X673608Y517144D01*
X602488Y354290D02*
Y446024D01*
X579199Y105080D02*
X580060Y104219D01*
X584583Y86549D02*
Y90878D01*
X581817Y93644D02*
X584583Y90878D01*
X581817Y93644D02*
Y97633D01*
X580060Y99390D02*
X581817Y97633D01*
X580060Y99390D02*
Y104219D01*
X583497Y128397D02*
X583624Y128524D01*
X543497Y128397D02*
X543624Y128524D01*
X548497Y128397D02*
X548624Y128524D01*
X538619Y268593D02*
X552450Y254762D01*
X503555Y268593D02*
X538619D01*
X503428Y268720D02*
X503555Y268593D01*
X807974Y631952D02*
X811204Y635182D01*
X814455D01*
X839590Y660317D01*
Y687190D01*
X865124Y712724D01*
X565806Y670856D02*
Y693166D01*
X558886Y663936D02*
X565806Y670856D01*
X558886Y662686D02*
X559394Y662178D01*
X572008D01*
X624317Y766246D02*
X625256D01*
X626744Y767734D02*
Y768422D01*
X586486Y761406D02*
X619477D01*
X624317Y766246D01*
X629974Y771652D02*
X772214D01*
X626744Y768422D02*
X629974Y771652D01*
X625256Y766246D02*
X626744Y767734D01*
X586994Y755056D02*
X590540Y758602D01*
X779834Y764032D02*
X780796D01*
X772214Y771652D02*
X779834Y764032D01*
X586994Y755056D02*
Y760898D01*
X586486Y761406D02*
X586994Y760898D01*
X586486Y735076D02*
Y755056D01*
X490728Y188720D02*
X503428D01*
X639433Y117730D02*
X644640Y112522D01*
X638624Y121031D02*
Y128524D01*
X639433Y117730D02*
Y120222D01*
X638624Y121031D02*
X639433Y120222D01*
X644640Y112522D02*
X661162D01*
X665350Y96520D02*
Y108334D01*
X661162Y112522D02*
X665350Y108334D01*
X643751Y119159D02*
X646324Y116586D01*
X663281D02*
X675857Y104009D01*
X646324Y116586D02*
X663281D01*
X675857Y102021D02*
X681358Y96520D01*
X675857Y102021D02*
Y104009D01*
X643751Y119159D02*
Y128397D01*
X643624Y128524D02*
X643751Y128397D01*
X624568Y677346D02*
X629974Y682752D01*
X632974D01*
X608090Y358123D02*
Y375937D01*
Y358123D02*
X608624Y357589D01*
X608090Y375937D02*
X608624Y376471D01*
Y343916D02*
Y357589D01*
X767202Y475356D02*
X780542Y488696D01*
X745314Y475356D02*
X767202D01*
X690717Y420759D02*
X745314Y475356D01*
X690717Y413727D02*
Y420759D01*
X686946Y409956D02*
X690717Y413727D01*
X715910Y488696D02*
X755142D01*
X645798Y418584D02*
X715910Y488696D01*
X645798Y416814D02*
Y418584D01*
X627758Y416814D02*
Y428174D01*
X625348Y430584D02*
X627758Y428174D01*
X625348Y430584D02*
Y431546D01*
X665988Y423980D02*
Y424942D01*
Y423980D02*
X668906Y421062D01*
Y409956D02*
Y421062D01*
X594950Y358476D02*
X595630Y359156D01*
X593945Y358476D02*
X594950D01*
X588751Y353281D02*
X593945Y358476D01*
X588751Y344043D02*
Y353281D01*
X588624Y343916D02*
X588751Y344043D01*
X590550Y365814D02*
Y366776D01*
X587488Y362752D02*
X590550Y365814D01*
X587488Y358123D02*
Y362752D01*
X583751Y354386D02*
X587488Y358123D01*
X583751Y344043D02*
Y354386D01*
X583624Y343916D02*
X583751Y344043D01*
X401574Y72750D02*
X418084D01*
X790966Y225816D02*
X800354Y235204D01*
X841502Y239014D02*
X845058Y242570D01*
X823976Y235204D02*
X827786Y239014D01*
X503301Y228847D02*
X503428Y228720D01*
X494063Y228847D02*
X503301D01*
X490858Y232052D02*
X494063Y228847D01*
X836758Y182036D02*
Y184470D01*
X832358Y188870D02*
X836758Y184470D01*
Y182036D02*
X837438Y181356D01*
X832358Y188870D02*
Y193870D01*
X731757Y225816D02*
X790966D01*
X718820Y228720D02*
X718947Y228593D01*
X728980D02*
X731757Y225816D01*
X800354Y235204D02*
X823976D01*
X718947Y228593D02*
X728980D01*
X845058Y242570D02*
Y265870D01*
X831754Y167085D02*
Y176774D01*
X857758Y265870D02*
X858960Y264668D01*
X866648D01*
X819658Y188870D02*
X831754Y176774D01*
Y167085D02*
X835517Y163322D01*
X819658Y188870D02*
Y193870D01*
X843522Y214122D02*
X845058Y212586D01*
X730504Y130516D02*
Y161274D01*
Y130516D02*
X765302Y95718D01*
Y70800D02*
Y95718D01*
X859116Y90700D02*
X863346Y94930D01*
X731162Y208847D02*
X743254Y220939D01*
X811530Y193802D02*
X819590D01*
X845058Y193870D02*
Y212586D01*
X819590Y193802D02*
X819658Y193870D01*
X832993Y253873D02*
Y265235D01*
X827786Y239014D02*
X841502D01*
X832358Y265870D02*
X832993Y265235D01*
Y253873D02*
X833628Y253238D01*
X718820Y208720D02*
X718947Y208847D01*
X731783Y203720D02*
X742185Y214122D01*
X718947Y208847D02*
X731162D01*
X742185Y214122D02*
X843522D01*
X718820Y203720D02*
X731783D01*
X718693Y268593D02*
X718820Y268720D01*
X697484Y267970D02*
X698107Y268593D01*
X718693D01*
Y283593D02*
X718820Y283720D01*
X708836Y283593D02*
X718693D01*
X705405Y280162D02*
X708836Y283593D01*
X705358Y280162D02*
X705405D01*
X704006Y278810D02*
X705358Y280162D01*
X701974Y278810D02*
X704006D01*
X701294Y278130D02*
X701974Y278810D01*
X533938Y458598D02*
Y460057D01*
X521239Y452865D02*
Y458867D01*
Y452865D02*
Y459324D01*
X518546Y494263D02*
X524764Y488045D01*
X521239Y447132D02*
Y452865D01*
X529844Y488045D02*
X536062Y494263D01*
X524764Y462850D02*
Y488045D01*
X521239Y459324D02*
X524764Y462850D01*
X529844Y462692D02*
Y488045D01*
X533938Y452865D02*
Y458598D01*
Y447132D02*
Y452865D01*
X517804Y525940D02*
X520396Y523348D01*
X728185Y163593D02*
X730504Y161274D01*
X718947Y163593D02*
X728185D01*
X718820Y163720D02*
X718947Y163593D01*
X603497Y344043D02*
X603624Y343916D01*
X603497Y344043D02*
Y351536D01*
X602488Y354290D02*
X602815Y353963D01*
Y352218D02*
X603497Y351536D01*
X703834Y259080D02*
X704342Y258572D01*
Y243960D02*
Y258572D01*
Y243960D02*
X709455Y238847D01*
X718693D01*
X718820Y238720D01*
X602815Y352218D02*
Y353963D01*
X703834Y179070D02*
X704057Y178847D01*
X718693D01*
X718820Y178720D01*
X638751Y144467D02*
X639064Y144780D01*
X638751Y128651D02*
Y144467D01*
X638624Y128524D02*
X638751Y128651D01*
X516841Y183847D02*
X517144Y184150D01*
X503555Y183847D02*
X516841D01*
X503428Y183720D02*
X503555Y183847D01*
X573751Y329473D02*
X574294Y328930D01*
X573751Y329473D02*
Y343789D01*
X573624Y343916D02*
X573751Y343789D01*
X668624Y343916D02*
X668751Y344043D01*
Y353281D01*
X671229Y355759D01*
X683813D01*
X693564Y365510D01*
Y365760D01*
X705226Y288720D02*
X718820D01*
X703526Y287020D02*
X705226Y288720D01*
X702564Y287020D02*
X703526D01*
X705716Y293720D02*
X718820D01*
X703526Y295910D02*
X705716Y293720D01*
X702564Y295910D02*
X703526D01*
X543624Y343916D02*
Y389008D01*
X546638Y392023D01*
Y399215D01*
D18*
X70156Y681920D02*
D03*
Y686920D02*
D03*
Y656920D02*
D03*
Y651920D02*
D03*
Y666920D02*
D03*
Y676920D02*
D03*
Y661920D02*
D03*
Y671920D02*
D03*
Y563600D02*
D03*
Y558600D02*
D03*
Y528600D02*
D03*
Y533600D02*
D03*
Y548600D02*
D03*
Y538600D02*
D03*
Y543600D02*
D03*
Y553600D02*
D03*
D19*
Y693420D02*
D03*
Y645420D02*
D03*
Y637420D02*
D03*
Y701420D02*
D03*
Y570100D02*
D03*
Y522100D02*
D03*
Y514100D02*
D03*
Y578100D02*
D03*
D20*
X112776Y675900D02*
D03*
Y657860D02*
D03*
X105664Y557270D02*
D03*
Y575310D02*
D03*
X112776Y624840D02*
D03*
Y642880D02*
D03*
X105410Y503552D02*
D03*
Y521592D02*
D03*
D21*
X284280Y668274D02*
D03*
X259280Y658774D02*
D03*
Y677774D02*
D03*
X284280D02*
D03*
Y658774D02*
D03*
X259280Y668274D02*
D03*
X256540Y547320D02*
D03*
Y528320D02*
D03*
Y537820D02*
D03*
X281540Y528320D02*
D03*
Y547320D02*
D03*
Y537820D02*
D03*
D22*
X157226Y548130D02*
D03*
Y579630D02*
D03*
X159512Y618234D02*
D03*
Y649734D02*
D03*
D23*
X270526Y427850D02*
D03*
Y473850D02*
D03*
Y450850D02*
D03*
D24*
X209026D02*
D03*
D25*
X285386Y389890D02*
D03*
X303386D02*
D03*
X149966Y704850D02*
D03*
X131466D02*
D03*
X156866Y516890D02*
D03*
X175366D02*
D03*
X577194Y367030D02*
D03*
X746104Y80010D02*
D03*
X582786Y600456D02*
D03*
X583036Y627126D02*
D03*
X618384Y367030D02*
D03*
X674984Y368300D02*
D03*
X584306Y693166D02*
D03*
X711564Y365760D02*
D03*
X840338Y287782D02*
D03*
X636884Y367030D02*
D03*
X656484Y368300D02*
D03*
X821838Y287782D02*
D03*
X564786Y600456D02*
D03*
X564536Y627126D02*
D03*
X558694Y367030D02*
D03*
X565806Y693166D02*
D03*
X727604Y80010D02*
D03*
X693564Y365760D02*
D03*
D26*
X355346Y409990D02*
D03*
Y427990D02*
D03*
X388366Y408720D02*
D03*
Y426720D02*
D03*
X190246Y680720D02*
D03*
Y698720D02*
D03*
X402336Y90530D02*
D03*
X474218Y180446D02*
D03*
X480568Y223372D02*
D03*
X478282Y290470D02*
D03*
X489204Y396600D02*
D03*
X509524Y365980D02*
D03*
X567944Y451760D02*
D03*
X749554Y168000D02*
D03*
X750824Y203560D02*
D03*
X743204Y272690D02*
D03*
X586486Y716576D02*
D03*
X740664Y325480D02*
D03*
X480568Y204872D02*
D03*
X474218Y161946D02*
D03*
X743204Y291190D02*
D03*
X750824Y185060D02*
D03*
X749554Y149500D02*
D03*
X478282Y308970D02*
D03*
X509524Y347980D02*
D03*
X567944Y470260D02*
D03*
X489204Y378100D02*
D03*
X740664Y306980D02*
D03*
X402336Y72030D02*
D03*
X586486Y735076D02*
D03*
D27*
X510394Y101854D02*
D03*
X547770Y101600D02*
D03*
X534270D02*
D03*
X523894Y101854D02*
D03*
D28*
X503428Y178720D02*
D03*
Y208720D02*
D03*
Y283720D02*
D03*
X718820Y173720D02*
D03*
Y193720D02*
D03*
Y213720D02*
D03*
Y243720D02*
D03*
Y273720D02*
D03*
Y313720D02*
D03*
X503428Y173720D02*
D03*
Y203720D02*
D03*
Y253720D02*
D03*
Y288720D02*
D03*
Y293720D02*
D03*
X718820Y248720D02*
D03*
Y278720D02*
D03*
Y308720D02*
D03*
Y168720D02*
D03*
Y188720D02*
D03*
Y218720D02*
D03*
X503428Y248720D02*
D03*
Y278720D02*
D03*
Y273720D02*
D03*
Y318720D02*
D03*
Y323720D02*
D03*
Y313720D02*
D03*
Y213720D02*
D03*
Y148720D02*
D03*
Y153720D02*
D03*
Y158720D02*
D03*
Y163720D02*
D03*
Y168720D02*
D03*
Y183720D02*
D03*
Y188720D02*
D03*
Y193720D02*
D03*
Y198720D02*
D03*
Y218720D02*
D03*
Y308720D02*
D03*
Y228720D02*
D03*
Y233720D02*
D03*
Y238720D02*
D03*
Y243720D02*
D03*
Y258720D02*
D03*
Y263720D02*
D03*
Y268720D02*
D03*
Y298720D02*
D03*
Y303720D02*
D03*
Y223720D02*
D03*
X718820Y148720D02*
D03*
Y153720D02*
D03*
Y258720D02*
D03*
Y263720D02*
D03*
Y268720D02*
D03*
Y283720D02*
D03*
Y323720D02*
D03*
Y318720D02*
D03*
Y303720D02*
D03*
Y293720D02*
D03*
Y158720D02*
D03*
Y253720D02*
D03*
Y298720D02*
D03*
Y163720D02*
D03*
Y238720D02*
D03*
Y178720D02*
D03*
Y183720D02*
D03*
Y288720D02*
D03*
Y198720D02*
D03*
Y208720D02*
D03*
Y223720D02*
D03*
Y203720D02*
D03*
Y233720D02*
D03*
Y228720D02*
D03*
D29*
X345610Y232580D02*
D03*
X586486Y782406D02*
D03*
Y761406D02*
D03*
X345610Y211580D02*
D03*
D30*
X571184Y94293D02*
D03*
X578928Y105351D02*
D03*
D31*
X558624Y128524D02*
D03*
X528624Y343916D02*
D03*
X568624D02*
D03*
X598624Y128524D02*
D03*
X628624D02*
D03*
X633624D02*
D03*
X668624D02*
D03*
X618624Y343916D02*
D03*
X663624D02*
D03*
X563624D02*
D03*
X523624D02*
D03*
X623624D02*
D03*
X658624D02*
D03*
X673624Y128524D02*
D03*
X603624D02*
D03*
X533624D02*
D03*
X553624D02*
D03*
X588624D02*
D03*
X558624Y343916D02*
D03*
X583624D02*
D03*
X578624D02*
D03*
X573624D02*
D03*
X543624D02*
D03*
X553624D02*
D03*
X548624D02*
D03*
X538624D02*
D03*
X533624D02*
D03*
X588624D02*
D03*
X593624D02*
D03*
X638624D02*
D03*
X668624D02*
D03*
X653624D02*
D03*
X648624D02*
D03*
X643624D02*
D03*
X633624D02*
D03*
X598624D02*
D03*
X628624D02*
D03*
X613624D02*
D03*
X608624D02*
D03*
X603624D02*
D03*
X678624D02*
D03*
X683624D02*
D03*
X653624Y128524D02*
D03*
X618624D02*
D03*
X623624D02*
D03*
X638624D02*
D03*
X643624D02*
D03*
X648624D02*
D03*
X658624D02*
D03*
X608624D02*
D03*
X663624D02*
D03*
X678624D02*
D03*
X683624D02*
D03*
X688624D02*
D03*
X693624D02*
D03*
X613624D02*
D03*
X523624D02*
D03*
X528624D02*
D03*
X538624D02*
D03*
X543624D02*
D03*
X548624D02*
D03*
X563624D02*
D03*
X688624Y343916D02*
D03*
X568624Y128524D02*
D03*
X573624D02*
D03*
X578624D02*
D03*
X583624D02*
D03*
X593624D02*
D03*
X698624D02*
D03*
X673624Y343916D02*
D03*
X693624D02*
D03*
X698624D02*
D03*
D32*
X521239Y399215D02*
D03*
X508539Y452865D02*
D03*
X546638D02*
D03*
X533938Y399215D02*
D03*
X521239Y452865D02*
D03*
X533938D02*
D03*
X546638Y399215D02*
D03*
X508539D02*
D03*
D33*
X527304Y545940D02*
D03*
X517804Y525940D02*
D03*
X536804D02*
D03*
D34*
X618431Y98490D02*
D03*
X607373Y106234D02*
D03*
D35*
X730864Y48260D02*
D03*
X712364D02*
D03*
D36*
X794004Y116332D02*
D03*
Y95332D02*
D03*
D37*
X863346Y118430D02*
D03*
Y94930D02*
D03*
D38*
X857758Y193870D02*
D03*
X819658Y265870D02*
D03*
Y193870D02*
D03*
X845058Y265870D02*
D03*
X857758D02*
D03*
X832358D02*
D03*
X845058Y193870D02*
D03*
X832358D02*
D03*
D39*
X740664Y235860D02*
D03*
Y254360D02*
D03*
D40*
X632974Y797052D02*
D03*
X807974D02*
D03*
X632974Y784352D02*
D03*
X807974D02*
D03*
Y771652D02*
D03*
Y758952D02*
D03*
Y746252D02*
D03*
Y733552D02*
D03*
Y720852D02*
D03*
Y708152D02*
D03*
Y695452D02*
D03*
Y682752D02*
D03*
Y670052D02*
D03*
Y657352D02*
D03*
Y644652D02*
D03*
Y631952D02*
D03*
X632974D02*
D03*
Y644652D02*
D03*
Y657352D02*
D03*
Y670052D02*
D03*
Y682752D02*
D03*
Y695452D02*
D03*
Y708152D02*
D03*
Y720852D02*
D03*
Y733552D02*
D03*
Y746252D02*
D03*
Y758952D02*
D03*
Y771652D02*
D03*
D41*
X691474Y719852D02*
D03*
Y705852D02*
D03*
Y733852D02*
D03*
X705474Y705852D02*
D03*
X719474Y719852D02*
D03*
Y705852D02*
D03*
X705474Y733852D02*
D03*
Y719852D02*
D03*
X719474Y733852D02*
D03*
D42*
X834390Y45164D02*
D03*
Y26464D02*
D03*
X837438Y78788D02*
D03*
Y97488D02*
D03*
D43*
X459064Y93980D02*
D03*
X537886Y662686D02*
D03*
X438064Y93980D02*
D03*
X558886Y662686D02*
D03*
D44*
X816499Y163322D02*
D03*
X835517D02*
D03*
D45*
X735344Y107950D02*
D03*
X715884D02*
D03*
D46*
X790324Y619452D02*
D03*
X777624D02*
D03*
X764924D02*
D03*
X752224D02*
D03*
X739524D02*
D03*
X726824D02*
D03*
X714124D02*
D03*
X701424D02*
D03*
X688724D02*
D03*
X676024D02*
D03*
X663324D02*
D03*
X650624D02*
D03*
D47*
X611751Y85851D02*
D03*
X584553Y85363D02*
D03*
X593730Y98470D02*
D03*
X602574Y72744D02*
D03*
D48*
X668906Y409956D02*
D03*
X686946D02*
D03*
X627758Y416814D02*
D03*
X645798D02*
D03*
D49*
X681358Y96520D02*
D03*
X665350D02*
D03*
D50*
X517090Y85598D02*
D03*
X542090D02*
D03*
D51*
X518546Y495300D02*
D03*
X536062D02*
D03*
D76*
X24406Y626220D02*
D03*
Y712620D02*
D03*
Y502900D02*
D03*
Y589300D02*
D03*
D77*
X64406Y626220D02*
D03*
Y712620D02*
D03*
Y502900D02*
D03*
Y589300D02*
D03*
D82*
X58336Y195380D02*
D03*
X452966Y547062D02*
D03*
D83*
X58336Y170380D02*
D03*
X606044Y558292D02*
D03*
X452966Y572062D02*
D03*
D84*
X318516Y469900D02*
D03*
D85*
Y444500D02*
D03*
D89*
X581044Y558292D02*
D03*
D92*
X315315Y539706D02*
X425196Y429825D01*
Y301498D02*
Y429825D01*
X290294Y539706D02*
X315315D01*
X421564Y299993D02*
Y428320D01*
Y299993D02*
X477153Y244404D01*
X313950Y535934D02*
X421564Y428320D01*
X425196Y301498D02*
X478658Y248036D01*
X289356Y533136D02*
Y534997D01*
X290294Y535934D02*
X313950D01*
X289356Y534997D02*
X290294Y535934D01*
X289356Y540643D02*
Y542504D01*
X284540Y528320D02*
X289356Y533136D01*
Y540643D02*
X290294Y539706D01*
X284540Y547320D02*
X289356Y542504D01*
X449504Y296293D02*
Y466928D01*
X411480Y504952D02*
Y556440D01*
X453136Y297798D02*
Y468433D01*
X411480Y504952D02*
X449504Y466928D01*
X415112Y506456D02*
X453136Y468433D01*
X302967Y670090D02*
X415112Y557945D01*
Y506456D02*
Y557945D01*
X301462Y666458D02*
X411480Y556440D01*
X293228Y666458D02*
X301462D01*
X292096Y663590D02*
Y665326D01*
X293034Y670090D02*
X302967D01*
X255092Y529768D02*
X256540Y528320D01*
X281540D02*
X284540D01*
X238005Y529768D02*
X255092D01*
X234442Y533331D02*
X238005Y529768D01*
X281540Y547320D02*
X284540D01*
X243308Y546202D02*
X256994D01*
X234069Y536963D02*
X243308Y546202D01*
X234988Y664934D02*
X238948Y660974D01*
X254080D01*
X234480Y668566D02*
X241488Y675574D01*
X292096Y671028D02*
X293034Y670090D01*
X292096Y671028D02*
Y672958D01*
X284280Y677774D02*
X287280D01*
X292096Y672958D01*
X254080Y660974D02*
X256280Y658774D01*
X241488Y675574D02*
X257080D01*
X256280Y658774D02*
X259280D01*
X257080Y675574D02*
X259280Y677774D01*
X105430Y664934D02*
X234988D01*
X103926Y668566D02*
X234480D01*
X284280Y658774D02*
X287280D01*
X292096Y663590D01*
Y665326D02*
X293228Y666458D01*
X79717Y553600D02*
X96354Y536963D01*
X77722Y547316D02*
X91707Y533331D01*
X77722Y541348D02*
Y547316D01*
X64222Y551916D02*
X65906Y553600D01*
X63654Y551916D02*
X64222D01*
X71556Y553600D02*
X79717D01*
X65906D02*
X70156D01*
X62590Y546348D02*
Y550852D01*
X63654Y551916D01*
X76785Y548253D02*
X77722Y547316D01*
X70156Y548600D02*
X70503Y548253D01*
X76785D01*
X69456Y544300D02*
X70156Y543600D01*
X64638Y544300D02*
X69456D01*
X70856Y552900D02*
X71556Y553600D01*
X70156D02*
X70856Y552900D01*
X62590Y546348D02*
X64638Y544300D01*
X96354Y536963D02*
X234069D01*
X75674Y539300D02*
X77722Y541348D01*
X91707Y533331D02*
X234442D01*
X70856Y539300D02*
X75674D01*
X70156Y538600D02*
X70856Y539300D01*
X70156Y661920D02*
X70840Y662604D01*
X69456Y662620D02*
X70156Y661920D01*
Y666920D02*
X70856Y667620D01*
X69456Y671220D02*
X70156Y671920D01*
X76393Y676220D02*
X78230Y674383D01*
Y669457D02*
Y674383D01*
X70856Y667620D02*
X76393D01*
X70156Y666920D02*
X70840Y666236D01*
X76393Y667620D02*
X78230Y669457D01*
X70856Y676220D02*
X76393D01*
X70156Y676920D02*
X70856Y676220D01*
X62082Y664457D02*
X63919Y662620D01*
X62082Y664457D02*
Y669383D01*
X63919Y671220D02*
X69456D01*
X62082Y669383D02*
X63919Y671220D01*
X63919Y662620D02*
X69456D01*
X70840Y666236D02*
X101596D01*
X70840Y662604D02*
X103212D01*
X101596Y666236D02*
X103926Y668566D01*
X104149Y663653D02*
X105430Y664934D01*
X104149Y663541D02*
Y663653D01*
X103212Y662604D02*
X104149Y663541D01*
X477153Y244404D02*
X494401D01*
X478658Y248036D02*
X494401D01*
X494488Y248123D01*
X502831D01*
X503428Y248720D01*
X494401Y244404D02*
X494488Y244317D01*
X502831D01*
X503428Y243720D01*
X449504Y296293D02*
X472077Y273720D01*
X453136Y297798D02*
X473582Y277352D01*
X495905D01*
X494820Y273301D02*
X503009D01*
X472077Y273720D02*
X494401D01*
X496324Y276933D02*
X500087D01*
X503009Y273301D02*
X503428Y273720D01*
X500087Y276933D02*
X500507Y277352D01*
X494401Y273720D02*
X494820Y273301D01*
X495905Y277352D02*
X496324Y276933D01*
D93*
X355600Y407196D02*
X356362Y407958D01*
X355600Y393446D02*
Y407196D01*
X388366Y426720D02*
Y443738D01*
X355346Y427990D02*
X355600Y428244D01*
Y444754D01*
X355473Y444627D02*
X355600Y444754D01*
X318643Y444627D02*
X355473D01*
X318516Y444500D02*
X318643Y444627D01*
X242174Y537322D02*
X254312D01*
X241920Y537576D02*
X242174Y537322D01*
X254312D02*
X254566Y537068D01*
X304656Y388620D02*
X316992D01*
X459232Y174752D02*
X459331Y174851D01*
X468373D01*
X469447Y175925D02*
Y184967D01*
X468373Y174851D02*
X469447Y175925D01*
Y184967D02*
X472385D01*
X501396Y101600D02*
X501523Y101727D01*
X510267D02*
X510394Y101854D01*
X501523Y101727D02*
X510267D01*
X464820Y221234D02*
X478430D01*
X480568Y223372D01*
X465582Y293370D02*
X475382D01*
X547770Y101600D02*
Y102350D01*
X552958Y107538D02*
Y107696D01*
X547770Y102350D02*
X552958Y107538D01*
X569214Y85455D02*
X571176Y87416D01*
Y94284D01*
X571184Y94293D01*
X488954Y396600D02*
X489204D01*
X488954D02*
Y413770D01*
X483609Y402195D02*
X489204Y396600D01*
X478788Y402195D02*
X483609D01*
X477123Y403860D02*
X478788Y402195D01*
X476504Y403860D02*
X477123D01*
X495554Y363220D02*
X506764D01*
X509524Y365980D01*
X521239Y399215D02*
Y415005D01*
X488954Y413770D02*
X494284Y419100D01*
X508539Y452865D02*
Y458152D01*
X494284Y419100D02*
X517144D01*
X521239Y415005D01*
X568304Y452120D02*
X586994D01*
X567944Y451760D02*
X568304Y452120D01*
X499801Y459303D02*
X507388D01*
X499364Y459740D02*
X499801Y459303D01*
X507388D02*
X508539Y458152D01*
X527304Y545940D02*
Y556260D01*
X621997Y98490D02*
X625999Y94488D01*
X626618D01*
X618431Y98490D02*
X621997D01*
X794004Y116332D02*
X796544Y118872D01*
X794004Y116332D02*
X827876D01*
X829974Y118430D01*
X863346D01*
Y128921D01*
X749554Y168000D02*
X749914Y167640D01*
X762254D01*
X796544Y118872D02*
Y127422D01*
X860806Y131461D02*
X863346Y128921D01*
X858012Y180848D02*
X858266Y180594D01*
X755654Y203560D02*
X763265D01*
X858012Y180848D02*
Y193616D01*
X857758Y193870D02*
X858012Y193616D01*
X763265Y203560D02*
X764175Y204470D01*
X764794D01*
X740664Y235860D02*
X742294Y237490D01*
X753364D01*
X576834Y367390D02*
Y379730D01*
X582786Y600456D02*
X583040Y600202D01*
X583036Y627126D02*
X585576Y624586D01*
X583040Y600202D02*
X594868D01*
X585576Y624586D02*
X594106D01*
X618384Y367030D02*
X618744Y367390D01*
Y379730D01*
X675894Y369210D02*
Y381000D01*
X677672Y704596D02*
X690283D01*
X691564Y697837D02*
Y705762D01*
X691474Y705852D02*
Y719836D01*
X682752D02*
X682760Y719844D01*
X691466D01*
X691474Y719852D02*
Y733852D01*
X691206Y734120D02*
X691474Y733852D01*
X691466Y719844D02*
X691474Y719852D01*
X691466Y719844D02*
X691474Y719836D01*
X705474Y719852D02*
Y733852D01*
X705416Y733910D02*
Y742638D01*
X711564Y365760D02*
X712834Y364490D01*
X724154D01*
X740664Y325480D02*
Y336858D01*
X743204Y339398D01*
Y340360D02*
X743823D01*
X745093Y341630D01*
X785114D01*
X705612Y696235D02*
Y700786D01*
X691474Y705852D02*
X705474D01*
Y719852D01*
Y705852D02*
X719474D01*
Y706232D02*
X719664Y706042D01*
X719474Y706232D02*
Y719852D01*
X691474Y733852D02*
X705474D01*
X691474Y719852D02*
X705474D01*
X719474D01*
Y733852D02*
X719497Y733829D01*
X705474Y733852D02*
X719474D01*
Y719852D02*
Y733852D01*
X720150Y697424D02*
Y705176D01*
X719664Y706042D02*
X728627D01*
X719497Y733829D02*
X729465D01*
X719666Y719660D02*
X727865D01*
X729465Y733829D02*
X729488Y733806D01*
X795906Y97234D02*
X837438D01*
X794004Y95332D02*
X795906Y97234D01*
X461518Y161036D02*
X473308D01*
X466344Y209550D02*
X479954D01*
X475742Y311510D02*
Y322580D01*
X503428Y288720D02*
Y293720D01*
X495300Y347472D02*
X509016D01*
X472694Y372110D02*
X481127D01*
X481522Y372505D01*
X483609D01*
X489204Y378100D01*
X509016Y347472D02*
X509524Y347980D01*
X533796Y382412D02*
Y399073D01*
X533654Y382270D02*
X533796Y382412D01*
Y399073D02*
X533938Y399215D01*
X526288Y665226D02*
X535346D01*
X537886Y662686D01*
X546638Y452865D02*
Y459040D01*
X554804Y467205D01*
X564889D01*
X567944Y470260D02*
X579734D01*
X552450Y600202D02*
X564532D01*
X552196Y628142D02*
X563520D01*
X564536Y627126D02*
X564786Y626876D01*
X564532Y600202D02*
X564786Y600456D01*
Y626876D01*
X563520Y628142D02*
X564536Y627126D01*
X754274Y144780D02*
X762254D01*
X749554Y149500D02*
X754274Y144780D01*
X815848Y146812D02*
X816174Y147138D01*
X746009Y253500D02*
X746509Y254000D01*
X816174Y147138D02*
Y162996D01*
X816499Y163322D01*
X757174Y185060D02*
X758367Y186253D01*
X746009Y253230D02*
Y253500D01*
X758367Y186253D02*
X764357D01*
X764794Y186690D01*
X636524Y367390D02*
X636884Y367030D01*
X579734Y470260D02*
X583184Y473710D01*
X636524Y367390D02*
Y379730D01*
X655574Y369210D02*
Y381000D01*
X743204Y291190D02*
X746654Y294640D01*
X746509Y254000D02*
X754634D01*
X746654Y294640D02*
X755904D01*
X741024Y307340D02*
X753364D01*
X558694Y367030D02*
X559054Y367390D01*
Y379730D01*
X603017Y60727D02*
Y71753D01*
X602742Y60452D02*
X603017Y60727D01*
X600927Y74391D02*
X603291Y72028D01*
X603017Y71753D02*
X603291Y72028D01*
X592328Y111252D02*
X592671Y110909D01*
Y99529D02*
Y110909D01*
Y99529D02*
X593730Y98470D01*
X727604Y79760D02*
Y80010D01*
X712364Y64520D02*
X727604Y79760D01*
X712364Y48260D02*
Y64520D01*
X705379Y96520D02*
X711344D01*
X727604Y80010D02*
Y80260D01*
X711344Y96520D02*
X727604Y80260D01*
X681358Y96520D02*
X705379D01*
X715884Y107025D02*
Y107950D01*
X705379Y96520D02*
X715884Y107025D01*
X810246Y743980D02*
X845580D01*
X807974Y746252D02*
X810246Y743980D01*
X845580D02*
X865124Y763524D01*
X832880Y756680D02*
X865124Y788924D01*
X807974Y758952D02*
X810246Y756680D01*
X832880D01*
X693674Y365870D02*
Y378460D01*
X693564Y365760D02*
X693674Y365870D01*
D94*
X389382Y393954D02*
Y407704D01*
X388366Y408720D02*
X389382Y407704D01*
X355346Y409990D02*
X355981Y409355D01*
X209026Y450850D02*
X270526D01*
X209026D02*
Y456554D01*
X282321Y450723D02*
X282448Y450596D01*
X270653Y450723D02*
X282321D01*
X266738Y545367D02*
Y554928D01*
X192532Y461264D02*
X204316D01*
X209026Y456554D01*
X275236Y423140D02*
Y425890D01*
X273276Y427850D02*
X275236Y425890D01*
X270526Y427850D02*
X273276D01*
X270456Y427920D02*
X270526Y427850D01*
X178668Y513588D02*
X187198D01*
X156210Y503682D02*
X156404Y503876D01*
X119694Y522662D02*
X119888Y522856D01*
X156404Y516428D02*
X157046Y517070D01*
X175366Y516890D02*
X178668Y513588D01*
X156404Y503876D02*
Y516428D01*
X226314Y565912D02*
X255754D01*
X266738Y554928D01*
X270526Y450850D02*
X270653Y450723D01*
X154374Y545278D02*
X157226Y548130D01*
X131318Y545084D02*
X131512Y545278D01*
X154374D01*
X191770Y544576D02*
Y544686D01*
X149676Y427920D02*
X270456D01*
X149606Y427990D02*
X149676Y427920D01*
X281080Y538280D02*
X281540Y537820D01*
X266738Y545367D02*
X273825Y538280D01*
X281080D01*
X177290Y649734D02*
X264269D01*
X271780Y676245D02*
Y679303D01*
X276807Y671218D02*
X278336D01*
X281280Y668274D01*
X271780Y676245D02*
X276807Y671218D01*
X271780Y660303D02*
X276807Y665330D01*
X281280Y668274D02*
X284280D01*
X278336Y665330D02*
X281280Y668274D01*
X276807Y665330D02*
X278336D01*
X264269Y649734D02*
X271780Y657245D01*
X246380Y668274D02*
X259280D01*
X271780Y657245D02*
Y660303D01*
X238613Y712470D02*
X271780Y679303D01*
X181475Y710946D02*
X205232D01*
X211328Y704850D01*
X112776Y719328D02*
X142626D01*
X211328Y704850D02*
Y704850D01*
X142626Y719328D02*
X145602Y716352D01*
X228600Y712470D02*
X238613D01*
X88312Y694864D02*
X112776Y719328D01*
X190246Y698720D02*
X192050Y696916D01*
X202752D02*
X202946Y696722D01*
X189174Y681542D02*
X189996Y680720D01*
X192050Y696916D02*
X202752D01*
X157226Y579230D02*
X191770Y544686D01*
X163640Y583140D02*
X171450Y590950D01*
X159511Y618235D02*
X171450Y606296D01*
Y590950D02*
Y606296D01*
X157226Y579230D02*
Y580030D01*
X160336Y583140D02*
X163640D01*
X157226Y580030D02*
X160336Y583140D01*
X105664Y575310D02*
Y586211D01*
X105156Y586719D02*
Y586994D01*
X81631Y578075D02*
X81656Y578050D01*
X70156Y578100D02*
X70181Y578075D01*
X44704Y558546D02*
X56258Y570100D01*
X70181Y578075D02*
X81631D01*
X56258Y570100D02*
X70156D01*
X105156Y586719D02*
X105664Y586211D01*
X145047Y388701D02*
Y398031D01*
X149606Y402590D01*
X60706Y304360D02*
X145047Y388701D01*
X70616Y513640D02*
X78413D01*
X81259Y510794D02*
X81534D01*
X78413Y513640D02*
X81259Y510794D01*
X70156Y514100D02*
X70616Y513640D01*
X44704Y531114D02*
Y558546D01*
Y531114D02*
X53848Y521970D01*
X53913Y522035D02*
X70091D01*
X70156Y522100D01*
X53848Y521970D02*
X53913Y522035D01*
X106480Y522662D02*
X119694D01*
X105410Y521592D02*
X106480Y522662D01*
X285386Y389890D02*
Y412990D01*
X303386Y389890D02*
X304656Y388620D01*
X275236Y423140D02*
X285386Y412990D01*
X270526Y473850D02*
X314566D01*
X145796Y618236D02*
X145797Y618235D01*
X159511D01*
X159512Y649734D02*
X177290D01*
X127060Y640782D02*
X127254Y640588D01*
X127233Y651510D02*
X127508D01*
X115277Y655359D02*
X123384D01*
X114874Y640782D02*
X127060D01*
X123384Y655359D02*
X127233Y651510D01*
X63199Y645880D02*
X69696D01*
X70156Y701420D02*
X70616Y701880D01*
X69696Y645880D02*
X70156Y645420D01*
X172660Y681542D02*
X189174D01*
X131466Y691515D02*
X133096Y689885D01*
X175379Y704850D02*
X181475Y710946D01*
X149966Y704850D02*
X175379D01*
X172466Y681736D02*
X172660Y681542D01*
X145602Y709214D02*
Y716352D01*
X133096Y689610D02*
Y689885D01*
X131466Y691515D02*
Y704850D01*
X145602Y709214D02*
X149966Y704850D01*
X70156Y693420D02*
X70616Y693880D01*
X69696Y692960D02*
X70616Y693880D01*
X58468Y692960D02*
X69696D01*
X46736Y681228D02*
X58468Y692960D01*
X70616Y701880D02*
X79051D01*
X76342Y694864D02*
X88312D01*
X70616Y693880D02*
X75358D01*
X76342Y694864D01*
X80243Y703072D02*
X80518D01*
X79051Y701880D02*
X80243Y703072D01*
X112776Y657860D02*
X115277Y655359D01*
X112776Y642880D02*
X114874Y640782D01*
X81848Y630876D02*
X82042Y630682D01*
X46736Y662343D02*
X63199Y645880D01*
X46736Y662343D02*
Y681228D01*
X72906Y637420D02*
X79450Y630876D01*
X81848D01*
X70156Y637420D02*
X72906D01*
X389830Y91246D02*
X401620D01*
X402336Y90530D01*
X389636Y91440D02*
X389830Y91246D01*
X328930Y232664D02*
X345526D01*
X345610Y232580D01*
X328846Y232748D02*
X328930Y232664D01*
X730864Y48260D02*
X732134Y46990D01*
X743204D01*
X746312Y67250D02*
X746506Y67056D01*
X746104Y80010D02*
X746312Y79802D01*
Y67250D02*
Y79802D01*
X586292Y678628D02*
Y691180D01*
X584306Y713796D02*
X586486Y711616D01*
X584306Y693166D02*
X586292Y691180D01*
X584306Y693166D02*
X586486Y695346D01*
X586292Y678628D02*
X586486Y678434D01*
Y695346D02*
Y711616D01*
X573786Y713486D02*
X573980Y713680D01*
X583590D01*
X584306Y713796D02*
Y714396D01*
X586486Y716576D01*
X618744Y796036D02*
X618938Y796230D01*
X632152D01*
X632974Y797052D01*
X691896Y697230D02*
X692090Y697424D01*
X691896Y697230D02*
Y697505D01*
X691564Y697837D02*
X691896Y697505D01*
X705358Y695706D02*
Y695981D01*
X841502Y286766D02*
X852678D01*
X705358Y695981D02*
X705612Y696235D01*
X705358Y742696D02*
X705416Y742638D01*
X720150Y697424D02*
X720344Y697230D01*
X728197Y719328D02*
X728472D01*
X727865Y719660D02*
X728197Y719328D01*
X728627Y706042D02*
X728959Y706374D01*
X729234D01*
X728278Y719522D02*
X728472Y719328D01*
X807974Y797052D02*
X808286Y796740D01*
X816023D01*
X817859Y798576D02*
X818134D01*
X816023Y796740D02*
X817859Y798576D01*
X282562Y473088D02*
X286512Y469138D01*
X835806Y77156D02*
X837438Y78788D01*
X822392Y77156D02*
X835806D01*
X822198Y76962D02*
X822392Y77156D01*
X459064Y93980D02*
X462774Y97690D01*
Y103597D01*
X464820Y105643D01*
Y105918D01*
X537886Y661436D02*
Y662686D01*
Y661436D02*
X559576Y639746D01*
Y632086D02*
X564536Y627126D01*
X559576Y632086D02*
Y639746D01*
X571440Y783904D02*
X584988D01*
X571246Y784098D02*
X571440Y783904D01*
X735344Y107025D02*
Y107950D01*
X745998Y96266D02*
Y96371D01*
X735344Y107025D02*
X745998Y96371D01*
X584988Y783904D02*
X586486Y782406D01*
X586245Y783155D02*
X587442Y784352D01*
X632974D01*
X819658Y265870D02*
Y285602D01*
X821838Y287782D01*
X820868Y288752D02*
X821838Y287782D01*
X820674Y300736D02*
X820868Y300542D01*
Y288752D02*
Y300542D01*
D95*
X60706Y304360D02*
D03*
D96*
Y376360D02*
D03*
D97*
X149606Y453390D02*
D03*
Y427990D02*
D03*
X785114Y341630D02*
D03*
X865124Y687324D02*
D03*
Y763524D02*
D03*
Y738124D02*
D03*
Y712724D02*
D03*
X785114Y316230D02*
D03*
X294386Y769620D02*
D03*
X319786D02*
D03*
X370586D02*
D03*
X345186D02*
D03*
D98*
X149606Y402590D02*
D03*
X865124Y788924D02*
D03*
X785114Y290830D02*
D03*
D99*
X805942Y463296D02*
D03*
Y488696D02*
D03*
X831342D02*
D03*
Y463296D02*
D03*
X856742Y488696D02*
D03*
Y463296D02*
D03*
X780542Y488696D02*
D03*
Y463296D02*
D03*
X755142Y488696D02*
D03*
D100*
X423740Y172481D02*
D03*
X368740D02*
D03*
Y142481D02*
D03*
X423740D02*
D03*
X348727Y269426D02*
D03*
X378727D02*
D03*
X348727Y324426D02*
D03*
X378727D02*
D03*
D101*
X50244Y773430D02*
D03*
Y51308D02*
D03*
X926084D02*
D03*
Y773430D02*
D03*
D102*
X755142Y463296D02*
D03*
D103*
X395986Y769620D02*
D03*
D104*
X442468Y192278D02*
D03*
X355600Y393446D02*
D03*
Y444754D02*
D03*
X388366Y443738D02*
D03*
X241920Y537576D02*
D03*
X187198Y513588D02*
D03*
X226314Y565912D02*
D03*
X131318Y545084D02*
D03*
X191770Y544576D02*
D03*
X156210Y503682D02*
D03*
X250444Y465836D02*
D03*
X226314Y470408D02*
D03*
X192532Y461264D02*
D03*
X195326Y473710D02*
D03*
X229108Y479298D02*
D03*
X209804Y479552D02*
D03*
X212852Y486410D02*
D03*
X198882Y482600D02*
D03*
X241046Y475996D02*
D03*
X187452Y467106D02*
D03*
X133096Y689610D02*
D03*
X202946Y696722D02*
D03*
X172466Y681736D02*
D03*
X246380Y668274D02*
D03*
X127508Y651510D02*
D03*
X145796Y618236D02*
D03*
X127254Y640588D02*
D03*
X185928Y453390D02*
D03*
X282448Y450596D02*
D03*
X225298Y441960D02*
D03*
X234188Y440182D02*
D03*
X194564D02*
D03*
X224282Y452882D02*
D03*
X247650Y445770D02*
D03*
X316992Y388620D02*
D03*
X53848Y521970D02*
D03*
X234442Y459994D02*
D03*
X189992Y446278D02*
D03*
X105156Y586994D02*
D03*
X82042Y630682D02*
D03*
X119888Y522856D02*
D03*
X81656Y578050D02*
D03*
X81534Y510794D02*
D03*
X80518Y703072D02*
D03*
X389636Y91440D02*
D03*
X493776Y84836D02*
D03*
X494538Y71882D02*
D03*
X493268Y95250D02*
D03*
X459232Y174752D02*
D03*
X494520Y112540D02*
D03*
X507347Y71120D02*
D03*
X501396Y101600D02*
D03*
X509125Y113284D02*
D03*
X464820Y221234D02*
D03*
X328846Y232748D02*
D03*
X465582Y293370D02*
D03*
X531622Y71120D02*
D03*
X519430D02*
D03*
X543814D02*
D03*
X522986Y113284D02*
D03*
X554520Y94100D02*
D03*
X552958Y107696D02*
D03*
X560578Y112776D02*
D03*
X564110Y76684D02*
D03*
X569214Y85455D02*
D03*
X573024Y113538D02*
D03*
X517906Y228600D02*
D03*
X518414Y175260D02*
D03*
X518922Y281940D02*
D03*
X561594Y143510D02*
D03*
X565404Y328930D02*
D03*
X495554Y363220D02*
D03*
X476504Y403860D02*
D03*
X499364Y459740D02*
D03*
X527304Y556260D02*
D03*
X575437Y74422D02*
D03*
X617982Y69342D02*
D03*
X623824Y74930D02*
D03*
X626872Y85852D02*
D03*
X626618Y94488D02*
D03*
X622046Y109728D02*
D03*
X634746Y97028D02*
D03*
X628396Y103378D02*
D03*
X613410Y115062D02*
D03*
X622808Y144272D02*
D03*
X605790Y154178D02*
D03*
X622554Y190500D02*
D03*
X630174Y144780D02*
D03*
X743204Y46990D02*
D03*
X690118Y75438D02*
D03*
X668274Y143510D02*
D03*
X746506Y67056D02*
D03*
X762254Y167640D02*
D03*
X796544Y127422D02*
D03*
X858266Y180594D02*
D03*
X860806Y131461D02*
D03*
X703834Y193040D02*
D03*
X702564Y212090D02*
D03*
X764794Y204470D02*
D03*
X753364Y237490D02*
D03*
X754634Y270510D02*
D03*
X576834Y379730D02*
D03*
X586994Y452120D02*
D03*
X594868Y600202D02*
D03*
X594106Y624586D02*
D03*
X618744Y379730D02*
D03*
X675894Y381000D02*
D03*
X586486Y678434D02*
D03*
X573786Y713486D02*
D03*
X618744Y796036D02*
D03*
X677672Y704596D02*
D03*
X691896Y697230D02*
D03*
X682752Y719836D02*
D03*
X683260Y734314D02*
D03*
X705358Y695706D02*
D03*
X724154Y364490D02*
D03*
X852678Y286766D02*
D03*
X743204Y340360D02*
D03*
X720344Y697230D02*
D03*
X705358Y742696D02*
D03*
X729234Y706374D02*
D03*
X728472Y719328D02*
D03*
X729488Y733806D02*
D03*
X818134Y798576D02*
D03*
X613918Y63246D02*
D03*
X602234Y50800D02*
D03*
X822198Y76962D02*
D03*
X612902Y147320D02*
D03*
X518414Y260858D02*
D03*
X464820Y105918D02*
D03*
X461518Y161036D02*
D03*
X466344Y209550D02*
D03*
X475742Y322580D02*
D03*
X518414Y147320D02*
D03*
X552704Y143510D02*
D03*
X472694Y372110D02*
D03*
X495300Y347472D02*
D03*
X533654Y382270D02*
D03*
X526288Y665226D02*
D03*
X552450Y600202D02*
D03*
X552196Y628142D02*
D03*
X571246Y784098D02*
D03*
X678434Y143510D02*
D03*
X703834Y222250D02*
D03*
X745998Y96266D02*
D03*
X762254Y144780D02*
D03*
X815848Y146812D02*
D03*
X764794Y186690D02*
D03*
X754634Y254000D02*
D03*
X583184Y473710D02*
D03*
X636524Y379730D02*
D03*
X655574Y381000D02*
D03*
X755904Y294640D02*
D03*
X753364Y307340D02*
D03*
X820674Y300736D02*
D03*
X559054Y379730D02*
D03*
X602742Y60452D02*
D03*
X593090Y144018D02*
D03*
X590550Y366776D02*
D03*
X592328Y111252D02*
D03*
X589280Y501396D02*
D03*
X581660Y510032D02*
D03*
X536702Y510540D02*
D03*
X517144Y510794D02*
D03*
X552704Y255016D02*
D03*
X572008Y662178D02*
D03*
X780796Y764032D02*
D03*
X625348Y431546D02*
D03*
X665988Y424942D02*
D03*
X595630Y359156D02*
D03*
X833882Y229362D02*
D03*
X837438Y181356D02*
D03*
X833628Y253238D02*
D03*
X811530Y193802D02*
D03*
X866648Y264668D02*
D03*
X697484Y267970D02*
D03*
X701294Y278130D02*
D03*
X703834Y259080D02*
D03*
Y179070D02*
D03*
X693674Y378460D02*
D03*
X702564Y295910D02*
D03*
Y287020D02*
D03*
X574294Y328930D02*
D03*
X517144Y184150D02*
D03*
X639064Y144780D02*
D03*
D105*
X389382Y393954D02*
D03*
X594106Y57912D02*
D03*
X584530Y66152D02*
D03*
M02*
