G04*
G04 #@! TF.GenerationSoftware,Altium Limited,Altium Designer,26.4.1 (12)*
G04*
G04 Layer_Color=8388736*
%FSLAX44Y44*%
%MOMM*%
G71*
G04*
G04 #@! TF.SameCoordinates,498FC022-B34E-4152-97B3-50CD48BD2042*
G04*
G04*
G04 #@! TF.FilePolarity,Negative*
G04*
G01*
G75*
%ADD18R,1.1500X0.3000*%
%ADD19R,1.1500X0.6000*%
%ADD20R,1.3621X1.0081*%
%ADD28R,1.7780X0.2794*%
%ADD31R,0.2794X1.7780*%
%ADD37R,1.1000X1.2500*%
%ADD44R,1.0065X1.4082*%
%ADD48R,1.0081X1.3621*%
%ADD49R,1.3541X1.4550*%
%ADD51R,1.1546X1.3621*%
%ADD52R,1.3500X0.7500*%
%ADD53R,1.2800X1.3600*%
G04:AMPARAMS|DCode=54|XSize=1.05mm|YSize=1.6mm|CornerRadius=0.1245mm|HoleSize=0mm|Usage=FLASHONLY|Rotation=270.000|XOffset=0mm|YOffset=0mm|HoleType=Round|Shape=RoundedRectangle|*
%AMROUNDEDRECTD54*
21,1,1.0500,1.3510,0,0,270.0*
21,1,0.8010,1.6000,0,0,270.0*
1,1,0.2490,-0.6755,-0.4005*
1,1,0.2490,-0.6755,0.4005*
1,1,0.2490,0.6755,0.4005*
1,1,0.2490,0.6755,-0.4005*
%
%ADD54ROUNDEDRECTD54*%
G04:AMPARAMS|DCode=55|XSize=3.3mm|YSize=1.6mm|CornerRadius=0.1258mm|HoleSize=0mm|Usage=FLASHONLY|Rotation=270.000|XOffset=0mm|YOffset=0mm|HoleType=Round|Shape=RoundedRectangle|*
%AMROUNDEDRECTD55*
21,1,3.3000,1.3485,0,0,270.0*
21,1,3.0485,1.6000,0,0,270.0*
1,1,0.2515,-0.6743,-1.5243*
1,1,0.2515,-0.6743,1.5243*
1,1,0.2515,0.6743,1.5243*
1,1,0.2515,0.6743,-1.5243*
%
%ADD55ROUNDEDRECTD55*%
%ADD56R,1.6500X1.7000*%
%ADD57R,1.7000X1.6500*%
%ADD58R,1.0000X1.1500*%
%ADD59R,1.6500X1.4000*%
G04:AMPARAMS|DCode=60|XSize=1.15mm|YSize=1mm|CornerRadius=0mm|HoleSize=0mm|Usage=FLASHONLY|Rotation=145.000|XOffset=0mm|YOffset=0mm|HoleType=Round|Shape=Rectangle|*
%AMROTATEDRECTD60*
4,1,4,0.7578,0.0798,0.1842,-0.7394,-0.7578,-0.0798,-0.1842,0.7394,0.7578,0.0798,0.0*
%
%ADD60ROTATEDRECTD60*%

%ADD61O,0.7800X2.0150*%
%ADD62R,0.9500X1.0500*%
G04:AMPARAMS|DCode=63|XSize=1.15mm|YSize=1mm|CornerRadius=0mm|HoleSize=0mm|Usage=FLASHONLY|Rotation=55.000|XOffset=0mm|YOffset=0mm|HoleType=Round|Shape=Rectangle|*
%AMROTATEDRECTD63*
4,1,4,0.0798,-0.7578,-0.7394,-0.1842,-0.0798,0.7578,0.7394,0.1842,0.0798,-0.7578,0.0*
%
%ADD63ROTATEDRECTD63*%

%ADD64R,1.6000X1.7000*%
%ADD65R,1.3500X1.3500*%
%ADD66R,0.8000X1.8000*%
%ADD67R,1.7000X1.6000*%
%ADD68R,1.6500X1.0500*%
%ADD69R,1.0500X1.0500*%
%ADD70R,1.5700X1.1500*%
%ADD71R,1.4000X1.6500*%
%ADD72R,1.4350X1.6200*%
%ADD73R,1.0500X1.6500*%
G04:AMPARAMS|DCode=74|XSize=1.55mm|YSize=1.3mm|CornerRadius=0mm|HoleSize=0mm|Usage=FLASHONLY|Rotation=325.000|XOffset=0mm|YOffset=0mm|HoleType=Round|Shape=Rectangle|*
%AMROTATEDRECTD74*
4,1,4,-1.0077,-0.0879,-0.2620,0.9770,1.0077,0.0879,0.2620,-0.9770,-1.0077,-0.0879,0.0*
%
%ADD74ROTATEDRECTD74*%

%ADD75R,1.1500X1.9500*%
G04:AMPARAMS|DCode=76|XSize=1mm|YSize=2.2mm|CornerRadius=0.5mm|HoleSize=0mm|Usage=FLASHONLY|Rotation=270.000|XOffset=0mm|YOffset=0mm|HoleType=Round|Shape=RoundedRectangle|*
%AMROUNDEDRECTD76*
21,1,1.0000,1.2000,0,0,270.0*
21,1,0.0000,2.2000,0,0,270.0*
1,1,1.0000,-0.6000,0.0000*
1,1,1.0000,-0.6000,0.0000*
1,1,1.0000,0.6000,0.0000*
1,1,1.0000,0.6000,0.0000*
%
%ADD76ROUNDEDRECTD76*%
G04:AMPARAMS|DCode=77|XSize=1mm|YSize=1.8mm|CornerRadius=0.5mm|HoleSize=0mm|Usage=FLASHONLY|Rotation=270.000|XOffset=0mm|YOffset=0mm|HoleType=Round|Shape=RoundedRectangle|*
%AMROUNDEDRECTD77*
21,1,1.0000,0.8000,0,0,270.0*
21,1,0.0000,1.8000,0,0,270.0*
1,1,1.0000,-0.4000,0.0000*
1,1,1.0000,-0.4000,0.0000*
1,1,1.0000,0.4000,0.0000*
1,1,1.0000,0.4000,0.0000*
%
%ADD77ROUNDEDRECTD77*%
%ADD78R,6.1500X6.1500*%
%ADD79C,6.1500*%
%ADD80C,1.7500*%
G04:AMPARAMS|DCode=81|XSize=1.75mm|YSize=1.75mm|CornerRadius=0.475mm|HoleSize=0mm|Usage=FLASHONLY|Rotation=90.000|XOffset=0mm|YOffset=0mm|HoleType=Round|Shape=RoundedRectangle|*
%AMROUNDEDRECTD81*
21,1,1.7500,0.8000,0,0,90.0*
21,1,0.8000,1.7500,0,0,90.0*
1,1,0.9500,0.4000,0.4000*
1,1,0.9500,0.4000,-0.4000*
1,1,0.9500,-0.4000,-0.4000*
1,1,0.9500,-0.4000,0.4000*
%
%ADD81ROUNDEDRECTD81*%
%ADD82R,1.5500X1.5500*%
%ADD83C,1.5500*%
%ADD84R,1.5700X1.5700*%
%ADD85C,1.5700*%
%ADD86C,1.8000*%
%ADD87C,1.7500*%
%ADD88C,5.6500*%
%ADD89R,1.5500X1.5500*%
%ADD90R,1.8000X1.8000*%
G04:AMPARAMS|DCode=91|XSize=1.75mm|YSize=1.75mm|CornerRadius=0.475mm|HoleSize=0mm|Usage=FLASHONLY|Rotation=180.000|XOffset=0mm|YOffset=0mm|HoleType=Round|Shape=RoundedRectangle|*
%AMROUNDEDRECTD91*
21,1,1.7500,0.8000,0,0,180.0*
21,1,0.8000,1.7500,0,0,180.0*
1,1,0.9500,-0.4000,0.4000*
1,1,0.9500,0.4000,0.4000*
1,1,0.9500,0.4000,-0.4000*
1,1,0.9500,-0.4000,-0.4000*
%
%ADD91ROUNDEDRECTD91*%
D18*
X70156Y681920D02*
D03*
Y686920D02*
D03*
Y656920D02*
D03*
Y651920D02*
D03*
Y666920D02*
D03*
Y676920D02*
D03*
Y661920D02*
D03*
Y671920D02*
D03*
Y563600D02*
D03*
Y558600D02*
D03*
Y528600D02*
D03*
Y533600D02*
D03*
Y548600D02*
D03*
Y538600D02*
D03*
Y543600D02*
D03*
Y553600D02*
D03*
D19*
Y693420D02*
D03*
Y645420D02*
D03*
Y637420D02*
D03*
Y701420D02*
D03*
Y570100D02*
D03*
Y522100D02*
D03*
Y514100D02*
D03*
Y578100D02*
D03*
D20*
X112776Y675900D02*
D03*
Y657860D02*
D03*
X105664Y557270D02*
D03*
Y575310D02*
D03*
X112776Y624840D02*
D03*
Y642880D02*
D03*
X105410Y503552D02*
D03*
Y521592D02*
D03*
D28*
X503428Y178720D02*
D03*
Y208720D02*
D03*
Y283720D02*
D03*
X718820Y173720D02*
D03*
Y193720D02*
D03*
Y213720D02*
D03*
Y243720D02*
D03*
Y273720D02*
D03*
Y313720D02*
D03*
X503428Y173720D02*
D03*
Y203720D02*
D03*
Y253720D02*
D03*
Y288720D02*
D03*
Y293720D02*
D03*
X718820Y248720D02*
D03*
Y278720D02*
D03*
Y308720D02*
D03*
Y168720D02*
D03*
Y188720D02*
D03*
Y218720D02*
D03*
X503428Y248720D02*
D03*
Y278720D02*
D03*
Y273720D02*
D03*
Y318720D02*
D03*
Y323720D02*
D03*
Y313720D02*
D03*
Y213720D02*
D03*
Y148720D02*
D03*
Y153720D02*
D03*
Y158720D02*
D03*
Y163720D02*
D03*
Y168720D02*
D03*
Y183720D02*
D03*
Y188720D02*
D03*
Y193720D02*
D03*
Y198720D02*
D03*
Y218720D02*
D03*
Y308720D02*
D03*
Y228720D02*
D03*
Y233720D02*
D03*
Y238720D02*
D03*
Y243720D02*
D03*
Y258720D02*
D03*
Y263720D02*
D03*
Y268720D02*
D03*
Y298720D02*
D03*
Y303720D02*
D03*
Y223720D02*
D03*
X718820Y148720D02*
D03*
Y153720D02*
D03*
Y258720D02*
D03*
Y263720D02*
D03*
Y268720D02*
D03*
Y283720D02*
D03*
Y323720D02*
D03*
Y318720D02*
D03*
Y303720D02*
D03*
Y293720D02*
D03*
Y158720D02*
D03*
Y253720D02*
D03*
Y298720D02*
D03*
Y163720D02*
D03*
Y238720D02*
D03*
Y178720D02*
D03*
Y183720D02*
D03*
Y288720D02*
D03*
Y198720D02*
D03*
Y208720D02*
D03*
Y223720D02*
D03*
Y203720D02*
D03*
Y233720D02*
D03*
Y228720D02*
D03*
D31*
X558624Y128524D02*
D03*
X528624Y343916D02*
D03*
X568624D02*
D03*
X598624Y128524D02*
D03*
X628624D02*
D03*
X633624D02*
D03*
X668624D02*
D03*
X618624Y343916D02*
D03*
X663624D02*
D03*
X563624D02*
D03*
X523624D02*
D03*
X623624D02*
D03*
X658624D02*
D03*
X673624Y128524D02*
D03*
X603624D02*
D03*
X533624D02*
D03*
X553624D02*
D03*
X588624D02*
D03*
X558624Y343916D02*
D03*
X583624D02*
D03*
X578624D02*
D03*
X573624D02*
D03*
X543624D02*
D03*
X553624D02*
D03*
X548624D02*
D03*
X538624D02*
D03*
X533624D02*
D03*
X588624D02*
D03*
X593624D02*
D03*
X638624D02*
D03*
X668624D02*
D03*
X653624D02*
D03*
X648624D02*
D03*
X643624D02*
D03*
X633624D02*
D03*
X598624D02*
D03*
X628624D02*
D03*
X613624D02*
D03*
X608624D02*
D03*
X603624D02*
D03*
X678624D02*
D03*
X683624D02*
D03*
X653624Y128524D02*
D03*
X618624D02*
D03*
X623624D02*
D03*
X638624D02*
D03*
X643624D02*
D03*
X648624D02*
D03*
X658624D02*
D03*
X608624D02*
D03*
X663624D02*
D03*
X678624D02*
D03*
X683624D02*
D03*
X688624D02*
D03*
X693624D02*
D03*
X613624D02*
D03*
X523624D02*
D03*
X528624D02*
D03*
X538624D02*
D03*
X543624D02*
D03*
X548624D02*
D03*
X563624D02*
D03*
X688624Y343916D02*
D03*
X568624Y128524D02*
D03*
X573624D02*
D03*
X578624D02*
D03*
X583624D02*
D03*
X593624D02*
D03*
X698624D02*
D03*
X673624Y343916D02*
D03*
X693624D02*
D03*
X698624D02*
D03*
D37*
X863346Y118430D02*
D03*
Y94930D02*
D03*
D44*
X816499Y163322D02*
D03*
X835517D02*
D03*
D48*
X668906Y409956D02*
D03*
X686946D02*
D03*
X627758Y416814D02*
D03*
X645798D02*
D03*
D49*
X681358Y96520D02*
D03*
X665350D02*
D03*
D51*
X518546Y495300D02*
D03*
X536062D02*
D03*
D52*
X284280Y668274D02*
D03*
X259280Y658774D02*
D03*
Y677774D02*
D03*
X284280D02*
D03*
Y658774D02*
D03*
X259280Y668274D02*
D03*
X256540Y547320D02*
D03*
Y528320D02*
D03*
Y537820D02*
D03*
X281540Y528320D02*
D03*
Y547320D02*
D03*
Y537820D02*
D03*
D53*
X157226Y548130D02*
D03*
Y579630D02*
D03*
X159512Y618234D02*
D03*
Y649734D02*
D03*
D54*
X270526Y427850D02*
D03*
Y473850D02*
D03*
Y450850D02*
D03*
D55*
X209026D02*
D03*
D56*
X285386Y389890D02*
D03*
X303386D02*
D03*
X149966Y704850D02*
D03*
X131466D02*
D03*
X156866Y516890D02*
D03*
X175366D02*
D03*
X577194Y367030D02*
D03*
X746104Y80010D02*
D03*
X582786Y600456D02*
D03*
X583036Y627126D02*
D03*
X618384Y367030D02*
D03*
X674984Y368300D02*
D03*
X584306Y693166D02*
D03*
X711564Y365760D02*
D03*
X840338Y287782D02*
D03*
X636884Y367030D02*
D03*
X656484Y368300D02*
D03*
X821838Y287782D02*
D03*
X564786Y600456D02*
D03*
X564536Y627126D02*
D03*
X558694Y367030D02*
D03*
X565806Y693166D02*
D03*
X727604Y80010D02*
D03*
X693564Y365760D02*
D03*
D57*
X355346Y409990D02*
D03*
Y427990D02*
D03*
X388366Y408720D02*
D03*
Y426720D02*
D03*
X190246Y680720D02*
D03*
Y698720D02*
D03*
X402336Y90530D02*
D03*
X474218Y180446D02*
D03*
X480568Y223372D02*
D03*
X478282Y290470D02*
D03*
X489204Y396600D02*
D03*
X509524Y365980D02*
D03*
X567944Y451760D02*
D03*
X749554Y168000D02*
D03*
X750824Y203560D02*
D03*
X743204Y272690D02*
D03*
X586486Y716576D02*
D03*
X740664Y325480D02*
D03*
X480568Y204872D02*
D03*
X474218Y161946D02*
D03*
X743204Y291190D02*
D03*
X750824Y185060D02*
D03*
X749554Y149500D02*
D03*
X478282Y308970D02*
D03*
X509524Y347980D02*
D03*
X567944Y470260D02*
D03*
X489204Y378100D02*
D03*
X740664Y306980D02*
D03*
X402336Y72030D02*
D03*
X586486Y735076D02*
D03*
D58*
X510394Y101854D02*
D03*
X547770Y101600D02*
D03*
X534270D02*
D03*
X523894Y101854D02*
D03*
D59*
X345610Y232580D02*
D03*
X586486Y782406D02*
D03*
Y761406D02*
D03*
X345610Y211580D02*
D03*
D60*
X571184Y94293D02*
D03*
X578928Y105351D02*
D03*
D61*
X521239Y399215D02*
D03*
X508539Y452865D02*
D03*
X546638D02*
D03*
X533938Y399215D02*
D03*
X521239Y452865D02*
D03*
X533938D02*
D03*
X546638Y399215D02*
D03*
X508539D02*
D03*
D62*
X527304Y545940D02*
D03*
X517804Y525940D02*
D03*
X536804D02*
D03*
D63*
X618431Y98490D02*
D03*
X607373Y106234D02*
D03*
D64*
X730864Y48260D02*
D03*
X712364D02*
D03*
D65*
X794004Y116332D02*
D03*
Y95332D02*
D03*
D66*
X857758Y193870D02*
D03*
X819658Y265870D02*
D03*
Y193870D02*
D03*
X845058Y265870D02*
D03*
X857758D02*
D03*
X832358D02*
D03*
X845058Y193870D02*
D03*
X832358D02*
D03*
D67*
X740664Y235860D02*
D03*
Y254360D02*
D03*
D68*
X632974Y797052D02*
D03*
X807974D02*
D03*
X632974Y784352D02*
D03*
X807974D02*
D03*
Y771652D02*
D03*
Y758952D02*
D03*
Y746252D02*
D03*
Y733552D02*
D03*
Y720852D02*
D03*
Y708152D02*
D03*
Y695452D02*
D03*
Y682752D02*
D03*
Y670052D02*
D03*
Y657352D02*
D03*
Y644652D02*
D03*
Y631952D02*
D03*
X632974D02*
D03*
Y644652D02*
D03*
Y657352D02*
D03*
Y670052D02*
D03*
Y682752D02*
D03*
Y695452D02*
D03*
Y708152D02*
D03*
Y720852D02*
D03*
Y733552D02*
D03*
Y746252D02*
D03*
Y758952D02*
D03*
Y771652D02*
D03*
D69*
X691474Y719852D02*
D03*
Y705852D02*
D03*
Y733852D02*
D03*
X705474Y705852D02*
D03*
X719474Y719852D02*
D03*
Y705852D02*
D03*
X705474Y733852D02*
D03*
Y719852D02*
D03*
X719474Y733852D02*
D03*
D70*
X834390Y45164D02*
D03*
Y26464D02*
D03*
X837438Y78788D02*
D03*
Y97488D02*
D03*
D71*
X459064Y93980D02*
D03*
X537886Y662686D02*
D03*
X438064Y93980D02*
D03*
X558886Y662686D02*
D03*
D72*
X735344Y107950D02*
D03*
X715884D02*
D03*
D73*
X790324Y619452D02*
D03*
X777624D02*
D03*
X764924D02*
D03*
X752224D02*
D03*
X739524D02*
D03*
X726824D02*
D03*
X714124D02*
D03*
X701424D02*
D03*
X688724D02*
D03*
X676024D02*
D03*
X663324D02*
D03*
X650624D02*
D03*
D74*
X611751Y85851D02*
D03*
X584553Y85363D02*
D03*
X593730Y98470D02*
D03*
X602574Y72744D02*
D03*
D75*
X517090Y85598D02*
D03*
X542090D02*
D03*
D76*
X24406Y626220D02*
D03*
Y712620D02*
D03*
Y502900D02*
D03*
Y589300D02*
D03*
D77*
X64406Y626220D02*
D03*
Y712620D02*
D03*
Y502900D02*
D03*
Y589300D02*
D03*
D78*
X60706Y304360D02*
D03*
D79*
Y376360D02*
D03*
D80*
X149606Y453390D02*
D03*
Y427990D02*
D03*
X785114Y341630D02*
D03*
X865124Y687324D02*
D03*
Y763524D02*
D03*
Y738124D02*
D03*
Y712724D02*
D03*
X785114Y316230D02*
D03*
X294386Y769620D02*
D03*
X319786D02*
D03*
X370586D02*
D03*
X345186D02*
D03*
D81*
X149606Y402590D02*
D03*
X865124Y788924D02*
D03*
X785114Y290830D02*
D03*
D82*
X58336Y195380D02*
D03*
X452966Y547062D02*
D03*
D83*
X58336Y170380D02*
D03*
X606044Y558292D02*
D03*
X452966Y572062D02*
D03*
D84*
X318516Y469900D02*
D03*
D85*
Y444500D02*
D03*
D86*
X805942Y463296D02*
D03*
Y488696D02*
D03*
X831342D02*
D03*
Y463296D02*
D03*
X856742Y488696D02*
D03*
Y463296D02*
D03*
X780542Y488696D02*
D03*
Y463296D02*
D03*
X755142Y488696D02*
D03*
D87*
X423740Y172481D02*
D03*
X368740D02*
D03*
Y142481D02*
D03*
X423740D02*
D03*
X348727Y269426D02*
D03*
X378727D02*
D03*
X348727Y324426D02*
D03*
X378727D02*
D03*
D88*
X50244Y773430D02*
D03*
Y51308D02*
D03*
X926084D02*
D03*
Y773430D02*
D03*
D89*
X581044Y558292D02*
D03*
D90*
X755142Y463296D02*
D03*
D91*
X395986Y769620D02*
D03*
M02*
