G04*
G04 #@! TF.GenerationSoftware,Altium Limited,Altium Designer,26.4.1 (12)*
G04*
G04 Layer_Color=16711935*
%FSLAX44Y44*%
%MOMM*%
G71*
G04*
G04 #@! TF.SameCoordinates,498FC022-B34E-4152-97B3-50CD48BD2042*
G04*
G04*
G04 #@! TF.FilePolarity,Negative*
G04*
G01*
G75*
%ADD49R,1.3541X1.4550*%
%ADD56R,1.6500X1.7000*%
%ADD57R,1.7000X1.6500*%
%ADD64R,1.6000X1.7000*%
G04:AMPARAMS|DCode=76|XSize=1mm|YSize=2.2mm|CornerRadius=0.5mm|HoleSize=0mm|Usage=FLASHONLY|Rotation=270.000|XOffset=0mm|YOffset=0mm|HoleType=Round|Shape=RoundedRectangle|*
%AMROUNDEDRECTD76*
21,1,1.0000,1.2000,0,0,270.0*
21,1,0.0000,2.2000,0,0,270.0*
1,1,1.0000,-0.6000,0.0000*
1,1,1.0000,-0.6000,0.0000*
1,1,1.0000,0.6000,0.0000*
1,1,1.0000,0.6000,0.0000*
%
%ADD76ROUNDEDRECTD76*%
G04:AMPARAMS|DCode=77|XSize=1mm|YSize=1.8mm|CornerRadius=0.5mm|HoleSize=0mm|Usage=FLASHONLY|Rotation=270.000|XOffset=0mm|YOffset=0mm|HoleType=Round|Shape=RoundedRectangle|*
%AMROUNDEDRECTD77*
21,1,1.0000,0.8000,0,0,270.0*
21,1,0.0000,1.8000,0,0,270.0*
1,1,1.0000,-0.4000,0.0000*
1,1,1.0000,-0.4000,0.0000*
1,1,1.0000,0.4000,0.0000*
1,1,1.0000,0.4000,0.0000*
%
%ADD77ROUNDEDRECTD77*%
%ADD78R,6.1500X6.1500*%
%ADD79C,6.1500*%
%ADD80C,1.7500*%
G04:AMPARAMS|DCode=81|XSize=1.75mm|YSize=1.75mm|CornerRadius=0.475mm|HoleSize=0mm|Usage=FLASHONLY|Rotation=90.000|XOffset=0mm|YOffset=0mm|HoleType=Round|Shape=RoundedRectangle|*
%AMROUNDEDRECTD81*
21,1,1.7500,0.8000,0,0,90.0*
21,1,0.8000,1.7500,0,0,90.0*
1,1,0.9500,0.4000,0.4000*
1,1,0.9500,0.4000,-0.4000*
1,1,0.9500,-0.4000,-0.4000*
1,1,0.9500,-0.4000,0.4000*
%
%ADD81ROUNDEDRECTD81*%
%ADD82R,1.5500X1.5500*%
%ADD83C,1.5500*%
%ADD84R,1.5700X1.5700*%
%ADD85C,1.5700*%
%ADD86C,1.8000*%
%ADD87C,1.7500*%
%ADD88C,5.6500*%
%ADD89R,1.5500X1.5500*%
%ADD90R,1.8000X1.8000*%
G04:AMPARAMS|DCode=91|XSize=1.75mm|YSize=1.75mm|CornerRadius=0.475mm|HoleSize=0mm|Usage=FLASHONLY|Rotation=180.000|XOffset=0mm|YOffset=0mm|HoleType=Round|Shape=RoundedRectangle|*
%AMROUNDEDRECTD91*
21,1,1.7500,0.8000,0,0,180.0*
21,1,0.8000,1.7500,0,0,180.0*
1,1,0.9500,-0.4000,0.4000*
1,1,0.9500,0.4000,0.4000*
1,1,0.9500,0.4000,-0.4000*
1,1,0.9500,-0.4000,-0.4000*
%
%ADD91ROUNDEDRECTD91*%
D49*
X669166Y90678D02*
D03*
X653158D02*
D03*
D56*
X521610Y246888D02*
D03*
X558944Y313690D02*
D03*
X626004Y158750D02*
D03*
X626254Y177800D02*
D03*
X644504Y158750D02*
D03*
X644254Y177800D02*
D03*
X540110Y246888D02*
D03*
X576944Y313690D02*
D03*
D57*
X531114Y166730D02*
D03*
Y184040D02*
D03*
X539496Y285602D02*
D03*
X691134Y195690D02*
D03*
Y211730D02*
D03*
Y230230D02*
D03*
X531114Y148230D02*
D03*
X539496Y267102D02*
D03*
X531114Y202040D02*
D03*
X691134Y177690D02*
D03*
D64*
X569574Y157480D02*
D03*
X662834D02*
D03*
X681334D02*
D03*
X551074D02*
D03*
D76*
X24406Y626220D02*
D03*
Y712620D02*
D03*
Y502900D02*
D03*
Y589300D02*
D03*
D77*
X64406Y626220D02*
D03*
Y712620D02*
D03*
Y502900D02*
D03*
Y589300D02*
D03*
D78*
X60706Y304360D02*
D03*
D79*
Y376360D02*
D03*
D80*
X149606Y453390D02*
D03*
Y427990D02*
D03*
X785114Y341630D02*
D03*
X865124Y687324D02*
D03*
Y763524D02*
D03*
Y738124D02*
D03*
Y712724D02*
D03*
X785114Y316230D02*
D03*
X294386Y769620D02*
D03*
X319786D02*
D03*
X370586D02*
D03*
X345186D02*
D03*
D81*
X149606Y402590D02*
D03*
X865124Y788924D02*
D03*
X785114Y290830D02*
D03*
D82*
X58336Y195380D02*
D03*
X452966Y547062D02*
D03*
D83*
X58336Y170380D02*
D03*
X606044Y558292D02*
D03*
X452966Y572062D02*
D03*
D84*
X318516Y469900D02*
D03*
D85*
Y444500D02*
D03*
D86*
X805942Y463296D02*
D03*
Y488696D02*
D03*
X831342D02*
D03*
Y463296D02*
D03*
X856742Y488696D02*
D03*
Y463296D02*
D03*
X780542Y488696D02*
D03*
Y463296D02*
D03*
X755142Y488696D02*
D03*
D87*
X423740Y172481D02*
D03*
X368740D02*
D03*
Y142481D02*
D03*
X423740D02*
D03*
X348727Y269426D02*
D03*
X378727D02*
D03*
X348727Y324426D02*
D03*
X378727D02*
D03*
D88*
X50244Y773430D02*
D03*
Y51308D02*
D03*
X926084D02*
D03*
Y773430D02*
D03*
D89*
X581044Y558292D02*
D03*
D90*
X755142Y463296D02*
D03*
D91*
X395986Y769620D02*
D03*
M02*
