M48
;Layer_Color=9474304
;FILE_FORMAT=4:4
METRIC,LZ
;TYPE=PLATED
T01F00S00C0.3000
T02F00S00C0.3048
T04F00S00C1.0000
T05F00S00C1.0200
T06F00S00C1.1000
T07F00S00C3.2000
T08F00S00C4.5500
%
T01
X00664286Y00066152
X00673862Y00057912
T02
X00469392Y0009144
X00544576Y00105918
X00574276Y0011254
X00588881Y00113284
X00602742
X00581152Y001016
X00573024Y0009525
X00573532Y00084836
X00574294Y00071882
X00587103Y0007112
X00599186
X00611378
X0062357
X00643866Y00076684
X00655193Y00074422
X0064897Y00085455
X00634276Y000941
X00632714Y00107696
X00640334Y00112776
X0065278Y00113538
X00672084Y00111252
X00693166Y00115062
X00701802Y00109728
X00708152Y00103378
X00706374Y00094488
X00706628Y00085852
X0070358Y0007493
X00697738Y00069342
X00693674Y00063246
X00682498Y00060452
X0068199Y000508
X00714502Y00097028
X0071882Y0014478
X0070993
X00702564Y00144272
X00692658Y0014732
X00685546Y00154178
X00672846Y00144018
X0064135Y0014351
X0063246
X0059817Y0014732
Y0017526
X005969Y0018415
X00567182Y00191262
X00538988Y00174752
X00541274Y00161036
X0070231Y001905
X0078359Y0019304
Y0017907
X0075819Y0014351
X0074803
X00769874Y00075438
X00826262Y00067056
X0082296Y0004699
X00825754Y00096266
X0084201Y0014478
Y0016764
X0084455Y0018669
X00917194Y00181356
X00938022Y00180594
X00940562Y00131461
X00895604Y00146812
X008763Y00127422
X00901954Y00076962
X00891286Y00193802
X0084455Y0020447
X0083312Y0023749
X0083439Y00254
Y0027051
X0083566Y0029464
X0083312Y0030734
X0082296Y0034036
X0080391Y0036449
X0090043Y00300736
X00932434Y00286766
X00946404Y00264668
X00913384Y00253238
X00913638Y00229362
X0078359Y0022225
X0078232Y0021209
X0078359Y0025908
X0077724Y0026797
X0078105Y0027813
X0078232Y0028702
Y0029591
X0077343Y0037846
X0075565Y00381
X0073533
X0071628Y0037973
X006985
X00670306Y00366776
X00675386Y00359156
X0065659Y0037973
X0063881
X0061341Y0038227
X0057531Y0036322
X00575056Y00347472
X00555498Y0032258
X00545338Y0029337
X00598678Y0028194
X0059817Y00260858
X00597662Y002286
X00544576Y00221234
X005461Y0020955
X0063246Y00255016
X0064516Y0032893
X0065405
X0066675Y0045212
X0066294Y0047371
X00669036Y00501396
X00661416Y00510032
X00616458Y0051054
X005969Y00510794
X0060706Y0055626
X0057912Y0045974
X0055626Y0040386
X0055245Y0037211
X00705104Y00431546
X00745744Y00424942
X00408602Y00232748
X0037846Y00397764
X0034417Y00399542
Y00441452
X00378714Y0043942
X00272542Y00451866
X00237744Y0044704
X00224282Y00441452
X00215392Y0044323
X00214376Y00454152
X00224536Y00461264
X00216408Y00471678
X00219202Y00480568
X0023114Y00477266
X00240538Y00467106
X00199898Y00480822
X00202946Y0048768
X00188976Y0048387
X0018542Y0047498
X00177546Y00468376
X00182626Y00462534
X00176022Y0045466
X00180086Y00447548
X00184658Y00441452
X00177292Y00514858
X00181864Y00545846
X00216408Y00567182
X00232014Y00538846
X00121412Y00546354
X00109982Y00524126
X00071628Y00512064
X00043942Y0052324
X0007175Y0057932
X0009525Y00588264
X00146304Y00504952
X00307086Y0038989
X00236474Y00669544
X0019304Y00697992
X0016256Y00683006
X0012319Y0069088
X00117602Y0065278
X00117348Y00641858
X0013589Y00619506
X00072136Y00631952
X00070612Y00704342
X00606044Y00665226
X00651764Y00662178
X00666242Y00678434
X00653542Y00713486
X00651002Y00784098
X006985Y00796036
X00763016Y00734314
X00762508Y00719836
X00757428Y00704596
X00771652Y0069723
X00785114Y00695706
Y00742696
X00673862Y00624586
X00674624Y00600202
X00632206
X00631952Y00628142
X008001Y0069723
X0080899Y00706374
X00808228Y00719328
X00809244Y00733806
X00860552Y00764032
X0089789Y00798576
T04
X0004843Y0017165
X00448496Y00172481
Y00142481
X00503496
Y00172481
X00458483Y00269426
X00428483
Y00324426
X00458483
X00532722Y00547062
Y00572062
X006608Y00558292
X006858
X0004843Y0019665
T05
X0030861Y0044577
Y0047117
T06
X0086487Y0029083
Y0031623
Y0034163
X00860298Y00463296
X00885698
X00911098
Y00488696
X00885698
X00860298
X00834898
Y00463296
X00936498
Y00488696
X001397Y0045466
Y0042926
Y0040386
X00374142Y0076962
X00399542
X00424942
X00450342
X00475742
X0094488Y00763524
Y00788924
Y00738124
Y00712724
Y00687324
T07
X0004826Y0005334
X0100584
X00038354Y00775462
X0100584Y0076429
T08
X000508Y0030563
Y0037763
M30
