G04*
G04 #@! TF.GenerationSoftware,Altium Limited,Altium Designer,26.4.1 (12)*
G04*
G04 Layer_Physical_Order=1*
G04 Layer_Color=255*
%FSLAX44Y44*%
%MOMM*%
G71*
G04*
G04 #@! TF.SameCoordinates,AD351CFC-23FE-4096-ACC1-941D4D01AE0F*
G04*
G04*
G04 #@! TF.FilePolarity,Positive*
G04*
G01*
G75*
%ADD13C,0.2540*%
%ADD18R,1.1746X0.9000*%
%ADD19R,1.2000X1.2000*%
G04:AMPARAMS|DCode=20|XSize=1.23mm|YSize=0.6mm|CornerRadius=0.075mm|HoleSize=0mm|Usage=FLASHONLY|Rotation=180.000|XOffset=0mm|YOffset=0mm|HoleType=Round|Shape=RoundedRectangle|*
%AMROUNDEDRECTD20*
21,1,1.2300,0.4500,0,0,180.0*
21,1,1.0800,0.6000,0,0,180.0*
1,1,0.1500,-0.5400,0.2250*
1,1,0.1500,0.5400,0.2250*
1,1,0.1500,0.5400,-0.2250*
1,1,0.1500,-0.5400,-0.2250*
%
%ADD20ROUNDEDRECTD20*%
%ADD21R,1.1500X1.3500*%
%ADD22R,4.5500X2.3000*%
%ADD23R,1.3500X1.1500*%
G04:AMPARAMS|DCode=24|XSize=1.49mm|YSize=0.28mm|CornerRadius=0.035mm|HoleSize=0mm|Usage=FLASHONLY|Rotation=0.000|XOffset=0mm|YOffset=0mm|HoleType=Round|Shape=RoundedRectangle|*
%AMROUNDEDRECTD24*
21,1,1.4900,0.2100,0,0,0.0*
21,1,1.4200,0.2800,0,0,0.0*
1,1,0.0700,0.7100,-0.1050*
1,1,0.0700,-0.7100,-0.1050*
1,1,0.0700,-0.7100,0.1050*
1,1,0.0700,0.7100,0.1050*
%
%ADD24ROUNDEDRECTD24*%
%ADD25R,2.3000X4.5500*%
G04:AMPARAMS|DCode=26|XSize=0.81mm|YSize=0.27mm|CornerRadius=0.0338mm|HoleSize=0mm|Usage=FLASHONLY|Rotation=0.000|XOffset=0mm|YOffset=0mm|HoleType=Round|Shape=RoundedRectangle|*
%AMROUNDEDRECTD26*
21,1,0.8100,0.2025,0,0,0.0*
21,1,0.7425,0.2700,0,0,0.0*
1,1,0.0675,0.3713,-0.1013*
1,1,0.0675,-0.3713,-0.1013*
1,1,0.0675,-0.3713,0.1013*
1,1,0.0675,0.3713,0.1013*
%
%ADD26ROUNDEDRECTD26*%
%ADD27R,3.6000X3.6000*%
%ADD28R,1.0000X1.5000*%
%ADD29O,1.8650X0.6300*%
%ADD30R,1.2000X1.2000*%
G04:AMPARAMS|DCode=31|XSize=0.27mm|YSize=0.81mm|CornerRadius=0.0338mm|HoleSize=0mm|Usage=FLASHONLY|Rotation=0.000|XOffset=0mm|YOffset=0mm|HoleType=Round|Shape=RoundedRectangle|*
%AMROUNDEDRECTD31*
21,1,0.2700,0.7425,0,0,0.0*
21,1,0.2025,0.8100,0,0,0.0*
1,1,0.0675,0.1013,-0.3713*
1,1,0.0675,-0.1013,-0.3713*
1,1,0.0675,-0.1013,0.3713*
1,1,0.0675,0.1013,0.3713*
%
%ADD31ROUNDEDRECTD31*%
%ADD32C,0.6000*%
%ADD33R,2.1500X0.9500*%
%ADD34R,2.1500X3.2500*%
G04:AMPARAMS|DCode=35|XSize=1.49mm|YSize=0.28mm|CornerRadius=0.035mm|HoleSize=0mm|Usage=FLASHONLY|Rotation=90.000|XOffset=0mm|YOffset=0mm|HoleType=Round|Shape=RoundedRectangle|*
%AMROUNDEDRECTD35*
21,1,1.4900,0.2100,0,0,90.0*
21,1,1.4200,0.2800,0,0,90.0*
1,1,0.0700,0.1050,0.7100*
1,1,0.0700,0.1050,-0.7100*
1,1,0.0700,-0.1050,-0.7100*
1,1,0.0700,-0.1050,0.7100*
%
%ADD35ROUNDEDRECTD35*%
%ADD36R,0.9000X1.1746*%
%ADD37R,0.9000X1.1746*%
%ADD38R,1.3000X0.7000*%
%ADD39R,1.5000X1.6000*%
%ADD40R,0.8128X0.8128*%
%ADD71C,0.2794*%
%ADD72C,0.5080*%
%ADD73C,0.3023*%
%ADD74C,0.7620*%
%ADD75C,1.5240*%
%ADD76C,1.0160*%
%ADD77C,0.2032*%
%ADD78R,0.8000X0.8000*%
%ADD79C,1.6000*%
%ADD80C,3.5000*%
%ADD81C,2.0000*%
%ADD82C,1.5080*%
G04:AMPARAMS|DCode=83|XSize=1.6mm|YSize=1.6mm|CornerRadius=0.4mm|HoleSize=0mm|Usage=FLASHONLY|Rotation=180.000|XOffset=0mm|YOffset=0mm|HoleType=Round|Shape=RoundedRectangle|*
%AMROUNDEDRECTD83*
21,1,1.6000,0.8000,0,0,180.0*
21,1,0.8000,1.6000,0,0,180.0*
1,1,0.8000,-0.4000,0.4000*
1,1,0.8000,0.4000,0.4000*
1,1,0.8000,0.4000,-0.4000*
1,1,0.8000,-0.4000,-0.4000*
%
%ADD83ROUNDEDRECTD83*%
%ADD84R,1.5080X1.5080*%
%ADD85R,1.5750X1.5750*%
%ADD86C,1.5750*%
G36*
X218309Y270590D02*
X218494Y269661D01*
X218842Y269140D01*
X218494Y268619D01*
X218309Y267690D01*
Y265590D01*
X218494Y264661D01*
X218842Y264140D01*
X218494Y263619D01*
X218309Y262690D01*
Y260590D01*
X218494Y259661D01*
X219021Y258873D01*
X219809Y258346D01*
X220738Y258161D01*
X234938D01*
X235867Y258346D01*
X236655Y258873D01*
X237182Y259661D01*
X237367Y260590D01*
Y262690D01*
X237182Y263619D01*
X236834Y264140D01*
X237182Y264661D01*
X237367Y265590D01*
Y267690D01*
X237342Y267812D01*
X239215Y268813D01*
X245412Y262616D01*
Y260873D01*
X246178Y259024D01*
X246888Y258314D01*
Y251070D01*
X244566Y248748D01*
X243808Y247614D01*
X243542Y246276D01*
Y235510D01*
X242388Y234739D01*
X240832Y234095D01*
X239180Y233766D01*
X238918D01*
X238788Y233833D01*
X237367Y235590D01*
Y237690D01*
X237182Y238619D01*
X236834Y239140D01*
X237182Y239661D01*
X237367Y240590D01*
Y242690D01*
X237182Y243619D01*
X236655Y244407D01*
X235867Y244934D01*
X234938Y245119D01*
X227672D01*
X227584Y245136D01*
X217494D01*
X216156Y244870D01*
X215302Y244300D01*
X213375D01*
X211526Y243534D01*
X210110Y242118D01*
X209344Y240269D01*
Y238267D01*
X210110Y236418D01*
X210730Y235798D01*
X209888Y233766D01*
X189120D01*
X188458Y233734D01*
X187161Y233475D01*
X185939Y232969D01*
X184839Y232234D01*
X183904Y231299D01*
X183169Y230199D01*
X183038Y229883D01*
X181006Y230288D01*
Y233544D01*
X164942D01*
Y217480D01*
X166625D01*
X167754Y215791D01*
X167688Y215631D01*
Y213629D01*
X168454Y211780D01*
X169870Y210364D01*
X171719Y209598D01*
X173721D01*
X175570Y210364D01*
X176986Y211780D01*
X177752Y213629D01*
Y215631D01*
X177686Y215791D01*
X178815Y217480D01*
X181006Y217480D01*
X182372Y216014D01*
Y197758D01*
X167942D01*
X167846Y197758D01*
X165910D01*
X165814Y197758D01*
X164205D01*
X163274Y199151D01*
Y201153D01*
X162508Y203002D01*
X161092Y204418D01*
X159243Y205184D01*
X157241D01*
X155392Y204418D01*
X153976Y203002D01*
X153210Y201153D01*
Y199151D01*
X152279Y197758D01*
X150346D01*
Y180194D01*
X165814D01*
X165910Y180194D01*
X167846D01*
X167942Y180194D01*
X172104D01*
Y176942D01*
X167568D01*
Y160878D01*
X182372D01*
Y85629D01*
X170928D01*
Y69819D01*
X173964D01*
Y53466D01*
X171653D01*
X169102Y52782D01*
X166814Y51462D01*
X164946Y49594D01*
X163626Y47306D01*
X162942Y44755D01*
Y42113D01*
X163626Y39562D01*
X164946Y37274D01*
X166814Y35406D01*
X169102Y34086D01*
X171653Y33402D01*
X174295D01*
X176846Y34086D01*
X179134Y35406D01*
X180340Y36613D01*
X182372Y35771D01*
Y21343D01*
X181405Y19009D01*
X179619Y17223D01*
X177285Y16256D01*
X115417D01*
X113622Y16613D01*
X111931Y17313D01*
X110410Y18330D01*
X109116Y19624D01*
X108099Y21146D01*
X107399Y22836D01*
X107042Y24631D01*
Y45352D01*
X106997Y53339D01*
X108924Y54421D01*
X111272Y53448D01*
X113792Y53117D01*
X116312Y53448D01*
X118660Y54421D01*
X119506Y55070D01*
X122574D01*
Y58832D01*
X123196Y60332D01*
X123527Y62852D01*
Y93980D01*
X123196Y96500D01*
X122223Y98848D01*
X120676Y100864D01*
X106650Y114890D01*
X106632Y118159D01*
X108065Y119600D01*
X150748D01*
X150948Y119640D01*
X152780D01*
Y121472D01*
X152820Y121672D01*
Y154172D01*
X152780Y154372D01*
Y156204D01*
X150948D01*
X150748Y156244D01*
X106417D01*
X106333Y171229D01*
X114226Y179122D01*
X115773Y181138D01*
X116746Y183486D01*
X117077Y186006D01*
Y222180D01*
X132124D01*
Y249244D01*
X117077D01*
Y261720D01*
X116746Y264240D01*
X115773Y266588D01*
X115871Y267185D01*
X119287Y269466D01*
X123909Y271381D01*
X128816Y272357D01*
X164942D01*
Y271708D01*
X181006D01*
Y272357D01*
X190088D01*
Y271708D01*
X206152D01*
Y272357D01*
X218309D01*
Y270590D01*
D02*
G37*
G36*
X150748Y121672D02*
X99868D01*
X99734Y121806D01*
X97718Y123353D01*
X97282Y123533D01*
Y154172D01*
X150748D01*
Y121672D01*
D02*
G37*
G36*
X65225Y472841D02*
X66936Y472132D01*
X68475Y471104D01*
X69784Y469795D01*
X70812Y468256D01*
X71521Y466545D01*
X71882Y464730D01*
Y438404D01*
X72009Y437116D01*
X72995Y434735D01*
X74817Y432913D01*
X77198Y431927D01*
X78486Y431800D01*
X116959D01*
X121180Y430961D01*
X125155Y429314D01*
X128733Y426923D01*
X131775Y423881D01*
X134166Y420303D01*
X135813Y416328D01*
X136652Y412107D01*
Y409956D01*
Y388366D01*
Y385889D01*
X135686Y381031D01*
X133790Y376455D01*
X131038Y372336D01*
X127536Y368834D01*
X123417Y366082D01*
X118841Y364186D01*
X113983Y363220D01*
X77311D01*
Y364196D01*
X76560Y367969D01*
X75088Y371524D01*
X72950Y374723D01*
X70230Y377444D01*
X67031Y379581D01*
X63476Y381053D01*
X59702Y381804D01*
X55855D01*
X52081Y381053D01*
X48527Y379581D01*
X45328Y377444D01*
X42607Y374723D01*
X40470Y371524D01*
X38997Y367969D01*
X38247Y364196D01*
Y363220D01*
X10937D01*
X8974Y363610D01*
X7125Y364376D01*
X5461Y365488D01*
X4046Y366903D01*
X2934Y368567D01*
X2168Y370416D01*
X2103Y370748D01*
Y442229D01*
X4135Y442633D01*
X4939Y440692D01*
X5052Y440522D01*
X5130Y440334D01*
X6881Y437713D01*
X7025Y437569D01*
X7139Y437399D01*
X9367Y435171D01*
X9537Y435057D01*
X9681Y434913D01*
X12302Y433162D01*
X12490Y433084D01*
X12660Y432970D01*
X15572Y431764D01*
X15772Y431725D01*
X15961Y431646D01*
X19052Y431031D01*
X19256D01*
X19456Y430992D01*
X22608D01*
X22808Y431031D01*
X23012D01*
X26103Y431646D01*
X26291Y431725D01*
X26492Y431764D01*
X29403Y432970D01*
X29573Y433084D01*
X29762Y433162D01*
X32382Y434913D01*
X32526Y435057D01*
X32696Y435171D01*
X34925Y437399D01*
X35038Y437569D01*
X35182Y437713D01*
X36933Y440334D01*
X37011Y440522D01*
X37125Y440692D01*
X38331Y443604D01*
X38371Y443804D01*
X38449Y443992D01*
X39064Y447084D01*
Y447287D01*
X39104Y447488D01*
Y450639D01*
X39064Y450840D01*
Y451044D01*
X38449Y454135D01*
X38371Y454323D01*
X38331Y454523D01*
X37125Y457435D01*
X37011Y457605D01*
X36933Y457793D01*
X35182Y460414D01*
X35038Y460558D01*
X34925Y460728D01*
X32696Y462957D01*
X32526Y463070D01*
X32382Y463214D01*
X29762Y464965D01*
X29573Y465043D01*
X29403Y465157D01*
X26492Y466363D01*
X26291Y466403D01*
X26103Y466481D01*
X23012Y467095D01*
X22808D01*
X22608Y467135D01*
X19456D01*
X19256Y467095D01*
X19052D01*
X15961Y466481D01*
X15772Y466403D01*
X15572Y466363D01*
X12660Y465157D01*
X12490Y465043D01*
X12302Y464965D01*
X10764Y463937D01*
X8690Y464996D01*
X8682Y465227D01*
X10986Y467531D01*
X15147Y470311D01*
X19769Y472226D01*
X23784Y473024D01*
X30064D01*
X30088Y473029D01*
X30113Y473025D01*
X33058Y473097D01*
X33132Y473114D01*
X33207Y473106D01*
X34177Y473202D01*
X63410D01*
X65225Y472841D01*
D02*
G37*
G36*
X176499Y485150D02*
X178856Y484174D01*
X180978Y482756D01*
X182782Y480952D01*
X184200Y478830D01*
X185176Y476473D01*
X185674Y473970D01*
Y472694D01*
Y436880D01*
X185707Y436208D01*
X185969Y434889D01*
X186484Y433647D01*
X187231Y432529D01*
X188181Y431579D01*
X189299Y430832D01*
X190541Y430317D01*
X191860Y430055D01*
X192532Y430022D01*
X256628D01*
X268571Y418079D01*
Y411722D01*
X268639Y411381D01*
Y408499D01*
X268477Y408432D01*
X262142D01*
X262099Y408496D01*
Y410498D01*
X261333Y412347D01*
X259917Y413763D01*
X258068Y414529D01*
X256066D01*
X254217Y413763D01*
X252801Y412347D01*
X252188Y410867D01*
X250854Y410598D01*
X250072Y410665D01*
X249762Y411414D01*
X248346Y412830D01*
X246497Y413596D01*
X244495D01*
X242645Y412830D01*
X241230Y411414D01*
X240464Y409565D01*
Y409344D01*
X239777Y408657D01*
X237267D01*
X236929Y408590D01*
X224632D01*
Y408432D01*
X147843D01*
X145880Y408822D01*
X144031Y409588D01*
X142367Y410700D01*
X140952Y412115D01*
X139840Y413779D01*
X139074Y415628D01*
X138684Y417591D01*
Y418592D01*
X138608Y420136D01*
X138006Y423163D01*
X136825Y426016D01*
X135109Y428582D01*
X132926Y430765D01*
X130359Y432481D01*
X127507Y433662D01*
X124480Y434264D01*
X122936Y434340D01*
X80169D01*
X78115Y435191D01*
X76543Y436763D01*
X75692Y438816D01*
Y446786D01*
X75438Y477520D01*
Y478321D01*
X75750Y479891D01*
X76363Y481370D01*
X77253Y482701D01*
X78385Y483833D01*
X79716Y484723D01*
X81195Y485336D01*
X82765Y485648D01*
X173996D01*
X176499Y485150D01*
D02*
G37*
%LPC*%
G36*
X155860Y233544D02*
X139796D01*
Y217480D01*
X141214D01*
X142571Y215448D01*
X142542Y215377D01*
Y213375D01*
X143308Y211526D01*
X144724Y210110D01*
X146573Y209344D01*
X148575D01*
X150424Y210110D01*
X151840Y211526D01*
X152606Y213375D01*
Y215377D01*
X152577Y215448D01*
X153934Y217480D01*
X155860D01*
Y233544D01*
D02*
G37*
G36*
X162124Y176942D02*
X155108D01*
Y169926D01*
X162124D01*
Y176942D01*
D02*
G37*
G36*
X153076D02*
X146060D01*
Y169926D01*
X153076D01*
Y176942D01*
D02*
G37*
G36*
X162124Y167894D02*
X155108D01*
Y160878D01*
X162124D01*
Y167894D01*
D02*
G37*
G36*
X153076D02*
X146060D01*
Y160878D01*
X153076D01*
Y167894D01*
D02*
G37*
G36*
X167879Y140414D02*
X165877D01*
X164028Y139648D01*
X162612Y138232D01*
X161846Y136383D01*
Y134381D01*
X161177Y133380D01*
X158592D01*
Y118904D01*
X158592Y117316D01*
X158592Y115284D01*
Y109856D01*
X174656D01*
Y115284D01*
X174656Y116872D01*
X174656Y118904D01*
Y133380D01*
X172579D01*
X171910Y134381D01*
Y136383D01*
X171144Y138232D01*
X169728Y139648D01*
X167879Y140414D01*
D02*
G37*
G36*
X174656Y107824D02*
X167640D01*
Y100808D01*
X174656D01*
Y107824D01*
D02*
G37*
G36*
X165608D02*
X158592D01*
Y100808D01*
X165608D01*
Y107824D01*
D02*
G37*
G36*
X148895Y53466D02*
X146253D01*
X143702Y52782D01*
X141414Y51462D01*
X139546Y49594D01*
X138226Y47306D01*
X137542Y44755D01*
Y42113D01*
X138226Y39562D01*
X139546Y37274D01*
X141414Y35406D01*
X143702Y34086D01*
X146253Y33402D01*
X148895D01*
X151446Y34086D01*
X153734Y35406D01*
X155602Y37274D01*
X156922Y39562D01*
X157606Y42113D01*
Y44755D01*
X156922Y47306D01*
X155602Y49594D01*
X153734Y51462D01*
X151446Y52782D01*
X148895Y53466D01*
D02*
G37*
%LPD*%
D13*
X351790Y348672D02*
Y394128D01*
X342994Y402924D02*
X351790Y394128D01*
Y348672D02*
X357944Y342518D01*
X332809Y402924D02*
X342994D01*
X328475Y398590D02*
X332809Y402924D01*
D18*
X387256Y374818D02*
D03*
Y395310D02*
D03*
X363634Y395650D02*
D03*
Y375158D02*
D03*
D19*
X434674Y393814D02*
D03*
Y376314D02*
D03*
X411560Y393814D02*
D03*
Y376314D02*
D03*
X147828Y225512D02*
D03*
X166624Y125348D02*
D03*
X198120Y172554D02*
D03*
X172974Y225512D02*
D03*
X198120Y225512D02*
D03*
X172974Y279740D02*
D03*
X198120Y279740D02*
D03*
X210820Y400304D02*
D03*
X232664Y400558D02*
D03*
X339852Y385444D02*
D03*
Y368936D02*
D03*
X198120Y263232D02*
D03*
X172974Y263232D02*
D03*
X198120Y242020D02*
D03*
X172974Y242020D02*
D03*
X166624Y108840D02*
D03*
X147828Y242020D02*
D03*
X198120Y189062D02*
D03*
X232664Y328296D02*
D03*
Y344804D02*
D03*
X210820Y416812D02*
D03*
X232664Y417066D02*
D03*
X233506Y130152D02*
D03*
Y108644D02*
D03*
D20*
X465768Y365608D02*
D03*
Y346608D02*
D03*
X444568Y356108D02*
D03*
D21*
X158128Y188976D02*
D03*
X175628D02*
D03*
X39738Y295656D02*
D03*
X82550Y446532D02*
D03*
X22238Y295656D02*
D03*
X65050Y446532D02*
D03*
D22*
X31342Y235712D02*
D03*
X107342D02*
D03*
D23*
X211662Y124828D02*
D03*
X113792Y45352D02*
D03*
Y62852D02*
D03*
X430530Y264274D02*
D03*
Y246774D02*
D03*
X211662Y107328D02*
D03*
D24*
X227838Y241640D02*
D03*
Y251640D02*
D03*
Y246640D02*
D03*
Y271640D02*
D03*
Y266640D02*
D03*
Y261640D02*
D03*
Y256640D02*
D03*
Y236640D02*
D03*
Y231640D02*
D03*
Y226640D02*
D03*
Y221640D02*
D03*
Y216640D02*
D03*
X311238D02*
D03*
Y221640D02*
D03*
Y226640D02*
D03*
Y231640D02*
D03*
Y236640D02*
D03*
Y241640D02*
D03*
Y246640D02*
D03*
Y251640D02*
D03*
Y256640D02*
D03*
Y261640D02*
D03*
Y266640D02*
D03*
Y271640D02*
D03*
D25*
X159766Y534316D02*
D03*
Y458316D02*
D03*
D26*
X257567Y392222D02*
D03*
X306567Y387222D02*
D03*
Y372222D02*
D03*
Y402222D02*
D03*
Y397222D02*
D03*
Y392222D02*
D03*
Y382222D02*
D03*
Y377222D02*
D03*
X257567Y372222D02*
D03*
Y377222D02*
D03*
Y382222D02*
D03*
Y387222D02*
D03*
Y397222D02*
D03*
Y402222D02*
D03*
D27*
X282067Y387222D02*
D03*
D28*
X221490Y441071D02*
D03*
X342644D02*
D03*
X253490D02*
D03*
X310644D02*
D03*
D29*
X344605Y262351D02*
D03*
X398255Y275051D02*
D03*
Y236952D02*
D03*
X344605Y249652D02*
D03*
Y275051D02*
D03*
Y236952D02*
D03*
X398255Y249652D02*
D03*
Y262351D02*
D03*
D30*
X387316Y330614D02*
D03*
X154092Y168910D02*
D03*
X175600D02*
D03*
X387316Y350614D02*
D03*
D31*
X292067Y362722D02*
D03*
X297067D02*
D03*
X267067Y411722D02*
D03*
X277067D02*
D03*
X282067D02*
D03*
X287067D02*
D03*
X292067D02*
D03*
X297067D02*
D03*
X287067Y362722D02*
D03*
X282067D02*
D03*
X277067D02*
D03*
X272067D02*
D03*
X267067D02*
D03*
X272067Y411722D02*
D03*
D32*
X383286Y504698D02*
D03*
X403606D02*
D03*
X393446D02*
D03*
X375412Y329692D02*
D03*
X363982Y363220D02*
D03*
X443484Y344678D02*
D03*
X282448Y397510D02*
D03*
X272288Y397764D02*
D03*
X292862Y387350D02*
D03*
X282067Y387222D02*
D03*
X272288Y386334D02*
D03*
X282448Y376428D02*
D03*
X272796Y376174D02*
D03*
X292608Y376682D02*
D03*
X292862Y397764D02*
D03*
X112014Y139192D02*
D03*
X118872Y130302D02*
D03*
Y147828D02*
D03*
X104902Y130048D02*
D03*
Y148082D02*
D03*
X250444Y261874D02*
D03*
X236728Y302260D02*
D03*
X257302Y342646D02*
D03*
X60960Y137922D02*
D03*
X211836Y139954D02*
D03*
X34798Y260096D02*
D03*
X340106Y396494D02*
D03*
X245496Y408564D02*
D03*
X166878Y135382D02*
D03*
X147574Y214376D02*
D03*
X158242Y200152D02*
D03*
X198374Y161036D02*
D03*
X172720Y214630D02*
D03*
X198374Y214376D02*
D03*
X214376Y239268D02*
D03*
X172720Y290830D02*
D03*
X198120Y291084D02*
D03*
X210312Y440436D02*
D03*
X177038Y534924D02*
D03*
X264668Y328422D02*
D03*
X212223Y390023D02*
D03*
X372364Y262128D02*
D03*
X411226Y280924D02*
D03*
X288496Y353640D02*
D03*
X353314Y453390D02*
D03*
X383540Y493014D02*
D03*
X262636Y261874D02*
D03*
X264313Y272643D02*
D03*
X210058Y316484D02*
D03*
X327758Y413774D02*
D03*
X363728Y249428D02*
D03*
X304342Y362222D02*
D03*
X241300Y253492D02*
D03*
X265609Y352552D02*
D03*
X318643Y334216D02*
D03*
X209550Y345186D02*
D03*
X267716Y216916D02*
D03*
X315468Y363115D02*
D03*
X314974Y383604D02*
D03*
X328475Y398590D02*
D03*
X326136Y390906D02*
D03*
X325522Y375703D02*
D03*
X195580Y437642D02*
D03*
X294386Y346964D02*
D03*
X267868Y159766D02*
D03*
X297434D02*
D03*
X282473D02*
D03*
X300990Y418084D02*
D03*
X307067Y409497D02*
D03*
X323596Y359410D02*
D03*
X263297Y418284D02*
D03*
X257067Y409497D02*
D03*
X240284Y221488D02*
D03*
X282194Y216916D02*
D03*
X296672D02*
D03*
D33*
X81998Y137922D02*
D03*
Y160922D02*
D03*
Y114922D02*
D03*
D34*
X139998Y137922D02*
D03*
D35*
X257038Y285840D02*
D03*
X247038Y202440D02*
D03*
X242038D02*
D03*
X252038D02*
D03*
X257038D02*
D03*
X262038D02*
D03*
X267038D02*
D03*
X272038D02*
D03*
X277038D02*
D03*
X282038D02*
D03*
X287038D02*
D03*
X292038D02*
D03*
X297038D02*
D03*
Y285840D02*
D03*
X292038D02*
D03*
X287038D02*
D03*
X282038D02*
D03*
X277038D02*
D03*
X272038D02*
D03*
X267038D02*
D03*
X262038D02*
D03*
X252038D02*
D03*
X247038D02*
D03*
X242038D02*
D03*
D36*
X246974Y180848D02*
D03*
D37*
X226482D02*
D03*
X197952Y77724D02*
D03*
X177460D02*
D03*
D38*
X232664Y363498D02*
D03*
Y382498D02*
D03*
D39*
X354816Y340614D02*
D03*
D40*
X393446Y504698D02*
D03*
D71*
X198374Y225004D02*
G03*
X197866Y225512I-508J0D01*
G01*
X198120Y291084D02*
G03*
X197866Y290830I0J-254D01*
G01*
X232190Y107328D02*
G03*
X233506Y108644I0J1316D01*
G01*
X364542Y327914D02*
X375158Y338530D01*
X324945Y327914D02*
X364542D01*
X375412Y329692D02*
X387618D01*
X390444Y332518D01*
X375158Y338530D02*
Y383212D01*
X363474Y375158D02*
X363982Y374650D01*
Y363220D02*
Y374650D01*
X443484Y344678D02*
Y345546D01*
X444568Y346629D01*
Y356108D01*
X434674Y421212D02*
X460502Y447040D01*
X434674Y393814D02*
Y421212D01*
X411560Y423498D02*
X435102Y447040D01*
X411560Y393814D02*
Y423498D01*
X310987Y261643D02*
X325022D01*
X338430Y275051D01*
X344351D01*
X391676Y316900D02*
X411560Y336785D01*
Y376314D01*
X375158Y383212D02*
X387256Y395310D01*
X363634Y395650D02*
Y400356D01*
X362548Y316900D02*
X391676D01*
X317288Y271640D02*
X362548Y316900D01*
X311238Y271640D02*
X317288D01*
X310987Y256637D02*
X326801D01*
X310984Y256640D02*
X310987Y256637D01*
X326801D02*
X330708Y252730D01*
X267868Y119278D02*
Y159766D01*
X226314Y77724D02*
X267868Y119278D01*
X267716Y236612D02*
X302573Y271469D01*
X267716Y216916D02*
Y236612D01*
X302573Y271469D02*
X304398D01*
X304566Y271637D01*
X282194Y235771D02*
X298060Y251637D01*
X310981D01*
X282194Y216916D02*
Y235771D01*
X304566Y271637D02*
X311235D01*
X197952Y77724D02*
X226314D01*
X233506Y130152D02*
X257038Y153684D01*
Y202440D01*
X300067Y387222D02*
X306567D01*
X264035Y392222D02*
X264067Y392190D01*
X257567Y392222D02*
X264035D01*
X221888Y291084D02*
X250444Y262528D01*
Y261874D02*
Y262528D01*
X198120Y291084D02*
X221888D01*
X247038Y246276D02*
X262636Y261874D01*
X252041Y277343D02*
X256741Y272643D01*
X264313D01*
X247038Y196390D02*
Y246276D01*
X236728Y302260D02*
X236752Y302284D01*
X249088D01*
X257302Y342646D02*
X257635Y342313D01*
Y335455D02*
Y342313D01*
Y335455D02*
X264668Y328422D01*
X232918Y345184D02*
X250088Y362354D01*
Y374795D01*
X252468Y377175D01*
X60960Y137922D02*
X81998D01*
X330863Y407623D02*
X348788D01*
X352619Y403793D02*
X360197D01*
X348788Y407623D02*
X352619Y403793D01*
X360197D02*
X363634Y400356D01*
X330226Y406987D02*
X330863Y407623D01*
X326045Y406987D02*
X330226D01*
X340106Y385698D02*
Y396494D01*
X339852Y385444D02*
X340106Y385698D01*
X244628Y408564D02*
X245496D01*
X241225Y405161D02*
X244628Y408564D01*
X237267Y405161D02*
X241225D01*
X166624Y125348D02*
X166878Y125602D01*
Y135382D01*
X158128Y188976D02*
X158242Y189090D01*
X147574Y214376D02*
Y225512D01*
X158242Y189090D02*
Y200152D01*
X198374Y161036D02*
Y172985D01*
X198374Y172985D02*
X198374Y172985D01*
X172720Y214630D02*
Y225512D01*
X198374Y214376D02*
Y225004D01*
X214376Y239268D02*
X215122D01*
X217494Y241640D01*
X227584D01*
X172720Y279740D02*
X172720Y279740D01*
Y290830D01*
X197866Y279740D02*
Y290830D01*
X210820Y400304D02*
X212223Y398901D01*
Y390023D02*
Y398901D01*
X210312Y440436D02*
X220855D01*
X221490Y441071D01*
X232664Y400558D02*
X237267Y405161D01*
X344463Y262240D02*
X371744D01*
X371856Y262128D01*
X344351Y262351D02*
X344463Y262240D01*
X404765Y275051D02*
X410637Y280924D01*
X398001Y275051D02*
X404765D01*
X410637Y280924D02*
X411226D01*
X288496Y353640D02*
Y354099D01*
X292020Y357623D01*
Y362675D01*
X292067Y362722D01*
X342644Y441071D02*
Y443571D01*
X352463Y453390D01*
X353314D01*
X383413Y493141D02*
X383540Y493014D01*
X383413Y493141D02*
Y504571D01*
X383286Y504698D02*
X383413Y504571D01*
X343747Y174921D02*
X371602Y147066D01*
X397002Y121158D02*
Y147066D01*
X291063Y174921D02*
X343747D01*
X371602Y121158D02*
Y147066D01*
X362627Y181441D02*
X397002Y147066D01*
X292718Y181441D02*
X362627D01*
X249088Y302284D02*
X257035Y294337D01*
X277038Y285840D02*
Y362497D01*
X272038Y285840D02*
Y362496D01*
X272067Y362722D01*
X267035Y285843D02*
X267038Y285840D01*
X215900Y310642D02*
X250730D01*
X267035Y294337D01*
Y285843D02*
Y294337D01*
X287038Y285840D02*
Y330524D01*
X282067Y292538D02*
Y362722D01*
X287038Y330524D02*
X315257Y358744D01*
Y362904D02*
X315468Y363115D01*
X315257Y358744D02*
Y362904D01*
X252041Y277343D02*
Y285837D01*
X252038Y285840D02*
X252041Y285837D01*
X210058Y316484D02*
X215900Y310642D01*
X257035Y285843D02*
Y294337D01*
Y285843D02*
X257038Y285840D01*
X306567Y372222D02*
X319805D01*
X305002D02*
X306567D01*
X319805D02*
X321774Y370253D01*
X339514Y369274D02*
X339852Y368936D01*
X322859Y369274D02*
X339514D01*
X321774Y370253D02*
X321880D01*
X322859Y369274D01*
X304955Y372175D02*
X305002Y372222D01*
X304955Y362835D02*
Y372175D01*
X304342Y362222D02*
X304955Y362835D01*
X267020Y354830D02*
Y362675D01*
X265609Y352552D02*
Y353419D01*
X267020Y362675D02*
X267067Y362722D01*
X265609Y353419D02*
X267020Y354830D01*
X277038Y362497D02*
X277067Y362722D01*
X318643Y334216D02*
X324945Y327914D01*
X227838Y221640D02*
X233634D01*
X227584D02*
X227838D01*
X209550Y345186D02*
Y377952D01*
X321677Y377175D02*
X322535Y376317D01*
X306614Y377175D02*
X321677D01*
X322535Y376317D02*
X324909D01*
X325522Y375703D01*
X323952Y392222D02*
X325269Y390906D01*
X326136D01*
X306567Y392222D02*
X323952D01*
X211662Y107328D02*
X232190D01*
X175600Y188976D02*
X175628D01*
X175600Y168910D02*
Y188976D01*
X422402Y121158D02*
Y147066D01*
X346202Y121158D02*
Y147066D01*
X282473Y96291D02*
Y159766D01*
X251206Y65024D02*
X282473Y96291D01*
X251206Y43434D02*
Y65024D01*
X242038Y196390D02*
Y202440D01*
X242035Y196387D02*
X242038Y196390D01*
X240648Y196387D02*
X242035D01*
X226482Y182221D02*
X240648Y196387D01*
X226482Y180848D02*
Y182221D01*
X246974Y196326D02*
X247038Y196390D01*
X246974Y180848D02*
Y196326D01*
X323596Y354076D02*
Y359410D01*
X297038Y285840D02*
Y327518D01*
X323596Y354076D01*
X294386Y346964D02*
Y347831D01*
X297067Y350513D01*
Y362722D01*
X267038Y202440D02*
X267041Y202437D01*
Y192118D02*
Y202437D01*
Y192118D02*
X290757Y168402D01*
X324866D01*
X272041Y193943D02*
X291063Y174921D01*
X272041Y193943D02*
Y202437D01*
X272038Y202440D02*
X272041Y202437D01*
X282041Y192118D02*
X292718Y181441D01*
X282041Y192118D02*
Y202437D01*
X282038Y202440D02*
X282041Y202437D01*
X293024Y187960D02*
X381508D01*
X287041Y193943D02*
X293024Y187960D01*
X287038Y202440D02*
X287041Y202437D01*
Y193943D02*
Y202437D01*
X282041Y292512D02*
X282067Y292538D01*
X282041Y285869D02*
Y292512D01*
X198374Y189062D02*
X210778Y201466D01*
X276606Y43434D02*
X297434Y64262D01*
Y159766D01*
X316280Y397222D02*
X326045Y406987D01*
X248124Y397222D02*
X257567D01*
X252468Y377175D02*
X257520D01*
X250643Y382175D02*
X257520D01*
X257567Y382222D01*
X248726Y387222D02*
X257567D01*
X257520Y377175D02*
X257567Y377222D01*
X306567D02*
X306614Y377175D01*
X306567Y397222D02*
X316280D01*
X310644Y438571D02*
Y441071D01*
X300823Y418084D02*
X300990D01*
X297067Y414328D02*
X300823Y418084D01*
X297067Y411722D02*
Y414328D01*
X209550Y377952D02*
X221996Y390398D01*
X235664Y363498D02*
X237767Y365601D01*
X232664Y363498D02*
X235664D01*
X292067Y411722D02*
X292114Y411769D01*
X286819Y425249D02*
X287067Y425000D01*
Y411722D02*
Y425000D01*
X292114Y411769D02*
Y420041D01*
X310644Y438571D01*
X221996Y390398D02*
X241300D01*
X248124Y397222D01*
X237767Y365601D02*
Y369299D01*
X250643Y382175D01*
X244002Y382498D02*
X248726Y387222D01*
X232664Y382498D02*
X244002D01*
X257093Y434501D02*
Y437468D01*
X253490Y441071D02*
X257093Y437468D01*
Y434501D02*
X272067Y419527D01*
X267067Y411722D02*
Y414514D01*
X272067Y411722D02*
Y419527D01*
X277067Y411722D02*
Y424989D01*
X177460Y50968D02*
Y77724D01*
X324866Y168402D02*
X346202Y147066D01*
X381508Y187960D02*
X422402Y147066D01*
X233634Y221640D02*
X233786Y221488D01*
X240284D01*
X210778Y201466D02*
Y218328D01*
X219087Y226637D01*
X227581D01*
X227584Y226640D01*
X310981Y251637D02*
X310984Y251640D01*
X310981Y236637D02*
X310984Y236640D01*
X302487Y236637D02*
X310981D01*
X296672Y230822D02*
X302487Y236637D01*
X296672Y216916D02*
Y230822D01*
X330708Y245618D02*
X336423Y239903D01*
Y239653D02*
X339125Y236952D01*
X336423Y239653D02*
Y239903D01*
X339125Y236952D02*
X344351D01*
X330708Y245618D02*
Y252730D01*
X172974Y46482D02*
X177460Y50968D01*
D72*
X387316Y350614D02*
Y374758D01*
X349512Y413774D02*
X404622Y468884D01*
X327758Y413774D02*
X349512D01*
X307243Y404849D02*
X308305Y403787D01*
X307243Y404849D02*
Y409321D01*
X307067Y409497D02*
X307243Y409321D01*
X257243Y403896D02*
X257567Y403572D01*
X257243Y403896D02*
Y409321D01*
X257067Y409497D02*
X257243Y409321D01*
X403606Y504449D02*
X404622Y503433D01*
X403606Y504449D02*
Y504698D01*
X404622Y468884D02*
Y503433D01*
X483095Y449847D02*
X485902Y447040D01*
X483095Y449847D02*
Y458991D01*
X404622Y468884D02*
X473202D01*
X483095Y458991D01*
X400707Y236952D02*
X401271Y236388D01*
X398255Y236952D02*
X400707D01*
X376204D02*
X398255D01*
X363728Y249428D02*
X376204Y236952D01*
X397002Y44958D02*
X422402D01*
X346202D02*
X371602D01*
X397002D01*
X344463Y249540D02*
X363616D01*
X344351Y249652D02*
X344463Y249540D01*
X324104Y22860D02*
X346202Y44958D01*
X198374Y43434D02*
X218948Y22860D01*
X324104D01*
X195580Y437642D02*
Y473456D01*
X239776Y517652D01*
X393270Y504874D02*
X393446Y504698D01*
X393270Y504874D02*
Y509180D01*
X384798Y517652D02*
X393270Y509180D01*
X239776Y517652D02*
X384798D01*
D73*
X434674Y330788D02*
Y376314D01*
X399542Y295656D02*
X434674Y330788D01*
X349569Y295656D02*
X399542D01*
X320553Y266640D02*
X349569Y295656D01*
X311238Y266640D02*
X320553D01*
X425291Y251013D02*
X429530Y246774D01*
X404253Y249652D02*
X407839Y253238D01*
X423521D01*
X429530Y246774D02*
X430530D01*
X398255Y249652D02*
X404253D01*
X423521Y253238D02*
X425291Y251467D01*
Y251013D02*
Y251467D01*
X398255Y262351D02*
X404060D01*
X407839Y258572D01*
X423828D01*
X429530Y264274D01*
X430530D01*
X436724Y251968D02*
X500836D01*
X511811Y240993D01*
X517684Y246866D01*
X435769Y259035D02*
Y260035D01*
X502866Y257048D02*
X511811Y265993D01*
X431530Y264274D02*
X435769Y260035D01*
Y259035D02*
X437756Y257048D01*
X502866D01*
X511811Y265993D02*
X512235Y266418D01*
X431530Y246774D02*
X436724Y251968D01*
X537210Y270764D02*
Y355795D01*
X517684Y246866D02*
Y251238D01*
X537210Y270764D01*
X522449Y266418D02*
X531114Y275082D01*
X512235Y266418D02*
X522449D01*
X531114Y275082D02*
Y336891D01*
X522311Y345694D02*
X531114Y336891D01*
X528675Y364330D02*
X537210Y355795D01*
X528675Y364330D02*
Y364330D01*
X522311Y370694D02*
X528675Y364330D01*
X522311Y370694D02*
X522311D01*
X474474Y358648D02*
X510265D01*
X468697Y364425D02*
X474474Y358648D01*
X510265D02*
X522311Y370694D01*
X520781Y345694D02*
X522311D01*
X473508Y353314D02*
X513161D01*
X520781Y345694D01*
X467208Y347014D02*
X473508Y353314D01*
X468697Y364425D02*
Y364525D01*
X464058Y347014D02*
X467208D01*
X464058Y366014D02*
X467208D01*
X468697Y364525D01*
D74*
X211662Y139780D02*
X211836Y139954D01*
X211662Y124828D02*
Y139780D01*
X31342Y256640D02*
X34798Y260096D01*
X31342Y235712D02*
Y256640D01*
X174752Y19812D02*
X198374Y43434D01*
X116732Y42412D02*
X139332Y19812D01*
X116732Y42412D02*
Y43412D01*
X139332Y19812D02*
X174752D01*
X113792Y45352D02*
X114792D01*
X116732Y43412D01*
X294567Y451793D02*
Y481480D01*
X286819Y444045D02*
X294567Y451793D01*
X286819Y425249D02*
Y444045D01*
X269567Y453063D02*
X277067Y445563D01*
Y424989D02*
Y445563D01*
X269567Y453063D02*
Y481480D01*
D75*
X159766Y534316D02*
X160374Y534924D01*
X177038D01*
X92850Y114922D02*
X113792Y93980D01*
Y62852D02*
Y93980D01*
X81998Y114922D02*
X92850D01*
X73406Y295656D02*
X107342Y261720D01*
Y186006D02*
Y261720D01*
X39738Y295656D02*
X73406D01*
X81998Y160922D02*
X82258D01*
X107342Y186006D01*
X52704Y334772D02*
X105410D01*
X22238Y304306D02*
X52704Y334772D01*
X22238Y295656D02*
Y304306D01*
D76*
X191642Y328296D02*
X232664D01*
X159766Y360172D02*
X191642Y328296D01*
X159766Y360172D02*
Y458316D01*
D77*
X313901Y383604D02*
X314974D01*
X306901Y382556D02*
X312853D01*
X313901Y383604D01*
X306567Y382222D02*
X306901Y382556D01*
D78*
X383286Y504698D02*
D03*
X403606D02*
D03*
D79*
X147574Y43434D02*
D03*
X302006D02*
D03*
X172974D02*
D03*
X276606D02*
D03*
D80*
X57779Y362272D02*
D03*
X105410Y334772D02*
D03*
Y389772D02*
D03*
D81*
X409702Y447040D02*
D03*
X485902D02*
D03*
X435102D02*
D03*
X460502D02*
D03*
D82*
X371602Y44958D02*
D03*
X397002D02*
D03*
X422402D02*
D03*
X346202D02*
D03*
X244567Y481480D02*
D03*
X269567D02*
D03*
X294567D02*
D03*
X346202Y121158D02*
D03*
X371602D02*
D03*
X397002D02*
D03*
D83*
X198374Y43434D02*
D03*
X251206D02*
D03*
D84*
X319567Y481480D02*
D03*
X422402Y121158D02*
D03*
D85*
X522311Y370694D02*
D03*
X511811Y240993D02*
D03*
D86*
X522311Y345694D02*
D03*
X511811Y265993D02*
D03*
M02*
