G04*
G04 #@! TF.GenerationSoftware,Altium Limited,Altium Designer,26.4.1 (12)*
G04*
G04 Layer_Color=8421504*
%FSLAX44Y44*%
%MOMM*%
G71*
G04*
G04 #@! TF.SameCoordinates,AD351CFC-23FE-4096-ACC1-941D4D01AE0F*
G04*
G04*
G04 #@! TF.FilePolarity,Positive*
G04*
G01*
G75*
%ADD18R,1.1746X0.9000*%
%ADD19R,1.2000X1.2000*%
G04:AMPARAMS|DCode=20|XSize=1.23mm|YSize=0.6mm|CornerRadius=0.075mm|HoleSize=0mm|Usage=FLASHONLY|Rotation=180.000|XOffset=0mm|YOffset=0mm|HoleType=Round|Shape=RoundedRectangle|*
%AMROUNDEDRECTD20*
21,1,1.2300,0.4500,0,0,180.0*
21,1,1.0800,0.6000,0,0,180.0*
1,1,0.1500,-0.5400,0.2250*
1,1,0.1500,0.5400,0.2250*
1,1,0.1500,0.5400,-0.2250*
1,1,0.1500,-0.5400,-0.2250*
%
%ADD20ROUNDEDRECTD20*%
%ADD21R,1.1500X1.3500*%
%ADD22R,4.5500X2.3000*%
%ADD23R,1.3500X1.1500*%
G04:AMPARAMS|DCode=24|XSize=1.49mm|YSize=0.28mm|CornerRadius=0.035mm|HoleSize=0mm|Usage=FLASHONLY|Rotation=0.000|XOffset=0mm|YOffset=0mm|HoleType=Round|Shape=RoundedRectangle|*
%AMROUNDEDRECTD24*
21,1,1.4900,0.2100,0,0,0.0*
21,1,1.4200,0.2800,0,0,0.0*
1,1,0.0700,0.7100,-0.1050*
1,1,0.0700,-0.7100,-0.1050*
1,1,0.0700,-0.7100,0.1050*
1,1,0.0700,0.7100,0.1050*
%
%ADD24ROUNDEDRECTD24*%
%ADD25R,2.3000X4.5500*%
G04:AMPARAMS|DCode=26|XSize=0.81mm|YSize=0.27mm|CornerRadius=0.0338mm|HoleSize=0mm|Usage=FLASHONLY|Rotation=0.000|XOffset=0mm|YOffset=0mm|HoleType=Round|Shape=RoundedRectangle|*
%AMROUNDEDRECTD26*
21,1,0.8100,0.2025,0,0,0.0*
21,1,0.7425,0.2700,0,0,0.0*
1,1,0.0675,0.3713,-0.1013*
1,1,0.0675,-0.3713,-0.1013*
1,1,0.0675,-0.3713,0.1013*
1,1,0.0675,0.3713,0.1013*
%
%ADD26ROUNDEDRECTD26*%
%ADD27R,3.6000X3.6000*%
%ADD28R,1.0000X1.5000*%
%ADD29O,1.8650X0.6300*%
%ADD30R,1.2000X1.2000*%
G04:AMPARAMS|DCode=31|XSize=0.27mm|YSize=0.81mm|CornerRadius=0.0338mm|HoleSize=0mm|Usage=FLASHONLY|Rotation=0.000|XOffset=0mm|YOffset=0mm|HoleType=Round|Shape=RoundedRectangle|*
%AMROUNDEDRECTD31*
21,1,0.2700,0.7425,0,0,0.0*
21,1,0.2025,0.8100,0,0,0.0*
1,1,0.0675,0.1013,-0.3713*
1,1,0.0675,-0.1013,-0.3713*
1,1,0.0675,-0.1013,0.3713*
1,1,0.0675,0.1013,0.3713*
%
%ADD31ROUNDEDRECTD31*%
%ADD32C,0.6000*%
%ADD33R,2.1500X0.9500*%
%ADD34R,2.1500X3.2500*%
G04:AMPARAMS|DCode=35|XSize=1.49mm|YSize=0.28mm|CornerRadius=0.035mm|HoleSize=0mm|Usage=FLASHONLY|Rotation=90.000|XOffset=0mm|YOffset=0mm|HoleType=Round|Shape=RoundedRectangle|*
%AMROUNDEDRECTD35*
21,1,1.4900,0.2100,0,0,90.0*
21,1,1.4200,0.2800,0,0,90.0*
1,1,0.0700,0.1050,0.7100*
1,1,0.0700,0.1050,-0.7100*
1,1,0.0700,-0.1050,-0.7100*
1,1,0.0700,-0.1050,0.7100*
%
%ADD35ROUNDEDRECTD35*%
%ADD36R,0.9000X1.1746*%
%ADD37R,0.9000X1.1746*%
%ADD38R,1.3000X0.7000*%
%ADD39R,1.5000X1.6000*%
D18*
X387256Y374818D02*
D03*
Y395310D02*
D03*
X363634Y395650D02*
D03*
Y375158D02*
D03*
D19*
X434674Y393814D02*
D03*
Y376314D02*
D03*
X411560Y393814D02*
D03*
Y376314D02*
D03*
X147828Y225512D02*
D03*
X166624Y125348D02*
D03*
X198120Y172554D02*
D03*
X172974Y225512D02*
D03*
X198120Y225512D02*
D03*
X172974Y279740D02*
D03*
X198120Y279740D02*
D03*
X210820Y400304D02*
D03*
X232664Y400558D02*
D03*
X339852Y385444D02*
D03*
Y368936D02*
D03*
X198120Y263232D02*
D03*
X172974Y263232D02*
D03*
X198120Y242020D02*
D03*
X172974Y242020D02*
D03*
X166624Y108840D02*
D03*
X147828Y242020D02*
D03*
X198120Y189062D02*
D03*
X232664Y328296D02*
D03*
Y344804D02*
D03*
X210820Y416812D02*
D03*
X232664Y417066D02*
D03*
X233506Y130152D02*
D03*
Y108644D02*
D03*
D20*
X465768Y365608D02*
D03*
Y346608D02*
D03*
X444568Y356108D02*
D03*
D21*
X158128Y188976D02*
D03*
X175628D02*
D03*
X39738Y295656D02*
D03*
X82550Y446532D02*
D03*
X22238Y295656D02*
D03*
X65050Y446532D02*
D03*
D22*
X31342Y235712D02*
D03*
X107342D02*
D03*
D23*
X211662Y124828D02*
D03*
X113792Y45352D02*
D03*
Y62852D02*
D03*
X430530Y264274D02*
D03*
Y246774D02*
D03*
X211662Y107328D02*
D03*
D24*
X227838Y241640D02*
D03*
Y251640D02*
D03*
Y246640D02*
D03*
Y271640D02*
D03*
Y266640D02*
D03*
Y261640D02*
D03*
Y256640D02*
D03*
Y236640D02*
D03*
Y231640D02*
D03*
Y226640D02*
D03*
Y221640D02*
D03*
Y216640D02*
D03*
X311238D02*
D03*
Y221640D02*
D03*
Y226640D02*
D03*
Y231640D02*
D03*
Y236640D02*
D03*
Y241640D02*
D03*
Y246640D02*
D03*
Y251640D02*
D03*
Y256640D02*
D03*
Y261640D02*
D03*
Y266640D02*
D03*
Y271640D02*
D03*
D25*
X159766Y534316D02*
D03*
Y458316D02*
D03*
D26*
X257567Y392222D02*
D03*
X306567Y387222D02*
D03*
Y372222D02*
D03*
Y402222D02*
D03*
Y397222D02*
D03*
Y392222D02*
D03*
Y382222D02*
D03*
Y377222D02*
D03*
X257567Y372222D02*
D03*
Y377222D02*
D03*
Y382222D02*
D03*
Y387222D02*
D03*
Y397222D02*
D03*
Y402222D02*
D03*
D27*
X282067Y387222D02*
D03*
D28*
X221490Y441071D02*
D03*
X342644D02*
D03*
X253490D02*
D03*
X310644D02*
D03*
D29*
X344605Y262351D02*
D03*
X398255Y275051D02*
D03*
Y236952D02*
D03*
X344605Y249652D02*
D03*
Y275051D02*
D03*
Y236952D02*
D03*
X398255Y249652D02*
D03*
Y262351D02*
D03*
D30*
X387316Y330614D02*
D03*
X154092Y168910D02*
D03*
X175600D02*
D03*
X387316Y350614D02*
D03*
D31*
X292067Y362722D02*
D03*
X297067D02*
D03*
X267067Y411722D02*
D03*
X277067D02*
D03*
X282067D02*
D03*
X287067D02*
D03*
X292067D02*
D03*
X297067D02*
D03*
X287067Y362722D02*
D03*
X282067D02*
D03*
X277067D02*
D03*
X272067D02*
D03*
X267067D02*
D03*
X272067Y411722D02*
D03*
D32*
X383286Y504698D02*
D03*
X403606D02*
D03*
X393446D02*
D03*
D33*
X81998Y137922D02*
D03*
Y160922D02*
D03*
Y114922D02*
D03*
D34*
X139998Y137922D02*
D03*
D35*
X257038Y285840D02*
D03*
X247038Y202440D02*
D03*
X242038D02*
D03*
X252038D02*
D03*
X257038D02*
D03*
X262038D02*
D03*
X267038D02*
D03*
X272038D02*
D03*
X277038D02*
D03*
X282038D02*
D03*
X287038D02*
D03*
X292038D02*
D03*
X297038D02*
D03*
Y285840D02*
D03*
X292038D02*
D03*
X287038D02*
D03*
X282038D02*
D03*
X277038D02*
D03*
X272038D02*
D03*
X267038D02*
D03*
X262038D02*
D03*
X252038D02*
D03*
X247038D02*
D03*
X242038D02*
D03*
D36*
X246974Y180848D02*
D03*
D37*
X226482D02*
D03*
X197952Y77724D02*
D03*
X177460D02*
D03*
D38*
X232664Y363498D02*
D03*
Y382498D02*
D03*
D39*
X354816Y340614D02*
D03*
M02*
