M48
;Layer_Color=9474304
;FILE_FORMAT=4:4
METRIC,LZ
;TYPE=PLATED
T01F00S00C0.3000
T02F00S00C0.6000
T03F00S00C1.0000
T04F00S00C1.2000
T05F00S00C2.6051
T06F00S00C3.2000
%
T01
X0015Y0033825
X0017975Y00362
X00192686Y0036725
X0017025Y0038425
X00224Y00384
X00256888Y00368046
X0030625Y003695
X0038525Y0036175
X002155Y003015
Y002795
X00418Y00362
X00646Y0036675
X0066225Y0035075
X0069325Y00344
X00706Y0035325
X0065875Y00305
X0071875Y0025375
X0074325Y001525
X0066625Y0011125
Y000995
X006535
X0065375Y0011125
X006405
X0064025Y001
X005945Y00052
X007095Y00051
X00575Y0020725
X00498Y004185
X0045875Y004425
X00424Y0044275
X00408Y0052575
X00442Y00526
X00508Y00535
X00508328Y00573
X0054225Y005575
X00488Y00619
X00447Y007205
X004475Y0075825
X004385Y007715
X00504618Y0078446
X00508Y004735
X00614Y0046675
X00622Y00458
X00725Y00477
X0071675Y005085
X0077125Y004995
X0077175Y0052425
X00765Y005935
X0073925Y0042675
X0039075Y004425
X003455Y00442
X0033525Y00422
X00245Y00411
Y0040075
X002355Y00406
X00231Y004185
X0020675Y0042225
Y003995
X00184
X00195Y00411
X001835Y0042225
X001705Y0044075
X0019562Y0046075
X0019975Y004735
X00221456Y00508362
X00221Y00576
X001715Y00569
X001535Y0056825
X001275Y00608
X00129Y007265
X0015575Y0072625
X00203Y006705
X0030725Y006825
X00307Y006955
Y0070775
X0034125Y0070725
Y0072125
X003485Y0072825
X003625Y007285
X003765
X00384Y0072125
Y0070675
Y00693
X00377Y0068575
X0036275
X0034875
X0034125Y0069275
X0030675Y00644
X003175Y0063175
X0033325Y0058775
X0029Y0059825
X00374Y005265
X0014325Y00503
X0014875Y0048175
X00113Y0050225
X00042Y005365
X00262Y0078425
T02
X0016325Y000745
X0021275
X0025675Y0007425
X0030525Y00074
X0018Y0037375
X005015Y0007325
X0055475Y0007375
X00178103Y00449028
T03
X00095Y00374
X00562Y0029
X00587
X005895Y00480001
Y00510001
X005345
Y00480001
X005919Y005939
Y006193
Y006447
Y006701
X006681
Y006447
Y006193
Y005939
X002065Y00610751
Y00640751
X001515
Y00610751
X00095Y00449
Y00424
Y00399
T04
X005338Y00764
X005592
X005846
X0061
X00664Y00762
X006894
T05
X00376Y0012827
X00431
X004035Y00080639
T06
X0005Y0005
X0075
Y0075
X0005
M30
