G04*
G04 #@! TF.GenerationSoftware,Altium Limited,Altium Designer,26.4.1 (12)*
G04*
G04 Layer_Physical_Order=2*
G04 Layer_Color=16711680*
%FSLAX44Y44*%
%MOMM*%
G71*
G04*
G04 #@! TF.SameCoordinates,3AAC71AF-B553-4883-97ED-8EFCB6E663D3*
G04*
G04*
G04 #@! TF.FilePolarity,Positive*
G04*
G01*
G75*
%ADD21R,1.1500X1.3500*%
%ADD33C,0.6000*%
%ADD36R,1.4000X1.3000*%
%ADD67R,1.5500X1.5500*%
%ADD68C,1.5500*%
%ADD75C,0.2794*%
%ADD80C,0.6350*%
%ADD82C,0.7620*%
%ADD85C,3.5000*%
%ADD86C,1.6000*%
%ADD87R,1.5080X1.5080*%
%ADD88C,1.5080*%
%ADD89O,2.0000X3.0000*%
%ADD90C,5.5000*%
%ADD91C,0.8000*%
%ADD92R,1.5000X0.6500*%
G36*
X57564Y792563D02*
X732000Y792563D01*
X732000Y792563D01*
X732000Y792563D01*
X735625Y792009D01*
X742730Y790195D01*
X749624Y787694D01*
X756240Y784529D01*
X762513Y780731D01*
X768384Y776336D01*
X773796Y771387D01*
X778696Y765931D01*
X783038Y760021D01*
X786781Y753714D01*
X789886Y747071D01*
X792326Y740155D01*
X794076Y733033D01*
X795120Y725774D01*
X795447Y718448D01*
X795054Y711125D01*
X794500Y707500D01*
X794500Y62608D01*
X794499Y62607D01*
X794499Y59257D01*
X793702Y52602D01*
X792120Y46089D01*
X789774Y39811D01*
X786698Y33857D01*
X782936Y28310D01*
X778541Y23250D01*
X773576Y18749D01*
X768110Y14870D01*
X762222Y11668D01*
X755995Y9190D01*
X749518Y7469D01*
X746200Y7000D01*
X52826D01*
X49688Y7006D01*
X43465Y7836D01*
X37404Y9468D01*
X31607Y11876D01*
X26172Y15018D01*
X21193Y18841D01*
X16755Y23280D01*
X12931Y28259D01*
X9789Y33693D01*
X7381Y39491D01*
X5749Y45552D01*
X4919Y51774D01*
X4913Y54913D01*
Y739913D01*
X4913Y739913D01*
X4913Y739913D01*
X4906Y743366D01*
X5796Y750214D01*
X7574Y756887D01*
X10210Y763270D01*
X13658Y769253D01*
X17861Y774733D01*
X22744Y779616D01*
X28224Y783818D01*
X34207Y787267D01*
X40589Y789903D01*
X47262Y791681D01*
X54111Y792571D01*
X57564Y792563D01*
D02*
G37*
%LPC*%
G36*
X534435Y780284D02*
Y764635D01*
X545167D01*
Y769000D01*
X544780Y771942D01*
X543644Y774684D01*
X541838Y777038D01*
X539484Y778844D01*
X536742Y779980D01*
X534435Y780284D01*
D02*
G37*
G36*
X533165D02*
X530858Y779980D01*
X528116Y778844D01*
X525762Y777038D01*
X523956Y774684D01*
X522820Y771942D01*
X522433Y769000D01*
Y764635D01*
X533165D01*
Y780284D01*
D02*
G37*
G36*
X545167Y763365D02*
X534435D01*
Y747716D01*
X536742Y748020D01*
X539484Y749156D01*
X541838Y750962D01*
X543644Y753316D01*
X544780Y756058D01*
X545167Y759000D01*
Y763365D01*
D02*
G37*
G36*
X533165D02*
X522433D01*
Y759000D01*
X522820Y756058D01*
X523956Y753316D01*
X525762Y750962D01*
X528116Y749156D01*
X530858Y748020D01*
X533165Y747716D01*
Y763365D01*
D02*
G37*
G36*
X610000Y780367D02*
X607058Y779980D01*
X604316Y778844D01*
X601962Y777038D01*
X600156Y774684D01*
X599020Y771942D01*
X598633Y769000D01*
Y759000D01*
X599020Y756058D01*
X600156Y753316D01*
X601962Y750962D01*
X604316Y749156D01*
X607058Y748020D01*
X610000Y747633D01*
X612942Y748020D01*
X615684Y749156D01*
X618038Y750962D01*
X619844Y753316D01*
X620980Y756058D01*
X621367Y759000D01*
Y769000D01*
X620980Y771942D01*
X619844Y774684D01*
X618038Y777038D01*
X615684Y778844D01*
X612942Y779980D01*
X610000Y780367D01*
D02*
G37*
G36*
X584600D02*
X581658Y779980D01*
X578916Y778844D01*
X576562Y777038D01*
X574756Y774684D01*
X573620Y771942D01*
X573233Y769000D01*
Y759000D01*
X573620Y756058D01*
X574756Y753316D01*
X576562Y750962D01*
X578916Y749156D01*
X581658Y748020D01*
X584600Y747633D01*
X587542Y748020D01*
X590284Y749156D01*
X592638Y750962D01*
X594444Y753316D01*
X595580Y756058D01*
X595967Y759000D01*
Y769000D01*
X595580Y771942D01*
X594444Y774684D01*
X592638Y777038D01*
X590284Y778844D01*
X587542Y779980D01*
X584600Y780367D01*
D02*
G37*
G36*
X559200D02*
X556258Y779980D01*
X553516Y778844D01*
X551162Y777038D01*
X549356Y774684D01*
X548220Y771942D01*
X547833Y769000D01*
Y759000D01*
X548220Y756058D01*
X549356Y753316D01*
X551162Y750962D01*
X553516Y749156D01*
X556258Y748020D01*
X559200Y747633D01*
X562142Y748020D01*
X564884Y749156D01*
X567238Y750962D01*
X569044Y753316D01*
X570180Y756058D01*
X570567Y759000D01*
Y769000D01*
X570180Y771942D01*
X569044Y774684D01*
X567238Y777038D01*
X564884Y778844D01*
X562142Y779980D01*
X559200Y780367D01*
D02*
G37*
G36*
X689400Y778367D02*
X686458Y777980D01*
X683716Y776844D01*
X681362Y775038D01*
X679556Y772684D01*
X678420Y769942D01*
X678033Y767000D01*
Y757000D01*
X678420Y754058D01*
X679556Y751316D01*
X681362Y748962D01*
X683716Y747156D01*
X686458Y746020D01*
X689400Y745633D01*
X692342Y746020D01*
X695084Y747156D01*
X697438Y748962D01*
X699244Y751316D01*
X700380Y754058D01*
X700767Y757000D01*
Y767000D01*
X700380Y769942D01*
X699244Y772684D01*
X697438Y775038D01*
X695084Y776844D01*
X692342Y777980D01*
X689400Y778367D01*
D02*
G37*
G36*
X664000D02*
X661058Y777980D01*
X658316Y776844D01*
X655962Y775038D01*
X654156Y772684D01*
X653020Y769942D01*
X652633Y767000D01*
Y757000D01*
X653020Y754058D01*
X654156Y751316D01*
X655962Y748962D01*
X658316Y747156D01*
X661058Y746020D01*
X664000Y745633D01*
X666942Y746020D01*
X669684Y747156D01*
X672038Y748962D01*
X673844Y751316D01*
X674980Y754058D01*
X675367Y757000D01*
Y767000D01*
X674980Y769942D01*
X673844Y772684D01*
X672038Y775038D01*
X669684Y776844D01*
X666942Y777980D01*
X664000Y778367D01*
D02*
G37*
G36*
X752264Y778770D02*
X747736D01*
X743263Y778062D01*
X738956Y776662D01*
X734921Y774606D01*
X731258Y771945D01*
X728055Y768742D01*
X725394Y765079D01*
X723338Y761044D01*
X721938Y756737D01*
X721230Y752264D01*
Y747736D01*
X721938Y743263D01*
X723338Y738956D01*
X725394Y734921D01*
X728055Y731258D01*
X731258Y728055D01*
X734921Y725394D01*
X738956Y723338D01*
X743263Y721938D01*
X747736Y721230D01*
X752264D01*
X756737Y721938D01*
X761044Y723338D01*
X765079Y725394D01*
X768742Y728055D01*
X771945Y731258D01*
X774606Y734921D01*
X776662Y738956D01*
X778062Y743263D01*
X778770Y747736D01*
Y752264D01*
X778062Y756737D01*
X776662Y761044D01*
X774606Y765079D01*
X771945Y768742D01*
X768742Y771945D01*
X765079Y774606D01*
X761044Y776662D01*
X756737Y778062D01*
X752264Y778770D01*
D02*
G37*
G36*
X52264D02*
X47736D01*
X43263Y778062D01*
X38956Y776662D01*
X34921Y774606D01*
X31258Y771945D01*
X28056Y768742D01*
X25394Y765079D01*
X23338Y761044D01*
X21938Y756737D01*
X21230Y752264D01*
Y747736D01*
X21938Y743263D01*
X23338Y738956D01*
X25394Y734921D01*
X28056Y731258D01*
X31258Y728055D01*
X34921Y725394D01*
X38956Y723338D01*
X43263Y721938D01*
X47736Y721230D01*
X52264D01*
X56737Y721938D01*
X61044Y723338D01*
X65079Y725394D01*
X68742Y728055D01*
X71944Y731258D01*
X74606Y734921D01*
X76662Y738956D01*
X78062Y743263D01*
X78770Y747736D01*
Y752264D01*
X78062Y756737D01*
X76662Y761044D01*
X74606Y765079D01*
X71944Y768742D01*
X68742Y771945D01*
X65079Y774606D01*
X61044Y776662D01*
X56737Y778062D01*
X52264Y778770D01*
D02*
G37*
G36*
X669260Y678910D02*
X666940D01*
X664699Y678310D01*
X662691Y677150D01*
X661050Y675509D01*
X659890Y673501D01*
X659290Y671260D01*
Y668940D01*
X659890Y666700D01*
X661050Y664690D01*
X662691Y663050D01*
X664699Y661890D01*
X666940Y661290D01*
X669260D01*
X671500Y661890D01*
X673510Y663050D01*
X675150Y664690D01*
X676310Y666700D01*
X676910Y668940D01*
Y671260D01*
X676310Y673501D01*
X675150Y675509D01*
X673510Y677150D01*
X671500Y678310D01*
X669260Y678910D01*
D02*
G37*
G36*
X593060D02*
X590740D01*
X588499Y678310D01*
X586491Y677150D01*
X584850Y675509D01*
X583690Y673501D01*
X583090Y671260D01*
Y668940D01*
X583690Y666700D01*
X584850Y664690D01*
X586491Y663050D01*
X588499Y661890D01*
X590740Y661290D01*
X593060D01*
X595300Y661890D01*
X597309Y663050D01*
X598950Y664690D01*
X600110Y666700D01*
X600710Y668940D01*
Y671260D01*
X600110Y673501D01*
X598950Y675509D01*
X597309Y677150D01*
X595300Y678310D01*
X593060Y678910D01*
D02*
G37*
G36*
X669260Y653510D02*
X666940D01*
X664699Y652910D01*
X662691Y651750D01*
X661050Y650109D01*
X659890Y648101D01*
X659290Y645860D01*
Y643540D01*
X659890Y641300D01*
X661050Y639291D01*
X662691Y637650D01*
X664699Y636490D01*
X666940Y635890D01*
X669260D01*
X671500Y636490D01*
X673510Y637650D01*
X675150Y639291D01*
X676310Y641300D01*
X676910Y643540D01*
Y645860D01*
X676310Y648101D01*
X675150Y650109D01*
X673510Y651750D01*
X671500Y652910D01*
X669260Y653510D01*
D02*
G37*
G36*
X593060D02*
X590740D01*
X588499Y652910D01*
X586491Y651750D01*
X584850Y650109D01*
X583690Y648101D01*
X583090Y645860D01*
Y643540D01*
X583690Y641300D01*
X584850Y639291D01*
X586491Y637650D01*
X588499Y636490D01*
X590740Y635890D01*
X593060D01*
X595300Y636490D01*
X597309Y637650D01*
X598950Y639291D01*
X600110Y641300D01*
X600710Y643540D01*
Y645860D01*
X600110Y648101D01*
X598950Y650109D01*
X597309Y651750D01*
X595300Y652910D01*
X593060Y653510D01*
D02*
G37*
G36*
X207720Y650021D02*
X205280D01*
X202922Y649389D01*
X200808Y648169D01*
X199082Y646443D01*
X197862Y644329D01*
X197230Y641972D01*
Y639531D01*
X197862Y637173D01*
X199082Y635059D01*
X200808Y633333D01*
X202922Y632113D01*
X205280Y631481D01*
X207720D01*
X210078Y632113D01*
X212192Y633333D01*
X213918Y635059D01*
X215138Y637173D01*
X215770Y639531D01*
Y641972D01*
X215138Y644329D01*
X213918Y646443D01*
X212192Y648169D01*
X210078Y649389D01*
X207720Y650021D01*
D02*
G37*
G36*
X152720D02*
X150280D01*
X147922Y649389D01*
X145808Y648169D01*
X144082Y646443D01*
X142862Y644329D01*
X142230Y641972D01*
Y639531D01*
X142862Y637173D01*
X144082Y635059D01*
X145808Y633333D01*
X147922Y632113D01*
X150280Y631481D01*
X152720D01*
X155078Y632113D01*
X157192Y633333D01*
X158918Y635059D01*
X160138Y637173D01*
X160770Y639531D01*
Y641972D01*
X160138Y644329D01*
X158918Y646443D01*
X157192Y648169D01*
X155078Y649389D01*
X152720Y650021D01*
D02*
G37*
G36*
X207720Y620021D02*
X207135D01*
Y611386D01*
X215770D01*
Y611972D01*
X215138Y614329D01*
X213918Y616443D01*
X212192Y618169D01*
X210078Y619389D01*
X207720Y620021D01*
D02*
G37*
G36*
X205865D02*
X205280D01*
X202922Y619389D01*
X200808Y618169D01*
X199082Y616443D01*
X197862Y614329D01*
X197230Y611972D01*
Y611386D01*
X205865D01*
Y620021D01*
D02*
G37*
G36*
X669260Y628110D02*
X666940D01*
X664699Y627510D01*
X662691Y626350D01*
X661050Y624710D01*
X659890Y622701D01*
X659290Y620460D01*
Y618140D01*
X659890Y615900D01*
X661050Y613890D01*
X662691Y612250D01*
X664699Y611090D01*
X666940Y610490D01*
X669260D01*
X671500Y611090D01*
X673510Y612250D01*
X675150Y613890D01*
X676310Y615900D01*
X676910Y618140D01*
Y620460D01*
X676310Y622701D01*
X675150Y624710D01*
X673510Y626350D01*
X671500Y627510D01*
X669260Y628110D01*
D02*
G37*
G36*
X593060D02*
X590740D01*
X588499Y627510D01*
X586491Y626350D01*
X584850Y624710D01*
X583690Y622701D01*
X583090Y620460D01*
Y618140D01*
X583690Y615900D01*
X584850Y613890D01*
X586491Y612250D01*
X588499Y611090D01*
X590740Y610490D01*
X593060D01*
X595300Y611090D01*
X597309Y612250D01*
X598950Y613890D01*
X600110Y615900D01*
X600710Y618140D01*
Y620460D01*
X600110Y622701D01*
X598950Y624710D01*
X597309Y626350D01*
X595300Y627510D01*
X593060Y628110D01*
D02*
G37*
G36*
X215770Y610116D02*
X207135D01*
Y601481D01*
X207720D01*
X210078Y602113D01*
X212192Y603334D01*
X213918Y605059D01*
X215138Y607173D01*
X215770Y609531D01*
Y610116D01*
D02*
G37*
G36*
X205865D02*
X197230D01*
Y609531D01*
X197862Y607173D01*
X199082Y605059D01*
X200808Y603334D01*
X202922Y602113D01*
X205280Y601481D01*
X205865D01*
Y610116D01*
D02*
G37*
G36*
X152720Y620021D02*
X150280D01*
X147922Y619389D01*
X145808Y618169D01*
X144082Y616443D01*
X142862Y614329D01*
X142230Y611972D01*
Y609531D01*
X142862Y607173D01*
X144082Y605059D01*
X145808Y603334D01*
X147922Y602113D01*
X150280Y601481D01*
X152720D01*
X155078Y602113D01*
X157192Y603334D01*
X158918Y605059D01*
X160138Y607173D01*
X160770Y609531D01*
Y611972D01*
X160138Y614329D01*
X158918Y616443D01*
X157192Y618169D01*
X155078Y619389D01*
X152720Y620021D01*
D02*
G37*
G36*
X676910Y602710D02*
X659290D01*
Y585090D01*
X676910D01*
Y602710D01*
D02*
G37*
G36*
X593060D02*
X590740D01*
X588499Y602110D01*
X586491Y600950D01*
X584850Y599310D01*
X583690Y597300D01*
X583090Y595060D01*
Y592740D01*
X583690Y590499D01*
X584850Y588490D01*
X586491Y586850D01*
X588499Y585690D01*
X590740Y585090D01*
X593060D01*
X595300Y585690D01*
X597309Y586850D01*
X598950Y588490D01*
X600110Y590499D01*
X600710Y592740D01*
Y595060D01*
X600110Y597300D01*
X598950Y599310D01*
X597309Y600950D01*
X595300Y602110D01*
X593060Y602710D01*
D02*
G37*
G36*
X488849Y623270D02*
X487151D01*
X485581Y622620D01*
X484380Y621419D01*
X483730Y619849D01*
Y618151D01*
X484380Y616581D01*
X485281Y615681D01*
Y555000D01*
X485488Y553959D01*
X486077Y553077D01*
X503730Y535424D01*
Y534151D01*
X504380Y532581D01*
X505581Y531380D01*
X507151Y530730D01*
X508849D01*
X510419Y531380D01*
X511620Y532581D01*
X512270Y534151D01*
Y535849D01*
X511620Y537419D01*
X510419Y538620D01*
X508849Y539270D01*
X507576D01*
X490719Y556126D01*
Y615681D01*
X491620Y616581D01*
X492270Y618151D01*
Y619849D01*
X491620Y621419D01*
X490419Y622620D01*
X488849Y623270D01*
D02*
G37*
G36*
X438500Y776032D02*
X436766Y775687D01*
X435295Y774705D01*
X417545Y756955D01*
X416563Y755484D01*
X416218Y753750D01*
Y575127D01*
X370795Y529705D01*
X369813Y528234D01*
X369468Y526500D01*
X369813Y524766D01*
X370795Y523295D01*
X372266Y522313D01*
X374000Y521968D01*
X375734Y522313D01*
X377205Y523295D01*
X423955Y570045D01*
X423955Y570045D01*
X424937Y571516D01*
X425282Y573250D01*
X425282Y573250D01*
Y751873D01*
X441705Y768295D01*
X442687Y769766D01*
X443032Y771500D01*
X442687Y773234D01*
X441705Y774705D01*
X440234Y775687D01*
X438500Y776032D01*
D02*
G37*
G36*
X447000Y725032D02*
X445266Y724687D01*
X443795Y723705D01*
X442813Y722234D01*
X442468Y720500D01*
Y532877D01*
X438795Y529205D01*
X437813Y527734D01*
X437468Y526000D01*
X437813Y524266D01*
X438795Y522795D01*
X440266Y521813D01*
X442000Y521468D01*
X443734Y521813D01*
X445205Y522795D01*
X450205Y527795D01*
X451187Y529266D01*
X451532Y531000D01*
X451532Y531000D01*
Y720500D01*
X451187Y722234D01*
X450205Y723705D01*
X448734Y724687D01*
X447000Y725032D01*
D02*
G37*
G36*
X447500Y762782D02*
X445766Y762437D01*
X444295Y761455D01*
X431795Y748955D01*
X430813Y747484D01*
X430468Y745750D01*
Y554627D01*
X404795Y528955D01*
X403813Y527484D01*
X403468Y525750D01*
X403813Y524016D01*
X404795Y522545D01*
X406266Y521563D01*
X408000Y521218D01*
X409734Y521563D01*
X411205Y522545D01*
X438205Y549545D01*
X438205Y549545D01*
X439187Y551016D01*
X439532Y552750D01*
X439532Y552750D01*
Y743873D01*
X450705Y755045D01*
X451687Y756516D01*
X452032Y758250D01*
X451687Y759984D01*
X450705Y761455D01*
X449234Y762437D01*
X447500Y762782D01*
D02*
G37*
G36*
X193750Y541679D02*
X42000D01*
X40018Y541285D01*
X38338Y540163D01*
X37215Y538482D01*
X36820Y536500D01*
X37215Y534518D01*
X38338Y532837D01*
X40018Y531715D01*
X42000Y531320D01*
X191605D01*
X216923Y506002D01*
X217793Y504699D01*
X219474Y503577D01*
X221456Y503182D01*
X223438Y503577D01*
X225118Y504699D01*
X226241Y506380D01*
X226635Y508362D01*
Y508794D01*
X226241Y510776D01*
X225118Y512457D01*
X197412Y540163D01*
X195732Y541285D01*
X193750Y541679D01*
D02*
G37*
G36*
X590720Y519271D02*
X588280D01*
X585922Y518639D01*
X583808Y517419D01*
X582082Y515693D01*
X580862Y513579D01*
X580230Y511222D01*
Y508781D01*
X580862Y506423D01*
X582082Y504309D01*
X583808Y502583D01*
X585922Y501363D01*
X588280Y500731D01*
X590720D01*
X593078Y501363D01*
X595192Y502583D01*
X596918Y504309D01*
X598138Y506423D01*
X598770Y508781D01*
Y511222D01*
X598138Y513579D01*
X596918Y515693D01*
X595192Y517419D01*
X593078Y518639D01*
X590720Y519271D01*
D02*
G37*
G36*
X535720D02*
X533279D01*
X530922Y518639D01*
X528808Y517419D01*
X527082Y515693D01*
X525862Y513579D01*
X525230Y511222D01*
Y508781D01*
X525862Y506423D01*
X527082Y504309D01*
X528808Y502583D01*
X530922Y501363D01*
X533279Y500731D01*
X535720D01*
X538078Y501363D01*
X540192Y502583D01*
X541918Y504309D01*
X543138Y506423D01*
X543770Y508781D01*
Y511222D01*
X543138Y513579D01*
X541918Y515693D01*
X540192Y517419D01*
X538078Y518639D01*
X535720Y519271D01*
D02*
G37*
G36*
X144099Y507270D02*
X142401D01*
X140831Y506620D01*
X139630Y505419D01*
X138980Y503849D01*
Y502151D01*
X139630Y500581D01*
X139722Y500489D01*
X139196Y499219D01*
X120522D01*
X117270Y502471D01*
Y503099D01*
X116620Y504669D01*
X115419Y505870D01*
X113849Y506520D01*
X112151D01*
X110581Y505870D01*
X109380Y504669D01*
X108730Y503099D01*
Y501401D01*
X109380Y499831D01*
X110581Y498630D01*
X112151Y497980D01*
X113849D01*
X114005Y498045D01*
X117472Y494577D01*
X118355Y493988D01*
X119395Y493781D01*
X149859D01*
X221281Y422359D01*
Y387319D01*
X220380Y386419D01*
X219730Y384849D01*
Y383151D01*
X220380Y381581D01*
X221581Y380380D01*
X223151Y379730D01*
X224849D01*
X226419Y380380D01*
X227620Y381581D01*
X228270Y383151D01*
Y384849D01*
X227620Y386419D01*
X226719Y387319D01*
Y423486D01*
X226512Y424526D01*
X225923Y425409D01*
X152908Y498423D01*
X152026Y499012D01*
X152159Y500281D01*
X169124D01*
X195480Y473924D01*
Y472651D01*
X196130Y471081D01*
X197331Y469880D01*
X198901Y469230D01*
X200599D01*
X202169Y469880D01*
X203370Y471081D01*
X204020Y472651D01*
Y474349D01*
X203370Y475919D01*
X202169Y477120D01*
X200599Y477770D01*
X199326D01*
X172173Y504923D01*
X171291Y505512D01*
X170250Y505719D01*
X146569D01*
X145669Y506620D01*
X144099Y507270D01*
D02*
G37*
G36*
X590720Y489271D02*
X590135D01*
Y480636D01*
X598770D01*
Y481222D01*
X598138Y483579D01*
X596918Y485693D01*
X595192Y487419D01*
X593078Y488640D01*
X590720Y489271D01*
D02*
G37*
G36*
X588865D02*
X588280D01*
X585922Y488640D01*
X583808Y487419D01*
X582082Y485693D01*
X580862Y483579D01*
X580230Y481222D01*
Y480636D01*
X588865D01*
Y489271D01*
D02*
G37*
G36*
X535720D02*
X533279D01*
X530922Y488640D01*
X528808Y487419D01*
X527082Y485693D01*
X525862Y483579D01*
X525230Y481222D01*
Y478781D01*
X525862Y476423D01*
X527082Y474309D01*
X528808Y472584D01*
X530922Y471363D01*
X533279Y470731D01*
X535720D01*
X538078Y471363D01*
X540192Y472584D01*
X541918Y474309D01*
X543138Y476423D01*
X543770Y478781D01*
Y481222D01*
X543138Y483579D01*
X541918Y485693D01*
X540192Y487419D01*
X538078Y488640D01*
X535720Y489271D01*
D02*
G37*
G36*
X509177Y577270D02*
X507478D01*
X505909Y576620D01*
X504708Y575419D01*
X504058Y573849D01*
Y572151D01*
X504708Y570581D01*
X505909Y569380D01*
X507478Y568730D01*
X508752D01*
X555781Y521701D01*
Y471750D01*
X555988Y470709D01*
X556577Y469827D01*
X570327Y456077D01*
X571209Y455488D01*
X572250Y455281D01*
X618681D01*
X619581Y454380D01*
X621151Y453730D01*
X622849D01*
X624419Y454380D01*
X625620Y455581D01*
X626270Y457151D01*
Y458849D01*
X625620Y460419D01*
X624419Y461620D01*
X622849Y462270D01*
X621151D01*
X619581Y461620D01*
X618681Y460719D01*
X573376D01*
X561219Y472876D01*
Y475139D01*
X562489Y475665D01*
X573327Y464827D01*
X574209Y464238D01*
X575250Y464031D01*
X610681D01*
X611581Y463130D01*
X613151Y462480D01*
X614849D01*
X616419Y463130D01*
X617620Y464331D01*
X618270Y465901D01*
Y467599D01*
X617620Y469169D01*
X616419Y470370D01*
X614849Y471020D01*
X613151D01*
X611581Y470370D01*
X610681Y469469D01*
X590740D01*
X590720Y470731D01*
X593078Y471363D01*
X595192Y472584D01*
X596918Y474309D01*
X598138Y476423D01*
X598770Y478781D01*
Y479366D01*
X589500D01*
X580230D01*
Y478781D01*
X580862Y476423D01*
X582082Y474309D01*
X583808Y472584D01*
X585922Y471363D01*
X588280Y470731D01*
X588260Y469469D01*
X576376D01*
X566692Y479154D01*
Y535777D01*
X566485Y536818D01*
X565895Y537700D01*
X546520Y557076D01*
Y558349D01*
X545870Y559919D01*
X544669Y561120D01*
X543099Y561770D01*
X541401D01*
X539831Y561120D01*
X538630Y559919D01*
X537980Y558349D01*
Y556651D01*
X538630Y555081D01*
X539831Y553880D01*
X541401Y553230D01*
X542674D01*
X561253Y534651D01*
Y525716D01*
X559983Y525190D01*
X512598Y572576D01*
Y573849D01*
X511948Y575419D01*
X510746Y576620D01*
X509177Y577270D01*
D02*
G37*
G36*
X170778Y461429D02*
X117750D01*
X115768Y461035D01*
X114087Y459912D01*
X108369Y454194D01*
X103810D01*
Y457810D01*
X86190D01*
Y440190D01*
X103810D01*
Y443835D01*
X110514D01*
X112496Y444229D01*
X114177Y445352D01*
X119895Y451071D01*
X168633D01*
X172309Y447395D01*
X171783Y446125D01*
X166773D01*
X166521Y446020D01*
X166247Y446020D01*
X166054Y445940D01*
X165860Y445746D01*
X165801Y445722D01*
X165777Y445663D01*
X165685Y445571D01*
X165592Y445480D01*
X165533Y445456D01*
X165508Y445397D01*
X165314Y445205D01*
X165232Y445012D01*
X165230Y444739D01*
X165123Y444487D01*
X164638Y380912D01*
X164639Y380909D01*
X164638Y380907D01*
X164836Y380423D01*
X164897Y380272D01*
X164442Y379294D01*
X164172Y379002D01*
X102285D01*
X102050Y379409D01*
X100409Y381050D01*
X98400Y382210D01*
X96160Y382810D01*
X93840D01*
X91600Y382210D01*
X89591Y381050D01*
X87950Y379409D01*
X86790Y377401D01*
X86190Y375160D01*
Y372840D01*
X86790Y370600D01*
X87950Y368591D01*
X89591Y366950D01*
X91600Y365790D01*
X93840Y365190D01*
X96160D01*
X98400Y365790D01*
X100409Y366950D01*
X102050Y368591D01*
X102080Y368643D01*
X177957D01*
X178906Y368250D01*
X181094D01*
X183116Y369087D01*
X184663Y370634D01*
X185500Y372656D01*
Y374844D01*
X184663Y376866D01*
X183116Y378413D01*
X181094Y379250D01*
X178906D01*
X178308Y379002D01*
X176836D01*
X175875Y380000D01*
Y442623D01*
X176992Y443515D01*
X177048Y443528D01*
X179197D01*
X181218Y444366D01*
X182766Y445913D01*
X183603Y447934D01*
Y450122D01*
X182766Y452144D01*
X181218Y453691D01*
X180269Y454084D01*
X174441Y459912D01*
X172760Y461035D01*
X170778Y461429D01*
D02*
G37*
G36*
X318349Y636020D02*
X316651D01*
X315081Y635370D01*
X313880Y634169D01*
X313230Y632599D01*
Y630901D01*
X313880Y629331D01*
X314281Y628931D01*
Y614500D01*
X314488Y613459D01*
X315077Y612577D01*
X334461Y593193D01*
X334329Y592764D01*
X333838Y592020D01*
X332401D01*
X330831Y591370D01*
X329630Y590169D01*
X328980Y588599D01*
Y587326D01*
X318827Y577173D01*
X318238Y576291D01*
X318031Y575250D01*
Y414270D01*
X315980D01*
Y398230D01*
X330020D01*
Y403631D01*
X364230D01*
Y401830D01*
X381770D01*
Y410870D01*
X364230D01*
Y409069D01*
X330020D01*
Y414270D01*
X323469D01*
Y574124D01*
X332826Y583480D01*
X334099D01*
X335669Y584130D01*
X336870Y585331D01*
X337520Y586901D01*
Y588338D01*
X338264Y588829D01*
X338693Y588961D01*
X349781Y577874D01*
Y445554D01*
X348511Y445028D01*
X347919Y445620D01*
X346349Y446270D01*
X344651D01*
X343081Y445620D01*
X341880Y444419D01*
X341230Y442849D01*
Y441151D01*
X341880Y439581D01*
X342781Y438681D01*
Y435250D01*
X342988Y434209D01*
X343577Y433327D01*
X359777Y417127D01*
X360659Y416538D01*
X361700Y416331D01*
X361700Y416331D01*
X364230D01*
Y414530D01*
X381770D01*
Y419297D01*
X382943Y419783D01*
X410999Y391727D01*
X410999Y391727D01*
X411881Y391138D01*
X412922Y390931D01*
X418230D01*
Y389130D01*
X435770D01*
Y398170D01*
X418230D01*
Y396369D01*
X414048D01*
X379244Y431173D01*
X378362Y431762D01*
X377322Y431969D01*
X365124D01*
X355219Y441874D01*
Y579000D01*
X355219Y579000D01*
X355012Y580041D01*
X354423Y580923D01*
X354423Y580923D01*
X319719Y615626D01*
Y628047D01*
X319919Y628130D01*
X321120Y629331D01*
X321770Y630901D01*
Y632599D01*
X321120Y634169D01*
X319919Y635370D01*
X318349Y636020D01*
D02*
G37*
G36*
X505096Y428216D02*
X505094Y428215D01*
X505092Y428216D01*
X420367Y427750D01*
X419888Y427548D01*
X419403Y427347D01*
X416528Y424472D01*
X416125Y423500D01*
X416125Y423500D01*
Y401250D01*
X416528Y400278D01*
X417500Y399875D01*
X436250D01*
X437222Y400278D01*
X437222Y400278D01*
X445460Y408516D01*
X446730Y407990D01*
Y402635D01*
X463270D01*
Y409125D01*
X471730D01*
Y402635D01*
X488270D01*
Y409125D01*
X506000D01*
X506972Y409528D01*
X507375Y410500D01*
Y425946D01*
X507374Y425948D01*
X507375Y425950D01*
X507173Y426432D01*
X506972Y426918D01*
X506970Y426919D01*
X506969Y426921D01*
X506069Y427816D01*
X506067Y427817D01*
X506066Y427819D01*
X505577Y428018D01*
X505096Y428216D01*
D02*
G37*
G36*
X96160Y432810D02*
X93840D01*
X91600Y432210D01*
X89591Y431050D01*
X87950Y429409D01*
X86790Y427401D01*
X86190Y425160D01*
Y422840D01*
X86790Y420600D01*
X87950Y418591D01*
X89591Y416950D01*
X91600Y415790D01*
X93840Y415190D01*
X96160D01*
X98400Y415790D01*
X100409Y416950D01*
X102050Y418591D01*
X103210Y420600D01*
X103810Y422840D01*
Y425160D01*
X103210Y427401D01*
X102050Y429409D01*
X100409Y431050D01*
X98400Y432210D01*
X96160Y432810D01*
D02*
G37*
G36*
X307849Y712020D02*
X306151D01*
X304581Y711370D01*
X303380Y710169D01*
X302730Y708599D01*
Y707326D01*
X236077Y640673D01*
X235488Y639791D01*
X235281Y638750D01*
Y410366D01*
X235185Y410270D01*
X234651D01*
X233081Y409620D01*
X231880Y408419D01*
X231230Y406849D01*
Y405151D01*
X231880Y403581D01*
X233081Y402380D01*
X234651Y401730D01*
X236349D01*
X237919Y402380D01*
X239120Y403581D01*
X239770Y405151D01*
Y406849D01*
X239744Y406912D01*
X240423Y407986D01*
X241368Y408174D01*
X241800Y408162D01*
X242581Y407380D01*
X244151Y406730D01*
X245849D01*
X247419Y407380D01*
X248620Y408581D01*
X249270Y410151D01*
Y411849D01*
X248620Y413419D01*
X247719Y414319D01*
Y632374D01*
X306576Y691230D01*
X307849D01*
X309419Y691880D01*
X310620Y693081D01*
X311270Y694651D01*
Y696349D01*
X310620Y697919D01*
X309419Y699120D01*
X307849Y699770D01*
X306151D01*
X304581Y699120D01*
X303380Y697919D01*
X302730Y696349D01*
Y695076D01*
X243077Y635423D01*
X242488Y634541D01*
X242281Y633500D01*
Y415282D01*
X241989Y415087D01*
X240719Y415766D01*
Y637624D01*
X306576Y703480D01*
X307849D01*
X309419Y704130D01*
X310620Y705331D01*
X311270Y706901D01*
Y708599D01*
X310620Y710169D01*
X309419Y711370D01*
X307849Y712020D01*
D02*
G37*
G36*
X308099Y686770D02*
X306401D01*
X304831Y686120D01*
X303630Y684919D01*
X302980Y683349D01*
Y682076D01*
X267077Y646173D01*
X266488Y645291D01*
X266281Y644250D01*
Y415876D01*
X253874Y403469D01*
X248319D01*
X247419Y404370D01*
X245849Y405020D01*
X244151D01*
X242581Y404370D01*
X241380Y403169D01*
X240730Y401599D01*
Y399901D01*
X241380Y398331D01*
X242581Y397130D01*
X244151Y396480D01*
X245849D01*
X247419Y397130D01*
X248319Y398031D01*
X255000D01*
X256041Y398238D01*
X256923Y398827D01*
X270923Y412827D01*
X270923Y412827D01*
X271512Y413709D01*
X271719Y414750D01*
X271719Y414750D01*
Y643124D01*
X306826Y678230D01*
X308099D01*
X309669Y678880D01*
X310870Y680081D01*
X311520Y681651D01*
Y683349D01*
X310870Y684919D01*
X309669Y686120D01*
X308099Y686770D01*
D02*
G37*
G36*
X488270Y401365D02*
X480635D01*
Y394230D01*
X488270D01*
Y401365D01*
D02*
G37*
G36*
X479365D02*
X471730D01*
Y394230D01*
X479365D01*
Y401365D01*
D02*
G37*
G36*
X463270D02*
X455635D01*
Y394230D01*
X463270D01*
Y401365D01*
D02*
G37*
G36*
X454365D02*
X446730D01*
Y394230D01*
X454365D01*
Y401365D01*
D02*
G37*
G36*
X96160Y407810D02*
X93840D01*
X91600Y407210D01*
X89591Y406050D01*
X87950Y404409D01*
X86790Y402401D01*
X86190Y400160D01*
Y397840D01*
X86790Y395600D01*
X87950Y393591D01*
X89591Y391950D01*
X91600Y390790D01*
X93840Y390190D01*
X96160D01*
X98400Y390790D01*
X100409Y391950D01*
X102050Y393591D01*
X103210Y395600D01*
X103810Y397840D01*
Y400160D01*
X103210Y402401D01*
X102050Y404409D01*
X100409Y406050D01*
X98400Y407210D01*
X96160Y407810D01*
D02*
G37*
G36*
X307599Y648270D02*
X305901D01*
X304331Y647620D01*
X303130Y646419D01*
X302480Y644849D01*
Y643576D01*
X298009Y639104D01*
X297419Y638222D01*
X297212Y637182D01*
Y435808D01*
X292141Y430737D01*
X291552Y429855D01*
X291345Y428814D01*
Y370186D01*
X291552Y369145D01*
X292141Y368263D01*
X299077Y361327D01*
X299959Y360738D01*
X301000Y360531D01*
X315500D01*
X316541Y360738D01*
X317423Y361327D01*
X325118Y369023D01*
X325708Y369905D01*
X325915Y370946D01*
Y375980D01*
X330270D01*
Y381281D01*
X347750D01*
X348791Y381488D01*
X349673Y382077D01*
X358526Y390931D01*
X364230D01*
Y389130D01*
X381770D01*
Y398170D01*
X364230D01*
Y396369D01*
X357400D01*
X356359Y396162D01*
X355477Y395573D01*
X355477Y395573D01*
X346624Y386719D01*
X330270D01*
Y392020D01*
X316230D01*
Y375980D01*
X320476D01*
Y372072D01*
X314374Y365969D01*
X310764D01*
X310085Y367239D01*
X310437Y367766D01*
X310782Y369500D01*
X310437Y371234D01*
X310282Y371466D01*
Y375980D01*
X312770D01*
Y392020D01*
X310157D01*
Y398230D01*
X312520D01*
Y414270D01*
X298480D01*
Y398230D01*
X301093D01*
Y392020D01*
X298730D01*
Y375980D01*
X301218D01*
Y370000D01*
X301547Y368344D01*
X301492Y368267D01*
X300276Y367819D01*
X296783Y371312D01*
Y427688D01*
X301854Y432759D01*
X301854Y432759D01*
X302444Y433641D01*
X302651Y434682D01*
Y636055D01*
X306326Y639730D01*
X307599D01*
X309169Y640380D01*
X310370Y641581D01*
X311020Y643151D01*
Y644849D01*
X310370Y646419D01*
X309169Y647620D01*
X307599Y648270D01*
D02*
G37*
G36*
X435770Y385470D02*
X427635D01*
Y381585D01*
X435770D01*
Y385470D01*
D02*
G37*
G36*
X426365D02*
X418230D01*
Y381585D01*
X426365D01*
Y385470D01*
D02*
G37*
G36*
X435770Y380315D02*
X427635D01*
Y376430D01*
X435770D01*
Y380315D01*
D02*
G37*
G36*
X426365D02*
X418230D01*
Y376430D01*
X426365D01*
Y380315D01*
D02*
G37*
G36*
X290849Y602520D02*
X289151D01*
X287581Y601870D01*
X286380Y600669D01*
X285730Y599099D01*
Y597826D01*
X277327Y589423D01*
X276738Y588541D01*
X276531Y587500D01*
Y406876D01*
X233957Y364302D01*
X189311D01*
X188996Y364512D01*
X187956Y364719D01*
X183069D01*
X182169Y365620D01*
X180599Y366270D01*
X178901D01*
X177331Y365620D01*
X176130Y364419D01*
X175480Y362849D01*
Y361151D01*
X176130Y359581D01*
X177331Y358380D01*
X178901Y357730D01*
X180599D01*
X182169Y358380D01*
X183069Y359281D01*
X187018D01*
X187332Y359071D01*
X188373Y358864D01*
X188373Y358864D01*
X235083D01*
X236124Y359071D01*
X237006Y359660D01*
X281173Y403827D01*
X281173Y403827D01*
X281762Y404709D01*
X281969Y405750D01*
X281969Y405750D01*
Y586374D01*
X289576Y593980D01*
X290849D01*
X292419Y594630D01*
X293620Y595831D01*
X294270Y597401D01*
Y599099D01*
X293620Y600669D01*
X292419Y601870D01*
X290849Y602520D01*
D02*
G37*
G36*
X381770Y385470D02*
X364230D01*
Y376430D01*
X370281D01*
Y367750D01*
X370488Y366709D01*
X371077Y365827D01*
X377077Y359827D01*
X377077Y359827D01*
X377959Y359238D01*
X379000Y359031D01*
X379000Y359031D01*
X381931D01*
X382831Y358130D01*
X384401Y357480D01*
X386099D01*
X387669Y358130D01*
X388870Y359331D01*
X389520Y360901D01*
Y362599D01*
X388870Y364169D01*
X387669Y365370D01*
X386099Y366020D01*
X384401D01*
X382831Y365370D01*
X381931Y364469D01*
X380126D01*
X375719Y368876D01*
Y376430D01*
X381770D01*
Y385470D01*
D02*
G37*
G36*
X739500Y598032D02*
X737766Y597687D01*
X736295Y596705D01*
X736295Y596705D01*
X662795Y523205D01*
X661813Y521734D01*
X661468Y520000D01*
Y356377D01*
X659045Y353955D01*
X658063Y352484D01*
X657718Y350750D01*
X658063Y349016D01*
X659045Y347545D01*
X660516Y346563D01*
X662250Y346218D01*
X684623D01*
X690045Y340795D01*
X691516Y339813D01*
X693250Y339468D01*
X694984Y339813D01*
X696455Y340795D01*
X697437Y342266D01*
X697782Y344000D01*
X697437Y345734D01*
X696455Y347205D01*
X689705Y353955D01*
X688234Y354937D01*
X686500Y355282D01*
X670532D01*
Y518123D01*
X741377Y588968D01*
X765000D01*
X766734Y589313D01*
X768205Y590295D01*
X769187Y591766D01*
X769532Y593500D01*
X769187Y595234D01*
X768205Y596705D01*
X766734Y597687D01*
X765000Y598032D01*
X739500D01*
X739500Y598032D01*
D02*
G37*
G36*
X596020Y299020D02*
X577980D01*
Y280980D01*
X596020D01*
Y299020D01*
D02*
G37*
G36*
X563187D02*
X560812D01*
X558518Y298405D01*
X556462Y297218D01*
X554782Y295538D01*
X553595Y293482D01*
X552980Y291187D01*
Y288813D01*
X553595Y286518D01*
X554782Y284462D01*
X556462Y282782D01*
X558518Y281595D01*
X560812Y280980D01*
X563187D01*
X565482Y281595D01*
X567538Y282782D01*
X569218Y284462D01*
X570405Y286518D01*
X571020Y288813D01*
Y291187D01*
X570405Y293482D01*
X569218Y295538D01*
X567538Y297218D01*
X565482Y298405D01*
X563187Y299020D01*
D02*
G37*
G36*
X432849Y147040D02*
X429151D01*
X425525Y146319D01*
X422109Y144904D01*
X419035Y142850D01*
X416420Y140235D01*
X414366Y137161D01*
X412951Y133745D01*
X412230Y130119D01*
Y126421D01*
X412951Y122795D01*
X414366Y119379D01*
X416420Y116305D01*
X419035Y113690D01*
X422109Y111636D01*
X425525Y110221D01*
X429151Y109500D01*
X432849D01*
X436475Y110221D01*
X439891Y111636D01*
X442965Y113690D01*
X445580Y116305D01*
X447634Y119379D01*
X449049Y122795D01*
X449770Y126421D01*
Y130119D01*
X449049Y133745D01*
X447634Y137161D01*
X445580Y140235D01*
X442965Y142850D01*
X439891Y144904D01*
X436475Y146319D01*
X432849Y147040D01*
D02*
G37*
G36*
X377849D02*
X374151D01*
X370525Y146319D01*
X367109Y144904D01*
X364035Y142850D01*
X361420Y140235D01*
X359366Y137161D01*
X357951Y133745D01*
X357230Y130119D01*
Y126421D01*
X357951Y122795D01*
X359366Y119379D01*
X361420Y116305D01*
X364035Y113690D01*
X367109Y111636D01*
X370525Y110221D01*
X374151Y109500D01*
X377849D01*
X381475Y110221D01*
X384891Y111636D01*
X387965Y113690D01*
X390580Y116305D01*
X392634Y119379D01*
X394049Y122795D01*
X394770Y126421D01*
Y130119D01*
X394049Y133745D01*
X392634Y137161D01*
X390580Y140235D01*
X387965Y142850D01*
X384891Y144904D01*
X381475Y146319D01*
X377849Y147040D01*
D02*
G37*
G36*
X752264Y78770D02*
X747736D01*
X743263Y78062D01*
X738956Y76662D01*
X734921Y74606D01*
X731258Y71944D01*
X728055Y68742D01*
X725394Y65079D01*
X723338Y61044D01*
X721938Y56737D01*
X721230Y52264D01*
Y47736D01*
X721938Y43263D01*
X723338Y38956D01*
X725394Y34921D01*
X728055Y31258D01*
X731258Y28056D01*
X734921Y25394D01*
X738956Y23338D01*
X743263Y21938D01*
X747736Y21230D01*
X752264D01*
X756737Y21938D01*
X761044Y23338D01*
X765079Y25394D01*
X768742Y28056D01*
X771945Y31258D01*
X774606Y34921D01*
X776662Y38956D01*
X778062Y43263D01*
X778770Y47736D01*
Y52264D01*
X778062Y56737D01*
X776662Y61044D01*
X774606Y65079D01*
X771945Y68742D01*
X768742Y71944D01*
X765079Y74606D01*
X761044Y76662D01*
X756737Y78062D01*
X752264Y78770D01*
D02*
G37*
G36*
X52264D02*
X47736D01*
X43263Y78062D01*
X38956Y76662D01*
X34921Y74606D01*
X31258Y71944D01*
X28056Y68742D01*
X25394Y65079D01*
X23338Y61044D01*
X21938Y56737D01*
X21230Y52264D01*
Y47736D01*
X21938Y43263D01*
X23338Y38956D01*
X25394Y34921D01*
X28056Y31258D01*
X31258Y28056D01*
X34921Y25394D01*
X38956Y23338D01*
X43263Y21938D01*
X47736Y21230D01*
X52264D01*
X56737Y21938D01*
X61044Y23338D01*
X65079Y25394D01*
X68742Y28056D01*
X71944Y31258D01*
X74606Y34921D01*
X76662Y38956D01*
X78062Y43263D01*
X78770Y47736D01*
Y52264D01*
X78062Y56737D01*
X76662Y61044D01*
X74606Y65079D01*
X71944Y68742D01*
X68742Y71944D01*
X65079Y74606D01*
X61044Y76662D01*
X56737Y78062D01*
X52264Y78770D01*
D02*
G37*
%LPD*%
G36*
X174500Y443250D02*
Y380000D01*
X166907D01*
X166013Y380901D01*
X166498Y444477D01*
X166580Y444670D01*
X166773Y444750D01*
X173000D01*
X174500Y443250D01*
D02*
G37*
G36*
X506000Y425946D02*
Y410500D01*
X445500D01*
X436250Y401250D01*
X417500D01*
Y423500D01*
X420375Y426375D01*
X505099Y426841D01*
X506000Y425946D01*
D02*
G37*
D21*
X323000Y406250D02*
D03*
X323250Y384000D02*
D03*
X305500Y406250D02*
D03*
X305750Y384000D02*
D03*
D33*
X170250Y384250D02*
D03*
X170500Y440750D02*
D03*
X575000Y207250D02*
D03*
X231000Y418500D02*
D03*
X245000Y411000D02*
D03*
X235500Y406000D02*
D03*
X418000Y362000D02*
D03*
X385250Y361750D02*
D03*
X192686Y367250D02*
D03*
X184000Y399500D02*
D03*
X206750D02*
D03*
Y422250D02*
D03*
X195000Y411000D02*
D03*
X183500Y422250D02*
D03*
X376500Y728500D02*
D03*
X362500D02*
D03*
X348500Y728250D02*
D03*
X341250Y692750D02*
D03*
X384000Y721250D02*
D03*
Y693000D02*
D03*
X377000Y685750D02*
D03*
X362750D02*
D03*
X341250Y721250D02*
D03*
Y707250D02*
D03*
X348750Y685750D02*
D03*
X384000Y706750D02*
D03*
X150000Y338250D02*
D03*
X215500Y279500D02*
D03*
Y301500D02*
D03*
X256888Y368046D02*
D03*
X148750Y481750D02*
D03*
X153500Y568250D02*
D03*
X127500Y608000D02*
D03*
X129000Y726500D02*
D03*
X155750Y726250D02*
D03*
X171500Y569000D02*
D03*
X203000Y670500D02*
D03*
X658750Y305000D02*
D03*
X743250Y152500D02*
D03*
X706000Y353250D02*
D03*
X718750Y253750D02*
D03*
X195620Y460750D02*
D03*
X640500Y111250D02*
D03*
X653750D02*
D03*
X666250D02*
D03*
X640250Y100000D02*
D03*
X653500Y99500D02*
D03*
X666250D02*
D03*
X594500Y52000D02*
D03*
X709500Y51000D02*
D03*
X646000Y366750D02*
D03*
X508000Y473500D02*
D03*
X390750Y442500D02*
D03*
X424000Y442750D02*
D03*
X458750Y442500D02*
D03*
X504618Y784460D02*
D03*
X262000Y784250D02*
D03*
X221000Y576000D02*
D03*
X335250Y422000D02*
D03*
X771750Y524250D02*
D03*
X739250Y426750D02*
D03*
X725000Y477000D02*
D03*
X771250Y499500D02*
D03*
X716750Y508500D02*
D03*
X307000Y707750D02*
D03*
X622000Y458000D02*
D03*
X508328Y573000D02*
D03*
X333250Y587750D02*
D03*
X447500Y758250D02*
D03*
X408000Y525750D02*
D03*
X290000Y598250D02*
D03*
X179750Y362000D02*
D03*
X542250Y557500D02*
D03*
X614000Y466750D02*
D03*
X317500Y631750D02*
D03*
X442000Y526000D02*
D03*
X447000Y720500D02*
D03*
X307250Y682500D02*
D03*
X245000Y400750D02*
D03*
X307000Y695500D02*
D03*
X488000Y619000D02*
D03*
X508000Y535000D02*
D03*
X306750Y644000D02*
D03*
X374000Y526500D02*
D03*
X438500Y771500D02*
D03*
X345500Y442000D02*
D03*
X306250Y369500D02*
D03*
X221456Y508362D02*
D03*
X42000Y536500D02*
D03*
X765000Y593500D02*
D03*
X693250Y344000D02*
D03*
X662250Y350750D02*
D03*
X498000Y418500D02*
D03*
X199750Y473500D02*
D03*
X143250Y503000D02*
D03*
X113000Y502250D02*
D03*
X224000Y384000D02*
D03*
D36*
X455000Y402000D02*
D03*
X480000D02*
D03*
Y418000D02*
D03*
X455000D02*
D03*
D67*
X587000Y290000D02*
D03*
D68*
X562000D02*
D03*
D75*
X245000Y411000D02*
Y633500D01*
X235500Y406000D02*
Y406740D01*
X238000Y409240D02*
Y638750D01*
X235500Y406740D02*
X238000Y409240D01*
X245000Y633500D02*
X307000Y695500D01*
X379000Y361750D02*
X385250D01*
X373000Y367750D02*
X379000Y361750D01*
X373000Y367750D02*
Y380950D01*
X235083Y361583D02*
X279250Y405750D01*
X187956Y362000D02*
X188373Y361583D01*
X179750Y362000D02*
X187956D01*
X188373Y361583D02*
X235083D01*
X238000Y638750D02*
X307000Y707750D01*
X572250Y458000D02*
X622000D01*
X508328Y573000D02*
X558500Y522828D01*
Y471750D02*
X572250Y458000D01*
X558500Y471750D02*
Y522828D01*
X323000Y406250D02*
X323100Y406350D01*
X373000D01*
X320750Y408500D02*
X323000Y406250D01*
X320750Y408500D02*
Y575250D01*
X333250Y587750D01*
X279250Y587500D02*
X290000Y598250D01*
X279250Y405750D02*
Y587500D01*
X575250Y466750D02*
X614000D01*
X563973Y478027D02*
X575250Y466750D01*
X563973Y478027D02*
Y535777D01*
X542250Y557500D02*
X563973Y535777D01*
X317000Y614500D02*
Y631250D01*
X317500Y631750D01*
X412922Y393650D02*
X427000D01*
X377322Y429250D02*
X412922Y393650D01*
X317000Y614500D02*
X352500Y579000D01*
Y440747D02*
X363997Y429250D01*
X352500Y440747D02*
Y579000D01*
X363997Y429250D02*
X377322D01*
X269000Y644250D02*
X307250Y682500D01*
X245000Y400750D02*
X255000D01*
X269000Y414750D01*
Y644250D01*
X488000Y555000D02*
Y619000D01*
Y555000D02*
X508000Y535000D01*
X323250Y384000D02*
X347750D01*
X357400Y393650D01*
X373000D01*
X323196Y383946D02*
X323250Y384000D01*
X299932Y637182D02*
X306750Y644000D01*
X299932Y434682D02*
Y637182D01*
X294064Y428814D02*
X299932Y434682D01*
X294064Y370186D02*
X301000Y363250D01*
X294064Y370186D02*
Y428814D01*
X315500Y363250D02*
X323196Y370946D01*
Y383946D01*
X301000Y363250D02*
X315500D01*
X373000Y419050D02*
X374500D01*
X361700D02*
X373000D01*
X345500Y435250D02*
X361700Y419050D01*
X345500Y435250D02*
Y442000D01*
X170250Y503000D02*
X199750Y473500D01*
X143250Y503000D02*
X170250D01*
X224000Y384000D02*
Y423486D01*
X119395Y496500D02*
X150986D01*
X224000Y423486D01*
X113000Y502250D02*
X113645D01*
X119395Y496500D01*
D80*
X435000Y745750D02*
X447500Y758250D01*
X435000Y552750D02*
Y745750D01*
X408000Y525750D02*
X435000Y552750D01*
X442000Y526000D02*
X447000Y531000D01*
Y720500D01*
X420750Y573250D02*
Y753750D01*
X374000Y526500D02*
X420750Y573250D01*
Y753750D02*
X438500Y771500D01*
X305750Y370000D02*
Y384000D01*
Y370000D02*
X306250Y369500D01*
X305500Y406250D02*
X305625Y406125D01*
Y384125D02*
Y406125D01*
Y384125D02*
X305750Y384000D01*
X666000Y354500D02*
Y520000D01*
X662250Y350750D02*
X666000Y354500D01*
Y520000D02*
X739500Y593500D01*
X662250Y350750D02*
X686500D01*
X739500Y593500D02*
X765000D01*
X686500Y350750D02*
X693250Y344000D01*
D82*
X179927Y373823D02*
X180000Y373750D01*
X95000Y374000D02*
X95177Y373823D01*
X179927D01*
X221456Y508362D02*
Y508794D01*
X193750Y536500D02*
X221456Y508794D01*
X42000Y536500D02*
X193750D01*
X117750Y456250D02*
X170778D01*
X178000Y449028D02*
X178103D01*
X170778Y456250D02*
X178000Y449028D01*
X110514Y449014D02*
X117750Y456250D01*
X95014Y449014D02*
X110514D01*
X95000Y449000D02*
X95014Y449014D01*
D85*
X376000Y128270D02*
D03*
X431000D02*
D03*
X403500Y80639D02*
D03*
D86*
X534500Y510001D02*
D03*
Y480001D02*
D03*
X589500Y510001D02*
D03*
Y480001D02*
D03*
X151500Y640751D02*
D03*
Y610751D02*
D03*
X206500Y640751D02*
D03*
Y610751D02*
D03*
D87*
X668100Y593900D02*
D03*
X95000Y449000D02*
D03*
D88*
X591900Y593900D02*
D03*
X668100Y619300D02*
D03*
X591900D02*
D03*
Y644700D02*
D03*
X668100D02*
D03*
Y670100D02*
D03*
X591900D02*
D03*
X95000Y374000D02*
D03*
Y399000D02*
D03*
Y424000D02*
D03*
D89*
X533800Y764000D02*
D03*
X584600D02*
D03*
X559200D02*
D03*
X689400Y762000D02*
D03*
X610000Y764000D02*
D03*
X664000Y762000D02*
D03*
D90*
X750000Y750000D02*
D03*
Y50000D02*
D03*
X50000Y750000D02*
D03*
Y50000D02*
D03*
D91*
X501500Y73250D02*
D03*
X554750Y73750D02*
D03*
X305250Y74000D02*
D03*
X256750Y74250D02*
D03*
X163250Y74500D02*
D03*
X212750D02*
D03*
X180000Y373750D02*
D03*
X178103Y449028D02*
D03*
D92*
X373000Y419050D02*
D03*
Y406350D02*
D03*
Y393650D02*
D03*
Y380950D02*
D03*
X427000D02*
D03*
Y393650D02*
D03*
Y406350D02*
D03*
Y419050D02*
D03*
M02*
