G04*
G04 #@! TF.GenerationSoftware,Altium Limited,Altium Designer,26.4.1 (12)*
G04*
G04 Layer_Color=16711935*
%FSLAX44Y44*%
%MOMM*%
G71*
G04*
G04 #@! TF.SameCoordinates,3AAC71AF-B553-4883-97ED-8EFCB6E663D3*
G04*
G04*
G04 #@! TF.FilePolarity,Negative*
G04*
G01*
G75*
%ADD46R,1.3000X1.5000*%
%ADD56C,0.7500*%
%ADD59R,1.5500X1.4500*%
%ADD65C,3.6500*%
%ADD66C,1.7500*%
%ADD67R,1.5500X1.5500*%
%ADD68C,1.5500*%
%ADD69R,1.6580X1.6580*%
%ADD70C,1.6580*%
%ADD71O,2.1500X3.1500*%
%ADD72C,5.6500*%
%ADD73C,0.9500*%
%ADD93R,1.6500X0.8000*%
D46*
X323000Y406250D02*
D03*
X323250Y384000D02*
D03*
X305500Y406250D02*
D03*
X305750Y384000D02*
D03*
D56*
X170250Y384250D02*
D03*
X170500Y440750D02*
D03*
X575000Y207250D02*
D03*
X231000Y418500D02*
D03*
X245000Y411000D02*
D03*
X235500Y406000D02*
D03*
X418000Y362000D02*
D03*
X385250Y361750D02*
D03*
X192686Y367250D02*
D03*
X184000Y399500D02*
D03*
X206750D02*
D03*
Y422250D02*
D03*
X195000Y411000D02*
D03*
X183500Y422250D02*
D03*
X376500Y728500D02*
D03*
X362500D02*
D03*
X348500Y728250D02*
D03*
X341250Y692750D02*
D03*
X384000Y721250D02*
D03*
Y693000D02*
D03*
X377000Y685750D02*
D03*
X362750D02*
D03*
X341250Y721250D02*
D03*
Y707250D02*
D03*
X348750Y685750D02*
D03*
X384000Y706750D02*
D03*
X150000Y338250D02*
D03*
X215500Y279500D02*
D03*
Y301500D02*
D03*
X256888Y368046D02*
D03*
X148750Y481750D02*
D03*
X153500Y568250D02*
D03*
X127500Y608000D02*
D03*
X129000Y726500D02*
D03*
X155750Y726250D02*
D03*
X171500Y569000D02*
D03*
X203000Y670500D02*
D03*
X658750Y305000D02*
D03*
X743250Y152500D02*
D03*
X706000Y353250D02*
D03*
X718750Y253750D02*
D03*
X195620Y460750D02*
D03*
X640500Y111250D02*
D03*
X653750D02*
D03*
X666250D02*
D03*
X640250Y100000D02*
D03*
X653500Y99500D02*
D03*
X666250D02*
D03*
X594500Y52000D02*
D03*
X709500Y51000D02*
D03*
X646000Y366750D02*
D03*
X508000Y473500D02*
D03*
X390750Y442500D02*
D03*
X424000Y442750D02*
D03*
X458750Y442500D02*
D03*
X504618Y784460D02*
D03*
X262000Y784250D02*
D03*
X221000Y576000D02*
D03*
X335250Y422000D02*
D03*
X771750Y524250D02*
D03*
X739250Y426750D02*
D03*
X725000Y477000D02*
D03*
X771250Y499500D02*
D03*
X716750Y508500D02*
D03*
X307000Y707750D02*
D03*
X622000Y458000D02*
D03*
X508328Y573000D02*
D03*
X333250Y587750D02*
D03*
X447500Y758250D02*
D03*
X408000Y525750D02*
D03*
X290000Y598250D02*
D03*
X179750Y362000D02*
D03*
X542250Y557500D02*
D03*
X614000Y466750D02*
D03*
X317500Y631750D02*
D03*
X442000Y526000D02*
D03*
X447000Y720500D02*
D03*
X307250Y682500D02*
D03*
X245000Y400750D02*
D03*
X307000Y695500D02*
D03*
X488000Y619000D02*
D03*
X508000Y535000D02*
D03*
X306750Y644000D02*
D03*
X374000Y526500D02*
D03*
X438500Y771500D02*
D03*
X345500Y442000D02*
D03*
X306250Y369500D02*
D03*
X221456Y508362D02*
D03*
X42000Y536500D02*
D03*
X765000Y593500D02*
D03*
X693250Y344000D02*
D03*
X662250Y350750D02*
D03*
X498000Y418500D02*
D03*
X199750Y473500D02*
D03*
X143250Y503000D02*
D03*
X113000Y502250D02*
D03*
X224000Y384000D02*
D03*
D59*
X455000Y402000D02*
D03*
X480000D02*
D03*
Y418000D02*
D03*
X455000D02*
D03*
D65*
X376000Y128270D02*
D03*
X431000D02*
D03*
X403500Y80639D02*
D03*
D66*
X534500Y510001D02*
D03*
Y480001D02*
D03*
X589500Y510001D02*
D03*
Y480001D02*
D03*
X151500Y640751D02*
D03*
Y610751D02*
D03*
X206500Y640751D02*
D03*
Y610751D02*
D03*
D67*
X587000Y290000D02*
D03*
D68*
X562000D02*
D03*
D69*
X668100Y593900D02*
D03*
X95000Y449000D02*
D03*
D70*
X591900Y593900D02*
D03*
X668100Y619300D02*
D03*
X591900D02*
D03*
Y644700D02*
D03*
X668100D02*
D03*
Y670100D02*
D03*
X591900D02*
D03*
X95000Y374000D02*
D03*
Y399000D02*
D03*
Y424000D02*
D03*
D71*
X533800Y764000D02*
D03*
X584600D02*
D03*
X559200D02*
D03*
X689400Y762000D02*
D03*
X610000Y764000D02*
D03*
X664000Y762000D02*
D03*
D72*
X750000Y750000D02*
D03*
Y50000D02*
D03*
X50000Y750000D02*
D03*
Y50000D02*
D03*
D73*
X501500Y73250D02*
D03*
X554750Y73750D02*
D03*
X305250Y74000D02*
D03*
X256750Y74250D02*
D03*
X163250Y74500D02*
D03*
X212750D02*
D03*
X180000Y373750D02*
D03*
X178103Y449028D02*
D03*
D93*
X373000Y419050D02*
D03*
Y406350D02*
D03*
Y393650D02*
D03*
Y380950D02*
D03*
X427000D02*
D03*
Y393650D02*
D03*
Y406350D02*
D03*
Y419050D02*
D03*
M02*
