M48
;Layer_Color=9474304
;FILE_FORMAT=4:4
METRIC,LZ
;TYPE=PLATED
T01F00S00C0.3000
T02F00S00C1.0000
T03F00S00C1.0500
T04F00S00C1.1000
T05F00S00C1.1000
T06F00S00C2.6051
%
T01
X0006096Y00137922
X00104902Y00130048
X00118872Y00130302
X00112014Y00139192
X00118872Y00147828
X00104902Y00148082
X00166878Y00135382
X00211836Y00139954
X00198374Y00161036
Y00214376
X0017272Y0021463
X00147574Y00214376
X00158242Y00200152
X00214376Y00239268
X002413Y00253492
X00250444Y00261874
X00262636
X00264313Y00272643
X00264668Y00328422
X00257302Y00342646
X00265609Y00352552
X00288496Y0035364
X00294386Y00346964
X00304342Y00362222
X00315468Y00363115
X00323596Y0035941
X00325522Y00375703
X00326136Y00390906
X00314974Y00383604
X00292862Y0038735
X00292608Y00376682
X00282448Y00376428
X00272796Y00376174
X00272288Y00386334
X00282067Y00387222
X00340106Y00396494
X00363982Y0036322
X00375412Y00329692
X00318643Y00334216
X00236728Y0030226
X00210058Y00316484
X0020955Y00345186
X00212223Y00390023
X0019812Y00291084
X0017272Y0029083
X00240284Y00221488
X00267716Y00216916
X00282194
X00296672
X00297434Y00159766
X00282473
X00267868
X00363728Y00249428
X00372364Y00262128
X00034798Y00260096
X00411226Y00280924
X00443484Y00344678
X00328475Y0039859
X00327758Y00413774
X00307067Y00409497
X0030099Y00418084
X00292862Y00397764
X00282448Y0039751
X00272288Y00397764
X00257067Y00409497
X00245496Y00408564
X00263297Y00418284
X00210312Y00440436
X0019558Y00437642
X00177038Y00534924
X0038354Y00493014
X00353314Y0045339
T02
X00346202Y00044958
X00371602
Y00121158
X00346202
X00397002
X00422402
Y00044958
X00397002
X00319567Y0048148
X00294567
X00269567
X00244567
T03
X00511811Y00240993
Y00265993
X00522311Y00345694
Y00370694
T04
X00409702Y0044704
X00435102
X00460502
X00485902
T05
X00147574Y00043434
X00172974
X00198374
X00251206
X00276606
X00302006
T06
X00057779Y00362272
X0010541Y00334772
Y00389772
M30
