G04*
G04 #@! TF.GenerationSoftware,Altium Limited,Altium Designer,26.4.1 (12)*
G04*
G04 Layer_Color=65535*
%FSLAX44Y44*%
%MOMM*%
G71*
G04*
G04 #@! TF.SameCoordinates,CA7DD86A-9045-4857-957F-DBCD1D68F48B*
G04*
G04*
G04 #@! TF.FilePolarity,Positive*
G04*
G01*
G75*
%ADD10C,0.2000*%
%ADD11C,0.3000*%
%ADD12C,0.2500*%
%ADD13C,0.2540*%
%ADD14C,0.1500*%
%ADD15C,0.1270*%
%ADD16C,0.1524*%
%ADD17C,0.1905*%
G36*
X500502Y450340D02*
X491502Y459340D01*
X500502D01*
Y450340D01*
D02*
G37*
G36*
X412840Y219301D02*
X412774D01*
Y218638D01*
X412708D01*
Y218041D01*
X412641D01*
Y217311D01*
X412575D01*
Y216647D01*
X412509D01*
Y215984D01*
X412442D01*
Y215320D01*
X412376D01*
Y214656D01*
X412310D01*
Y213993D01*
X412243D01*
Y213329D01*
X412177D01*
Y212599D01*
X412111D01*
Y212002D01*
X412044D01*
Y212069D01*
X411978D01*
Y212135D01*
X411912D01*
Y212201D01*
X411845D01*
Y212267D01*
X411779D01*
Y212334D01*
X411646D01*
Y212400D01*
X411580D01*
Y212533D01*
X411447D01*
Y212599D01*
X411381D01*
Y212666D01*
X411314D01*
Y212732D01*
X411248D01*
Y212798D01*
X411182D01*
Y212865D01*
X411115D01*
Y212931D01*
X411049D01*
Y212997D01*
X410983D01*
Y213064D01*
X410916D01*
Y213130D01*
X410850D01*
Y213197D01*
X410783D01*
Y213263D01*
X410717D01*
Y213329D01*
X410651D01*
Y213396D01*
X410584D01*
Y213462D01*
X410518D01*
Y213528D01*
X410452D01*
Y213595D01*
X410385D01*
Y213661D01*
X410319D01*
Y213727D01*
X410252D01*
Y213794D01*
X410186D01*
Y213860D01*
X410120D01*
Y213927D01*
X410053D01*
Y213993D01*
X409987D01*
Y214059D01*
X409921D01*
Y214126D01*
X409788D01*
Y214059D01*
X409722D01*
Y213993D01*
X409589D01*
Y213927D01*
X409523D01*
Y213794D01*
X409390D01*
Y213661D01*
X409324D01*
Y213595D01*
X409191D01*
Y213462D01*
X409124D01*
Y213396D01*
X408992D01*
Y213263D01*
X408925D01*
Y213197D01*
X408859D01*
Y213130D01*
X408793D01*
Y213064D01*
X408726D01*
Y212997D01*
X408660D01*
Y212931D01*
X408594D01*
Y212865D01*
X408527D01*
Y212798D01*
X408461D01*
Y212732D01*
X408328D01*
Y212599D01*
X408262D01*
Y212533D01*
X408129D01*
Y212400D01*
X408063D01*
Y212334D01*
X407930D01*
Y212201D01*
X407864D01*
Y212135D01*
X407797D01*
Y212069D01*
X407731D01*
Y212002D01*
X407665D01*
Y211936D01*
X407532D01*
Y211803D01*
X407466D01*
Y211737D01*
X407333D01*
Y211604D01*
X407267D01*
Y211538D01*
X407134D01*
Y211405D01*
X407067D01*
Y211339D01*
X407001D01*
Y211272D01*
X406935D01*
Y211206D01*
X406868D01*
Y211140D01*
X406736D01*
Y211007D01*
X406669D01*
Y210940D01*
X406536D01*
Y210808D01*
X406470D01*
Y210741D01*
X406338D01*
Y210609D01*
X406271D01*
Y210542D01*
X406205D01*
Y210476D01*
X406138D01*
Y210410D01*
X406072D01*
Y210343D01*
X405939D01*
Y210210D01*
X405873D01*
Y210144D01*
X405740D01*
Y210011D01*
X405674D01*
Y209945D01*
X405541D01*
Y209812D01*
X405475D01*
Y209746D01*
X405342D01*
Y209680D01*
X405276D01*
Y209547D01*
X405143D01*
Y209414D01*
X405077D01*
Y209348D01*
X404944D01*
Y209215D01*
X404878D01*
Y209149D01*
X404745D01*
Y209016D01*
X404678D01*
Y208950D01*
X404612D01*
Y208883D01*
X404546D01*
Y208817D01*
X404479D01*
Y208751D01*
X404413D01*
Y208684D01*
X404347D01*
Y208618D01*
X404280D01*
Y208552D01*
X404214D01*
Y208485D01*
X404081D01*
Y208353D01*
X404015D01*
Y208286D01*
X403882D01*
Y208153D01*
X403816D01*
Y208087D01*
X403683D01*
Y207954D01*
X403617D01*
Y207888D01*
X403550D01*
Y207822D01*
X403484D01*
Y207755D01*
X403418D01*
Y207689D01*
X403285D01*
Y207556D01*
X403219D01*
Y207490D01*
X403086D01*
Y207357D01*
X403020D01*
Y207291D01*
X402887D01*
Y207158D01*
X402821D01*
Y207092D01*
X402754D01*
Y207025D01*
X402688D01*
Y206959D01*
X402621D01*
Y206893D01*
X402489D01*
Y206760D01*
X402422D01*
Y206693D01*
X402290D01*
Y206561D01*
X402223D01*
Y206495D01*
X402091D01*
Y206362D01*
X402024D01*
Y206295D01*
X401958D01*
Y206229D01*
X401892D01*
Y206163D01*
X401825D01*
Y206096D01*
X401692D01*
Y205964D01*
X401626D01*
Y205897D01*
X401493D01*
Y205765D01*
X401427D01*
Y205698D01*
X401294D01*
Y205565D01*
X401228D01*
Y205499D01*
X401095D01*
Y205433D01*
X401029D01*
Y205300D01*
X400896D01*
Y205167D01*
X400830D01*
Y205101D01*
X400697D01*
Y204968D01*
X400631D01*
Y204902D01*
X400498D01*
Y204769D01*
X400432D01*
Y204703D01*
X400365D01*
Y204636D01*
X400299D01*
Y204570D01*
X400233D01*
Y204504D01*
X400166D01*
Y204437D01*
X400100D01*
Y204371D01*
X400033D01*
Y204305D01*
X399967D01*
Y204238D01*
X399834D01*
Y204106D01*
X399768D01*
Y204039D01*
X399635D01*
Y203906D01*
X399569D01*
Y203840D01*
X399436D01*
Y203707D01*
X399370D01*
Y203641D01*
X399304D01*
Y203575D01*
X399237D01*
Y203508D01*
X399171D01*
Y203442D01*
X399038D01*
Y203309D01*
X398972D01*
Y203243D01*
X398839D01*
Y203110D01*
X398773D01*
Y203044D01*
X398640D01*
Y202911D01*
X398574D01*
Y202845D01*
X398507D01*
Y202778D01*
X398441D01*
Y202712D01*
X398375D01*
Y202646D01*
X398242D01*
Y202513D01*
X398176D01*
Y202447D01*
X398043D01*
Y202314D01*
X397976D01*
Y202248D01*
X397844D01*
Y202115D01*
X397777D01*
Y202048D01*
X397711D01*
Y201982D01*
X397645D01*
Y201916D01*
X397578D01*
Y201849D01*
X397446D01*
Y201717D01*
X397379D01*
Y201650D01*
X397247D01*
Y201518D01*
X397180D01*
Y201451D01*
X397047D01*
Y201319D01*
X396981D01*
Y201252D01*
X396848D01*
Y201186D01*
X396782D01*
Y201053D01*
X396649D01*
Y200920D01*
X396583D01*
Y200854D01*
X396450D01*
Y200721D01*
X396384D01*
Y200655D01*
X396251D01*
Y200522D01*
X396185D01*
Y200456D01*
X396118D01*
Y200390D01*
X396052D01*
Y200323D01*
X395986D01*
Y200257D01*
X395919D01*
Y200191D01*
X395853D01*
Y200124D01*
X395787D01*
Y200058D01*
X395720D01*
Y199991D01*
X395588D01*
Y199859D01*
X395521D01*
Y199792D01*
X395388D01*
Y199660D01*
X395322D01*
Y199593D01*
X395189D01*
Y199461D01*
X395123D01*
Y199394D01*
X395057D01*
Y199328D01*
X394990D01*
Y199261D01*
X394924D01*
Y199195D01*
X394791D01*
Y199062D01*
X394725D01*
Y198996D01*
X394592D01*
Y198863D01*
X394526D01*
Y198797D01*
X394393D01*
Y198664D01*
X394327D01*
Y198598D01*
X394260D01*
Y198532D01*
X394194D01*
Y198465D01*
X394128D01*
Y198399D01*
X393995D01*
Y198266D01*
X393929D01*
Y198200D01*
X393796D01*
Y198067D01*
X393730D01*
Y198001D01*
X393597D01*
Y197868D01*
X393531D01*
Y197802D01*
X393464D01*
Y197735D01*
X393398D01*
Y197669D01*
X393331D01*
Y197603D01*
X393199D01*
Y197470D01*
X393132D01*
Y197404D01*
X393000D01*
Y197271D01*
X392933D01*
Y197204D01*
X392800D01*
Y197072D01*
X392734D01*
Y197005D01*
X392602D01*
Y196939D01*
X392535D01*
Y196806D01*
X392402D01*
Y196674D01*
X392336D01*
Y196607D01*
X392203D01*
Y196474D01*
X392137D01*
Y196408D01*
X392004D01*
Y196275D01*
X391938D01*
Y196209D01*
X391871D01*
Y196143D01*
X391805D01*
Y196076D01*
X391739D01*
Y196010D01*
X391672D01*
Y195944D01*
X391606D01*
Y195877D01*
X391540D01*
Y195811D01*
X391473D01*
Y195744D01*
X391341D01*
Y195612D01*
X391274D01*
Y195546D01*
X391142D01*
Y195413D01*
X391075D01*
Y195346D01*
X390942D01*
Y195214D01*
X390876D01*
Y195147D01*
X390810D01*
Y195081D01*
X390743D01*
Y195015D01*
X390677D01*
Y194948D01*
X390544D01*
Y194816D01*
X390478D01*
Y194749D01*
X390345D01*
Y194617D01*
X390279D01*
Y194550D01*
X390146D01*
Y194417D01*
X390080D01*
Y194351D01*
X390014D01*
Y194285D01*
X389947D01*
Y194218D01*
X389881D01*
Y194152D01*
X389748D01*
Y194019D01*
X389682D01*
Y193953D01*
X389549D01*
Y193820D01*
X389483D01*
Y193754D01*
X389350D01*
Y193621D01*
X389284D01*
Y193555D01*
X389217D01*
Y193488D01*
X389151D01*
Y193422D01*
X389085D01*
Y193356D01*
X388952D01*
Y193223D01*
X388885D01*
Y193157D01*
X388753D01*
Y193024D01*
X388686D01*
Y192957D01*
X388554D01*
Y192825D01*
X388487D01*
Y192758D01*
X388355D01*
Y192692D01*
X388288D01*
Y192559D01*
X388156D01*
Y192427D01*
X388089D01*
Y192360D01*
X387956D01*
Y192228D01*
X387890D01*
Y192161D01*
X387757D01*
Y192029D01*
X387691D01*
Y191962D01*
X387625D01*
Y191896D01*
X387558D01*
Y191829D01*
X387492D01*
Y191763D01*
X387426D01*
Y191697D01*
X387359D01*
Y191630D01*
X387293D01*
Y191564D01*
X387226D01*
Y191498D01*
X387094D01*
Y191365D01*
X387027D01*
Y191299D01*
X386895D01*
Y191166D01*
X386828D01*
Y191099D01*
X386696D01*
Y190967D01*
X386629D01*
Y190900D01*
X386563D01*
Y190834D01*
X386497D01*
Y190768D01*
X386430D01*
Y190701D01*
X386297D01*
Y190569D01*
X386231D01*
Y190502D01*
X386098D01*
Y190370D01*
X386032D01*
Y190303D01*
X385899D01*
Y190170D01*
X385833D01*
Y190104D01*
X385767D01*
Y190038D01*
X385700D01*
Y189971D01*
X385634D01*
Y189905D01*
X385501D01*
Y189772D01*
X385435D01*
Y189706D01*
X385302D01*
Y189573D01*
X385236D01*
Y189507D01*
X385103D01*
Y189374D01*
X385037D01*
Y189308D01*
X384970D01*
Y189242D01*
X384904D01*
Y189175D01*
X384838D01*
Y189109D01*
X384705D01*
Y188976D01*
X384639D01*
Y188910D01*
X384506D01*
Y188777D01*
X384440D01*
Y188711D01*
X384307D01*
Y188578D01*
X384240D01*
Y188512D01*
X384108D01*
Y188445D01*
X384041D01*
Y188312D01*
X383909D01*
Y188180D01*
X383842D01*
Y188113D01*
X383709D01*
Y187981D01*
X383643D01*
Y187914D01*
X383511D01*
Y187782D01*
X383444D01*
Y187715D01*
X383378D01*
Y187649D01*
X383311D01*
Y187583D01*
X383245D01*
Y187516D01*
X383179D01*
Y187450D01*
X383112D01*
Y187383D01*
X383046D01*
Y187317D01*
X382980D01*
Y187251D01*
X382847D01*
Y187118D01*
X382780D01*
Y187052D01*
X382648D01*
Y186919D01*
X382581D01*
Y186853D01*
X382449D01*
Y186720D01*
X382382D01*
Y186654D01*
X382316D01*
Y186587D01*
X382250D01*
Y186521D01*
X382183D01*
Y186455D01*
X382051D01*
Y186322D01*
X381984D01*
Y186255D01*
X381852D01*
Y186123D01*
X381785D01*
Y186056D01*
X381652D01*
Y185924D01*
X381586D01*
Y185857D01*
X381520D01*
Y185791D01*
X381453D01*
Y185725D01*
X381387D01*
Y185658D01*
X381254D01*
Y185525D01*
X381188D01*
Y185459D01*
X381055D01*
Y185326D01*
X380989D01*
Y185260D01*
X380856D01*
Y185127D01*
X380790D01*
Y185061D01*
X380723D01*
Y184995D01*
X380657D01*
Y184928D01*
X380591D01*
Y184862D01*
X380458D01*
Y184729D01*
X380392D01*
Y184663D01*
X380259D01*
Y184530D01*
X380193D01*
Y184464D01*
X380060D01*
Y184331D01*
X379994D01*
Y184265D01*
X379861D01*
Y184198D01*
X379795D01*
Y184066D01*
X379662D01*
Y183933D01*
X379595D01*
Y183867D01*
X379463D01*
Y183734D01*
X379396D01*
Y183668D01*
X379264D01*
Y183535D01*
X379197D01*
Y183468D01*
X379131D01*
Y183402D01*
X379064D01*
Y183336D01*
X378998D01*
Y183269D01*
X378932D01*
Y183203D01*
X378866D01*
Y183137D01*
X378799D01*
Y183070D01*
X378733D01*
Y183004D01*
X378600D01*
Y182871D01*
X378534D01*
Y182805D01*
X378401D01*
Y182672D01*
X378335D01*
Y182606D01*
X378202D01*
Y182473D01*
X378135D01*
Y182407D01*
X378069D01*
Y182340D01*
X378003D01*
Y182274D01*
X377937D01*
Y182208D01*
X377804D01*
Y182075D01*
X377737D01*
Y182008D01*
X377605D01*
Y181876D01*
X377538D01*
Y181810D01*
X377406D01*
Y181677D01*
X377339D01*
Y181610D01*
X377273D01*
Y181544D01*
X377206D01*
Y181478D01*
X377140D01*
Y181411D01*
X377007D01*
Y181279D01*
X376941D01*
Y181212D01*
X376808D01*
Y181080D01*
X376742D01*
Y181013D01*
X376609D01*
Y180881D01*
X376543D01*
Y180814D01*
X376477D01*
Y180748D01*
X376410D01*
Y180681D01*
X376344D01*
Y180615D01*
X376211D01*
Y180482D01*
X376145D01*
Y180416D01*
X376012D01*
Y180283D01*
X375946D01*
Y180217D01*
X375813D01*
Y180084D01*
X375747D01*
Y180018D01*
X375614D01*
Y179951D01*
X375548D01*
Y179819D01*
X375415D01*
Y179686D01*
X375349D01*
Y179620D01*
X375216D01*
Y179487D01*
X375149D01*
Y179421D01*
X375017D01*
Y179288D01*
X374950D01*
Y179221D01*
X374884D01*
Y179155D01*
X374818D01*
Y179089D01*
X374751D01*
Y179023D01*
X374685D01*
Y178956D01*
X374619D01*
Y178890D01*
X374552D01*
Y178823D01*
X374486D01*
Y178757D01*
X374353D01*
Y178624D01*
X374287D01*
Y178558D01*
X374154D01*
Y178425D01*
X374088D01*
Y178359D01*
X373955D01*
Y178226D01*
X373889D01*
Y178160D01*
X373822D01*
Y178093D01*
X373756D01*
Y178027D01*
X373690D01*
Y177961D01*
X373557D01*
Y177828D01*
X373490D01*
Y177762D01*
X373358D01*
Y177629D01*
X373291D01*
Y177563D01*
X373159D01*
Y177430D01*
X373092D01*
Y177363D01*
X373026D01*
Y177297D01*
X372960D01*
Y177231D01*
X372893D01*
Y177164D01*
X372761D01*
Y177032D01*
X372694D01*
Y176965D01*
X372561D01*
Y176833D01*
X372495D01*
Y176766D01*
X372362D01*
Y176634D01*
X372296D01*
Y176567D01*
X372230D01*
Y176501D01*
X372163D01*
Y176434D01*
X372097D01*
Y176368D01*
X371964D01*
Y176235D01*
X371898D01*
Y176169D01*
X371765D01*
Y176036D01*
X371699D01*
Y175970D01*
X371566D01*
Y175837D01*
X371500D01*
Y175771D01*
X371367D01*
Y175705D01*
X371301D01*
Y175572D01*
X371168D01*
Y175439D01*
X371102D01*
Y175373D01*
X370969D01*
Y175240D01*
X370903D01*
Y175174D01*
X370770D01*
Y175041D01*
X370704D01*
Y174975D01*
X370637D01*
Y174908D01*
X370571D01*
Y174842D01*
X370504D01*
Y174776D01*
X370438D01*
Y174709D01*
X370372D01*
Y174643D01*
X370305D01*
Y174576D01*
X370239D01*
Y174510D01*
X370106D01*
Y174377D01*
X370040D01*
Y174311D01*
X369907D01*
Y174178D01*
X369841D01*
Y174112D01*
X369708D01*
Y173979D01*
X369642D01*
Y173913D01*
X369575D01*
Y173847D01*
X369509D01*
Y173780D01*
X369443D01*
Y173714D01*
X369310D01*
Y173581D01*
X369244D01*
Y173515D01*
X369111D01*
Y173382D01*
X369045D01*
Y173316D01*
X368912D01*
Y173183D01*
X368845D01*
Y173117D01*
X368779D01*
Y173050D01*
X368713D01*
Y172984D01*
X368646D01*
Y172918D01*
X368514D01*
Y172785D01*
X368447D01*
Y172719D01*
X368315D01*
Y172586D01*
X368248D01*
Y172519D01*
X368116D01*
Y172387D01*
X368049D01*
Y172320D01*
X367983D01*
Y172254D01*
X367916D01*
Y172188D01*
X367850D01*
Y172121D01*
X367717D01*
Y171989D01*
X367651D01*
Y171922D01*
X367518D01*
Y171789D01*
X367452D01*
Y171723D01*
X367319D01*
Y171590D01*
X367253D01*
Y171524D01*
X367120D01*
Y171458D01*
X367054D01*
Y171325D01*
X366987D01*
Y167476D01*
X377804D01*
Y167344D01*
X377737D01*
Y167277D01*
X377605D01*
Y167144D01*
X377538D01*
Y167078D01*
X377406D01*
Y167012D01*
X377339D01*
Y166879D01*
X377206D01*
Y166746D01*
X377140D01*
Y166680D01*
X377074D01*
Y166614D01*
X377007D01*
Y166547D01*
X376941D01*
Y166481D01*
X376808D01*
Y166348D01*
X376742D01*
Y166282D01*
X376676D01*
Y166215D01*
X376609D01*
Y166149D01*
X376543D01*
Y166083D01*
X376477D01*
Y166016D01*
X376410D01*
Y165950D01*
X376344D01*
Y165884D01*
X376278D01*
Y165817D01*
X376211D01*
Y165751D01*
X376145D01*
Y165685D01*
X376078D01*
Y165618D01*
X376012D01*
Y165552D01*
X375946D01*
Y165485D01*
X375879D01*
Y165419D01*
X375813D01*
Y165353D01*
X375747D01*
Y165286D01*
X375680D01*
Y165220D01*
X375614D01*
Y165154D01*
X375548D01*
Y165087D01*
X375481D01*
Y165021D01*
X375415D01*
Y164955D01*
X375349D01*
Y164888D01*
X375282D01*
Y164822D01*
X375216D01*
Y164756D01*
X375149D01*
Y164689D01*
X375083D01*
Y164623D01*
X375017D01*
Y164557D01*
X374950D01*
Y164490D01*
X374884D01*
Y164424D01*
X374818D01*
Y164357D01*
X374751D01*
Y164291D01*
X374685D01*
Y164225D01*
X374619D01*
Y164158D01*
X374552D01*
Y164092D01*
X374486D01*
Y164026D01*
X374420D01*
Y163959D01*
X374353D01*
Y163893D01*
X374287D01*
Y163827D01*
X374220D01*
Y163760D01*
X374154D01*
Y163694D01*
X374088D01*
Y163627D01*
X363338D01*
Y163561D01*
X363271D01*
Y163627D01*
X363139D01*
Y172652D01*
X363205D01*
Y172719D01*
X363271D01*
Y172785D01*
X363338D01*
Y172851D01*
X363404D01*
Y172918D01*
X363470D01*
Y172984D01*
X363537D01*
Y173050D01*
X363603D01*
Y173117D01*
X363670D01*
Y173183D01*
X363736D01*
Y173249D01*
X363802D01*
Y173316D01*
X363869D01*
Y173382D01*
X363935D01*
Y173448D01*
X364001D01*
Y173515D01*
X364068D01*
Y173581D01*
X364134D01*
Y173647D01*
X364200D01*
Y173714D01*
X364267D01*
Y173780D01*
X364333D01*
Y173847D01*
X364399D01*
Y173913D01*
X364466D01*
Y173979D01*
X364532D01*
Y174046D01*
X364599D01*
Y174112D01*
X364665D01*
Y174178D01*
X364731D01*
Y174245D01*
X364798D01*
Y174311D01*
X364864D01*
Y174377D01*
X364930D01*
Y174444D01*
X364997D01*
Y174510D01*
X365063D01*
Y174576D01*
X365129D01*
Y174643D01*
X365196D01*
Y174709D01*
X365262D01*
Y174776D01*
X365328D01*
Y174842D01*
X365395D01*
Y174908D01*
X365461D01*
Y174975D01*
X365528D01*
Y175041D01*
X365594D01*
Y175107D01*
X365660D01*
Y175174D01*
X365727D01*
Y175240D01*
X365793D01*
Y175306D01*
X365859D01*
Y175373D01*
X365926D01*
Y175439D01*
X365992D01*
Y175506D01*
X366059D01*
Y175572D01*
X366125D01*
Y175638D01*
X366191D01*
Y175705D01*
X366258D01*
Y175771D01*
X366324D01*
Y175837D01*
X366390D01*
Y175904D01*
X366457D01*
Y175970D01*
X366523D01*
Y176036D01*
X366589D01*
Y176103D01*
X366656D01*
Y176169D01*
X366722D01*
Y176235D01*
X366788D01*
Y176302D01*
X366855D01*
Y176368D01*
X366921D01*
Y176434D01*
X366987D01*
Y176501D01*
X367054D01*
Y176567D01*
X367120D01*
Y176634D01*
X367187D01*
Y176700D01*
X367253D01*
Y176766D01*
X367319D01*
Y176833D01*
X367386D01*
Y176899D01*
X367452D01*
Y176965D01*
X367518D01*
Y177032D01*
X367585D01*
Y177098D01*
X367651D01*
Y177164D01*
X367717D01*
Y177231D01*
X367784D01*
Y177297D01*
X367850D01*
Y177363D01*
X367916D01*
Y177430D01*
X367983D01*
Y177496D01*
X368049D01*
Y177563D01*
X368116D01*
Y177629D01*
X368182D01*
Y177695D01*
X368248D01*
Y177762D01*
X368315D01*
Y177828D01*
X368381D01*
Y177894D01*
X368447D01*
Y177961D01*
X368514D01*
Y178027D01*
X368580D01*
Y178093D01*
X368646D01*
Y178160D01*
X368713D01*
Y178226D01*
X368779D01*
Y178293D01*
X368845D01*
Y178359D01*
X368912D01*
Y178425D01*
X368978D01*
Y178492D01*
X369045D01*
Y178558D01*
X369111D01*
Y178624D01*
X369177D01*
Y178691D01*
X369244D01*
Y178757D01*
X369310D01*
Y178823D01*
X369376D01*
Y178890D01*
X369443D01*
Y178956D01*
X369509D01*
Y179023D01*
X369575D01*
Y179089D01*
X369642D01*
Y179155D01*
X369708D01*
Y179221D01*
X369775D01*
Y179288D01*
X369841D01*
Y179354D01*
X369907D01*
Y179421D01*
X369974D01*
Y179487D01*
X370040D01*
Y179553D01*
X370106D01*
Y179620D01*
X370173D01*
Y179686D01*
X370239D01*
Y179752D01*
X370305D01*
Y179819D01*
X370372D01*
Y179885D01*
X370438D01*
Y179951D01*
X370504D01*
Y180018D01*
X370571D01*
Y180084D01*
X370637D01*
Y180151D01*
X370704D01*
Y180217D01*
X370770D01*
Y180283D01*
X370836D01*
Y180350D01*
X370903D01*
Y180416D01*
X370969D01*
Y180482D01*
X371035D01*
Y180549D01*
X371102D01*
Y180615D01*
X371168D01*
Y180681D01*
X371234D01*
Y180748D01*
X371301D01*
Y180814D01*
X371367D01*
Y180881D01*
X371433D01*
Y180947D01*
X371500D01*
Y181013D01*
X371566D01*
Y181080D01*
X371632D01*
Y181146D01*
X371699D01*
Y181212D01*
X371765D01*
Y181279D01*
X371832D01*
Y181345D01*
X371898D01*
Y181411D01*
X371964D01*
Y181478D01*
X372031D01*
Y181544D01*
X372097D01*
Y181610D01*
X372163D01*
Y181677D01*
X372230D01*
Y181743D01*
X372296D01*
Y181810D01*
X372362D01*
Y181876D01*
X372429D01*
Y181942D01*
X372495D01*
Y182008D01*
X372561D01*
Y182075D01*
X372628D01*
Y182141D01*
X372694D01*
Y182208D01*
X372761D01*
Y182274D01*
X372827D01*
Y182340D01*
X372893D01*
Y182407D01*
X372960D01*
Y182473D01*
X373026D01*
Y182539D01*
X373092D01*
Y182606D01*
X373159D01*
Y182672D01*
X373225D01*
Y182738D01*
X373291D01*
Y182805D01*
X373358D01*
Y182871D01*
X373424D01*
Y182938D01*
X373490D01*
Y183004D01*
X373557D01*
Y183070D01*
X373623D01*
Y183137D01*
X373690D01*
Y183203D01*
X373756D01*
Y183269D01*
X373822D01*
Y183336D01*
X373889D01*
Y183402D01*
X373955D01*
Y183468D01*
X374021D01*
Y183535D01*
X374088D01*
Y183601D01*
X374154D01*
Y183668D01*
X374220D01*
Y183734D01*
X374287D01*
Y183800D01*
X374353D01*
Y183867D01*
X374420D01*
Y183933D01*
X374486D01*
Y183999D01*
X374552D01*
Y184066D01*
X374619D01*
Y184132D01*
X374685D01*
Y184198D01*
X374751D01*
Y184265D01*
X374818D01*
Y184331D01*
X374884D01*
Y184397D01*
X374950D01*
Y184464D01*
X375017D01*
Y184530D01*
X375083D01*
Y184597D01*
X375149D01*
Y184663D01*
X375216D01*
Y184729D01*
X375282D01*
Y184795D01*
X375349D01*
Y184862D01*
X375415D01*
Y184928D01*
X375481D01*
Y184995D01*
X375548D01*
Y185061D01*
X375614D01*
Y185127D01*
X375680D01*
Y185194D01*
X375747D01*
Y185260D01*
X375813D01*
Y185326D01*
X375879D01*
Y185393D01*
X375946D01*
Y185459D01*
X376012D01*
Y185525D01*
X376078D01*
Y185592D01*
X376145D01*
Y185658D01*
X376211D01*
Y185725D01*
X376278D01*
Y185791D01*
X376344D01*
Y185857D01*
X376410D01*
Y185924D01*
X376477D01*
Y185990D01*
X376543D01*
Y186056D01*
X376609D01*
Y186123D01*
X376676D01*
Y186189D01*
X376742D01*
Y186255D01*
X376808D01*
Y186322D01*
X376875D01*
Y186388D01*
X376941D01*
Y186455D01*
X377007D01*
Y186521D01*
X377074D01*
Y186587D01*
X377140D01*
Y186654D01*
X377206D01*
Y186720D01*
X377273D01*
Y186786D01*
X377339D01*
Y186853D01*
X377406D01*
Y186919D01*
X377472D01*
Y186985D01*
X377538D01*
Y187052D01*
X377605D01*
Y187118D01*
X377671D01*
Y187184D01*
X377737D01*
Y187251D01*
X377804D01*
Y187317D01*
X377870D01*
Y187383D01*
X377937D01*
Y187450D01*
X378003D01*
Y187516D01*
X378069D01*
Y187583D01*
X378135D01*
Y187649D01*
X378202D01*
Y187715D01*
X378268D01*
Y187782D01*
X378335D01*
Y187848D01*
X378401D01*
Y187914D01*
X378467D01*
Y187981D01*
X378534D01*
Y188047D01*
X378600D01*
Y188113D01*
X378666D01*
Y188180D01*
X378733D01*
Y188246D01*
X378799D01*
Y188312D01*
X378866D01*
Y188379D01*
X378932D01*
Y188445D01*
X378998D01*
Y188512D01*
X379064D01*
Y188578D01*
X379131D01*
Y188644D01*
X379197D01*
Y188711D01*
X379264D01*
Y188777D01*
X379330D01*
Y188843D01*
X379396D01*
Y188910D01*
X379463D01*
Y188976D01*
X379529D01*
Y189042D01*
X379595D01*
Y189109D01*
X379662D01*
Y189175D01*
X379728D01*
Y189242D01*
X379795D01*
Y189308D01*
X379861D01*
Y189374D01*
X379927D01*
Y189441D01*
X379994D01*
Y189507D01*
X380060D01*
Y189573D01*
X380126D01*
Y189640D01*
X380193D01*
Y189706D01*
X380259D01*
Y189772D01*
X380325D01*
Y189839D01*
X380392D01*
Y189905D01*
X380458D01*
Y189971D01*
X380524D01*
Y190038D01*
X380591D01*
Y190104D01*
X380657D01*
Y190170D01*
X380723D01*
Y190237D01*
X380790D01*
Y190303D01*
X380856D01*
Y190370D01*
X380923D01*
Y190436D01*
X380989D01*
Y190502D01*
X381055D01*
Y190569D01*
X381122D01*
Y190635D01*
X381188D01*
Y190701D01*
X381254D01*
Y190768D01*
X381321D01*
Y190834D01*
X381387D01*
Y190900D01*
X381453D01*
Y190967D01*
X381520D01*
Y191033D01*
X381586D01*
Y191099D01*
X381652D01*
Y191166D01*
X381719D01*
Y191232D01*
X381785D01*
Y191299D01*
X381852D01*
Y191365D01*
X381918D01*
Y191431D01*
X381984D01*
Y191498D01*
X382051D01*
Y191564D01*
X382117D01*
Y191630D01*
X382183D01*
Y191697D01*
X382250D01*
Y191763D01*
X382316D01*
Y191829D01*
X382382D01*
Y191896D01*
X382449D01*
Y191962D01*
X382515D01*
Y192029D01*
X382581D01*
Y192095D01*
X382648D01*
Y192161D01*
X382714D01*
Y192228D01*
X382780D01*
Y192294D01*
X382847D01*
Y192360D01*
X382913D01*
Y192427D01*
X382980D01*
Y192493D01*
X383046D01*
Y192559D01*
X383112D01*
Y192626D01*
X383179D01*
Y192692D01*
X383245D01*
Y192758D01*
X383311D01*
Y192825D01*
X383378D01*
Y192891D01*
X383444D01*
Y192957D01*
X383511D01*
Y193024D01*
X383577D01*
Y193090D01*
X383643D01*
Y193157D01*
X383709D01*
Y193223D01*
X383776D01*
Y193289D01*
X383842D01*
Y193356D01*
X383909D01*
Y193422D01*
X383975D01*
Y193488D01*
X384041D01*
Y193555D01*
X384108D01*
Y193621D01*
X384174D01*
Y193687D01*
X384240D01*
Y193754D01*
X384307D01*
Y193820D01*
X384373D01*
Y193887D01*
X384440D01*
Y193953D01*
X384506D01*
Y194019D01*
X384572D01*
Y194086D01*
X384639D01*
Y194152D01*
X384705D01*
Y194218D01*
X384771D01*
Y194285D01*
X384838D01*
Y194351D01*
X384904D01*
Y194417D01*
X384970D01*
Y194484D01*
X385037D01*
Y194550D01*
X385103D01*
Y194617D01*
X385169D01*
Y194683D01*
X385236D01*
Y194749D01*
X385302D01*
Y194816D01*
X385368D01*
Y194882D01*
X385435D01*
Y194948D01*
X385501D01*
Y195015D01*
X385568D01*
Y195081D01*
X385634D01*
Y195147D01*
X385700D01*
Y195214D01*
X385767D01*
Y195280D01*
X385833D01*
Y195346D01*
X385899D01*
Y195413D01*
X385966D01*
Y195479D01*
X386032D01*
Y195546D01*
X386098D01*
Y195612D01*
X386165D01*
Y195678D01*
X386231D01*
Y195744D01*
X386297D01*
Y195811D01*
X386364D01*
Y195877D01*
X386430D01*
Y195944D01*
X386497D01*
Y196010D01*
X386563D01*
Y196076D01*
X386629D01*
Y196143D01*
X386696D01*
Y196209D01*
X386762D01*
Y196275D01*
X386828D01*
Y196342D01*
X386895D01*
Y196408D01*
X386961D01*
Y196474D01*
X387027D01*
Y196541D01*
X387094D01*
Y196607D01*
X387160D01*
Y196674D01*
X387226D01*
Y196740D01*
X387293D01*
Y196806D01*
X387359D01*
Y196873D01*
X387426D01*
Y196939D01*
X387492D01*
Y197005D01*
X387558D01*
Y197072D01*
X387625D01*
Y197138D01*
X387691D01*
Y197204D01*
X387757D01*
Y197271D01*
X387824D01*
Y197337D01*
X387890D01*
Y197404D01*
X387956D01*
Y197470D01*
X388023D01*
Y197536D01*
X388089D01*
Y197603D01*
X388156D01*
Y197669D01*
X388222D01*
Y197735D01*
X388288D01*
Y197802D01*
X388355D01*
Y197868D01*
X388421D01*
Y197934D01*
X388487D01*
Y198001D01*
X388554D01*
Y198067D01*
X388620D01*
Y198133D01*
X388686D01*
Y198200D01*
X388753D01*
Y198266D01*
X388819D01*
Y198333D01*
X388885D01*
Y198399D01*
X388952D01*
Y198465D01*
X389018D01*
Y198532D01*
X389085D01*
Y198598D01*
X389151D01*
Y198664D01*
X389217D01*
Y198731D01*
X389284D01*
Y198797D01*
X389350D01*
Y198863D01*
X389416D01*
Y198930D01*
X389483D01*
Y198996D01*
X389549D01*
Y199062D01*
X389615D01*
Y199129D01*
X389682D01*
Y199195D01*
X389748D01*
Y199261D01*
X389814D01*
Y199328D01*
X389881D01*
Y199394D01*
X389947D01*
Y199461D01*
X390014D01*
Y199527D01*
X390080D01*
Y199593D01*
X390146D01*
Y199660D01*
X390213D01*
Y199726D01*
X390279D01*
Y199792D01*
X390345D01*
Y199859D01*
X390412D01*
Y199925D01*
X390478D01*
Y199991D01*
X390544D01*
Y200058D01*
X390611D01*
Y200124D01*
X390677D01*
Y200191D01*
X390743D01*
Y200257D01*
X390810D01*
Y200323D01*
X390876D01*
Y200390D01*
X390942D01*
Y200456D01*
X391009D01*
Y200522D01*
X391075D01*
Y200589D01*
X391142D01*
Y200655D01*
X391208D01*
Y200721D01*
X391274D01*
Y200788D01*
X391341D01*
Y200854D01*
X391407D01*
Y200920D01*
X391473D01*
Y200987D01*
X391540D01*
Y201053D01*
X391606D01*
Y201119D01*
X391672D01*
Y201186D01*
X391739D01*
Y201252D01*
X391805D01*
Y201319D01*
X391871D01*
Y201385D01*
X391938D01*
Y201451D01*
X392004D01*
Y201518D01*
X392071D01*
Y201584D01*
X392137D01*
Y201650D01*
X392203D01*
Y201717D01*
X392270D01*
Y201783D01*
X392336D01*
Y201849D01*
X392402D01*
Y201916D01*
X392469D01*
Y201982D01*
X392535D01*
Y202048D01*
X392602D01*
Y202115D01*
X392668D01*
Y202181D01*
X392734D01*
Y202248D01*
X392800D01*
Y202314D01*
X392867D01*
Y202380D01*
X392933D01*
Y202447D01*
X393000D01*
Y202513D01*
X393066D01*
Y202579D01*
X393132D01*
Y202646D01*
X393199D01*
Y202712D01*
X393265D01*
Y202778D01*
X393331D01*
Y202845D01*
X393398D01*
Y202911D01*
X393464D01*
Y202978D01*
X393531D01*
Y203044D01*
X393597D01*
Y203110D01*
X393663D01*
Y203177D01*
X393730D01*
Y203243D01*
X393796D01*
Y203309D01*
X393862D01*
Y203376D01*
X393929D01*
Y203442D01*
X393995D01*
Y203508D01*
X394061D01*
Y203575D01*
X394128D01*
Y203641D01*
X394194D01*
Y203707D01*
X394260D01*
Y203774D01*
X394327D01*
Y203840D01*
X394393D01*
Y203906D01*
X394459D01*
Y203973D01*
X394526D01*
Y204039D01*
X394592D01*
Y204106D01*
X394659D01*
Y204238D01*
X366987D01*
Y192427D01*
X367054D01*
Y192493D01*
X367120D01*
Y192559D01*
X367187D01*
Y192626D01*
X367253D01*
Y192692D01*
X367319D01*
Y192758D01*
X367386D01*
Y192825D01*
X367452D01*
Y192891D01*
X367518D01*
Y192957D01*
X367585D01*
Y193024D01*
X367651D01*
Y193090D01*
X367717D01*
Y193157D01*
X367784D01*
Y193223D01*
X367850D01*
Y193289D01*
X367916D01*
Y193356D01*
X367983D01*
Y193422D01*
X368049D01*
Y193488D01*
X368116D01*
Y193555D01*
X368182D01*
Y193621D01*
X368248D01*
Y193687D01*
X368315D01*
Y193754D01*
X368381D01*
Y193820D01*
X368447D01*
Y193887D01*
X368514D01*
Y193953D01*
X368580D01*
Y194019D01*
X368646D01*
Y194086D01*
X368713D01*
Y194152D01*
X368779D01*
Y194218D01*
X368845D01*
Y194285D01*
X368912D01*
Y194351D01*
X368978D01*
Y194417D01*
X369045D01*
Y194484D01*
X369111D01*
Y194550D01*
X369177D01*
Y194617D01*
X369244D01*
Y194683D01*
X369310D01*
Y194749D01*
X369376D01*
Y194816D01*
X369443D01*
Y194882D01*
X369509D01*
Y194948D01*
X369575D01*
Y195015D01*
X369642D01*
Y195081D01*
X369708D01*
Y195147D01*
X369775D01*
Y195214D01*
X369841D01*
Y195280D01*
X369907D01*
Y195346D01*
X369974D01*
Y195413D01*
X370040D01*
Y195479D01*
X370106D01*
Y195546D01*
X370173D01*
Y195612D01*
X370239D01*
Y195678D01*
X370305D01*
Y195744D01*
X370372D01*
Y195811D01*
X370438D01*
Y195877D01*
X370504D01*
Y195944D01*
X370571D01*
Y196010D01*
X370637D01*
Y196076D01*
X370704D01*
Y196143D01*
X370770D01*
Y196209D01*
X370836D01*
Y196275D01*
X370903D01*
Y196342D01*
X370969D01*
Y196408D01*
X371035D01*
Y196474D01*
X371102D01*
Y196541D01*
X371168D01*
Y196674D01*
X371102D01*
Y196740D01*
X371035D01*
Y196806D01*
X370969D01*
Y196873D01*
X370903D01*
Y196939D01*
X370836D01*
Y197005D01*
X370770D01*
Y197072D01*
X370704D01*
Y197138D01*
X370637D01*
Y197204D01*
X370571D01*
Y197271D01*
X370504D01*
Y197337D01*
X370438D01*
Y197404D01*
X370372D01*
Y197470D01*
X370305D01*
Y197536D01*
X370239D01*
Y197603D01*
X370173D01*
Y197669D01*
X370106D01*
Y197735D01*
X370040D01*
Y197802D01*
X369974D01*
Y197868D01*
X369907D01*
Y197934D01*
X369841D01*
Y198001D01*
X369775D01*
Y198067D01*
X369708D01*
Y198133D01*
X369642D01*
Y198200D01*
X369509D01*
Y198333D01*
X369376D01*
Y198399D01*
X369310D01*
Y198465D01*
X369244D01*
Y198598D01*
X369775D01*
Y198664D01*
X370239D01*
Y198731D01*
X370704D01*
Y198797D01*
X371234D01*
Y198863D01*
X371699D01*
Y198930D01*
X372163D01*
Y198996D01*
X372761D01*
Y199062D01*
X373159D01*
Y199129D01*
X373623D01*
Y199195D01*
X374220D01*
Y199261D01*
X374685D01*
Y199328D01*
X375149D01*
Y199394D01*
X375680D01*
Y199461D01*
X376145D01*
Y199527D01*
X376609D01*
Y199593D01*
X376941D01*
Y199129D01*
X376875D01*
Y198465D01*
X376808D01*
Y197735D01*
X376742D01*
Y197138D01*
X376676D01*
Y196474D01*
X376609D01*
Y195744D01*
X376543D01*
Y195147D01*
X376477D01*
Y194484D01*
X376410D01*
Y193754D01*
X376344D01*
Y193157D01*
X376278D01*
Y192559D01*
X376211D01*
Y191829D01*
X376145D01*
Y191763D01*
X376078D01*
Y191829D01*
X376012D01*
Y191896D01*
X375946D01*
Y191962D01*
X375879D01*
Y192029D01*
X375813D01*
Y192095D01*
X375747D01*
Y192161D01*
X375680D01*
Y192228D01*
X375614D01*
Y192294D01*
X375548D01*
Y192360D01*
X375481D01*
Y192427D01*
X375415D01*
Y192493D01*
X375349D01*
Y192559D01*
X375282D01*
Y192626D01*
X375216D01*
Y192692D01*
X375149D01*
Y192758D01*
X375083D01*
Y192825D01*
X375017D01*
Y192891D01*
X374950D01*
Y192957D01*
X374884D01*
Y193024D01*
X374818D01*
Y193090D01*
X374751D01*
Y193157D01*
X374685D01*
Y193223D01*
X374619D01*
Y193289D01*
X374552D01*
Y193356D01*
X374486D01*
Y193422D01*
X374420D01*
Y193488D01*
X374353D01*
Y193555D01*
X374287D01*
Y193621D01*
X374220D01*
Y193687D01*
X374154D01*
Y193754D01*
X374088D01*
Y193820D01*
X374021D01*
Y193887D01*
X373955D01*
Y193953D01*
X373889D01*
Y194019D01*
X373756D01*
Y193953D01*
X373690D01*
Y193887D01*
X373623D01*
Y193820D01*
X373557D01*
Y193754D01*
X373490D01*
Y193687D01*
X373424D01*
Y193621D01*
X373358D01*
Y193555D01*
X373291D01*
Y193488D01*
X373225D01*
Y193422D01*
X373159D01*
Y193356D01*
X373092D01*
Y193289D01*
X373026D01*
Y193223D01*
X372960D01*
Y193157D01*
X372893D01*
Y193090D01*
X372827D01*
Y193024D01*
X372761D01*
Y192957D01*
X372694D01*
Y192891D01*
X372628D01*
Y192825D01*
X372561D01*
Y192758D01*
X372495D01*
Y192692D01*
X372429D01*
Y192626D01*
X372362D01*
Y192559D01*
X372296D01*
Y192493D01*
X372230D01*
Y192427D01*
X372163D01*
Y192360D01*
X372097D01*
Y192294D01*
X372031D01*
Y192228D01*
X371964D01*
Y192161D01*
X371898D01*
Y192095D01*
X371832D01*
Y192029D01*
X371765D01*
Y191962D01*
X371699D01*
Y191896D01*
X371632D01*
Y191829D01*
X371566D01*
Y191763D01*
X371500D01*
Y191697D01*
X371433D01*
Y191630D01*
X371367D01*
Y191564D01*
X371301D01*
Y191498D01*
X371234D01*
Y191431D01*
X371168D01*
Y191365D01*
X371102D01*
Y191299D01*
X371035D01*
Y191232D01*
X370969D01*
Y191166D01*
X370903D01*
Y191099D01*
X370836D01*
Y191033D01*
X370770D01*
Y190967D01*
X370704D01*
Y190900D01*
X370637D01*
Y190834D01*
X370571D01*
Y190768D01*
X370504D01*
Y190701D01*
X370438D01*
Y190635D01*
X370372D01*
Y190569D01*
X370305D01*
Y190502D01*
X370239D01*
Y190436D01*
X370173D01*
Y190370D01*
X370106D01*
Y190303D01*
X370040D01*
Y190237D01*
X369974D01*
Y190170D01*
X369907D01*
Y190104D01*
X369841D01*
Y190038D01*
X369775D01*
Y189971D01*
X369708D01*
Y189905D01*
X369642D01*
Y189839D01*
X369575D01*
Y189772D01*
X369509D01*
Y189706D01*
X369443D01*
Y189640D01*
X369376D01*
Y189573D01*
X369310D01*
Y189507D01*
X369244D01*
Y189441D01*
X369177D01*
Y189374D01*
X369111D01*
Y189308D01*
X369045D01*
Y189242D01*
X368978D01*
Y189175D01*
X368912D01*
Y189109D01*
X368845D01*
Y189042D01*
X368779D01*
Y188976D01*
X368713D01*
Y188910D01*
X368646D01*
Y188843D01*
X368580D01*
Y188777D01*
X368514D01*
Y188711D01*
X368447D01*
Y188644D01*
X368381D01*
Y188578D01*
X368315D01*
Y188512D01*
X368248D01*
Y188445D01*
X368182D01*
Y188379D01*
X368116D01*
Y188312D01*
X368049D01*
Y188246D01*
X367983D01*
Y188180D01*
X367916D01*
Y188113D01*
X367850D01*
Y188047D01*
X367784D01*
Y187981D01*
X367717D01*
Y187914D01*
X367651D01*
Y187848D01*
X367585D01*
Y187782D01*
X367518D01*
Y187715D01*
X367452D01*
Y187649D01*
X367386D01*
Y187583D01*
X367319D01*
Y187516D01*
X367253D01*
Y187450D01*
X367187D01*
Y187383D01*
X367120D01*
Y187317D01*
X367054D01*
Y187251D01*
X366987D01*
Y187184D01*
X366921D01*
Y187118D01*
X366855D01*
Y187052D01*
X366788D01*
Y186985D01*
X366722D01*
Y186919D01*
X366656D01*
Y186853D01*
X366589D01*
Y186786D01*
X366523D01*
Y186720D01*
X366457D01*
Y186654D01*
X366390D01*
Y186587D01*
X366324D01*
Y186521D01*
X366258D01*
Y186455D01*
X366191D01*
Y186388D01*
X366125D01*
Y186322D01*
X366059D01*
Y186255D01*
X365992D01*
Y186189D01*
X365926D01*
Y186123D01*
X365859D01*
Y186056D01*
X365793D01*
Y185990D01*
X365727D01*
Y185924D01*
X365660D01*
Y185857D01*
X365594D01*
Y185791D01*
X365528D01*
Y185725D01*
X365461D01*
Y185658D01*
X365395D01*
Y185592D01*
X365328D01*
Y185525D01*
X365262D01*
Y185459D01*
X365196D01*
Y185393D01*
X365129D01*
Y185326D01*
X365063D01*
Y185260D01*
X364997D01*
Y185194D01*
X364930D01*
Y185127D01*
X364864D01*
Y185061D01*
X364798D01*
Y184995D01*
X364731D01*
Y184928D01*
X364665D01*
Y184862D01*
X364599D01*
Y184795D01*
X364532D01*
Y184729D01*
X364466D01*
Y184663D01*
X364399D01*
Y184597D01*
X364333D01*
Y184530D01*
X364267D01*
Y184464D01*
X364200D01*
Y184397D01*
X364134D01*
Y184331D01*
X364068D01*
Y184265D01*
X364001D01*
Y184198D01*
X363935D01*
Y184132D01*
X363869D01*
Y184066D01*
X363802D01*
Y183999D01*
X363736D01*
Y183933D01*
X363670D01*
Y183867D01*
X363603D01*
Y183800D01*
X363537D01*
Y183734D01*
X363470D01*
Y183668D01*
X363404D01*
Y183601D01*
X363338D01*
Y183535D01*
X363271D01*
Y183468D01*
X363205D01*
Y183402D01*
X363139D01*
Y208087D01*
X398640D01*
Y208153D01*
X398706D01*
Y208220D01*
X398773D01*
Y208286D01*
X398839D01*
Y208353D01*
X398905D01*
Y208419D01*
X398972D01*
Y208485D01*
X399038D01*
Y208552D01*
X399104D01*
Y208618D01*
X399171D01*
Y208684D01*
X399237D01*
Y208751D01*
X399304D01*
Y208817D01*
X399370D01*
Y208883D01*
X399436D01*
Y208950D01*
X399503D01*
Y209016D01*
X399569D01*
Y209082D01*
X399635D01*
Y209149D01*
X399702D01*
Y209215D01*
X399768D01*
Y209282D01*
X399834D01*
Y209348D01*
X399901D01*
Y209414D01*
X399967D01*
Y209480D01*
X400033D01*
Y209547D01*
X400100D01*
Y209613D01*
X400166D01*
Y209680D01*
X400233D01*
Y209746D01*
X400299D01*
Y209812D01*
X400365D01*
Y209879D01*
X400432D01*
Y209945D01*
X400498D01*
Y210011D01*
X400564D01*
Y210078D01*
X400631D01*
Y210144D01*
X400697D01*
Y210210D01*
X400763D01*
Y210277D01*
X400830D01*
Y210343D01*
X400896D01*
Y210410D01*
X400962D01*
Y210476D01*
X401029D01*
Y210542D01*
X401095D01*
Y210609D01*
X401162D01*
Y210675D01*
X401228D01*
Y210741D01*
X401294D01*
Y210808D01*
X401361D01*
Y210874D01*
X401427D01*
Y210940D01*
X401493D01*
Y211007D01*
X401560D01*
Y211073D01*
X401626D01*
Y211140D01*
X401692D01*
Y211206D01*
X401759D01*
Y211272D01*
X401825D01*
Y211339D01*
X401892D01*
Y211405D01*
X401958D01*
Y211471D01*
X402024D01*
Y211538D01*
X402091D01*
Y211604D01*
X402157D01*
Y211670D01*
X402223D01*
Y211737D01*
X402290D01*
Y211803D01*
X402356D01*
Y211869D01*
X402422D01*
Y211936D01*
X402489D01*
Y212002D01*
X402555D01*
Y212069D01*
X402621D01*
Y212135D01*
X402688D01*
Y212201D01*
X402754D01*
Y212267D01*
X402821D01*
Y212334D01*
X402887D01*
Y212400D01*
X402953D01*
Y212467D01*
X403020D01*
Y212533D01*
X403086D01*
Y212599D01*
X403152D01*
Y212666D01*
X403219D01*
Y212732D01*
X403285D01*
Y212798D01*
X403351D01*
Y212865D01*
X403418D01*
Y212931D01*
X403484D01*
Y212997D01*
X403550D01*
Y213064D01*
X403617D01*
Y213130D01*
X403683D01*
Y213197D01*
X403750D01*
Y213263D01*
X403816D01*
Y213329D01*
X403882D01*
Y213396D01*
X403949D01*
Y213462D01*
X404015D01*
Y213528D01*
X404081D01*
Y213595D01*
X404148D01*
Y213661D01*
X404214D01*
Y213727D01*
X404280D01*
Y213794D01*
X404347D01*
Y213860D01*
X404413D01*
Y213927D01*
X404479D01*
Y213993D01*
X404546D01*
Y214059D01*
X404612D01*
Y214126D01*
X404678D01*
Y214192D01*
X404745D01*
Y214258D01*
X404811D01*
Y214325D01*
X404878D01*
Y214391D01*
X404944D01*
Y214457D01*
X405010D01*
Y214524D01*
X405077D01*
Y214590D01*
X405143D01*
Y214656D01*
X405209D01*
Y214723D01*
X405276D01*
Y214789D01*
X405342D01*
Y214855D01*
X405409D01*
Y214922D01*
X405475D01*
Y214988D01*
X405541D01*
Y215055D01*
X405607D01*
Y215121D01*
X405674D01*
Y215187D01*
X405740D01*
Y215254D01*
X405807D01*
Y215320D01*
X405873D01*
Y215386D01*
X405939D01*
Y215453D01*
X406006D01*
Y215519D01*
X406072D01*
Y215585D01*
X406138D01*
Y215652D01*
X406205D01*
Y215718D01*
X406271D01*
Y215784D01*
X406338D01*
Y215851D01*
X406404D01*
Y215917D01*
X406470D01*
Y215984D01*
X406536D01*
Y216050D01*
X406603D01*
Y216116D01*
X406669D01*
Y216183D01*
X406736D01*
Y216249D01*
X406802D01*
Y216315D01*
X406868D01*
Y216382D01*
X406935D01*
Y216448D01*
X407001D01*
Y216514D01*
X407067D01*
Y216581D01*
X407134D01*
Y216647D01*
X407200D01*
Y216780D01*
X407134D01*
Y216846D01*
X407067D01*
Y216913D01*
X407001D01*
Y216979D01*
X406935D01*
Y217045D01*
X406868D01*
Y217112D01*
X406802D01*
Y217178D01*
X406736D01*
Y217244D01*
X406669D01*
Y217311D01*
X406603D01*
Y217377D01*
X406536D01*
Y217443D01*
X406470D01*
Y217510D01*
X406404D01*
Y217576D01*
X406338D01*
Y217642D01*
X406271D01*
Y217709D01*
X406205D01*
Y217775D01*
X406138D01*
Y217842D01*
X406072D01*
Y217908D01*
X406006D01*
Y217974D01*
X405939D01*
Y218041D01*
X405873D01*
Y218107D01*
X405807D01*
Y218173D01*
X405740D01*
Y218240D01*
X405674D01*
Y218306D01*
X405607D01*
Y218372D01*
X405541D01*
Y218439D01*
X405475D01*
Y218505D01*
X405409D01*
Y218571D01*
X405276D01*
Y218638D01*
X405209D01*
Y218704D01*
X405143D01*
Y218837D01*
X405607D01*
Y218903D01*
X406072D01*
Y218970D01*
X406536D01*
Y219036D01*
X407067D01*
Y219102D01*
X407532D01*
Y219169D01*
X407996D01*
Y219235D01*
X408527D01*
Y219301D01*
X408992D01*
Y219368D01*
X409456D01*
Y219434D01*
X409987D01*
Y219501D01*
X410452D01*
Y219567D01*
X410916D01*
Y219633D01*
X411447D01*
Y219700D01*
X411912D01*
Y219766D01*
X412376D01*
Y219832D01*
X412840D01*
Y219301D01*
D02*
G37*
G36*
X416756Y202646D02*
X416689D01*
Y202048D01*
X416623D01*
Y201252D01*
X416557D01*
Y200655D01*
X416490D01*
Y200058D01*
X416424D01*
Y199328D01*
X416357D01*
Y198731D01*
X416291D01*
Y198067D01*
X416225D01*
Y197337D01*
X416158D01*
Y196740D01*
X416092D01*
Y196143D01*
X416026D01*
Y196076D01*
Y195346D01*
X415959D01*
Y194882D01*
X415893D01*
Y194948D01*
X415827D01*
Y195015D01*
X415760D01*
Y195081D01*
X415694D01*
Y195147D01*
X415628D01*
Y195214D01*
X415561D01*
Y195280D01*
X415495D01*
Y195346D01*
X415428D01*
Y195413D01*
X415362D01*
Y195479D01*
X415296D01*
Y195546D01*
X415229D01*
Y195612D01*
X415163D01*
Y195678D01*
X415097D01*
Y195744D01*
X415030D01*
Y195811D01*
X414898D01*
Y195877D01*
X414831D01*
Y195944D01*
X414765D01*
Y196010D01*
X414698D01*
Y196076D01*
X414632D01*
Y196143D01*
X414566D01*
Y196209D01*
X414499D01*
Y196275D01*
X414433D01*
Y196342D01*
X414367D01*
Y196408D01*
X414300D01*
Y196474D01*
X414234D01*
Y196541D01*
X414168D01*
Y196607D01*
X414101D01*
Y196674D01*
X414035D01*
Y196740D01*
X413969D01*
Y196806D01*
X413902D01*
Y196873D01*
X413836D01*
Y196806D01*
X413769D01*
Y196740D01*
X413703D01*
Y196674D01*
X413637D01*
Y196607D01*
X413570D01*
Y196541D01*
X413504D01*
Y196474D01*
X413438D01*
Y196408D01*
X413371D01*
Y196342D01*
X413305D01*
Y196275D01*
X413239D01*
Y196209D01*
X413172D01*
Y196143D01*
X413106D01*
Y196076D01*
X413040D01*
Y196010D01*
X412973D01*
Y195944D01*
X412907D01*
Y195877D01*
X412840D01*
Y195811D01*
X412774D01*
Y195744D01*
X412708D01*
Y195678D01*
X412641D01*
Y195612D01*
X412575D01*
Y195546D01*
X412509D01*
Y195479D01*
X412442D01*
Y195413D01*
X412376D01*
Y195346D01*
X412310D01*
Y195280D01*
X412243D01*
Y195214D01*
X412177D01*
Y195147D01*
X412111D01*
Y195081D01*
X412044D01*
Y195015D01*
X411978D01*
Y194948D01*
X411912D01*
Y194882D01*
X411845D01*
Y194816D01*
X411779D01*
Y194749D01*
X411712D01*
Y194683D01*
X411646D01*
Y194617D01*
X411580D01*
Y194550D01*
X411513D01*
Y194484D01*
X411447D01*
Y194417D01*
X411381D01*
Y194351D01*
X411314D01*
Y194285D01*
X411248D01*
Y194218D01*
X411182D01*
Y194152D01*
X411115D01*
Y194086D01*
X411049D01*
Y194019D01*
X410983D01*
Y193953D01*
X410916D01*
Y193887D01*
X410850D01*
Y193820D01*
X410783D01*
Y193754D01*
X410717D01*
Y193687D01*
X410651D01*
Y193621D01*
X410584D01*
Y193555D01*
X410518D01*
Y193488D01*
X410452D01*
Y193422D01*
X410385D01*
Y193356D01*
X410319D01*
Y193289D01*
X410252D01*
Y193223D01*
X410186D01*
Y193157D01*
X410120D01*
Y193090D01*
X410053D01*
Y193024D01*
X409987D01*
Y192957D01*
X409921D01*
Y192891D01*
X409854D01*
Y192825D01*
X409788D01*
Y192758D01*
X409722D01*
Y192692D01*
X409655D01*
Y192626D01*
X409589D01*
Y192559D01*
X409523D01*
Y192493D01*
X409456D01*
Y192427D01*
X409390D01*
Y192360D01*
X409324D01*
Y192294D01*
X409257D01*
Y192228D01*
X409191D01*
Y192161D01*
X409124D01*
Y192095D01*
X409058D01*
Y192029D01*
X408992D01*
Y191962D01*
X408925D01*
Y191896D01*
X408859D01*
Y191829D01*
X408793D01*
Y191763D01*
X408726D01*
Y191697D01*
X408660D01*
Y191630D01*
X408594D01*
Y191564D01*
X408527D01*
Y191498D01*
X408461D01*
Y191431D01*
X408395D01*
Y191365D01*
X408328D01*
Y191299D01*
X408262D01*
Y191232D01*
X408195D01*
Y191166D01*
X408129D01*
Y191099D01*
X408063D01*
Y191033D01*
X407996D01*
Y190967D01*
X407930D01*
Y190900D01*
X407864D01*
Y190834D01*
X407797D01*
Y190768D01*
X407731D01*
Y190701D01*
X407665D01*
Y163627D01*
X375548D01*
Y163694D01*
X375614D01*
Y163760D01*
X375680D01*
Y163827D01*
X375747D01*
Y163893D01*
X375813D01*
Y164026D01*
X375946D01*
Y164092D01*
X376012D01*
Y164225D01*
X376145D01*
Y164291D01*
X376211D01*
Y164424D01*
X376344D01*
Y164490D01*
X376410D01*
Y164623D01*
X376543D01*
Y164689D01*
X376609D01*
Y164822D01*
X376742D01*
Y164955D01*
X376808D01*
Y165021D01*
X376941D01*
Y165087D01*
X377007D01*
Y165220D01*
X377140D01*
Y165286D01*
X377206D01*
Y165419D01*
X377273D01*
Y165485D01*
X377406D01*
Y165618D01*
X377538D01*
Y165685D01*
X377605D01*
Y165817D01*
X377737D01*
Y165884D01*
X377804D01*
Y166016D01*
X377937D01*
Y166083D01*
X378003D01*
Y166215D01*
X378135D01*
Y166282D01*
X378202D01*
Y166348D01*
X378268D01*
Y166415D01*
X378335D01*
Y166481D01*
X378401D01*
Y166614D01*
X378534D01*
Y166680D01*
X378600D01*
Y166746D01*
X378666D01*
Y166879D01*
X378799D01*
Y167012D01*
X378866D01*
Y167078D01*
X378998D01*
Y167211D01*
X379131D01*
Y167277D01*
X379197D01*
Y167410D01*
X379264D01*
Y167476D01*
X379396D01*
Y167609D01*
X379463D01*
Y167675D01*
X379595D01*
Y167808D01*
X379662D01*
Y167874D01*
X379795D01*
Y167941D01*
X379861D01*
Y168007D01*
X379927D01*
Y168074D01*
X379994D01*
Y168140D01*
X380060D01*
Y168272D01*
X380193D01*
Y168339D01*
X380259D01*
Y168472D01*
X380392D01*
Y168538D01*
X380458D01*
Y168671D01*
X380591D01*
Y168737D01*
X380657D01*
Y168870D01*
X380790D01*
Y168936D01*
X380856D01*
Y169069D01*
X380989D01*
Y169202D01*
X381055D01*
Y169268D01*
X381188D01*
Y169334D01*
X381254D01*
Y169467D01*
X381387D01*
Y169533D01*
X381453D01*
Y169666D01*
X381586D01*
Y169732D01*
X381652D01*
Y169865D01*
X381785D01*
Y169932D01*
X381852D01*
Y170064D01*
X381984D01*
Y170131D01*
X382051D01*
Y170263D01*
X382183D01*
Y170330D01*
X382250D01*
Y170462D01*
X382382D01*
Y170529D01*
X382449D01*
Y170595D01*
X382515D01*
Y170661D01*
X382581D01*
Y170728D01*
X382648D01*
Y170861D01*
X382714D01*
Y170927D01*
X382847D01*
Y170993D01*
X382913D01*
Y171126D01*
X383046D01*
Y171259D01*
X383179D01*
Y171325D01*
X383245D01*
Y171458D01*
X383311D01*
Y171524D01*
X383444D01*
Y171657D01*
X383511D01*
Y171723D01*
X383643D01*
Y171856D01*
X383709D01*
Y171922D01*
X383842D01*
Y172055D01*
X383975D01*
Y172121D01*
X384041D01*
Y172188D01*
X384108D01*
Y172320D01*
X384240D01*
Y172387D01*
X384307D01*
Y172519D01*
X384440D01*
Y172586D01*
X384506D01*
Y172719D01*
X384639D01*
Y172785D01*
X384705D01*
Y172918D01*
X384838D01*
Y172984D01*
X384904D01*
Y173117D01*
X385037D01*
Y173183D01*
X385103D01*
Y173316D01*
X385236D01*
Y173448D01*
X385302D01*
Y173515D01*
X385435D01*
Y173581D01*
X385501D01*
Y173714D01*
X385634D01*
Y173780D01*
X385700D01*
Y173913D01*
X385833D01*
Y173979D01*
X385899D01*
Y174112D01*
X386032D01*
Y174178D01*
X386098D01*
Y174311D01*
X386231D01*
Y174377D01*
X386297D01*
Y174510D01*
X386430D01*
Y174576D01*
X386497D01*
Y174709D01*
X386629D01*
Y174776D01*
X386696D01*
Y174908D01*
X386828D01*
Y174975D01*
X386895D01*
Y175107D01*
X386961D01*
Y175174D01*
X387094D01*
Y175240D01*
X387160D01*
Y175373D01*
X387293D01*
Y175439D01*
X387359D01*
Y175506D01*
X387426D01*
Y175572D01*
X387492D01*
Y175705D01*
X387558D01*
Y175771D01*
X387691D01*
Y175904D01*
X387757D01*
Y175970D01*
X387890D01*
Y176103D01*
X387956D01*
Y176169D01*
X388089D01*
Y176302D01*
X388222D01*
Y176368D01*
X388288D01*
Y176434D01*
X388355D01*
Y176501D01*
X388421D01*
Y176567D01*
X388487D01*
Y176634D01*
X388554D01*
Y176766D01*
X388686D01*
Y176833D01*
X388753D01*
Y176965D01*
X388885D01*
Y177032D01*
X388952D01*
Y177164D01*
X389085D01*
Y177231D01*
X389151D01*
Y177363D01*
X389284D01*
Y177430D01*
X389350D01*
Y177563D01*
X389483D01*
Y177629D01*
X389549D01*
Y177762D01*
X389682D01*
Y177828D01*
X389748D01*
Y177961D01*
X389881D01*
Y178027D01*
X389947D01*
Y178160D01*
X390080D01*
Y178226D01*
X390146D01*
Y178359D01*
X390279D01*
Y178425D01*
X390345D01*
Y178558D01*
X390478D01*
Y178624D01*
X390544D01*
Y178757D01*
X390677D01*
Y178823D01*
X390743D01*
Y178956D01*
X390876D01*
Y179023D01*
X390942D01*
Y179089D01*
X391009D01*
Y179155D01*
X391075D01*
Y179221D01*
X391142D01*
Y179354D01*
X391208D01*
Y179421D01*
X391341D01*
Y179487D01*
X391407D01*
Y179620D01*
X391540D01*
Y179686D01*
X391606D01*
Y179752D01*
X391672D01*
Y179819D01*
X391739D01*
Y179951D01*
X391805D01*
Y180018D01*
X391938D01*
Y180151D01*
X392004D01*
Y180217D01*
X392137D01*
Y180350D01*
X392203D01*
Y180416D01*
X392336D01*
Y180549D01*
X392469D01*
Y180615D01*
X392535D01*
Y180681D01*
X392602D01*
Y180814D01*
X392734D01*
Y180881D01*
X392800D01*
Y181013D01*
X392933D01*
Y181080D01*
X393000D01*
Y181212D01*
X393132D01*
Y181279D01*
X393199D01*
Y181411D01*
X393331D01*
Y181478D01*
X393398D01*
Y181610D01*
X393531D01*
Y181677D01*
X393597D01*
Y181810D01*
X393730D01*
Y181942D01*
X393796D01*
Y182008D01*
X393929D01*
Y182075D01*
X393995D01*
Y182208D01*
X394128D01*
Y182274D01*
X394194D01*
Y182407D01*
X394260D01*
Y182473D01*
X394393D01*
Y182606D01*
X394526D01*
Y182672D01*
X394592D01*
Y182805D01*
X394725D01*
Y182871D01*
X394791D01*
Y183004D01*
X394924D01*
Y183070D01*
X394990D01*
Y183203D01*
X395123D01*
Y183269D01*
X395189D01*
Y183402D01*
X395322D01*
Y183468D01*
X395388D01*
Y183601D01*
X395455D01*
Y183668D01*
X395588D01*
Y183734D01*
X395654D01*
Y183867D01*
X395787D01*
Y183933D01*
X395853D01*
Y183999D01*
X395919D01*
Y184066D01*
X395986D01*
Y184198D01*
X396118D01*
Y184265D01*
X396185D01*
Y184397D01*
X396251D01*
Y184464D01*
X396384D01*
Y184597D01*
X396517D01*
Y184663D01*
X396583D01*
Y184795D01*
X396716D01*
Y184862D01*
X396782D01*
Y184928D01*
X396848D01*
Y185061D01*
X396981D01*
Y185127D01*
X397047D01*
Y185260D01*
X397180D01*
Y185326D01*
X397247D01*
Y185459D01*
X397379D01*
Y185525D01*
X397446D01*
Y185658D01*
X397578D01*
Y185791D01*
X397645D01*
Y185857D01*
X397777D01*
Y185924D01*
X397844D01*
Y186056D01*
X397976D01*
Y186189D01*
X398043D01*
Y186255D01*
X398176D01*
Y186322D01*
X398242D01*
Y186455D01*
X398375D01*
Y186521D01*
X398441D01*
Y186654D01*
X398574D01*
Y186720D01*
X398640D01*
Y186853D01*
X398773D01*
Y186919D01*
X398839D01*
Y187052D01*
X398972D01*
Y187118D01*
X399038D01*
Y187251D01*
X399171D01*
Y187317D01*
X399237D01*
Y187450D01*
X399370D01*
Y187516D01*
X399436D01*
Y187583D01*
X399503D01*
Y187649D01*
X399569D01*
Y187715D01*
X399635D01*
Y187782D01*
X399702D01*
Y187914D01*
X399834D01*
Y187981D01*
X399901D01*
Y188113D01*
X400033D01*
Y188180D01*
X400100D01*
Y188246D01*
X400166D01*
Y188312D01*
X400233D01*
Y188445D01*
X400365D01*
Y188512D01*
X400432D01*
Y188578D01*
X400498D01*
Y188644D01*
X400564D01*
Y188711D01*
X400631D01*
Y188843D01*
X400697D01*
Y188910D01*
X400830D01*
Y189042D01*
X400962D01*
Y189109D01*
X401029D01*
Y189175D01*
X401095D01*
Y189308D01*
X401228D01*
Y189374D01*
X401294D01*
Y189507D01*
X401427D01*
Y189573D01*
X401493D01*
Y189706D01*
X401626D01*
Y189772D01*
X401692D01*
Y189905D01*
X401825D01*
Y189971D01*
X401892D01*
Y190104D01*
X402024D01*
Y190170D01*
X402091D01*
Y190303D01*
X402223D01*
Y190370D01*
X402290D01*
Y190502D01*
X402422D01*
Y190569D01*
X402489D01*
Y190635D01*
X402555D01*
Y190701D01*
X402621D01*
Y190768D01*
X402688D01*
Y190900D01*
X402754D01*
Y190967D01*
X402887D01*
Y191099D01*
X403020D01*
Y191166D01*
X403086D01*
Y191299D01*
X403219D01*
Y191365D01*
X403285D01*
Y191498D01*
X403418D01*
Y191564D01*
X403484D01*
Y191697D01*
X403617D01*
Y191763D01*
X403683D01*
Y191829D01*
X403750D01*
Y191896D01*
X403816D01*
Y191962D01*
X403882D01*
Y192029D01*
X403949D01*
Y192161D01*
X404081D01*
Y192228D01*
X404148D01*
Y192294D01*
X404214D01*
Y192360D01*
X404280D01*
Y192427D01*
X404347D01*
Y192493D01*
X404413D01*
Y192559D01*
X404479D01*
Y192692D01*
X404546D01*
Y192758D01*
X404678D01*
Y192891D01*
X404745D01*
Y192957D01*
X404878D01*
Y193090D01*
X404944D01*
Y193157D01*
X405077D01*
Y193289D01*
X405209D01*
Y193356D01*
X405276D01*
Y193422D01*
X405342D01*
Y193555D01*
X405475D01*
Y193621D01*
X405541D01*
Y193754D01*
X405674D01*
Y193820D01*
X405740D01*
Y193953D01*
X405873D01*
Y194019D01*
X405939D01*
Y194152D01*
X406072D01*
Y194218D01*
X406138D01*
Y194351D01*
X406271D01*
Y194417D01*
X406338D01*
Y194484D01*
X406404D01*
Y194550D01*
X406470D01*
Y194617D01*
X406536D01*
Y194749D01*
X406669D01*
Y194816D01*
X406736D01*
Y194882D01*
X406802D01*
Y194948D01*
X406868D01*
Y195015D01*
X406935D01*
Y195147D01*
X407067D01*
Y195214D01*
X407134D01*
Y195346D01*
X407267D01*
Y195413D01*
X407333D01*
Y195479D01*
X407399D01*
Y195546D01*
X407466D01*
Y195612D01*
X407532D01*
Y195744D01*
X407665D01*
Y195811D01*
X407731D01*
Y195944D01*
X407864D01*
Y196010D01*
X407930D01*
Y196076D01*
X407996D01*
Y196143D01*
X408063D01*
Y196209D01*
X408129D01*
Y196275D01*
X408195D01*
Y196408D01*
X408328D01*
Y196474D01*
X408395D01*
Y196541D01*
X408461D01*
Y196607D01*
X408527D01*
Y196674D01*
X408594D01*
Y196740D01*
X408660D01*
Y196806D01*
X408726D01*
Y196939D01*
X408859D01*
Y197005D01*
X408925D01*
Y197138D01*
X408992D01*
Y197204D01*
X409124D01*
Y197337D01*
X409191D01*
Y197404D01*
X409324D01*
Y197536D01*
X409390D01*
Y197603D01*
X409523D01*
Y197669D01*
X409589D01*
Y197735D01*
X409655D01*
Y197802D01*
X409722D01*
Y197868D01*
X409788D01*
Y198001D01*
X409921D01*
Y198067D01*
X409987D01*
Y198200D01*
X410120D01*
Y198266D01*
X410186D01*
Y198399D01*
X410319D01*
Y198465D01*
X410385D01*
Y198598D01*
X410518D01*
Y198731D01*
X410584D01*
Y198797D01*
X410717D01*
Y198863D01*
X410783D01*
Y198996D01*
X410916D01*
Y199062D01*
X410983D01*
Y199195D01*
X411115D01*
Y199261D01*
X411182D01*
Y199394D01*
X411248D01*
Y199461D01*
X411182D01*
Y199593D01*
X411049D01*
Y199660D01*
X410983D01*
Y199792D01*
X410850D01*
Y199859D01*
X410783D01*
Y199925D01*
X410717D01*
Y199991D01*
X410651D01*
Y200058D01*
X410584D01*
Y200124D01*
X410518D01*
Y200191D01*
X410452D01*
Y200257D01*
X410385D01*
Y200323D01*
X410319D01*
Y200390D01*
X410252D01*
Y200456D01*
X410186D01*
Y200522D01*
X410120D01*
Y200589D01*
X410053D01*
Y200655D01*
X409987D01*
Y200721D01*
X409921D01*
Y200788D01*
X409854D01*
Y200854D01*
X409788D01*
Y200920D01*
X409722D01*
Y200987D01*
X409655D01*
Y201053D01*
X409589D01*
Y201119D01*
X409523D01*
Y201186D01*
X409456D01*
Y201252D01*
X409390D01*
Y201319D01*
X409324D01*
Y201385D01*
X409257D01*
Y201451D01*
X409191D01*
Y201518D01*
X409124D01*
Y201584D01*
X409058D01*
Y201650D01*
X409124D01*
Y201717D01*
X409589D01*
Y201783D01*
X410120D01*
Y201849D01*
X410584D01*
Y201916D01*
X411049D01*
Y201982D01*
X411580D01*
Y202048D01*
X412111D01*
Y202115D01*
X412509D01*
Y202181D01*
X413040D01*
Y202248D01*
X413570D01*
Y202314D01*
X413969D01*
Y202380D01*
X414499D01*
Y202447D01*
X415030D01*
Y202513D01*
X415495D01*
Y202579D01*
X415959D01*
Y202646D01*
X416490D01*
Y202712D01*
X416756D01*
Y202646D01*
D02*
G37*
G36*
X407797Y157788D02*
Y157722D01*
Y153939D01*
X407731D01*
Y154072D01*
X407665D01*
Y154138D01*
X407598D01*
Y154271D01*
X407532D01*
Y154404D01*
X407466D01*
Y154470D01*
X407399D01*
Y154603D01*
X407333D01*
Y154736D01*
X407267D01*
Y154802D01*
X407200D01*
Y154935D01*
X407134D01*
Y155067D01*
X407067D01*
Y155134D01*
X407001D01*
Y155267D01*
X406935D01*
Y155399D01*
X406868D01*
Y155465D01*
X406802D01*
Y155598D01*
X406736D01*
Y155731D01*
X406669D01*
Y155797D01*
X406603D01*
Y155930D01*
X406536D01*
Y155996D01*
X406470D01*
Y156129D01*
X406404D01*
Y156262D01*
X406338D01*
Y156328D01*
X406271D01*
Y156461D01*
X406205D01*
Y156594D01*
X406138D01*
Y156660D01*
X406072D01*
Y156793D01*
X406006D01*
Y156925D01*
X405939D01*
Y156992D01*
X405873D01*
Y157125D01*
X405807D01*
Y157191D01*
X405740D01*
Y157324D01*
X405674D01*
Y157456D01*
X405607D01*
Y160840D01*
X407797D01*
Y157788D01*
D02*
G37*
G36*
X403086Y160774D02*
X403152D01*
Y160708D01*
X403219D01*
Y160641D01*
X403285D01*
Y160509D01*
X403351D01*
Y160376D01*
X403418D01*
Y160310D01*
X403484D01*
Y160177D01*
X403550D01*
Y160044D01*
X403617D01*
Y159978D01*
X403683D01*
Y159845D01*
X403750D01*
Y159712D01*
X403816D01*
Y159646D01*
X403882D01*
Y159513D01*
X403949D01*
Y159381D01*
X404015D01*
Y159314D01*
X404081D01*
Y159181D01*
X404148D01*
Y159115D01*
X404214D01*
Y158982D01*
X404280D01*
Y158850D01*
X404347D01*
Y158783D01*
X404413D01*
Y158651D01*
X404479D01*
Y158518D01*
X404546D01*
Y158452D01*
X404612D01*
Y158319D01*
X404678D01*
Y158186D01*
X404745D01*
Y158120D01*
X404811D01*
Y157987D01*
X404878D01*
Y157854D01*
X404944D01*
Y157788D01*
X405010D01*
Y157655D01*
X405077D01*
Y157589D01*
X405143D01*
Y157456D01*
X405209D01*
Y157324D01*
X405276D01*
Y157257D01*
X405342D01*
Y157125D01*
X405409D01*
Y156992D01*
X405475D01*
Y156925D01*
X405541D01*
Y156793D01*
X405607D01*
Y156726D01*
X405674D01*
Y156594D01*
X405740D01*
Y156461D01*
X405807D01*
Y156328D01*
X405873D01*
Y156262D01*
X405939D01*
Y156129D01*
X406006D01*
Y156063D01*
X406072D01*
Y155930D01*
X406138D01*
Y155797D01*
X406205D01*
Y155731D01*
X406271D01*
Y155598D01*
X406338D01*
Y155465D01*
X406404D01*
Y155399D01*
X406470D01*
Y155267D01*
X406536D01*
Y155134D01*
X406603D01*
Y155067D01*
X406669D01*
Y154935D01*
X406736D01*
Y154802D01*
X406802D01*
Y154736D01*
X406868D01*
Y154603D01*
X406935D01*
Y154470D01*
X407001D01*
Y154404D01*
X407067D01*
Y154338D01*
Y154271D01*
X407134D01*
Y154138D01*
X407200D01*
Y154072D01*
X407267D01*
Y153939D01*
X407333D01*
Y153873D01*
X407399D01*
Y153740D01*
X407466D01*
Y153608D01*
X407532D01*
Y153541D01*
X407598D01*
Y153408D01*
X407665D01*
Y153276D01*
X407731D01*
Y153209D01*
X407797D01*
Y153143D01*
X405077D01*
Y153209D01*
X405010D01*
Y153276D01*
X404944D01*
Y153408D01*
X404878D01*
Y153541D01*
X404811D01*
Y153608D01*
X404745D01*
Y153740D01*
X404678D01*
Y153873D01*
X404612D01*
Y153939D01*
X404546D01*
Y154072D01*
X404479D01*
Y154205D01*
X404413D01*
Y154271D01*
X404347D01*
Y154404D01*
X404280D01*
Y154537D01*
X404214D01*
Y154603D01*
X404148D01*
Y154736D01*
X404081D01*
Y154868D01*
X404015D01*
Y154935D01*
X403949D01*
Y155067D01*
X403882D01*
Y155200D01*
X403816D01*
Y155267D01*
X403750D01*
Y155399D01*
X403683D01*
Y155532D01*
X403617D01*
Y155598D01*
X403550D01*
Y155731D01*
X403484D01*
Y155864D01*
X403418D01*
Y155930D01*
X403351D01*
Y156063D01*
X403285D01*
Y156129D01*
X403219D01*
Y156262D01*
X403152D01*
Y156395D01*
X403086D01*
Y156461D01*
X403020D01*
Y156594D01*
X402953D01*
Y156726D01*
X402887D01*
Y156793D01*
X402821D01*
Y156925D01*
X402754D01*
Y157058D01*
X402688D01*
Y157125D01*
X402621D01*
Y157257D01*
X402555D01*
Y157390D01*
X402489D01*
Y157456D01*
X402422D01*
Y157589D01*
X402356D01*
Y157655D01*
X402290D01*
Y157788D01*
X402223D01*
Y157921D01*
X402157D01*
Y157987D01*
X402091D01*
Y158120D01*
X402024D01*
Y158252D01*
X401958D01*
Y158319D01*
X401892D01*
Y158452D01*
X401825D01*
Y158584D01*
X401759D01*
Y158651D01*
X401692D01*
Y158783D01*
X401626D01*
Y158916D01*
X401560D01*
Y158982D01*
X401493D01*
Y159115D01*
X401427D01*
Y159248D01*
X401361D01*
Y159314D01*
X401294D01*
Y159447D01*
X401228D01*
Y159580D01*
X401162D01*
Y159646D01*
X401095D01*
Y159779D01*
X401029D01*
Y159911D01*
X400962D01*
Y159978D01*
X400896D01*
Y160111D01*
X400830D01*
Y160243D01*
X400763D01*
Y160310D01*
X400697D01*
Y160442D01*
X400631D01*
Y160575D01*
X400564D01*
Y160641D01*
X400498D01*
Y160840D01*
X403086D01*
Y160774D01*
D02*
G37*
G36*
X400498Y159911D02*
X400564D01*
Y159779D01*
X400631D01*
Y159646D01*
X400697D01*
Y159580D01*
X400763D01*
Y159447D01*
X400830D01*
Y159381D01*
X400896D01*
Y159248D01*
X400962D01*
Y159115D01*
X401029D01*
Y159049D01*
X401095D01*
Y158916D01*
X401162D01*
Y158850D01*
X401228D01*
Y158717D01*
X401294D01*
Y158584D01*
X401361D01*
Y158518D01*
X401427D01*
Y158385D01*
X401493D01*
Y158252D01*
X401560D01*
Y158186D01*
X401626D01*
Y158054D01*
X401692D01*
Y157921D01*
X401759D01*
Y157854D01*
X401825D01*
Y157722D01*
X401892D01*
Y157589D01*
X401958D01*
Y157523D01*
X402024D01*
Y157390D01*
X402091D01*
Y157257D01*
X402157D01*
Y157191D01*
X402223D01*
Y157058D01*
X402290D01*
Y156925D01*
X402356D01*
Y156859D01*
X402422D01*
Y156726D01*
X402489D01*
Y156660D01*
X402555D01*
Y156527D01*
X402621D01*
Y156395D01*
X402688D01*
Y153408D01*
X402621D01*
Y153342D01*
X402688D01*
Y153143D01*
X400432D01*
Y155665D01*
Y155731D01*
Y159978D01*
X400498D01*
Y159911D01*
D02*
G37*
G36*
X389549Y160774D02*
X389615D01*
Y153939D01*
Y153873D01*
Y153143D01*
X387094D01*
Y160840D01*
X389549D01*
Y160774D01*
D02*
G37*
G36*
X382913D02*
X383046D01*
Y160708D01*
X383112D01*
Y160575D01*
X383179D01*
Y160442D01*
X383245D01*
Y160376D01*
X383311D01*
Y160243D01*
X383378D01*
Y160111D01*
X383444D01*
Y160044D01*
X383511D01*
Y159911D01*
X383577D01*
Y159845D01*
X383643D01*
Y159712D01*
X383709D01*
Y159580D01*
X383776D01*
Y159513D01*
X383842D01*
Y159381D01*
X383909D01*
Y159248D01*
X383975D01*
Y159181D01*
X384041D01*
Y159049D01*
X384108D01*
Y158916D01*
X384174D01*
Y158850D01*
X384240D01*
Y158717D01*
X384307D01*
Y158584D01*
X384373D01*
Y158518D01*
X384440D01*
Y158385D01*
X384506D01*
Y158252D01*
X384572D01*
Y158186D01*
X384639D01*
Y158054D01*
X384705D01*
Y157921D01*
X384771D01*
Y157854D01*
X384838D01*
Y157722D01*
X384904D01*
Y157589D01*
X384970D01*
Y157523D01*
X385037D01*
Y157456D01*
X385103D01*
Y157523D01*
X385169D01*
Y157589D01*
X385236D01*
Y157722D01*
X385302D01*
Y157854D01*
X385368D01*
Y157921D01*
X385435D01*
Y158054D01*
X385501D01*
Y158186D01*
X385568D01*
Y158319D01*
X385634D01*
Y158385D01*
X385700D01*
Y158518D01*
X385767D01*
Y158651D01*
X385833D01*
Y158717D01*
X385899D01*
Y158850D01*
X385966D01*
Y158982D01*
X386032D01*
Y159049D01*
X386098D01*
Y159181D01*
X386165D01*
Y159314D01*
X386231D01*
Y159447D01*
X386297D01*
Y159513D01*
X386364D01*
Y159646D01*
X386430D01*
Y159779D01*
X386497D01*
Y159911D01*
X386563D01*
Y159978D01*
X386629D01*
Y160111D01*
X386696D01*
Y156262D01*
X386629D01*
Y156129D01*
X386563D01*
Y156063D01*
X386497D01*
Y155930D01*
X386430D01*
Y155797D01*
X386364D01*
Y155665D01*
X386297D01*
Y155532D01*
X386231D01*
Y155465D01*
X386165D01*
Y155333D01*
X386098D01*
Y155200D01*
X386032D01*
Y155134D01*
X385966D01*
Y155001D01*
X385899D01*
Y154868D01*
X385833D01*
Y154736D01*
X385767D01*
Y154669D01*
X385700D01*
Y154537D01*
X385634D01*
Y154404D01*
X385568D01*
Y154338D01*
X385501D01*
Y154205D01*
X385435D01*
Y154072D01*
X385368D01*
Y154006D01*
X385302D01*
Y153873D01*
X385236D01*
Y153740D01*
X385169D01*
Y153608D01*
X385103D01*
Y153541D01*
X385037D01*
Y153408D01*
X384970D01*
Y153276D01*
X384904D01*
Y153143D01*
X384838D01*
Y153209D01*
X384771D01*
Y153276D01*
X384705D01*
Y153408D01*
X384639D01*
Y153541D01*
X384572D01*
Y153608D01*
X384506D01*
Y153740D01*
X384440D01*
Y153873D01*
X384373D01*
Y153939D01*
X384307D01*
Y154072D01*
X384240D01*
Y154205D01*
X384174D01*
Y154338D01*
X384108D01*
Y154404D01*
X384041D01*
Y154537D01*
X383975D01*
Y154669D01*
X383909D01*
Y154736D01*
X383842D01*
Y154868D01*
X383776D01*
Y155001D01*
X383709D01*
Y155067D01*
X383643D01*
Y155200D01*
X383577D01*
Y155333D01*
X383511D01*
Y155465D01*
X383444D01*
Y155532D01*
X383378D01*
Y155665D01*
X383311D01*
Y155797D01*
X383245D01*
Y155864D01*
X383179D01*
Y155996D01*
X383112D01*
Y156129D01*
X383046D01*
Y156195D01*
X382980D01*
Y156328D01*
X382913D01*
Y156461D01*
X382847D01*
Y156527D01*
X382780D01*
Y156660D01*
X382714D01*
Y156793D01*
X382648D01*
Y156859D01*
X382581D01*
Y156992D01*
X382515D01*
Y157125D01*
X382449D01*
Y157191D01*
X382382D01*
Y157324D01*
X382316D01*
Y157456D01*
X382250D01*
Y157589D01*
X382183D01*
Y157655D01*
X382117D01*
Y157788D01*
X382051D01*
Y157921D01*
X381984D01*
Y157987D01*
X381918D01*
Y158120D01*
X381852D01*
Y158252D01*
X381785D01*
Y158319D01*
X381719D01*
Y158452D01*
X381652D01*
Y158584D01*
X381586D01*
Y158651D01*
X381520D01*
Y158783D01*
X381453D01*
Y158916D01*
X381387D01*
Y158982D01*
X381321D01*
Y159115D01*
X381254D01*
Y159248D01*
X381188D01*
Y159314D01*
X381122D01*
Y159447D01*
X381055D01*
Y159580D01*
X380989D01*
Y159712D01*
X380923D01*
Y159779D01*
X380856D01*
Y159911D01*
X380790D01*
Y160044D01*
X380723D01*
Y160111D01*
X380657D01*
Y160243D01*
X380591D01*
Y160376D01*
X380524D01*
Y160442D01*
X380458D01*
Y160575D01*
X380392D01*
Y160708D01*
X380325D01*
Y160840D01*
X382913D01*
Y160774D01*
D02*
G37*
G36*
X380325Y159978D02*
X380392D01*
Y159845D01*
X380458D01*
Y159712D01*
X380524D01*
Y159646D01*
X380591D01*
Y159513D01*
X380657D01*
Y159381D01*
X380723D01*
Y159314D01*
X380790D01*
Y159181D01*
X380856D01*
Y159049D01*
X380923D01*
Y158916D01*
X380989D01*
Y158850D01*
X381055D01*
Y158717D01*
X381122D01*
Y158584D01*
X381188D01*
Y158518D01*
X381254D01*
Y158385D01*
X381321D01*
Y158252D01*
X381387D01*
Y158186D01*
X381453D01*
Y158054D01*
X381520D01*
Y157921D01*
X381586D01*
Y157854D01*
X381652D01*
Y157722D01*
X381719D01*
Y157589D01*
X381785D01*
Y157523D01*
X381852D01*
Y157390D01*
X381918D01*
Y157257D01*
X381984D01*
Y157191D01*
X382051D01*
Y157058D01*
X382117D01*
Y156925D01*
X382183D01*
Y156859D01*
X382250D01*
Y156726D01*
X382316D01*
Y156594D01*
X382382D01*
Y156527D01*
X382449D01*
Y156395D01*
X382515D01*
Y156262D01*
X382581D01*
Y156195D01*
X382648D01*
Y153143D01*
X380259D01*
Y156859D01*
Y156925D01*
Y160044D01*
X380325D01*
Y159978D01*
D02*
G37*
G36*
X378467Y160442D02*
X378534D01*
Y160376D01*
X378467D01*
Y154802D01*
X378534D01*
Y154736D01*
X378467D01*
Y154603D01*
X378401D01*
Y154537D01*
X378335D01*
Y154470D01*
X378268D01*
Y154404D01*
X378202D01*
Y154338D01*
X378135D01*
Y154271D01*
X378069D01*
Y154205D01*
X378003D01*
Y154138D01*
X377937D01*
Y154072D01*
X377870D01*
Y154006D01*
X377804D01*
Y153939D01*
X377737D01*
Y153873D01*
X377671D01*
Y153807D01*
X377605D01*
Y153740D01*
X377538D01*
Y153674D01*
X377472D01*
Y153608D01*
X377406D01*
Y153541D01*
X377339D01*
Y153475D01*
X377273D01*
Y153408D01*
X377206D01*
Y153342D01*
X377140D01*
Y153276D01*
X377074D01*
Y153209D01*
X377007D01*
Y153143D01*
X375017D01*
Y154669D01*
X375946D01*
Y155001D01*
Y155067D01*
Y160774D01*
X376012D01*
Y160840D01*
X378467D01*
Y160442D01*
D02*
G37*
G36*
X373623Y154669D02*
X374552D01*
Y153143D01*
X372561D01*
Y153209D01*
X372495D01*
Y153276D01*
X372429D01*
Y153342D01*
X372362D01*
Y153408D01*
X372296D01*
Y153475D01*
X372230D01*
Y153541D01*
X372163D01*
Y153608D01*
X372097D01*
Y153674D01*
X372031D01*
Y153740D01*
X371964D01*
Y153807D01*
X371898D01*
Y153873D01*
X371832D01*
Y153939D01*
X371765D01*
Y154006D01*
X371699D01*
Y154072D01*
X371632D01*
Y154138D01*
X371566D01*
Y154205D01*
X371500D01*
Y154271D01*
X371433D01*
Y154338D01*
X371367D01*
Y154404D01*
X371301D01*
Y154470D01*
X371234D01*
Y154537D01*
X371168D01*
Y154603D01*
X371102D01*
Y154669D01*
X371035D01*
Y154802D01*
X371102D01*
Y154868D01*
X371035D01*
Y154935D01*
X371102D01*
Y160840D01*
X373623D01*
Y154669D01*
D02*
G37*
G36*
X369907Y153143D02*
X366258D01*
Y153740D01*
Y153807D01*
Y154603D01*
X366324D01*
Y154669D01*
X367585D01*
Y154736D01*
X367518D01*
Y154802D01*
X367585D01*
Y154868D01*
X367518D01*
Y154935D01*
X367585D01*
Y155067D01*
X367518D01*
Y155598D01*
X369907D01*
Y153143D01*
D02*
G37*
G36*
X365793Y160774D02*
X365859D01*
Y157722D01*
Y157655D01*
Y153143D01*
X363338D01*
Y160840D01*
X365793D01*
Y160774D01*
D02*
G37*
G36*
X397247D02*
X397313D01*
Y160708D01*
X397379D01*
Y160641D01*
X397446D01*
Y160575D01*
X397512D01*
Y160509D01*
X397578D01*
Y160442D01*
X397645D01*
Y160376D01*
X397711D01*
Y160310D01*
X397777D01*
Y160243D01*
X397844D01*
Y160177D01*
X397910D01*
Y160111D01*
X397976D01*
Y160044D01*
X398043D01*
Y159978D01*
X398109D01*
Y159911D01*
X398176D01*
Y159845D01*
X398242D01*
Y159779D01*
X398308D01*
Y159712D01*
X398375D01*
Y159646D01*
X398441D01*
Y159580D01*
X398507D01*
Y159513D01*
X398574D01*
Y159447D01*
X398640D01*
Y159381D01*
X398706D01*
Y159314D01*
X398773D01*
Y154603D01*
X398706D01*
Y154537D01*
X398640D01*
Y154470D01*
X398574D01*
Y154404D01*
X398507D01*
Y154338D01*
X398441D01*
Y154271D01*
X398375D01*
Y154205D01*
X398308D01*
Y154138D01*
X398242D01*
Y154072D01*
X398176D01*
Y154006D01*
X398109D01*
Y153939D01*
X398043D01*
Y153873D01*
X397976D01*
Y153807D01*
X397910D01*
Y153740D01*
X397844D01*
Y153674D01*
X397777D01*
Y153608D01*
X397711D01*
Y153541D01*
X397645D01*
Y153475D01*
X397578D01*
Y153408D01*
X397512D01*
Y153342D01*
X397446D01*
Y153276D01*
X397379D01*
Y153209D01*
X397247D01*
Y153143D01*
X397180D01*
Y153077D01*
X395256D01*
Y153209D01*
X395189D01*
Y154603D01*
X395256D01*
Y154669D01*
X396185D01*
Y156328D01*
Y156395D01*
Y159248D01*
X395256D01*
Y159314D01*
X395189D01*
Y160774D01*
X395256D01*
Y160840D01*
X397247D01*
Y160774D01*
D02*
G37*
G36*
X394791Y159248D02*
X393862D01*
Y154669D01*
X394791D01*
Y153077D01*
X392867D01*
Y153143D01*
X392800D01*
Y153209D01*
X392734D01*
Y153276D01*
X392668D01*
Y153342D01*
X392602D01*
Y153408D01*
X392535D01*
Y153475D01*
X392469D01*
Y153541D01*
X392402D01*
Y153608D01*
X392336D01*
Y153674D01*
X392270D01*
Y153740D01*
X392203D01*
Y153807D01*
X392137D01*
Y153873D01*
X392071D01*
Y153939D01*
X392004D01*
Y154006D01*
X391938D01*
Y154072D01*
X391871D01*
Y154138D01*
X391739D01*
Y154271D01*
X391606D01*
Y154338D01*
X391540D01*
Y154404D01*
X391473D01*
Y154470D01*
X391407D01*
Y154537D01*
X391341D01*
Y154669D01*
X391274D01*
Y159314D01*
X391341D01*
Y159381D01*
X391407D01*
Y159447D01*
X391473D01*
Y159513D01*
X391540D01*
Y159580D01*
X391606D01*
Y159646D01*
X391672D01*
Y159712D01*
X391739D01*
Y159779D01*
X391805D01*
Y159845D01*
X391871D01*
Y159911D01*
X391938D01*
Y159978D01*
X392004D01*
Y160044D01*
X392071D01*
Y160111D01*
X392137D01*
Y160177D01*
X392203D01*
Y160243D01*
X392270D01*
Y160310D01*
X392336D01*
Y160376D01*
X392402D01*
Y160442D01*
X392469D01*
Y160509D01*
X392535D01*
Y160575D01*
X392602D01*
Y160641D01*
X392734D01*
Y160774D01*
X392867D01*
Y160840D01*
X394791D01*
Y159248D01*
D02*
G37*
G36*
X488125Y241808D02*
X478600D01*
Y290893D01*
X488125D01*
Y241808D01*
D02*
G37*
G36*
X487617Y355854D02*
X478092D01*
Y395364D01*
X487617D01*
Y355854D01*
D02*
G37*
G36*
X501333Y460565D02*
X474472D01*
Y470090D01*
X501333D01*
Y460565D01*
D02*
G37*
G36*
X363563Y18606D02*
X325120D01*
Y28131D01*
X363563D01*
Y18606D01*
D02*
G37*
G36*
X275717Y19876D02*
X236220D01*
Y29400D01*
X275717D01*
Y19876D01*
D02*
G37*
G36*
X187770Y19368D02*
X132588D01*
Y28893D01*
X187770D01*
Y19368D01*
D02*
G37*
%LPC*%
G36*
X403816Y186786D02*
X403750D01*
Y186720D01*
X403683D01*
Y186654D01*
X403617D01*
Y186587D01*
X403550D01*
Y186521D01*
X403484D01*
Y186455D01*
X403418D01*
Y186388D01*
X403351D01*
Y186322D01*
X403285D01*
Y186255D01*
X403219D01*
Y186189D01*
X403152D01*
Y186123D01*
X403086D01*
Y186056D01*
X403020D01*
Y185990D01*
X402953D01*
Y185924D01*
X402887D01*
Y185857D01*
X402821D01*
Y185791D01*
X402754D01*
Y185725D01*
X402688D01*
Y185658D01*
X402621D01*
Y185592D01*
X402555D01*
Y185525D01*
X402489D01*
Y185459D01*
X402422D01*
Y185393D01*
X402356D01*
Y185326D01*
X402290D01*
Y185260D01*
X402223D01*
Y185194D01*
X402157D01*
Y185127D01*
X402091D01*
Y185061D01*
X402024D01*
Y184995D01*
X401958D01*
Y184928D01*
X401892D01*
Y184862D01*
X401825D01*
Y184795D01*
X401759D01*
Y184729D01*
X401692D01*
Y184663D01*
X401626D01*
Y184597D01*
X401560D01*
Y184530D01*
X401493D01*
Y184464D01*
X401427D01*
Y184397D01*
X401361D01*
Y184331D01*
X401294D01*
Y184265D01*
X401228D01*
Y184198D01*
X401162D01*
Y184132D01*
X401095D01*
Y184066D01*
X401029D01*
Y183999D01*
X400962D01*
Y183933D01*
X400896D01*
Y183867D01*
X400830D01*
Y183800D01*
X400763D01*
Y183734D01*
X400697D01*
Y183668D01*
X400631D01*
Y183601D01*
X400564D01*
Y183535D01*
X400498D01*
Y183468D01*
X400432D01*
Y183402D01*
X400365D01*
Y183336D01*
X400299D01*
Y183269D01*
X400233D01*
Y183203D01*
X400166D01*
Y183137D01*
X400100D01*
Y183070D01*
X400033D01*
Y183004D01*
X399967D01*
Y182938D01*
X399901D01*
Y182871D01*
X399834D01*
Y182805D01*
X399768D01*
Y182738D01*
X399702D01*
Y182672D01*
X399635D01*
Y182606D01*
X399569D01*
Y182539D01*
X399503D01*
Y182473D01*
X399436D01*
Y182407D01*
X399370D01*
Y182340D01*
X399304D01*
Y182274D01*
X399237D01*
Y182208D01*
X399171D01*
Y182141D01*
X399104D01*
Y182075D01*
X399038D01*
Y182008D01*
X398972D01*
Y181942D01*
X398905D01*
Y181876D01*
X398839D01*
Y181809D01*
X398773D01*
Y181743D01*
X398706D01*
Y181677D01*
X398640D01*
Y181610D01*
X398574D01*
Y181544D01*
X398507D01*
Y181478D01*
X398441D01*
Y181411D01*
X398375D01*
Y181345D01*
X398308D01*
Y181279D01*
X398242D01*
Y181212D01*
X398176D01*
Y181146D01*
X398109D01*
Y181080D01*
X398043D01*
Y181013D01*
X397976D01*
Y180947D01*
X397910D01*
Y180881D01*
X397844D01*
Y180814D01*
X397777D01*
Y180748D01*
X397711D01*
Y180681D01*
X397645D01*
Y180615D01*
X397578D01*
Y180549D01*
X397512D01*
Y180482D01*
X397445D01*
Y180416D01*
X397379D01*
Y180350D01*
X397313D01*
Y180283D01*
X397247D01*
Y180217D01*
X397180D01*
Y180151D01*
X397114D01*
Y180084D01*
X397047D01*
Y180018D01*
X396981D01*
Y179951D01*
X396915D01*
Y179885D01*
X396848D01*
Y179819D01*
X396782D01*
Y179752D01*
X396716D01*
Y179686D01*
X396649D01*
Y179620D01*
X396583D01*
Y179553D01*
X396517D01*
Y179487D01*
X396450D01*
Y179421D01*
X396384D01*
Y179354D01*
X396317D01*
Y179288D01*
X396251D01*
Y179221D01*
X396185D01*
Y179155D01*
X396118D01*
Y179089D01*
X396052D01*
Y179023D01*
X395986D01*
Y178956D01*
X395919D01*
Y178890D01*
X395853D01*
Y178823D01*
X395787D01*
Y178757D01*
X395720D01*
Y178691D01*
X395654D01*
Y178624D01*
X395588D01*
Y178558D01*
X395521D01*
Y178492D01*
X395455D01*
Y178425D01*
X395388D01*
Y178359D01*
X395322D01*
Y178293D01*
X395256D01*
Y178226D01*
X395189D01*
Y178160D01*
X395123D01*
Y178093D01*
X395057D01*
Y178027D01*
X394990D01*
Y177961D01*
X394924D01*
Y177894D01*
X394858D01*
Y177828D01*
X394791D01*
Y177762D01*
X394725D01*
Y177695D01*
X394659D01*
Y177629D01*
X394592D01*
Y177563D01*
X394526D01*
Y177496D01*
X394459D01*
Y177430D01*
X394393D01*
Y177363D01*
X394327D01*
Y177297D01*
X394260D01*
Y177231D01*
X394194D01*
Y177164D01*
X394128D01*
Y177098D01*
X394061D01*
Y177032D01*
X393995D01*
Y176965D01*
X393929D01*
Y176899D01*
X393862D01*
Y176833D01*
X393796D01*
Y176766D01*
X393730D01*
Y176700D01*
X393663D01*
Y176634D01*
X393597D01*
Y176567D01*
X393531D01*
Y176501D01*
X393464D01*
Y176434D01*
X393398D01*
Y176368D01*
X393331D01*
Y176302D01*
X393265D01*
Y176235D01*
X393199D01*
Y176169D01*
X393132D01*
Y176103D01*
X393066D01*
Y176036D01*
X393000D01*
Y175970D01*
X392933D01*
Y175904D01*
X392867D01*
Y175837D01*
X392800D01*
Y175771D01*
X392734D01*
Y175705D01*
X392668D01*
Y175638D01*
X392602D01*
Y175572D01*
X392535D01*
Y175506D01*
X392469D01*
Y175439D01*
X392402D01*
Y175373D01*
X392336D01*
Y175306D01*
X392270D01*
Y175240D01*
X392203D01*
Y175174D01*
X392137D01*
Y175107D01*
X392071D01*
Y175041D01*
X392004D01*
Y174975D01*
X391938D01*
Y174908D01*
X391871D01*
Y174842D01*
X391805D01*
Y174776D01*
X391739D01*
Y174709D01*
X391672D01*
Y174643D01*
X391606D01*
Y174576D01*
X391540D01*
Y174510D01*
X391473D01*
Y174444D01*
X391407D01*
Y174377D01*
X391341D01*
Y174311D01*
X391274D01*
Y174245D01*
X391208D01*
Y174178D01*
X391142D01*
Y174112D01*
X391075D01*
Y174046D01*
X391009D01*
Y173979D01*
X390942D01*
Y173913D01*
X390876D01*
Y173846D01*
X390810D01*
Y173780D01*
X390743D01*
Y173714D01*
X390677D01*
Y173647D01*
X390611D01*
Y173581D01*
X390544D01*
Y173515D01*
X390478D01*
Y173448D01*
X390412D01*
Y173382D01*
X390345D01*
Y173316D01*
X390279D01*
Y173249D01*
X390213D01*
Y173183D01*
X390146D01*
Y173117D01*
X390080D01*
Y173050D01*
X390014D01*
Y172984D01*
X389947D01*
Y172918D01*
X389881D01*
Y172851D01*
X389814D01*
Y172785D01*
X389748D01*
Y172719D01*
X389682D01*
Y172652D01*
X389615D01*
Y172586D01*
X389549D01*
Y172519D01*
X389483D01*
Y172453D01*
X389416D01*
Y172387D01*
X389350D01*
Y172320D01*
X389284D01*
Y172254D01*
X389217D01*
Y172188D01*
X389151D01*
Y172121D01*
X389085D01*
Y172055D01*
X389018D01*
Y171989D01*
X388952D01*
Y171922D01*
X388885D01*
Y171856D01*
X388819D01*
Y171789D01*
X388753D01*
Y171723D01*
X388686D01*
Y171657D01*
X388620D01*
Y171590D01*
X388554D01*
Y171524D01*
X388487D01*
Y171458D01*
X388421D01*
Y171391D01*
X388355D01*
Y171325D01*
X388288D01*
Y171259D01*
X388222D01*
Y171192D01*
X388156D01*
Y171126D01*
X388089D01*
Y171060D01*
X388023D01*
Y170993D01*
X387956D01*
Y170927D01*
X387890D01*
Y170861D01*
X387824D01*
Y170794D01*
X387757D01*
Y170728D01*
X387691D01*
Y170661D01*
X387625D01*
Y170595D01*
X387558D01*
Y170529D01*
X387492D01*
Y170462D01*
X387426D01*
Y170396D01*
X387359D01*
Y170330D01*
X387293D01*
Y170263D01*
X387226D01*
Y170197D01*
X387160D01*
Y170131D01*
X387094D01*
Y170064D01*
X387027D01*
Y169998D01*
X386961D01*
Y169932D01*
X386895D01*
Y169865D01*
X386828D01*
Y169799D01*
X386762D01*
Y169732D01*
X386696D01*
Y169666D01*
X386629D01*
Y169600D01*
X386563D01*
Y169533D01*
X386497D01*
Y169467D01*
X386430D01*
Y169401D01*
X386364D01*
Y169334D01*
X386297D01*
Y169268D01*
X386231D01*
Y169202D01*
X386165D01*
Y169135D01*
X386098D01*
Y169069D01*
X386032D01*
Y169002D01*
X385966D01*
Y168936D01*
X385899D01*
Y168870D01*
X385833D01*
Y168803D01*
X385767D01*
Y168737D01*
X385700D01*
Y168671D01*
X385634D01*
Y168604D01*
X385568D01*
Y168538D01*
X385501D01*
Y168472D01*
X385435D01*
Y168405D01*
X385368D01*
Y168339D01*
X385302D01*
Y168272D01*
X385236D01*
Y168206D01*
X385169D01*
Y168140D01*
X385103D01*
Y168074D01*
X385037D01*
Y168007D01*
X384970D01*
Y167941D01*
X384904D01*
Y167874D01*
X384838D01*
Y167808D01*
X384771D01*
Y167742D01*
X384705D01*
Y167675D01*
X384639D01*
Y167609D01*
X384572D01*
Y167543D01*
X384506D01*
Y167410D01*
X384771D01*
Y167476D01*
X384838D01*
Y167410D01*
X403750D01*
Y167476D01*
X403816D01*
Y186786D01*
D02*
G37*
G36*
X486855Y289624D02*
Y287845D01*
X481698D01*
Y285280D01*
X486855D01*
Y283502D01*
X481546D01*
Y289624D01*
X479869D01*
Y283502D01*
X486855D01*
Y289624D01*
D02*
G37*
G36*
X485445Y282905D02*
X479869D01*
Y276123D01*
X485445D01*
X486855Y277546D01*
Y279438D01*
X485305D01*
Y278613D01*
X479869D01*
Y280429D01*
X485305D01*
Y279590D01*
X486855D01*
Y281483D01*
X485445Y282905D01*
D02*
G37*
G36*
Y275349D02*
X481292D01*
X479869Y273914D01*
Y275349D01*
D01*
D01*
Y268529D01*
Y269964D01*
X481279Y268529D01*
X479869D01*
X486855D01*
Y273914D01*
X485445Y275349D01*
D02*
G37*
G36*
X486855Y264973D02*
X479869Y260795D01*
Y262788D01*
X482905D01*
X486219Y264973D01*
X479869D01*
Y258242D01*
X486855Y262395D01*
Y264973D01*
D02*
G37*
G36*
Y260795D02*
Y260426D01*
X483819D01*
X480517Y258242D01*
X486855D01*
Y260795D01*
D02*
G37*
G36*
Y257797D02*
X479869Y255054D01*
Y252666D01*
X484568Y254483D01*
Y253289D01*
X486118Y252794D01*
Y255041D01*
X486855Y255333D01*
Y254483D01*
Y257797D01*
D02*
G37*
G36*
X482968Y253644D02*
X480174Y252527D01*
X486855Y250000D01*
Y252527D01*
Y252374D01*
X482968Y253644D01*
D02*
G37*
G36*
X486855Y249669D02*
Y248260D01*
X485445Y249669D01*
X484314D01*
Y247193D01*
X485305D01*
Y245694D01*
X486855D01*
Y249669D01*
D02*
G37*
G36*
X483001D02*
X481292D01*
X479869Y248260D01*
Y245555D01*
Y245694D01*
X481432D01*
Y247193D01*
X482790D01*
Y249669D01*
X483001D01*
D02*
G37*
G36*
X486855Y245555D02*
X479869D01*
D01*
D01*
Y243078D01*
Y244488D01*
X481279Y243078D01*
X479869D01*
X486855D01*
X485445D01*
X486855Y244488D01*
Y245555D01*
D02*
G37*
%LPD*%
G36*
X485280Y272009D02*
X486855D01*
Y271856D01*
X485280D01*
Y271018D01*
X481444D01*
Y271856D01*
X479869D01*
Y272009D01*
X481444D01*
Y272872D01*
X485280D01*
Y272009D01*
D02*
G37*
G36*
X486855Y268529D02*
X485445D01*
X486855Y269964D01*
Y268529D01*
D02*
G37*
%LPC*%
G36*
X486347Y394094D02*
X479361Y389915D01*
Y391909D01*
X482397D01*
X485712Y394094D01*
X479361D01*
Y387363D01*
X486347Y391516D01*
Y394094D01*
D02*
G37*
G36*
Y389915D02*
Y389547D01*
X483311D01*
X480009Y387363D01*
X486347D01*
Y389915D01*
D02*
G37*
G36*
Y386474D02*
X484696D01*
Y385788D01*
X481012D01*
Y386474D01*
X479361D01*
Y382638D01*
X486347D01*
Y386474D01*
D02*
G37*
G36*
X485712Y379019D02*
X479361D01*
Y376834D01*
X482397D01*
X485712Y379019D01*
D02*
G37*
G36*
X486347D02*
D01*
X479361Y374841D01*
Y372288D01*
X486347Y376441D01*
Y374472D01*
X483311D01*
X480009Y372288D01*
X486347D01*
Y379019D01*
D02*
G37*
G36*
Y371843D02*
D01*
X479361Y369100D01*
Y366712D01*
X484061Y368529D01*
Y367335D01*
X485610Y366839D01*
Y369087D01*
X486347Y369380D01*
Y366420D01*
X482460Y367690D01*
X479666Y366573D01*
X486347Y364045D01*
X479361D01*
X486347D01*
Y371843D01*
D02*
G37*
G36*
Y363715D02*
D01*
Y362306D01*
X484937Y363715D01*
X483806D01*
Y361239D01*
X484797D01*
Y359740D01*
X486347D01*
Y359600D01*
X479361D01*
Y358534D01*
X480771Y357124D01*
X479361D01*
X486347D01*
Y363715D01*
D02*
G37*
G36*
X482493D02*
X480784D01*
X479361Y362306D01*
Y359740D01*
X480924D01*
Y361239D01*
X482282D01*
Y363715D01*
X482493D01*
D02*
G37*
%LPD*%
G36*
X484696Y382638D02*
X481012D01*
Y383311D01*
X484696D01*
Y382638D01*
D02*
G37*
G36*
X486347Y357124D02*
X484937D01*
X486347Y358534D01*
Y357124D01*
D02*
G37*
%LPC*%
G36*
X481089Y468820D02*
X478218D01*
Y467398D01*
X480035D01*
Y466712D01*
X482333D01*
Y467576D01*
X481089Y468820D01*
D02*
G37*
G36*
X493027D02*
X490766D01*
X490042Y465900D01*
X491071Y462178D01*
X493027Y468820D01*
D02*
G37*
G36*
X498640D02*
X495910D01*
Y467258D01*
X497586D01*
Y463385D01*
X495910D01*
Y461836D01*
X498640D01*
X500062Y463245D01*
Y467398D01*
X498640Y468820D01*
D02*
G37*
G36*
X495770D02*
X493293D01*
Y461836D01*
X495770D01*
Y468820D01*
D02*
G37*
G36*
X489179D02*
X486702D01*
X488594Y461836D01*
X490944D01*
X489179Y468820D01*
D02*
G37*
G36*
X485115D02*
X482689D01*
X484734Y461836D01*
X486943D01*
X487705Y464617D01*
X486702Y467944D01*
X486029Y465087D01*
X485115Y468820D01*
D02*
G37*
G36*
X478079D02*
X477152D01*
X475742Y467411D01*
Y465785D01*
X477152Y464375D01*
X480035D01*
Y461836D01*
X481101D01*
X482511Y463245D01*
Y464985D01*
X481139Y466408D01*
X478079D01*
Y468820D01*
D02*
G37*
G36*
X478218Y464071D02*
X475742D01*
Y463245D01*
X476936Y461836D01*
X479895D01*
Y463258D01*
X478218D01*
Y464071D01*
D02*
G37*
G36*
X346710Y26860D02*
X343840D01*
Y25438D01*
X345656D01*
Y24752D01*
X347955D01*
Y25616D01*
X346710Y26860D01*
D02*
G37*
G36*
X355397D02*
X351650D01*
Y25349D01*
X353060D01*
Y24689D01*
X355397D01*
Y26860D01*
D02*
G37*
G36*
X362293Y22288D02*
X360020D01*
Y21425D01*
X358902D01*
Y19876D01*
X362293D01*
Y22288D01*
D02*
G37*
G36*
X358762Y26860D02*
X356286D01*
Y19876D01*
X358762D01*
Y26860D01*
D02*
G37*
G36*
X355397Y22111D02*
X352920D01*
Y21425D01*
X351650D01*
Y19876D01*
X355397D01*
Y22111D01*
D02*
G37*
G36*
X351511Y26860D02*
X349034D01*
Y19876D01*
X351511D01*
Y22657D01*
X353670D01*
Y24168D01*
X351511D01*
Y26860D01*
D02*
G37*
G36*
X343700D02*
X342773D01*
X341363Y25451D01*
Y23825D01*
X342773Y22415D01*
X345656D01*
Y19876D01*
X346723D01*
X348132Y21285D01*
Y23025D01*
X346761Y24448D01*
X343700D01*
Y26860D01*
D02*
G37*
G36*
X343840Y22111D02*
X341363D01*
Y21285D01*
X342557Y19876D01*
X345516D01*
Y21298D01*
X343840D01*
Y22111D01*
D02*
G37*
G36*
X336461Y26860D02*
X333731D01*
Y25298D01*
X335407D01*
Y21425D01*
X333731D01*
Y19876D01*
X336461D01*
X337883Y21285D01*
Y25438D01*
X336461Y26860D01*
D02*
G37*
G36*
X333591D02*
X331114D01*
Y19876D01*
X333591D01*
Y26860D01*
D02*
G37*
G36*
X330225D02*
X326390D01*
Y25210D01*
X327063D01*
Y21527D01*
X326390D01*
Y19876D01*
X330225D01*
Y21527D01*
X329540D01*
Y25210D01*
X330225D01*
Y26860D01*
D02*
G37*
G36*
X251473Y28131D02*
X247726D01*
Y26619D01*
X249136D01*
Y25959D01*
X251473D01*
Y28131D01*
D02*
G37*
G36*
X273202D02*
X270281D01*
Y26568D01*
X271971D01*
Y25895D01*
X274447D01*
Y26708D01*
X273202Y28131D01*
D02*
G37*
G36*
X274447Y25108D02*
X271120D01*
Y23558D01*
X272225D01*
Y21146D01*
X274447D01*
Y25108D01*
D02*
G37*
G36*
X270142Y28131D02*
X269075D01*
X267665Y26721D01*
Y22555D01*
X269075Y21146D01*
X272085D01*
Y22695D01*
X270142D01*
Y28131D01*
D02*
G37*
G36*
X266738D02*
X264262D01*
Y22695D01*
X263423D01*
Y21146D01*
X265316D01*
X266738Y22555D01*
Y28131D01*
D02*
G37*
G36*
X262446D02*
X259956D01*
Y22555D01*
X261379Y21146D01*
X263271D01*
Y22695D01*
X262446D01*
Y28131D01*
D02*
G37*
G36*
X257747D02*
X254978D01*
Y26568D01*
X256654D01*
Y25324D01*
X254978D01*
Y23939D01*
X256654D01*
Y22695D01*
X254978D01*
Y21146D01*
X257759D01*
X259182Y22555D01*
Y23965D01*
X258496Y24613D01*
X259182Y25248D01*
Y26708D01*
X257747Y28131D01*
D02*
G37*
G36*
X254838D02*
X252362D01*
Y21146D01*
X254838D01*
Y28131D01*
D02*
G37*
G36*
X251473Y23381D02*
X248996D01*
Y22695D01*
X247726D01*
Y21146D01*
X251473D01*
Y23381D01*
D02*
G37*
G36*
X247586Y28131D02*
X245110D01*
Y21146D01*
X247586D01*
Y23927D01*
X249746D01*
Y25438D01*
X247586D01*
Y28131D01*
D02*
G37*
G36*
X242837D02*
X240106D01*
Y26568D01*
X241783D01*
Y22695D01*
X240106D01*
Y21146D01*
X242837D01*
X244259Y22555D01*
Y26708D01*
X242837Y28131D01*
D02*
G37*
G36*
X239967D02*
X237490D01*
Y21146D01*
X239967D01*
Y28131D01*
D02*
G37*
G36*
X162281Y27622D02*
X156159D01*
Y25946D01*
X162281D01*
Y27622D01*
D02*
G37*
G36*
X170917D02*
X168046D01*
Y26200D01*
X169862D01*
Y25514D01*
X172161D01*
Y26378D01*
X170917Y27622D01*
D02*
G37*
G36*
X179603D02*
X175857D01*
Y26111D01*
X177267D01*
Y25451D01*
X179603D01*
Y27622D01*
D02*
G37*
G36*
X186500Y23050D02*
X184226D01*
Y22187D01*
X183109D01*
Y20638D01*
X186500D01*
Y23050D01*
D02*
G37*
G36*
X182969Y27622D02*
X180492D01*
Y20638D01*
X182969D01*
Y27622D01*
D02*
G37*
G36*
X179603Y22873D02*
X177127D01*
Y22187D01*
X175857D01*
Y20638D01*
X179603D01*
Y22873D01*
D02*
G37*
G36*
X175717Y27622D02*
X173241D01*
Y20638D01*
X175717D01*
Y23419D01*
X177876D01*
Y24930D01*
X175717D01*
Y27622D01*
D02*
G37*
G36*
X167907D02*
X166980D01*
X165570Y26213D01*
Y24587D01*
X166980Y23177D01*
X169862D01*
Y20638D01*
X170929D01*
X172339Y22047D01*
Y23787D01*
X170967Y25210D01*
X167907D01*
Y27622D01*
D02*
G37*
G36*
X168046Y22873D02*
X165570D01*
Y22047D01*
X166764Y20638D01*
X169723D01*
Y22060D01*
X168046D01*
Y22873D01*
D02*
G37*
G36*
X160503Y25794D02*
X157937D01*
Y20638D01*
X160503D01*
Y25794D01*
D02*
G37*
G36*
X154229Y27622D02*
X152324D01*
Y26048D01*
X153187D01*
Y22212D01*
X152324D01*
Y20638D01*
X154229D01*
X155664Y22047D01*
Y26200D01*
X154229Y27622D01*
D02*
G37*
G36*
X152171D02*
X150279D01*
X148844Y26213D01*
Y22047D01*
X150279Y20638D01*
X152171D01*
Y22212D01*
X151333D01*
Y26048D01*
X152171D01*
Y27622D01*
D02*
G37*
G36*
X146736D02*
X144831D01*
Y26048D01*
X145694D01*
Y22212D01*
X144831D01*
Y20638D01*
X146736D01*
X148171Y22047D01*
Y26200D01*
X146736Y27622D01*
D02*
G37*
G36*
X144678D02*
X142786D01*
X141351Y26213D01*
Y22047D01*
X142786Y20638D01*
X144678D01*
Y22212D01*
X143840D01*
Y26048D01*
X144678D01*
Y27622D01*
D02*
G37*
G36*
X139243D02*
X136474D01*
Y26060D01*
X138151D01*
Y24816D01*
X136474D01*
Y23431D01*
X138151D01*
Y22187D01*
X136474D01*
Y20638D01*
X139256D01*
X140678Y22047D01*
Y23457D01*
X139992Y24105D01*
X140678Y24740D01*
Y26200D01*
X139243Y27622D01*
D02*
G37*
G36*
X136334D02*
X133858D01*
Y20638D01*
X136334D01*
Y27622D01*
D02*
G37*
%LPD*%
D10*
X478668Y346608D02*
G03*
X478668Y346608I-1000J0D01*
G01*
X65998Y160922D02*
G03*
X65998Y160922I-1000J0D01*
G01*
X211938Y271640D02*
G03*
X211938Y271640I-1000J0D01*
G01*
X248067Y402222D02*
G03*
X248067Y402222I-1000J0D01*
G01*
X350567Y481480D02*
G03*
X350567Y481480I-1000J0D01*
G01*
X523311Y402594D02*
G03*
X523311Y402594I-1000J0D01*
G01*
X512811Y209093D02*
G03*
X512811Y209093I-1000J0D01*
G01*
X452002Y120058D02*
G03*
X452002Y120058I-1000J0D01*
G01*
X500202Y434340D02*
Y459740D01*
X394802Y434340D02*
X500202D01*
X394802D02*
Y459740D01*
X500202D01*
X27842Y277212D02*
X95842D01*
X27842Y250212D02*
Y277212D01*
Y194212D02*
Y221212D01*
Y194212D02*
X95842D01*
X110842Y250212D02*
Y262212D01*
X95842Y277212D02*
X110842Y262212D01*
X95842Y194212D02*
X110842Y209212D01*
Y221212D01*
X223664Y388748D02*
X227664D01*
X223664Y357248D02*
Y388748D01*
Y357248D02*
X227664D01*
X237664Y388748D02*
X241664D01*
Y357248D02*
Y388748D01*
X237664Y357248D02*
X241664D01*
X223664Y372998D02*
X241664D01*
X237490Y431071D02*
Y451071D01*
X261490Y448071D02*
Y451071D01*
X213490Y431071D02*
Y434071D01*
Y431071D02*
X261490D01*
Y434071D01*
X213490Y451071D02*
X261490D01*
X213490Y448071D02*
Y451071D01*
X350644Y431071D02*
Y434071D01*
X302644Y431071D02*
X350644D01*
X302644Y448071D02*
Y451071D01*
X350644D01*
Y448071D02*
Y451071D01*
X302644Y431071D02*
Y434071D01*
X326644Y431071D02*
Y451071D01*
X201266Y469816D02*
Y537816D01*
X174266D02*
X201266D01*
X118266D02*
X145266D01*
X118266Y469816D02*
Y537816D01*
X174266Y454816D02*
X186266D01*
X201266Y469816D01*
X118266D02*
X133266Y454816D01*
X145266D01*
X351816Y353114D02*
Y355614D01*
X375316D01*
X351816Y325614D02*
X375316D01*
X351816D02*
Y328114D01*
X133374Y56884D02*
X212574D01*
Y29984D02*
Y56884D01*
X133374Y29984D02*
X212574D01*
X133374D02*
Y56884D01*
X237006Y29984D02*
X316206D01*
X237006D02*
Y56884D01*
X316206D01*
Y29984D02*
Y56884D01*
D11*
X365240Y275051D02*
G03*
X365240Y275051I-1501J0D01*
G01*
X346106Y282725D02*
G03*
X346106Y282725I-1501J0D01*
G01*
D12*
X218324Y43434D02*
G03*
X218324Y43434I-1250J0D01*
G01*
X233756D02*
G03*
X233756Y43434I-1250J0D01*
G01*
D13*
X26670Y385132D02*
G03*
X26510Y339201I14666J-23017D01*
G01*
X101079Y298923D02*
G03*
X143510Y321632I15139J22709D01*
G01*
X144123Y402186D02*
G03*
X102638Y426218I-27283J726D01*
G01*
X26510Y339201D02*
X101079Y298923D01*
X143510Y321632D02*
X144123Y402186D01*
X26670Y385132D02*
X102638Y426218D01*
X377444Y511048D02*
X409448D01*
X377444Y498348D02*
X409448D01*
X377444D02*
Y511048D01*
X409448Y498348D02*
Y511048D01*
X470233Y376725D02*
X462615D01*
Y380534D01*
X463885Y381803D01*
X466424D01*
X467694Y380534D01*
Y376725D01*
Y379264D02*
X470233Y381803D01*
X463885Y384342D02*
X462615Y385612D01*
Y388151D01*
X463885Y389421D01*
X465154D01*
X466424Y388151D01*
Y386882D01*
Y388151D01*
X467694Y389421D01*
X468963D01*
X470233Y388151D01*
Y385612D01*
X468963Y384342D01*
X470233Y391960D02*
Y394499D01*
Y393230D01*
X462615D01*
X463885Y391960D01*
X456263Y376217D02*
X448645D01*
Y380026D01*
X449915Y381295D01*
X452454D01*
X453724Y380026D01*
Y376217D01*
Y378756D02*
X456263Y381295D01*
Y388913D02*
Y383834D01*
X451184Y388913D01*
X449915D01*
X448645Y387643D01*
Y385104D01*
X449915Y383834D01*
X456263Y391452D02*
Y393991D01*
Y392722D01*
X448645D01*
X449915Y391452D01*
X444755Y473709D02*
X442216D01*
X443486D01*
Y467361D01*
X442216Y466091D01*
X440947D01*
X439677Y467361D01*
X452373Y466091D02*
X447294D01*
X452373Y471170D01*
Y472439D01*
X451103Y473709D01*
X448564D01*
X447294Y472439D01*
X454912Y466091D02*
X457451D01*
X456181D01*
Y473709D01*
X454912Y472439D01*
X67706Y469137D02*
X68976Y470407D01*
X71515D01*
X72784Y469137D01*
Y467868D01*
X71515Y466598D01*
X70245D01*
X71515D01*
X72784Y465328D01*
Y464059D01*
X71515Y462789D01*
X68976D01*
X67706Y464059D01*
X80402Y462789D02*
X75324D01*
X80402Y467868D01*
Y469137D01*
X79132Y470407D01*
X76593D01*
X75324Y469137D01*
X27178Y308865D02*
X22100D01*
X27178Y313944D01*
Y315213D01*
X25909Y316483D01*
X23370D01*
X22100Y315213D01*
X34796Y308865D02*
X29718D01*
X34796Y313944D01*
Y315213D01*
X33526Y316483D01*
X30987D01*
X29718Y315213D01*
X112777Y75947D02*
Y83565D01*
X108968Y79756D01*
X114046D01*
X121664Y75947D02*
X116586D01*
X121664Y81026D01*
Y82295D01*
X120394Y83565D01*
X117855D01*
X116586Y82295D01*
X126748Y562101D02*
X125478Y563371D01*
X122939D01*
X121669Y562101D01*
Y557023D01*
X122939Y555753D01*
X125478D01*
X126748Y557023D01*
X129287Y562101D02*
X130556Y563371D01*
X133096D01*
X134365Y562101D01*
Y560832D01*
X133096Y559562D01*
X131826D01*
X133096D01*
X134365Y558292D01*
Y557023D01*
X133096Y555753D01*
X130556D01*
X129287Y557023D01*
X141983Y555753D02*
X136904D01*
X141983Y560832D01*
Y562101D01*
X140713Y563371D01*
X138174D01*
X136904Y562101D01*
X27942Y183387D02*
X26672Y184657D01*
X24133D01*
X22863Y183387D01*
Y178309D01*
X24133Y177039D01*
X26672D01*
X27942Y178309D01*
X35559Y177039D02*
X30481D01*
X35559Y182118D01*
Y183387D01*
X34290Y184657D01*
X31750D01*
X30481Y183387D01*
X43177Y177039D02*
X38098D01*
X43177Y182118D01*
Y183387D01*
X41907Y184657D01*
X39368D01*
X38098Y183387D01*
X89919Y183641D02*
Y177293D01*
X91189Y176023D01*
X93728D01*
X94998Y177293D01*
Y183641D01*
X102615Y176023D02*
X97537D01*
X102615Y181102D01*
Y182371D01*
X101346Y183641D01*
X98806D01*
X97537Y182371D01*
X110233Y176023D02*
X105154D01*
X110233Y181102D01*
Y182371D01*
X108963Y183641D01*
X106424D01*
X105154Y182371D01*
X18798Y406907D02*
X16258D01*
X17528D01*
Y400559D01*
X16258Y399289D01*
X14989D01*
X13719Y400559D01*
X26415Y399289D02*
X21337D01*
X26415Y404368D01*
Y405637D01*
X25146Y406907D01*
X22606D01*
X21337Y405637D01*
X34033Y399289D02*
X28954D01*
X34033Y404368D01*
Y405637D01*
X32763Y406907D01*
X30224D01*
X28954Y405637D01*
X441709Y334517D02*
Y326899D01*
X445518D01*
X446788Y328169D01*
Y333247D01*
X445518Y334517D01*
X441709D01*
X453136Y326899D02*
Y334517D01*
X449327Y330708D01*
X454405D01*
X460753Y326899D02*
Y334517D01*
X456944Y330708D01*
X462023D01*
X314582Y208279D02*
Y201931D01*
X315851Y200661D01*
X318390D01*
X319660Y201931D01*
Y208279D01*
X322199Y200661D02*
X324738D01*
X323469D01*
Y208279D01*
X322199Y207009D01*
X328547Y200661D02*
X331086D01*
X329817D01*
Y208279D01*
X328547Y207009D01*
X429134Y23875D02*
X427864Y25145D01*
X425325D01*
X424056Y23875D01*
Y22606D01*
X425325Y21336D01*
X427864D01*
X429134Y20066D01*
Y18797D01*
X427864Y17527D01*
X425325D01*
X424056Y18797D01*
X431673Y17527D02*
X434212D01*
X432943D01*
Y25145D01*
X431673Y23875D01*
X438021Y17527D02*
X440560D01*
X439291D01*
Y25145D01*
X438021Y23875D01*
X226403Y160021D02*
Y167639D01*
X230212D01*
X231482Y166369D01*
Y163830D01*
X230212Y162560D01*
X226403D01*
X228943D02*
X231482Y160021D01*
X234021Y166369D02*
X235290Y167639D01*
X237830D01*
X239099Y166369D01*
Y165100D01*
X237830Y163830D01*
X236560D01*
X237830D01*
X239099Y162560D01*
Y161291D01*
X237830Y160021D01*
X235290D01*
X234021Y161291D01*
X241638Y166369D02*
X242908Y167639D01*
X245447D01*
X246717Y166369D01*
Y165100D01*
X245447Y163830D01*
X244178D01*
X245447D01*
X246717Y162560D01*
Y161291D01*
X245447Y160021D01*
X242908D01*
X241638Y161291D01*
X304293Y26161D02*
X301754D01*
X303024D01*
Y19813D01*
X301754Y18543D01*
X300485D01*
X299215Y19813D01*
X306832Y24891D02*
X308102Y26161D01*
X310641D01*
X311911Y24891D01*
Y23622D01*
X310641Y22352D01*
X309372D01*
X310641D01*
X311911Y21082D01*
Y19813D01*
X310641Y18543D01*
X308102D01*
X306832Y19813D01*
X314450Y18543D02*
X316989D01*
X315720D01*
Y26161D01*
X314450Y24891D01*
X528830Y301751D02*
X526291D01*
X527560D01*
Y295403D01*
X526291Y294133D01*
X525021D01*
X523751Y295403D01*
X536447Y301751D02*
X531369D01*
Y297942D01*
X533908Y299212D01*
X535178D01*
X536447Y297942D01*
Y295403D01*
X535178Y294133D01*
X532638D01*
X531369Y295403D01*
X542795Y294133D02*
Y301751D01*
X538986Y297942D01*
X544065D01*
X363985Y295921D02*
Y289573D01*
X365255Y288303D01*
X367794D01*
X369064Y289573D01*
Y295921D01*
X375412Y288303D02*
Y295921D01*
X371603Y292112D01*
X376681D01*
X383029Y288303D02*
Y295921D01*
X379220Y292112D01*
X384299D01*
X268887Y346724D02*
Y340376D01*
X270156Y339107D01*
X272695D01*
X273965Y340376D01*
Y346724D01*
X276504Y345455D02*
X277774Y346724D01*
X280313D01*
X281582Y345455D01*
Y344185D01*
X280313Y342916D01*
X279043D01*
X280313D01*
X281582Y341646D01*
Y340376D01*
X280313Y339107D01*
X277774D01*
X276504Y340376D01*
X284122Y345455D02*
X285391Y346724D01*
X287930D01*
X289200Y345455D01*
Y344185D01*
X287930Y342916D01*
X286661D01*
X287930D01*
X289200Y341646D01*
Y340376D01*
X287930Y339107D01*
X285391D01*
X284122Y340376D01*
X419103Y225311D02*
Y232929D01*
X422912D01*
X424182Y231659D01*
Y229120D01*
X422912Y227850D01*
X419103D01*
X421642D02*
X424182Y225311D01*
X430530D02*
Y232929D01*
X426721Y229120D01*
X431799D01*
X438147Y225311D02*
Y232929D01*
X434338Y229120D01*
X439417D01*
X367791Y406277D02*
X360173D01*
Y410086D01*
X361443Y411356D01*
X363982D01*
X365252Y410086D01*
Y406277D01*
Y408816D02*
X367791Y411356D01*
Y413895D02*
Y416434D01*
Y415164D01*
X360173D01*
X361443Y413895D01*
Y420243D02*
X360173Y421512D01*
Y424052D01*
X361443Y425321D01*
X366521D01*
X367791Y424052D01*
Y421512D01*
X366521Y420243D01*
X361443D01*
Y427860D02*
X360173Y429130D01*
Y431669D01*
X361443Y432939D01*
X362712D01*
X363982Y431669D01*
Y430400D01*
Y431669D01*
X365252Y432939D01*
X366521D01*
X367791Y431669D01*
Y429130D01*
X366521Y427860D01*
X310645Y453645D02*
Y461263D01*
X314454D01*
X315724Y459993D01*
Y457454D01*
X314454Y456184D01*
X310645D01*
X313185D02*
X315724Y453645D01*
X318263Y461263D02*
X323341D01*
Y459993D01*
X318263Y454915D01*
Y453645D01*
X325880Y459993D02*
X327150Y461263D01*
X329689D01*
X330959Y459993D01*
Y458724D01*
X329689Y457454D01*
X328420D01*
X329689D01*
X330959Y456184D01*
Y454915D01*
X329689Y453645D01*
X327150D01*
X325880Y454915D01*
X234445Y453899D02*
Y461517D01*
X238254D01*
X239524Y460247D01*
Y457708D01*
X238254Y456438D01*
X234445D01*
X236985D02*
X239524Y453899D01*
X247141Y461517D02*
X244602Y460247D01*
X242063Y457708D01*
Y455169D01*
X243332Y453899D01*
X245872D01*
X247141Y455169D01*
Y456438D01*
X245872Y457708D01*
X242063D01*
X249680Y460247D02*
X250950Y461517D01*
X253489D01*
X254759Y460247D01*
Y458978D01*
X253489Y457708D01*
X252220D01*
X253489D01*
X254759Y456438D01*
Y455169D01*
X253489Y453899D01*
X250950D01*
X249680Y455169D01*
X364747Y311405D02*
Y319023D01*
X368556D01*
X369826Y317753D01*
Y315214D01*
X368556Y313944D01*
X364747D01*
X367286D02*
X369826Y311405D01*
X377443Y319023D02*
X372365D01*
Y315214D01*
X374904Y316484D01*
X376174D01*
X377443Y315214D01*
Y312675D01*
X376174Y311405D01*
X373634D01*
X372365Y312675D01*
X379982Y317753D02*
X381252Y319023D01*
X383791D01*
X385061Y317753D01*
Y316484D01*
X383791Y315214D01*
X382522D01*
X383791D01*
X385061Y313944D01*
Y312675D01*
X383791Y311405D01*
X381252D01*
X379982Y312675D01*
X377955Y405131D02*
Y412749D01*
X381764D01*
X383034Y411479D01*
Y408940D01*
X381764Y407670D01*
X377955D01*
X380494D02*
X383034Y405131D01*
X389382D02*
Y412749D01*
X385573Y408940D01*
X390651D01*
X393190Y411479D02*
X394460Y412749D01*
X396999D01*
X398269Y411479D01*
Y410210D01*
X396999Y408940D01*
X395730D01*
X396999D01*
X398269Y407670D01*
Y406401D01*
X396999Y405131D01*
X394460D01*
X393190Y406401D01*
X124717Y187961D02*
Y195579D01*
X128526D01*
X129796Y194309D01*
Y191770D01*
X128526Y190500D01*
X124717D01*
X127256D02*
X129796Y187961D01*
X137413D02*
X132335D01*
X137413Y193040D01*
Y194309D01*
X136144Y195579D01*
X133604D01*
X132335Y194309D01*
X145031Y187961D02*
X139952D01*
X145031Y193040D01*
Y194309D01*
X143761Y195579D01*
X141222D01*
X139952Y194309D01*
X182121Y104903D02*
Y112521D01*
X185930D01*
X187199Y111251D01*
Y108712D01*
X185930Y107442D01*
X182121D01*
X184660D02*
X187199Y104903D01*
X193547D02*
Y112521D01*
X189738Y108712D01*
X194817D01*
X197356Y104903D02*
X199895D01*
X198626D01*
Y112521D01*
X197356Y111251D01*
X151006Y73407D02*
Y81025D01*
X154814D01*
X156084Y79755D01*
Y77216D01*
X154814Y75946D01*
X151006D01*
X153545D02*
X156084Y73407D01*
X158623D02*
X161162D01*
X159893D01*
Y81025D01*
X158623Y79755D01*
X164971Y73407D02*
X167510D01*
X166241D01*
Y81025D01*
X164971Y79755D01*
X506055Y310498D02*
X508594D01*
X507324D01*
Y316846D01*
X508594Y318116D01*
X509864D01*
X511133Y316846D01*
X499707Y318116D02*
Y310498D01*
X503516Y314307D01*
X498437D01*
X492089Y318116D02*
Y310498D01*
X495898Y314307D01*
X490820D01*
X358904Y573591D02*
X356365D01*
X357634D01*
Y567243D01*
X356365Y565973D01*
X355095D01*
X353825Y567243D01*
X365252Y565973D02*
Y573591D01*
X361443Y569782D01*
X366521D01*
X369060Y572321D02*
X370330Y573591D01*
X372869D01*
X374139Y572321D01*
Y571052D01*
X372869Y569782D01*
X371600D01*
X372869D01*
X374139Y568512D01*
Y567243D01*
X372869Y565973D01*
X370330D01*
X369060Y567243D01*
X383792Y527556D02*
X381253D01*
X382523D01*
Y521208D01*
X381253Y519938D01*
X379984D01*
X378714Y521208D01*
X386331Y526286D02*
X387601Y527556D01*
X390140D01*
X391410Y526286D01*
Y525016D01*
X390140Y523747D01*
X388871D01*
X390140D01*
X391410Y522477D01*
Y521208D01*
X390140Y519938D01*
X387601D01*
X386331Y521208D01*
X393949Y526286D02*
X395219Y527556D01*
X397758D01*
X399027Y526286D01*
Y525016D01*
X397758Y523747D01*
X396488D01*
X397758D01*
X399027Y522477D01*
Y521208D01*
X397758Y519938D01*
X395219D01*
X393949Y521208D01*
X202312Y26669D02*
X199773D01*
X201042D01*
Y20321D01*
X199773Y19051D01*
X198503D01*
X197234Y20321D01*
X204851Y19051D02*
X207390D01*
X206121D01*
Y26669D01*
X204851Y25399D01*
X211199Y19051D02*
X213738D01*
X212469D01*
Y26669D01*
X211199Y25399D01*
X157991Y155701D02*
Y148083D01*
X161800D01*
X163070Y149353D01*
Y154431D01*
X161800Y155701D01*
X157991D01*
X170687Y148083D02*
X165609D01*
X170687Y153162D01*
Y154431D01*
X169418Y155701D01*
X166878D01*
X165609Y154431D01*
X178305Y148083D02*
X173226D01*
X178305Y153162D01*
Y154431D01*
X177035Y155701D01*
X174496D01*
X173226Y154431D01*
X247272Y112775D02*
Y105157D01*
X251080D01*
X252350Y106427D01*
Y111505D01*
X251080Y112775D01*
X247272D01*
X254889Y105157D02*
X257428D01*
X256159D01*
Y112775D01*
X254889Y111505D01*
X261237Y105157D02*
X263776D01*
X262507D01*
Y112775D01*
X261237Y111505D01*
X201170Y382649D02*
X199900Y383919D01*
X197361D01*
X196091Y382649D01*
Y377571D01*
X197361Y376301D01*
X199900D01*
X201170Y377571D01*
X203709Y383919D02*
X208787D01*
Y382649D01*
X203709Y377571D01*
Y376301D01*
X211326Y382649D02*
X212596Y383919D01*
X215135D01*
X216405Y382649D01*
Y381380D01*
X215135Y380110D01*
X213866D01*
X215135D01*
X216405Y378840D01*
Y377571D01*
X215135Y376301D01*
X212596D01*
X211326Y377571D01*
X174753Y403226D02*
X173483Y401956D01*
Y399417D01*
X174753Y398147D01*
X179831D01*
X181101Y399417D01*
Y401956D01*
X179831Y403226D01*
X173483Y410843D02*
Y405765D01*
X177292D01*
X176022Y408304D01*
Y409574D01*
X177292Y410843D01*
X179831D01*
X181101Y409574D01*
Y407034D01*
X179831Y405765D01*
X174753Y413382D02*
X173483Y414652D01*
Y417191D01*
X174753Y418461D01*
X176022D01*
X177292Y417191D01*
Y415922D01*
Y417191D01*
X178562Y418461D01*
X179831D01*
X181101Y417191D01*
Y414652D01*
X179831Y413382D01*
X190247Y402972D02*
X188977Y401702D01*
Y399163D01*
X190247Y397893D01*
X195325D01*
X196595Y399163D01*
Y401702D01*
X195325Y402972D01*
X188977Y410589D02*
X190247Y408050D01*
X192786Y405511D01*
X195325D01*
X196595Y406780D01*
Y409320D01*
X195325Y410589D01*
X194056D01*
X192786Y409320D01*
Y405511D01*
X190247Y413128D02*
X188977Y414398D01*
Y416937D01*
X190247Y418207D01*
X191516D01*
X192786Y416937D01*
Y415667D01*
Y416937D01*
X194056Y418207D01*
X195325D01*
X196595Y416937D01*
Y414398D01*
X195325Y413128D01*
X200916Y339597D02*
X199646Y340867D01*
X197107D01*
X195837Y339597D01*
Y334519D01*
X197107Y333249D01*
X199646D01*
X200916Y334519D01*
X207264Y333249D02*
Y340867D01*
X203455Y337058D01*
X208533D01*
X211072Y339597D02*
X212342Y340867D01*
X214881D01*
X216151Y339597D01*
Y338328D01*
X214881Y337058D01*
X213612D01*
X214881D01*
X216151Y335788D01*
Y334519D01*
X214881Y333249D01*
X212342D01*
X211072Y334519D01*
X335282Y406145D02*
X334012Y407415D01*
X331473D01*
X330203Y406145D01*
Y401067D01*
X331473Y399797D01*
X334012D01*
X335282Y401067D01*
X337821Y406145D02*
X339090Y407415D01*
X341630D01*
X342899Y406145D01*
Y404876D01*
X341630Y403606D01*
X340360D01*
X341630D01*
X342899Y402336D01*
Y401067D01*
X341630Y399797D01*
X339090D01*
X337821Y401067D01*
X345438Y406145D02*
X346708Y407415D01*
X349247D01*
X350517Y406145D01*
Y404876D01*
X349247Y403606D01*
X347978D01*
X349247D01*
X350517Y402336D01*
Y401067D01*
X349247Y399797D01*
X346708D01*
X345438Y401067D01*
X138432Y110743D02*
X137162Y112013D01*
X134623D01*
X133353Y110743D01*
Y105665D01*
X134623Y104395D01*
X137162D01*
X138432Y105665D01*
X144780Y104395D02*
Y112013D01*
X140971Y108204D01*
X146049D01*
X153667Y104395D02*
X148588D01*
X153667Y109474D01*
Y110743D01*
X152397Y112013D01*
X149858D01*
X148588Y110743D01*
X196089Y153501D02*
X194820Y154771D01*
X192280D01*
X191011Y153501D01*
Y148423D01*
X192280Y147153D01*
X194820D01*
X196089Y148423D01*
X203707Y154771D02*
X201168Y153501D01*
X198628Y150962D01*
Y148423D01*
X199898Y147153D01*
X202437D01*
X203707Y148423D01*
Y149692D01*
X202437Y150962D01*
X198628D01*
X206246Y147153D02*
X208785D01*
X207515D01*
Y154771D01*
X206246Y153501D01*
X169165Y299805D02*
X167896Y301075D01*
X165356D01*
X164087Y299805D01*
Y294727D01*
X165356Y293457D01*
X167896D01*
X169165Y294727D01*
X175513Y293457D02*
Y301075D01*
X171704Y297266D01*
X176783D01*
X179322Y293457D02*
X181861D01*
X180592D01*
Y301075D01*
X179322Y299805D01*
X195581D02*
X194312Y301075D01*
X191772D01*
X190503Y299805D01*
Y294727D01*
X191772Y293457D01*
X194312D01*
X195581Y294727D01*
X203199Y301075D02*
X198120D01*
Y297266D01*
X200660Y298536D01*
X201929D01*
X203199Y297266D01*
Y294727D01*
X201929Y293457D01*
X199390D01*
X198120Y294727D01*
X205738Y293457D02*
X208277D01*
X207008D01*
Y301075D01*
X205738Y299805D01*
X142114Y209381D02*
X140844Y210651D01*
X138305D01*
X137036Y209381D01*
Y204303D01*
X138305Y203033D01*
X140844D01*
X142114Y204303D01*
X144653Y203033D02*
X147192D01*
X145923D01*
Y210651D01*
X144653Y209381D01*
X151001Y203033D02*
X153540D01*
X152271D01*
Y210651D01*
X151001Y209381D01*
X169955D02*
X168685Y210651D01*
X166146D01*
X164876Y209381D01*
Y204303D01*
X166146Y203033D01*
X168685D01*
X169955Y204303D01*
X172494Y209381D02*
X173764Y210651D01*
X176303D01*
X177572Y209381D01*
Y208112D01*
X176303Y206842D01*
X175033D01*
X176303D01*
X177572Y205572D01*
Y204303D01*
X176303Y203033D01*
X173764D01*
X172494Y204303D01*
X180112Y203033D02*
X182651D01*
X181381D01*
Y210651D01*
X180112Y209381D01*
X199277D02*
X198007Y210651D01*
X195468D01*
X194198Y209381D01*
Y204303D01*
X195468Y203033D01*
X198007D01*
X199277Y204303D01*
X206894Y203033D02*
X201816D01*
X206894Y208112D01*
Y209381D01*
X205625Y210651D01*
X203085D01*
X201816Y209381D01*
X209433Y203033D02*
X211973D01*
X210703D01*
Y210651D01*
X209433Y209381D01*
D14*
X379256Y368064D02*
X381256D01*
X379256D02*
Y402064D01*
X381256D01*
X393256Y368064D02*
X395256D01*
Y402064D01*
X393256D02*
X395256D01*
X379256Y385064D02*
X395256D01*
X355634Y368404D02*
X357634D01*
X355634D02*
Y402404D01*
X357634D01*
X369634Y368404D02*
X371634D01*
Y402404D01*
X369634D02*
X371634D01*
X355634Y385404D02*
X371634D01*
X425674Y385064D02*
X443674D01*
X441674Y402064D02*
X443674D01*
Y368064D02*
Y402064D01*
X441674Y368064D02*
X443674D01*
X425674Y402064D02*
X427674D01*
X425674Y368064D02*
Y402064D01*
Y368064D02*
X427674D01*
X402560Y385064D02*
X420560D01*
X418560Y402064D02*
X420560D01*
Y368064D02*
Y402064D01*
X418560Y368064D02*
X420560D01*
X402560Y402064D02*
X404560D01*
X402560Y368064D02*
Y402064D01*
Y368064D02*
X404560D01*
X166878Y179976D02*
Y197976D01*
X183878Y179976D02*
Y181976D01*
X149878Y179976D02*
X183878D01*
X149878D02*
Y181976D01*
X183878Y195976D02*
Y197976D01*
X149878D02*
X183878D01*
X149878Y195976D02*
Y197976D01*
X104792Y37102D02*
X106792D01*
X104792D02*
Y71102D01*
X106792D01*
X120792Y37102D02*
X122792D01*
Y71102D01*
X120792D02*
X122792D01*
X104792Y54102D02*
X122792D01*
X183896Y171450D02*
X185166D01*
Y177910D01*
X183896D02*
X185166D01*
X183896Y159910D02*
X185166D01*
Y166370D01*
X183896D02*
X185166D01*
X144526Y175910D02*
Y177910D01*
X183896D01*
Y171450D02*
Y177910D01*
X144526Y159910D02*
Y161910D01*
Y159910D02*
X183896D01*
Y166370D01*
X164846Y159910D02*
Y177910D01*
Y168910D02*
X167386D01*
X162306Y166370D02*
Y171450D01*
X164846Y168910D01*
X162306Y166370D02*
X164846Y168910D01*
X253728Y172848D02*
Y174848D01*
X219728Y172848D02*
X253728D01*
X219728D02*
Y174848D01*
X253728Y186848D02*
Y188848D01*
X219728D02*
X253728D01*
X219728Y186848D02*
Y188848D01*
X236728Y172848D02*
Y188848D01*
X163974Y271486D02*
X181974D01*
X163974Y288486D02*
X167974D01*
X163974Y254486D02*
Y288486D01*
Y254486D02*
X167974D01*
X177974D02*
X181974D01*
Y288486D01*
X177974D02*
X181974D01*
X138828Y233766D02*
X156828D01*
X152828Y216766D02*
X156828D01*
Y250766D01*
X152828D02*
X156828D01*
X138828D02*
X142828D01*
X138828Y216766D02*
Y250766D01*
Y216766D02*
X142828D01*
X163974Y233766D02*
X181974D01*
X177974Y216766D02*
X181974D01*
Y250766D01*
X177974D02*
X181974D01*
X163974D02*
X167974D01*
X163974Y216766D02*
Y250766D01*
Y216766D02*
X167974D01*
X189120Y233766D02*
X207120D01*
X203120Y216766D02*
X207120D01*
Y250766D01*
X203120D02*
X207120D01*
X189120D02*
X193120D01*
X189120Y216766D02*
Y250766D01*
Y216766D02*
X193120D01*
X189120Y271486D02*
X207120D01*
X189120Y288486D02*
X193120D01*
X189120Y254486D02*
Y288486D01*
Y254486D02*
X193120D01*
X203120D02*
X207120D01*
Y288486D01*
X203120D02*
X207120D01*
X189120Y180808D02*
X207120D01*
X203120Y163808D02*
X207120D01*
Y197808D01*
X203120D02*
X207120D01*
X189120D02*
X193120D01*
X189120Y163808D02*
Y197808D01*
Y163808D02*
X193120D01*
X223664Y336550D02*
X241664D01*
X223664Y353550D02*
X227664D01*
X223664Y319550D02*
Y353550D01*
Y319550D02*
X227664D01*
X237664D02*
X241664D01*
Y353550D01*
X237664D02*
X241664D01*
X215820Y425558D02*
X219820D01*
Y391558D02*
Y425558D01*
X215820Y391558D02*
X219820D01*
X201820D02*
X205820D01*
X201820D02*
Y425558D01*
X205820D01*
X201820Y408558D02*
X219820D01*
X237664Y425812D02*
X241664D01*
Y391812D02*
Y425812D01*
X237664Y391812D02*
X241664D01*
X223664D02*
X227664D01*
X223664D02*
Y425812D01*
X227664D01*
X223664Y408812D02*
X241664D01*
X344852Y394190D02*
X348852D01*
Y360190D02*
Y394190D01*
X344852Y360190D02*
X348852D01*
X330852D02*
X334852D01*
X330852D02*
Y394190D01*
X334852D01*
X330852Y377190D02*
X348852D01*
X30988Y286656D02*
Y304656D01*
X13988Y302656D02*
Y304656D01*
X47988D01*
Y302656D02*
Y304656D01*
X13988Y286656D02*
Y288656D01*
Y286656D02*
X47988D01*
Y288656D01*
X73800Y437532D02*
Y455532D01*
X90800Y437532D02*
Y439532D01*
X56800Y437532D02*
X90800D01*
X56800D02*
Y439532D01*
X90800Y453532D02*
Y455532D01*
X56800D02*
X90800D01*
X56800Y453532D02*
Y455532D01*
X157624Y100094D02*
X161624D01*
X157624D02*
Y134094D01*
X161624D01*
X171624D02*
X175624D01*
Y100094D02*
Y134094D01*
X171624Y100094D02*
X175624D01*
X157624Y117094D02*
X175624D01*
X218662Y133078D02*
X220662D01*
Y99078D02*
Y133078D01*
X218662Y99078D02*
X220662D01*
X202662Y133078D02*
X204662D01*
X202662Y99078D02*
Y133078D01*
Y99078D02*
X204662D01*
X202662Y116078D02*
X220662D01*
X187706Y69724D02*
Y85724D01*
X204706Y69724D02*
Y71724D01*
X170706Y69724D02*
X204706D01*
X170706D02*
Y71724D01*
X204706Y83724D02*
Y85724D01*
X170706D02*
X204706D01*
X170706Y83724D02*
Y85724D01*
X230966Y121938D02*
X233506Y119398D01*
X236046Y121938D01*
X230966D02*
X236046D01*
X233506Y116858D02*
Y119398D01*
X224506D02*
X242506D01*
X224506Y100348D02*
X230966D01*
X224506D02*
Y139718D01*
X226506D01*
X236046Y100348D02*
X242506D01*
Y139718D01*
X240506D02*
X242506D01*
X230966Y99078D02*
Y100348D01*
X224506Y99078D02*
X230966D01*
X224506D02*
Y100348D01*
X242506Y99078D02*
Y100348D01*
X236046Y99078D02*
X242506D01*
X236046D02*
Y100348D01*
X421530Y255524D02*
X439530D01*
X437530Y272524D02*
X439530D01*
Y238524D02*
Y272524D01*
X437530Y238524D02*
X439530D01*
X421530Y272524D02*
X423530D01*
X421530Y238524D02*
Y272524D01*
Y238524D02*
X423530D01*
D15*
X448668Y341608D02*
X456418D01*
X448668Y370608D02*
X456418D01*
X448668Y341608D02*
Y349908D01*
Y362308D02*
Y370608D01*
X128498Y158022D02*
Y170422D01*
X93498D02*
X128498D01*
Y105422D02*
Y117822D01*
X93498Y105422D02*
X128498D01*
X301638Y208640D02*
X305038D01*
X301638Y279640D02*
X305038D01*
X234038Y208640D02*
X237438D01*
X234038Y279640D02*
X237438D01*
X305038Y208640D02*
Y212040D01*
Y276240D02*
Y279640D01*
X234038Y208640D02*
Y212040D01*
Y276240D02*
Y279640D01*
X257067Y406772D02*
Y412222D01*
Y362222D02*
Y367672D01*
X307067Y406772D02*
Y412222D01*
Y362222D02*
Y367672D01*
X257067Y412222D02*
X262517D01*
X257067Y362222D02*
X262517D01*
X301617Y412222D02*
X307067D01*
X301617Y362222D02*
X307067D01*
X229067Y503480D02*
X335067D01*
Y458480D02*
X344067D01*
X335067D02*
Y503480D01*
X229067Y458480D02*
Y503480D01*
X220067Y458480D02*
X229067D01*
X220067D02*
Y573480D01*
X344067Y458480D02*
Y573480D01*
X488311Y321194D02*
Y395194D01*
Y321194D02*
X545811D01*
Y395194D01*
X488311D02*
X545811D01*
X488311Y216493D02*
X545811D01*
X488311D02*
Y290493D01*
X545811D01*
Y216493D02*
Y290493D01*
X325602Y29058D02*
X443002D01*
X325602D02*
Y137058D01*
X443002D01*
Y29058D02*
Y137058D01*
X484717Y412325D02*
X483871Y413171D01*
Y414864D01*
X484717Y415710D01*
X485564D01*
X486410Y414864D01*
Y414017D01*
Y414864D01*
X487256Y415710D01*
X488103D01*
X488949Y414864D01*
Y413171D01*
X488103Y412325D01*
X488949Y417403D02*
X488103D01*
Y418250D01*
X488949D01*
Y417403D01*
X484717Y421635D02*
X483871Y422481D01*
Y424174D01*
X484717Y425021D01*
X485564D01*
X486410Y424174D01*
Y423328D01*
Y424174D01*
X487256Y425021D01*
X488103D01*
X488949Y424174D01*
Y422481D01*
X488103Y421635D01*
X483871Y426713D02*
X487256D01*
X488949Y428406D01*
X487256Y430099D01*
X483871D01*
X459063Y415710D02*
X458217Y414864D01*
Y413171D01*
X459063Y412325D01*
X459910D01*
X460756Y413171D01*
Y414864D01*
X461602Y415710D01*
X462449D01*
X463295Y414864D01*
Y413171D01*
X462449Y412325D01*
X458217Y417403D02*
X463295D01*
X461602Y419096D01*
X463295Y420789D01*
X458217D01*
Y422481D02*
Y424174D01*
Y423328D01*
X463295D01*
Y422481D01*
Y424174D01*
X458217Y429253D02*
Y427560D01*
X459063Y426713D01*
X462449D01*
X463295Y427560D01*
Y429253D01*
X462449Y430099D01*
X459063D01*
X458217Y429253D01*
X408263Y419942D02*
X407417Y419096D01*
Y417403D01*
X408263Y416557D01*
X411649D01*
X412495Y417403D01*
Y419096D01*
X411649Y419942D01*
X409956D01*
Y418250D01*
X412495Y421635D02*
X407417D01*
X412495Y425021D01*
X407417D01*
Y426713D02*
X412495D01*
Y429253D01*
X411649Y430099D01*
X408263D01*
X407417Y429253D01*
Y426713D01*
X433663Y409786D02*
X432817Y408939D01*
Y407246D01*
X433663Y406400D01*
X434510D01*
X435356Y407246D01*
Y408939D01*
X436202Y409786D01*
X437049D01*
X437895Y408939D01*
Y407246D01*
X437049Y406400D01*
X432817Y411478D02*
X437895D01*
X436202Y413171D01*
X437895Y414864D01*
X432817D01*
X433663Y419942D02*
X432817Y419096D01*
Y417403D01*
X433663Y416557D01*
X437049D01*
X437895Y417403D01*
Y419096D01*
X437049Y419942D01*
X432817Y421635D02*
X437895D01*
Y425021D01*
X432817Y426713D02*
X437895D01*
X436202D01*
X432817Y430099D01*
X435356Y427560D01*
X437895Y430099D01*
X147880Y334063D02*
Y330677D01*
X150419D01*
X149573Y332370D01*
Y333217D01*
X150419Y334063D01*
X152112D01*
X152958Y333217D01*
Y331524D01*
X152112Y330677D01*
X147880Y335756D02*
X151265D01*
X152958Y337448D01*
X151265Y339141D01*
X147880D01*
X154229Y387402D02*
Y384016D01*
X150843Y387402D01*
X149997D01*
X149151Y386555D01*
Y384863D01*
X149997Y384016D01*
X154229Y391634D02*
X149151D01*
X151690Y389095D01*
Y392480D01*
X149151Y394173D02*
X152536D01*
X154229Y395866D01*
X152536Y397559D01*
X149151D01*
X5217Y359462D02*
X4371Y358616D01*
Y356923D01*
X5217Y356077D01*
X8603D01*
X9449Y356923D01*
Y358616D01*
X8603Y359462D01*
X6910D01*
Y357769D01*
X9449Y361155D02*
X4371D01*
X9449Y364540D01*
X4371D01*
Y366233D02*
X9449D01*
Y368772D01*
X8603Y369619D01*
X5217D01*
X4371Y368772D01*
Y366233D01*
X344424Y145203D02*
X345270Y146049D01*
X346963D01*
X347810Y145203D01*
Y144356D01*
X346963Y143510D01*
X346117D01*
X346963D01*
X347810Y142664D01*
Y141817D01*
X346963Y140971D01*
X345270D01*
X344424Y141817D01*
X373210Y140971D02*
X369824D01*
X373210Y144356D01*
Y145203D01*
X372363Y146049D01*
X370670D01*
X369824Y145203D01*
X395224Y140971D02*
X396917D01*
X396070D01*
Y146049D01*
X395224Y145203D01*
X420624D02*
X421470Y146049D01*
X423163D01*
X424010Y145203D01*
Y141817D01*
X423163Y140971D01*
X421470D01*
X420624Y141817D01*
Y145203D01*
X247142Y61469D02*
Y66547D01*
X249681D01*
X250528Y65701D01*
Y64008D01*
X249681Y63162D01*
X247142D01*
X248835D02*
X250528Y61469D01*
X252220Y66547D02*
X255606Y61469D01*
Y66547D02*
X252220Y61469D01*
X272288Y66547D02*
X275674D01*
X273981D01*
Y61469D01*
X277366Y66547D02*
X280752Y61469D01*
Y66547D02*
X277366Y61469D01*
X299042Y65701D02*
X298195Y66547D01*
X296502D01*
X295656Y65701D01*
Y62315D01*
X296502Y61469D01*
X298195D01*
X299042Y62315D01*
Y64008D01*
X297349D01*
X300734Y61469D02*
Y66547D01*
X304120Y61469D01*
Y66547D01*
X305813D02*
Y61469D01*
X308352D01*
X309198Y62315D01*
Y65701D01*
X308352Y66547D01*
X305813D01*
D16*
X356217Y230240D02*
Y281764D01*
Y230240D02*
X386645D01*
Y281764D01*
X356217D02*
X386645D01*
D17*
X406662Y296670D02*
X405392Y297939D01*
X402853D01*
X401583Y296670D01*
Y291591D01*
X402853Y290322D01*
X405392D01*
X406662Y291591D01*
X409201Y290322D02*
Y295400D01*
X411740Y297939D01*
X414279Y295400D01*
Y290322D01*
Y294131D01*
X409201D01*
X416819Y290322D02*
Y297939D01*
X421897Y290322D01*
Y297939D01*
X432054D02*
X437132D01*
X434593D01*
Y290322D01*
X443480D02*
X440941D01*
X439671Y291591D01*
Y294131D01*
X440941Y295400D01*
X443480D01*
X444749Y294131D01*
Y292861D01*
X439671D01*
X447289Y295400D02*
Y290322D01*
Y292861D01*
X448558Y294131D01*
X449828Y295400D01*
X451097D01*
X454906Y290322D02*
Y295400D01*
X456176D01*
X457445Y294131D01*
Y290322D01*
Y294131D01*
X458715Y295400D01*
X459985Y294131D01*
Y290322D01*
X420627Y276609D02*
Y284226D01*
X424436D01*
X425706Y282957D01*
Y280417D01*
X424436Y279148D01*
X420627D01*
X423167D02*
X425706Y276609D01*
X432054D02*
X429514D01*
X428245Y277878D01*
Y280417D01*
X429514Y281687D01*
X432054D01*
X433323Y280417D01*
Y279148D01*
X428245D01*
X435862Y276609D02*
X439671D01*
X440941Y277878D01*
X439671Y279148D01*
X437132D01*
X435862Y280417D01*
X437132Y281687D01*
X440941D01*
M02*
