G04*
G04 #@! TF.GenerationSoftware,Altium Limited,Altium Designer,26.4.1 (12)*
G04*
G04 Layer_Color=32896*
%FSLAX44Y44*%
%MOMM*%
G71*
G04*
G04 #@! TF.SameCoordinates,48660A0F-8F63-42F7-9FA7-86485877967D*
G04*
G04*
G04 #@! TF.FilePolarity,Positive*
G04*
G01*
G75*
%ADD12C,0.1270*%
D12*
X233325Y212512D02*
X232479Y213358D01*
Y215051D01*
X233325Y215898D01*
X236711D01*
X237557Y215051D01*
Y213358D01*
X236711Y212512D01*
X235018D01*
Y214205D01*
X237557Y210819D02*
X232479D01*
X237557Y207434D01*
X232479D01*
Y205741D02*
X237557D01*
Y203202D01*
X236711Y202355D01*
X233325D01*
X232479Y203202D01*
Y205741D01*
X327729Y182032D02*
Y185417D01*
X330268D01*
X329421Y183725D01*
Y182878D01*
X330268Y182032D01*
X331961D01*
X332807Y182878D01*
Y184571D01*
X331961Y185417D01*
X327729Y180339D02*
X331114D01*
X332807Y178646D01*
X331114Y176954D01*
X327729D01*
X334077Y241722D02*
Y245108D01*
X330691Y241722D01*
X329845D01*
X328999Y242568D01*
Y244261D01*
X329845Y245108D01*
X334077Y237490D02*
X328999D01*
X331538Y240029D01*
Y236644D01*
X328999Y234951D02*
X332384D01*
X334077Y233258D01*
X332384Y231565D01*
X328999D01*
X33306Y212512D02*
X32460Y213358D01*
Y215051D01*
X33306Y215898D01*
X36692D01*
X37538Y215051D01*
Y213358D01*
X36692Y212512D01*
X34999D01*
Y214205D01*
X37538Y210819D02*
X32460D01*
X37538Y207434D01*
X32460D01*
Y205741D02*
X37538D01*
Y203202D01*
X36692Y202355D01*
X33306D01*
X32460Y203202D01*
Y205741D01*
X127710Y182032D02*
Y185417D01*
X130249D01*
X129403Y183725D01*
Y182878D01*
X130249Y182032D01*
X131942D01*
X132788Y182878D01*
Y184571D01*
X131942Y185417D01*
X127710Y180339D02*
X131096D01*
X132788Y178646D01*
X131096Y176954D01*
X127710D01*
X134058Y241722D02*
Y245108D01*
X130673Y241722D01*
X129826D01*
X128980Y242568D01*
Y244261D01*
X129826Y245108D01*
X134058Y237490D02*
X128980D01*
X131519Y240029D01*
Y236644D01*
X128980Y234951D02*
X132366D01*
X134058Y233258D01*
X132366Y231565D01*
X128980D01*
M02*
