G04*
G04 #@! TF.GenerationSoftware,Altium Limited,Altium Designer,26.4.1 (12)*
G04*
G04 Layer_Color=65535*
%FSLAX44Y44*%
%MOMM*%
G71*
G04*
G04 #@! TF.SameCoordinates,48660A0F-8F63-42F7-9FA7-86485877967D*
G04*
G04*
G04 #@! TF.FilePolarity,Positive*
G04*
G01*
G75*
%ADD10C,0.2000*%
%ADD11C,0.2540*%
%ADD12C,0.1270*%
G36*
X233342Y140712D02*
X233220D01*
Y139498D01*
X233099D01*
Y138405D01*
X232978D01*
Y137068D01*
X232856D01*
Y135854D01*
X232735D01*
Y134639D01*
X232613D01*
Y133424D01*
X232492D01*
Y132209D01*
X232370D01*
Y130995D01*
X232249D01*
Y129780D01*
X232127D01*
Y128444D01*
X232006D01*
Y127350D01*
X231884D01*
Y127472D01*
X231763D01*
Y127593D01*
X231641D01*
Y127715D01*
X231520D01*
Y127836D01*
X231398D01*
Y127958D01*
X231155D01*
Y128079D01*
X231034D01*
Y128322D01*
X230791D01*
Y128444D01*
X230669D01*
Y128565D01*
X230548D01*
Y128687D01*
X230427D01*
Y128808D01*
X230305D01*
Y128930D01*
X230184D01*
Y129051D01*
X230062D01*
Y129172D01*
X229941D01*
Y129294D01*
X229819D01*
Y129415D01*
X229698D01*
Y129537D01*
X229576D01*
Y129658D01*
X229455D01*
Y129780D01*
X229333D01*
Y129901D01*
X229212D01*
Y130023D01*
X229090D01*
Y130144D01*
X228969D01*
Y130266D01*
X228847D01*
Y130387D01*
X228726D01*
Y130509D01*
X228604D01*
Y130630D01*
X228483D01*
Y130752D01*
X228361D01*
Y130873D01*
X228240D01*
Y130995D01*
X228118D01*
Y131116D01*
X227997D01*
Y131237D01*
X227754D01*
Y131116D01*
X227633D01*
Y130995D01*
X227390D01*
Y130873D01*
X227268D01*
Y130630D01*
X227025D01*
Y130387D01*
X226904D01*
Y130266D01*
X226661D01*
Y130023D01*
X226539D01*
Y129901D01*
X226296D01*
Y129658D01*
X226175D01*
Y129537D01*
X226054D01*
Y129415D01*
X225932D01*
Y129294D01*
X225811D01*
Y129172D01*
X225689D01*
Y129051D01*
X225568D01*
Y128930D01*
X225446D01*
Y128808D01*
X225325D01*
Y128687D01*
X225082D01*
Y128444D01*
X224960D01*
Y128322D01*
X224717D01*
Y128079D01*
X224596D01*
Y127958D01*
X224353D01*
Y127715D01*
X224231D01*
Y127593D01*
X224110D01*
Y127472D01*
X223988D01*
Y127350D01*
X223867D01*
Y127229D01*
X223624D01*
Y126986D01*
X223503D01*
Y126865D01*
X223260D01*
Y126622D01*
X223138D01*
Y126500D01*
X222895D01*
Y126257D01*
X222774D01*
Y126136D01*
X222652D01*
Y126014D01*
X222531D01*
Y125893D01*
X222409D01*
Y125771D01*
X222166D01*
Y125528D01*
X222045D01*
Y125407D01*
X221802D01*
Y125164D01*
X221680D01*
Y125042D01*
X221437D01*
Y124799D01*
X221316D01*
Y124678D01*
X221194D01*
Y124556D01*
X221073D01*
Y124435D01*
X220952D01*
Y124313D01*
X220709D01*
Y124071D01*
X220587D01*
Y123949D01*
X220344D01*
Y123706D01*
X220223D01*
Y123585D01*
X219980D01*
Y123342D01*
X219858D01*
Y123220D01*
X219615D01*
Y123099D01*
X219494D01*
Y122856D01*
X219251D01*
Y122613D01*
X219130D01*
Y122491D01*
X218887D01*
Y122248D01*
X218765D01*
Y122127D01*
X218522D01*
Y121884D01*
X218401D01*
Y121763D01*
X218279D01*
Y121641D01*
X218158D01*
Y121520D01*
X218036D01*
Y121398D01*
X217915D01*
Y121277D01*
X217793D01*
Y121155D01*
X217672D01*
Y121034D01*
X217550D01*
Y120912D01*
X217307D01*
Y120669D01*
X217186D01*
Y120548D01*
X216943D01*
Y120305D01*
X216821D01*
Y120183D01*
X216579D01*
Y119941D01*
X216457D01*
Y119819D01*
X216336D01*
Y119698D01*
X216214D01*
Y119576D01*
X216093D01*
Y119454D01*
X215850D01*
Y119212D01*
X215728D01*
Y119090D01*
X215485D01*
Y118847D01*
X215364D01*
Y118726D01*
X215121D01*
Y118483D01*
X214999D01*
Y118361D01*
X214878D01*
Y118240D01*
X214756D01*
Y118118D01*
X214635D01*
Y117997D01*
X214392D01*
Y117754D01*
X214270D01*
Y117633D01*
X214028D01*
Y117389D01*
X213906D01*
Y117268D01*
X213663D01*
Y117025D01*
X213542D01*
Y116904D01*
X213420D01*
Y116782D01*
X213299D01*
Y116661D01*
X213177D01*
Y116539D01*
X212934D01*
Y116296D01*
X212813D01*
Y116175D01*
X212570D01*
Y115932D01*
X212448D01*
Y115810D01*
X212206D01*
Y115567D01*
X212084D01*
Y115446D01*
X211841D01*
Y115324D01*
X211720D01*
Y115082D01*
X211477D01*
Y114839D01*
X211355D01*
Y114717D01*
X211112D01*
Y114474D01*
X210991D01*
Y114353D01*
X210748D01*
Y114110D01*
X210626D01*
Y113988D01*
X210505D01*
Y113867D01*
X210383D01*
Y113745D01*
X210262D01*
Y113624D01*
X210140D01*
Y113502D01*
X210019D01*
Y113381D01*
X209897D01*
Y113259D01*
X209776D01*
Y113138D01*
X209533D01*
Y112895D01*
X209412D01*
Y112774D01*
X209169D01*
Y112531D01*
X209047D01*
Y112409D01*
X208804D01*
Y112166D01*
X208683D01*
Y112045D01*
X208561D01*
Y111923D01*
X208440D01*
Y111802D01*
X208318D01*
Y111680D01*
X208075D01*
Y111437D01*
X207954D01*
Y111316D01*
X207711D01*
Y111073D01*
X207589D01*
Y110951D01*
X207346D01*
Y110708D01*
X207225D01*
Y110587D01*
X207104D01*
Y110465D01*
X206982D01*
Y110344D01*
X206861D01*
Y110223D01*
X206618D01*
Y109980D01*
X206496D01*
Y109858D01*
X206253D01*
Y109615D01*
X206132D01*
Y109494D01*
X205889D01*
Y109251D01*
X205767D01*
Y109129D01*
X205646D01*
Y109008D01*
X205524D01*
Y108886D01*
X205403D01*
Y108765D01*
X205160D01*
Y108522D01*
X205039D01*
Y108400D01*
X204796D01*
Y108158D01*
X204674D01*
Y108036D01*
X204431D01*
Y107793D01*
X204310D01*
Y107672D01*
X204067D01*
Y107550D01*
X203945D01*
Y107307D01*
X203702D01*
Y107064D01*
X203581D01*
Y106943D01*
X203338D01*
Y106700D01*
X203216D01*
Y106578D01*
X202973D01*
Y106335D01*
X202852D01*
Y106214D01*
X202731D01*
Y106092D01*
X202609D01*
Y105971D01*
X202488D01*
Y105850D01*
X202366D01*
Y105728D01*
X202245D01*
Y105606D01*
X202123D01*
Y105485D01*
X202002D01*
Y105364D01*
X201759D01*
Y105121D01*
X201637D01*
Y104999D01*
X201394D01*
Y104756D01*
X201273D01*
Y104635D01*
X201030D01*
Y104392D01*
X200908D01*
Y104270D01*
X200787D01*
Y104149D01*
X200665D01*
Y104027D01*
X200544D01*
Y103906D01*
X200301D01*
Y103663D01*
X200180D01*
Y103541D01*
X199937D01*
Y103299D01*
X199815D01*
Y103177D01*
X199572D01*
Y102934D01*
X199451D01*
Y102813D01*
X199329D01*
Y102691D01*
X199208D01*
Y102570D01*
X199086D01*
Y102448D01*
X198843D01*
Y102205D01*
X198722D01*
Y102084D01*
X198479D01*
Y101841D01*
X198358D01*
Y101719D01*
X198114D01*
Y101476D01*
X197993D01*
Y101355D01*
X197872D01*
Y101234D01*
X197750D01*
Y101112D01*
X197629D01*
Y100991D01*
X197386D01*
Y100748D01*
X197264D01*
Y100626D01*
X197021D01*
Y100383D01*
X196900D01*
Y100262D01*
X196657D01*
Y100019D01*
X196535D01*
Y99897D01*
X196292D01*
Y99776D01*
X196171D01*
Y99533D01*
X195928D01*
Y99290D01*
X195807D01*
Y99168D01*
X195564D01*
Y98926D01*
X195442D01*
Y98804D01*
X195199D01*
Y98561D01*
X195078D01*
Y98440D01*
X194956D01*
Y98318D01*
X194835D01*
Y98197D01*
X194713D01*
Y98075D01*
X194592D01*
Y97954D01*
X194470D01*
Y97832D01*
X194349D01*
Y97711D01*
X194227D01*
Y97589D01*
X193984D01*
Y97346D01*
X193863D01*
Y97225D01*
X193620D01*
Y96982D01*
X193498D01*
Y96860D01*
X193256D01*
Y96617D01*
X193134D01*
Y96496D01*
X193013D01*
Y96375D01*
X192891D01*
Y96253D01*
X192770D01*
Y96132D01*
X192527D01*
Y95889D01*
X192405D01*
Y95767D01*
X192162D01*
Y95524D01*
X192041D01*
Y95403D01*
X191798D01*
Y95160D01*
X191676D01*
Y95038D01*
X191555D01*
Y94917D01*
X191433D01*
Y94795D01*
X191312D01*
Y94674D01*
X191069D01*
Y94431D01*
X190947D01*
Y94310D01*
X190705D01*
Y94066D01*
X190583D01*
Y93945D01*
X190340D01*
Y93702D01*
X190219D01*
Y93581D01*
X190097D01*
Y93459D01*
X189976D01*
Y93338D01*
X189854D01*
Y93216D01*
X189611D01*
Y92973D01*
X189490D01*
Y92852D01*
X189247D01*
Y92609D01*
X189125D01*
Y92487D01*
X188883D01*
Y92244D01*
X188761D01*
Y92123D01*
X188518D01*
Y92001D01*
X188397D01*
Y91758D01*
X188154D01*
Y91516D01*
X188032D01*
Y91394D01*
X187789D01*
Y91151D01*
X187668D01*
Y91030D01*
X187425D01*
Y90787D01*
X187303D01*
Y90665D01*
X187182D01*
Y90544D01*
X187060D01*
Y90422D01*
X186939D01*
Y90301D01*
X186817D01*
Y90179D01*
X186696D01*
Y90058D01*
X186574D01*
Y89936D01*
X186453D01*
Y89815D01*
X186210D01*
Y89572D01*
X186089D01*
Y89451D01*
X185846D01*
Y89208D01*
X185724D01*
Y89086D01*
X185481D01*
Y88843D01*
X185360D01*
Y88722D01*
X185238D01*
Y88600D01*
X185117D01*
Y88479D01*
X184995D01*
Y88357D01*
X184752D01*
Y88114D01*
X184631D01*
Y87993D01*
X184388D01*
Y87750D01*
X184266D01*
Y87628D01*
X184024D01*
Y87386D01*
X183902D01*
Y87264D01*
X183781D01*
Y87142D01*
X183659D01*
Y87021D01*
X183538D01*
Y86900D01*
X183295D01*
Y86657D01*
X183173D01*
Y86535D01*
X182930D01*
Y86292D01*
X182809D01*
Y86171D01*
X182566D01*
Y85928D01*
X182444D01*
Y85806D01*
X182323D01*
Y85685D01*
X182201D01*
Y85563D01*
X182080D01*
Y85442D01*
X181837D01*
Y85199D01*
X181716D01*
Y85077D01*
X181473D01*
Y84835D01*
X181351D01*
Y84713D01*
X181108D01*
Y84470D01*
X180987D01*
Y84349D01*
X180744D01*
Y84227D01*
X180622D01*
Y83984D01*
X180379D01*
Y83741D01*
X180258D01*
Y83620D01*
X180015D01*
Y83377D01*
X179893D01*
Y83255D01*
X179650D01*
Y83012D01*
X179529D01*
Y82891D01*
X179408D01*
Y82769D01*
X179286D01*
Y82648D01*
X179165D01*
Y82527D01*
X179043D01*
Y82405D01*
X178922D01*
Y82284D01*
X178800D01*
Y82162D01*
X178679D01*
Y82041D01*
X178436D01*
Y81798D01*
X178314D01*
Y81676D01*
X178071D01*
Y81433D01*
X177950D01*
Y81312D01*
X177707D01*
Y81069D01*
X177585D01*
Y80947D01*
X177464D01*
Y80826D01*
X177342D01*
Y80704D01*
X177221D01*
Y80583D01*
X176978D01*
Y80340D01*
X176857D01*
Y80218D01*
X176614D01*
Y79976D01*
X176492D01*
Y79854D01*
X176249D01*
Y79611D01*
X176128D01*
Y79490D01*
X176006D01*
Y79368D01*
X175885D01*
Y79247D01*
X175763D01*
Y79125D01*
X175520D01*
Y78882D01*
X175399D01*
Y78761D01*
X175156D01*
Y78518D01*
X175035D01*
Y78396D01*
X174792D01*
Y78154D01*
X174670D01*
Y78032D01*
X174549D01*
Y77910D01*
X174427D01*
Y77789D01*
X174306D01*
Y77668D01*
X174063D01*
Y77425D01*
X173941D01*
Y77303D01*
X173698D01*
Y77060D01*
X173577D01*
Y76939D01*
X173334D01*
Y76696D01*
X173212D01*
Y76574D01*
X172969D01*
Y76453D01*
X172848D01*
Y76210D01*
X172605D01*
Y75967D01*
X172484D01*
Y75845D01*
X172241D01*
Y75602D01*
X172119D01*
Y75481D01*
X171876D01*
Y75238D01*
X171755D01*
Y75117D01*
X171633D01*
Y74995D01*
X171512D01*
Y74874D01*
X171390D01*
Y74752D01*
X171269D01*
Y74631D01*
X171147D01*
Y74509D01*
X171026D01*
Y74388D01*
X170904D01*
Y74266D01*
X170661D01*
Y74023D01*
X170540D01*
Y73902D01*
X170297D01*
Y73659D01*
X170176D01*
Y73538D01*
X169933D01*
Y73295D01*
X169811D01*
Y73173D01*
X169690D01*
Y73052D01*
X169568D01*
Y72930D01*
X169447D01*
Y72809D01*
X169204D01*
Y72566D01*
X169082D01*
Y72444D01*
X168839D01*
Y72201D01*
X168718D01*
Y72080D01*
X168475D01*
Y71837D01*
X168353D01*
Y71715D01*
X168232D01*
Y71594D01*
X168111D01*
Y71472D01*
X167989D01*
Y71351D01*
X167746D01*
Y71108D01*
X167625D01*
Y70986D01*
X167382D01*
Y70744D01*
X167260D01*
Y70622D01*
X167017D01*
Y70379D01*
X166896D01*
Y70258D01*
X166774D01*
Y70136D01*
X166653D01*
Y70015D01*
X166531D01*
Y69893D01*
X166288D01*
Y69650D01*
X166167D01*
Y69529D01*
X165924D01*
Y69286D01*
X165802D01*
Y69164D01*
X165560D01*
Y68921D01*
X165438D01*
Y68800D01*
X165195D01*
Y68678D01*
X165074D01*
Y68436D01*
X164831D01*
Y68193D01*
X164709D01*
Y68071D01*
X164466D01*
Y67828D01*
X164345D01*
Y67707D01*
X164102D01*
Y67464D01*
X163980D01*
Y67342D01*
X163859D01*
Y67221D01*
X163737D01*
Y67099D01*
X163616D01*
Y66978D01*
X163494D01*
Y66856D01*
X163373D01*
Y66735D01*
X163251D01*
Y66613D01*
X163130D01*
Y66492D01*
X162887D01*
Y66249D01*
X162766D01*
Y66128D01*
X162523D01*
Y65885D01*
X162401D01*
Y65763D01*
X162158D01*
Y65520D01*
X162037D01*
Y65399D01*
X161915D01*
Y65277D01*
X161794D01*
Y65156D01*
X161672D01*
Y65034D01*
X161429D01*
Y64791D01*
X161308D01*
Y64670D01*
X161065D01*
Y64427D01*
X160944D01*
Y64306D01*
X160701D01*
Y64062D01*
X160579D01*
Y63941D01*
X160458D01*
Y63820D01*
X160336D01*
Y63698D01*
X160215D01*
Y63577D01*
X159972D01*
Y63334D01*
X159850D01*
Y63212D01*
X159607D01*
Y62969D01*
X159486D01*
Y62848D01*
X159243D01*
Y62605D01*
X159121D01*
Y62483D01*
X159000D01*
Y62362D01*
X158878D01*
Y62240D01*
X158757D01*
Y62119D01*
X158514D01*
Y61876D01*
X158393D01*
Y61754D01*
X158150D01*
Y61512D01*
X158028D01*
Y61390D01*
X157785D01*
Y61147D01*
X157664D01*
Y61026D01*
X157421D01*
Y60904D01*
X157299D01*
Y60661D01*
X157056D01*
Y60418D01*
X156935D01*
Y60297D01*
X156692D01*
Y60054D01*
X156571D01*
Y59932D01*
X156328D01*
Y59689D01*
X156206D01*
Y59568D01*
X156085D01*
Y59447D01*
X155963D01*
Y59325D01*
X155842D01*
Y59204D01*
X155720D01*
Y59082D01*
X155599D01*
Y58961D01*
X155477D01*
Y58839D01*
X155356D01*
Y58718D01*
X155113D01*
Y58475D01*
X154991D01*
Y58353D01*
X154748D01*
Y58110D01*
X154627D01*
Y57989D01*
X154384D01*
Y57746D01*
X154263D01*
Y57624D01*
X154141D01*
Y57503D01*
X154019D01*
Y57382D01*
X153898D01*
Y57260D01*
X153655D01*
Y57017D01*
X153534D01*
Y56896D01*
X153291D01*
Y56653D01*
X153169D01*
Y56531D01*
X152926D01*
Y56288D01*
X152805D01*
Y56167D01*
X152683D01*
Y56045D01*
X152562D01*
Y55924D01*
X152440D01*
Y55802D01*
X152197D01*
Y55559D01*
X152076D01*
Y55438D01*
X151833D01*
Y55195D01*
X151712D01*
Y55073D01*
X151469D01*
Y54830D01*
X151347D01*
Y54709D01*
X151226D01*
Y54588D01*
X151104D01*
Y54466D01*
X150983D01*
Y54345D01*
X150740D01*
Y54102D01*
X150618D01*
Y53980D01*
X150375D01*
Y53737D01*
X150254D01*
Y53616D01*
X150011D01*
Y53373D01*
X149889D01*
Y53251D01*
X149647D01*
Y53130D01*
X149525D01*
Y52887D01*
X149403D01*
Y45841D01*
X169204D01*
Y45599D01*
X169082D01*
Y45477D01*
X168839D01*
Y45234D01*
X168718D01*
Y45113D01*
X168475D01*
Y44991D01*
X168353D01*
Y44748D01*
X168111D01*
Y44505D01*
X167989D01*
Y44384D01*
X167868D01*
Y44262D01*
X167746D01*
Y44141D01*
X167625D01*
Y44019D01*
X167382D01*
Y43776D01*
X167260D01*
Y43655D01*
X167139D01*
Y43534D01*
X167017D01*
Y43412D01*
X166896D01*
Y43291D01*
X166774D01*
Y43169D01*
X166653D01*
Y43048D01*
X166531D01*
Y42926D01*
X166410D01*
Y42805D01*
X166288D01*
Y42683D01*
X166167D01*
Y42562D01*
X166045D01*
Y42440D01*
X165924D01*
Y42319D01*
X165802D01*
Y42197D01*
X165681D01*
Y42076D01*
X165560D01*
Y41954D01*
X165438D01*
Y41833D01*
X165317D01*
Y41711D01*
X165195D01*
Y41590D01*
X165074D01*
Y41468D01*
X164952D01*
Y41347D01*
X164831D01*
Y41226D01*
X164709D01*
Y41104D01*
X164588D01*
Y40982D01*
X164466D01*
Y40861D01*
X164345D01*
Y40740D01*
X164223D01*
Y40618D01*
X164102D01*
Y40497D01*
X163980D01*
Y40375D01*
X163859D01*
Y40254D01*
X163737D01*
Y40132D01*
X163616D01*
Y40011D01*
X163494D01*
Y39889D01*
X163373D01*
Y39768D01*
X163251D01*
Y39646D01*
X163130D01*
Y39525D01*
X163009D01*
Y39403D01*
X162887D01*
Y39282D01*
X162766D01*
Y39160D01*
X162644D01*
Y39039D01*
X162523D01*
Y38918D01*
X162401D01*
Y38796D01*
X142723D01*
Y38674D01*
X142601D01*
Y38796D01*
X142358D01*
Y55316D01*
X142479D01*
Y55438D01*
X142601D01*
Y55559D01*
X142723D01*
Y55681D01*
X142844D01*
Y55802D01*
X142965D01*
Y55924D01*
X143087D01*
Y56045D01*
X143208D01*
Y56167D01*
X143330D01*
Y56288D01*
X143451D01*
Y56410D01*
X143573D01*
Y56531D01*
X143694D01*
Y56653D01*
X143816D01*
Y56774D01*
X143937D01*
Y56896D01*
X144059D01*
Y57017D01*
X144180D01*
Y57139D01*
X144302D01*
Y57260D01*
X144423D01*
Y57382D01*
X144545D01*
Y57503D01*
X144666D01*
Y57624D01*
X144788D01*
Y57746D01*
X144909D01*
Y57867D01*
X145030D01*
Y57989D01*
X145152D01*
Y58110D01*
X145273D01*
Y58232D01*
X145395D01*
Y58353D01*
X145516D01*
Y58475D01*
X145638D01*
Y58596D01*
X145759D01*
Y58718D01*
X145881D01*
Y58839D01*
X146002D01*
Y58961D01*
X146124D01*
Y59082D01*
X146245D01*
Y59204D01*
X146367D01*
Y59325D01*
X146488D01*
Y59447D01*
X146610D01*
Y59568D01*
X146731D01*
Y59689D01*
X146853D01*
Y59811D01*
X146974D01*
Y59932D01*
X147095D01*
Y60054D01*
X147217D01*
Y60175D01*
X147338D01*
Y60297D01*
X147460D01*
Y60418D01*
X147581D01*
Y60540D01*
X147703D01*
Y60661D01*
X147824D01*
Y60783D01*
X147946D01*
Y60904D01*
X148067D01*
Y61026D01*
X148189D01*
Y61147D01*
X148310D01*
Y61269D01*
X148432D01*
Y61390D01*
X148553D01*
Y61512D01*
X148675D01*
Y61633D01*
X148796D01*
Y61754D01*
X148918D01*
Y61876D01*
X149039D01*
Y61997D01*
X149161D01*
Y62119D01*
X149282D01*
Y62240D01*
X149403D01*
Y62362D01*
X149525D01*
Y62483D01*
X149647D01*
Y62605D01*
X149768D01*
Y62726D01*
X149889D01*
Y62848D01*
X150011D01*
Y62969D01*
X150132D01*
Y63091D01*
X150254D01*
Y63212D01*
X150375D01*
Y63334D01*
X150497D01*
Y63455D01*
X150618D01*
Y63577D01*
X150740D01*
Y63698D01*
X150861D01*
Y63820D01*
X150983D01*
Y63941D01*
X151104D01*
Y64062D01*
X151226D01*
Y64184D01*
X151347D01*
Y64306D01*
X151469D01*
Y64427D01*
X151590D01*
Y64548D01*
X151712D01*
Y64670D01*
X151833D01*
Y64791D01*
X151954D01*
Y64913D01*
X152076D01*
Y65034D01*
X152197D01*
Y65156D01*
X152319D01*
Y65277D01*
X152440D01*
Y65399D01*
X152562D01*
Y65520D01*
X152683D01*
Y65642D01*
X152805D01*
Y65763D01*
X152926D01*
Y65885D01*
X153048D01*
Y66006D01*
X153169D01*
Y66128D01*
X153291D01*
Y66249D01*
X153412D01*
Y66371D01*
X153534D01*
Y66492D01*
X153655D01*
Y66613D01*
X153777D01*
Y66735D01*
X153898D01*
Y66856D01*
X154019D01*
Y66978D01*
X154141D01*
Y67099D01*
X154263D01*
Y67221D01*
X154384D01*
Y67342D01*
X154505D01*
Y67464D01*
X154627D01*
Y67585D01*
X154748D01*
Y67707D01*
X154870D01*
Y67828D01*
X154991D01*
Y67950D01*
X155113D01*
Y68071D01*
X155234D01*
Y68193D01*
X155356D01*
Y68314D01*
X155477D01*
Y68436D01*
X155599D01*
Y68557D01*
X155720D01*
Y68678D01*
X155842D01*
Y68800D01*
X155963D01*
Y68921D01*
X156085D01*
Y69043D01*
X156206D01*
Y69164D01*
X156328D01*
Y69286D01*
X156449D01*
Y69407D01*
X156571D01*
Y69529D01*
X156692D01*
Y69650D01*
X156813D01*
Y69772D01*
X156935D01*
Y69893D01*
X157056D01*
Y70015D01*
X157178D01*
Y70136D01*
X157299D01*
Y70258D01*
X157421D01*
Y70379D01*
X157542D01*
Y70501D01*
X157664D01*
Y70622D01*
X157785D01*
Y70744D01*
X157907D01*
Y70865D01*
X158028D01*
Y70986D01*
X158150D01*
Y71108D01*
X158271D01*
Y71230D01*
X158393D01*
Y71351D01*
X158514D01*
Y71472D01*
X158636D01*
Y71594D01*
X158757D01*
Y71715D01*
X158878D01*
Y71837D01*
X159000D01*
Y71958D01*
X159121D01*
Y72080D01*
X159243D01*
Y72201D01*
X159364D01*
Y72323D01*
X159486D01*
Y72444D01*
X159607D01*
Y72566D01*
X159729D01*
Y72687D01*
X159850D01*
Y72809D01*
X159972D01*
Y72930D01*
X160093D01*
Y73052D01*
X160215D01*
Y73173D01*
X160336D01*
Y73295D01*
X160458D01*
Y73416D01*
X160579D01*
Y73538D01*
X160701D01*
Y73659D01*
X160822D01*
Y73780D01*
X160944D01*
Y73902D01*
X161065D01*
Y74023D01*
X161187D01*
Y74145D01*
X161308D01*
Y74266D01*
X161429D01*
Y74388D01*
X161551D01*
Y74509D01*
X161672D01*
Y74631D01*
X161794D01*
Y74752D01*
X161915D01*
Y74874D01*
X162037D01*
Y74995D01*
X162158D01*
Y75117D01*
X162280D01*
Y75238D01*
X162401D01*
Y75360D01*
X162523D01*
Y75481D01*
X162644D01*
Y75602D01*
X162766D01*
Y75724D01*
X162887D01*
Y75845D01*
X163009D01*
Y75967D01*
X163130D01*
Y76088D01*
X163251D01*
Y76210D01*
X163373D01*
Y76331D01*
X163494D01*
Y76453D01*
X163616D01*
Y76574D01*
X163737D01*
Y76696D01*
X163859D01*
Y76817D01*
X163980D01*
Y76939D01*
X164102D01*
Y77060D01*
X164223D01*
Y77182D01*
X164345D01*
Y77303D01*
X164466D01*
Y77425D01*
X164588D01*
Y77546D01*
X164709D01*
Y77668D01*
X164831D01*
Y77789D01*
X164952D01*
Y77910D01*
X165074D01*
Y78032D01*
X165195D01*
Y78154D01*
X165317D01*
Y78275D01*
X165438D01*
Y78396D01*
X165560D01*
Y78518D01*
X165681D01*
Y78639D01*
X165802D01*
Y78761D01*
X165924D01*
Y78882D01*
X166045D01*
Y79004D01*
X166167D01*
Y79125D01*
X166288D01*
Y79247D01*
X166410D01*
Y79368D01*
X166531D01*
Y79490D01*
X166653D01*
Y79611D01*
X166774D01*
Y79733D01*
X166896D01*
Y79854D01*
X167017D01*
Y79976D01*
X167139D01*
Y80097D01*
X167260D01*
Y80218D01*
X167382D01*
Y80340D01*
X167503D01*
Y80462D01*
X167625D01*
Y80583D01*
X167746D01*
Y80704D01*
X167868D01*
Y80826D01*
X167989D01*
Y80947D01*
X168111D01*
Y81069D01*
X168232D01*
Y81190D01*
X168353D01*
Y81312D01*
X168475D01*
Y81433D01*
X168596D01*
Y81555D01*
X168718D01*
Y81676D01*
X168839D01*
Y81798D01*
X168961D01*
Y81919D01*
X169082D01*
Y82041D01*
X169204D01*
Y82162D01*
X169325D01*
Y82284D01*
X169447D01*
Y82405D01*
X169568D01*
Y82527D01*
X169690D01*
Y82648D01*
X169811D01*
Y82769D01*
X169933D01*
Y82891D01*
X170054D01*
Y83012D01*
X170176D01*
Y83134D01*
X170297D01*
Y83255D01*
X170418D01*
Y83377D01*
X170540D01*
Y83498D01*
X170661D01*
Y83620D01*
X170783D01*
Y83741D01*
X170904D01*
Y83863D01*
X171026D01*
Y83984D01*
X171147D01*
Y84106D01*
X171269D01*
Y84227D01*
X171390D01*
Y84349D01*
X171512D01*
Y84470D01*
X171633D01*
Y84592D01*
X171755D01*
Y84713D01*
X171876D01*
Y84835D01*
X171998D01*
Y84956D01*
X172119D01*
Y85077D01*
X172241D01*
Y85199D01*
X172362D01*
Y85320D01*
X172484D01*
Y85442D01*
X172605D01*
Y85563D01*
X172726D01*
Y85685D01*
X172848D01*
Y85806D01*
X172969D01*
Y85928D01*
X173091D01*
Y86049D01*
X173212D01*
Y86171D01*
X173334D01*
Y86292D01*
X173455D01*
Y86414D01*
X173577D01*
Y86535D01*
X173698D01*
Y86657D01*
X173820D01*
Y86778D01*
X173941D01*
Y86900D01*
X174063D01*
Y87021D01*
X174184D01*
Y87142D01*
X174306D01*
Y87264D01*
X174427D01*
Y87386D01*
X174549D01*
Y87507D01*
X174670D01*
Y87628D01*
X174792D01*
Y87750D01*
X174913D01*
Y87871D01*
X175035D01*
Y87993D01*
X175156D01*
Y88114D01*
X175277D01*
Y88236D01*
X175399D01*
Y88357D01*
X175520D01*
Y88479D01*
X175642D01*
Y88600D01*
X175763D01*
Y88722D01*
X175885D01*
Y88843D01*
X176006D01*
Y88965D01*
X176128D01*
Y89086D01*
X176249D01*
Y89208D01*
X176371D01*
Y89329D01*
X176492D01*
Y89451D01*
X176614D01*
Y89572D01*
X176735D01*
Y89693D01*
X176857D01*
Y89815D01*
X176978D01*
Y89936D01*
X177099D01*
Y90058D01*
X177221D01*
Y90179D01*
X177342D01*
Y90301D01*
X177464D01*
Y90422D01*
X177585D01*
Y90544D01*
X177707D01*
Y90665D01*
X177828D01*
Y90787D01*
X177950D01*
Y90908D01*
X178071D01*
Y91030D01*
X178193D01*
Y91151D01*
X178314D01*
Y91273D01*
X178436D01*
Y91394D01*
X178557D01*
Y91516D01*
X178679D01*
Y91637D01*
X178800D01*
Y91758D01*
X178922D01*
Y91880D01*
X179043D01*
Y92001D01*
X179165D01*
Y92123D01*
X179286D01*
Y92244D01*
X179408D01*
Y92366D01*
X179529D01*
Y92487D01*
X179650D01*
Y92609D01*
X179772D01*
Y92730D01*
X179893D01*
Y92852D01*
X180015D01*
Y92973D01*
X180136D01*
Y93095D01*
X180258D01*
Y93216D01*
X180379D01*
Y93338D01*
X180501D01*
Y93459D01*
X180622D01*
Y93581D01*
X180744D01*
Y93702D01*
X180865D01*
Y93824D01*
X180987D01*
Y93945D01*
X181108D01*
Y94066D01*
X181230D01*
Y94188D01*
X181351D01*
Y94310D01*
X181473D01*
Y94431D01*
X181594D01*
Y94552D01*
X181716D01*
Y94674D01*
X181837D01*
Y94795D01*
X181959D01*
Y94917D01*
X182080D01*
Y95038D01*
X182201D01*
Y95160D01*
X182323D01*
Y95281D01*
X182444D01*
Y95403D01*
X182566D01*
Y95524D01*
X182687D01*
Y95646D01*
X182809D01*
Y95767D01*
X182930D01*
Y95889D01*
X183052D01*
Y96010D01*
X183173D01*
Y96132D01*
X183295D01*
Y96253D01*
X183416D01*
Y96375D01*
X183538D01*
Y96496D01*
X183659D01*
Y96617D01*
X183781D01*
Y96739D01*
X183902D01*
Y96860D01*
X184024D01*
Y96982D01*
X184145D01*
Y97103D01*
X184266D01*
Y97225D01*
X184388D01*
Y97346D01*
X184509D01*
Y97468D01*
X184631D01*
Y97589D01*
X184752D01*
Y97711D01*
X184874D01*
Y97832D01*
X184995D01*
Y97954D01*
X185117D01*
Y98075D01*
X185238D01*
Y98197D01*
X185360D01*
Y98318D01*
X185481D01*
Y98440D01*
X185603D01*
Y98561D01*
X185724D01*
Y98683D01*
X185846D01*
Y98804D01*
X185967D01*
Y98926D01*
X186089D01*
Y99047D01*
X186210D01*
Y99168D01*
X186332D01*
Y99290D01*
X186453D01*
Y99411D01*
X186574D01*
Y99533D01*
X186696D01*
Y99654D01*
X186817D01*
Y99776D01*
X186939D01*
Y99897D01*
X187060D01*
Y100019D01*
X187182D01*
Y100140D01*
X187303D01*
Y100262D01*
X187425D01*
Y100383D01*
X187546D01*
Y100505D01*
X187668D01*
Y100626D01*
X187789D01*
Y100748D01*
X187911D01*
Y100869D01*
X188032D01*
Y100991D01*
X188154D01*
Y101112D01*
X188275D01*
Y101234D01*
X188397D01*
Y101355D01*
X188518D01*
Y101476D01*
X188640D01*
Y101598D01*
X188761D01*
Y101719D01*
X188883D01*
Y101841D01*
X189004D01*
Y101962D01*
X189125D01*
Y102084D01*
X189247D01*
Y102205D01*
X189368D01*
Y102327D01*
X189490D01*
Y102448D01*
X189611D01*
Y102570D01*
X189733D01*
Y102691D01*
X189854D01*
Y102813D01*
X189976D01*
Y102934D01*
X190097D01*
Y103056D01*
X190219D01*
Y103177D01*
X190340D01*
Y103299D01*
X190462D01*
Y103420D01*
X190583D01*
Y103541D01*
X190705D01*
Y103663D01*
X190826D01*
Y103785D01*
X190947D01*
Y103906D01*
X191069D01*
Y104027D01*
X191190D01*
Y104149D01*
X191312D01*
Y104270D01*
X191433D01*
Y104392D01*
X191555D01*
Y104513D01*
X191676D01*
Y104635D01*
X191798D01*
Y104756D01*
X191919D01*
Y104878D01*
X192041D01*
Y104999D01*
X192162D01*
Y105121D01*
X192284D01*
Y105242D01*
X192405D01*
Y105364D01*
X192527D01*
Y105485D01*
X192648D01*
Y105606D01*
X192770D01*
Y105728D01*
X192891D01*
Y105850D01*
X193013D01*
Y105971D01*
X193134D01*
Y106092D01*
X193256D01*
Y106214D01*
X193377D01*
Y106335D01*
X193498D01*
Y106457D01*
X193620D01*
Y106578D01*
X193741D01*
Y106700D01*
X193863D01*
Y106821D01*
X193984D01*
Y106943D01*
X194106D01*
Y107064D01*
X194227D01*
Y107186D01*
X194349D01*
Y107307D01*
X194470D01*
Y107429D01*
X194592D01*
Y107550D01*
X194713D01*
Y107672D01*
X194835D01*
Y107793D01*
X194956D01*
Y107914D01*
X195078D01*
Y108036D01*
X195199D01*
Y108158D01*
X195321D01*
Y108279D01*
X195442D01*
Y108400D01*
X195564D01*
Y108522D01*
X195685D01*
Y108643D01*
X195807D01*
Y108765D01*
X195928D01*
Y108886D01*
X196049D01*
Y109008D01*
X196171D01*
Y109129D01*
X196292D01*
Y109251D01*
X196414D01*
Y109372D01*
X196535D01*
Y109494D01*
X196657D01*
Y109615D01*
X196778D01*
Y109737D01*
X196900D01*
Y109858D01*
X197021D01*
Y109980D01*
X197143D01*
Y110101D01*
X197264D01*
Y110223D01*
X197386D01*
Y110344D01*
X197507D01*
Y110465D01*
X197629D01*
Y110587D01*
X197750D01*
Y110708D01*
X197872D01*
Y110830D01*
X197993D01*
Y110951D01*
X198114D01*
Y111073D01*
X198236D01*
Y111194D01*
X198358D01*
Y111316D01*
X198479D01*
Y111437D01*
X198600D01*
Y111559D01*
X198722D01*
Y111680D01*
X198843D01*
Y111802D01*
X198965D01*
Y111923D01*
X199086D01*
Y112045D01*
X199208D01*
Y112166D01*
X199329D01*
Y112288D01*
X199451D01*
Y112409D01*
X199572D01*
Y112531D01*
X199694D01*
Y112652D01*
X199815D01*
Y112774D01*
X199937D01*
Y112895D01*
X200058D01*
Y113138D01*
X149403D01*
Y91516D01*
X149525D01*
Y91637D01*
X149647D01*
Y91758D01*
X149768D01*
Y91880D01*
X149889D01*
Y92001D01*
X150011D01*
Y92123D01*
X150132D01*
Y92244D01*
X150254D01*
Y92366D01*
X150375D01*
Y92487D01*
X150497D01*
Y92609D01*
X150618D01*
Y92730D01*
X150740D01*
Y92852D01*
X150861D01*
Y92973D01*
X150983D01*
Y93095D01*
X151104D01*
Y93216D01*
X151226D01*
Y93338D01*
X151347D01*
Y93459D01*
X151469D01*
Y93581D01*
X151590D01*
Y93702D01*
X151712D01*
Y93824D01*
X151833D01*
Y93945D01*
X151954D01*
Y94066D01*
X152076D01*
Y94188D01*
X152197D01*
Y94310D01*
X152319D01*
Y94431D01*
X152440D01*
Y94552D01*
X152562D01*
Y94674D01*
X152683D01*
Y94795D01*
X152805D01*
Y94917D01*
X152926D01*
Y95038D01*
X153048D01*
Y95160D01*
X153169D01*
Y95281D01*
X153291D01*
Y95403D01*
X153412D01*
Y95524D01*
X153534D01*
Y95646D01*
X153655D01*
Y95767D01*
X153777D01*
Y95889D01*
X153898D01*
Y96010D01*
X154019D01*
Y96132D01*
X154141D01*
Y96253D01*
X154263D01*
Y96375D01*
X154384D01*
Y96496D01*
X154505D01*
Y96617D01*
X154627D01*
Y96739D01*
X154748D01*
Y96860D01*
X154870D01*
Y96982D01*
X154991D01*
Y97103D01*
X155113D01*
Y97225D01*
X155234D01*
Y97346D01*
X155356D01*
Y97468D01*
X155477D01*
Y97589D01*
X155599D01*
Y97711D01*
X155720D01*
Y97832D01*
X155842D01*
Y97954D01*
X155963D01*
Y98075D01*
X156085D01*
Y98197D01*
X156206D01*
Y98318D01*
X156328D01*
Y98440D01*
X156449D01*
Y98561D01*
X156571D01*
Y98683D01*
X156692D01*
Y98804D01*
X156813D01*
Y98926D01*
X156935D01*
Y99047D01*
X157056D01*
Y99290D01*
X156935D01*
Y99411D01*
X156813D01*
Y99533D01*
X156692D01*
Y99654D01*
X156571D01*
Y99776D01*
X156449D01*
Y99897D01*
X156328D01*
Y100019D01*
X156206D01*
Y100140D01*
X156085D01*
Y100262D01*
X155963D01*
Y100383D01*
X155842D01*
Y100505D01*
X155720D01*
Y100626D01*
X155599D01*
Y100748D01*
X155477D01*
Y100869D01*
X155356D01*
Y100991D01*
X155234D01*
Y101112D01*
X155113D01*
Y101234D01*
X154991D01*
Y101355D01*
X154870D01*
Y101476D01*
X154748D01*
Y101598D01*
X154627D01*
Y101719D01*
X154505D01*
Y101841D01*
X154384D01*
Y101962D01*
X154263D01*
Y102084D01*
X154019D01*
Y102327D01*
X153777D01*
Y102448D01*
X153655D01*
Y102570D01*
X153534D01*
Y102813D01*
X154505D01*
Y102934D01*
X155356D01*
Y103056D01*
X156206D01*
Y103177D01*
X157178D01*
Y103299D01*
X158028D01*
Y103420D01*
X158878D01*
Y103541D01*
X159972D01*
Y103663D01*
X160701D01*
Y103785D01*
X161551D01*
Y103906D01*
X162644D01*
Y104027D01*
X163494D01*
Y104149D01*
X164345D01*
Y104270D01*
X165317D01*
Y104392D01*
X166167D01*
Y104513D01*
X167017D01*
Y104635D01*
X167625D01*
Y103785D01*
X167503D01*
Y102570D01*
X167382D01*
Y101234D01*
X167260D01*
Y100140D01*
X167139D01*
Y98926D01*
X167017D01*
Y97589D01*
X166896D01*
Y96496D01*
X166774D01*
Y95281D01*
X166653D01*
Y93945D01*
X166531D01*
Y92852D01*
X166410D01*
Y91758D01*
X166288D01*
Y90422D01*
X166167D01*
Y90301D01*
X166045D01*
Y90422D01*
X165924D01*
Y90544D01*
X165802D01*
Y90665D01*
X165681D01*
Y90787D01*
X165560D01*
Y90908D01*
X165438D01*
Y91030D01*
X165317D01*
Y91151D01*
X165195D01*
Y91273D01*
X165074D01*
Y91394D01*
X164952D01*
Y91516D01*
X164831D01*
Y91637D01*
X164709D01*
Y91758D01*
X164588D01*
Y91880D01*
X164466D01*
Y92001D01*
X164345D01*
Y92123D01*
X164223D01*
Y92244D01*
X164102D01*
Y92366D01*
X163980D01*
Y92487D01*
X163859D01*
Y92609D01*
X163737D01*
Y92730D01*
X163616D01*
Y92852D01*
X163494D01*
Y92973D01*
X163373D01*
Y93095D01*
X163251D01*
Y93216D01*
X163130D01*
Y93338D01*
X163009D01*
Y93459D01*
X162887D01*
Y93581D01*
X162766D01*
Y93702D01*
X162644D01*
Y93824D01*
X162523D01*
Y93945D01*
X162401D01*
Y94066D01*
X162280D01*
Y94188D01*
X162158D01*
Y94310D01*
X162037D01*
Y94431D01*
X161794D01*
Y94310D01*
X161672D01*
Y94188D01*
X161551D01*
Y94066D01*
X161429D01*
Y93945D01*
X161308D01*
Y93824D01*
X161187D01*
Y93702D01*
X161065D01*
Y93581D01*
X160944D01*
Y93459D01*
X160822D01*
Y93338D01*
X160701D01*
Y93216D01*
X160579D01*
Y93095D01*
X160458D01*
Y92973D01*
X160336D01*
Y92852D01*
X160215D01*
Y92730D01*
X160093D01*
Y92609D01*
X159972D01*
Y92487D01*
X159850D01*
Y92366D01*
X159729D01*
Y92244D01*
X159607D01*
Y92123D01*
X159486D01*
Y92001D01*
X159364D01*
Y91880D01*
X159243D01*
Y91758D01*
X159121D01*
Y91637D01*
X159000D01*
Y91516D01*
X158878D01*
Y91394D01*
X158757D01*
Y91273D01*
X158636D01*
Y91151D01*
X158514D01*
Y91030D01*
X158393D01*
Y90908D01*
X158271D01*
Y90787D01*
X158150D01*
Y90665D01*
X158028D01*
Y90544D01*
X157907D01*
Y90422D01*
X157785D01*
Y90301D01*
X157664D01*
Y90179D01*
X157542D01*
Y90058D01*
X157421D01*
Y89936D01*
X157299D01*
Y89815D01*
X157178D01*
Y89693D01*
X157056D01*
Y89572D01*
X156935D01*
Y89451D01*
X156813D01*
Y89329D01*
X156692D01*
Y89208D01*
X156571D01*
Y89086D01*
X156449D01*
Y88965D01*
X156328D01*
Y88843D01*
X156206D01*
Y88722D01*
X156085D01*
Y88600D01*
X155963D01*
Y88479D01*
X155842D01*
Y88357D01*
X155720D01*
Y88236D01*
X155599D01*
Y88114D01*
X155477D01*
Y87993D01*
X155356D01*
Y87871D01*
X155234D01*
Y87750D01*
X155113D01*
Y87628D01*
X154991D01*
Y87507D01*
X154870D01*
Y87386D01*
X154748D01*
Y87264D01*
X154627D01*
Y87142D01*
X154505D01*
Y87021D01*
X154384D01*
Y86900D01*
X154263D01*
Y86778D01*
X154141D01*
Y86657D01*
X154019D01*
Y86535D01*
X153898D01*
Y86414D01*
X153777D01*
Y86292D01*
X153655D01*
Y86171D01*
X153534D01*
Y86049D01*
X153412D01*
Y85928D01*
X153291D01*
Y85806D01*
X153169D01*
Y85685D01*
X153048D01*
Y85563D01*
X152926D01*
Y85442D01*
X152805D01*
Y85320D01*
X152683D01*
Y85199D01*
X152562D01*
Y85077D01*
X152440D01*
Y84956D01*
X152319D01*
Y84835D01*
X152197D01*
Y84713D01*
X152076D01*
Y84592D01*
X151954D01*
Y84470D01*
X151833D01*
Y84349D01*
X151712D01*
Y84227D01*
X151590D01*
Y84106D01*
X151469D01*
Y83984D01*
X151347D01*
Y83863D01*
X151226D01*
Y83741D01*
X151104D01*
Y83620D01*
X150983D01*
Y83498D01*
X150861D01*
Y83377D01*
X150740D01*
Y83255D01*
X150618D01*
Y83134D01*
X150497D01*
Y83012D01*
X150375D01*
Y82891D01*
X150254D01*
Y82769D01*
X150132D01*
Y82648D01*
X150011D01*
Y82527D01*
X149889D01*
Y82405D01*
X149768D01*
Y82284D01*
X149647D01*
Y82162D01*
X149525D01*
Y82041D01*
X149403D01*
Y81919D01*
X149282D01*
Y81798D01*
X149161D01*
Y81676D01*
X149039D01*
Y81555D01*
X148918D01*
Y81433D01*
X148796D01*
Y81312D01*
X148675D01*
Y81190D01*
X148553D01*
Y81069D01*
X148432D01*
Y80947D01*
X148310D01*
Y80826D01*
X148189D01*
Y80704D01*
X148067D01*
Y80583D01*
X147946D01*
Y80462D01*
X147824D01*
Y80340D01*
X147703D01*
Y80218D01*
X147581D01*
Y80097D01*
X147460D01*
Y79976D01*
X147338D01*
Y79854D01*
X147217D01*
Y79733D01*
X147095D01*
Y79611D01*
X146974D01*
Y79490D01*
X146853D01*
Y79368D01*
X146731D01*
Y79247D01*
X146610D01*
Y79125D01*
X146488D01*
Y79004D01*
X146367D01*
Y78882D01*
X146245D01*
Y78761D01*
X146124D01*
Y78639D01*
X146002D01*
Y78518D01*
X145881D01*
Y78396D01*
X145759D01*
Y78275D01*
X145638D01*
Y78154D01*
X145516D01*
Y78032D01*
X145395D01*
Y77910D01*
X145273D01*
Y77789D01*
X145152D01*
Y77668D01*
X145030D01*
Y77546D01*
X144909D01*
Y77425D01*
X144788D01*
Y77303D01*
X144666D01*
Y77182D01*
X144545D01*
Y77060D01*
X144423D01*
Y76939D01*
X144302D01*
Y76817D01*
X144180D01*
Y76696D01*
X144059D01*
Y76574D01*
X143937D01*
Y76453D01*
X143816D01*
Y76331D01*
X143694D01*
Y76210D01*
X143573D01*
Y76088D01*
X143451D01*
Y75967D01*
X143330D01*
Y75845D01*
X143208D01*
Y75724D01*
X143087D01*
Y75602D01*
X142965D01*
Y75481D01*
X142844D01*
Y75360D01*
X142723D01*
Y75238D01*
X142601D01*
Y75117D01*
X142479D01*
Y74995D01*
X142358D01*
Y120183D01*
X207346D01*
Y120305D01*
X207468D01*
Y120426D01*
X207589D01*
Y120548D01*
X207711D01*
Y120669D01*
X207832D01*
Y120791D01*
X207954D01*
Y120912D01*
X208075D01*
Y121034D01*
X208197D01*
Y121155D01*
X208318D01*
Y121277D01*
X208440D01*
Y121398D01*
X208561D01*
Y121520D01*
X208683D01*
Y121641D01*
X208804D01*
Y121763D01*
X208926D01*
Y121884D01*
X209047D01*
Y122006D01*
X209169D01*
Y122127D01*
X209290D01*
Y122248D01*
X209412D01*
Y122370D01*
X209533D01*
Y122491D01*
X209655D01*
Y122613D01*
X209776D01*
Y122734D01*
X209897D01*
Y122856D01*
X210019D01*
Y122977D01*
X210140D01*
Y123099D01*
X210262D01*
Y123220D01*
X210383D01*
Y123342D01*
X210505D01*
Y123463D01*
X210626D01*
Y123585D01*
X210748D01*
Y123706D01*
X210869D01*
Y123828D01*
X210991D01*
Y123949D01*
X211112D01*
Y124071D01*
X211234D01*
Y124192D01*
X211355D01*
Y124313D01*
X211477D01*
Y124435D01*
X211598D01*
Y124556D01*
X211720D01*
Y124678D01*
X211841D01*
Y124799D01*
X211963D01*
Y124921D01*
X212084D01*
Y125042D01*
X212206D01*
Y125164D01*
X212327D01*
Y125285D01*
X212448D01*
Y125407D01*
X212570D01*
Y125528D01*
X212691D01*
Y125650D01*
X212813D01*
Y125771D01*
X212934D01*
Y125893D01*
X213056D01*
Y126014D01*
X213177D01*
Y126136D01*
X213299D01*
Y126257D01*
X213420D01*
Y126379D01*
X213542D01*
Y126500D01*
X213663D01*
Y126622D01*
X213785D01*
Y126743D01*
X213906D01*
Y126865D01*
X214028D01*
Y126986D01*
X214149D01*
Y127107D01*
X214270D01*
Y127229D01*
X214392D01*
Y127350D01*
X214513D01*
Y127472D01*
X214635D01*
Y127593D01*
X214756D01*
Y127715D01*
X214878D01*
Y127836D01*
X214999D01*
Y127958D01*
X215121D01*
Y128079D01*
X215242D01*
Y128201D01*
X215364D01*
Y128322D01*
X215485D01*
Y128444D01*
X215607D01*
Y128565D01*
X215728D01*
Y128687D01*
X215850D01*
Y128808D01*
X215971D01*
Y128930D01*
X216093D01*
Y129051D01*
X216214D01*
Y129172D01*
X216336D01*
Y129294D01*
X216457D01*
Y129415D01*
X216579D01*
Y129537D01*
X216700D01*
Y129658D01*
X216821D01*
Y129780D01*
X216943D01*
Y129901D01*
X217064D01*
Y130023D01*
X217186D01*
Y130144D01*
X217307D01*
Y130266D01*
X217429D01*
Y130387D01*
X217550D01*
Y130509D01*
X217672D01*
Y130630D01*
X217793D01*
Y130752D01*
X217915D01*
Y130873D01*
X218036D01*
Y130995D01*
X218158D01*
Y131116D01*
X218279D01*
Y131237D01*
X218401D01*
Y131359D01*
X218522D01*
Y131481D01*
X218644D01*
Y131602D01*
X218765D01*
Y131723D01*
X218887D01*
Y131845D01*
X219008D01*
Y131966D01*
X219130D01*
Y132088D01*
X219251D01*
Y132209D01*
X219372D01*
Y132331D01*
X219494D01*
Y132452D01*
X219615D01*
Y132574D01*
X219737D01*
Y132695D01*
X219858D01*
Y132817D01*
X219980D01*
Y132938D01*
X220101D01*
Y133060D01*
X220223D01*
Y133181D01*
X220344D01*
Y133303D01*
X220466D01*
Y133424D01*
X220587D01*
Y133546D01*
X220709D01*
Y133667D01*
X220830D01*
Y133788D01*
X220952D01*
Y133910D01*
X221073D01*
Y134031D01*
X221194D01*
Y134153D01*
X221316D01*
Y134274D01*
X221437D01*
Y134396D01*
X221559D01*
Y134517D01*
X221680D01*
Y134639D01*
X221802D01*
Y134760D01*
X221923D01*
Y134882D01*
X222045D01*
Y135003D01*
X222166D01*
Y135125D01*
X222288D01*
Y135246D01*
X222409D01*
Y135368D01*
X222531D01*
Y135489D01*
X222652D01*
Y135611D01*
X222774D01*
Y135732D01*
X222895D01*
Y135854D01*
X223017D01*
Y136096D01*
X222895D01*
Y136218D01*
X222774D01*
Y136339D01*
X222652D01*
Y136461D01*
X222531D01*
Y136582D01*
X222409D01*
Y136704D01*
X222288D01*
Y136825D01*
X222166D01*
Y136947D01*
X222045D01*
Y137068D01*
X221923D01*
Y137190D01*
X221802D01*
Y137311D01*
X221680D01*
Y137433D01*
X221559D01*
Y137554D01*
X221437D01*
Y137676D01*
X221316D01*
Y137797D01*
X221194D01*
Y137919D01*
X221073D01*
Y138040D01*
X220952D01*
Y138161D01*
X220830D01*
Y138283D01*
X220709D01*
Y138405D01*
X220587D01*
Y138526D01*
X220466D01*
Y138647D01*
X220344D01*
Y138769D01*
X220223D01*
Y138890D01*
X220101D01*
Y139012D01*
X219980D01*
Y139133D01*
X219858D01*
Y139255D01*
X219737D01*
Y139376D01*
X219494D01*
Y139498D01*
X219372D01*
Y139619D01*
X219251D01*
Y139862D01*
X220101D01*
Y139984D01*
X220952D01*
Y140105D01*
X221802D01*
Y140227D01*
X222774D01*
Y140348D01*
X223624D01*
Y140470D01*
X224474D01*
Y140591D01*
X225446D01*
Y140712D01*
X226296D01*
Y140834D01*
X227147D01*
Y140955D01*
X228118D01*
Y141077D01*
X228969D01*
Y141198D01*
X229819D01*
Y141320D01*
X230791D01*
Y141441D01*
X231641D01*
Y141563D01*
X232492D01*
Y141684D01*
X233342D01*
Y140712D01*
D02*
G37*
G36*
X240509Y110223D02*
X240387D01*
Y109129D01*
X240266D01*
Y107672D01*
X240144D01*
Y106578D01*
X240023D01*
Y105485D01*
X239902D01*
Y104149D01*
X239780D01*
Y103056D01*
X239659D01*
Y101841D01*
X239537D01*
Y100505D01*
X239416D01*
Y99411D01*
X239294D01*
Y98318D01*
X239173D01*
Y98197D01*
Y96860D01*
X239051D01*
Y96010D01*
X238930D01*
Y96132D01*
X238808D01*
Y96253D01*
X238687D01*
Y96375D01*
X238565D01*
Y96496D01*
X238444D01*
Y96617D01*
X238322D01*
Y96739D01*
X238201D01*
Y96860D01*
X238079D01*
Y96982D01*
X237958D01*
Y97103D01*
X237836D01*
Y97225D01*
X237715D01*
Y97346D01*
X237593D01*
Y97468D01*
X237472D01*
Y97589D01*
X237351D01*
Y97711D01*
X237108D01*
Y97832D01*
X236986D01*
Y97954D01*
X236865D01*
Y98075D01*
X236743D01*
Y98197D01*
X236622D01*
Y98318D01*
X236500D01*
Y98440D01*
X236379D01*
Y98561D01*
X236257D01*
Y98683D01*
X236136D01*
Y98804D01*
X236014D01*
Y98926D01*
X235893D01*
Y99047D01*
X235771D01*
Y99168D01*
X235650D01*
Y99290D01*
X235528D01*
Y99411D01*
X235407D01*
Y99533D01*
X235285D01*
Y99654D01*
X235164D01*
Y99533D01*
X235042D01*
Y99411D01*
X234921D01*
Y99290D01*
X234800D01*
Y99168D01*
X234678D01*
Y99047D01*
X234557D01*
Y98926D01*
X234435D01*
Y98804D01*
X234314D01*
Y98683D01*
X234192D01*
Y98561D01*
X234071D01*
Y98440D01*
X233949D01*
Y98318D01*
X233828D01*
Y98197D01*
X233706D01*
Y98075D01*
X233585D01*
Y97954D01*
X233463D01*
Y97832D01*
X233342D01*
Y97711D01*
X233220D01*
Y97589D01*
X233099D01*
Y97468D01*
X232978D01*
Y97346D01*
X232856D01*
Y97225D01*
X232735D01*
Y97103D01*
X232613D01*
Y96982D01*
X232492D01*
Y96860D01*
X232370D01*
Y96739D01*
X232249D01*
Y96617D01*
X232127D01*
Y96496D01*
X232006D01*
Y96375D01*
X231884D01*
Y96253D01*
X231763D01*
Y96132D01*
X231641D01*
Y96010D01*
X231520D01*
Y95889D01*
X231398D01*
Y95767D01*
X231277D01*
Y95646D01*
X231155D01*
Y95524D01*
X231034D01*
Y95403D01*
X230912D01*
Y95281D01*
X230791D01*
Y95160D01*
X230669D01*
Y95038D01*
X230548D01*
Y94917D01*
X230427D01*
Y94795D01*
X230305D01*
Y94674D01*
X230184D01*
Y94552D01*
X230062D01*
Y94431D01*
X229941D01*
Y94310D01*
X229819D01*
Y94188D01*
X229698D01*
Y94066D01*
X229576D01*
Y93945D01*
X229455D01*
Y93824D01*
X229333D01*
Y93702D01*
X229212D01*
Y93581D01*
X229090D01*
Y93459D01*
X228969D01*
Y93338D01*
X228847D01*
Y93216D01*
X228726D01*
Y93095D01*
X228604D01*
Y92973D01*
X228483D01*
Y92852D01*
X228361D01*
Y92730D01*
X228240D01*
Y92609D01*
X228118D01*
Y92487D01*
X227997D01*
Y92366D01*
X227876D01*
Y92244D01*
X227754D01*
Y92123D01*
X227633D01*
Y92001D01*
X227511D01*
Y91880D01*
X227390D01*
Y91758D01*
X227268D01*
Y91637D01*
X227147D01*
Y91516D01*
X227025D01*
Y91394D01*
X226904D01*
Y91273D01*
X226782D01*
Y91151D01*
X226661D01*
Y91030D01*
X226539D01*
Y90908D01*
X226418D01*
Y90787D01*
X226296D01*
Y90665D01*
X226175D01*
Y90544D01*
X226054D01*
Y90422D01*
X225932D01*
Y90301D01*
X225811D01*
Y90179D01*
X225689D01*
Y90058D01*
X225568D01*
Y89936D01*
X225446D01*
Y89815D01*
X225325D01*
Y89693D01*
X225203D01*
Y89572D01*
X225082D01*
Y89451D01*
X224960D01*
Y89329D01*
X224839D01*
Y89208D01*
X224717D01*
Y89086D01*
X224596D01*
Y88965D01*
X224474D01*
Y88843D01*
X224353D01*
Y88722D01*
X224231D01*
Y88600D01*
X224110D01*
Y88479D01*
X223988D01*
Y88357D01*
X223867D01*
Y38796D01*
X165074D01*
Y38918D01*
X165195D01*
Y39039D01*
X165317D01*
Y39160D01*
X165438D01*
Y39282D01*
X165560D01*
Y39525D01*
X165802D01*
Y39646D01*
X165924D01*
Y39889D01*
X166167D01*
Y40011D01*
X166288D01*
Y40254D01*
X166531D01*
Y40375D01*
X166653D01*
Y40618D01*
X166896D01*
Y40740D01*
X167017D01*
Y40982D01*
X167260D01*
Y41226D01*
X167382D01*
Y41347D01*
X167625D01*
Y41468D01*
X167746D01*
Y41711D01*
X167989D01*
Y41833D01*
X168111D01*
Y42076D01*
X168232D01*
Y42197D01*
X168475D01*
Y42440D01*
X168718D01*
Y42562D01*
X168839D01*
Y42805D01*
X169082D01*
Y42926D01*
X169204D01*
Y43169D01*
X169447D01*
Y43291D01*
X169568D01*
Y43534D01*
X169811D01*
Y43655D01*
X169933D01*
Y43776D01*
X170054D01*
Y43898D01*
X170176D01*
Y44019D01*
X170297D01*
Y44262D01*
X170540D01*
Y44384D01*
X170661D01*
Y44505D01*
X170783D01*
Y44748D01*
X171026D01*
Y44991D01*
X171147D01*
Y45113D01*
X171390D01*
Y45356D01*
X171633D01*
Y45477D01*
X171755D01*
Y45720D01*
X171876D01*
Y45841D01*
X172119D01*
Y46084D01*
X172241D01*
Y46206D01*
X172484D01*
Y46449D01*
X172605D01*
Y46570D01*
X172848D01*
Y46692D01*
X172969D01*
Y46813D01*
X173091D01*
Y46935D01*
X173212D01*
Y47056D01*
X173334D01*
Y47299D01*
X173577D01*
Y47421D01*
X173698D01*
Y47664D01*
X173941D01*
Y47785D01*
X174063D01*
Y48028D01*
X174306D01*
Y48149D01*
X174427D01*
Y48392D01*
X174670D01*
Y48514D01*
X174792D01*
Y48757D01*
X175035D01*
Y49000D01*
X175156D01*
Y49121D01*
X175399D01*
Y49243D01*
X175520D01*
Y49486D01*
X175763D01*
Y49607D01*
X175885D01*
Y49850D01*
X176128D01*
Y49972D01*
X176249D01*
Y50215D01*
X176492D01*
Y50336D01*
X176614D01*
Y50579D01*
X176857D01*
Y50700D01*
X176978D01*
Y50943D01*
X177221D01*
Y51065D01*
X177342D01*
Y51308D01*
X177585D01*
Y51429D01*
X177707D01*
Y51551D01*
X177828D01*
Y51672D01*
X177950D01*
Y51794D01*
X178071D01*
Y52037D01*
X178193D01*
Y52158D01*
X178436D01*
Y52280D01*
X178557D01*
Y52523D01*
X178800D01*
Y52765D01*
X179043D01*
Y52887D01*
X179165D01*
Y53130D01*
X179286D01*
Y53251D01*
X179529D01*
Y53494D01*
X179650D01*
Y53616D01*
X179893D01*
Y53859D01*
X180015D01*
Y53980D01*
X180258D01*
Y54223D01*
X180501D01*
Y54345D01*
X180622D01*
Y54466D01*
X180744D01*
Y54709D01*
X180987D01*
Y54830D01*
X181108D01*
Y55073D01*
X181351D01*
Y55195D01*
X181473D01*
Y55438D01*
X181716D01*
Y55559D01*
X181837D01*
Y55802D01*
X182080D01*
Y55924D01*
X182201D01*
Y56167D01*
X182444D01*
Y56288D01*
X182566D01*
Y56531D01*
X182809D01*
Y56774D01*
X182930D01*
Y56896D01*
X183173D01*
Y57017D01*
X183295D01*
Y57260D01*
X183538D01*
Y57382D01*
X183659D01*
Y57624D01*
X183902D01*
Y57746D01*
X184024D01*
Y57989D01*
X184266D01*
Y58110D01*
X184388D01*
Y58353D01*
X184631D01*
Y58475D01*
X184752D01*
Y58718D01*
X184995D01*
Y58839D01*
X185117D01*
Y59082D01*
X185360D01*
Y59204D01*
X185481D01*
Y59447D01*
X185724D01*
Y59568D01*
X185846D01*
Y59811D01*
X185967D01*
Y59932D01*
X186210D01*
Y60054D01*
X186332D01*
Y60297D01*
X186574D01*
Y60418D01*
X186696D01*
Y60540D01*
X186817D01*
Y60661D01*
X186939D01*
Y60904D01*
X187060D01*
Y61026D01*
X187303D01*
Y61269D01*
X187425D01*
Y61390D01*
X187668D01*
Y61633D01*
X187789D01*
Y61754D01*
X188032D01*
Y61997D01*
X188275D01*
Y62119D01*
X188397D01*
Y62240D01*
X188518D01*
Y62362D01*
X188640D01*
Y62483D01*
X188761D01*
Y62605D01*
X188883D01*
Y62848D01*
X189125D01*
Y62969D01*
X189247D01*
Y63212D01*
X189490D01*
Y63334D01*
X189611D01*
Y63577D01*
X189854D01*
Y63698D01*
X189976D01*
Y63941D01*
X190219D01*
Y64062D01*
X190340D01*
Y64306D01*
X190583D01*
Y64427D01*
X190705D01*
Y64670D01*
X190947D01*
Y64791D01*
X191069D01*
Y65034D01*
X191312D01*
Y65156D01*
X191433D01*
Y65399D01*
X191676D01*
Y65520D01*
X191798D01*
Y65763D01*
X192041D01*
Y65885D01*
X192162D01*
Y66128D01*
X192405D01*
Y66249D01*
X192527D01*
Y66492D01*
X192770D01*
Y66613D01*
X192891D01*
Y66856D01*
X193134D01*
Y66978D01*
X193256D01*
Y67099D01*
X193377D01*
Y67221D01*
X193498D01*
Y67342D01*
X193620D01*
Y67585D01*
X193741D01*
Y67707D01*
X193984D01*
Y67828D01*
X194106D01*
Y68071D01*
X194349D01*
Y68193D01*
X194470D01*
Y68314D01*
X194592D01*
Y68436D01*
X194713D01*
Y68678D01*
X194835D01*
Y68800D01*
X195078D01*
Y69043D01*
X195199D01*
Y69164D01*
X195442D01*
Y69407D01*
X195564D01*
Y69529D01*
X195807D01*
Y69772D01*
X196049D01*
Y69893D01*
X196171D01*
Y70015D01*
X196292D01*
Y70258D01*
X196535D01*
Y70379D01*
X196657D01*
Y70622D01*
X196900D01*
Y70744D01*
X197021D01*
Y70986D01*
X197264D01*
Y71108D01*
X197386D01*
Y71351D01*
X197629D01*
Y71472D01*
X197750D01*
Y71715D01*
X197993D01*
Y71837D01*
X198114D01*
Y72080D01*
X198358D01*
Y72323D01*
X198479D01*
Y72444D01*
X198722D01*
Y72566D01*
X198843D01*
Y72809D01*
X199086D01*
Y72930D01*
X199208D01*
Y73173D01*
X199329D01*
Y73295D01*
X199572D01*
Y73538D01*
X199815D01*
Y73659D01*
X199937D01*
Y73902D01*
X200180D01*
Y74023D01*
X200301D01*
Y74266D01*
X200544D01*
Y74388D01*
X200665D01*
Y74631D01*
X200908D01*
Y74752D01*
X201030D01*
Y74995D01*
X201273D01*
Y75117D01*
X201394D01*
Y75360D01*
X201516D01*
Y75481D01*
X201759D01*
Y75602D01*
X201880D01*
Y75845D01*
X202123D01*
Y75967D01*
X202245D01*
Y76088D01*
X202366D01*
Y76210D01*
X202488D01*
Y76453D01*
X202731D01*
Y76574D01*
X202852D01*
Y76817D01*
X202973D01*
Y76939D01*
X203216D01*
Y77182D01*
X203459D01*
Y77303D01*
X203581D01*
Y77546D01*
X203824D01*
Y77668D01*
X203945D01*
Y77789D01*
X204067D01*
Y78032D01*
X204310D01*
Y78154D01*
X204431D01*
Y78396D01*
X204674D01*
Y78518D01*
X204796D01*
Y78761D01*
X205039D01*
Y78882D01*
X205160D01*
Y79125D01*
X205403D01*
Y79368D01*
X205524D01*
Y79490D01*
X205767D01*
Y79611D01*
X205889D01*
Y79854D01*
X206132D01*
Y80097D01*
X206253D01*
Y80218D01*
X206496D01*
Y80340D01*
X206618D01*
Y80583D01*
X206861D01*
Y80704D01*
X206982D01*
Y80947D01*
X207225D01*
Y81069D01*
X207346D01*
Y81312D01*
X207589D01*
Y81433D01*
X207711D01*
Y81676D01*
X207954D01*
Y81798D01*
X208075D01*
Y82041D01*
X208318D01*
Y82162D01*
X208440D01*
Y82405D01*
X208683D01*
Y82527D01*
X208804D01*
Y82648D01*
X208926D01*
Y82769D01*
X209047D01*
Y82891D01*
X209169D01*
Y83012D01*
X209290D01*
Y83255D01*
X209533D01*
Y83377D01*
X209655D01*
Y83620D01*
X209897D01*
Y83741D01*
X210019D01*
Y83863D01*
X210140D01*
Y83984D01*
X210262D01*
Y84227D01*
X210505D01*
Y84349D01*
X210626D01*
Y84470D01*
X210748D01*
Y84592D01*
X210869D01*
Y84713D01*
X210991D01*
Y84956D01*
X211112D01*
Y85077D01*
X211355D01*
Y85320D01*
X211598D01*
Y85442D01*
X211720D01*
Y85563D01*
X211841D01*
Y85806D01*
X212084D01*
Y85928D01*
X212206D01*
Y86171D01*
X212448D01*
Y86292D01*
X212570D01*
Y86535D01*
X212813D01*
Y86657D01*
X212934D01*
Y86900D01*
X213177D01*
Y87021D01*
X213299D01*
Y87264D01*
X213542D01*
Y87386D01*
X213663D01*
Y87628D01*
X213906D01*
Y87750D01*
X214028D01*
Y87993D01*
X214270D01*
Y88114D01*
X214392D01*
Y88236D01*
X214513D01*
Y88357D01*
X214635D01*
Y88479D01*
X214756D01*
Y88722D01*
X214878D01*
Y88843D01*
X215121D01*
Y89086D01*
X215364D01*
Y89208D01*
X215485D01*
Y89451D01*
X215728D01*
Y89572D01*
X215850D01*
Y89815D01*
X216093D01*
Y89936D01*
X216214D01*
Y90179D01*
X216457D01*
Y90301D01*
X216579D01*
Y90422D01*
X216700D01*
Y90544D01*
X216821D01*
Y90665D01*
X216943D01*
Y90787D01*
X217064D01*
Y91030D01*
X217307D01*
Y91151D01*
X217429D01*
Y91273D01*
X217550D01*
Y91394D01*
X217672D01*
Y91516D01*
X217793D01*
Y91637D01*
X217915D01*
Y91758D01*
X218036D01*
Y92001D01*
X218158D01*
Y92123D01*
X218401D01*
Y92366D01*
X218522D01*
Y92487D01*
X218765D01*
Y92730D01*
X218887D01*
Y92852D01*
X219130D01*
Y93095D01*
X219372D01*
Y93216D01*
X219494D01*
Y93338D01*
X219615D01*
Y93581D01*
X219858D01*
Y93702D01*
X219980D01*
Y93945D01*
X220223D01*
Y94066D01*
X220344D01*
Y94310D01*
X220587D01*
Y94431D01*
X220709D01*
Y94674D01*
X220952D01*
Y94795D01*
X221073D01*
Y95038D01*
X221316D01*
Y95160D01*
X221437D01*
Y95281D01*
X221559D01*
Y95403D01*
X221680D01*
Y95524D01*
X221802D01*
Y95767D01*
X222045D01*
Y95889D01*
X222166D01*
Y96010D01*
X222288D01*
Y96132D01*
X222409D01*
Y96253D01*
X222531D01*
Y96496D01*
X222774D01*
Y96617D01*
X222895D01*
Y96860D01*
X223138D01*
Y96982D01*
X223260D01*
Y97103D01*
X223381D01*
Y97225D01*
X223503D01*
Y97346D01*
X223624D01*
Y97589D01*
X223867D01*
Y97711D01*
X223988D01*
Y97954D01*
X224231D01*
Y98075D01*
X224353D01*
Y98197D01*
X224474D01*
Y98318D01*
X224596D01*
Y98440D01*
X224717D01*
Y98561D01*
X224839D01*
Y98804D01*
X225082D01*
Y98926D01*
X225203D01*
Y99047D01*
X225325D01*
Y99168D01*
X225446D01*
Y99290D01*
X225568D01*
Y99411D01*
X225689D01*
Y99533D01*
X225811D01*
Y99776D01*
X226054D01*
Y99897D01*
X226175D01*
Y100140D01*
X226296D01*
Y100262D01*
X226539D01*
Y100505D01*
X226661D01*
Y100626D01*
X226904D01*
Y100869D01*
X227025D01*
Y100991D01*
X227268D01*
Y101112D01*
X227390D01*
Y101234D01*
X227511D01*
Y101355D01*
X227633D01*
Y101476D01*
X227754D01*
Y101719D01*
X227997D01*
Y101841D01*
X228118D01*
Y102084D01*
X228361D01*
Y102205D01*
X228483D01*
Y102448D01*
X228726D01*
Y102570D01*
X228847D01*
Y102813D01*
X229090D01*
Y103056D01*
X229212D01*
Y103177D01*
X229455D01*
Y103299D01*
X229576D01*
Y103541D01*
X229819D01*
Y103663D01*
X229941D01*
Y103906D01*
X230184D01*
Y104027D01*
X230305D01*
Y104270D01*
X230427D01*
Y104392D01*
X230305D01*
Y104635D01*
X230062D01*
Y104756D01*
X229941D01*
Y104999D01*
X229698D01*
Y105121D01*
X229576D01*
Y105242D01*
X229455D01*
Y105364D01*
X229333D01*
Y105485D01*
X229212D01*
Y105606D01*
X229090D01*
Y105728D01*
X228969D01*
Y105850D01*
X228847D01*
Y105971D01*
X228726D01*
Y106092D01*
X228604D01*
Y106214D01*
X228483D01*
Y106335D01*
X228361D01*
Y106457D01*
X228240D01*
Y106578D01*
X228118D01*
Y106700D01*
X227997D01*
Y106821D01*
X227876D01*
Y106943D01*
X227754D01*
Y107064D01*
X227633D01*
Y107186D01*
X227511D01*
Y107307D01*
X227390D01*
Y107429D01*
X227268D01*
Y107550D01*
X227147D01*
Y107672D01*
X227025D01*
Y107793D01*
X226904D01*
Y107914D01*
X226782D01*
Y108036D01*
X226661D01*
Y108158D01*
X226539D01*
Y108279D01*
X226418D01*
Y108400D01*
X226539D01*
Y108522D01*
X227390D01*
Y108643D01*
X228361D01*
Y108765D01*
X229212D01*
Y108886D01*
X230062D01*
Y109008D01*
X231034D01*
Y109129D01*
X232006D01*
Y109251D01*
X232735D01*
Y109372D01*
X233706D01*
Y109494D01*
X234678D01*
Y109615D01*
X235407D01*
Y109737D01*
X236379D01*
Y109858D01*
X237351D01*
Y109980D01*
X238201D01*
Y110101D01*
X239051D01*
Y110223D01*
X240023D01*
Y110344D01*
X240509D01*
Y110223D01*
D02*
G37*
G36*
X224110Y28106D02*
Y27985D01*
Y21061D01*
X223988D01*
Y21304D01*
X223867D01*
Y21425D01*
X223745D01*
Y21668D01*
X223624D01*
Y21911D01*
X223503D01*
Y22033D01*
X223381D01*
Y22276D01*
X223260D01*
Y22518D01*
X223138D01*
Y22640D01*
X223017D01*
Y22883D01*
X222895D01*
Y23126D01*
X222774D01*
Y23247D01*
X222652D01*
Y23490D01*
X222531D01*
Y23733D01*
X222409D01*
Y23855D01*
X222288D01*
Y24098D01*
X222166D01*
Y24341D01*
X222045D01*
Y24462D01*
X221923D01*
Y24705D01*
X221802D01*
Y24827D01*
X221680D01*
Y25069D01*
X221559D01*
Y25312D01*
X221437D01*
Y25434D01*
X221316D01*
Y25677D01*
X221194D01*
Y25920D01*
X221073D01*
Y26041D01*
X220952D01*
Y26284D01*
X220830D01*
Y26527D01*
X220709D01*
Y26649D01*
X220587D01*
Y26892D01*
X220466D01*
Y27013D01*
X220344D01*
Y27256D01*
X220223D01*
Y27499D01*
X220101D01*
Y33694D01*
X224110D01*
Y28106D01*
D02*
G37*
G36*
X215485Y33573D02*
X215607D01*
Y33451D01*
X215728D01*
Y33330D01*
X215850D01*
Y33087D01*
X215971D01*
Y32844D01*
X216093D01*
Y32722D01*
X216214D01*
Y32479D01*
X216336D01*
Y32236D01*
X216457D01*
Y32115D01*
X216579D01*
Y31872D01*
X216700D01*
Y31629D01*
X216821D01*
Y31508D01*
X216943D01*
Y31265D01*
X217064D01*
Y31022D01*
X217186D01*
Y30900D01*
X217307D01*
Y30657D01*
X217429D01*
Y30536D01*
X217550D01*
Y30293D01*
X217672D01*
Y30050D01*
X217793D01*
Y29928D01*
X217915D01*
Y29685D01*
X218036D01*
Y29443D01*
X218158D01*
Y29321D01*
X218279D01*
Y29078D01*
X218401D01*
Y28835D01*
X218522D01*
Y28714D01*
X218644D01*
Y28471D01*
X218765D01*
Y28228D01*
X218887D01*
Y28106D01*
X219008D01*
Y27863D01*
X219130D01*
Y27742D01*
X219251D01*
Y27499D01*
X219372D01*
Y27256D01*
X219494D01*
Y27134D01*
X219615D01*
Y26892D01*
X219737D01*
Y26649D01*
X219858D01*
Y26527D01*
X219980D01*
Y26284D01*
X220101D01*
Y26163D01*
X220223D01*
Y25920D01*
X220344D01*
Y25677D01*
X220466D01*
Y25434D01*
X220587D01*
Y25312D01*
X220709D01*
Y25069D01*
X220830D01*
Y24948D01*
X220952D01*
Y24705D01*
X221073D01*
Y24462D01*
X221194D01*
Y24341D01*
X221316D01*
Y24098D01*
X221437D01*
Y23855D01*
X221559D01*
Y23733D01*
X221680D01*
Y23490D01*
X221802D01*
Y23247D01*
X221923D01*
Y23126D01*
X222045D01*
Y22883D01*
X222166D01*
Y22640D01*
X222288D01*
Y22518D01*
X222409D01*
Y22276D01*
X222531D01*
Y22033D01*
X222652D01*
Y21911D01*
X222774D01*
Y21790D01*
Y21668D01*
X222895D01*
Y21425D01*
X223017D01*
Y21304D01*
X223138D01*
Y21061D01*
X223260D01*
Y20939D01*
X223381D01*
Y20696D01*
X223503D01*
Y20454D01*
X223624D01*
Y20332D01*
X223745D01*
Y20089D01*
X223867D01*
Y19846D01*
X223988D01*
Y19725D01*
X224110D01*
Y19603D01*
X219130D01*
Y19725D01*
X219008D01*
Y19846D01*
X218887D01*
Y20089D01*
X218765D01*
Y20332D01*
X218644D01*
Y20454D01*
X218522D01*
Y20696D01*
X218401D01*
Y20939D01*
X218279D01*
Y21061D01*
X218158D01*
Y21304D01*
X218036D01*
Y21547D01*
X217915D01*
Y21668D01*
X217793D01*
Y21911D01*
X217672D01*
Y22154D01*
X217550D01*
Y22276D01*
X217429D01*
Y22518D01*
X217307D01*
Y22761D01*
X217186D01*
Y22883D01*
X217064D01*
Y23126D01*
X216943D01*
Y23369D01*
X216821D01*
Y23490D01*
X216700D01*
Y23733D01*
X216579D01*
Y23976D01*
X216457D01*
Y24098D01*
X216336D01*
Y24341D01*
X216214D01*
Y24584D01*
X216093D01*
Y24705D01*
X215971D01*
Y24948D01*
X215850D01*
Y25069D01*
X215728D01*
Y25312D01*
X215607D01*
Y25555D01*
X215485D01*
Y25677D01*
X215364D01*
Y25920D01*
X215242D01*
Y26163D01*
X215121D01*
Y26284D01*
X214999D01*
Y26527D01*
X214878D01*
Y26770D01*
X214756D01*
Y26892D01*
X214635D01*
Y27134D01*
X214513D01*
Y27378D01*
X214392D01*
Y27499D01*
X214270D01*
Y27742D01*
X214149D01*
Y27863D01*
X214028D01*
Y28106D01*
X213906D01*
Y28349D01*
X213785D01*
Y28471D01*
X213663D01*
Y28714D01*
X213542D01*
Y28957D01*
X213420D01*
Y29078D01*
X213299D01*
Y29321D01*
X213177D01*
Y29564D01*
X213056D01*
Y29685D01*
X212934D01*
Y29928D01*
X212813D01*
Y30171D01*
X212691D01*
Y30293D01*
X212570D01*
Y30536D01*
X212448D01*
Y30779D01*
X212327D01*
Y30900D01*
X212206D01*
Y31143D01*
X212084D01*
Y31386D01*
X211963D01*
Y31508D01*
X211841D01*
Y31751D01*
X211720D01*
Y31994D01*
X211598D01*
Y32115D01*
X211477D01*
Y32358D01*
X211355D01*
Y32601D01*
X211234D01*
Y32722D01*
X211112D01*
Y32965D01*
X210991D01*
Y33208D01*
X210869D01*
Y33330D01*
X210748D01*
Y33694D01*
X215485D01*
Y33573D01*
D02*
G37*
G36*
X210748Y31994D02*
X210869D01*
Y31751D01*
X210991D01*
Y31508D01*
X211112D01*
Y31386D01*
X211234D01*
Y31143D01*
X211355D01*
Y31022D01*
X211477D01*
Y30779D01*
X211598D01*
Y30536D01*
X211720D01*
Y30414D01*
X211841D01*
Y30171D01*
X211963D01*
Y30050D01*
X212084D01*
Y29807D01*
X212206D01*
Y29564D01*
X212327D01*
Y29443D01*
X212448D01*
Y29200D01*
X212570D01*
Y28957D01*
X212691D01*
Y28835D01*
X212813D01*
Y28592D01*
X212934D01*
Y28349D01*
X213056D01*
Y28228D01*
X213177D01*
Y27985D01*
X213299D01*
Y27742D01*
X213420D01*
Y27620D01*
X213542D01*
Y27378D01*
X213663D01*
Y27134D01*
X213785D01*
Y27013D01*
X213906D01*
Y26770D01*
X214028D01*
Y26527D01*
X214149D01*
Y26406D01*
X214270D01*
Y26163D01*
X214392D01*
Y26041D01*
X214513D01*
Y25798D01*
X214635D01*
Y25555D01*
X214756D01*
Y20089D01*
X214635D01*
Y19968D01*
X214756D01*
Y19603D01*
X210626D01*
Y24219D01*
Y24341D01*
Y32115D01*
X210748D01*
Y31994D01*
D02*
G37*
G36*
X190705Y33573D02*
X190826D01*
Y21061D01*
Y20939D01*
Y19603D01*
X186210D01*
Y33694D01*
X190705D01*
Y33573D01*
D02*
G37*
G36*
X178557D02*
X178800D01*
Y33451D01*
X178922D01*
Y33208D01*
X179043D01*
Y32965D01*
X179165D01*
Y32844D01*
X179286D01*
Y32601D01*
X179408D01*
Y32358D01*
X179529D01*
Y32236D01*
X179650D01*
Y31994D01*
X179772D01*
Y31872D01*
X179893D01*
Y31629D01*
X180015D01*
Y31386D01*
X180136D01*
Y31265D01*
X180258D01*
Y31022D01*
X180379D01*
Y30779D01*
X180501D01*
Y30657D01*
X180622D01*
Y30414D01*
X180744D01*
Y30171D01*
X180865D01*
Y30050D01*
X180987D01*
Y29807D01*
X181108D01*
Y29564D01*
X181230D01*
Y29443D01*
X181351D01*
Y29200D01*
X181473D01*
Y28957D01*
X181594D01*
Y28835D01*
X181716D01*
Y28592D01*
X181837D01*
Y28349D01*
X181959D01*
Y28228D01*
X182080D01*
Y27985D01*
X182201D01*
Y27742D01*
X182323D01*
Y27620D01*
X182444D01*
Y27499D01*
X182566D01*
Y27620D01*
X182687D01*
Y27742D01*
X182809D01*
Y27985D01*
X182930D01*
Y28228D01*
X183052D01*
Y28349D01*
X183173D01*
Y28592D01*
X183295D01*
Y28835D01*
X183416D01*
Y29078D01*
X183538D01*
Y29200D01*
X183659D01*
Y29443D01*
X183781D01*
Y29685D01*
X183902D01*
Y29807D01*
X184024D01*
Y30050D01*
X184145D01*
Y30293D01*
X184266D01*
Y30414D01*
X184388D01*
Y30657D01*
X184509D01*
Y30900D01*
X184631D01*
Y31143D01*
X184752D01*
Y31265D01*
X184874D01*
Y31508D01*
X184995D01*
Y31751D01*
X185117D01*
Y31994D01*
X185238D01*
Y32115D01*
X185360D01*
Y32358D01*
X185481D01*
Y25312D01*
X185360D01*
Y25069D01*
X185238D01*
Y24948D01*
X185117D01*
Y24705D01*
X184995D01*
Y24462D01*
X184874D01*
Y24219D01*
X184752D01*
Y23976D01*
X184631D01*
Y23855D01*
X184509D01*
Y23612D01*
X184388D01*
Y23369D01*
X184266D01*
Y23247D01*
X184145D01*
Y23004D01*
X184024D01*
Y22761D01*
X183902D01*
Y22518D01*
X183781D01*
Y22397D01*
X183659D01*
Y22154D01*
X183538D01*
Y21911D01*
X183416D01*
Y21790D01*
X183295D01*
Y21547D01*
X183173D01*
Y21304D01*
X183052D01*
Y21182D01*
X182930D01*
Y20939D01*
X182809D01*
Y20696D01*
X182687D01*
Y20454D01*
X182566D01*
Y20332D01*
X182444D01*
Y20089D01*
X182323D01*
Y19846D01*
X182201D01*
Y19603D01*
X182080D01*
Y19725D01*
X181959D01*
Y19846D01*
X181837D01*
Y20089D01*
X181716D01*
Y20332D01*
X181594D01*
Y20454D01*
X181473D01*
Y20696D01*
X181351D01*
Y20939D01*
X181230D01*
Y21061D01*
X181108D01*
Y21304D01*
X180987D01*
Y21547D01*
X180865D01*
Y21790D01*
X180744D01*
Y21911D01*
X180622D01*
Y22154D01*
X180501D01*
Y22397D01*
X180379D01*
Y22518D01*
X180258D01*
Y22761D01*
X180136D01*
Y23004D01*
X180015D01*
Y23126D01*
X179893D01*
Y23369D01*
X179772D01*
Y23612D01*
X179650D01*
Y23855D01*
X179529D01*
Y23976D01*
X179408D01*
Y24219D01*
X179286D01*
Y24462D01*
X179165D01*
Y24584D01*
X179043D01*
Y24827D01*
X178922D01*
Y25069D01*
X178800D01*
Y25191D01*
X178679D01*
Y25434D01*
X178557D01*
Y25677D01*
X178436D01*
Y25798D01*
X178314D01*
Y26041D01*
X178193D01*
Y26284D01*
X178071D01*
Y26406D01*
X177950D01*
Y26649D01*
X177828D01*
Y26892D01*
X177707D01*
Y27013D01*
X177585D01*
Y27256D01*
X177464D01*
Y27499D01*
X177342D01*
Y27742D01*
X177221D01*
Y27863D01*
X177099D01*
Y28106D01*
X176978D01*
Y28349D01*
X176857D01*
Y28471D01*
X176735D01*
Y28714D01*
X176614D01*
Y28957D01*
X176492D01*
Y29078D01*
X176371D01*
Y29321D01*
X176249D01*
Y29564D01*
X176128D01*
Y29685D01*
X176006D01*
Y29928D01*
X175885D01*
Y30171D01*
X175763D01*
Y30293D01*
X175642D01*
Y30536D01*
X175520D01*
Y30779D01*
X175399D01*
Y30900D01*
X175277D01*
Y31143D01*
X175156D01*
Y31386D01*
X175035D01*
Y31629D01*
X174913D01*
Y31751D01*
X174792D01*
Y31994D01*
X174670D01*
Y32236D01*
X174549D01*
Y32358D01*
X174427D01*
Y32601D01*
X174306D01*
Y32844D01*
X174184D01*
Y32965D01*
X174063D01*
Y33208D01*
X173941D01*
Y33451D01*
X173820D01*
Y33694D01*
X178557D01*
Y33573D01*
D02*
G37*
G36*
X173820Y32115D02*
X173941D01*
Y31872D01*
X174063D01*
Y31629D01*
X174184D01*
Y31508D01*
X174306D01*
Y31265D01*
X174427D01*
Y31022D01*
X174549D01*
Y30900D01*
X174670D01*
Y30657D01*
X174792D01*
Y30414D01*
X174913D01*
Y30171D01*
X175035D01*
Y30050D01*
X175156D01*
Y29807D01*
X175277D01*
Y29564D01*
X175399D01*
Y29443D01*
X175520D01*
Y29200D01*
X175642D01*
Y28957D01*
X175763D01*
Y28835D01*
X175885D01*
Y28592D01*
X176006D01*
Y28349D01*
X176128D01*
Y28228D01*
X176249D01*
Y27985D01*
X176371D01*
Y27742D01*
X176492D01*
Y27620D01*
X176614D01*
Y27378D01*
X176735D01*
Y27134D01*
X176857D01*
Y27013D01*
X176978D01*
Y26770D01*
X177099D01*
Y26527D01*
X177221D01*
Y26406D01*
X177342D01*
Y26163D01*
X177464D01*
Y25920D01*
X177585D01*
Y25798D01*
X177707D01*
Y25555D01*
X177828D01*
Y25312D01*
X177950D01*
Y25191D01*
X178071D01*
Y19603D01*
X173698D01*
Y26406D01*
Y26527D01*
Y32236D01*
X173820D01*
Y32115D01*
D02*
G37*
G36*
X170418Y32965D02*
X170540D01*
Y32844D01*
X170418D01*
Y22640D01*
X170540D01*
Y22518D01*
X170418D01*
Y22276D01*
X170297D01*
Y22154D01*
X170176D01*
Y22033D01*
X170054D01*
Y21911D01*
X169933D01*
Y21790D01*
X169811D01*
Y21668D01*
X169690D01*
Y21547D01*
X169568D01*
Y21425D01*
X169447D01*
Y21304D01*
X169325D01*
Y21182D01*
X169204D01*
Y21061D01*
X169082D01*
Y20939D01*
X168961D01*
Y20818D01*
X168839D01*
Y20696D01*
X168718D01*
Y20575D01*
X168596D01*
Y20454D01*
X168475D01*
Y20332D01*
X168353D01*
Y20210D01*
X168232D01*
Y20089D01*
X168111D01*
Y19968D01*
X167989D01*
Y19846D01*
X167868D01*
Y19725D01*
X167746D01*
Y19603D01*
X164102D01*
Y22397D01*
X165802D01*
Y23004D01*
Y23126D01*
Y33573D01*
X165924D01*
Y33694D01*
X170418D01*
Y32965D01*
D02*
G37*
G36*
X161551Y22397D02*
X163251D01*
Y19603D01*
X159607D01*
Y19725D01*
X159486D01*
Y19846D01*
X159364D01*
Y19968D01*
X159243D01*
Y20089D01*
X159121D01*
Y20210D01*
X159000D01*
Y20332D01*
X158878D01*
Y20454D01*
X158757D01*
Y20575D01*
X158636D01*
Y20696D01*
X158514D01*
Y20818D01*
X158393D01*
Y20939D01*
X158271D01*
Y21061D01*
X158150D01*
Y21182D01*
X158028D01*
Y21304D01*
X157907D01*
Y21425D01*
X157785D01*
Y21547D01*
X157664D01*
Y21668D01*
X157542D01*
Y21790D01*
X157421D01*
Y21911D01*
X157299D01*
Y22033D01*
X157178D01*
Y22154D01*
X157056D01*
Y22276D01*
X156935D01*
Y22397D01*
X156813D01*
Y22640D01*
X156935D01*
Y22761D01*
X156813D01*
Y22883D01*
X156935D01*
Y33694D01*
X161551D01*
Y22397D01*
D02*
G37*
G36*
X154748Y19603D02*
X148067D01*
Y20696D01*
Y20818D01*
Y22276D01*
X148189D01*
Y22397D01*
X150497D01*
Y22518D01*
X150375D01*
Y22640D01*
X150497D01*
Y22761D01*
X150375D01*
Y22883D01*
X150497D01*
Y23126D01*
X150375D01*
Y24098D01*
X154748D01*
Y19603D01*
D02*
G37*
G36*
X147217Y33573D02*
X147338D01*
Y27985D01*
Y27863D01*
Y19603D01*
X142723D01*
Y33694D01*
X147217D01*
Y33573D01*
D02*
G37*
G36*
X204796D02*
X204917D01*
Y33451D01*
X205039D01*
Y33330D01*
X205160D01*
Y33208D01*
X205282D01*
Y33087D01*
X205403D01*
Y32965D01*
X205524D01*
Y32844D01*
X205646D01*
Y32722D01*
X205767D01*
Y32601D01*
X205889D01*
Y32479D01*
X206010D01*
Y32358D01*
X206132D01*
Y32236D01*
X206253D01*
Y32115D01*
X206375D01*
Y31994D01*
X206496D01*
Y31872D01*
X206618D01*
Y31751D01*
X206739D01*
Y31629D01*
X206861D01*
Y31508D01*
X206982D01*
Y31386D01*
X207104D01*
Y31265D01*
X207225D01*
Y31143D01*
X207346D01*
Y31022D01*
X207468D01*
Y30900D01*
X207589D01*
Y22276D01*
X207468D01*
Y22154D01*
X207346D01*
Y22033D01*
X207225D01*
Y21911D01*
X207104D01*
Y21790D01*
X206982D01*
Y21668D01*
X206861D01*
Y21547D01*
X206739D01*
Y21425D01*
X206618D01*
Y21304D01*
X206496D01*
Y21182D01*
X206375D01*
Y21061D01*
X206253D01*
Y20939D01*
X206132D01*
Y20818D01*
X206010D01*
Y20696D01*
X205889D01*
Y20575D01*
X205767D01*
Y20454D01*
X205646D01*
Y20332D01*
X205524D01*
Y20210D01*
X205403D01*
Y20089D01*
X205282D01*
Y19968D01*
X205160D01*
Y19846D01*
X205039D01*
Y19725D01*
X204796D01*
Y19603D01*
X204674D01*
Y19482D01*
X201151D01*
Y19725D01*
X201030D01*
Y22276D01*
X201151D01*
Y22397D01*
X202852D01*
Y25434D01*
Y25555D01*
Y30779D01*
X201151D01*
Y30900D01*
X201030D01*
Y33573D01*
X201151D01*
Y33694D01*
X204796D01*
Y33573D01*
D02*
G37*
G36*
X200301Y30779D02*
X198600D01*
Y22397D01*
X200301D01*
Y19482D01*
X196778D01*
Y19603D01*
X196657D01*
Y19725D01*
X196535D01*
Y19846D01*
X196414D01*
Y19968D01*
X196292D01*
Y20089D01*
X196171D01*
Y20210D01*
X196049D01*
Y20332D01*
X195928D01*
Y20454D01*
X195807D01*
Y20575D01*
X195685D01*
Y20696D01*
X195564D01*
Y20818D01*
X195442D01*
Y20939D01*
X195321D01*
Y21061D01*
X195199D01*
Y21182D01*
X195078D01*
Y21304D01*
X194956D01*
Y21425D01*
X194713D01*
Y21668D01*
X194470D01*
Y21790D01*
X194349D01*
Y21911D01*
X194227D01*
Y22033D01*
X194106D01*
Y22154D01*
X193984D01*
Y22397D01*
X193863D01*
Y30900D01*
X193984D01*
Y31022D01*
X194106D01*
Y31143D01*
X194227D01*
Y31265D01*
X194349D01*
Y31386D01*
X194470D01*
Y31508D01*
X194592D01*
Y31629D01*
X194713D01*
Y31751D01*
X194835D01*
Y31872D01*
X194956D01*
Y31994D01*
X195078D01*
Y32115D01*
X195199D01*
Y32236D01*
X195321D01*
Y32358D01*
X195442D01*
Y32479D01*
X195564D01*
Y32601D01*
X195685D01*
Y32722D01*
X195807D01*
Y32844D01*
X195928D01*
Y32965D01*
X196049D01*
Y33087D01*
X196171D01*
Y33208D01*
X196292D01*
Y33330D01*
X196535D01*
Y33573D01*
X196778D01*
Y33694D01*
X200301D01*
Y30779D01*
D02*
G37*
G36*
X37296Y139962D02*
Y126738D01*
X7620D01*
Y139962D01*
X37296D01*
D02*
G37*
G36*
X365147D02*
Y126738D01*
X346710D01*
Y139962D01*
X365147D01*
D02*
G37*
%LPC*%
G36*
X216821Y81190D02*
X216700D01*
Y81069D01*
X216579D01*
Y80947D01*
X216457D01*
Y80826D01*
X216336D01*
Y80704D01*
X216214D01*
Y80583D01*
X216093D01*
Y80462D01*
X215971D01*
Y80340D01*
X215850D01*
Y80218D01*
X215728D01*
Y80097D01*
X215607D01*
Y79976D01*
X215485D01*
Y79854D01*
X215364D01*
Y79733D01*
X215242D01*
Y79611D01*
X215121D01*
Y79490D01*
X214999D01*
Y79368D01*
X214878D01*
Y79247D01*
X214756D01*
Y79125D01*
X214635D01*
Y79004D01*
X214513D01*
Y78882D01*
X214392D01*
Y78761D01*
X214270D01*
Y78639D01*
X214149D01*
Y78518D01*
X214028D01*
Y78396D01*
X213906D01*
Y78275D01*
X213785D01*
Y78154D01*
X213663D01*
Y78032D01*
X213542D01*
Y77910D01*
X213420D01*
Y77789D01*
X213299D01*
Y77668D01*
X213177D01*
Y77546D01*
X213056D01*
Y77425D01*
X212934D01*
Y77303D01*
X212813D01*
Y77182D01*
X212691D01*
Y77060D01*
X212570D01*
Y76939D01*
X212448D01*
Y76817D01*
X212327D01*
Y76696D01*
X212206D01*
Y76574D01*
X212084D01*
Y76453D01*
X211963D01*
Y76331D01*
X211841D01*
Y76210D01*
X211720D01*
Y76088D01*
X211598D01*
Y75967D01*
X211477D01*
Y75845D01*
X211355D01*
Y75724D01*
X211234D01*
Y75602D01*
X211112D01*
Y75481D01*
X210991D01*
Y75360D01*
X210869D01*
Y75238D01*
X210748D01*
Y75117D01*
X210626D01*
Y74995D01*
X210505D01*
Y74874D01*
X210383D01*
Y74752D01*
X210262D01*
Y74631D01*
X210140D01*
Y74509D01*
X210019D01*
Y74388D01*
X209897D01*
Y74266D01*
X209776D01*
Y74145D01*
X209655D01*
Y74023D01*
X209533D01*
Y73902D01*
X209412D01*
Y73780D01*
X209290D01*
Y73659D01*
X209169D01*
Y73538D01*
X209047D01*
Y73416D01*
X208926D01*
Y73295D01*
X208804D01*
Y73173D01*
X208683D01*
Y73052D01*
X208561D01*
Y72930D01*
X208440D01*
Y72809D01*
X208318D01*
Y72687D01*
X208197D01*
Y72566D01*
X208075D01*
Y72444D01*
X207954D01*
Y72323D01*
X207832D01*
Y72201D01*
X207711D01*
Y72080D01*
X207589D01*
Y71958D01*
X207468D01*
Y71837D01*
X207346D01*
Y71715D01*
X207225D01*
Y71594D01*
X207104D01*
Y71472D01*
X206982D01*
Y71351D01*
X206861D01*
Y71230D01*
X206739D01*
Y71108D01*
X206618D01*
Y70986D01*
X206496D01*
Y70865D01*
X206375D01*
Y70744D01*
X206253D01*
Y70622D01*
X206132D01*
Y70501D01*
X206010D01*
Y70379D01*
X205889D01*
Y70258D01*
X205767D01*
Y70136D01*
X205646D01*
Y70015D01*
X205524D01*
Y69893D01*
X205403D01*
Y69772D01*
X205282D01*
Y69650D01*
X205160D01*
Y69529D01*
X205039D01*
Y69407D01*
X204917D01*
Y69286D01*
X204796D01*
Y69164D01*
X204674D01*
Y69043D01*
X204553D01*
Y68921D01*
X204431D01*
Y68800D01*
X204310D01*
Y68678D01*
X204188D01*
Y68557D01*
X204067D01*
Y68436D01*
X203945D01*
Y68314D01*
X203824D01*
Y68193D01*
X203702D01*
Y68071D01*
X203581D01*
Y67950D01*
X203459D01*
Y67828D01*
X203338D01*
Y67707D01*
X203216D01*
Y67585D01*
X203095D01*
Y67464D01*
X202973D01*
Y67342D01*
X202852D01*
Y67221D01*
X202731D01*
Y67099D01*
X202609D01*
Y66978D01*
X202488D01*
Y66856D01*
X202366D01*
Y66735D01*
X202245D01*
Y66613D01*
X202123D01*
Y66492D01*
X202002D01*
Y66371D01*
X201880D01*
Y66249D01*
X201759D01*
Y66128D01*
X201637D01*
Y66006D01*
X201516D01*
Y65885D01*
X201394D01*
Y65763D01*
X201273D01*
Y65642D01*
X201151D01*
Y65520D01*
X201030D01*
Y65399D01*
X200908D01*
Y65277D01*
X200787D01*
Y65156D01*
X200665D01*
Y65034D01*
X200544D01*
Y64913D01*
X200422D01*
Y64791D01*
X200301D01*
Y64670D01*
X200180D01*
Y64548D01*
X200058D01*
Y64427D01*
X199937D01*
Y64306D01*
X199815D01*
Y64184D01*
X199694D01*
Y64062D01*
X199572D01*
Y63941D01*
X199451D01*
Y63820D01*
X199329D01*
Y63698D01*
X199208D01*
Y63577D01*
X199086D01*
Y63455D01*
X198965D01*
Y63334D01*
X198843D01*
Y63212D01*
X198722D01*
Y63091D01*
X198600D01*
Y62969D01*
X198479D01*
Y62848D01*
X198358D01*
Y62726D01*
X198236D01*
Y62605D01*
X198114D01*
Y62483D01*
X197993D01*
Y62362D01*
X197872D01*
Y62240D01*
X197750D01*
Y62119D01*
X197629D01*
Y61997D01*
X197507D01*
Y61876D01*
X197386D01*
Y61754D01*
X197264D01*
Y61633D01*
X197143D01*
Y61512D01*
X197021D01*
Y61390D01*
X196900D01*
Y61269D01*
X196778D01*
Y61147D01*
X196657D01*
Y61026D01*
X196535D01*
Y60904D01*
X196414D01*
Y60783D01*
X196292D01*
Y60661D01*
X196171D01*
Y60540D01*
X196049D01*
Y60418D01*
X195928D01*
Y60297D01*
X195807D01*
Y60175D01*
X195685D01*
Y60054D01*
X195564D01*
Y59932D01*
X195442D01*
Y59811D01*
X195321D01*
Y59689D01*
X195199D01*
Y59568D01*
X195078D01*
Y59447D01*
X194956D01*
Y59325D01*
X194835D01*
Y59204D01*
X194713D01*
Y59082D01*
X194592D01*
Y58961D01*
X194470D01*
Y58839D01*
X194349D01*
Y58718D01*
X194227D01*
Y58596D01*
X194106D01*
Y58475D01*
X193984D01*
Y58353D01*
X193863D01*
Y58232D01*
X193741D01*
Y58110D01*
X193620D01*
Y57989D01*
X193498D01*
Y57867D01*
X193377D01*
Y57746D01*
X193256D01*
Y57624D01*
X193134D01*
Y57503D01*
X193013D01*
Y57382D01*
X192891D01*
Y57260D01*
X192770D01*
Y57139D01*
X192648D01*
Y57017D01*
X192527D01*
Y56896D01*
X192405D01*
Y56774D01*
X192284D01*
Y56653D01*
X192162D01*
Y56531D01*
X192041D01*
Y56410D01*
X191919D01*
Y56288D01*
X191798D01*
Y56167D01*
X191676D01*
Y56045D01*
X191555D01*
Y55924D01*
X191433D01*
Y55802D01*
X191312D01*
Y55681D01*
X191190D01*
Y55559D01*
X191069D01*
Y55438D01*
X190947D01*
Y55316D01*
X190826D01*
Y55195D01*
X190705D01*
Y55073D01*
X190583D01*
Y54952D01*
X190462D01*
Y54830D01*
X190340D01*
Y54709D01*
X190219D01*
Y54588D01*
X190097D01*
Y54466D01*
X189976D01*
Y54345D01*
X189854D01*
Y54223D01*
X189733D01*
Y54102D01*
X189611D01*
Y53980D01*
X189490D01*
Y53859D01*
X189368D01*
Y53737D01*
X189247D01*
Y53616D01*
X189125D01*
Y53494D01*
X189004D01*
Y53373D01*
X188883D01*
Y53251D01*
X188761D01*
Y53130D01*
X188640D01*
Y53008D01*
X188518D01*
Y52887D01*
X188397D01*
Y52765D01*
X188275D01*
Y52644D01*
X188154D01*
Y52523D01*
X188032D01*
Y52401D01*
X187911D01*
Y52280D01*
X187789D01*
Y52158D01*
X187668D01*
Y52037D01*
X187546D01*
Y51915D01*
X187425D01*
Y51794D01*
X187303D01*
Y51672D01*
X187182D01*
Y51551D01*
X187060D01*
Y51429D01*
X186939D01*
Y51308D01*
X186817D01*
Y51186D01*
X186696D01*
Y51065D01*
X186574D01*
Y50943D01*
X186453D01*
Y50822D01*
X186332D01*
Y50700D01*
X186210D01*
Y50579D01*
X186089D01*
Y50458D01*
X185967D01*
Y50336D01*
X185846D01*
Y50215D01*
X185724D01*
Y50093D01*
X185603D01*
Y49972D01*
X185481D01*
Y49850D01*
X185360D01*
Y49729D01*
X185238D01*
Y49607D01*
X185117D01*
Y49486D01*
X184995D01*
Y49364D01*
X184874D01*
Y49243D01*
X184752D01*
Y49121D01*
X184631D01*
Y49000D01*
X184509D01*
Y48878D01*
X184388D01*
Y48757D01*
X184266D01*
Y48635D01*
X184145D01*
Y48514D01*
X184024D01*
Y48392D01*
X183902D01*
Y48271D01*
X183781D01*
Y48149D01*
X183659D01*
Y48028D01*
X183538D01*
Y47906D01*
X183416D01*
Y47785D01*
X183295D01*
Y47664D01*
X183173D01*
Y47542D01*
X183052D01*
Y47421D01*
X182930D01*
Y47299D01*
X182809D01*
Y47178D01*
X182687D01*
Y47056D01*
X182566D01*
Y46935D01*
X182444D01*
Y46813D01*
X182323D01*
Y46692D01*
X182201D01*
Y46570D01*
X182080D01*
Y46449D01*
X181959D01*
Y46327D01*
X181837D01*
Y46206D01*
X181716D01*
Y46084D01*
X181594D01*
Y45963D01*
X181473D01*
Y45720D01*
X181959D01*
Y45841D01*
X182080D01*
Y45720D01*
X216700D01*
Y45841D01*
X216821D01*
Y81190D01*
D02*
G37*
G36*
X34756Y137422D02*
X27619D01*
Y135290D01*
D01*
Y135468D01*
X34756D01*
Y137422D01*
D02*
G37*
G36*
X32683Y135290D02*
X29692D01*
Y129278D01*
X27619D01*
D01*
X32683D01*
Y135290D01*
D02*
G37*
G36*
X26923Y137422D02*
X19015D01*
Y130921D01*
X20674Y129278D01*
X22880D01*
Y131084D01*
X21918D01*
Y137422D01*
X24035D01*
Y131084D01*
X23058D01*
Y129278D01*
X22969D01*
X25264D01*
X26923Y130921D01*
Y137422D01*
D02*
G37*
G36*
X16439D02*
X14217D01*
Y135586D01*
X15224D01*
Y131114D01*
X14217D01*
Y129278D01*
X14040D01*
Y131114D01*
X13062D01*
Y135586D01*
X14040D01*
Y137422D01*
X11833D01*
X10160Y135779D01*
Y130921D01*
X11833Y129278D01*
X10160D01*
X18112D01*
X16439D01*
X18112Y130921D01*
Y135764D01*
X16439Y137422D01*
D02*
G37*
G36*
X358741D02*
X357735D01*
D01*
X358741D01*
D02*
G37*
G36*
X362607D02*
X360060D01*
Y133883D01*
X362607Y130018D01*
Y129278D01*
X357735Y137422D01*
X354759D01*
X359601Y129278D01*
X362607D01*
Y137422D01*
D02*
G37*
G36*
X354759Y136667D02*
Y129278D01*
X357306D01*
Y132817D01*
X354759Y136667D01*
D02*
G37*
G36*
X353722Y137422D02*
X349250D01*
Y135497D01*
X350035D01*
Y131203D01*
X349250D01*
Y129278D01*
X353722D01*
Y137422D01*
D02*
G37*
%LPD*%
G36*
Y131203D02*
X352922D01*
Y135497D01*
X353722D01*
Y131203D01*
D02*
G37*
D10*
X291898Y129487D02*
G03*
X291898Y129487I-1000J0D01*
G01*
X91238D02*
G03*
X91238Y129487I-1000J0D01*
G01*
D11*
X346120Y249461D02*
G03*
X304636Y273494I-27283J726D01*
G01*
X303076Y146199D02*
G03*
X345508Y168908I15139J22709D01*
G01*
X228668Y232407D02*
G03*
X228507Y186477I14666J-23017D01*
G01*
X146102Y249461D02*
G03*
X104617Y273494I-27283J726D01*
G01*
X103058Y146199D02*
G03*
X145489Y168908I15139J22709D01*
G01*
X28649Y232407D02*
G03*
X28489Y186477I14666J-23017D01*
G01*
X228668Y232407D02*
X304636Y273494D01*
X345508Y168908D02*
X346120Y249461D01*
X228507Y186477D02*
X303076Y146199D01*
X28649Y232407D02*
X104617Y273494D01*
X145489Y168908D02*
X146102Y249461D01*
X28489Y186477D02*
X103058Y146199D01*
X64839Y299715D02*
X59760D01*
X62299D01*
Y287019D01*
X59760Y284480D01*
X57221D01*
X54682Y287019D01*
X77534Y284480D02*
Y299715D01*
X69917Y292097D01*
X80074D01*
X82619Y38095D02*
X77540D01*
X80079D01*
Y25399D01*
X77540Y22860D01*
X75001D01*
X72462Y25399D01*
X87697Y35556D02*
X90236Y38095D01*
X95315D01*
X97854Y35556D01*
Y33017D01*
X95315Y30477D01*
X92775D01*
X95315D01*
X97854Y27938D01*
Y25399D01*
X95315Y22860D01*
X90236D01*
X87697Y25399D01*
X284549Y40635D02*
X279470D01*
X282010D01*
Y27939D01*
X279470Y25400D01*
X276931D01*
X274392Y27939D01*
X299784Y25400D02*
X289627D01*
X299784Y35557D01*
Y38096D01*
X297244Y40635D01*
X292166D01*
X289627Y38096D01*
X282008Y300985D02*
X276929D01*
X279469D01*
Y288289D01*
X276929Y285750D01*
X274390D01*
X271851Y288289D01*
X287086Y285750D02*
X292164D01*
X289625D01*
Y300985D01*
X287086Y298446D01*
D12*
X256898Y48088D02*
Y122087D01*
Y48088D02*
X314398D01*
Y122087D01*
X256898D02*
X314398D01*
X56238Y48088D02*
Y122087D01*
Y48088D02*
X113738D01*
Y122087D01*
X56238D02*
X113738D01*
X207215Y206738D02*
X206369Y205891D01*
Y204198D01*
X207215Y203352D01*
X210601D01*
X211447Y204198D01*
Y205891D01*
X210601Y206738D01*
X208908D01*
Y205045D01*
X211447Y208430D02*
X206369D01*
X211447Y211816D01*
X206369D01*
Y213509D02*
X211447D01*
Y216048D01*
X210601Y216894D01*
X207215D01*
X206369Y216048D01*
Y213509D01*
X356227Y234678D02*
Y231292D01*
X352841Y234678D01*
X351995D01*
X351149Y233831D01*
Y232138D01*
X351995Y231292D01*
X356227Y238909D02*
X351149D01*
X353688Y236370D01*
Y239756D01*
X351149Y241449D02*
X354534D01*
X356227Y243141D01*
X354534Y244834D01*
X351149D01*
X349879Y181338D02*
Y177952D01*
X352418D01*
X351571Y179645D01*
Y180491D01*
X352418Y181338D01*
X354111D01*
X354957Y180491D01*
Y178798D01*
X354111Y177952D01*
X349879Y183030D02*
X353264D01*
X354957Y184723D01*
X353264Y186416D01*
X349879D01*
X7196Y206738D02*
X6350Y205891D01*
Y204198D01*
X7196Y203352D01*
X10582D01*
X11428Y204198D01*
Y205891D01*
X10582Y206738D01*
X8889D01*
Y205045D01*
X11428Y208430D02*
X6350D01*
X11428Y211816D01*
X6350D01*
Y213509D02*
X11428D01*
Y216048D01*
X10582Y216894D01*
X7196D01*
X6350Y216048D01*
Y213509D01*
X156208Y234678D02*
Y231292D01*
X152823Y234678D01*
X151976D01*
X151130Y233831D01*
Y232138D01*
X151976Y231292D01*
X156208Y238909D02*
X151130D01*
X153669Y236370D01*
Y239756D01*
X151130Y241449D02*
X154515D01*
X156208Y243141D01*
X154515Y244834D01*
X151130D01*
X149860Y181338D02*
Y177952D01*
X152399D01*
X151553Y179645D01*
Y180491D01*
X152399Y181338D01*
X154092D01*
X154938Y180491D01*
Y178798D01*
X154092Y177952D01*
X149860Y183030D02*
X153246D01*
X154938Y184723D01*
X153246Y186416D01*
X149860D01*
M02*
