G04*
G04 #@! TF.GenerationSoftware,Altium Limited,Altium Designer,26.4.1 (12)*
G04*
G04 Layer_Color=16711935*
%FSLAX44Y44*%
%MOMM*%
G71*
G04*
G04 #@! TF.SameCoordinates,C07A7799-293D-43D9-A71F-7622AD06B6F1*
G04*
G04*
G04 #@! TF.FilePolarity,Negative*
G04*
G01*
G75*
%ADD49R,1.3541X1.4550*%
%ADD54R,1.7000X1.6500*%
%ADD56R,1.6500X1.7000*%
%ADD65R,1.6000X1.7000*%
%ADD76C,1.7500*%
%ADD77C,1.8000*%
%ADD78C,1.5700*%
%ADD79C,1.7500*%
G04:AMPARAMS|DCode=80|XSize=1mm|YSize=1.8mm|CornerRadius=0.5mm|HoleSize=0mm|Usage=FLASHONLY|Rotation=270.000|XOffset=0mm|YOffset=0mm|HoleType=Round|Shape=RoundedRectangle|*
%AMROUNDEDRECTD80*
21,1,1.0000,0.8000,0,0,270.0*
21,1,0.0000,1.8000,0,0,270.0*
1,1,1.0000,-0.4000,0.0000*
1,1,1.0000,-0.4000,0.0000*
1,1,1.0000,0.4000,0.0000*
1,1,1.0000,0.4000,0.0000*
%
%ADD80ROUNDEDRECTD80*%
G04:AMPARAMS|DCode=81|XSize=1mm|YSize=2.2mm|CornerRadius=0.5mm|HoleSize=0mm|Usage=FLASHONLY|Rotation=270.000|XOffset=0mm|YOffset=0mm|HoleType=Round|Shape=RoundedRectangle|*
%AMROUNDEDRECTD81*
21,1,1.0000,1.2000,0,0,270.0*
21,1,0.0000,2.2000,0,0,270.0*
1,1,1.0000,-0.6000,0.0000*
1,1,1.0000,-0.6000,0.0000*
1,1,1.0000,0.6000,0.0000*
1,1,1.0000,0.6000,0.0000*
%
%ADD81ROUNDEDRECTD81*%
%ADD82C,6.1500*%
%ADD83C,1.5500*%
%ADD84C,5.6500*%
%ADD85R,1.5500X1.5500*%
%ADD86R,1.5500X1.5500*%
G04:AMPARAMS|DCode=87|XSize=1.75mm|YSize=1.75mm|CornerRadius=0.475mm|HoleSize=0mm|Usage=FLASHONLY|Rotation=270.000|XOffset=0mm|YOffset=0mm|HoleType=Round|Shape=RoundedRectangle|*
%AMROUNDEDRECTD87*
21,1,1.7500,0.8000,0,0,270.0*
21,1,0.8000,1.7500,0,0,270.0*
1,1,0.9500,-0.4000,-0.4000*
1,1,0.9500,-0.4000,0.4000*
1,1,0.9500,0.4000,0.4000*
1,1,0.9500,0.4000,-0.4000*
%
%ADD87ROUNDEDRECTD87*%
%ADD88R,1.8000X1.8000*%
G04:AMPARAMS|DCode=89|XSize=1.75mm|YSize=1.75mm|CornerRadius=0.475mm|HoleSize=0mm|Usage=FLASHONLY|Rotation=180.000|XOffset=0mm|YOffset=0mm|HoleType=Round|Shape=RoundedRectangle|*
%AMROUNDEDRECTD89*
21,1,1.7500,0.8000,0,0,180.0*
21,1,0.8000,1.7500,0,0,180.0*
1,1,0.9500,-0.4000,0.4000*
1,1,0.9500,0.4000,0.4000*
1,1,0.9500,0.4000,-0.4000*
1,1,0.9500,-0.4000,-0.4000*
%
%ADD89ROUNDEDRECTD89*%
%ADD90R,1.5700X1.5700*%
%ADD91R,6.1500X6.1500*%
D49*
X748922Y90678D02*
D03*
X732914D02*
D03*
D54*
X770890Y230230D02*
D03*
X610870Y148230D02*
D03*
X619252Y267102D02*
D03*
X770890Y211730D02*
D03*
Y195690D02*
D03*
X619252Y285602D02*
D03*
X610870Y184040D02*
D03*
Y166730D02*
D03*
Y202040D02*
D03*
X770890Y177690D02*
D03*
D56*
X706010Y177800D02*
D03*
X705760Y158750D02*
D03*
X638700Y313690D02*
D03*
X601366Y246888D02*
D03*
X724260Y158750D02*
D03*
X724010Y177800D02*
D03*
X619866Y246888D02*
D03*
X656700Y313690D02*
D03*
D65*
X761090Y157480D02*
D03*
X630830D02*
D03*
X742590D02*
D03*
X649330D02*
D03*
D76*
X448496Y172481D02*
D03*
Y142481D02*
D03*
X503496Y172481D02*
D03*
Y142481D02*
D03*
X428483Y269426D02*
D03*
X458483D02*
D03*
X428483Y324426D02*
D03*
X458483D02*
D03*
D77*
X911098Y488696D02*
D03*
Y463296D02*
D03*
X885698Y488696D02*
D03*
Y463296D02*
D03*
X936498Y488696D02*
D03*
Y463296D02*
D03*
X860298Y488696D02*
D03*
Y463296D02*
D03*
X834898Y488696D02*
D03*
D78*
X308610Y445770D02*
D03*
D79*
X944880Y687324D02*
D03*
X864870Y341630D02*
D03*
X944880Y763524D02*
D03*
Y738124D02*
D03*
Y712724D02*
D03*
X139700Y429260D02*
D03*
Y454660D02*
D03*
X864870Y316230D02*
D03*
X374142Y769620D02*
D03*
X399542D02*
D03*
X450342D02*
D03*
X424942D02*
D03*
D80*
X54500Y713890D02*
D03*
Y627490D02*
D03*
Y590570D02*
D03*
Y504170D02*
D03*
D81*
X14500Y713890D02*
D03*
Y590570D02*
D03*
Y627490D02*
D03*
Y504170D02*
D03*
D82*
X50800Y377630D02*
D03*
D83*
X48430Y171650D02*
D03*
X685800Y558292D02*
D03*
X532722Y572062D02*
D03*
D84*
X38354Y775462D02*
D03*
X48260Y53340D02*
D03*
X1005840D02*
D03*
Y764290D02*
D03*
D85*
X660800Y558292D02*
D03*
D86*
X532722Y547062D02*
D03*
X48430Y196650D02*
D03*
D87*
X944880Y788924D02*
D03*
X139700Y403860D02*
D03*
X864870Y290830D02*
D03*
D88*
X834898Y463296D02*
D03*
D89*
X475742Y769620D02*
D03*
D90*
X308610Y471170D02*
D03*
D91*
X50800Y305630D02*
D03*
M02*
