G04*
G04 #@! TF.GenerationSoftware,Altium Limited,Altium Designer,26.4.1 (12)*
G04*
G04 Layer_Color=8388736*
%FSLAX44Y44*%
%MOMM*%
G71*
G04*
G04 #@! TF.SameCoordinates,C07A7799-293D-43D9-A71F-7622AD06B6F1*
G04*
G04*
G04 #@! TF.FilePolarity,Negative*
G04*
G01*
G75*
%ADD19R,0.2794X1.7780*%
%ADD20R,1.7780X0.2794*%
%ADD27R,1.0065X1.4082*%
%ADD33R,1.1000X1.2500*%
%ADD40R,1.3621X1.0081*%
%ADD41R,1.1500X0.6000*%
%ADD44R,1.1500X0.3000*%
%ADD48R,1.0081X1.3621*%
%ADD49R,1.3541X1.4550*%
%ADD51R,1.1546X1.3621*%
%ADD52R,1.5700X1.1500*%
%ADD53O,0.7800X2.0150*%
%ADD54R,1.7000X1.6500*%
%ADD55R,1.6500X1.4000*%
%ADD56R,1.6500X1.7000*%
%ADD57R,1.7000X1.6000*%
%ADD58R,1.4000X1.6500*%
%ADD59R,1.4350X1.6200*%
%ADD60R,0.8000X1.8000*%
%ADD61R,1.6500X1.0500*%
%ADD62R,1.3500X0.7500*%
%ADD63R,1.0500X1.0500*%
%ADD64R,1.3500X1.3500*%
%ADD65R,1.6000X1.7000*%
G04:AMPARAMS|DCode=66|XSize=1.15mm|YSize=1mm|CornerRadius=0mm|HoleSize=0mm|Usage=FLASHONLY|Rotation=55.000|XOffset=0mm|YOffset=0mm|HoleType=Round|Shape=Rectangle|*
%AMROTATEDRECTD66*
4,1,4,0.0798,-0.7578,-0.7394,-0.1842,-0.0798,0.7578,0.7394,0.1842,0.0798,-0.7578,0.0*
%
%ADD66ROTATEDRECTD66*%

%ADD67R,0.9500X1.0500*%
G04:AMPARAMS|DCode=68|XSize=1.05mm|YSize=1.6mm|CornerRadius=0.1245mm|HoleSize=0mm|Usage=FLASHONLY|Rotation=270.000|XOffset=0mm|YOffset=0mm|HoleType=Round|Shape=RoundedRectangle|*
%AMROUNDEDRECTD68*
21,1,1.0500,1.3510,0,0,270.0*
21,1,0.8010,1.6000,0,0,270.0*
1,1,0.2490,-0.6755,-0.4005*
1,1,0.2490,-0.6755,0.4005*
1,1,0.2490,0.6755,0.4005*
1,1,0.2490,0.6755,-0.4005*
%
%ADD68ROUNDEDRECTD68*%
G04:AMPARAMS|DCode=69|XSize=3.3mm|YSize=1.6mm|CornerRadius=0.1258mm|HoleSize=0mm|Usage=FLASHONLY|Rotation=270.000|XOffset=0mm|YOffset=0mm|HoleType=Round|Shape=RoundedRectangle|*
%AMROUNDEDRECTD69*
21,1,3.3000,1.3485,0,0,270.0*
21,1,3.0485,1.6000,0,0,270.0*
1,1,0.2515,-0.6743,-1.5243*
1,1,0.2515,-0.6743,1.5243*
1,1,0.2515,0.6743,1.5243*
1,1,0.2515,0.6743,-1.5243*
%
%ADD69ROUNDEDRECTD69*%
G04:AMPARAMS|DCode=70|XSize=1.15mm|YSize=1mm|CornerRadius=0mm|HoleSize=0mm|Usage=FLASHONLY|Rotation=145.000|XOffset=0mm|YOffset=0mm|HoleType=Round|Shape=Rectangle|*
%AMROTATEDRECTD70*
4,1,4,0.7578,0.0798,0.1842,-0.7394,-0.7578,-0.0798,-0.1842,0.7394,0.7578,0.0798,0.0*
%
%ADD70ROTATEDRECTD70*%

%ADD71R,1.0000X1.1500*%
%ADD72R,1.0500X1.6500*%
%ADD73R,1.2800X1.3600*%
G04:AMPARAMS|DCode=74|XSize=1.55mm|YSize=1.3mm|CornerRadius=0mm|HoleSize=0mm|Usage=FLASHONLY|Rotation=325.000|XOffset=0mm|YOffset=0mm|HoleType=Round|Shape=Rectangle|*
%AMROTATEDRECTD74*
4,1,4,-1.0077,-0.0879,-0.2620,0.9770,1.0077,0.0879,0.2620,-0.9770,-1.0077,-0.0879,0.0*
%
%ADD74ROTATEDRECTD74*%

%ADD75R,1.1500X1.9500*%
%ADD76C,1.7500*%
%ADD77C,1.8000*%
%ADD78C,1.5700*%
%ADD79C,1.7500*%
G04:AMPARAMS|DCode=80|XSize=1mm|YSize=1.8mm|CornerRadius=0.5mm|HoleSize=0mm|Usage=FLASHONLY|Rotation=270.000|XOffset=0mm|YOffset=0mm|HoleType=Round|Shape=RoundedRectangle|*
%AMROUNDEDRECTD80*
21,1,1.0000,0.8000,0,0,270.0*
21,1,0.0000,1.8000,0,0,270.0*
1,1,1.0000,-0.4000,0.0000*
1,1,1.0000,-0.4000,0.0000*
1,1,1.0000,0.4000,0.0000*
1,1,1.0000,0.4000,0.0000*
%
%ADD80ROUNDEDRECTD80*%
G04:AMPARAMS|DCode=81|XSize=1mm|YSize=2.2mm|CornerRadius=0.5mm|HoleSize=0mm|Usage=FLASHONLY|Rotation=270.000|XOffset=0mm|YOffset=0mm|HoleType=Round|Shape=RoundedRectangle|*
%AMROUNDEDRECTD81*
21,1,1.0000,1.2000,0,0,270.0*
21,1,0.0000,2.2000,0,0,270.0*
1,1,1.0000,-0.6000,0.0000*
1,1,1.0000,-0.6000,0.0000*
1,1,1.0000,0.6000,0.0000*
1,1,1.0000,0.6000,0.0000*
%
%ADD81ROUNDEDRECTD81*%
%ADD82C,6.1500*%
%ADD83C,1.5500*%
%ADD84C,5.6500*%
%ADD85R,1.5500X1.5500*%
%ADD86R,1.5500X1.5500*%
G04:AMPARAMS|DCode=87|XSize=1.75mm|YSize=1.75mm|CornerRadius=0.475mm|HoleSize=0mm|Usage=FLASHONLY|Rotation=270.000|XOffset=0mm|YOffset=0mm|HoleType=Round|Shape=RoundedRectangle|*
%AMROUNDEDRECTD87*
21,1,1.7500,0.8000,0,0,270.0*
21,1,0.8000,1.7500,0,0,270.0*
1,1,0.9500,-0.4000,-0.4000*
1,1,0.9500,-0.4000,0.4000*
1,1,0.9500,0.4000,0.4000*
1,1,0.9500,0.4000,-0.4000*
%
%ADD87ROUNDEDRECTD87*%
%ADD88R,1.8000X1.8000*%
G04:AMPARAMS|DCode=89|XSize=1.75mm|YSize=1.75mm|CornerRadius=0.475mm|HoleSize=0mm|Usage=FLASHONLY|Rotation=180.000|XOffset=0mm|YOffset=0mm|HoleType=Round|Shape=RoundedRectangle|*
%AMROUNDEDRECTD89*
21,1,1.7500,0.8000,0,0,180.0*
21,1,0.8000,1.7500,0,0,180.0*
1,1,0.9500,-0.4000,0.4000*
1,1,0.9500,0.4000,0.4000*
1,1,0.9500,0.4000,-0.4000*
1,1,0.9500,-0.4000,-0.4000*
%
%ADD89ROUNDEDRECTD89*%
%ADD90R,1.5700X1.5700*%
%ADD91R,6.1500X6.1500*%
D19*
X643380Y343916D02*
D03*
X603380D02*
D03*
X703380D02*
D03*
X738380D02*
D03*
X753380Y128524D02*
D03*
X683380D02*
D03*
X613380D02*
D03*
X633380D02*
D03*
X743380Y343916D02*
D03*
X698380D02*
D03*
X748380Y128524D02*
D03*
X713380D02*
D03*
X708380D02*
D03*
X678380D02*
D03*
X648380Y343916D02*
D03*
X608380D02*
D03*
X638380Y128524D02*
D03*
X668380D02*
D03*
X638380Y343916D02*
D03*
X663380D02*
D03*
X658380D02*
D03*
X653380D02*
D03*
X623380D02*
D03*
X633380D02*
D03*
X628380D02*
D03*
X618380D02*
D03*
X613380D02*
D03*
X668380D02*
D03*
X673380D02*
D03*
X718380D02*
D03*
X748380D02*
D03*
X733380D02*
D03*
X728380D02*
D03*
X723380D02*
D03*
X713380D02*
D03*
X678380D02*
D03*
X708380D02*
D03*
X693380D02*
D03*
X688380D02*
D03*
X683380D02*
D03*
X758380D02*
D03*
X763380D02*
D03*
X733380Y128524D02*
D03*
X698380D02*
D03*
X703380D02*
D03*
X718380D02*
D03*
X723380D02*
D03*
X728380D02*
D03*
X738380D02*
D03*
X688380D02*
D03*
X743380D02*
D03*
X758380D02*
D03*
X763380D02*
D03*
X768380D02*
D03*
X773380D02*
D03*
X693380D02*
D03*
X603380D02*
D03*
X608380D02*
D03*
X618380D02*
D03*
X623380D02*
D03*
X628380D02*
D03*
X643380D02*
D03*
X768380Y343916D02*
D03*
X648380Y128524D02*
D03*
X653380D02*
D03*
X658380D02*
D03*
X663380D02*
D03*
X673380D02*
D03*
X778380D02*
D03*
X753380Y343916D02*
D03*
X773380D02*
D03*
X778380D02*
D03*
D20*
X583184Y173720D02*
D03*
Y203720D02*
D03*
Y253720D02*
D03*
Y288720D02*
D03*
Y293720D02*
D03*
X798576Y248720D02*
D03*
Y278720D02*
D03*
Y308720D02*
D03*
Y168720D02*
D03*
Y188720D02*
D03*
Y218720D02*
D03*
Y313720D02*
D03*
Y273720D02*
D03*
Y243720D02*
D03*
Y213720D02*
D03*
Y193720D02*
D03*
Y173720D02*
D03*
X583184Y283720D02*
D03*
Y208720D02*
D03*
Y178720D02*
D03*
Y248720D02*
D03*
Y278720D02*
D03*
Y273720D02*
D03*
Y318720D02*
D03*
Y323720D02*
D03*
Y313720D02*
D03*
Y213720D02*
D03*
Y148720D02*
D03*
Y153720D02*
D03*
Y158720D02*
D03*
Y163720D02*
D03*
Y168720D02*
D03*
Y183720D02*
D03*
Y188720D02*
D03*
Y193720D02*
D03*
Y198720D02*
D03*
Y218720D02*
D03*
Y308720D02*
D03*
Y228720D02*
D03*
Y233720D02*
D03*
Y238720D02*
D03*
Y243720D02*
D03*
Y258720D02*
D03*
Y263720D02*
D03*
Y268720D02*
D03*
Y298720D02*
D03*
Y303720D02*
D03*
Y223720D02*
D03*
X798576Y148720D02*
D03*
Y153720D02*
D03*
Y258720D02*
D03*
Y263720D02*
D03*
Y268720D02*
D03*
Y283720D02*
D03*
Y323720D02*
D03*
Y318720D02*
D03*
Y303720D02*
D03*
Y293720D02*
D03*
Y158720D02*
D03*
Y253720D02*
D03*
Y298720D02*
D03*
Y163720D02*
D03*
Y238720D02*
D03*
Y178720D02*
D03*
Y183720D02*
D03*
Y288720D02*
D03*
Y198720D02*
D03*
Y208720D02*
D03*
Y223720D02*
D03*
Y203720D02*
D03*
Y233720D02*
D03*
Y228720D02*
D03*
D27*
X896255Y163322D02*
D03*
X915273D02*
D03*
D33*
X943102Y118430D02*
D03*
Y94930D02*
D03*
D40*
X102870Y659130D02*
D03*
Y644150D02*
D03*
X95758Y576580D02*
D03*
X95504Y522862D02*
D03*
Y504822D02*
D03*
X95758Y558540D02*
D03*
X102870Y626110D02*
D03*
Y677170D02*
D03*
D41*
X60250Y702690D02*
D03*
Y638690D02*
D03*
Y579370D02*
D03*
Y515370D02*
D03*
Y523370D02*
D03*
Y571370D02*
D03*
Y646690D02*
D03*
Y694690D02*
D03*
D44*
Y554870D02*
D03*
Y544870D02*
D03*
Y539870D02*
D03*
Y549870D02*
D03*
Y673190D02*
D03*
Y663190D02*
D03*
Y678190D02*
D03*
Y668190D02*
D03*
Y534870D02*
D03*
Y529870D02*
D03*
Y559870D02*
D03*
Y564870D02*
D03*
Y653190D02*
D03*
Y658190D02*
D03*
Y688190D02*
D03*
Y683190D02*
D03*
D48*
X748662Y409956D02*
D03*
X766702D02*
D03*
X707514Y416814D02*
D03*
X725554D02*
D03*
D49*
X761114Y96520D02*
D03*
X745106D02*
D03*
D51*
X598302Y495300D02*
D03*
X615818D02*
D03*
D52*
X914146Y45164D02*
D03*
Y26464D02*
D03*
X917194Y78788D02*
D03*
Y97488D02*
D03*
D53*
X626395Y452865D02*
D03*
X613694Y399215D02*
D03*
X588294Y452865D02*
D03*
X600994Y399215D02*
D03*
Y452865D02*
D03*
X613694D02*
D03*
X626395Y399215D02*
D03*
X588294D02*
D03*
D54*
X560324Y204872D02*
D03*
X553974Y161946D02*
D03*
X822960Y291190D02*
D03*
X830580Y185060D02*
D03*
X829310Y149500D02*
D03*
X558038Y308970D02*
D03*
X589280Y347980D02*
D03*
X647700Y470260D02*
D03*
X568960Y378100D02*
D03*
X378460Y427990D02*
D03*
X345440Y429260D02*
D03*
X820420Y306980D02*
D03*
Y325480D02*
D03*
X666242Y716576D02*
D03*
X822960Y272690D02*
D03*
X830580Y203560D02*
D03*
X829310Y168000D02*
D03*
X647700Y451760D02*
D03*
X589280Y365980D02*
D03*
X378460Y409990D02*
D03*
X345440Y411260D02*
D03*
X568960Y396600D02*
D03*
X180340Y699990D02*
D03*
X558038Y290470D02*
D03*
X560324Y223372D02*
D03*
X553974Y180446D02*
D03*
X482092Y90530D02*
D03*
X180340Y681990D02*
D03*
X482092Y72030D02*
D03*
X666242Y735076D02*
D03*
D55*
Y782406D02*
D03*
X425366Y232580D02*
D03*
X666242Y761406D02*
D03*
X425366Y211580D02*
D03*
D56*
X716640Y367030D02*
D03*
X736240Y368300D02*
D03*
X901594Y287782D02*
D03*
X644542Y600456D02*
D03*
X644292Y627126D02*
D03*
X638450Y367030D02*
D03*
X920094Y287782D02*
D03*
X791320Y365760D02*
D03*
X664062Y693166D02*
D03*
X754740Y368300D02*
D03*
X698140Y367030D02*
D03*
X662792Y627126D02*
D03*
X662542Y600456D02*
D03*
X825860Y80010D02*
D03*
X656950Y367030D02*
D03*
X293480Y391160D02*
D03*
X121560Y706120D02*
D03*
X165460Y518160D02*
D03*
X140060Y706120D02*
D03*
X275480Y391160D02*
D03*
X146960Y518160D02*
D03*
X645562Y693166D02*
D03*
X807360Y80010D02*
D03*
X773320Y365760D02*
D03*
D57*
X820420Y254360D02*
D03*
Y235860D02*
D03*
D58*
X538820Y93980D02*
D03*
X617642Y662686D02*
D03*
X517820Y93980D02*
D03*
X638642Y662686D02*
D03*
D59*
X815100Y107950D02*
D03*
X795640D02*
D03*
D60*
X899414Y265870D02*
D03*
X937514Y193870D02*
D03*
X899414D02*
D03*
X924814Y265870D02*
D03*
X937514D02*
D03*
X912114D02*
D03*
X924814Y193870D02*
D03*
X912114D02*
D03*
D61*
X712730Y784352D02*
D03*
X887730Y797052D02*
D03*
X712730D02*
D03*
X887730Y784352D02*
D03*
Y771652D02*
D03*
Y758952D02*
D03*
Y746252D02*
D03*
Y733552D02*
D03*
Y720852D02*
D03*
Y708152D02*
D03*
Y695452D02*
D03*
Y682752D02*
D03*
Y670052D02*
D03*
Y657352D02*
D03*
Y644652D02*
D03*
Y631952D02*
D03*
X712730D02*
D03*
Y644652D02*
D03*
Y657352D02*
D03*
Y670052D02*
D03*
Y682752D02*
D03*
Y695452D02*
D03*
Y708152D02*
D03*
Y720852D02*
D03*
Y733552D02*
D03*
Y746252D02*
D03*
Y758952D02*
D03*
Y771652D02*
D03*
D62*
X271634Y539090D02*
D03*
Y548590D02*
D03*
Y529590D02*
D03*
X246634Y539090D02*
D03*
Y529590D02*
D03*
Y548590D02*
D03*
X249374Y669544D02*
D03*
X274374Y660044D02*
D03*
Y679044D02*
D03*
X249374D02*
D03*
Y660044D02*
D03*
X274374Y669544D02*
D03*
D63*
X799230Y733852D02*
D03*
X785230Y719852D02*
D03*
Y733852D02*
D03*
X799230Y705852D02*
D03*
Y719852D02*
D03*
X785230Y705852D02*
D03*
X771230Y733852D02*
D03*
Y705852D02*
D03*
Y719852D02*
D03*
D64*
X873760Y116332D02*
D03*
Y95332D02*
D03*
D65*
X810620Y48260D02*
D03*
X792120D02*
D03*
D66*
X698187Y98490D02*
D03*
X687129Y106234D02*
D03*
D67*
X607060Y545940D02*
D03*
X597560Y525940D02*
D03*
X616560D02*
D03*
D68*
X260620Y452120D02*
D03*
Y475120D02*
D03*
Y429120D02*
D03*
D69*
X199120Y452120D02*
D03*
D70*
X650940Y94293D02*
D03*
X658684Y105351D02*
D03*
D71*
X627526Y101600D02*
D03*
X590150Y101854D02*
D03*
X614026Y101600D02*
D03*
X603650Y101854D02*
D03*
D72*
X870080Y619452D02*
D03*
X857380D02*
D03*
X844680D02*
D03*
X831980D02*
D03*
X819280D02*
D03*
X806580D02*
D03*
X793880D02*
D03*
X781180D02*
D03*
X768480D02*
D03*
X755780D02*
D03*
X743080D02*
D03*
X730380D02*
D03*
D73*
X149606Y651004D02*
D03*
X147320Y580900D02*
D03*
Y549400D02*
D03*
X149606Y619504D02*
D03*
D74*
X691507Y85851D02*
D03*
X664309Y85363D02*
D03*
X673486Y98470D02*
D03*
X682330Y72744D02*
D03*
D75*
X596846Y85598D02*
D03*
X621846D02*
D03*
D76*
X448496Y172481D02*
D03*
Y142481D02*
D03*
X503496Y172481D02*
D03*
Y142481D02*
D03*
X428483Y269426D02*
D03*
X458483D02*
D03*
X428483Y324426D02*
D03*
X458483D02*
D03*
D77*
X911098Y488696D02*
D03*
Y463296D02*
D03*
X885698Y488696D02*
D03*
Y463296D02*
D03*
X936498Y488696D02*
D03*
Y463296D02*
D03*
X860298Y488696D02*
D03*
Y463296D02*
D03*
X834898Y488696D02*
D03*
D78*
X308610Y445770D02*
D03*
D79*
X944880Y687324D02*
D03*
X864870Y341630D02*
D03*
X944880Y763524D02*
D03*
Y738124D02*
D03*
Y712724D02*
D03*
X139700Y429260D02*
D03*
Y454660D02*
D03*
X864870Y316230D02*
D03*
X374142Y769620D02*
D03*
X399542D02*
D03*
X450342D02*
D03*
X424942D02*
D03*
D80*
X54500Y713890D02*
D03*
Y627490D02*
D03*
Y590570D02*
D03*
Y504170D02*
D03*
D81*
X14500Y713890D02*
D03*
Y590570D02*
D03*
Y627490D02*
D03*
Y504170D02*
D03*
D82*
X50800Y377630D02*
D03*
D83*
X48430Y171650D02*
D03*
X685800Y558292D02*
D03*
X532722Y572062D02*
D03*
D84*
X38354Y775462D02*
D03*
X48260Y53340D02*
D03*
X1005840D02*
D03*
Y764290D02*
D03*
D85*
X660800Y558292D02*
D03*
D86*
X532722Y547062D02*
D03*
X48430Y196650D02*
D03*
D87*
X944880Y788924D02*
D03*
X139700Y403860D02*
D03*
X864870Y290830D02*
D03*
D88*
X834898Y463296D02*
D03*
D89*
X475742Y769620D02*
D03*
D90*
X308610Y471170D02*
D03*
D91*
X50800Y305630D02*
D03*
M02*
