G04*
G04 #@! TF.GenerationSoftware,Altium Limited,Altium Designer,26.4.1 (12)*
G04*
G04 Layer_Color=8421504*
%FSLAX44Y44*%
%MOMM*%
G71*
G04*
G04 #@! TF.SameCoordinates,C07A7799-293D-43D9-A71F-7622AD06B6F1*
G04*
G04*
G04 #@! TF.FilePolarity,Positive*
G04*
G01*
G75*
%ADD18R,1.4200X1.0000*%
%ADD19R,0.2794X1.7780*%
%ADD20R,1.7780X0.2794*%
%ADD21O,0.6300X1.8650*%
%ADD22R,1.5500X1.5000*%
%ADD23R,1.5000X1.2500*%
%ADD24R,1.5000X1.5500*%
%ADD25R,1.5500X1.4500*%
%ADD26R,1.2500X1.5000*%
%ADD27R,1.0065X1.4082*%
%ADD28R,1.2850X1.4700*%
%ADD29R,0.6500X1.6500*%
%ADD30R,1.5000X0.9000*%
%ADD31R,1.2000X0.6000*%
%ADD32R,0.9000X0.9000*%
%ADD33R,1.1000X1.2500*%
%ADD34R,1.2000X1.2000*%
%ADD35R,1.4500X1.5500*%
G04:AMPARAMS|DCode=36|XSize=1mm|YSize=0.85mm|CornerRadius=0mm|HoleSize=0mm|Usage=FLASHONLY|Rotation=55.000|XOffset=0mm|YOffset=0mm|HoleType=Round|Shape=Rectangle|*
%AMROTATEDRECTD36*
4,1,4,0.0614,-0.6534,-0.6349,-0.1658,-0.0614,0.6534,0.6349,0.1658,0.0614,-0.6534,0.0*
%
%ADD36ROTATEDRECTD36*%

%ADD37R,0.8000X0.9000*%
G04:AMPARAMS|DCode=38|XSize=0.9mm|YSize=1.45mm|CornerRadius=0.0495mm|HoleSize=0mm|Usage=FLASHONLY|Rotation=270.000|XOffset=0mm|YOffset=0mm|HoleType=Round|Shape=RoundedRectangle|*
%AMROUNDEDRECTD38*
21,1,0.9000,1.3510,0,0,270.0*
21,1,0.8010,1.4500,0,0,270.0*
1,1,0.0990,-0.6755,-0.4005*
1,1,0.0990,-0.6755,0.4005*
1,1,0.0990,0.6755,0.4005*
1,1,0.0990,0.6755,-0.4005*
%
%ADD38ROUNDEDRECTD38*%
G04:AMPARAMS|DCode=39|XSize=3.15mm|YSize=1.45mm|CornerRadius=0.0508mm|HoleSize=0mm|Usage=FLASHONLY|Rotation=270.000|XOffset=0mm|YOffset=0mm|HoleType=Round|Shape=RoundedRectangle|*
%AMROUNDEDRECTD39*
21,1,3.1500,1.3485,0,0,270.0*
21,1,3.0485,1.4500,0,0,270.0*
1,1,0.1015,-0.6743,-1.5243*
1,1,0.1015,-0.6743,1.5243*
1,1,0.1015,0.6743,1.5243*
1,1,0.1015,0.6743,-1.5243*
%
%ADD39ROUNDEDRECTD39*%
%ADD40R,1.3621X1.0081*%
%ADD41R,1.1500X0.6000*%
G04:AMPARAMS|DCode=42|XSize=1mm|YSize=0.85mm|CornerRadius=0mm|HoleSize=0mm|Usage=FLASHONLY|Rotation=145.000|XOffset=0mm|YOffset=0mm|HoleType=Round|Shape=Rectangle|*
%AMROTATEDRECTD42*
4,1,4,0.6534,0.0614,0.1658,-0.6349,-0.6534,-0.0614,-0.1658,0.6349,0.6534,0.0614,0.0*
%
%ADD42ROTATEDRECTD42*%

%ADD43R,0.8500X1.0000*%
%ADD44R,1.1500X0.3000*%
%ADD45R,0.9000X1.5000*%
%ADD46R,1.1300X1.2100*%
G04:AMPARAMS|DCode=47|XSize=1.4mm|YSize=1.15mm|CornerRadius=0mm|HoleSize=0mm|Usage=FLASHONLY|Rotation=325.000|XOffset=0mm|YOffset=0mm|HoleType=Round|Shape=Rectangle|*
%AMROTATEDRECTD47*
4,1,4,-0.9032,-0.0695,-0.2436,0.8725,0.9032,0.0695,0.2436,-0.8725,-0.9032,-0.0695,0.0*
%
%ADD47ROTATEDRECTD47*%

%ADD48R,1.0081X1.3621*%
%ADD49R,1.3541X1.4550*%
%ADD50R,1.0000X1.8000*%
%ADD51R,1.1546X1.3621*%
D18*
X914146Y45164D02*
D03*
Y26464D02*
D03*
X917194Y78788D02*
D03*
Y97488D02*
D03*
D19*
X643380Y343916D02*
D03*
X603380D02*
D03*
X703380D02*
D03*
X738380D02*
D03*
X753380Y128524D02*
D03*
X683380D02*
D03*
X613380D02*
D03*
X633380D02*
D03*
X743380Y343916D02*
D03*
X698380D02*
D03*
X748380Y128524D02*
D03*
X713380D02*
D03*
X708380D02*
D03*
X678380D02*
D03*
X648380Y343916D02*
D03*
X608380D02*
D03*
X638380Y128524D02*
D03*
X668380D02*
D03*
X638380Y343916D02*
D03*
X663380D02*
D03*
X658380D02*
D03*
X653380D02*
D03*
X623380D02*
D03*
X633380D02*
D03*
X628380D02*
D03*
X618380D02*
D03*
X613380D02*
D03*
X668380D02*
D03*
X673380D02*
D03*
X718380D02*
D03*
X748380D02*
D03*
X733380D02*
D03*
X728380D02*
D03*
X723380D02*
D03*
X713380D02*
D03*
X678380D02*
D03*
X708380D02*
D03*
X693380D02*
D03*
X688380D02*
D03*
X683380D02*
D03*
X758380D02*
D03*
X763380D02*
D03*
X733380Y128524D02*
D03*
X698380D02*
D03*
X703380D02*
D03*
X718380D02*
D03*
X723380D02*
D03*
X728380D02*
D03*
X738380D02*
D03*
X688380D02*
D03*
X743380D02*
D03*
X758380D02*
D03*
X763380D02*
D03*
X768380D02*
D03*
X773380D02*
D03*
X693380D02*
D03*
X603380D02*
D03*
X608380D02*
D03*
X618380D02*
D03*
X623380D02*
D03*
X628380D02*
D03*
X643380D02*
D03*
X768380Y343916D02*
D03*
X648380Y128524D02*
D03*
X653380D02*
D03*
X658380D02*
D03*
X663380D02*
D03*
X673380D02*
D03*
X778380D02*
D03*
X753380Y343916D02*
D03*
X773380D02*
D03*
X778380D02*
D03*
D20*
X583184Y173720D02*
D03*
Y203720D02*
D03*
Y253720D02*
D03*
Y288720D02*
D03*
Y293720D02*
D03*
X798576Y248720D02*
D03*
Y278720D02*
D03*
Y308720D02*
D03*
Y168720D02*
D03*
Y188720D02*
D03*
Y218720D02*
D03*
Y313720D02*
D03*
Y273720D02*
D03*
Y243720D02*
D03*
Y213720D02*
D03*
Y193720D02*
D03*
Y173720D02*
D03*
X583184Y283720D02*
D03*
Y208720D02*
D03*
Y178720D02*
D03*
Y248720D02*
D03*
Y278720D02*
D03*
Y273720D02*
D03*
Y318720D02*
D03*
Y323720D02*
D03*
Y313720D02*
D03*
Y213720D02*
D03*
Y148720D02*
D03*
Y153720D02*
D03*
Y158720D02*
D03*
Y163720D02*
D03*
Y168720D02*
D03*
Y183720D02*
D03*
Y188720D02*
D03*
Y193720D02*
D03*
Y198720D02*
D03*
Y218720D02*
D03*
Y308720D02*
D03*
Y228720D02*
D03*
Y233720D02*
D03*
Y238720D02*
D03*
Y243720D02*
D03*
Y258720D02*
D03*
Y263720D02*
D03*
Y268720D02*
D03*
Y298720D02*
D03*
Y303720D02*
D03*
Y223720D02*
D03*
X798576Y148720D02*
D03*
Y153720D02*
D03*
Y258720D02*
D03*
Y263720D02*
D03*
Y268720D02*
D03*
Y283720D02*
D03*
Y323720D02*
D03*
Y318720D02*
D03*
Y303720D02*
D03*
Y293720D02*
D03*
Y158720D02*
D03*
Y253720D02*
D03*
Y298720D02*
D03*
Y163720D02*
D03*
Y238720D02*
D03*
Y178720D02*
D03*
Y183720D02*
D03*
Y288720D02*
D03*
Y198720D02*
D03*
Y208720D02*
D03*
Y223720D02*
D03*
Y203720D02*
D03*
Y233720D02*
D03*
Y228720D02*
D03*
D21*
X626395Y452865D02*
D03*
X613694Y399215D02*
D03*
X588294Y452865D02*
D03*
X600994Y399215D02*
D03*
Y452865D02*
D03*
X613694D02*
D03*
X626395Y399215D02*
D03*
X588294D02*
D03*
D22*
X560324Y204872D02*
D03*
X553974Y161946D02*
D03*
X822960Y291190D02*
D03*
X830580Y185060D02*
D03*
X829310Y149500D02*
D03*
X558038Y308970D02*
D03*
X589280Y347980D02*
D03*
X647700Y470260D02*
D03*
X568960Y378100D02*
D03*
X378460Y427990D02*
D03*
X345440Y429260D02*
D03*
X820420Y306980D02*
D03*
Y325480D02*
D03*
X666242Y716576D02*
D03*
X822960Y272690D02*
D03*
X830580Y203560D02*
D03*
X829310Y168000D02*
D03*
X647700Y451760D02*
D03*
X589280Y365980D02*
D03*
X378460Y409990D02*
D03*
X345440Y411260D02*
D03*
X568960Y396600D02*
D03*
X180340Y699990D02*
D03*
X558038Y290470D02*
D03*
X560324Y223372D02*
D03*
X553974Y180446D02*
D03*
X482092Y90530D02*
D03*
X180340Y681990D02*
D03*
X482092Y72030D02*
D03*
X666242Y735076D02*
D03*
D23*
Y782406D02*
D03*
X425366Y232580D02*
D03*
X666242Y761406D02*
D03*
X425366Y211580D02*
D03*
D24*
X716640Y367030D02*
D03*
X736240Y368300D02*
D03*
X901594Y287782D02*
D03*
X644542Y600456D02*
D03*
X644292Y627126D02*
D03*
X638450Y367030D02*
D03*
X920094Y287782D02*
D03*
X791320Y365760D02*
D03*
X664062Y693166D02*
D03*
X754740Y368300D02*
D03*
X698140Y367030D02*
D03*
X662792Y627126D02*
D03*
X662542Y600456D02*
D03*
X825860Y80010D02*
D03*
X656950Y367030D02*
D03*
X293480Y391160D02*
D03*
X121560Y706120D02*
D03*
X165460Y518160D02*
D03*
X140060Y706120D02*
D03*
X275480Y391160D02*
D03*
X146960Y518160D02*
D03*
X645562Y693166D02*
D03*
X807360Y80010D02*
D03*
X773320Y365760D02*
D03*
D25*
X820420Y254360D02*
D03*
Y235860D02*
D03*
D26*
X538820Y93980D02*
D03*
X617642Y662686D02*
D03*
X517820Y93980D02*
D03*
X638642Y662686D02*
D03*
D27*
X896255Y163322D02*
D03*
X915273D02*
D03*
D28*
X815100Y107950D02*
D03*
X795640D02*
D03*
D29*
X899414Y265870D02*
D03*
X937514Y193870D02*
D03*
X899414D02*
D03*
X924814Y265870D02*
D03*
X937514D02*
D03*
X912114D02*
D03*
X924814Y193870D02*
D03*
X912114D02*
D03*
D30*
X712730Y784352D02*
D03*
X887730Y797052D02*
D03*
X712730D02*
D03*
X887730Y784352D02*
D03*
Y771652D02*
D03*
Y758952D02*
D03*
Y746252D02*
D03*
Y733552D02*
D03*
Y720852D02*
D03*
Y708152D02*
D03*
Y695452D02*
D03*
Y682752D02*
D03*
Y670052D02*
D03*
Y657352D02*
D03*
Y644652D02*
D03*
Y631952D02*
D03*
X712730D02*
D03*
Y644652D02*
D03*
Y657352D02*
D03*
Y670052D02*
D03*
Y682752D02*
D03*
Y695452D02*
D03*
Y708152D02*
D03*
Y720852D02*
D03*
Y733552D02*
D03*
Y746252D02*
D03*
Y758952D02*
D03*
Y771652D02*
D03*
D31*
X271634Y539090D02*
D03*
Y548590D02*
D03*
Y529590D02*
D03*
X246634Y539090D02*
D03*
Y529590D02*
D03*
Y548590D02*
D03*
X249374Y669544D02*
D03*
X274374Y660044D02*
D03*
Y679044D02*
D03*
X249374D02*
D03*
Y660044D02*
D03*
X274374Y669544D02*
D03*
D32*
X799230Y733852D02*
D03*
X785230Y719852D02*
D03*
Y733852D02*
D03*
X799230Y705852D02*
D03*
Y719852D02*
D03*
X785230Y705852D02*
D03*
X771230Y733852D02*
D03*
Y705852D02*
D03*
Y719852D02*
D03*
D33*
X943102Y118430D02*
D03*
Y94930D02*
D03*
D34*
X873760Y116332D02*
D03*
Y95332D02*
D03*
D35*
X810620Y48260D02*
D03*
X792120D02*
D03*
D36*
X698187Y98490D02*
D03*
X687129Y106234D02*
D03*
D37*
X607060Y545940D02*
D03*
X597560Y525940D02*
D03*
X616560D02*
D03*
D38*
X260620Y452120D02*
D03*
Y475120D02*
D03*
Y429120D02*
D03*
D39*
X199120Y452120D02*
D03*
D40*
X102870Y659130D02*
D03*
Y644150D02*
D03*
X95758Y576580D02*
D03*
X95504Y522862D02*
D03*
Y504822D02*
D03*
X95758Y558540D02*
D03*
X102870Y626110D02*
D03*
Y677170D02*
D03*
D41*
X60250Y702690D02*
D03*
Y638690D02*
D03*
Y579370D02*
D03*
Y515370D02*
D03*
Y523370D02*
D03*
Y571370D02*
D03*
Y646690D02*
D03*
Y694690D02*
D03*
D42*
X650940Y94293D02*
D03*
X658684Y105351D02*
D03*
D43*
X627526Y101600D02*
D03*
X590150Y101854D02*
D03*
X614026Y101600D02*
D03*
X603650Y101854D02*
D03*
D44*
X60250Y554870D02*
D03*
Y544870D02*
D03*
Y539870D02*
D03*
Y549870D02*
D03*
Y673190D02*
D03*
Y663190D02*
D03*
Y678190D02*
D03*
Y668190D02*
D03*
Y534870D02*
D03*
Y529870D02*
D03*
Y559870D02*
D03*
Y564870D02*
D03*
Y653190D02*
D03*
Y658190D02*
D03*
Y688190D02*
D03*
Y683190D02*
D03*
D45*
X870080Y619452D02*
D03*
X857380D02*
D03*
X844680D02*
D03*
X831980D02*
D03*
X819280D02*
D03*
X806580D02*
D03*
X793880D02*
D03*
X781180D02*
D03*
X768480D02*
D03*
X755780D02*
D03*
X743080D02*
D03*
X730380D02*
D03*
D46*
X149606Y651004D02*
D03*
X147320Y580900D02*
D03*
Y549400D02*
D03*
X149606Y619504D02*
D03*
D47*
X691507Y85851D02*
D03*
X664309Y85363D02*
D03*
X673486Y98470D02*
D03*
X682330Y72744D02*
D03*
D48*
X748662Y409956D02*
D03*
X766702D02*
D03*
X707514Y416814D02*
D03*
X725554D02*
D03*
D49*
X761114Y96520D02*
D03*
X745106D02*
D03*
D50*
X596846Y85598D02*
D03*
X621846D02*
D03*
D51*
X598302Y495300D02*
D03*
X615818D02*
D03*
M02*
