G04*
G04 #@! TF.GenerationSoftware,Altium Limited,Altium Designer,26.4.1 (12)*
G04*
G04 Layer_Physical_Order=1*
G04 Layer_Color=255*
%FSLAX44Y44*%
%MOMM*%
G71*
G04*
G04 #@! TF.SameCoordinates,C07A7799-293D-43D9-A71F-7622AD06B6F1*
G04*
G04*
G04 #@! TF.FilePolarity,Positive*
G04*
G01*
G75*
%ADD16C,0.2540*%
%ADD18R,1.4200X1.0000*%
%ADD19R,0.2794X1.7780*%
%ADD20R,1.7780X0.2794*%
%ADD21O,0.6300X1.8650*%
%ADD22R,1.5500X1.5000*%
%ADD23R,1.5000X1.2500*%
%ADD24R,1.5000X1.5500*%
%ADD25R,1.5500X1.4500*%
%ADD26R,1.2500X1.5000*%
%ADD27R,1.0065X1.4082*%
%ADD28R,1.2850X1.4700*%
%ADD29R,0.6500X1.6500*%
%ADD30R,1.5000X0.9000*%
%ADD31R,1.2000X0.6000*%
%ADD32R,0.9000X0.9000*%
%ADD33R,1.1000X1.2500*%
%ADD34R,1.2000X1.2000*%
%ADD35R,1.4500X1.5500*%
G04:AMPARAMS|DCode=36|XSize=1mm|YSize=0.85mm|CornerRadius=0mm|HoleSize=0mm|Usage=FLASHONLY|Rotation=55.000|XOffset=0mm|YOffset=0mm|HoleType=Round|Shape=Rectangle|*
%AMROTATEDRECTD36*
4,1,4,0.0614,-0.6534,-0.6349,-0.1658,-0.0614,0.6534,0.6349,0.1658,0.0614,-0.6534,0.0*
%
%ADD36ROTATEDRECTD36*%

%ADD37R,0.8000X0.9000*%
G04:AMPARAMS|DCode=38|XSize=0.9mm|YSize=1.45mm|CornerRadius=0.0495mm|HoleSize=0mm|Usage=FLASHONLY|Rotation=270.000|XOffset=0mm|YOffset=0mm|HoleType=Round|Shape=RoundedRectangle|*
%AMROUNDEDRECTD38*
21,1,0.9000,1.3510,0,0,270.0*
21,1,0.8010,1.4500,0,0,270.0*
1,1,0.0990,-0.6755,-0.4005*
1,1,0.0990,-0.6755,0.4005*
1,1,0.0990,0.6755,0.4005*
1,1,0.0990,0.6755,-0.4005*
%
%ADD38ROUNDEDRECTD38*%
G04:AMPARAMS|DCode=39|XSize=3.15mm|YSize=1.45mm|CornerRadius=0.0508mm|HoleSize=0mm|Usage=FLASHONLY|Rotation=270.000|XOffset=0mm|YOffset=0mm|HoleType=Round|Shape=RoundedRectangle|*
%AMROUNDEDRECTD39*
21,1,3.1500,1.3485,0,0,270.0*
21,1,3.0485,1.4500,0,0,270.0*
1,1,0.1015,-0.6743,-1.5243*
1,1,0.1015,-0.6743,1.5243*
1,1,0.1015,0.6743,1.5243*
1,1,0.1015,0.6743,-1.5243*
%
%ADD39ROUNDEDRECTD39*%
%ADD40R,1.3621X1.0081*%
%ADD41R,1.1500X0.6000*%
G04:AMPARAMS|DCode=42|XSize=1mm|YSize=0.85mm|CornerRadius=0mm|HoleSize=0mm|Usage=FLASHONLY|Rotation=145.000|XOffset=0mm|YOffset=0mm|HoleType=Round|Shape=Rectangle|*
%AMROTATEDRECTD42*
4,1,4,0.6534,0.0614,0.1658,-0.6349,-0.6534,-0.0614,-0.1658,0.6349,0.6534,0.0614,0.0*
%
%ADD42ROTATEDRECTD42*%

%ADD43R,0.8500X1.0000*%
%ADD44R,1.1500X0.3000*%
%ADD45R,0.9000X1.5000*%
%ADD46R,1.1300X1.2100*%
G04:AMPARAMS|DCode=47|XSize=1.4mm|YSize=1.15mm|CornerRadius=0mm|HoleSize=0mm|Usage=FLASHONLY|Rotation=325.000|XOffset=0mm|YOffset=0mm|HoleType=Round|Shape=Rectangle|*
%AMROTATEDRECTD47*
4,1,4,-0.9032,-0.0695,-0.2436,0.8725,0.9032,0.0695,0.2436,-0.8725,-0.9032,-0.0695,0.0*
%
%ADD47ROTATEDRECTD47*%

%ADD48R,1.0081X1.3621*%
%ADD49R,1.3541X1.4550*%
%ADD50R,1.0000X1.8000*%
%ADD51R,1.1546X1.3621*%
%ADD78C,1.5700*%
G04:AMPARAMS|DCode=80|XSize=1mm|YSize=1.8mm|CornerRadius=0.5mm|HoleSize=0mm|Usage=FLASHONLY|Rotation=270.000|XOffset=0mm|YOffset=0mm|HoleType=Round|Shape=RoundedRectangle|*
%AMROUNDEDRECTD80*
21,1,1.0000,0.8000,0,0,270.0*
21,1,0.0000,1.8000,0,0,270.0*
1,1,1.0000,-0.4000,0.0000*
1,1,1.0000,-0.4000,0.0000*
1,1,1.0000,0.4000,0.0000*
1,1,1.0000,0.4000,0.0000*
%
%ADD80ROUNDEDRECTD80*%
G04:AMPARAMS|DCode=81|XSize=1mm|YSize=2.2mm|CornerRadius=0.5mm|HoleSize=0mm|Usage=FLASHONLY|Rotation=270.000|XOffset=0mm|YOffset=0mm|HoleType=Round|Shape=RoundedRectangle|*
%AMROUNDEDRECTD81*
21,1,1.0000,1.2000,0,0,270.0*
21,1,0.0000,2.2000,0,0,270.0*
1,1,1.0000,-0.6000,0.0000*
1,1,1.0000,-0.6000,0.0000*
1,1,1.0000,0.6000,0.0000*
1,1,1.0000,0.6000,0.0000*
%
%ADD81ROUNDEDRECTD81*%
%ADD83C,1.5500*%
%ADD85R,1.5500X1.5500*%
%ADD86R,1.5500X1.5500*%
%ADD90R,1.5700X1.5700*%
%ADD92C,0.5080*%
%ADD93C,0.3810*%
%ADD94C,0.1600*%
%ADD95C,1.6000*%
%ADD96C,1.6500*%
%ADD97C,1.6000*%
%ADD98C,6.0000*%
%ADD99C,5.5000*%
G04:AMPARAMS|DCode=100|XSize=1.6mm|YSize=1.6mm|CornerRadius=0.4mm|HoleSize=0mm|Usage=FLASHONLY|Rotation=270.000|XOffset=0mm|YOffset=0mm|HoleType=Round|Shape=RoundedRectangle|*
%AMROUNDEDRECTD100*
21,1,1.6000,0.8000,0,0,270.0*
21,1,0.8000,1.6000,0,0,270.0*
1,1,0.8000,-0.4000,-0.4000*
1,1,0.8000,-0.4000,0.4000*
1,1,0.8000,0.4000,0.4000*
1,1,0.8000,0.4000,-0.4000*
%
%ADD100ROUNDEDRECTD100*%
%ADD101R,1.6500X1.6500*%
G04:AMPARAMS|DCode=102|XSize=1.6mm|YSize=1.6mm|CornerRadius=0.4mm|HoleSize=0mm|Usage=FLASHONLY|Rotation=180.000|XOffset=0mm|YOffset=0mm|HoleType=Round|Shape=RoundedRectangle|*
%AMROUNDEDRECTD102*
21,1,1.6000,0.8000,0,0,180.0*
21,1,0.8000,1.6000,0,0,180.0*
1,1,0.8000,-0.4000,0.4000*
1,1,0.8000,0.4000,0.4000*
1,1,0.8000,0.4000,-0.4000*
1,1,0.8000,-0.4000,-0.4000*
%
%ADD102ROUNDEDRECTD102*%
%ADD103R,6.0000X6.0000*%
%ADD104C,0.6096*%
%ADD105C,0.6000*%
G36*
X825246Y687578D02*
X828625Y684199D01*
X828236Y683260D01*
X748025D01*
X747344Y684014D01*
X753905Y749314D01*
X754399Y749808D01*
X825246D01*
Y687578D01*
D02*
G37*
G36*
X278638Y707779D02*
X215011Y678053D01*
X198120Y694944D01*
Y709422D01*
X168267D01*
X166624Y707779D01*
Y693674D01*
X144272D01*
X143510Y692912D01*
X140007Y696415D01*
X140395Y697354D01*
X148576D01*
Y705612D01*
X140060D01*
Y706120D01*
X139552D01*
Y714886D01*
X131544D01*
Y714886D01*
X130556Y714954D01*
Y719374D01*
X109056D01*
X79038Y689356D01*
X77806D01*
X76962Y689864D01*
X76962Y689864D01*
X76962Y689864D01*
X76962Y744982D01*
X86360Y754380D01*
X266700D01*
X278638Y707779D01*
D02*
G37*
G36*
X187706Y622300D02*
Y543306D01*
X167640D01*
X134366Y576580D01*
Y624989D01*
X140606Y631229D01*
X178777D01*
X187706Y622300D01*
D02*
G37*
G36*
X245872Y486156D02*
Y476504D01*
X249174Y473202D01*
Y434086D01*
X171958D01*
X170434Y435610D01*
Y477520D01*
X173228D01*
X189992Y494284D01*
X237744D01*
X245872Y486156D01*
D02*
G37*
G36*
X227584Y405892D02*
Y265176D01*
X232410Y260350D01*
X210820Y238760D01*
X14986D01*
X13462Y240284D01*
Y343662D01*
X79502D01*
X84582Y348742D01*
X132084Y396244D01*
X133743Y395135D01*
X135700Y394746D01*
X139192D01*
Y403860D01*
X139700D01*
Y404368D01*
X148814D01*
Y407860D01*
X148425Y409817D01*
X147653Y410972D01*
X148196Y411988D01*
X219964D01*
X220726Y412750D01*
X227584Y405892D01*
D02*
G37*
%LPC*%
G36*
X804746Y739368D02*
X799738D01*
Y734360D01*
X804746D01*
Y739368D01*
D02*
G37*
G36*
X798722D02*
X793714D01*
Y734360D01*
X798722D01*
Y739368D01*
D02*
G37*
G36*
X790746D02*
X785738D01*
Y734360D01*
X790746D01*
Y739368D01*
D02*
G37*
G36*
X784722D02*
X779714D01*
Y734360D01*
X784722D01*
Y739368D01*
D02*
G37*
G36*
X776746D02*
X771738D01*
Y734360D01*
X776746D01*
Y739368D01*
D02*
G37*
G36*
X770722D02*
X765714D01*
Y734360D01*
X770722D01*
Y739368D01*
D02*
G37*
G36*
X804746Y733344D02*
X799738D01*
Y728336D01*
X804746D01*
Y733344D01*
D02*
G37*
G36*
X798722D02*
X793714D01*
Y728336D01*
X798722D01*
Y733344D01*
D02*
G37*
G36*
X790746D02*
X785738D01*
Y728336D01*
X790746D01*
Y733344D01*
D02*
G37*
G36*
X784722D02*
X779714D01*
Y728336D01*
X784722D01*
Y733344D01*
D02*
G37*
G36*
X776746D02*
X771738D01*
Y728336D01*
X776746D01*
Y733344D01*
D02*
G37*
G36*
X770722D02*
X765714D01*
Y728336D01*
X770722D01*
Y733344D01*
D02*
G37*
G36*
X804746Y725368D02*
X799738D01*
Y720360D01*
X804746D01*
Y725368D01*
D02*
G37*
G36*
X798722D02*
X793714D01*
Y720360D01*
X798722D01*
Y725368D01*
D02*
G37*
G36*
X790746D02*
X785738D01*
Y720360D01*
X790746D01*
Y725368D01*
D02*
G37*
G36*
X784722D02*
X779714D01*
Y720360D01*
X784722D01*
Y725368D01*
D02*
G37*
G36*
X776746D02*
X771738D01*
Y720360D01*
X776746D01*
Y725368D01*
D02*
G37*
G36*
X770722D02*
X765714D01*
Y720360D01*
X770722D01*
Y725368D01*
D02*
G37*
G36*
X804746Y719344D02*
X799738D01*
Y714336D01*
X804746D01*
Y719344D01*
D02*
G37*
G36*
X798722D02*
X793714D01*
Y714336D01*
X798722D01*
Y719344D01*
D02*
G37*
G36*
X790746D02*
X785738D01*
Y714336D01*
X790746D01*
Y719344D01*
D02*
G37*
G36*
X784722D02*
X779714D01*
Y714336D01*
X784722D01*
Y719344D01*
D02*
G37*
G36*
X776746D02*
X771738D01*
Y714336D01*
X776746D01*
Y719344D01*
D02*
G37*
G36*
X770722D02*
X765714D01*
Y714336D01*
X770722D01*
Y719344D01*
D02*
G37*
G36*
X804746Y711368D02*
X799738D01*
Y706360D01*
X804746D01*
Y711368D01*
D02*
G37*
G36*
X798722D02*
X793714D01*
Y706360D01*
X798722D01*
Y711368D01*
D02*
G37*
G36*
X790746D02*
X785738D01*
Y706360D01*
X790746D01*
Y711368D01*
D02*
G37*
G36*
X784722D02*
X779714D01*
Y706360D01*
X784722D01*
Y711368D01*
D02*
G37*
G36*
X776746D02*
X771738D01*
Y706360D01*
X776746D01*
Y711368D01*
D02*
G37*
G36*
X770722D02*
X765714D01*
Y706360D01*
X770722D01*
Y711368D01*
D02*
G37*
G36*
X804746Y705344D02*
X799738D01*
Y700336D01*
X804746D01*
Y705344D01*
D02*
G37*
G36*
X798722D02*
X793714D01*
Y700336D01*
X798722D01*
Y705344D01*
D02*
G37*
G36*
X790746D02*
X785738D01*
Y700336D01*
X790746D01*
Y705344D01*
D02*
G37*
G36*
X784722D02*
X779714D01*
Y700336D01*
X784722D01*
Y705344D01*
D02*
G37*
G36*
X776746D02*
X771738D01*
Y700336D01*
X776746D01*
Y705344D01*
D02*
G37*
G36*
X770722D02*
X765714D01*
Y700336D01*
X770722D01*
Y705344D01*
D02*
G37*
G36*
X148576Y714886D02*
X140568D01*
Y706628D01*
X148576D01*
Y714886D01*
D02*
G37*
G36*
X156272Y626570D02*
X150114D01*
Y620012D01*
X156272D01*
Y626570D01*
D02*
G37*
G36*
X149098D02*
X142940D01*
Y620012D01*
X149098D01*
Y626570D01*
D02*
G37*
G36*
X156272Y618996D02*
X150114D01*
Y612438D01*
X156272D01*
Y618996D01*
D02*
G37*
G36*
X149098D02*
X142940D01*
Y612438D01*
X149098D01*
Y618996D01*
D02*
G37*
G36*
X153986Y587966D02*
X147828D01*
Y581408D01*
X153986D01*
Y587966D01*
D02*
G37*
G36*
X146812D02*
X140654D01*
Y581408D01*
X146812D01*
Y587966D01*
D02*
G37*
G36*
X153986Y580392D02*
X147828D01*
Y573834D01*
X153986D01*
Y580392D01*
D02*
G37*
G36*
X146812D02*
X140654D01*
Y573834D01*
X146812D01*
Y580392D01*
D02*
G37*
G36*
X205863Y469011D02*
X199628D01*
Y452628D01*
X207512D01*
Y467363D01*
X207029Y468529D01*
X205863Y469011D01*
D02*
G37*
G36*
X198612D02*
X192377D01*
X191211Y468529D01*
X190728Y467363D01*
Y452628D01*
X198612D01*
Y469011D01*
D02*
G37*
G36*
X207512Y451612D02*
X199628D01*
Y435229D01*
X205863D01*
X207029Y435712D01*
X207512Y436878D01*
Y451612D01*
D02*
G37*
G36*
X198612D02*
X190728D01*
Y436878D01*
X191211Y435712D01*
X192377Y435229D01*
X198612D01*
Y451612D01*
D02*
G37*
G36*
X148814Y403352D02*
X140208D01*
Y394746D01*
X143700D01*
X145657Y395135D01*
X147316Y396244D01*
X148425Y397903D01*
X148814Y399860D01*
Y403352D01*
D02*
G37*
G36*
X81816Y336646D02*
X51308D01*
Y306138D01*
X81816D01*
Y336646D01*
D02*
G37*
G36*
X50292D02*
X19784D01*
Y306138D01*
X50292D01*
Y336646D01*
D02*
G37*
G36*
X81816Y305122D02*
X51308D01*
Y274614D01*
X81816D01*
Y305122D01*
D02*
G37*
G36*
X50292D02*
X19784D01*
Y274614D01*
X50292D01*
Y305122D01*
D02*
G37*
%LPD*%
D16*
X938872Y51190D02*
Y90700D01*
X914146Y26464D02*
X938872Y51190D01*
X845058Y70800D02*
X870694Y45164D01*
X914146D01*
X683507Y128651D02*
Y138169D01*
X692658Y147320D01*
X592549Y253847D02*
X597490Y258787D01*
X583184Y253720D02*
X583311Y253847D01*
X592549D01*
X597490Y258787D02*
Y260178D01*
X598170Y260858D01*
X683380Y128524D02*
X683507Y128651D01*
X551136Y161946D02*
X570012D01*
X553064Y161036D02*
X557874Y165846D01*
X570012Y161946D02*
X571500Y163434D01*
Y171274D02*
X573137Y172911D01*
X571500Y163434D02*
Y171274D01*
X573137Y172911D02*
X574076D01*
X574076Y172911D01*
X574882D01*
X565540Y203720D02*
X583184D01*
X574882Y172911D02*
X575691Y173720D01*
X559710Y209550D02*
X565540Y203720D01*
X573819Y293847D02*
X583057D01*
X570041Y297625D02*
Y297668D01*
Y297625D02*
X573819Y293847D01*
X558038Y308970D02*
X558288D01*
X566945Y300764D02*
X570041Y297668D01*
X558288Y308970D02*
X566494Y300764D01*
X566945D01*
X604503Y146640D02*
X613253Y137889D01*
Y128651D02*
X613380Y128524D01*
X613253Y128651D02*
Y137889D01*
X598850Y146640D02*
X604503D01*
X598170Y147320D02*
X598850Y146640D01*
X632460Y142548D02*
X633380Y141628D01*
X632460Y142548D02*
Y143510D01*
X633380Y128524D02*
Y141628D01*
X575691Y173720D02*
X583184D01*
X583057Y293847D02*
X583184Y293720D01*
X589280Y347980D02*
X593217Y344043D01*
X603253D02*
X603380Y343916D01*
X593217Y344043D02*
X603253D01*
X638450Y367030D02*
X643380Y362100D01*
X753380Y128524D02*
X753507Y128651D01*
Y138494D02*
X758190Y143177D01*
X753507Y128651D02*
Y138494D01*
X758190Y143177D02*
Y143510D01*
X798576Y168720D02*
X798703Y168593D01*
X811847Y166262D02*
Y168593D01*
X798703D02*
X811847D01*
X798449Y218847D02*
X798576Y218720D01*
X786993Y218847D02*
X798449D01*
X798576Y188720D02*
X815795D01*
X783590Y222250D02*
X786993Y218847D01*
X798576Y248720D02*
X814780D01*
X829060Y149500D02*
X829310D01*
X821013Y157547D02*
X829060Y149500D01*
X811847Y166262D02*
X820562Y157547D01*
X815795Y188720D02*
X819454Y185060D01*
X820562Y157547D02*
X821013D01*
X819454Y185060D02*
X835660D01*
X814780Y248720D02*
X820420Y254360D01*
X703380Y343916D02*
X703507Y344043D01*
Y353281D01*
X706880Y356655D01*
X706966D01*
X711680Y361369D02*
Y362070D01*
X706966Y356655D02*
X711680Y361369D01*
Y362070D02*
X716640Y367030D01*
X798576Y278720D02*
X798703Y278847D01*
X798576Y308720D02*
X798703Y308593D01*
Y278847D02*
X807167D01*
X735330Y369210D02*
X738380Y366160D01*
Y343916D02*
Y366160D01*
X807849Y279529D02*
X808623D01*
X807167Y278847D02*
X807849Y279529D01*
X808623D02*
X814054Y284960D01*
X816730D01*
X809554Y306980D02*
X820420D01*
X816730Y284960D02*
X822960Y291190D01*
X820420Y306980D02*
X820780Y307340D01*
X807941Y308593D02*
X809554Y306980D01*
X798703Y308593D02*
X807941D01*
X643380Y343916D02*
Y362100D01*
X458483Y248399D02*
X472026Y234855D01*
X458483Y248399D02*
Y269426D01*
X503496Y93980D02*
Y142481D01*
X502920Y93980D02*
X517820D01*
X681482Y50800D02*
X682952D01*
X673200Y58574D02*
X673862Y57912D01*
X656355Y74116D02*
X656408Y74170D01*
X674370Y57912D02*
X681482Y50800D01*
X673862Y57912D02*
X674370D01*
X656355Y73260D02*
X671041Y58574D01*
X673200D01*
X656355Y73260D02*
Y74116D01*
X689977Y57824D02*
Y58586D01*
X682952Y50800D02*
X689977Y57824D01*
Y58586D02*
X693674Y62284D01*
Y64208D02*
X697058Y67592D01*
X693674Y62284D02*
Y64208D01*
X656408Y74170D02*
Y74422D01*
X697058Y67592D02*
Y68408D01*
X703580Y74930D01*
X905215Y220939D02*
X913638Y229362D01*
X823010Y220939D02*
X905215D01*
X475677Y238506D02*
X568455D01*
X570614Y236347D01*
X472026Y234855D02*
X475677Y238506D01*
X89963Y508593D02*
X93734Y504822D01*
X89963Y508593D02*
Y510363D01*
X93734Y504822D02*
X95504D01*
X70686Y529640D02*
X89963Y510363D01*
X60480Y529640D02*
X70686D01*
X60250Y559870D02*
X94428D01*
X95758Y558540D01*
X821930Y273720D02*
X822960Y272690D01*
X813344Y319250D02*
X814190D01*
X820420Y325480D01*
X808623Y314529D02*
X813344Y319250D01*
X808559Y314529D02*
X808623D01*
X798576Y273720D02*
X821930D01*
X807877Y313847D02*
X808559Y314529D01*
X798576Y313720D02*
X798703Y313847D01*
X807877D01*
X771652Y697230D02*
X771906Y696976D01*
X754740Y368300D02*
X755650Y369210D01*
X754740Y368050D02*
Y368300D01*
X746534Y359844D02*
X754740Y368050D01*
X746534Y359393D02*
Y359844D01*
X744897Y357756D02*
X746534Y359393D01*
X744868Y357756D02*
X744897D01*
X743380Y356268D02*
X744868Y357756D01*
X698380Y343916D02*
Y366000D01*
X743380Y343916D02*
Y356268D01*
X656590Y367390D02*
X656950Y367030D01*
X650720Y360800D02*
X656950Y367030D01*
X825140Y270510D02*
X834390D01*
X822960Y272690D02*
X825140Y270510D01*
X819920Y235860D02*
X820420D01*
X827905Y200885D02*
X830580Y203560D01*
X820508Y200885D02*
X827905D01*
X813343Y193720D02*
X820508Y200885D01*
X798576Y243720D02*
X812060D01*
X819920Y235860D01*
X798449Y213593D02*
X798576Y213720D01*
X783823Y213593D02*
X798449D01*
X783590Y213360D02*
X783823Y213593D01*
X791083Y193720D02*
X798576D01*
X813343D01*
X790403Y193040D02*
X791083Y193720D01*
X823572Y173720D02*
X829301Y167991D01*
X798576Y173720D02*
X823572D01*
X783590Y193040D02*
X790403D01*
X748030Y143510D02*
X748253Y143287D01*
X709930Y143971D02*
Y144780D01*
X748253Y128651D02*
Y143287D01*
X713380Y128524D02*
Y140521D01*
X748253Y128651D02*
X748380Y128524D01*
X709930Y143971D02*
X713380Y140521D01*
X708253Y128651D02*
Y138583D01*
X708380Y128524D02*
X713380D01*
X708253Y128651D02*
X708380Y128524D01*
X678507Y139980D02*
X685546Y147019D01*
X702564Y144272D02*
X708253Y138583D01*
X693166Y115062D02*
X696468D01*
X685546Y147019D02*
Y154178D01*
X678507Y128651D02*
Y139980D01*
X678380Y128524D02*
X678507Y128651D01*
X708152Y103378D02*
X714502Y97028D01*
X701802Y109728D02*
X708152Y103378D01*
X713822Y96348D02*
X714502Y97028D01*
X713822Y93046D02*
Y96348D01*
X696468Y115062D02*
X701802Y109728D01*
X706628Y85852D02*
X713822Y93046D01*
X706628Y84890D02*
Y85852D01*
X703580Y81842D02*
X706628Y84890D01*
X703580Y74930D02*
Y81842D01*
X652100Y112858D02*
X652780Y113538D01*
X650720Y358956D02*
Y360800D01*
X648380Y356616D02*
X650720Y358956D01*
X601784Y359750D02*
X608253Y353281D01*
X595510Y359750D02*
X601784D01*
X589280Y365980D02*
X595510Y359750D01*
X648380Y343916D02*
Y356616D01*
X648253Y343789D02*
X648380Y343916D01*
X648253Y332985D02*
Y343789D01*
X645160Y329892D02*
X648253Y332985D01*
X608253Y344043D02*
X608380Y343916D01*
X608253Y344043D02*
Y353281D01*
X645160Y328930D02*
Y329892D01*
X641350Y142548D02*
Y143510D01*
X638507Y128651D02*
Y139705D01*
X641350Y142548D01*
X595936Y283720D02*
X597716Y281940D01*
X598678D01*
X597208Y175260D02*
X598170D01*
X648511Y112858D02*
X652100D01*
X645238Y109585D02*
X648511Y112858D01*
X640080Y112522D02*
X640334Y112776D01*
X645238Y99900D02*
Y109585D01*
X638556Y104902D02*
X640080Y106426D01*
X638380Y128524D02*
X638507Y128651D01*
X640080Y106426D02*
Y112522D01*
X638556Y99342D02*
Y104902D01*
X646128Y74422D02*
X656408D01*
X641604Y96266D02*
X645238Y99900D01*
X641604Y78946D02*
Y96266D01*
X643866Y76684D02*
X646128Y74422D01*
X641604Y78946D02*
X643866Y76684D01*
X634276Y95062D02*
X638556Y99342D01*
X634276Y94100D02*
Y95062D01*
X588881Y113284D02*
X602742D01*
X634276Y84759D02*
X636016Y83019D01*
Y74640D02*
Y83019D01*
X634276Y84759D02*
Y94100D01*
X623570Y71120D02*
X632496D01*
X636016Y74640D01*
X587103Y71120D02*
X599186D01*
X611378D02*
X623570D01*
X599186D02*
X611378D01*
X573137Y284529D02*
X574882D01*
X575691Y283720D01*
X569122Y288544D02*
X573137Y284529D01*
X575691Y283720D02*
X595936D01*
X597662Y214666D02*
Y228600D01*
X560320Y227690D02*
X568526Y219484D01*
X560070Y227690D02*
X560320D01*
X568977Y219484D02*
X571398Y217063D01*
X568526Y219484D02*
X568977D01*
X594868Y211872D02*
X597662Y214666D01*
X594868Y211166D02*
Y211872D01*
X593231Y209529D02*
X594868Y211166D01*
X591486Y209529D02*
X593231D01*
X590804Y208847D02*
X591486Y209529D01*
X571398Y211268D02*
X573819Y208847D01*
X583057D01*
X571398Y211268D02*
Y217063D01*
X583311Y208847D02*
X590804D01*
X583057D02*
X583184Y208720D01*
X558038Y290470D02*
X559964Y288544D01*
X569122D01*
X583311Y178593D02*
X592758D01*
X594059Y177292D01*
X595176D01*
X597208Y175260D01*
X583057Y178847D02*
X583184Y178720D01*
X583311Y178593D01*
X573650Y111914D02*
X575020Y113284D01*
X588881D01*
X586722Y71501D02*
X587103Y71120D01*
X574675Y71501D02*
X586722D01*
X573650Y95876D02*
Y111914D01*
X573278Y84128D02*
X573913Y83493D01*
Y72263D02*
X574675Y71501D01*
X573913Y72263D02*
Y83493D01*
X552141Y184967D02*
X558261Y178847D01*
X583057D01*
X573024Y95250D02*
X573650Y95876D01*
X573024Y95250D02*
X573278Y94996D01*
Y84128D02*
Y94996D01*
X570614Y232052D02*
Y236347D01*
X419393Y215776D02*
X452947D01*
X472026Y234855D01*
X425366Y211580D02*
X430346Y206600D01*
X673253Y128651D02*
X673380Y128524D01*
X673253Y128651D02*
Y136753D01*
X672846Y137160D02*
X673253Y136753D01*
X672846Y137160D02*
Y144018D01*
Y211510D02*
X834898Y373562D01*
X672846Y144018D02*
Y211510D01*
X834898Y373562D02*
Y463296D01*
X497840Y72750D02*
X502920Y77830D01*
Y93980D01*
X537768Y561340D02*
X556870D01*
X532722Y547062D02*
X541920Y556260D01*
X554766D02*
X577460Y533566D01*
X541920Y556260D02*
X554766D01*
X535202Y563906D02*
X537768Y561340D01*
X556870D02*
X579564Y538646D01*
X535202Y563906D02*
Y569582D01*
X691507Y85851D02*
Y90810D01*
X685546Y96771D02*
X691507Y90810D01*
X686181Y105286D02*
X687129Y106234D01*
X686181Y98229D02*
Y105286D01*
X685546Y97594D02*
X686181Y98229D01*
X685546Y96771D02*
Y97594D01*
X687129Y106234D02*
Y109775D01*
X680064Y116840D02*
X687129Y109775D01*
X668507Y119159D02*
Y120904D01*
Y119159D02*
X670826Y116840D01*
X680064D01*
X663253Y116391D02*
Y128397D01*
X658955Y112093D02*
X663253Y116391D01*
X658955Y105080D02*
Y112093D01*
X617756Y105330D02*
X628253Y115827D01*
X614584Y110490D02*
X623253Y119159D01*
X606630Y107405D02*
X609715Y110490D01*
X614026Y101600D02*
Y102350D01*
X617006Y105330D02*
X617756D01*
X628253Y115827D02*
Y128397D01*
X614026Y102350D02*
X617006Y105330D01*
X609715Y110490D02*
X614584D01*
X614026Y100850D02*
Y102350D01*
X623253Y119159D02*
Y128397D01*
X606630Y104834D02*
Y107405D01*
X618116Y89328D02*
X621846Y85598D01*
X618116Y89328D02*
Y96760D01*
X614026Y100850D02*
X618116Y96760D01*
X604476Y102680D02*
X606630Y104834D01*
X600670Y93422D02*
Y98874D01*
X596846Y89598D02*
X600670Y93422D01*
X596846Y85598D02*
Y89598D01*
X600670Y98874D02*
X604476Y102680D01*
X609600Y462692D02*
X613694Y458598D01*
X661416Y510032D02*
X661457Y510073D01*
X675840Y512736D02*
Y554008D01*
X669036Y501396D02*
X669077Y501437D01*
X670760Y514840D02*
Y550324D01*
X669077Y505973D02*
X675840Y512736D01*
X665993Y510073D02*
X670760Y514840D01*
X669077Y501437D02*
Y505973D01*
X661457Y510073D02*
X665993D01*
X675840Y554008D02*
X677644Y555812D01*
X669272Y551812D02*
X670760Y550324D01*
X667280Y551812D02*
X669272D01*
X677644Y555812D02*
X683320D01*
X660800Y558292D02*
X660800D01*
X667280Y551812D01*
X616331Y510667D02*
X616458Y510540D01*
X611088Y510667D02*
X616331D01*
X609600Y509179D02*
X611088Y510667D01*
X609600Y502329D02*
Y509179D01*
Y502329D02*
X611088Y500841D01*
X611315D01*
X615818Y496338D01*
Y495300D02*
Y496338D01*
X609600Y509179D02*
Y521860D01*
X604520Y502329D02*
Y508798D01*
X603032Y500841D02*
X604520Y502329D01*
X597027Y510667D02*
X602651D01*
X604520Y508798D01*
X598302Y495300D02*
Y496338D01*
X602805Y500841D02*
X603032D01*
X598302Y496338D02*
X602805Y500841D01*
X596900Y510794D02*
X597027Y510667D01*
X604520Y508798D02*
Y521860D01*
X603032Y523348D02*
X604520Y521860D01*
X611088Y523348D02*
X613968D01*
X616560Y525940D01*
X609600Y521860D02*
X611088Y523348D01*
X600152Y523348D02*
X603032D01*
X616560Y525940D02*
Y526440D01*
X615818Y494263D02*
Y495300D01*
X683320Y555812D02*
X685800Y558292D01*
X532722Y572062D02*
X535202Y569582D01*
X608750Y529170D02*
X613830D01*
X616560Y526440D01*
X599274Y538646D02*
X608750Y529170D01*
X579564Y538646D02*
X599274D01*
X577460Y533566D02*
X594146D01*
X595634Y527866D02*
X597560Y525940D01*
X595634Y527866D02*
Y532078D01*
X594146Y533566D02*
X595634Y532078D01*
X588294Y392023D02*
X589975Y390342D01*
X588294Y392023D02*
Y399215D01*
X589975Y389957D02*
Y390342D01*
Y389957D02*
X618380Y361552D01*
Y343916D02*
Y361552D01*
X687070Y606552D02*
Y668020D01*
X696396Y677346D02*
X704324D01*
X687070Y668020D02*
X696396Y677346D01*
X695960Y614934D02*
X767334Y543560D01*
X697448Y670052D02*
X712730D01*
X695960Y614934D02*
Y668564D01*
X697448Y670052D01*
X687070Y606552D02*
X753364Y540258D01*
Y517144D02*
Y540258D01*
X767334Y509524D02*
Y543560D01*
X688380Y376471D02*
Y430570D01*
X767334Y509524D01*
X682244Y446024D02*
X753364Y517144D01*
X682244Y354290D02*
Y446024D01*
X658955Y105080D02*
X659816Y104219D01*
X664339Y86549D02*
Y90878D01*
X661573Y93644D02*
X664339Y90878D01*
X661573Y93644D02*
Y97633D01*
X659816Y99390D02*
X661573Y97633D01*
X659816Y99390D02*
Y104219D01*
X663253Y128397D02*
X663380Y128524D01*
X623253Y128397D02*
X623380Y128524D01*
X628253Y128397D02*
X628380Y128524D01*
X618375Y268593D02*
X632206Y254762D01*
X583311Y268593D02*
X618375D01*
X583184Y268720D02*
X583311Y268593D01*
X101100Y677170D02*
X102870D01*
X95080Y683190D02*
X101100Y677170D01*
X60250Y683190D02*
X95080D01*
X887730Y631952D02*
X890960Y635182D01*
X894211D01*
X919346Y660317D01*
Y687190D01*
X944880Y712724D01*
X60250Y529870D02*
X60480Y529640D01*
X645562Y670856D02*
Y693166D01*
X638642Y663936D02*
X645562Y670856D01*
X638642Y662686D02*
X639150Y662178D01*
X651764D01*
X704073Y766246D02*
X705012D01*
X706500Y767734D02*
Y768422D01*
X666242Y761406D02*
X699233D01*
X704073Y766246D01*
X709730Y771652D02*
X851970D01*
X706500Y768422D02*
X709730Y771652D01*
X705012Y766246D02*
X706500Y767734D01*
X666750Y755056D02*
X670296Y758602D01*
X859590Y764032D02*
X860552D01*
X851970Y771652D02*
X859590Y764032D01*
X666750Y755056D02*
Y760898D01*
X666242Y761406D02*
X666750Y760898D01*
X666242Y735076D02*
Y755056D01*
X60250Y653190D02*
X74020D01*
X101100Y626110D01*
X102870D01*
X567182Y191262D02*
X567942D01*
X570484Y188720D01*
X583184D01*
X719189Y117730D02*
X724396Y112522D01*
X718380Y121031D02*
Y128524D01*
X719189Y117730D02*
Y120222D01*
X718380Y121031D02*
X719189Y120222D01*
X724396Y112522D02*
X740918D01*
X745106Y96520D02*
Y108334D01*
X740918Y112522D02*
X745106Y108334D01*
X723507Y119159D02*
X726080Y116586D01*
X743037D02*
X755613Y104009D01*
X726080Y116586D02*
X743037D01*
X755613Y102021D02*
X761114Y96520D01*
X755613Y102021D02*
Y104009D01*
X723507Y119159D02*
Y128397D01*
X723380Y128524D02*
X723507Y128397D01*
X704324Y677346D02*
X709730Y682752D01*
X712730D01*
X687846Y358123D02*
Y375937D01*
Y358123D02*
X688380Y357589D01*
X687846Y375937D02*
X688380Y376471D01*
Y343916D02*
Y357589D01*
X846958Y475356D02*
X860298Y488696D01*
X825070Y475356D02*
X846958D01*
X770473Y420759D02*
X825070Y475356D01*
X770473Y413727D02*
Y420759D01*
X766702Y409956D02*
X770473Y413727D01*
X795666Y488696D02*
X834898D01*
X725554Y418584D02*
X795666Y488696D01*
X725554Y416814D02*
Y418584D01*
X707514Y416814D02*
Y428174D01*
X705104Y430584D02*
X707514Y428174D01*
X705104Y430584D02*
Y431546D01*
X745744Y423980D02*
Y424942D01*
Y423980D02*
X748662Y421062D01*
Y409956D02*
Y421062D01*
X674706Y358476D02*
X675386Y359156D01*
X673701Y358476D02*
X674706D01*
X668507Y353281D02*
X673701Y358476D01*
X668507Y344043D02*
Y353281D01*
X668380Y343916D02*
X668507Y344043D01*
X670306Y365814D02*
Y366776D01*
X667244Y362752D02*
X670306Y365814D01*
X667244Y358123D02*
Y362752D01*
X663507Y354386D02*
X667244Y358123D01*
X663507Y344043D02*
Y354386D01*
X663380Y343916D02*
X663507Y344043D01*
X481330Y72750D02*
X497840D01*
X870722Y225816D02*
X880110Y235204D01*
X921258Y239014D02*
X924814Y242570D01*
X903732Y235204D02*
X907542Y239014D01*
X583057Y228847D02*
X583184Y228720D01*
X573819Y228847D02*
X583057D01*
X570614Y232052D02*
X573819Y228847D01*
X916514Y182036D02*
Y184470D01*
X912114Y188870D02*
X916514Y184470D01*
Y182036D02*
X917194Y181356D01*
X912114Y188870D02*
Y193870D01*
X811513Y225816D02*
X870722D01*
X798576Y228720D02*
X798703Y228593D01*
X808736D02*
X811513Y225816D01*
X880110Y235204D02*
X903732D01*
X798703Y228593D02*
X808736D01*
X924814Y242570D02*
Y265870D01*
X911510Y167085D02*
Y176774D01*
X937514Y265870D02*
X938716Y264668D01*
X946404D01*
X899414Y188870D02*
X911510Y176774D01*
Y167085D02*
X915273Y163322D01*
X899414Y188870D02*
Y193870D01*
X923278Y214122D02*
X924814Y212586D01*
X810260Y130516D02*
Y161274D01*
Y130516D02*
X845058Y95718D01*
Y70800D02*
Y95718D01*
X938872Y90700D02*
X943102Y94930D01*
X810918Y208847D02*
X823010Y220939D01*
X891286Y193802D02*
X899346D01*
X924814Y193870D02*
Y212586D01*
X899346Y193802D02*
X899414Y193870D01*
X912749Y253873D02*
Y265235D01*
X907542Y239014D02*
X921258D01*
X912114Y265870D02*
X912749Y265235D01*
Y253873D02*
X913384Y253238D01*
X798576Y208720D02*
X798703Y208847D01*
X811539Y203720D02*
X821941Y214122D01*
X798703Y208847D02*
X810918D01*
X821941Y214122D02*
X923278D01*
X798576Y203720D02*
X811539D01*
X798449Y268593D02*
X798576Y268720D01*
X777240Y267970D02*
X777863Y268593D01*
X798449D01*
Y283593D02*
X798576Y283720D01*
X788592Y283593D02*
X798449D01*
X785161Y280162D02*
X788592Y283593D01*
X785114Y280162D02*
X785161D01*
X783762Y278810D02*
X785114Y280162D01*
X781730Y278810D02*
X783762D01*
X781050Y278130D02*
X781730Y278810D01*
X613694Y458598D02*
Y460057D01*
X600994Y452865D02*
Y458867D01*
Y452865D02*
Y459324D01*
X598302Y494263D02*
X604520Y488045D01*
X600994Y447132D02*
Y452865D01*
X609600Y488045D02*
X615818Y494263D01*
X604520Y462850D02*
Y488045D01*
X600994Y459324D02*
X604520Y462850D01*
X609600Y462692D02*
Y488045D01*
X613694Y452865D02*
Y458598D01*
Y447132D02*
Y452865D01*
X597560Y525940D02*
X600152Y523348D01*
X807941Y163593D02*
X810260Y161274D01*
X798703Y163593D02*
X807941D01*
X798576Y163720D02*
X798703Y163593D01*
X683253Y344043D02*
X683380Y343916D01*
X683253Y344043D02*
Y351536D01*
X682244Y354290D02*
X682571Y353963D01*
Y352218D02*
X683253Y351536D01*
X783590Y259080D02*
X784098Y258572D01*
Y243960D02*
Y258572D01*
Y243960D02*
X789211Y238847D01*
X798449D01*
X798576Y238720D01*
X682571Y352218D02*
Y353963D01*
X783590Y179070D02*
X783813Y178847D01*
X798449D01*
X798576Y178720D01*
X718507Y144467D02*
X718820Y144780D01*
X718507Y128651D02*
Y144467D01*
X718380Y128524D02*
X718507Y128651D01*
X596597Y183847D02*
X596900Y184150D01*
X583311Y183847D02*
X596597D01*
X583184Y183720D02*
X583311Y183847D01*
X653507Y329473D02*
X654050Y328930D01*
X653507Y329473D02*
Y343789D01*
X653380Y343916D02*
X653507Y343789D01*
X748380Y343916D02*
X748507Y344043D01*
Y353281D01*
X750985Y355759D01*
X763569D01*
X773320Y365510D01*
Y365760D01*
X784982Y288720D02*
X798576D01*
X783282Y287020D02*
X784982Y288720D01*
X782320Y287020D02*
X783282D01*
X785472Y293720D02*
X798576D01*
X783282Y295910D02*
X785472Y293720D01*
X782320Y295910D02*
X783282D01*
X623380Y343916D02*
Y389008D01*
X626395Y392023D01*
Y399215D01*
D18*
X914146Y45164D02*
D03*
Y26464D02*
D03*
X917194Y78788D02*
D03*
Y97488D02*
D03*
D19*
X643380Y343916D02*
D03*
X603380D02*
D03*
X703380D02*
D03*
X738380D02*
D03*
X753380Y128524D02*
D03*
X683380D02*
D03*
X613380D02*
D03*
X633380D02*
D03*
X743380Y343916D02*
D03*
X698380D02*
D03*
X748380Y128524D02*
D03*
X713380D02*
D03*
X708380D02*
D03*
X678380D02*
D03*
X648380Y343916D02*
D03*
X608380D02*
D03*
X638380Y128524D02*
D03*
X668380D02*
D03*
X638380Y343916D02*
D03*
X663380D02*
D03*
X658380D02*
D03*
X653380D02*
D03*
X623380D02*
D03*
X633380D02*
D03*
X628380D02*
D03*
X618380D02*
D03*
X613380D02*
D03*
X668380D02*
D03*
X673380D02*
D03*
X718380D02*
D03*
X748380D02*
D03*
X733380D02*
D03*
X728380D02*
D03*
X723380D02*
D03*
X713380D02*
D03*
X678380D02*
D03*
X708380D02*
D03*
X693380D02*
D03*
X688380D02*
D03*
X683380D02*
D03*
X758380D02*
D03*
X763380D02*
D03*
X733380Y128524D02*
D03*
X698380D02*
D03*
X703380D02*
D03*
X718380D02*
D03*
X723380D02*
D03*
X728380D02*
D03*
X738380D02*
D03*
X688380D02*
D03*
X743380D02*
D03*
X758380D02*
D03*
X763380D02*
D03*
X768380D02*
D03*
X773380D02*
D03*
X693380D02*
D03*
X603380D02*
D03*
X608380D02*
D03*
X618380D02*
D03*
X623380D02*
D03*
X628380D02*
D03*
X643380D02*
D03*
X768380Y343916D02*
D03*
X648380Y128524D02*
D03*
X653380D02*
D03*
X658380D02*
D03*
X663380D02*
D03*
X673380D02*
D03*
X778380D02*
D03*
X753380Y343916D02*
D03*
X773380D02*
D03*
X778380D02*
D03*
D20*
X583184Y173720D02*
D03*
Y203720D02*
D03*
Y253720D02*
D03*
Y288720D02*
D03*
Y293720D02*
D03*
X798576Y248720D02*
D03*
Y278720D02*
D03*
Y308720D02*
D03*
Y168720D02*
D03*
Y188720D02*
D03*
Y218720D02*
D03*
Y313720D02*
D03*
Y273720D02*
D03*
Y243720D02*
D03*
Y213720D02*
D03*
Y193720D02*
D03*
Y173720D02*
D03*
X583184Y283720D02*
D03*
Y208720D02*
D03*
Y178720D02*
D03*
Y248720D02*
D03*
Y278720D02*
D03*
Y273720D02*
D03*
Y318720D02*
D03*
Y323720D02*
D03*
Y313720D02*
D03*
Y213720D02*
D03*
Y148720D02*
D03*
Y153720D02*
D03*
Y158720D02*
D03*
Y163720D02*
D03*
Y168720D02*
D03*
Y183720D02*
D03*
Y188720D02*
D03*
Y193720D02*
D03*
Y198720D02*
D03*
Y218720D02*
D03*
Y308720D02*
D03*
Y228720D02*
D03*
Y233720D02*
D03*
Y238720D02*
D03*
Y243720D02*
D03*
Y258720D02*
D03*
Y263720D02*
D03*
Y268720D02*
D03*
Y298720D02*
D03*
Y303720D02*
D03*
Y223720D02*
D03*
X798576Y148720D02*
D03*
Y153720D02*
D03*
Y258720D02*
D03*
Y263720D02*
D03*
Y268720D02*
D03*
Y283720D02*
D03*
Y323720D02*
D03*
Y318720D02*
D03*
Y303720D02*
D03*
Y293720D02*
D03*
Y158720D02*
D03*
Y253720D02*
D03*
Y298720D02*
D03*
Y163720D02*
D03*
Y238720D02*
D03*
Y178720D02*
D03*
Y183720D02*
D03*
Y288720D02*
D03*
Y198720D02*
D03*
Y208720D02*
D03*
Y223720D02*
D03*
Y203720D02*
D03*
Y233720D02*
D03*
Y228720D02*
D03*
D21*
X626395Y452865D02*
D03*
X613694Y399215D02*
D03*
X588294Y452865D02*
D03*
X600994Y399215D02*
D03*
Y452865D02*
D03*
X613694D02*
D03*
X626395Y399215D02*
D03*
X588294D02*
D03*
D22*
X560324Y204872D02*
D03*
X553974Y161946D02*
D03*
X822960Y291190D02*
D03*
X830580Y185060D02*
D03*
X829310Y149500D02*
D03*
X558038Y308970D02*
D03*
X589280Y347980D02*
D03*
X647700Y470260D02*
D03*
X568960Y378100D02*
D03*
X378460Y427990D02*
D03*
X345440Y429260D02*
D03*
X820420Y306980D02*
D03*
Y325480D02*
D03*
X666242Y716576D02*
D03*
X822960Y272690D02*
D03*
X830580Y203560D02*
D03*
X829310Y168000D02*
D03*
X647700Y451760D02*
D03*
X589280Y365980D02*
D03*
X378460Y409990D02*
D03*
X345440Y411260D02*
D03*
X568960Y396600D02*
D03*
X180340Y699990D02*
D03*
X558038Y290470D02*
D03*
X560324Y223372D02*
D03*
X553974Y180446D02*
D03*
X482092Y90530D02*
D03*
X180340Y681990D02*
D03*
X482092Y72030D02*
D03*
X666242Y735076D02*
D03*
D23*
Y782406D02*
D03*
X425366Y232580D02*
D03*
X666242Y761406D02*
D03*
X425366Y211580D02*
D03*
D24*
X716640Y367030D02*
D03*
X736240Y368300D02*
D03*
X901594Y287782D02*
D03*
X644542Y600456D02*
D03*
X644292Y627126D02*
D03*
X638450Y367030D02*
D03*
X920094Y287782D02*
D03*
X791320Y365760D02*
D03*
X664062Y693166D02*
D03*
X754740Y368300D02*
D03*
X698140Y367030D02*
D03*
X662792Y627126D02*
D03*
X662542Y600456D02*
D03*
X825860Y80010D02*
D03*
X656950Y367030D02*
D03*
X293480Y391160D02*
D03*
X121560Y706120D02*
D03*
X165460Y518160D02*
D03*
X140060Y706120D02*
D03*
X275480Y391160D02*
D03*
X146960Y518160D02*
D03*
X645562Y693166D02*
D03*
X807360Y80010D02*
D03*
X773320Y365760D02*
D03*
D25*
X820420Y254360D02*
D03*
Y235860D02*
D03*
D26*
X538820Y93980D02*
D03*
X617642Y662686D02*
D03*
X517820Y93980D02*
D03*
X638642Y662686D02*
D03*
D27*
X896255Y163322D02*
D03*
X915273D02*
D03*
D28*
X815100Y107950D02*
D03*
X795640D02*
D03*
D29*
X899414Y265870D02*
D03*
X937514Y193870D02*
D03*
X899414D02*
D03*
X924814Y265870D02*
D03*
X937514D02*
D03*
X912114D02*
D03*
X924814Y193870D02*
D03*
X912114D02*
D03*
D30*
X712730Y784352D02*
D03*
X887730Y797052D02*
D03*
X712730D02*
D03*
X887730Y784352D02*
D03*
Y771652D02*
D03*
Y758952D02*
D03*
Y746252D02*
D03*
Y733552D02*
D03*
Y720852D02*
D03*
Y708152D02*
D03*
Y695452D02*
D03*
Y682752D02*
D03*
Y670052D02*
D03*
Y657352D02*
D03*
Y644652D02*
D03*
Y631952D02*
D03*
X712730D02*
D03*
Y644652D02*
D03*
Y657352D02*
D03*
Y670052D02*
D03*
Y682752D02*
D03*
Y695452D02*
D03*
Y708152D02*
D03*
Y720852D02*
D03*
Y733552D02*
D03*
Y746252D02*
D03*
Y758952D02*
D03*
Y771652D02*
D03*
D31*
X271634Y539090D02*
D03*
Y548590D02*
D03*
Y529590D02*
D03*
X246634Y539090D02*
D03*
Y529590D02*
D03*
Y548590D02*
D03*
X249374Y669544D02*
D03*
X274374Y660044D02*
D03*
Y679044D02*
D03*
X249374D02*
D03*
Y660044D02*
D03*
X274374Y669544D02*
D03*
D32*
X799230Y733852D02*
D03*
X785230Y719852D02*
D03*
Y733852D02*
D03*
X799230Y705852D02*
D03*
Y719852D02*
D03*
X785230Y705852D02*
D03*
X771230Y733852D02*
D03*
Y705852D02*
D03*
Y719852D02*
D03*
D33*
X943102Y118430D02*
D03*
Y94930D02*
D03*
D34*
X873760Y116332D02*
D03*
Y95332D02*
D03*
D35*
X810620Y48260D02*
D03*
X792120D02*
D03*
D36*
X698187Y98490D02*
D03*
X687129Y106234D02*
D03*
D37*
X607060Y545940D02*
D03*
X597560Y525940D02*
D03*
X616560D02*
D03*
D38*
X260620Y452120D02*
D03*
Y475120D02*
D03*
Y429120D02*
D03*
D39*
X199120Y452120D02*
D03*
D40*
X102870Y659130D02*
D03*
Y644150D02*
D03*
X95758Y576580D02*
D03*
X95504Y522862D02*
D03*
Y504822D02*
D03*
X95758Y558540D02*
D03*
X102870Y626110D02*
D03*
Y677170D02*
D03*
D41*
X60250Y702690D02*
D03*
Y638690D02*
D03*
Y579370D02*
D03*
Y515370D02*
D03*
Y523370D02*
D03*
Y571370D02*
D03*
Y646690D02*
D03*
Y694690D02*
D03*
D42*
X650940Y94293D02*
D03*
X658684Y105351D02*
D03*
D43*
X627526Y101600D02*
D03*
X590150Y101854D02*
D03*
X614026Y101600D02*
D03*
X603650Y101854D02*
D03*
D44*
X60250Y554870D02*
D03*
Y544870D02*
D03*
Y539870D02*
D03*
Y549870D02*
D03*
Y673190D02*
D03*
Y663190D02*
D03*
Y678190D02*
D03*
Y668190D02*
D03*
Y534870D02*
D03*
Y529870D02*
D03*
Y559870D02*
D03*
Y564870D02*
D03*
Y653190D02*
D03*
Y658190D02*
D03*
Y688190D02*
D03*
Y683190D02*
D03*
D45*
X870080Y619452D02*
D03*
X857380D02*
D03*
X844680D02*
D03*
X831980D02*
D03*
X819280D02*
D03*
X806580D02*
D03*
X793880D02*
D03*
X781180D02*
D03*
X768480D02*
D03*
X755780D02*
D03*
X743080D02*
D03*
X730380D02*
D03*
D46*
X149606Y651004D02*
D03*
X147320Y580900D02*
D03*
Y549400D02*
D03*
X149606Y619504D02*
D03*
D47*
X691507Y85851D02*
D03*
X664309Y85363D02*
D03*
X673486Y98470D02*
D03*
X682330Y72744D02*
D03*
D48*
X748662Y409956D02*
D03*
X766702D02*
D03*
X707514Y416814D02*
D03*
X725554D02*
D03*
D49*
X761114Y96520D02*
D03*
X745106D02*
D03*
D50*
X596846Y85598D02*
D03*
X621846D02*
D03*
D51*
X598302Y495300D02*
D03*
X615818D02*
D03*
D78*
X308610Y445770D02*
D03*
D80*
X54500Y713890D02*
D03*
Y627490D02*
D03*
Y590570D02*
D03*
Y504170D02*
D03*
D81*
X14500Y713890D02*
D03*
Y590570D02*
D03*
Y627490D02*
D03*
Y504170D02*
D03*
D83*
X48430Y171650D02*
D03*
X685800Y558292D02*
D03*
X532722Y572062D02*
D03*
D85*
X660800Y558292D02*
D03*
D86*
X532722Y547062D02*
D03*
X48430Y196650D02*
D03*
D90*
X308610Y471170D02*
D03*
D92*
X915562Y77156D02*
X917194Y78788D01*
X902148Y77156D02*
X915562D01*
X901954Y76962D02*
X902148Y77156D01*
X538820Y93980D02*
X542530Y97690D01*
Y103597D01*
X544576Y105643D01*
Y105918D01*
X617642Y661436D02*
Y662686D01*
Y661436D02*
X639332Y639746D01*
Y632086D02*
X644292Y627126D01*
X639332Y632086D02*
Y639746D01*
X651196Y783904D02*
X664744D01*
X651002Y784098D02*
X651196Y783904D01*
X815100Y107025D02*
Y107950D01*
X825754Y96266D02*
Y96371D01*
X815100Y107025D02*
X825754Y96371D01*
X664744Y783904D02*
X666242Y782406D01*
X666001Y783155D02*
X667198Y784352D01*
X712730D01*
X899414Y265870D02*
Y285602D01*
X901594Y287782D01*
X900624Y288752D02*
X901594Y287782D01*
X900430Y300736D02*
X900624Y300542D01*
Y288752D02*
Y300542D01*
X345440Y429260D02*
X346075Y428625D01*
X378333D01*
X378714Y428244D01*
X214376Y452120D02*
X260620D01*
X199120D02*
Y457824D01*
X182626Y462534D02*
X194410D01*
X199120Y457824D01*
Y452120D02*
X214376D01*
X216408Y567182D02*
X245848D01*
X256832Y556198D01*
X95250Y587989D02*
Y588264D01*
X95758Y576580D02*
Y587481D01*
X95250Y587989D02*
X95758Y587481D01*
X236474Y669544D02*
X249374D01*
X263919Y539550D02*
X271174D01*
X271634Y539090D01*
X256832Y546637D02*
X263919Y539550D01*
X256832Y546637D02*
Y556198D01*
X895779Y796740D02*
X897615Y798576D01*
X897890D01*
X888042Y796740D02*
X895779D01*
X887730Y797052D02*
X888042Y796740D01*
X808034Y719522D02*
X808228Y719328D01*
X808715Y706374D02*
X808990D01*
X808383Y706042D02*
X808715Y706374D01*
X807621Y719660D02*
X807953Y719328D01*
X808228D01*
X799906Y697424D02*
X800100Y697230D01*
X785114Y742696D02*
X785172Y742638D01*
X785114Y695981D02*
X785368Y696235D01*
X921258Y286766D02*
X932434D01*
X785114Y695706D02*
Y695981D01*
X771320Y697837D02*
X771652Y697505D01*
Y697230D02*
Y697505D01*
Y697230D02*
X771846Y697424D01*
X711908Y796230D02*
X712730Y797052D01*
X698694Y796230D02*
X711908D01*
X698500Y796036D02*
X698694Y796230D01*
X664062Y714396D02*
X666242Y716576D01*
X664062Y713796D02*
Y714396D01*
X653736Y713680D02*
X663346D01*
X653542Y713486D02*
X653736Y713680D01*
X666242Y695346D02*
Y711616D01*
X666048Y678628D02*
X666242Y678434D01*
X664062Y693166D02*
X666242Y695346D01*
X664062Y693166D02*
X666048Y691180D01*
X664062Y713796D02*
X666242Y711616D01*
X666048Y678628D02*
Y691180D01*
X826068Y67250D02*
Y79802D01*
X825860Y80010D02*
X826068Y79802D01*
Y67250D02*
X826262Y67056D01*
X811890Y46990D02*
X822960D01*
X810620Y48260D02*
X811890Y46990D01*
X260747Y451993D02*
X272415D01*
X272542Y451866D01*
X260620Y452120D02*
X260747Y451993D01*
X293480Y391160D02*
X294750Y389890D01*
X180340Y699990D02*
X182144Y698186D01*
X192846D02*
X193040Y697992D01*
X182144Y698186D02*
X192846D01*
X121560Y692785D02*
Y706120D01*
X123190Y690880D02*
Y691155D01*
X121560Y692785D02*
X123190Y691155D01*
X117327Y652780D02*
X117602D01*
X113478Y656629D02*
X117327Y652780D01*
X117154Y642052D02*
X117348Y641858D01*
X104967Y642052D02*
X117154D01*
X102870Y659130D02*
X105371Y656629D01*
X113478D01*
X102870Y644150D02*
X104967Y642052D01*
X70337Y704342D02*
X70612D01*
X60710Y703150D02*
X69145D01*
X70337Y704342D01*
X60250Y638690D02*
X63000D01*
X69544Y632146D01*
X60250Y702690D02*
X60710Y703150D01*
X71942Y632146D02*
X72136Y631952D01*
X71725Y579345D02*
X71750Y579320D01*
X165460Y518160D02*
X168762Y514858D01*
X177292D01*
X109788Y523932D02*
X109982Y524126D01*
X96574Y523932D02*
X109788D01*
X95504Y522862D02*
X96574Y523932D01*
X69544Y632146D02*
X71942D01*
X60275Y579345D02*
X71725D01*
X60250Y579370D02*
X60275Y579345D01*
X68507Y514910D02*
X71353Y512064D01*
X60710Y514910D02*
X68507D01*
X71353Y512064D02*
X71628D01*
X60250Y515370D02*
X60710Y514910D01*
X408602Y232748D02*
X408686Y232664D01*
X425282D02*
X425366Y232580D01*
X408686Y232664D02*
X425282D01*
X469392Y91440D02*
X469586Y91246D01*
X481376D02*
X482092Y90530D01*
X469586Y91246D02*
X481376D01*
X167384Y651004D02*
X254363D01*
X261874Y658515D01*
Y661573D01*
X266901Y666600D01*
X268430D01*
X271374Y669544D01*
X274374D01*
X218694Y713740D02*
X228707D01*
X261874Y680573D01*
Y677515D02*
Y680573D01*
Y677515D02*
X266901Y672488D01*
X268430D01*
X271374Y669544D01*
X102870Y720598D02*
X132720D01*
X66436Y696134D02*
X78406D01*
X102870Y720598D01*
X132720D02*
X135696Y717622D01*
Y710484D02*
Y717622D01*
Y710484D02*
X140060Y706120D01*
X60710Y695150D02*
X65452D01*
X60250Y694690D02*
X60710Y695150D01*
X65452D02*
X66436Y696134D01*
X147320Y580500D02*
Y581300D01*
Y580500D02*
X181864Y545956D01*
Y545846D02*
Y545956D01*
X144468Y546548D02*
X147320Y549400D01*
X121606Y546548D02*
X144468D01*
X121412Y546354D02*
X121606Y546548D01*
X153734Y584410D02*
X161544Y592220D01*
X147320Y581300D02*
X150430Y584410D01*
X153734D01*
X161544Y592220D02*
Y607566D01*
X179268Y682812D02*
X180090Y681990D01*
X162754Y682812D02*
X179268D01*
X162560Y683006D02*
X162754Y682812D01*
X135891Y619505D02*
X149605D01*
X135890Y619506D02*
X135891Y619505D01*
X149605D02*
X161544Y607566D01*
X149606Y651004D02*
X167384D01*
X59790Y694230D02*
X60710Y695150D01*
X48562Y694230D02*
X59790D01*
X171569Y712216D02*
X195326D01*
X201422Y706120D02*
Y706120D01*
X195326Y712216D02*
X201422Y706120D01*
X165473Y706120D02*
X171569Y712216D01*
X36830Y682498D02*
X48562Y694230D01*
X36830Y663613D02*
Y682498D01*
Y663613D02*
X53293Y647150D01*
X59790D01*
X60250Y646690D01*
X140060Y706120D02*
X165473D01*
X135141Y399301D02*
X139700Y403860D01*
X135141Y389971D02*
Y399301D01*
X50800Y305630D02*
X135141Y389971D01*
X146304Y504952D02*
X146498Y505146D01*
X43942Y523240D02*
X44007Y523305D01*
X60185D02*
X60250Y523370D01*
X44007Y523305D02*
X60185D01*
X34798Y532384D02*
X43942Y523240D01*
X146498Y505146D02*
Y517698D01*
X147140Y518340D01*
X46352Y571370D02*
X60250D01*
X34798Y532384D02*
Y559816D01*
X46352Y571370D01*
X139700Y429260D02*
X139770Y429190D01*
X260550D01*
X260620Y429120D01*
X275480Y391160D02*
Y414260D01*
X265330Y424410D02*
X275480Y414260D01*
X265330Y424410D02*
Y427160D01*
X263370Y429120D02*
X265330Y427160D01*
X260620Y429120D02*
X263370D01*
X304660Y475120D02*
X308610Y471170D01*
X260620Y475120D02*
X304660D01*
D93*
X875662Y97234D02*
X917194D01*
X873760Y95332D02*
X875662Y97234D01*
X541274Y161036D02*
X553064D01*
X546100Y209550D02*
X559710D01*
X555498Y311510D02*
Y322580D01*
X583184Y288720D02*
Y293720D01*
X575056Y347472D02*
X588772D01*
X552450Y372110D02*
X560883D01*
X561278Y372505D01*
X563365D01*
X568960Y378100D01*
X588772Y347472D02*
X589280Y347980D01*
X613552Y382412D02*
Y399073D01*
X613410Y382270D02*
X613552Y382412D01*
Y399073D02*
X613694Y399215D01*
X344170Y430530D02*
Y441452D01*
Y430530D02*
X345440Y429260D01*
X308610Y445770D02*
X339233D01*
X343551Y441452D02*
X344170D01*
X339233Y445770D02*
X343551Y441452D01*
X378714Y428244D02*
Y439420D01*
X606044Y665226D02*
X615102D01*
X617642Y662686D01*
X626395Y452865D02*
Y459040D01*
X634560Y467205D01*
X644645D01*
X647700Y470260D02*
X659490D01*
X632206Y600202D02*
X644288D01*
X631952Y628142D02*
X643276D01*
X644292Y627126D02*
X644542Y626876D01*
X644288Y600202D02*
X644542Y600456D01*
Y626876D01*
X643276Y628142D02*
X644292Y627126D01*
X834030Y144780D02*
X842010D01*
X829310Y149500D02*
X834030Y144780D01*
X895604Y146812D02*
X895930Y147138D01*
X825765Y253500D02*
X826265Y254000D01*
X895930Y147138D02*
Y162996D01*
X896255Y163322D01*
X836930Y185060D02*
X838123Y186253D01*
X825765Y253230D02*
Y253500D01*
X838123Y186253D02*
X844113D01*
X844550Y186690D01*
X716280Y367390D02*
X716640Y367030D01*
X659490Y470260D02*
X662940Y473710D01*
X716280Y367390D02*
Y379730D01*
X735330Y369210D02*
Y381000D01*
X822960Y291190D02*
X826410Y294640D01*
X826265Y254000D02*
X834390D01*
X826410Y294640D02*
X835660D01*
X820780Y307340D02*
X833120D01*
X638450Y367030D02*
X638810Y367390D01*
Y379730D01*
X682773Y60727D02*
Y71753D01*
X682498Y60452D02*
X682773Y60727D01*
X680683Y74391D02*
X683047Y72028D01*
X682773Y71753D02*
X683047Y72028D01*
X809221Y733829D02*
X809244Y733806D01*
X799422Y719660D02*
X807621D01*
X799253Y733829D02*
X809221D01*
X799420Y706042D02*
X808383D01*
X799906Y697424D02*
Y705176D01*
X799230Y719852D02*
Y733852D01*
X785230D02*
X799230D01*
X799253Y733829D01*
X785230Y719852D02*
X799230D01*
X771230D02*
X785230D01*
X771230Y733852D02*
X785230D01*
X799230Y706232D02*
Y719852D01*
Y706232D02*
X799420Y706042D01*
X785230Y705852D02*
X799230D01*
X785230D02*
Y719852D01*
X771230Y705852D02*
X785230D01*
X785368Y696235D02*
Y700786D01*
X824849Y341630D02*
X864870D01*
X823579Y340360D02*
X824849Y341630D01*
X822960Y340360D02*
X823579D01*
X820420Y336858D02*
X822960Y339398D01*
X820420Y325480D02*
Y336858D01*
X792590Y364490D02*
X803910D01*
X791320Y365760D02*
X792590Y364490D01*
X785172Y733910D02*
Y742638D01*
X785230Y719852D02*
Y733852D01*
X771222Y719844D02*
X771230Y719836D01*
X771222Y719844D02*
X771230Y719852D01*
X770962Y734120D02*
X771230Y733852D01*
Y719852D02*
Y733852D01*
X762516Y719844D02*
X771222D01*
X762508Y719836D02*
X762516Y719844D01*
X771230Y705852D02*
Y719836D01*
X771320Y697837D02*
Y705762D01*
X757428Y704596D02*
X770039D01*
X755650Y369210D02*
Y381000D01*
X698500Y367390D02*
Y379730D01*
X698140Y367030D02*
X698500Y367390D01*
X665332Y624586D02*
X673862D01*
X662796Y600202D02*
X674624D01*
X662792Y627126D02*
X665332Y624586D01*
X662542Y600456D02*
X662796Y600202D01*
X656590Y367390D02*
Y379730D01*
X822050Y237490D02*
X833120D01*
X820420Y235860D02*
X822050Y237490D01*
X843931Y204470D02*
X844550D01*
X843021Y203560D02*
X843931Y204470D01*
X937514Y193870D02*
X937768Y193616D01*
Y180848D02*
Y193616D01*
X835410Y203560D02*
X843021D01*
X937768Y180848D02*
X938022Y180594D01*
X940562Y131461D02*
X943102Y128921D01*
X876300Y118872D02*
Y127422D01*
X829670Y167640D02*
X842010D01*
X829310Y168000D02*
X829670Y167640D01*
X943102Y118430D02*
Y128921D01*
X909730Y118430D02*
X943102D01*
X907632Y116332D02*
X909730Y118430D01*
X873760Y116332D02*
X907632D01*
X873760D02*
X876300Y118872D01*
X698187Y98490D02*
X701753D01*
X705755Y94488D02*
X706374D01*
X701753Y98490D02*
X705755Y94488D01*
X607060Y545940D02*
Y556260D01*
X587144Y459303D02*
X588294Y458152D01*
X579120Y459740D02*
X579557Y459303D01*
X587144D01*
X647700Y451760D02*
X648060Y452120D01*
X666750D01*
X596900Y419100D02*
X600994Y415005D01*
X574040Y419100D02*
X596900D01*
X588294Y452865D02*
Y458152D01*
X568710Y413770D02*
X574040Y419100D01*
X244406Y538592D02*
X244660Y538338D01*
X232268Y538592D02*
X244406D01*
X232014Y538846D02*
X232268Y538592D01*
X600994Y399215D02*
Y415005D01*
X586520Y363220D02*
X589280Y365980D01*
X575310Y363220D02*
X586520D01*
X556260Y403860D02*
X556879D01*
X558544Y402195D01*
X563365D01*
X344170Y409990D02*
X345440Y411260D01*
X344170Y399542D02*
Y409990D01*
X378460Y397764D02*
Y409990D01*
X563365Y402195D02*
X568960Y396600D01*
X568710D02*
Y413770D01*
Y396600D02*
X568960D01*
X294750Y389890D02*
X307086D01*
X650932Y94284D02*
X650940Y94293D01*
X650932Y87416D02*
Y94284D01*
X648970Y85455D02*
X650932Y87416D01*
X627526Y102350D02*
X632714Y107538D01*
Y107696D01*
X627526Y101600D02*
Y102350D01*
X545338Y293370D02*
X555138D01*
X558186Y221234D02*
X560324Y223372D01*
X544576Y221234D02*
X558186D01*
X581279Y101727D02*
X590023D01*
X590150Y101854D01*
X581152Y101600D02*
X581279Y101727D01*
X549203Y184967D02*
X552141D01*
X548129Y174851D02*
X549203Y175925D01*
Y184967D01*
X539087Y174851D02*
X548129D01*
X538988Y174752D02*
X539087Y174851D01*
X672084Y111252D02*
X672427Y110909D01*
Y99529D02*
Y110909D01*
Y99529D02*
X673486Y98470D01*
X807360Y79760D02*
Y80010D01*
X792120Y64520D02*
X807360Y79760D01*
X792120Y48260D02*
Y64520D01*
X785135Y96520D02*
X791100D01*
X807360Y80010D02*
Y80260D01*
X791100Y96520D02*
X807360Y80260D01*
X761114Y96520D02*
X785135D01*
X795640Y107025D02*
Y107950D01*
X785135Y96520D02*
X795640Y107025D01*
X890002Y743980D02*
X925336D01*
X887730Y746252D02*
X890002Y743980D01*
X925336D02*
X944880Y763524D01*
X912636Y756680D02*
X944880Y788924D01*
X887730Y758952D02*
X890002Y756680D01*
X912636D01*
X773430Y365870D02*
Y378460D01*
X773320Y365760D02*
X773430Y365870D01*
D94*
X556909Y244404D02*
X574157D01*
X505460Y300990D02*
X558414Y248036D01*
X501828Y299485D02*
X556909Y244404D01*
X505460Y300990D02*
Y356362D01*
X558414Y248036D02*
X574157D01*
X501828Y299485D02*
Y354857D01*
X319411Y537274D02*
X501828Y354857D01*
X320916Y540906D02*
X505460Y356362D01*
X280387Y540906D02*
X320916D01*
X280387Y537274D02*
X319411D01*
X94020Y669836D02*
X224574D01*
X231582Y676844D02*
X247174D01*
X224574Y669836D02*
X231582Y676844D01*
X279450Y541843D02*
X280387Y540906D01*
X271634Y548590D02*
X274634D01*
X279450Y541843D02*
Y543774D01*
X274634Y548590D02*
X279450Y543774D01*
X271634Y529590D02*
X274634D01*
X279450Y536337D02*
X280387Y537274D01*
X279450Y534406D02*
Y536337D01*
X274634Y529590D02*
X279450Y534406D01*
X245186Y531038D02*
X246634Y529590D01*
X233402Y547472D02*
X247088D01*
X224163Y538233D02*
X233402Y547472D01*
X574157Y248036D02*
X574244Y248123D01*
X582587D01*
X583184Y248720D01*
X86448Y538233D02*
X224163D01*
X69811Y554870D02*
X86448Y538233D01*
X60950Y554170D02*
X61650Y554870D01*
X69811D01*
X56000D02*
X60250D01*
X60950Y554170D01*
X54316Y553186D02*
X56000Y554870D01*
X52684Y552122D02*
X53748Y553186D01*
X54316D01*
X59550Y545570D02*
X60250Y544870D01*
X54732Y545570D02*
X59550D01*
X52684Y547618D02*
Y552122D01*
Y547618D02*
X54732Y545570D01*
X67816Y548586D02*
X81801Y534601D01*
X65768Y540570D02*
X67816Y542618D01*
X81801Y534601D02*
X224536D01*
X66879Y549523D02*
X67816Y548586D01*
Y542618D02*
Y548586D01*
X224536Y534601D02*
X228099Y531038D01*
X245186D01*
X60597Y549523D02*
X66879D01*
X60250Y549870D02*
X60597Y549523D01*
X60950Y540570D02*
X65768D01*
X60250Y539870D02*
X60950Y540570D01*
X574157Y244404D02*
X574244Y244317D01*
X582587D01*
X583184Y243720D01*
X277374Y660044D02*
X282190Y664860D01*
X529260Y296293D02*
Y426231D01*
X532892Y297798D02*
Y427736D01*
X287763Y667728D02*
X529260Y426231D01*
X282190Y664860D02*
Y666596D01*
X283322Y667728D02*
X287763D01*
X289268Y671360D02*
X532892Y427736D01*
X282190Y666596D02*
X283322Y667728D01*
X283127Y671360D02*
X289268D01*
X529260Y296293D02*
X551833Y273720D01*
X532892Y297798D02*
X553338Y277352D01*
X575661D01*
X574576Y273301D02*
X582765D01*
X551833Y273720D02*
X574157D01*
X576080Y276933D02*
X579843D01*
X582765Y273301D02*
X583184Y273720D01*
X579843Y276933D02*
X580262Y277352D01*
X574157Y273720D02*
X574576Y273301D01*
X575661Y277352D02*
X576080Y276933D01*
X274374Y679044D02*
X277374D01*
X282190Y674228D01*
Y672298D02*
Y674228D01*
Y672298D02*
X283127Y671360D01*
X274374Y660044D02*
X277374D01*
X91690Y667506D02*
X94020Y669836D01*
X94243Y664923D02*
X95524Y666204D01*
X225082D01*
X229042Y662244D01*
X244174D01*
X246374Y660044D01*
X247174Y676844D02*
X249374Y679044D01*
X246374Y660044D02*
X249374D01*
X60934Y663874D02*
X93306D01*
X94243Y664811D01*
Y664923D01*
X60250Y663190D02*
X60934Y663874D01*
X60934Y667506D02*
X91690D01*
X60250Y668190D02*
X60934Y667506D01*
X59550Y672490D02*
X60250Y673190D01*
X54013Y672490D02*
X59550D01*
X52176Y670653D02*
X54013Y672490D01*
X52176Y665727D02*
Y670653D01*
X54013Y663890D02*
X59550D01*
X52176Y665727D02*
X54013Y663890D01*
X59550D02*
X60250Y663190D01*
X60950Y677490D02*
X66487D01*
X68324Y670727D02*
Y675653D01*
X66487Y677490D02*
X68324Y675653D01*
X60250Y678190D02*
X60950Y677490D01*
X66487Y668890D02*
X68324Y670727D01*
X60950Y668890D02*
X66487D01*
X60250Y668190D02*
X60950Y668890D01*
D95*
X448496Y172481D02*
D03*
Y142481D02*
D03*
X503496Y172481D02*
D03*
Y142481D02*
D03*
X428483Y269426D02*
D03*
X458483D02*
D03*
X428483Y324426D02*
D03*
X458483D02*
D03*
D96*
X911098Y488696D02*
D03*
Y463296D02*
D03*
X885698Y488696D02*
D03*
Y463296D02*
D03*
X936498Y488696D02*
D03*
Y463296D02*
D03*
X860298Y488696D02*
D03*
Y463296D02*
D03*
X834898Y488696D02*
D03*
D97*
X944880Y687324D02*
D03*
X864870Y341630D02*
D03*
X944880Y763524D02*
D03*
Y738124D02*
D03*
Y712724D02*
D03*
X139700Y429260D02*
D03*
Y454660D02*
D03*
X864870Y316230D02*
D03*
X374142Y769620D02*
D03*
X399542D02*
D03*
X450342D02*
D03*
X424942D02*
D03*
D98*
X50800Y377630D02*
D03*
D99*
X38354Y775462D02*
D03*
X48260Y53340D02*
D03*
X1005840D02*
D03*
Y764290D02*
D03*
D100*
X944880Y788924D02*
D03*
X139700Y403860D02*
D03*
X864870Y290830D02*
D03*
D101*
X834898Y463296D02*
D03*
D102*
X475742Y769620D02*
D03*
D103*
X50800Y305630D02*
D03*
D104*
X901954Y76962D02*
D03*
X692658Y147320D02*
D03*
X598170Y260858D02*
D03*
X544576Y105918D02*
D03*
X541274Y161036D02*
D03*
X546100Y209550D02*
D03*
X555498Y322580D02*
D03*
X598170Y147320D02*
D03*
X632460Y143510D02*
D03*
X552450Y372110D02*
D03*
X575056Y347472D02*
D03*
X613410Y382270D02*
D03*
X344170Y441452D02*
D03*
X378714Y439420D02*
D03*
X606044Y665226D02*
D03*
X632206Y600202D02*
D03*
X631952Y628142D02*
D03*
X651002Y784098D02*
D03*
X758190Y143510D02*
D03*
X783590Y222250D02*
D03*
X825754Y96266D02*
D03*
X842010Y144780D02*
D03*
X895604Y146812D02*
D03*
X844550Y186690D02*
D03*
X834390Y254000D02*
D03*
X662940Y473710D02*
D03*
X716280Y379730D02*
D03*
X735330Y381000D02*
D03*
X835660Y294640D02*
D03*
X833120Y307340D02*
D03*
X900430Y300736D02*
D03*
X638810Y379730D02*
D03*
X182626Y462534D02*
D03*
X185420Y474980D02*
D03*
X202946Y487680D02*
D03*
X215392Y443230D02*
D03*
X240538Y467106D02*
D03*
X214376Y454152D02*
D03*
X219202Y480568D02*
D03*
X216408Y471678D02*
D03*
X224282Y441452D02*
D03*
X237744Y447040D02*
D03*
X224536Y461264D02*
D03*
X231140Y477266D02*
D03*
X184658Y441452D02*
D03*
X176022Y454660D02*
D03*
X180086Y447548D02*
D03*
X199898Y480822D02*
D03*
X177546Y468376D02*
D03*
X188976Y483870D02*
D03*
X682498Y60452D02*
D03*
X681990Y50800D02*
D03*
X693674Y63246D02*
D03*
X216408Y567182D02*
D03*
X95250Y588264D02*
D03*
X236474Y669544D02*
D03*
X897890Y798576D02*
D03*
X809244Y733806D02*
D03*
X808228Y719328D02*
D03*
X808990Y706374D02*
D03*
X785114Y742696D02*
D03*
X800100Y697230D02*
D03*
X822960Y340360D02*
D03*
X932434Y286766D02*
D03*
X803910Y364490D02*
D03*
X785114Y695706D02*
D03*
X763016Y734314D02*
D03*
X762508Y719836D02*
D03*
X771652Y697230D02*
D03*
X757428Y704596D02*
D03*
X698500Y796036D02*
D03*
X653542Y713486D02*
D03*
X666242Y678434D02*
D03*
X755650Y381000D02*
D03*
X698500Y379730D02*
D03*
X673862Y624586D02*
D03*
X674624Y600202D02*
D03*
X666750Y452120D02*
D03*
X656590Y379730D02*
D03*
X834390Y270510D02*
D03*
X833120Y237490D02*
D03*
X844550Y204470D02*
D03*
X782320Y212090D02*
D03*
X783590Y193040D02*
D03*
X940562Y131461D02*
D03*
X938022Y180594D02*
D03*
X876300Y127422D02*
D03*
X842010Y167640D02*
D03*
X826262Y67056D02*
D03*
X748030Y143510D02*
D03*
X769874Y75438D02*
D03*
X822960Y46990D02*
D03*
X709930Y144780D02*
D03*
X702310Y190500D02*
D03*
X685546Y154178D02*
D03*
X702564Y144272D02*
D03*
X693166Y115062D02*
D03*
X708152Y103378D02*
D03*
X714502Y97028D02*
D03*
X701802Y109728D02*
D03*
X706374Y94488D02*
D03*
X706628Y85852D02*
D03*
X703580Y74930D02*
D03*
X697738Y69342D02*
D03*
X655193Y74422D02*
D03*
X607060Y556260D02*
D03*
X579120Y459740D02*
D03*
X272542Y451866D02*
D03*
X232014Y538846D02*
D03*
X556260Y403860D02*
D03*
X378460Y397764D02*
D03*
X344170Y399542D02*
D03*
X575310Y363220D02*
D03*
X307086Y389890D02*
D03*
X193040Y697992D02*
D03*
X123190Y690880D02*
D03*
X117602Y652780D02*
D03*
X117348Y641858D02*
D03*
X70612Y704342D02*
D03*
X72136Y631952D02*
D03*
X177292Y514858D02*
D03*
X109982Y524126D02*
D03*
X71750Y579320D02*
D03*
X71628Y512064D02*
D03*
X645160Y328930D02*
D03*
X641350Y143510D02*
D03*
X598678Y281940D02*
D03*
X598170Y175260D02*
D03*
X597662Y228600D02*
D03*
X652780Y113538D02*
D03*
X648970Y85455D02*
D03*
X643866Y76684D02*
D03*
X640334Y112776D02*
D03*
X632714Y107696D02*
D03*
X634276Y94100D02*
D03*
X602742Y113284D02*
D03*
X623570Y71120D02*
D03*
X599186D02*
D03*
X611378D02*
D03*
X545338Y293370D02*
D03*
X408602Y232748D02*
D03*
X544576Y221234D02*
D03*
X588881Y113284D02*
D03*
X581152Y101600D02*
D03*
X587103Y71120D02*
D03*
X574276Y112540D02*
D03*
X538988Y174752D02*
D03*
X573024Y95250D02*
D03*
X574294Y71882D02*
D03*
X573532Y84836D02*
D03*
X469392Y91440D02*
D03*
X672846Y144018D02*
D03*
X181864Y545846D02*
D03*
X121412Y546354D02*
D03*
X135890Y619506D02*
D03*
X162560Y683006D02*
D03*
X670306Y366776D02*
D03*
X672084Y111252D02*
D03*
X669036Y501396D02*
D03*
X661416Y510032D02*
D03*
X616458Y510540D02*
D03*
X596900Y510794D02*
D03*
X632460Y255016D02*
D03*
X146304Y504952D02*
D03*
X43942Y523240D02*
D03*
X651764Y662178D02*
D03*
X860552Y764032D02*
D03*
X567182Y191262D02*
D03*
X705104Y431546D02*
D03*
X745744Y424942D02*
D03*
X675386Y359156D02*
D03*
X913638Y229362D02*
D03*
X917194Y181356D02*
D03*
X913384Y253238D02*
D03*
X891286Y193802D02*
D03*
X946404Y264668D02*
D03*
X777240Y267970D02*
D03*
X781050Y278130D02*
D03*
X783590Y259080D02*
D03*
Y179070D02*
D03*
X773430Y378460D02*
D03*
X782320Y295910D02*
D03*
Y287020D02*
D03*
X654050Y328930D02*
D03*
X596900Y184150D02*
D03*
X718820Y144780D02*
D03*
D105*
X664286Y66152D02*
D03*
X673862Y57912D02*
D03*
M02*
