G04*
G04 #@! TF.GenerationSoftware,Altium Limited,Altium Designer,26.4.1 (12)*
G04*
G04 Layer_Color=32896*
%FSLAX44Y44*%
%MOMM*%
G71*
G04*
G04 #@! TF.SameCoordinates,A4BDB4C6-CF89-4302-B2B3-16895CE94145*
G04*
G04*
G04 #@! TF.FilePolarity,Positive*
G04*
G01*
G75*
%ADD13C,0.2000*%
%ADD15C,0.1524*%
%ADD16C,0.1270*%
D13*
X543670Y477930D02*
X554128D01*
X543670Y455070D02*
X554128D01*
D15*
X578726Y498066D02*
Y487910D01*
X573648D01*
X571955Y489602D01*
Y491295D01*
X573648Y492988D01*
X578726D01*
X573648D01*
X571955Y494681D01*
Y496373D01*
X573648Y498066D01*
X578726D01*
X568569Y494681D02*
Y489602D01*
X566876Y487910D01*
X561798D01*
Y486217D01*
X563491Y484524D01*
X565184D01*
X561798Y487910D02*
Y494681D01*
X558413Y484524D02*
Y494681D01*
X553334D01*
X551641Y492988D01*
Y489602D01*
X553334Y487910D01*
X558413D01*
X546563Y494681D02*
X543177D01*
X541485Y492988D01*
Y487910D01*
X546563D01*
X548256Y489602D01*
X546563Y491295D01*
X541485D01*
X538099Y487910D02*
X533021D01*
X531328Y489602D01*
X533021Y491295D01*
X536406D01*
X538099Y492988D01*
X536406Y494681D01*
X531328D01*
X527942Y487910D02*
X522864D01*
X521171Y489602D01*
X522864Y491295D01*
X526250D01*
X527942Y492988D01*
X526250Y494681D01*
X521171D01*
D16*
X504270Y160863D02*
X505116Y161709D01*
X506809D01*
X507655Y160863D01*
Y157477D01*
X506809Y156631D01*
X505116D01*
X504270Y157477D01*
Y159170D01*
X505963D01*
X502577Y156631D02*
Y161709D01*
X499191Y156631D01*
Y161709D01*
X497499D02*
Y156631D01*
X494959D01*
X494113Y157477D01*
Y160863D01*
X494959Y161709D01*
X497499D01*
X473790Y66459D02*
X477175D01*
Y63920D01*
X475483Y64766D01*
X474636D01*
X473790Y63920D01*
Y62227D01*
X474636Y61381D01*
X476329D01*
X477175Y62227D01*
X472097Y66459D02*
Y63074D01*
X470404Y61381D01*
X468711Y63074D01*
Y66459D01*
X533480Y60111D02*
X536865D01*
X533480Y63496D01*
Y64343D01*
X534326Y65189D01*
X536019D01*
X536865Y64343D01*
X529248Y60111D02*
Y65189D01*
X531787Y62650D01*
X528401D01*
X526709Y65189D02*
Y61804D01*
X525016Y60111D01*
X523323Y61804D01*
Y65189D01*
X691215Y156863D02*
X692061Y157709D01*
X693754D01*
X694600Y156863D01*
Y153477D01*
X693754Y152631D01*
X692061D01*
X691215Y153477D01*
Y155170D01*
X692907D01*
X689522Y152631D02*
Y157709D01*
X686136Y152631D01*
Y157709D01*
X684443D02*
Y152631D01*
X681904D01*
X681058Y153477D01*
Y156863D01*
X681904Y157709D01*
X684443D01*
X660734Y62459D02*
X664120D01*
Y59920D01*
X662427Y60766D01*
X661581D01*
X660734Y59920D01*
Y58227D01*
X661581Y57381D01*
X663274D01*
X664120Y58227D01*
X659042Y62459D02*
Y59074D01*
X657349Y57381D01*
X655656Y59074D01*
Y62459D01*
X720424Y56111D02*
X723810D01*
X720424Y59496D01*
Y60343D01*
X721271Y61189D01*
X722964D01*
X723810Y60343D01*
X716192Y56111D02*
Y61189D01*
X718732Y58650D01*
X715346D01*
X713653Y61189D02*
Y57804D01*
X711961Y56111D01*
X710268Y57804D01*
Y61189D01*
X881172Y156307D02*
X882019Y157153D01*
X883711D01*
X884558Y156307D01*
Y152921D01*
X883711Y152075D01*
X882019D01*
X881172Y152921D01*
Y154614D01*
X882865D01*
X879479Y152075D02*
Y157153D01*
X876094Y152075D01*
Y157153D01*
X874401D02*
Y152075D01*
X871862D01*
X871015Y152921D01*
Y156307D01*
X871862Y157153D01*
X874401D01*
X850692Y61903D02*
X854078D01*
Y59364D01*
X852385Y60210D01*
X851538D01*
X850692Y59364D01*
Y57671D01*
X851538Y56825D01*
X853231D01*
X854078Y57671D01*
X848999Y61903D02*
Y58518D01*
X847307Y56825D01*
X845614Y58518D01*
Y61903D01*
X910382Y55555D02*
X913768D01*
X910382Y58940D01*
Y59787D01*
X911228Y60633D01*
X912921D01*
X913768Y59787D01*
X906150Y55555D02*
Y60633D01*
X908689Y58094D01*
X905304D01*
X903611Y60633D02*
Y57248D01*
X901918Y55555D01*
X900225Y57248D01*
Y60633D01*
X126964Y160113D02*
X127811Y160959D01*
X129504D01*
X130350Y160113D01*
Y156727D01*
X129504Y155881D01*
X127811D01*
X126964Y156727D01*
Y158420D01*
X128657D01*
X125272Y155881D02*
Y160959D01*
X121886Y155881D01*
Y160959D01*
X120193D02*
Y155881D01*
X117654D01*
X116808Y156727D01*
Y160113D01*
X117654Y160959D01*
X120193D01*
X96484Y65709D02*
X99870D01*
Y63170D01*
X98177Y64016D01*
X97331D01*
X96484Y63170D01*
Y61477D01*
X97331Y60631D01*
X99024D01*
X99870Y61477D01*
X94792Y65709D02*
Y62324D01*
X93099Y60631D01*
X91406Y62324D01*
Y65709D01*
X156174Y59361D02*
X159560D01*
X156174Y62746D01*
Y63593D01*
X157021Y64439D01*
X158714D01*
X159560Y63593D01*
X151942Y59361D02*
Y64439D01*
X154482Y61900D01*
X151096D01*
X149403Y64439D02*
Y61054D01*
X147711Y59361D01*
X146018Y61054D01*
Y64439D01*
X318464Y160083D02*
X319311Y160929D01*
X321004D01*
X321850Y160083D01*
Y156697D01*
X321004Y155851D01*
X319311D01*
X318464Y156697D01*
Y158390D01*
X320157D01*
X316772Y155851D02*
Y160929D01*
X313386Y155851D01*
Y160929D01*
X311693D02*
Y155851D01*
X309154D01*
X308308Y156697D01*
Y160083D01*
X309154Y160929D01*
X311693D01*
X287984Y65679D02*
X291370D01*
Y63140D01*
X289677Y63986D01*
X288831D01*
X287984Y63140D01*
Y61447D01*
X288831Y60601D01*
X290524D01*
X291370Y61447D01*
X286292Y65679D02*
Y62294D01*
X284599Y60601D01*
X282906Y62294D01*
Y65679D01*
X347674Y59331D02*
X351060D01*
X347674Y62716D01*
Y63563D01*
X348521Y64409D01*
X350214D01*
X351060Y63563D01*
X343442Y59331D02*
Y64409D01*
X345982Y61870D01*
X342596D01*
X340903Y64409D02*
Y61024D01*
X339211Y59331D01*
X337518Y61024D01*
Y64409D01*
M02*
