G04*
G04 #@! TF.GenerationSoftware,Altium Limited,Altium Designer,26.4.1 (12)*
G04*
G04 Layer_Color=8421504*
%FSLAX44Y44*%
%MOMM*%
G71*
G04*
G04 #@! TF.SameCoordinates,A4BDB4C6-CF89-4302-B2B3-16895CE94145*
G04*
G04*
G04 #@! TF.FilePolarity,Positive*
G04*
G01*
G75*
%ADD17R,1.6121X1.2500*%
%ADD18R,5.4000X2.9000*%
%ADD19R,1.3500X1.0000*%
%ADD20R,1.0000X1.3995*%
%ADD21R,1.3995X1.0000*%
%ADD22R,1.7280X1.1901*%
%ADD23R,1.1901X1.7280*%
%ADD24R,1.0000X1.3500*%
%ADD25R,2.1100X1.2700*%
%ADD26R,0.6000X0.2500*%
%ADD27R,0.2500X0.6000*%
%ADD28R,2.9042X1.8526*%
%ADD29R,0.5725X0.6153*%
%ADD30R,0.6153X0.5725*%
%ADD31R,0.5000X0.4500*%
%ADD32R,0.4500X0.5000*%
G36*
X975993Y731059D02*
X976003Y730962D01*
Y723842D01*
X975993Y723744D01*
X975965Y723650D01*
X975918Y723564D01*
X975856Y723488D01*
X975780Y723426D01*
X975694Y723380D01*
X975600Y723351D01*
X975503Y723342D01*
X974003D01*
X973905Y723351D01*
X973811Y723380D01*
X973725Y723426D01*
X973649Y723488D01*
X973587Y723564D01*
X973541Y723650D01*
X973512Y723744D01*
X973503Y723842D01*
Y730962D01*
X973512Y731059D01*
X973541Y731153D01*
X973587Y731239D01*
X973649Y731315D01*
X973725Y731377D01*
X973811Y731423D01*
X973905Y731452D01*
X974003Y731462D01*
X975503D01*
X975600Y731452D01*
X975694Y731423D01*
X975780Y731377D01*
X975856Y731315D01*
X975918Y731239D01*
X975965Y731153D01*
X975993Y731059D01*
D02*
G37*
G36*
Y741209D02*
X976003Y741112D01*
Y733992D01*
X975993Y733894D01*
X975965Y733800D01*
X975918Y733714D01*
X975856Y733638D01*
X975780Y733576D01*
X975694Y733530D01*
X975600Y733501D01*
X975503Y733492D01*
X974003D01*
X973905Y733501D01*
X973811Y733530D01*
X973725Y733576D01*
X973649Y733638D01*
X973587Y733714D01*
X973541Y733800D01*
X973512Y733894D01*
X973503Y733992D01*
Y741112D01*
X973512Y741209D01*
X973541Y741303D01*
X973587Y741389D01*
X973649Y741465D01*
X973725Y741527D01*
X973811Y741573D01*
X973905Y741602D01*
X974003Y741612D01*
X975503D01*
X975600Y741602D01*
X975694Y741573D01*
X975780Y741527D01*
X975856Y741465D01*
X975918Y741389D01*
X975965Y741303D01*
X975993Y741209D01*
D02*
G37*
D17*
X924250Y526840D02*
D03*
Y547160D02*
D03*
D18*
X974500Y603955D02*
D03*
Y702955D02*
D03*
D19*
X957000Y528000D02*
D03*
Y510000D02*
D03*
X577529Y607472D02*
D03*
Y589472D02*
D03*
X507000Y594000D02*
D03*
Y612000D02*
D03*
X465966Y214491D02*
D03*
Y196490D02*
D03*
X657188Y211085D02*
D03*
Y193085D02*
D03*
X846750Y212750D02*
D03*
Y194750D02*
D03*
X84000Y215750D02*
D03*
Y197750D02*
D03*
X280919Y214975D02*
D03*
Y196975D02*
D03*
D20*
X956998Y549750D02*
D03*
X978004D02*
D03*
D21*
X615250Y603750D02*
D03*
Y582744D02*
D03*
D22*
X436966Y214941D02*
D03*
Y186040D02*
D03*
X627188Y180635D02*
D03*
Y209535D02*
D03*
X816750Y212200D02*
D03*
Y183300D02*
D03*
X61000Y185300D02*
D03*
Y214200D02*
D03*
X255919Y213425D02*
D03*
Y184525D02*
D03*
D23*
X966050Y359250D02*
D03*
X994950D02*
D03*
X993950Y482250D02*
D03*
X965050D02*
D03*
D24*
X266000Y421000D02*
D03*
X248000D02*
D03*
D25*
X464000Y573200D02*
D03*
Y612800D02*
D03*
X262000Y492800D02*
D03*
Y453200D02*
D03*
D26*
X965753Y729102D02*
D03*
Y735602D02*
D03*
Y742102D02*
D03*
Y747102D02*
D03*
X983753D02*
D03*
Y742102D02*
D03*
Y735602D02*
D03*
Y729102D02*
D03*
D27*
X969753Y754352D02*
D03*
X974753D02*
D03*
X979753D02*
D03*
D28*
X1060061Y747053D02*
D03*
Y718548D02*
D03*
X888939Y746305D02*
D03*
Y717800D02*
D03*
X1107500Y665003D02*
D03*
Y636498D02*
D03*
X838500Y665003D02*
D03*
Y636498D02*
D03*
X1064250Y665253D02*
D03*
Y636748D02*
D03*
X884500Y665003D02*
D03*
Y636498D02*
D03*
D29*
X1001500Y749464D02*
D03*
Y758036D02*
D03*
X995560Y729116D02*
D03*
Y737688D02*
D03*
X955850Y729108D02*
D03*
Y737679D02*
D03*
D30*
X981450Y765648D02*
D03*
X990021D02*
D03*
D31*
X949197Y754631D02*
D03*
X956697D02*
D03*
X966250Y765750D02*
D03*
X958750D02*
D03*
D32*
X939875Y747220D02*
D03*
Y754720D02*
D03*
M02*
