G04*
G04 #@! TF.GenerationSoftware,Altium Limited,Altium Designer,26.4.1 (12)*
G04*
G04 Layer_Color=8388736*
%FSLAX44Y44*%
%MOMM*%
G71*
G04*
G04 #@! TF.SameCoordinates,A4BDB4C6-CF89-4302-B2B3-16895CE94145*
G04*
G04*
G04 #@! TF.FilePolarity,Negative*
G04*
G01*
G75*
%ADD17R,1.6121X1.2500*%
%ADD25R,2.1100X1.2700*%
%ADD26R,0.6000X0.2500*%
%ADD27R,0.2500X0.6000*%
%ADD28R,2.9042X1.8526*%
%ADD29R,0.5725X0.6153*%
%ADD30R,0.6153X0.5725*%
%ADD33R,5.5500X3.0500*%
%ADD34R,1.5000X1.1500*%
%ADD35R,1.1500X1.5495*%
%ADD36R,1.5495X1.1500*%
%ADD37R,1.8780X1.3401*%
%ADD38R,1.3401X1.8780*%
%ADD39R,1.1500X1.5000*%
%ADD40R,0.2500X1.8250*%
%ADD41R,0.6500X0.6000*%
%ADD42R,0.6000X0.6500*%
%ADD43C,2.3500*%
%ADD44C,3.8500*%
%ADD45C,3.3500*%
%ADD46R,3.3600X3.3500*%
%ADD47C,1.4500*%
%ADD48C,1.9500*%
%ADD49C,2.1500*%
%ADD50R,1.2676X1.2676*%
%ADD51C,1.2676*%
%ADD52C,1.7000*%
%ADD53R,2.0500X2.0500*%
%ADD54C,2.0500*%
%ADD55R,2.4500X2.4500*%
%ADD56C,2.4500*%
%ADD57R,2.4500X2.4500*%
%ADD58C,1.6510*%
%ADD59R,1.6510X1.6510*%
%ADD60C,6.1500*%
%ADD61R,6.1500X6.1500*%
%ADD62C,3.6500*%
%ADD63C,0.7366*%
%ADD64C,1.3716*%
%ADD65C,0.8382*%
D17*
X924250Y526840D02*
D03*
Y547160D02*
D03*
D25*
X464000Y573200D02*
D03*
Y612800D02*
D03*
X262000Y492800D02*
D03*
Y453200D02*
D03*
D26*
X965753Y729102D02*
D03*
Y735602D02*
D03*
Y742102D02*
D03*
Y747102D02*
D03*
X983753D02*
D03*
Y742102D02*
D03*
Y735602D02*
D03*
Y729102D02*
D03*
D27*
X969753Y754352D02*
D03*
X974753D02*
D03*
X979753D02*
D03*
D28*
X1060061Y747053D02*
D03*
Y718548D02*
D03*
X888939Y746305D02*
D03*
Y717800D02*
D03*
X1107500Y665003D02*
D03*
Y636498D02*
D03*
X838500Y665003D02*
D03*
Y636498D02*
D03*
X1064250Y665253D02*
D03*
Y636748D02*
D03*
X884500Y665003D02*
D03*
Y636498D02*
D03*
D29*
X1001500Y749464D02*
D03*
Y758036D02*
D03*
X995560Y729116D02*
D03*
Y737688D02*
D03*
X955850Y729108D02*
D03*
Y737679D02*
D03*
D30*
X981450Y765648D02*
D03*
X990021D02*
D03*
D33*
X974500Y603955D02*
D03*
Y702955D02*
D03*
D34*
X957000Y528000D02*
D03*
Y510000D02*
D03*
X577529Y607472D02*
D03*
Y589472D02*
D03*
X507000Y594000D02*
D03*
Y612000D02*
D03*
X465966Y214491D02*
D03*
Y196490D02*
D03*
X657188Y211085D02*
D03*
Y193085D02*
D03*
X846750Y212750D02*
D03*
Y194750D02*
D03*
X84000Y215750D02*
D03*
Y197750D02*
D03*
X280919Y214975D02*
D03*
Y196975D02*
D03*
D35*
X956998Y549750D02*
D03*
X978004D02*
D03*
D36*
X615250Y603750D02*
D03*
Y582744D02*
D03*
D37*
X436966Y214941D02*
D03*
Y186040D02*
D03*
X627188Y180635D02*
D03*
Y209535D02*
D03*
X816750Y212200D02*
D03*
Y183300D02*
D03*
X61000Y185300D02*
D03*
Y214200D02*
D03*
X255919Y213425D02*
D03*
Y184525D02*
D03*
D38*
X966050Y359250D02*
D03*
X994950D02*
D03*
X993950Y482250D02*
D03*
X965050D02*
D03*
D39*
X266000Y421000D02*
D03*
X248000D02*
D03*
D40*
X974753Y732472D02*
D03*
D41*
X949197Y754631D02*
D03*
X956697D02*
D03*
X966250Y765750D02*
D03*
X958750D02*
D03*
D42*
X939875Y747220D02*
D03*
Y754720D02*
D03*
D43*
X713028Y482228D02*
D03*
X638030D02*
D03*
D44*
X1172500Y771500D02*
D03*
X1174000Y33500D02*
D03*
X32742Y31653D02*
D03*
X32250Y778250D02*
D03*
D45*
X397749Y677250D02*
D03*
X492750D02*
D03*
X587749D02*
D03*
X302750D02*
D03*
X207750D02*
D03*
X112750D02*
D03*
D46*
X682750D02*
D03*
D47*
X130000Y466000D02*
D03*
Y486000D02*
D03*
X321000Y436000D02*
D03*
Y416000D02*
D03*
D48*
X77000Y383125D02*
D03*
Y520875D02*
D03*
D49*
X374314Y553297D02*
D03*
D50*
X575750Y514750D02*
D03*
D51*
X497750D02*
D03*
D52*
X436740Y250571D02*
D03*
Y275972D02*
D03*
X632292Y247166D02*
D03*
Y272566D02*
D03*
X816457Y248831D02*
D03*
Y274231D02*
D03*
X51088Y251831D02*
D03*
Y277231D02*
D03*
X247539Y251056D02*
D03*
Y276456D02*
D03*
D53*
X313000Y576888D02*
D03*
D54*
Y551488D02*
D03*
Y526088D02*
D03*
D55*
X509950Y404750D02*
D03*
X186200Y567000D02*
D03*
D56*
X410750Y404750D02*
D03*
X509950Y438750D02*
D03*
X410750D02*
D03*
X87000Y567000D02*
D03*
X186200Y601000D02*
D03*
X87000D02*
D03*
X515709Y320056D02*
D03*
X549709Y220856D02*
D03*
Y320056D02*
D03*
X701254Y316056D02*
D03*
X735254Y216856D02*
D03*
Y316056D02*
D03*
X889325Y315500D02*
D03*
X923325Y216300D02*
D03*
Y315500D02*
D03*
X138065Y322574D02*
D03*
X172065Y223374D02*
D03*
Y322574D02*
D03*
X331961Y319276D02*
D03*
X365961Y220076D02*
D03*
Y319276D02*
D03*
D57*
X515709Y220856D02*
D03*
X701254Y216856D02*
D03*
X889325Y216300D02*
D03*
X138065Y223374D02*
D03*
X331961Y220076D02*
D03*
D58*
X196000Y458000D02*
D03*
Y483500D02*
D03*
D59*
Y509000D02*
D03*
D60*
X1140250Y324250D02*
D03*
X1140000Y447663D02*
D03*
D61*
X1068250Y324250D02*
D03*
X1068000Y447663D02*
D03*
D62*
X528805Y86780D02*
D03*
X501305Y134411D02*
D03*
X473805Y86780D02*
D03*
X715750Y82780D02*
D03*
X688250Y130411D02*
D03*
X660750Y82780D02*
D03*
X905708Y82224D02*
D03*
X878208Y129855D02*
D03*
X850708Y82224D02*
D03*
X151500Y86030D02*
D03*
X124000Y133661D02*
D03*
X96500Y86030D02*
D03*
X343000Y86000D02*
D03*
X315500Y133631D02*
D03*
X288000Y86000D02*
D03*
D63*
X997250Y536250D02*
D03*
X997500Y559250D02*
D03*
X932500Y568500D02*
D03*
X860250Y750000D02*
D03*
X841250D02*
D03*
X1022000Y777500D02*
D03*
X742500Y558500D02*
D03*
X1158020Y560020D02*
D03*
X1140270D02*
D03*
X1015160Y559520D02*
D03*
X884250Y557500D02*
D03*
X1122770Y559520D02*
D03*
X1104520Y559270D02*
D03*
X1087020D02*
D03*
X1066770D02*
D03*
X1050250Y559500D02*
D03*
X1033910Y559520D02*
D03*
X863500Y558250D02*
D03*
X845500D02*
D03*
X827500D02*
D03*
X806250Y558500D02*
D03*
X786250Y558250D02*
D03*
X762500Y558500D02*
D03*
X653000Y516250D02*
D03*
X660188Y529394D02*
D03*
X676020Y534770D02*
D03*
X698263Y500905D02*
D03*
X700250Y519750D02*
D03*
X691275Y532567D02*
D03*
X939500Y774500D02*
D03*
X939250Y785000D02*
D03*
X1008750Y775000D02*
D03*
X961000Y785250D02*
D03*
X984250D02*
D03*
X973250D02*
D03*
X973500Y775500D02*
D03*
X1009250Y786250D02*
D03*
X832000Y717000D02*
D03*
X1125500Y719500D02*
D03*
X1124750Y698000D02*
D03*
X1100000Y698750D02*
D03*
X1099750Y718500D02*
D03*
X1061500Y686000D02*
D03*
X1069000Y700500D02*
D03*
X1052750D02*
D03*
X892500Y686000D02*
D03*
X900750Y699750D02*
D03*
X883500Y699500D02*
D03*
X832000D02*
D03*
X853000Y699250D02*
D03*
X852500Y716250D02*
D03*
X925000Y776500D02*
D03*
X841750Y740500D02*
D03*
X841500Y759750D02*
D03*
X859750Y760000D02*
D03*
X1109000Y748750D02*
D03*
X860250Y740250D02*
D03*
X1109500Y739500D02*
D03*
X1088250Y739250D02*
D03*
X1087250Y759000D02*
D03*
X1087750Y748750D02*
D03*
D64*
X245500Y506750D02*
D03*
D65*
X1108500Y758500D02*
D03*
M02*
