M48
;Layer_Color=9474304
;FILE_FORMAT=4:4
METRIC,LZ
;TYPE=PLATED
T01F00S00C0.3000
T02F00S00C0.3048
T04F00S00C1.0000
T05F00S00C1.0200
T06F00S00C1.1000
T07F00S00C3.2000
T08F00S00C4.5500
%
T01
X0058453Y00066152
X00594106Y00057912
X00389382Y00393954
T02
X00389636Y0009144
X0046482Y00105918
X0049452Y0011254
X00509125Y00113284
X00522986
X00501396Y001016
X00493268Y0009525
X00493776Y00084836
X00494538Y00071882
X00507347Y0007112
X0051943
X00531622
X00543814
X0056411Y00076684
X00575437Y00074422
X00569214Y00085455
X0055452Y000941
X00552958Y00107696
X00560578Y00112776
X00573024Y00113538
X00592328Y00111252
X0061341Y00115062
X00622046Y00109728
X00628396Y00103378
X00626618Y00094488
X00626872Y00085852
X00623824Y0007493
X00617982Y00069342
X00613918Y00063246
X00602742Y00060452
X00602234Y000508
X00634746Y00097028
X00639064Y0014478
X00630174
X00622808Y00144272
X00612902Y0014732
X0060579Y00154178
X0059309Y00144018
X00561594Y0014351
X00552704
X00518414Y0014732
Y0017526
X00517144Y0018415
X00459232Y00174752
X00461518Y00161036
X00442468Y00192278
X00622554Y001905
X00703834Y0019304
Y0017907
X00678434Y0014351
X00668274
X00690118Y00075438
X00746506Y00067056
X00743204Y0004699
X00745998Y00096266
X00762254Y0014478
Y0016764
X00764794Y0018669
X00837438Y00181356
X00858266Y00180594
X00860806Y00131461
X00815848Y00146812
X00796544Y00127422
X00822198Y00076962
X0081153Y00193802
X00764794Y0020447
X00753364Y0023749
X00754634Y00254
Y0027051
X00755904Y0029464
X00753364Y0030734
X00743204Y0034036
X00724154Y0036449
X00820674Y00300736
X00852678Y00286766
X00866648Y00264668
X00833628Y00253238
X00833882Y00229362
X00703834Y0022225
X00702564Y0021209
X00703834Y0025908
X00697484Y0026797
X00701294Y0027813
X00702564Y0028702
Y0029591
X00693674Y0037846
X00675894Y00381
X00655574
X00636524Y0037973
X00618744
X0059055Y00366776
X0059563Y00359156
X00576834Y0037973
X00559054
X00533654Y0038227
X00495554Y0036322
X004953Y00347472
X00475742Y0032258
X00465582Y0029337
X00518922Y0028194
X00518414Y00260858
X00517906Y002286
X0046482Y00221234
X00466344Y0020955
X00552704Y00255016
X00565404Y0032893
X00574294
X00586994Y0045212
X00583184Y0047371
X0058928Y00501396
X0058166Y00510032
X00536702Y0051054
X00517144Y00510794
X00527304Y0055626
X00499364Y0045974
X00476504Y0040386
X00472694Y0037211
X003556Y00393446
Y00444754
X00388366Y00443738
X00625348Y00431546
X00665988Y00424942
X00328846Y00232748
X00316992Y0038862
X00282448Y00450596
X0024765Y0044577
X00234188Y00440182
X00225298Y0044196
X00224282Y00452882
X00234442Y00459994
X00226314Y00470408
X00229108Y00479298
X00241046Y00475996
X00250444Y00465836
X00209804Y00479552
X00212852Y0048641
X00198882Y004826
X00195326Y0047371
X00187452Y00467106
X00192532Y00461264
X00185928Y0045339
X00189992Y00446278
X00194564Y00440182
X00187198Y00513588
X0019177Y00544576
X00226314Y00565912
X0024192Y00537576
X00131318Y00545084
X00119888Y00522856
X00081534Y00510794
X00053848Y0052197
X00081656Y0057805
X00105156Y00586994
X0015621Y00503682
X00145796Y00618236
X00127254Y00640588
X00127508Y0065151
X00133096Y0068961
X00172466Y00681736
X00202946Y00696722
X0024638Y00668274
X00080518Y00703072
X00082042Y00630682
X00552196Y00628142
X0055245Y00600202
X00594868
X00594106Y00624586
X00572008Y00662178
X00586486Y00678434
X00573786Y00713486
X00571246Y00784098
X00618744Y00796036
X0068326Y00734314
X00682752Y00719836
X00677672Y00704596
X00691896Y0069723
X00705358Y00695706
Y00742696
X00526288Y00665226
X00720344Y0069723
X00729234Y00706374
X00728472Y00719328
X00729488Y00733806
X00780796Y00764032
X00818134Y00798576
T04
X00058336Y0017038
X0036874Y00172481
Y00142481
X0042374
Y00172481
X00378727Y00269426
X00348727
Y00324426
X00378727
X00452966Y00547062
Y00572062
X00581044Y00558292
X00606044
X00058336Y0019538
T05
X00318516Y004445
Y004699
T06
X00785114Y0029083
Y0031623
Y0034163
X00780542Y00463296
X00805942
Y00488696
X00831342
Y00463296
X00856742
Y00488696
X00780542
X00755142
Y00463296
X00149606Y0045339
Y0042799
Y0040259
X00294386Y0076962
X00319786
X00345186
X00370586
X00395986
X00865124Y00763524
Y00788924
Y00738124
Y00712724
Y00687324
T07
X00050244Y00051308
X00926084
X00050244Y0077343
X00926084
T08
X00060706Y0030436
Y0037636
M30
